0
SECTION
2
HEADER
9
$ANGBASE
50
0.0
9
$ANGDIR
70
0
0
ENDSEC
0
SECTION
2
TABLES
0
TABLE
2
LTYPE
70
1
0
LTYPE
2
CONTINUOUS
70
0
3
Solid line
72
65
73
0
40
0.0
0
ENDTAB
0
TABLE
2
LAYER
70
24
0
LAYER
2
BLACK
70
0
62
1
6
CONTINUOUS
0
LAYER
2
BLUE
70
0
62
2
6
CONTINUOUS
0
LAYER
2
GREEN
70
0
62
3
6
CONTINUOUS
0
LAYER
2
CYAN
70
0
62
4
6
CONTINUOUS
0
LAYER
2
RED
70
0
62
5
6
CONTINUOUS
0
LAYER
2
MAGENTA
70
0
62
6
6
CONTINUOUS
0
LAYER
2
BROWN
70
0
62
7
6
CONTINUOUS
0
LAYER
2
GRAY
70
0
62
8
6
CONTINUOUS
0
LAYER
2
DARKGRAY
70
0
62
9
6
CONTINUOUS
0
LAYER
2
LIGHTBLUE
70
0
62
10
6
CONTINUOUS
0
LAYER
2
LIGHTGREEN
70
0
62
11
6
CONTINUOUS
0
LAYER
2
LIGHTCYAN
70
0
62
12
6
CONTINUOUS
0
LAYER
2
LIGHTRED
70
0
62
13
6
CONTINUOUS
0
LAYER
2
LIGHTMAGENTA
70
0
62
14
6
CONTINUOUS
0
LAYER
2
YELLOW
70
0
62
15
6
CONTINUOUS
0
LAYER
2
WHITE
70
0
62
16
6
CONTINUOUS
0
LAYER
2
DARKDARKGRAY
70
0
62
17
6
CONTINUOUS
0
LAYER
2
DARKBLUE
70
0
62
18
6
CONTINUOUS
0
LAYER
2
DARKGREEN
70
0
62
19
6
CONTINUOUS
0
LAYER
2
DARKCYAN
70
0
62
20
6
CONTINUOUS
0
LAYER
2
DARKRED
70
0
62
21
6
CONTINUOUS
0
LAYER
2
DARKMAGENTA
70
0
62
22
6
CONTINUOUS
0
LAYER
2
DARKBROWN
70
0
62
23
6
CONTINUOUS
0
LAYER
2
LIGHTYELLOW
70
0
62
24
6
CONTINUOUS
0
ENDTAB
0
ENDSEC
0
SECTION
2
ENTITIES
0
LINE
8
BLACK
10
35114.0
20
55580.0
11
59122.0
21
55580.0
0
LINE
8
BLACK
10
35114.0
20
55730.0
11
59122.0
21
55730.0
0
ARC
8
BLACK
10
59122.0
20
55655.0
40
75.0
50
270.0
51
450.0
0
ARC
8
BLACK
10
35114.0
20
55655.0
40
75.0
50
90.0
51
270.0
0
LINE
8
BLACK
10
66682.0
20
24182.0
11
66682.0
21
48166.0
0
LINE
8
BLACK
10
66532.0
20
24182.0
11
66532.0
21
48166.0
0
ARC
8
BLACK
10
66607.0
20
48166.0
40
75.0
50
360.0
51
540.0
0
ARC
8
BLACK
10
66607.0
20
24182.0
40
75.0
50
180.0
51
360.0
0
LINE
8
BLACK
10
35114.0
20
16611.0
11
59142.0
21
16611.0
0
LINE
8
BLACK
10
35114.0
20
16761.0
11
59142.0
21
16761.0
0
ARC
8
BLACK
10
59142.0
20
16686.0
40
75.0
50
270.0
51
450.0
0
ARC
8
BLACK
10
35114.0
20
16686.0
40
75.0
50
90.0
51
270.0
0
LINE
8
BLACK
10
27713.0
20
24166.0
11
27713.0
21
48170.0
0
LINE
8
BLACK
10
27563.0
20
24166.0
11
27563.0
21
48170.0
0
ARC
8
BLACK
10
27638.0
20
48170.0
40
75.0
50
360.0
51
540.0
0
ARC
8
BLACK
10
27638.0
20
24166.0
40
75.0
50
180.0
51
360.0
0
LINE
8
BLACK
10
33337.0
20
18361.0
11
35057.0
21
16641.0
0
LINE
8
BLACK
10
33443.0
20
18467.0
11
35163.0
21
16747.0
0
ARC
8
BLACK
10
35110.0
20
16694.0
40
75.0
50
225.0
51
405.0
0
ARC
8
BLACK
10
33390.0
20
18414.0
40
75.0
50
45.0
51
225.0
0
ARC
8
BLACK
10
27642.0
20
24162.0
40
75.0
50
270.0
51
450.0
0
ARC
8
BLACK
10
27642.0
20
24162.0
40
75.0
50
90.0
51
270.0
0
LINE
8
BLACK
10
29404.0
20
22508.0
11
27697.0
21
24215.0
0
LINE
8
BLACK
10
29297.0
20
22401.0
11
27590.0
21
24108.0
0
ARC
8
BLACK
10
27644.0
20
24161.0
40
75.0
50
405.0
51
585.0
0
ARC
8
BLACK
10
29350.0
20
22455.0
40
75.0
50
225.0
51
405.0
0
LINE
8
BLACK
10
59217.0
20
16691.0
11
59217.0
21
16701.0
0
LINE
8
BLACK
10
59067.0
20
16691.0
11
59067.0
21
16701.0
0
ARC
8
BLACK
10
59142.0
20
16701.0
40
75.0
50
360.0
51
540.0
0
ARC
8
BLACK
10
59142.0
20
16691.0
40
75.0
50
180.0
51
360.0
0
LINE
8
BLACK
10
60797.0
20
18463.0
11
59089.0
21
16755.0
0
LINE
8
BLACK
10
60903.0
20
18357.0
11
59195.0
21
16649.0
0
ARC
8
BLACK
10
59142.0
20
16702.0
40
75.0
50
135.0
51
315.0
0
ARC
8
BLACK
10
60850.0
20
18410.0
40
75.0
50
-45.0
51
135.0
0
LINE
8
BLACK
10
66682.0
20
24168.0
11
66682.0
21
24170.0
0
LINE
8
BLACK
10
66532.0
20
24168.0
11
66532.0
21
24170.0
0
ARC
8
BLACK
10
66607.0
20
24170.0
40
75.0
50
360.0
51
540.0
0
ARC
8
BLACK
10
66607.0
20
24168.0
40
75.0
50
180.0
51
360.0
0
LINE
8
BLACK
10
64943.0
20
22398.0
11
66659.0
21
24114.0
0
LINE
8
BLACK
10
64837.0
20
22504.0
11
66553.0
21
24220.0
0
ARC
8
BLACK
10
66606.0
20
24167.0
40
75.0
50
315.0
51
495.0
0
ARC
8
BLACK
10
64890.0
20
22451.0
40
75.0
50
135.0
51
315.0
0
LINE
8
BLACK
10
66678.0
20
48174.0
11
66678.0
21
48178.0
0
LINE
8
BLACK
10
66528.0
20
48174.0
11
66528.0
21
48178.0
0
ARC
8
BLACK
10
66603.0
20
48178.0
40
75.0
50
360.0
51
540.0
0
ARC
8
BLACK
10
66603.0
20
48174.0
40
75.0
50
180.0
51
360.0
0
LINE
8
BLACK
10
64833.0
20
49842.0
11
66549.0
21
48126.0
0
LINE
8
BLACK
10
64939.0
20
49948.0
11
66655.0
21
48232.0
0
ARC
8
BLACK
10
66602.0
20
48179.0
40
75.0
50
225.0
51
405.0
0
ARC
8
BLACK
10
64886.0
20
49895.0
40
75.0
50
45.0
51
225.0
0
LINE
8
BLACK
10
59201.0
20
55656.0
11
59201.0
21
55658.0
0
LINE
8
BLACK
10
59051.0
20
55656.0
11
59051.0
21
55658.0
0
ARC
8
BLACK
10
59126.0
20
55658.0
40
75.0
50
360.0
51
540.0
0
ARC
8
BLACK
10
59126.0
20
55656.0
40
75.0
50
180.0
51
360.0
0
LINE
8
BLACK
10
60895.0
20
53992.0
11
59179.0
21
55708.0
0
LINE
8
BLACK
10
60789.0
20
53886.0
11
59073.0
21
55602.0
0
ARC
8
BLACK
10
59126.0
20
55655.0
40
75.0
50
405.0
51
585.0
0
ARC
8
BLACK
10
60842.0
20
53939.0
40
75.0
50
225.0
51
405.0
0
LINE
8
BLACK
10
33455.0
20
53889.0
11
35171.0
21
55605.0
0
LINE
8
BLACK
10
33349.0
20
53995.0
11
35065.0
21
55711.0
0
ARC
8
BLACK
10
35118.0
20
55658.0
40
75.0
50
315.0
51
495.0
0
ARC
8
BLACK
10
33402.0
20
53942.0
40
75.0
50
135.0
51
315.0
0
ARC
8
BLACK
10
27638.0
20
48175.0
40
75.0
50
360.0
51
540.0
0
ARC
8
BLACK
10
27638.0
20
48175.0
40
75.0
50
180.0
51
360.0
0
LINE
8
BLACK
10
29305.0
20
49948.0
11
27585.0
21
48228.0
0
LINE
8
BLACK
10
29411.0
20
49842.0
11
27691.0
21
48122.0
0
ARC
8
BLACK
10
27638.0
20
48175.0
40
75.0
50
135.0
51
315.0
0
ARC
8
BLACK
10
29358.0
20
49895.0
40
75.0
50
-45.0
51
135.0
0
LINE
8
BLACK
10
34675.0
20
52767.0
11
33456.0
21
53986.0
0
LINE
8
BLACK
10
34568.0
20
52660.0
11
33349.0
21
53879.0
0
ARC
8
BLACK
10
33402.0
20
53933.0
40
75.0
50
405.0
51
585.0
0
ARC
8
BLACK
10
34622.0
20
52713.0
40
75.0
50
225.0
51
405.0
0
LINE
8
BLACK
10
30632.0
20
48618.0
11
34674.0
21
52660.0
0
LINE
8
BLACK
10
30526.0
20
48724.0
11
34568.0
21
52766.0
0
ARC
8
BLACK
10
34621.0
20
52713.0
40
75.0
50
315.0
51
495.0
0
ARC
8
BLACK
10
30579.0
20
48671.0
40
75.0
50
135.0
51
315.0
0
LINE
8
BLACK
10
29305.0
20
49838.0
11
30525.0
21
48618.0
0
LINE
8
BLACK
10
29411.0
20
49944.0
11
30631.0
21
48724.0
0
ARC
8
BLACK
10
30578.0
20
48671.0
40
75.0
50
225.0
51
405.0
0
ARC
8
BLACK
10
29358.0
20
49891.0
40
75.0
50
45.0
51
225.0
0
LINE
8
BLACK
10
29408.0
20
49839.0
11
33454.0
21
53885.0
0
LINE
8
BLACK
10
29302.0
20
49945.0
11
33348.0
21
53991.0
0
ARC
8
BLACK
10
33401.0
20
53938.0
40
75.0
50
315.0
51
495.0
0
ARC
8
BLACK
10
29355.0
20
49892.0
40
75.0
50
135.0
51
315.0
0
LINE
8
BLACK
10
63720.0
20
48618.0
11
64939.0
21
49837.0
0
LINE
8
BLACK
10
63613.0
20
48725.0
11
64832.0
21
49944.0
0
ARC
8
BLACK
10
64886.0
20
49891.0
40
75.0
50
315.0
51
495.0
0
ARC
8
BLACK
10
63666.0
20
48671.0
40
75.0
50
135.0
51
315.0
0
LINE
8
BLACK
10
59570.0
20
52661.0
11
63612.0
21
48619.0
0
LINE
8
BLACK
10
59676.0
20
52767.0
11
63718.0
21
48725.0
0
ARC
8
BLACK
10
63665.0
20
48672.0
40
75.0
50
225.0
51
405.0
0
ARC
8
BLACK
10
59623.0
20
52714.0
40
75.0
50
45.0
51
225.0
0
LINE
8
BLACK
10
60789.0
20
53987.0
11
59570.0
21
52768.0
0
LINE
8
BLACK
10
60896.0
20
53880.0
11
59677.0
21
52661.0
0
ARC
8
BLACK
10
59623.0
20
52714.0
40
75.0
50
135.0
51
315.0
0
ARC
8
BLACK
10
60843.0
20
53934.0
40
75.0
50
-45.0
51
135.0
0
LINE
8
BLACK
10
64942.0
20
49945.0
11
60896.0
21
53991.0
0
LINE
8
BLACK
10
64836.0
20
49839.0
11
60790.0
21
53885.0
0
ARC
8
BLACK
10
60843.0
20
53938.0
40
75.0
50
405.0
51
585.0
0
ARC
8
BLACK
10
64889.0
20
49892.0
40
75.0
50
225.0
51
405.0
0
LINE
8
BLACK
10
63613.0
20
23615.0
11
64831.0
21
22397.0
0
LINE
8
BLACK
10
63719.0
20
23721.0
11
64937.0
21
22503.0
0
ARC
8
BLACK
10
64884.0
20
22450.0
40
75.0
50
225.0
51
405.0
0
ARC
8
BLACK
10
63666.0
20
23668.0
40
75.0
50
45.0
51
225.0
0
LINE
8
BLACK
10
59675.0
20
19571.0
11
63719.0
21
23615.0
0
LINE
8
BLACK
10
59569.0
20
19677.0
11
63613.0
21
23721.0
0
ARC
8
BLACK
10
63666.0
20
23668.0
40
75.0
50
315.0
51
495.0
0
ARC
8
BLACK
10
59622.0
20
19624.0
40
75.0
50
135.0
51
315.0
0
LINE
8
BLACK
10
60895.0
20
18457.0
11
59675.0
21
19677.0
0
LINE
8
BLACK
10
60789.0
20
18351.0
11
59569.0
21
19571.0
0
ARC
8
BLACK
10
59622.0
20
19624.0
40
75.0
50
405.0
51
585.0
0
ARC
8
BLACK
10
60842.0
20
18404.0
40
75.0
50
225.0
51
405.0
0
LINE
8
BLACK
10
60896.0
20
18351.0
11
64942.0
21
22397.0
0
LINE
8
BLACK
10
60790.0
20
18457.0
11
64836.0
21
22503.0
0
ARC
8
BLACK
10
64889.0
20
22450.0
40
75.0
50
315.0
51
495.0
0
ARC
8
BLACK
10
60843.0
20
18404.0
40
75.0
50
135.0
51
315.0
0
LINE
8
BLACK
10
30525.0
20
23718.0
11
29311.0
21
22504.0
0
LINE
8
BLACK
10
30631.0
20
23612.0
11
29417.0
21
22398.0
0
ARC
8
BLACK
10
29364.0
20
22451.0
40
75.0
50
135.0
51
315.0
0
ARC
8
BLACK
10
30578.0
20
23665.0
40
75.0
50
-45.0
51
135.0
0
LINE
8
BLACK
10
34674.0
20
19677.0
11
30632.0
21
23719.0
0
LINE
8
BLACK
10
34568.0
20
19571.0
11
30526.0
21
23613.0
0
ARC
8
BLACK
10
30579.0
20
23666.0
40
75.0
50
405.0
51
585.0
0
ARC
8
BLACK
10
34621.0
20
19624.0
40
75.0
50
225.0
51
405.0
0
LINE
8
BLACK
10
33456.0
20
18350.0
11
34675.0
21
19569.0
0
LINE
8
BLACK
10
33349.0
20
18457.0
11
34568.0
21
19676.0
0
ARC
8
BLACK
10
34622.0
20
19623.0
40
75.0
50
315.0
51
495.0
0
ARC
8
BLACK
10
33402.0
20
18403.0
40
75.0
50
135.0
51
315.0
0
LINE
8
BLACK
10
33455.0
20
18456.0
11
29411.0
21
22500.0
0
LINE
8
BLACK
10
33349.0
20
18350.0
11
29305.0
21
22394.0
0
ARC
8
BLACK
10
29358.0
20
22447.0
40
75.0
50
405.0
51
585.0
0
ARC
8
BLACK
10
33402.0
20
18403.0
40
75.0
50
225.0
51
405.0
0
CIRCLE
8
BLACK
10
34134.0
20
41883.0
40
900
0
CIRCLE
8
BLACK
10
37677.0
20
41883.0
40
900
0
LINE
8
BLACK
10
39865.0
20
41078.0
11
51399.0
21
44937.0
0
LINE
8
BLACK
10
39817.0
20
41221.0
11
51351.0
21
45080.0
0
ARC
8
BLACK
10
51375.0
20
45009.0
40
75.0
50
288.0
51
468.0
0
ARC
8
BLACK
10
39841.0
20
41149.0
40
75.0
50
108.0
51
288.0
0
LINE
8
BLACK
10
51430.0
20
44966.0
11
52440.0
21
46165.0
0
LINE
8
BLACK
10
51316.0
20
45063.0
11
52326.0
21
46262.0
0
ARC
8
BLACK
10
52383.0
20
46214.0
40
75.0
50
319.0
51
499.0
0
ARC
8
BLACK
10
51373.0
20
45014.0
40
75.0
50
139.0
51
319.0
0
LINE
8
BLACK
10
39918.0
20
41144.0
11
39918.0
21
46214.0
0
LINE
8
BLACK
10
39768.0
20
41144.0
11
39768.0
21
46214.0
0
ARC
8
BLACK
10
39843.0
20
46214.0
40
75.0
50
360.0
51
540.0
0
ARC
8
BLACK
10
39843.0
20
41144.0
40
75.0
50
180.0
51
360.0
0
LINE
8
BLACK
10
39843.0
20
46139.0
11
52383.0
21
46139.0
0
LINE
8
BLACK
10
39843.0
20
46289.0
11
52383.0
21
46289.0
0
ARC
8
BLACK
10
52383.0
20
46214.0
40
75.0
50
270.0
51
450.0
0
ARC
8
BLACK
10
39843.0
20
46214.0
40
75.0
50
90.0
51
270.0
0
LINE
8
BLACK
10
52415.0
20
45454.0
11
40889.0
21
41574.0
0
LINE
8
BLACK
10
52463.0
20
45312.0
11
40937.0
21
41432.0
0
ARC
8
BLACK
10
40913.0
20
41503.0
40
75.0
50
108.0
51
288.0
0
ARC
8
BLACK
10
52439.0
20
45383.0
40
75.0
50
-71.0
51
108.0
0
LINE
8
BLACK
10
40852.0
20
41557.0
11
39845.0
21
40356.0
0
LINE
8
BLACK
10
40967.0
20
41460.0
11
39960.0
21
40259.0
0
ARC
8
BLACK
10
39902.0
20
40307.0
40
75.0
50
140.0
51
320.0
0
ARC
8
BLACK
10
40910.0
20
41509.0
40
75.0
50
-40.0
51
140.0
0
LINE
8
BLACK
10
52516.0
20
40308.0
11
52516.0
21
45378.0
0
LINE
8
BLACK
10
52366.0
20
40308.0
11
52366.0
21
45378.0
0
ARC
8
BLACK
10
52441.0
20
45378.0
40
75.0
50
360.0
51
540.0
0
ARC
8
BLACK
10
52441.0
20
40308.0
40
75.0
50
180.0
51
360.0
0
LINE
8
BLACK
10
39901.0
20
40233.0
11
52441.0
21
40233.0
0
LINE
8
BLACK
10
39901.0
20
40383.0
11
52441.0
21
40383.0
0
ARC
8
BLACK
10
52441.0
20
40308.0
40
75.0
50
270.0
51
450.0
0
ARC
8
BLACK
10
39901.0
20
40308.0
40
75.0
50
90.0
51
270.0
0
LINE
8
BLACK
10
39865.0
20
48558.0
11
51399.0
21
52417.0
0
LINE
8
BLACK
10
39817.0
20
48701.0
11
51351.0
21
52560.0
0
ARC
8
BLACK
10
51375.0
20
52489.0
40
75.0
50
288.0
51
468.0
0
ARC
8
BLACK
10
39841.0
20
48629.0
40
75.0
50
108.0
51
288.0
0
LINE
8
BLACK
10
51430.0
20
52446.0
11
52440.0
21
53645.0
0
LINE
8
BLACK
10
51316.0
20
52543.0
11
52326.0
21
53742.0
0
ARC
8
BLACK
10
52383.0
20
53694.0
40
75.0
50
319.0
51
499.0
0
ARC
8
BLACK
10
51373.0
20
52494.0
40
75.0
50
139.0
51
319.0
0
LINE
8
BLACK
10
39918.0
20
48624.0
11
39918.0
21
53694.0
0
LINE
8
BLACK
10
39768.0
20
48624.0
11
39768.0
21
53694.0
0
ARC
8
BLACK
10
39843.0
20
53694.0
40
75.0
50
360.0
51
540.0
0
ARC
8
BLACK
10
39843.0
20
48624.0
40
75.0
50
180.0
51
360.0
0
LINE
8
BLACK
10
39843.0
20
53619.0
11
52383.0
21
53619.0
0
LINE
8
BLACK
10
39843.0
20
53769.0
11
52383.0
21
53769.0
0
ARC
8
BLACK
10
52383.0
20
53694.0
40
75.0
50
270.0
51
450.0
0
ARC
8
BLACK
10
39843.0
20
53694.0
40
75.0
50
90.0
51
270.0
0
LINE
8
BLACK
10
52415.0
20
52934.0
11
40889.0
21
49054.0
0
LINE
8
BLACK
10
52463.0
20
52792.0
11
40937.0
21
48912.0
0
ARC
8
BLACK
10
40913.0
20
48983.0
40
75.0
50
108.0
51
288.0
0
ARC
8
BLACK
10
52439.0
20
52863.0
40
75.0
50
-71.0
51
108.0
0
LINE
8
BLACK
10
40852.0
20
49037.0
11
39845.0
21
47836.0
0
LINE
8
BLACK
10
40967.0
20
48940.0
11
39960.0
21
47739.0
0
ARC
8
BLACK
10
39902.0
20
47787.0
40
75.0
50
140.0
51
320.0
0
ARC
8
BLACK
10
40910.0
20
48989.0
40
75.0
50
-40.0
51
140.0
0
LINE
8
BLACK
10
52516.0
20
47788.0
11
52516.0
21
52858.0
0
LINE
8
BLACK
10
52366.0
20
47788.0
11
52366.0
21
52858.0
0
ARC
8
BLACK
10
52441.0
20
52858.0
40
75.0
50
360.0
51
540.0
0
ARC
8
BLACK
10
52441.0
20
47788.0
40
75.0
50
180.0
51
360.0
0
LINE
8
BLACK
10
39901.0
20
47713.0
11
52441.0
21
47713.0
0
LINE
8
BLACK
10
39901.0
20
47863.0
11
52441.0
21
47863.0
0
ARC
8
BLACK
10
52441.0
20
47788.0
40
75.0
50
270.0
51
450.0
0
ARC
8
BLACK
10
39901.0
20
47788.0
40
75.0
50
90.0
51
270.0
0
LINE
8
BLACK
10
65801.0
20
45454.0
11
54275.0
21
41574.0
0
LINE
8
BLACK
10
65849.0
20
45312.0
11
54323.0
21
41432.0
0
ARC
8
BLACK
10
54299.0
20
41503.0
40
75.0
50
108.0
51
288.0
0
ARC
8
BLACK
10
65825.0
20
45383.0
40
75.0
50
-71.0
51
108.0
0
LINE
8
BLACK
10
54238.0
20
41557.0
11
53231.0
21
40356.0
0
LINE
8
BLACK
10
54353.0
20
41460.0
11
53346.0
21
40259.0
0
ARC
8
BLACK
10
53288.0
20
40307.0
40
75.0
50
140.0
51
320.0
0
ARC
8
BLACK
10
54296.0
20
41509.0
40
75.0
50
-40.0
51
140.0
0
LINE
8
BLACK
10
65902.0
20
40308.0
11
65902.0
21
45378.0
0
LINE
8
BLACK
10
65752.0
20
40308.0
11
65752.0
21
45378.0
0
ARC
8
BLACK
10
65827.0
20
45378.0
40
75.0
50
360.0
51
540.0
0
ARC
8
BLACK
10
65827.0
20
40308.0
40
75.0
50
180.0
51
360.0
0
LINE
8
BLACK
10
53287.0
20
40233.0
11
65827.0
21
40233.0
0
LINE
8
BLACK
10
53287.0
20
40383.0
11
65827.0
21
40383.0
0
ARC
8
BLACK
10
65827.0
20
40308.0
40
75.0
50
270.0
51
450.0
0
ARC
8
BLACK
10
53287.0
20
40308.0
40
75.0
50
90.0
51
270.0
0
LINE
8
BLACK
10
53251.0
20
41078.0
11
64785.0
21
44937.0
0
LINE
8
BLACK
10
53203.0
20
41221.0
11
64737.0
21
45080.0
0
ARC
8
BLACK
10
64761.0
20
45009.0
40
75.0
50
288.0
51
468.0
0
ARC
8
BLACK
10
53227.0
20
41149.0
40
75.0
50
108.0
51
288.0
0
LINE
8
BLACK
10
64816.0
20
44966.0
11
65826.0
21
46165.0
0
LINE
8
BLACK
10
64702.0
20
45063.0
11
65712.0
21
46262.0
0
ARC
8
BLACK
10
65769.0
20
46214.0
40
75.0
50
319.0
51
499.0
0
ARC
8
BLACK
10
64759.0
20
45014.0
40
75.0
50
139.0
51
319.0
0
LINE
8
BLACK
10
53304.0
20
41144.0
11
53304.0
21
46214.0
0
LINE
8
BLACK
10
53154.0
20
41144.0
11
53154.0
21
46214.0
0
ARC
8
BLACK
10
53229.0
20
46214.0
40
75.0
50
360.0
51
540.0
0
ARC
8
BLACK
10
53229.0
20
41144.0
40
75.0
50
180.0
51
360.0
0
LINE
8
BLACK
10
53229.0
20
46139.0
11
65769.0
21
46139.0
0
LINE
8
BLACK
10
53229.0
20
46289.0
11
65769.0
21
46289.0
0
ARC
8
BLACK
10
65769.0
20
46214.0
40
75.0
50
270.0
51
450.0
0
ARC
8
BLACK
10
53229.0
20
46214.0
40
75.0
50
90.0
51
270.0
0
LINE
8
BLACK
10
50495.0
20
26707.0
11
62029.0
21
30566.0
0
LINE
8
BLACK
10
50447.0
20
26850.0
11
61981.0
21
30709.0
0
ARC
8
BLACK
10
62005.0
20
30638.0
40
75.0
50
288.0
51
468.0
0
ARC
8
BLACK
10
50471.0
20
26778.0
40
75.0
50
108.0
51
288.0
0
LINE
8
BLACK
10
62060.0
20
30595.0
11
63070.0
21
31794.0
0
LINE
8
BLACK
10
61946.0
20
30692.0
11
62956.0
21
31891.0
0
ARC
8
BLACK
10
63013.0
20
31843.0
40
75.0
50
319.0
51
499.0
0
ARC
8
BLACK
10
62003.0
20
30643.0
40
75.0
50
139.0
51
319.0
0
LINE
8
BLACK
10
50548.0
20
26773.0
11
50548.0
21
31843.0
0
LINE
8
BLACK
10
50398.0
20
26773.0
11
50398.0
21
31843.0
0
ARC
8
BLACK
10
50473.0
20
31843.0
40
75.0
50
360.0
51
540.0
0
ARC
8
BLACK
10
50473.0
20
26773.0
40
75.0
50
180.0
51
360.0
0
LINE
8
BLACK
10
50473.0
20
31768.0
11
63013.0
21
31768.0
0
LINE
8
BLACK
10
50473.0
20
31918.0
11
63013.0
21
31918.0
0
ARC
8
BLACK
10
63013.0
20
31843.0
40
75.0
50
270.0
51
450.0
0
ARC
8
BLACK
10
50473.0
20
31843.0
40
75.0
50
90.0
51
270.0
0
LINE
8
BLACK
10
63045.0
20
30887.0
11
51519.0
21
27007.0
0
LINE
8
BLACK
10
63093.0
20
30745.0
11
51567.0
21
26865.0
0
ARC
8
BLACK
10
51543.0
20
26936.0
40
75.0
50
108.0
51
288.0
0
ARC
8
BLACK
10
63069.0
20
30816.0
40
75.0
50
-71.0
51
108.0
0
LINE
8
BLACK
10
51482.0
20
26990.0
11
50475.0
21
25789.0
0
LINE
8
BLACK
10
51597.0
20
26893.0
11
50590.0
21
25692.0
0
ARC
8
BLACK
10
50532.0
20
25740.0
40
75.0
50
140.0
51
320.0
0
ARC
8
BLACK
10
51540.0
20
26942.0
40
75.0
50
-40.0
51
140.0
0
LINE
8
BLACK
10
63146.0
20
25741.0
11
63146.0
21
30811.0
0
LINE
8
BLACK
10
62996.0
20
25741.0
11
62996.0
21
30811.0
0
ARC
8
BLACK
10
63071.0
20
30811.0
40
75.0
50
360.0
51
540.0
0
ARC
8
BLACK
10
63071.0
20
25741.0
40
75.0
50
180.0
51
360.0
0
LINE
8
BLACK
10
50531.0
20
25666.0
11
63071.0
21
25666.0
0
LINE
8
BLACK
10
50531.0
20
25816.0
11
63071.0
21
25816.0
0
ARC
8
BLACK
10
63071.0
20
25741.0
40
75.0
50
270.0
51
450.0
0
ARC
8
BLACK
10
50531.0
20
25741.0
40
75.0
50
90.0
51
270.0
0
LINE
8
BLACK
10
41046.0
20
19621.0
11
52580.0
21
23480.0
0
LINE
8
BLACK
10
40998.0
20
19764.0
11
52532.0
21
23623.0
0
ARC
8
BLACK
10
52556.0
20
23552.0
40
75.0
50
288.0
51
468.0
0
ARC
8
BLACK
10
41022.0
20
19692.0
40
75.0
50
108.0
51
288.0
0
LINE
8
BLACK
10
52611.0
20
23509.0
11
53621.0
21
24708.0
0
LINE
8
BLACK
10
52497.0
20
23606.0
11
53507.0
21
24805.0
0
ARC
8
BLACK
10
53564.0
20
24757.0
40
75.0
50
319.0
51
499.0
0
ARC
8
BLACK
10
52554.0
20
23557.0
40
75.0
50
139.0
51
319.0
0
LINE
8
BLACK
10
41099.0
20
19687.0
11
41099.0
21
24757.0
0
LINE
8
BLACK
10
40949.0
20
19687.0
11
40949.0
21
24757.0
0
ARC
8
BLACK
10
41024.0
20
24757.0
40
75.0
50
360.0
51
540.0
0
ARC
8
BLACK
10
41024.0
20
19687.0
40
75.0
50
180.0
51
360.0
0
LINE
8
BLACK
10
41024.0
20
24682.0
11
53564.0
21
24682.0
0
LINE
8
BLACK
10
41024.0
20
24832.0
11
53564.0
21
24832.0
0
ARC
8
BLACK
10
53564.0
20
24757.0
40
75.0
50
270.0
51
450.0
0
ARC
8
BLACK
10
41024.0
20
24757.0
40
75.0
50
90.0
51
270.0
0
LINE
8
BLACK
10
53399.0
20
23801.0
11
41873.0
21
19921.0
0
LINE
8
BLACK
10
53447.0
20
23659.0
11
41921.0
21
19779.0
0
ARC
8
BLACK
10
41897.0
20
19850.0
40
75.0
50
108.0
51
288.0
0
ARC
8
BLACK
10
53423.0
20
23730.0
40
75.0
50
-71.0
51
108.0
0
LINE
8
BLACK
10
41836.0
20
19904.0
11
40829.0
21
18703.0
0
LINE
8
BLACK
10
41951.0
20
19807.0
11
40944.0
21
18606.0
0
ARC
8
BLACK
10
40886.0
20
18654.0
40
75.0
50
140.0
51
320.0
0
ARC
8
BLACK
10
41894.0
20
19856.0
40
75.0
50
-40.0
51
140.0
0
LINE
8
BLACK
10
53500.0
20
18655.0
11
53500.0
21
23725.0
0
LINE
8
BLACK
10
53350.0
20
18655.0
11
53350.0
21
23725.0
0
ARC
8
BLACK
10
53425.0
20
23725.0
40
75.0
50
360.0
51
540.0
0
ARC
8
BLACK
10
53425.0
20
18655.0
40
75.0
50
180.0
51
360.0
0
LINE
8
BLACK
10
40885.0
20
18580.0
11
53425.0
21
18580.0
0
LINE
8
BLACK
10
40885.0
20
18730.0
11
53425.0
21
18730.0
0
ARC
8
BLACK
10
53425.0
20
18655.0
40
75.0
50
270.0
51
450.0
0
ARC
8
BLACK
10
40885.0
20
18655.0
40
75.0
50
90.0
51
270.0
0
LINE
8
BLACK
10
29432.0
20
26511.0
11
40966.0
21
30370.0
0
LINE
8
BLACK
10
29384.0
20
26654.0
11
40918.0
21
30513.0
0
ARC
8
BLACK
10
40942.0
20
30442.0
40
75.0
50
288.0
51
468.0
0
ARC
8
BLACK
10
29408.0
20
26582.0
40
75.0
50
108.0
51
288.0
0
LINE
8
BLACK
10
40997.0
20
30399.0
11
42007.0
21
31598.0
0
LINE
8
BLACK
10
40883.0
20
30496.0
11
41893.0
21
31695.0
0
ARC
8
BLACK
10
41950.0
20
31647.0
40
75.0
50
319.0
51
499.0
0
ARC
8
BLACK
10
40940.0
20
30447.0
40
75.0
50
139.0
51
319.0
0
LINE
8
BLACK
10
29485.0
20
26577.0
11
29485.0
21
31647.0
0
LINE
8
BLACK
10
29335.0
20
26577.0
11
29335.0
21
31647.0
0
ARC
8
BLACK
10
29410.0
20
31647.0
40
75.0
50
360.0
51
540.0
0
ARC
8
BLACK
10
29410.0
20
26577.0
40
75.0
50
180.0
51
360.0
0
LINE
8
BLACK
10
29410.0
20
31572.0
11
41950.0
21
31572.0
0
LINE
8
BLACK
10
29410.0
20
31722.0
11
41950.0
21
31722.0
0
ARC
8
BLACK
10
41950.0
20
31647.0
40
75.0
50
270.0
51
450.0
0
ARC
8
BLACK
10
29410.0
20
31647.0
40
75.0
50
90.0
51
270.0
0
LINE
8
BLACK
10
41785.0
20
30690.0
11
30259.0
21
26810.0
0
LINE
8
BLACK
10
41833.0
20
30548.0
11
30307.0
21
26668.0
0
ARC
8
BLACK
10
30283.0
20
26739.0
40
75.0
50
108.0
51
288.0
0
ARC
8
BLACK
10
41809.0
20
30619.0
40
75.0
50
-71.0
51
108.0
0
LINE
8
BLACK
10
30222.0
20
26793.0
11
29215.0
21
25592.0
0
LINE
8
BLACK
10
30337.0
20
26696.0
11
29330.0
21
25495.0
0
ARC
8
BLACK
10
29272.0
20
25543.0
40
75.0
50
140.0
51
320.0
0
ARC
8
BLACK
10
30280.0
20
26745.0
40
75.0
50
-40.0
51
140.0
0
LINE
8
BLACK
10
41886.0
20
25544.0
11
41886.0
21
30614.0
0
LINE
8
BLACK
10
41736.0
20
25544.0
11
41736.0
21
30614.0
0
ARC
8
BLACK
10
41811.0
20
30614.0
40
75.0
50
360.0
51
540.0
0
ARC
8
BLACK
10
41811.0
20
25544.0
40
75.0
50
180.0
51
360.0
0
LINE
8
BLACK
10
29271.0
20
25469.0
11
41811.0
21
25469.0
0
LINE
8
BLACK
10
29271.0
20
25619.0
11
41811.0
21
25619.0
0
ARC
8
BLACK
10
41811.0
20
25544.0
40
75.0
50
270.0
51
450.0
0
ARC
8
BLACK
10
29271.0
20
25544.0
40
75.0
50
90.0
51
270.0
0
CIRCLE
8
BLACK
10
40040.0
20
36174.0
40
900
0
CIRCLE
8
BLACK
10
37677.0
20
36174.0
40
900
0
CIRCLE
8
BLACK
10
56575.0
20
36174.0
40
900
0
CIRCLE
8
BLACK
10
54213.0
20
36174.0
40
900
0
CIRCLE
8
BLACK
10
47126.0
20
36174.0
40
900
0
CIRCLE
8
BLACK
10
49095.0
20
36174.0
40
900
0
CIRCLE
8
BLACK
10
45158.0
20
36174.0
40
900
0
CIRCLE
8
BLACK
10
36103.0
20
39521.0
40
900
0
CIRCLE
8
BLACK
10
37677.0
20
39521.0
40
900
0
LINE
8
BLACK
10
47457.0
20
32985.0
11
47457.0
21
34757.0
0
LINE
8
BLACK
10
47307.0
20
32985.0
11
47307.0
21
34757.0
0
ARC
8
BLACK
10
47382.0
20
34757.0
40
75.0
50
360.0
51
540.0
0
ARC
8
BLACK
10
47382.0
20
32985.0
40
75.0
50
180.0
51
360.0
0
LINE
8
BLACK
10
46516.0
20
32871.0
11
47382.0
21
32871.0
0
LINE
8
BLACK
10
46516.0
20
33021.0
11
47382.0
21
33021.0
0
ARC
8
BLACK
10
47382.0
20
32946.0
40
75.0
50
270.0
51
450.0
0
ARC
8
BLACK
10
46516.0
20
32946.0
40
75.0
50
90.0
51
270.0
0
LINE
8
BLACK
10
46591.0
20
32985.0
11
46591.0
21
34757.0
0
LINE
8
BLACK
10
46441.0
20
32985.0
11
46441.0
21
34757.0
0
ARC
8
BLACK
10
46516.0
20
34757.0
40
75.0
50
360.0
51
540.0
0
ARC
8
BLACK
10
46516.0
20
32985.0
40
75.0
50
180.0
51
360.0
0
LINE
8
BLACK
10
46516.0
20
34682.0
11
47382.0
21
34682.0
0
LINE
8
BLACK
10
46516.0
20
34832.0
11
47382.0
21
34832.0
0
ARC
8
BLACK
10
47382.0
20
34757.0
40
75.0
50
270.0
51
450.0
0
ARC
8
BLACK
10
46516.0
20
34757.0
40
75.0
50
90.0
51
270.0
0
ENDSEC
0
EOF
