M48
;DRILL file {kicad (after 2015-mar-04 BZR unknown)-product} date Wed 15 Apr 2015 11:51:12 AM CDT
;FORMAT={2:4/ absolute / inch / keep zeros}
FMAT,2
INCH,TZ
T1C0.025
T2C0.120
T3C0.197
T4C0.283
%
G90
G05
M72
T1
X025197Y-029528
X025197Y-030315
X025984Y-029528
X025984Y-030315
X026181Y-049409
X026181Y-050000
X026772Y-029528
X026772Y-030315
X026772Y-049409
X026772Y-050000
X027362Y-049409
X027362Y-050000
X027559Y-029528
X027559Y-030315
X030079Y-053976
X030079Y-054764
X030079Y-055512
X030118Y-046063
X030118Y-056260
X030118Y-057087
X030512Y-038976
X030906Y-046063
X031299Y-038976
X031693Y-046063
X032087Y-038976
X032480Y-046063
X032874Y-038976
X041732Y-049213
X041732Y-049803
X041732Y-050394
X042323Y-049213
X042323Y-049803
X042323Y-050394
X042913Y-049213
X043504Y-049213
X044094Y-049213
X046063Y-046457
X046850Y-046457
X047362Y-053543
X047362Y-054291
X047362Y-055079
X047362Y-055866
X047362Y-056654
X047638Y-046457
X048228Y-038976
X048425Y-046457
X053543Y-029528
X053543Y-030315
X053543Y-031102
X053543Y-031890
X054331Y-029528
X054331Y-030315
X054331Y-031102
X054331Y-031890
T2
X024654Y-053795
T3
X024654Y-059700
T4
X039481Y-061964
T0
M30
