G04 #@! TF.FileFunction,Copper,L1,Top,Signal*
%FSLAX46Y46*%
G04 Gerber Fmt 4.6, Leading zero omitted, Abs format (unit mm)*
G04 Created by KiCad (PCBNEW (after 2015-mar-04 BZR unknown)-product) date Wed 15 Apr 2015 11:51:05 AM CDT*
%MOMM*%
G01*
G04 APERTURE LIST*
%ADD10C,0.150000*%
%ADD11C,0.099060*%
%ADD12C,4.064000*%
%ADD13C,5.999480*%
%ADD14C,8.498840*%
%ADD15R,2.057400X1.524000*%
%ADD16R,19.050000X1.524000*%
%ADD17R,1.524000X2.057400*%
%ADD18R,1.524000X19.050000*%
%ADD19C,0.889000*%
%ADD20C,0.381000*%
%ADD21C,0.203200*%
%ADD22C,0.254000*%
G04 APERTURE END LIST*
D10*
D11*
X69171820Y-64648080D02*
X69171820Y-62638940D01*
X59420760Y-64648080D02*
X69171820Y-64648080D01*
X131396740Y-64648080D02*
X141150340Y-64648080D01*
X131396740Y-62638940D02*
X131396740Y-64648080D01*
X113609750Y-145200000D02*
G75*
G03X113609750Y-145200000I-8209750J0D01*
G01*
X69171820Y-62638940D02*
X131396740Y-62638940D01*
X131391660Y-163639500D02*
X131391660Y-165638480D01*
X69171820Y-163639500D02*
X69171820Y-165638480D01*
X131391660Y-165638480D02*
X69171820Y-165638480D01*
X76921360Y-70139560D02*
X76921360Y-87139780D01*
X133421120Y-70139560D02*
X133421120Y-87139780D01*
X76921360Y-70139560D02*
X133421120Y-70139560D01*
X133421120Y-87139780D02*
X76921360Y-87139780D01*
X141150340Y-163639500D02*
X131391660Y-163639500D01*
X141150340Y-64648080D02*
X141150340Y-163639500D01*
X59420760Y-163639500D02*
X59420760Y-64648080D01*
X59420760Y-163639500D02*
X69171820Y-163639500D01*
D12*
X62621160Y-136639300D03*
D13*
X62621160Y-151638000D03*
D14*
X100281740Y-157388560D03*
D15*
X95491500Y-89674320D03*
D16*
X88570000Y-94119320D03*
D15*
X72508500Y-108325680D03*
D16*
X79430000Y-103880680D03*
D15*
X132491500Y-89674320D03*
D16*
X125570000Y-94119320D03*
D15*
X109508500Y-108325680D03*
D16*
X116430000Y-103880680D03*
D15*
X72508500Y-127325680D03*
D16*
X79430000Y-122880680D03*
D15*
X95491500Y-108674320D03*
D16*
X88570000Y-113119320D03*
D15*
X110008500Y-127325680D03*
D16*
X116930000Y-122880680D03*
D15*
X132491500Y-108674320D03*
D16*
X125570000Y-113119320D03*
D17*
X88825680Y-155991500D03*
D18*
X84380680Y-149070000D03*
D17*
X69674320Y-134008500D03*
D18*
X74119320Y-140930000D03*
D17*
X132325680Y-154991500D03*
D18*
X127880680Y-148070000D03*
D17*
X113174320Y-133008500D03*
D18*
X117619320Y-139930000D03*
D19*
X136000000Y-75000000D03*
X138000000Y-75000000D03*
X138000000Y-77000000D03*
X136000000Y-77000000D03*
X136000000Y-79000000D03*
X138000000Y-79000000D03*
X138000000Y-81000000D03*
X136000000Y-81000000D03*
X70000000Y-77000000D03*
X70000000Y-75000000D03*
X68000000Y-75000000D03*
X68000000Y-77000000D03*
X66000000Y-77000000D03*
X66000000Y-75000000D03*
X64000000Y-75000000D03*
X64000000Y-77000000D03*
X123000000Y-118000000D03*
X117000000Y-118000000D03*
X119000000Y-118000000D03*
X121000000Y-118000000D03*
X76500000Y-117000000D03*
X78500000Y-117000000D03*
X80500000Y-117000000D03*
X82500000Y-117000000D03*
X122500000Y-99000000D03*
X77500000Y-99000000D03*
X79500000Y-99000000D03*
X81500000Y-99000000D03*
X83500000Y-99000000D03*
X120300000Y-139900000D03*
X120300000Y-137900000D03*
X120300000Y-136000000D03*
X120300000Y-141900000D03*
X120300000Y-143900000D03*
X76400000Y-141000000D03*
X76400000Y-139100000D03*
X76400000Y-137100000D03*
X76500000Y-142900000D03*
X76500000Y-145000000D03*
X69500000Y-125500000D03*
X68000000Y-125500000D03*
X68000000Y-127000000D03*
X66500000Y-127000000D03*
X66500000Y-125500000D03*
X69500000Y-127000000D03*
X109000000Y-125000000D03*
X112000000Y-125000000D03*
X110500000Y-125000000D03*
X107500000Y-125000000D03*
X107500000Y-126500000D03*
X107500000Y-128000000D03*
X106000000Y-128000000D03*
X106000000Y-126500000D03*
X106000000Y-125000000D03*
D20*
X136000000Y-75000000D02*
X138000000Y-75000000D01*
X138000000Y-77000000D02*
X136000000Y-77000000D01*
X136000000Y-79000000D02*
X138000000Y-79000000D01*
X136000000Y-81000000D02*
X138000000Y-81000000D01*
X88570000Y-94119320D02*
X81119320Y-94119320D01*
X68000000Y-75000000D02*
X70000000Y-75000000D01*
X66000000Y-77000000D02*
X68000000Y-77000000D01*
X64000000Y-75000000D02*
X66000000Y-75000000D01*
X81119320Y-94119320D02*
X64000000Y-77000000D01*
X125570000Y-113119320D02*
X125570000Y-113430000D01*
X119000000Y-118000000D02*
X117000000Y-118000000D01*
X125570000Y-113430000D02*
X121000000Y-118000000D01*
X88570000Y-113119320D02*
X86380680Y-113119320D01*
X80500000Y-117000000D02*
X78500000Y-117000000D01*
X86380680Y-113119320D02*
X82500000Y-117000000D01*
X125570000Y-94119320D02*
X125570000Y-95930000D01*
X125570000Y-95930000D02*
X122500000Y-99000000D01*
X88570000Y-94119320D02*
X88380680Y-94119320D01*
X81500000Y-99000000D02*
X79500000Y-99000000D01*
X88380680Y-94119320D02*
X83500000Y-99000000D01*
X120270000Y-139930000D02*
X120300000Y-139900000D01*
X120300000Y-137900000D02*
X120300000Y-136000000D01*
X120300000Y-141900000D02*
X120300000Y-143900000D01*
X117619320Y-139930000D02*
X120270000Y-139930000D01*
X76330000Y-140930000D02*
X76400000Y-141000000D01*
X76400000Y-139100000D02*
X76400000Y-137100000D01*
X76500000Y-142900000D02*
X76500000Y-145000000D01*
X74119320Y-140930000D02*
X76330000Y-140930000D01*
D21*
X72508500Y-127325680D02*
X90075680Y-127325680D01*
X91750000Y-153067180D02*
X88825680Y-155991500D01*
X91750000Y-129000000D02*
X91750000Y-153067180D01*
X90075680Y-127325680D02*
X91750000Y-129000000D01*
X132325680Y-154991500D02*
X132325680Y-128125680D01*
X72508500Y-108325680D02*
X69174320Y-108325680D01*
X69500000Y-127000000D02*
X69500000Y-125500000D01*
X68000000Y-125500000D02*
X68000000Y-127000000D01*
X66500000Y-127000000D02*
X66500000Y-125500000D01*
X69574320Y-126925680D02*
X73508500Y-126925680D01*
X69574320Y-126925680D02*
X69500000Y-127000000D01*
X66500000Y-111000000D02*
X66500000Y-125500000D01*
X69174320Y-108325680D02*
X66500000Y-111000000D01*
X107500000Y-125000000D02*
X109000000Y-125000000D01*
X110500000Y-125000000D02*
X112000000Y-125000000D01*
X109508500Y-108325680D02*
X107674320Y-108325680D01*
X107500000Y-128000000D02*
X107500000Y-126500000D01*
X106000000Y-126500000D02*
X106000000Y-128000000D01*
X106000000Y-110000000D02*
X106000000Y-125000000D01*
X107674320Y-108325680D02*
X106000000Y-110000000D01*
X131525680Y-127325680D02*
X132325680Y-128125680D01*
X110008500Y-127325680D02*
X130575680Y-127325680D01*
X130575680Y-127325680D02*
X131525680Y-127325680D01*
X95991500Y-89574320D02*
X99574320Y-89574320D01*
X99574320Y-89574320D02*
X101000000Y-91000000D01*
X101000000Y-91000000D02*
X101000000Y-102000000D01*
X101000000Y-102000000D02*
X99019320Y-103980680D01*
X99019320Y-103980680D02*
X79930000Y-103980680D01*
X113174320Y-140274320D02*
X115200000Y-142300000D01*
X115200000Y-142300000D02*
X115200000Y-158500000D01*
X115200000Y-158500000D02*
X116400000Y-159700000D01*
X116400000Y-159700000D02*
X126700000Y-159700000D01*
X126700000Y-159700000D02*
X127880680Y-158519320D01*
X127880680Y-158519320D02*
X127880680Y-148070000D01*
X113174320Y-133008500D02*
X113174320Y-140274320D01*
X136500000Y-122500000D02*
X136000000Y-123000000D01*
X117049320Y-123000000D02*
X116930000Y-122880680D01*
X136000000Y-123000000D02*
X117049320Y-123000000D01*
X132491500Y-108674320D02*
X136674320Y-108674320D01*
X138000000Y-110000000D02*
X138000000Y-121000000D01*
X136674320Y-108674320D02*
X138000000Y-110000000D01*
X138000000Y-121000000D02*
X136500000Y-122500000D01*
X136500000Y-122500000D02*
X136519320Y-122480680D01*
X69674320Y-134008500D02*
X69674320Y-159825680D01*
X84380680Y-161619320D02*
X84380680Y-149070000D01*
X84000000Y-162000000D02*
X84380680Y-161619320D01*
X71848640Y-162000000D02*
X84000000Y-162000000D01*
X69674320Y-159825680D02*
X71848640Y-162000000D01*
X98519320Y-122480680D02*
X98000000Y-123000000D01*
X99674320Y-108674320D02*
X101000000Y-110000000D01*
X101000000Y-120000000D02*
X98519320Y-122480680D01*
X101000000Y-110000000D02*
X101000000Y-120000000D01*
X95491500Y-108674320D02*
X99674320Y-108674320D01*
X79549320Y-123000000D02*
X79430000Y-122880680D01*
X98000000Y-123000000D02*
X79549320Y-123000000D01*
X132491500Y-89674320D02*
X136674320Y-89674320D01*
X117449320Y-104000000D02*
X117430000Y-103980680D01*
X138000000Y-103000000D02*
X137000000Y-104000000D01*
X138000000Y-91000000D02*
X138000000Y-103000000D01*
X137000000Y-104000000D02*
X117449320Y-104000000D01*
X136674320Y-89674320D02*
X138000000Y-91000000D01*
D22*
G36*
X140393420Y-162913060D02*
X138736601Y-162913060D01*
X138736601Y-103000000D01*
X138736600Y-102999994D01*
X138736600Y-91000000D01*
X138680530Y-90718116D01*
X138680530Y-90718115D01*
X138520855Y-90479145D01*
X137195175Y-89153465D01*
X136956205Y-88993790D01*
X136674320Y-88937720D01*
X134167640Y-88937720D01*
X134167640Y-88912320D01*
X134120663Y-88670197D01*
X134105650Y-88647342D01*
X134105650Y-87139780D01*
X134105650Y-70139560D01*
X134053543Y-69877602D01*
X133905156Y-69655524D01*
X133683078Y-69507137D01*
X133421120Y-69455030D01*
X76921360Y-69455030D01*
X76659402Y-69507137D01*
X76437324Y-69655524D01*
X76288937Y-69877602D01*
X76236830Y-70139560D01*
X76236830Y-87139780D01*
X76288937Y-87401738D01*
X76437324Y-87623816D01*
X76659402Y-87772203D01*
X76921360Y-87824310D01*
X133421120Y-87824310D01*
X133683078Y-87772203D01*
X133905156Y-87623816D01*
X134053543Y-87401738D01*
X134105650Y-87139780D01*
X134105650Y-88647342D01*
X133980873Y-88457393D01*
X133769840Y-88314943D01*
X133520200Y-88264880D01*
X131462800Y-88264880D01*
X131220677Y-88311857D01*
X131007873Y-88451647D01*
X130865423Y-88662680D01*
X130815360Y-88912320D01*
X130815360Y-90436320D01*
X130862337Y-90678443D01*
X131002127Y-90891247D01*
X131213160Y-91033697D01*
X131462800Y-91083760D01*
X133520200Y-91083760D01*
X133762323Y-91036783D01*
X133975127Y-90896993D01*
X134117577Y-90685960D01*
X134167640Y-90436320D01*
X134167640Y-90410920D01*
X136369210Y-90410920D01*
X137263400Y-91305110D01*
X137263400Y-102694890D01*
X136694890Y-103263400D01*
X135730000Y-103263400D01*
X135730000Y-95007629D01*
X135730000Y-94405070D01*
X135730000Y-93833570D01*
X135730000Y-93231011D01*
X135633327Y-92997622D01*
X135454699Y-92818993D01*
X135221310Y-92722320D01*
X134968691Y-92722320D01*
X125855750Y-92722320D01*
X125697000Y-92881070D01*
X125697000Y-93992320D01*
X135571250Y-93992320D01*
X135730000Y-93833570D01*
X135730000Y-94405070D01*
X135571250Y-94246320D01*
X125697000Y-94246320D01*
X125697000Y-95357570D01*
X125855750Y-95516320D01*
X134968691Y-95516320D01*
X135221310Y-95516320D01*
X135454699Y-95419647D01*
X135633327Y-95241018D01*
X135730000Y-95007629D01*
X135730000Y-103263400D01*
X126602440Y-103263400D01*
X126602440Y-103118680D01*
X126555463Y-102876557D01*
X126415673Y-102663753D01*
X126204640Y-102521303D01*
X125955000Y-102471240D01*
X125443000Y-102471240D01*
X125443000Y-95357570D01*
X125443000Y-94246320D01*
X125443000Y-93992320D01*
X125443000Y-92881070D01*
X125284250Y-92722320D01*
X116171309Y-92722320D01*
X115918690Y-92722320D01*
X115685301Y-92818993D01*
X115506673Y-92997622D01*
X115410000Y-93231011D01*
X115410000Y-93833570D01*
X115568750Y-93992320D01*
X125443000Y-93992320D01*
X125443000Y-94246320D01*
X115568750Y-94246320D01*
X115410000Y-94405070D01*
X115410000Y-95007629D01*
X115506673Y-95241018D01*
X115685301Y-95419647D01*
X115918690Y-95516320D01*
X116171309Y-95516320D01*
X125284250Y-95516320D01*
X125443000Y-95357570D01*
X125443000Y-102471240D01*
X106905000Y-102471240D01*
X106662877Y-102518217D01*
X106450073Y-102658007D01*
X106307623Y-102869040D01*
X106257560Y-103118680D01*
X106257560Y-104642680D01*
X106304537Y-104884803D01*
X106444327Y-105097607D01*
X106655360Y-105240057D01*
X106905000Y-105290120D01*
X125955000Y-105290120D01*
X126197123Y-105243143D01*
X126409927Y-105103353D01*
X126552377Y-104892320D01*
X126583605Y-104736600D01*
X137000000Y-104736600D01*
X137281885Y-104680530D01*
X137520855Y-104520855D01*
X138520855Y-103520855D01*
X138680530Y-103281885D01*
X138680530Y-103281884D01*
X138689832Y-103235116D01*
X138736600Y-103000000D01*
X138736601Y-103000000D01*
X138736601Y-162913060D01*
X138736600Y-162913060D01*
X138736600Y-121000000D01*
X138736600Y-110000000D01*
X138680530Y-109718116D01*
X138680530Y-109718115D01*
X138520855Y-109479145D01*
X137195175Y-108153465D01*
X136956205Y-107993790D01*
X136674320Y-107937720D01*
X134167640Y-107937720D01*
X134167640Y-107912320D01*
X134120663Y-107670197D01*
X133980873Y-107457393D01*
X133769840Y-107314943D01*
X133520200Y-107264880D01*
X131462800Y-107264880D01*
X131220677Y-107311857D01*
X131007873Y-107451647D01*
X130865423Y-107662680D01*
X130815360Y-107912320D01*
X130815360Y-109436320D01*
X130862337Y-109678443D01*
X131002127Y-109891247D01*
X131213160Y-110033697D01*
X131462800Y-110083760D01*
X133520200Y-110083760D01*
X133762323Y-110036783D01*
X133975127Y-109896993D01*
X134117577Y-109685960D01*
X134167640Y-109436320D01*
X134167640Y-109410920D01*
X136369210Y-109410920D01*
X137263400Y-110305110D01*
X137263400Y-120694890D01*
X135998465Y-121959825D01*
X135979145Y-121979145D01*
X135730000Y-122228290D01*
X135730000Y-114007629D01*
X135730000Y-113405070D01*
X135730000Y-112833570D01*
X135730000Y-112231011D01*
X135633327Y-111997622D01*
X135454699Y-111818993D01*
X135221310Y-111722320D01*
X134968691Y-111722320D01*
X125855750Y-111722320D01*
X125697000Y-111881070D01*
X125697000Y-112992320D01*
X135571250Y-112992320D01*
X135730000Y-112833570D01*
X135730000Y-113405070D01*
X135571250Y-113246320D01*
X125697000Y-113246320D01*
X125697000Y-114357570D01*
X125855750Y-114516320D01*
X134968691Y-114516320D01*
X135221310Y-114516320D01*
X135454699Y-114419647D01*
X135633327Y-114241018D01*
X135730000Y-114007629D01*
X135730000Y-122228290D01*
X135694890Y-122263400D01*
X127102440Y-122263400D01*
X127102440Y-122118680D01*
X127055463Y-121876557D01*
X126915673Y-121663753D01*
X126704640Y-121521303D01*
X126455000Y-121471240D01*
X125443000Y-121471240D01*
X125443000Y-114357570D01*
X125443000Y-113246320D01*
X125443000Y-112992320D01*
X125443000Y-111881070D01*
X125284250Y-111722320D01*
X116171309Y-111722320D01*
X115918690Y-111722320D01*
X115685301Y-111818993D01*
X115506673Y-111997622D01*
X115410000Y-112231011D01*
X115410000Y-112833570D01*
X115568750Y-112992320D01*
X125443000Y-112992320D01*
X125443000Y-113246320D01*
X115568750Y-113246320D01*
X115410000Y-113405070D01*
X115410000Y-114007629D01*
X115506673Y-114241018D01*
X115685301Y-114419647D01*
X115918690Y-114516320D01*
X116171309Y-114516320D01*
X125284250Y-114516320D01*
X125443000Y-114357570D01*
X125443000Y-121471240D01*
X107405000Y-121471240D01*
X107162877Y-121518217D01*
X106950073Y-121658007D01*
X106807623Y-121869040D01*
X106757560Y-122118680D01*
X106757560Y-123012200D01*
X106736600Y-123012200D01*
X106736600Y-110305110D01*
X107852130Y-109189579D01*
X107879337Y-109329803D01*
X108019127Y-109542607D01*
X108230160Y-109685057D01*
X108479800Y-109735120D01*
X110537200Y-109735120D01*
X110779323Y-109688143D01*
X110992127Y-109548353D01*
X111134577Y-109337320D01*
X111184640Y-109087680D01*
X111184640Y-107563680D01*
X111137663Y-107321557D01*
X110997873Y-107108753D01*
X110786840Y-106966303D01*
X110537200Y-106916240D01*
X108479800Y-106916240D01*
X108237677Y-106963217D01*
X108024873Y-107103007D01*
X107882423Y-107314040D01*
X107832360Y-107563680D01*
X107832360Y-107589080D01*
X107674320Y-107589080D01*
X107392435Y-107645150D01*
X107153465Y-107804825D01*
X105479145Y-109479145D01*
X105319470Y-109718115D01*
X105263400Y-110000000D01*
X105263400Y-123012200D01*
X103294180Y-123012200D01*
X103294180Y-129766060D01*
X114048540Y-129766060D01*
X114048540Y-128062280D01*
X130575680Y-128062280D01*
X131220570Y-128062280D01*
X131589080Y-128430790D01*
X131589080Y-153315360D01*
X131563680Y-153315360D01*
X131321557Y-153362337D01*
X131108753Y-153502127D01*
X130966303Y-153713160D01*
X130916240Y-153962800D01*
X130916240Y-156020200D01*
X130963217Y-156262323D01*
X131103007Y-156475127D01*
X131314040Y-156617577D01*
X131563680Y-156667640D01*
X133087680Y-156667640D01*
X133329803Y-156620663D01*
X133542607Y-156480873D01*
X133685057Y-156269840D01*
X133735120Y-156020200D01*
X133735120Y-153962800D01*
X133688143Y-153720677D01*
X133548353Y-153507873D01*
X133337320Y-153365423D01*
X133087680Y-153315360D01*
X133062280Y-153315360D01*
X133062280Y-128125680D01*
X133006210Y-127843796D01*
X133006210Y-127843795D01*
X132846535Y-127604825D01*
X132046535Y-126804825D01*
X131807565Y-126645150D01*
X131525680Y-126589080D01*
X130575680Y-126589080D01*
X114048540Y-126589080D01*
X114048540Y-124290120D01*
X126455000Y-124290120D01*
X126697123Y-124243143D01*
X126909927Y-124103353D01*
X127052377Y-123892320D01*
X127083605Y-123736600D01*
X136000000Y-123736600D01*
X136281885Y-123680530D01*
X136520855Y-123520855D01*
X137020855Y-123020855D01*
X137040175Y-123001535D01*
X138520855Y-121520855D01*
X138680530Y-121281885D01*
X138736600Y-121000000D01*
X138736600Y-162913060D01*
X129290120Y-162913060D01*
X129290120Y-157595000D01*
X129290120Y-138545000D01*
X129243143Y-138302877D01*
X129103353Y-138090073D01*
X128892320Y-137947623D01*
X128642680Y-137897560D01*
X127118680Y-137897560D01*
X126876557Y-137944537D01*
X126663753Y-138084327D01*
X126521303Y-138295360D01*
X126471240Y-138545000D01*
X126471240Y-157595000D01*
X126518217Y-157837123D01*
X126658007Y-158049927D01*
X126869040Y-158192377D01*
X127116322Y-158241967D01*
X126394890Y-158963400D01*
X119016320Y-158963400D01*
X119016320Y-149581310D01*
X119016320Y-149328691D01*
X119016320Y-140215750D01*
X119016320Y-139644250D01*
X119016320Y-130531309D01*
X119016320Y-130278690D01*
X118919647Y-130045301D01*
X118741018Y-129866673D01*
X118507629Y-129770000D01*
X117905070Y-129770000D01*
X117746320Y-129928750D01*
X117746320Y-139803000D01*
X118857570Y-139803000D01*
X119016320Y-139644250D01*
X119016320Y-140215750D01*
X118857570Y-140057000D01*
X117746320Y-140057000D01*
X117746320Y-149931250D01*
X117905070Y-150090000D01*
X118507629Y-150090000D01*
X118741018Y-149993327D01*
X118919647Y-149814699D01*
X119016320Y-149581310D01*
X119016320Y-158963400D01*
X117492320Y-158963400D01*
X117492320Y-149931250D01*
X117492320Y-140057000D01*
X117492320Y-139803000D01*
X117492320Y-129928750D01*
X117333570Y-129770000D01*
X116731011Y-129770000D01*
X116497622Y-129866673D01*
X116318993Y-130045301D01*
X116222320Y-130278690D01*
X116222320Y-130531309D01*
X116222320Y-139644250D01*
X116381070Y-139803000D01*
X117492320Y-139803000D01*
X117492320Y-140057000D01*
X116381070Y-140057000D01*
X116222320Y-140215750D01*
X116222320Y-149328691D01*
X116222320Y-149581310D01*
X116318993Y-149814699D01*
X116497622Y-149993327D01*
X116731011Y-150090000D01*
X117333570Y-150090000D01*
X117492320Y-149931250D01*
X117492320Y-158963400D01*
X116705110Y-158963400D01*
X115936600Y-158194890D01*
X115936600Y-142300000D01*
X115880530Y-142018115D01*
X115720855Y-141779145D01*
X113910920Y-139969210D01*
X113910920Y-134684640D01*
X113936320Y-134684640D01*
X114178443Y-134637663D01*
X114391247Y-134497873D01*
X114533697Y-134286840D01*
X114583760Y-134037200D01*
X114583760Y-131979800D01*
X114536783Y-131737677D01*
X114396993Y-131524873D01*
X114185960Y-131382423D01*
X113936320Y-131332360D01*
X112412320Y-131332360D01*
X112170197Y-131379337D01*
X111957393Y-131519127D01*
X111814943Y-131730160D01*
X111764880Y-131979800D01*
X111764880Y-134037200D01*
X111811857Y-134279323D01*
X111951647Y-134492127D01*
X112162680Y-134634577D01*
X112412320Y-134684640D01*
X112437720Y-134684640D01*
X112437720Y-140031024D01*
X111689206Y-138910794D01*
X108803694Y-136982757D01*
X105400000Y-136305720D01*
X101996306Y-136982757D01*
X101736601Y-137156286D01*
X101736601Y-102000000D01*
X101736600Y-101999994D01*
X101736600Y-91000000D01*
X101680530Y-90718115D01*
X101520855Y-90479145D01*
X100095175Y-89053465D01*
X99856205Y-88893790D01*
X99574320Y-88837720D01*
X97153166Y-88837720D01*
X97120663Y-88670197D01*
X96980873Y-88457393D01*
X96769840Y-88314943D01*
X96520200Y-88264880D01*
X94462800Y-88264880D01*
X94220677Y-88311857D01*
X94007873Y-88451647D01*
X93865423Y-88662680D01*
X93815360Y-88912320D01*
X93815360Y-90436320D01*
X93862337Y-90678443D01*
X94002127Y-90891247D01*
X94213160Y-91033697D01*
X94462800Y-91083760D01*
X96520200Y-91083760D01*
X96762323Y-91036783D01*
X96975127Y-90896993D01*
X97117577Y-90685960D01*
X97167640Y-90436320D01*
X97167640Y-90310920D01*
X99269210Y-90310920D01*
X100263400Y-91305110D01*
X100263400Y-101694890D01*
X98730000Y-103228290D01*
X98730000Y-95007629D01*
X98730000Y-94405070D01*
X98730000Y-93833570D01*
X98730000Y-93231011D01*
X98633327Y-92997622D01*
X98454699Y-92818993D01*
X98221310Y-92722320D01*
X97968691Y-92722320D01*
X88855750Y-92722320D01*
X88697000Y-92881070D01*
X88697000Y-93992320D01*
X98571250Y-93992320D01*
X98730000Y-93833570D01*
X98730000Y-94405070D01*
X98571250Y-94246320D01*
X88697000Y-94246320D01*
X88697000Y-95357570D01*
X88855750Y-95516320D01*
X97968691Y-95516320D01*
X98221310Y-95516320D01*
X98454699Y-95419647D01*
X98633327Y-95241018D01*
X98730000Y-95007629D01*
X98730000Y-103228290D01*
X98714210Y-103244080D01*
X89602440Y-103244080D01*
X89602440Y-103118680D01*
X89555463Y-102876557D01*
X89415673Y-102663753D01*
X89204640Y-102521303D01*
X88955000Y-102471240D01*
X88443000Y-102471240D01*
X88443000Y-95357570D01*
X88443000Y-94246320D01*
X88443000Y-93992320D01*
X88443000Y-92881070D01*
X88284250Y-92722320D01*
X79171309Y-92722320D01*
X78918690Y-92722320D01*
X78685301Y-92818993D01*
X78506673Y-92997622D01*
X78410000Y-93231011D01*
X78410000Y-93833570D01*
X78568750Y-93992320D01*
X88443000Y-93992320D01*
X88443000Y-94246320D01*
X78568750Y-94246320D01*
X78410000Y-94405070D01*
X78410000Y-95007629D01*
X78506673Y-95241018D01*
X78685301Y-95419647D01*
X78918690Y-95516320D01*
X79171309Y-95516320D01*
X88284250Y-95516320D01*
X88443000Y-95357570D01*
X88443000Y-102471240D01*
X69905000Y-102471240D01*
X69662877Y-102518217D01*
X69450073Y-102658007D01*
X69307623Y-102869040D01*
X69257560Y-103118680D01*
X69257560Y-104642680D01*
X69304537Y-104884803D01*
X69444327Y-105097607D01*
X69655360Y-105240057D01*
X69905000Y-105290120D01*
X88955000Y-105290120D01*
X89197123Y-105243143D01*
X89409927Y-105103353D01*
X89552377Y-104892320D01*
X89587479Y-104717280D01*
X99019320Y-104717280D01*
X99301205Y-104661210D01*
X99540175Y-104501535D01*
X101520855Y-102520855D01*
X101680530Y-102281885D01*
X101680531Y-102281884D01*
X101736600Y-102000000D01*
X101736601Y-102000000D01*
X101736601Y-137156286D01*
X101736600Y-137156286D01*
X101736600Y-120000000D01*
X101736600Y-110000000D01*
X101680530Y-109718116D01*
X101680530Y-109718115D01*
X101520855Y-109479145D01*
X100195175Y-108153465D01*
X99956205Y-107993790D01*
X99674320Y-107937720D01*
X97167640Y-107937720D01*
X97167640Y-107912320D01*
X97120663Y-107670197D01*
X96980873Y-107457393D01*
X96769840Y-107314943D01*
X96520200Y-107264880D01*
X94462800Y-107264880D01*
X94220677Y-107311857D01*
X94007873Y-107451647D01*
X93865423Y-107662680D01*
X93815360Y-107912320D01*
X93815360Y-109436320D01*
X93862337Y-109678443D01*
X94002127Y-109891247D01*
X94213160Y-110033697D01*
X94462800Y-110083760D01*
X96520200Y-110083760D01*
X96762323Y-110036783D01*
X96975127Y-109896993D01*
X97117577Y-109685960D01*
X97167640Y-109436320D01*
X97167640Y-109410920D01*
X99369210Y-109410920D01*
X100263400Y-110305110D01*
X100263400Y-119694890D01*
X98730000Y-121228290D01*
X98730000Y-114007629D01*
X98730000Y-113405070D01*
X98730000Y-112833570D01*
X98730000Y-112231011D01*
X98633327Y-111997622D01*
X98454699Y-111818993D01*
X98221310Y-111722320D01*
X97968691Y-111722320D01*
X88855750Y-111722320D01*
X88697000Y-111881070D01*
X88697000Y-112992320D01*
X98571250Y-112992320D01*
X98730000Y-112833570D01*
X98730000Y-113405070D01*
X98571250Y-113246320D01*
X88697000Y-113246320D01*
X88697000Y-114357570D01*
X88855750Y-114516320D01*
X97968691Y-114516320D01*
X98221310Y-114516320D01*
X98454699Y-114419647D01*
X98633327Y-114241018D01*
X98730000Y-114007629D01*
X98730000Y-121228290D01*
X97998465Y-121959825D01*
X97694890Y-122263400D01*
X89602440Y-122263400D01*
X89602440Y-122118680D01*
X89555463Y-121876557D01*
X89415673Y-121663753D01*
X89204640Y-121521303D01*
X88955000Y-121471240D01*
X88443000Y-121471240D01*
X88443000Y-114357570D01*
X88443000Y-113246320D01*
X88443000Y-112992320D01*
X88443000Y-111881070D01*
X88284250Y-111722320D01*
X79171309Y-111722320D01*
X78918690Y-111722320D01*
X78685301Y-111818993D01*
X78506673Y-111997622D01*
X78410000Y-112231011D01*
X78410000Y-112833570D01*
X78568750Y-112992320D01*
X88443000Y-112992320D01*
X88443000Y-113246320D01*
X78568750Y-113246320D01*
X78410000Y-113405070D01*
X78410000Y-114007629D01*
X78506673Y-114241018D01*
X78685301Y-114419647D01*
X78918690Y-114516320D01*
X79171309Y-114516320D01*
X88284250Y-114516320D01*
X88443000Y-114357570D01*
X88443000Y-121471240D01*
X69905000Y-121471240D01*
X69662877Y-121518217D01*
X69450073Y-121658007D01*
X69346949Y-121810780D01*
X67236600Y-121810780D01*
X67236600Y-111305110D01*
X69479430Y-109062280D01*
X70832360Y-109062280D01*
X70832360Y-109087680D01*
X70879337Y-109329803D01*
X71019127Y-109542607D01*
X71230160Y-109685057D01*
X71479800Y-109735120D01*
X73537200Y-109735120D01*
X73779323Y-109688143D01*
X73992127Y-109548353D01*
X74134577Y-109337320D01*
X74184640Y-109087680D01*
X74184640Y-107563680D01*
X74137663Y-107321557D01*
X73997873Y-107108753D01*
X73786840Y-106966303D01*
X73537200Y-106916240D01*
X71479800Y-106916240D01*
X71237677Y-106963217D01*
X71024873Y-107103007D01*
X70882423Y-107314040D01*
X70832360Y-107563680D01*
X70832360Y-107589080D01*
X69174320Y-107589080D01*
X68892435Y-107645150D01*
X68653465Y-107804825D01*
X65979145Y-110479145D01*
X65819470Y-110718115D01*
X65763400Y-111000000D01*
X65763400Y-121810780D01*
X63294260Y-121810780D01*
X63294260Y-129364740D01*
X72547480Y-129364740D01*
X72547480Y-128735120D01*
X73537200Y-128735120D01*
X73779323Y-128688143D01*
X73992127Y-128548353D01*
X74134577Y-128337320D01*
X74184640Y-128087680D01*
X74184640Y-128062280D01*
X89770570Y-128062280D01*
X91013400Y-129305110D01*
X91013400Y-152762070D01*
X89460110Y-154315360D01*
X88063680Y-154315360D01*
X87821557Y-154362337D01*
X87608753Y-154502127D01*
X87466303Y-154713160D01*
X87416240Y-154962800D01*
X87416240Y-157020200D01*
X87463217Y-157262323D01*
X87603007Y-157475127D01*
X87814040Y-157617577D01*
X88063680Y-157667640D01*
X89587680Y-157667640D01*
X89829803Y-157620663D01*
X90042607Y-157480873D01*
X90185057Y-157269840D01*
X90235120Y-157020200D01*
X90235120Y-155623770D01*
X92270855Y-153588035D01*
X92430530Y-153349065D01*
X92486600Y-153067180D01*
X92486600Y-129000000D01*
X92430530Y-128718115D01*
X92270855Y-128479145D01*
X90596535Y-126804825D01*
X90357565Y-126645150D01*
X90075680Y-126589080D01*
X74184640Y-126589080D01*
X74184640Y-126563680D01*
X74137663Y-126321557D01*
X73997873Y-126108753D01*
X73786840Y-125966303D01*
X73537200Y-125916240D01*
X72547480Y-125916240D01*
X72547480Y-124290120D01*
X88955000Y-124290120D01*
X89197123Y-124243143D01*
X89409927Y-124103353D01*
X89552377Y-123892320D01*
X89583605Y-123736600D01*
X98000000Y-123736600D01*
X98281885Y-123680530D01*
X98520855Y-123520855D01*
X99040175Y-123001535D01*
X101520855Y-120520855D01*
X101680530Y-120281885D01*
X101736600Y-120000000D01*
X101736600Y-137156286D01*
X99110794Y-138910794D01*
X97182757Y-141796306D01*
X96505720Y-145200000D01*
X97182757Y-148603694D01*
X99110794Y-151489206D01*
X100630203Y-152504442D01*
X99314431Y-152503294D01*
X97518553Y-153245336D01*
X96143345Y-154618146D01*
X95398170Y-156412726D01*
X95396474Y-158355869D01*
X96138516Y-160151747D01*
X97511326Y-161526955D01*
X99305906Y-162272130D01*
X101249049Y-162273826D01*
X103044927Y-161531784D01*
X104420135Y-160158974D01*
X105165310Y-158364394D01*
X105167006Y-156421251D01*
X104424964Y-154625373D01*
X103521863Y-153720695D01*
X105400000Y-154094280D01*
X108803694Y-153417243D01*
X111689206Y-151489206D01*
X113617243Y-148603694D01*
X114294280Y-145200000D01*
X113617243Y-141796306D01*
X113542026Y-141683736D01*
X114463400Y-142605110D01*
X114463400Y-158500000D01*
X114519470Y-158781885D01*
X114679145Y-159020855D01*
X115879145Y-160220855D01*
X116118115Y-160380530D01*
X116400000Y-160436600D01*
X126700000Y-160436600D01*
X126981885Y-160380530D01*
X127220855Y-160220855D01*
X128401535Y-159040175D01*
X128561210Y-158801205D01*
X128561210Y-158801204D01*
X128617280Y-158519320D01*
X128617280Y-158242440D01*
X128642680Y-158242440D01*
X128884803Y-158195463D01*
X129097607Y-158055673D01*
X129240057Y-157844640D01*
X129290120Y-157595000D01*
X129290120Y-162913060D01*
X85790120Y-162913060D01*
X85790120Y-158595000D01*
X85790120Y-139545000D01*
X85743143Y-139302877D01*
X85603353Y-139090073D01*
X85392320Y-138947623D01*
X85142680Y-138897560D01*
X83618680Y-138897560D01*
X83376557Y-138944537D01*
X83163753Y-139084327D01*
X83021303Y-139295360D01*
X82971240Y-139545000D01*
X82971240Y-158595000D01*
X83018217Y-158837123D01*
X83158007Y-159049927D01*
X83369040Y-159192377D01*
X83618680Y-159242440D01*
X83644080Y-159242440D01*
X83644080Y-161263400D01*
X75516320Y-161263400D01*
X75516320Y-150581310D01*
X75516320Y-150328691D01*
X75516320Y-141215750D01*
X75516320Y-140644250D01*
X75516320Y-131531309D01*
X75516320Y-131278690D01*
X75419647Y-131045301D01*
X75241018Y-130866673D01*
X75007629Y-130770000D01*
X74405070Y-130770000D01*
X74246320Y-130928750D01*
X74246320Y-140803000D01*
X75357570Y-140803000D01*
X75516320Y-140644250D01*
X75516320Y-141215750D01*
X75357570Y-141057000D01*
X74246320Y-141057000D01*
X74246320Y-150931250D01*
X74405070Y-151090000D01*
X75007629Y-151090000D01*
X75241018Y-150993327D01*
X75419647Y-150814699D01*
X75516320Y-150581310D01*
X75516320Y-161263400D01*
X73992320Y-161263400D01*
X73992320Y-150931250D01*
X73992320Y-141057000D01*
X73992320Y-140803000D01*
X73992320Y-130928750D01*
X73833570Y-130770000D01*
X73231011Y-130770000D01*
X72997622Y-130866673D01*
X72818993Y-131045301D01*
X72722320Y-131278690D01*
X72722320Y-131531309D01*
X72722320Y-140644250D01*
X72881070Y-140803000D01*
X73992320Y-140803000D01*
X73992320Y-141057000D01*
X72881070Y-141057000D01*
X72722320Y-141215750D01*
X72722320Y-150328691D01*
X72722320Y-150581310D01*
X72818993Y-150814699D01*
X72997622Y-150993327D01*
X73231011Y-151090000D01*
X73833570Y-151090000D01*
X73992320Y-150931250D01*
X73992320Y-161263400D01*
X72153750Y-161263400D01*
X70410920Y-159520570D01*
X70410920Y-135684640D01*
X70436320Y-135684640D01*
X70678443Y-135637663D01*
X70891247Y-135497873D01*
X71033697Y-135286840D01*
X71083760Y-135037200D01*
X71083760Y-132979800D01*
X71036783Y-132737677D01*
X70896993Y-132524873D01*
X70685960Y-132382423D01*
X70436320Y-132332360D01*
X68912320Y-132332360D01*
X68670197Y-132379337D01*
X68457393Y-132519127D01*
X68314943Y-132730160D01*
X68264880Y-132979800D01*
X68264880Y-135037200D01*
X68311857Y-135279323D01*
X68451647Y-135492127D01*
X68662680Y-135634577D01*
X68912320Y-135684640D01*
X68937720Y-135684640D01*
X68937720Y-159825680D01*
X68993790Y-160107565D01*
X69153465Y-160346535D01*
X71327785Y-162520855D01*
X71566755Y-162680530D01*
X71566756Y-162680530D01*
X71848640Y-162736600D01*
X84000000Y-162736600D01*
X84281885Y-162680530D01*
X84520855Y-162520855D01*
X84901535Y-162140175D01*
X85061210Y-161901205D01*
X85061210Y-161901204D01*
X85117280Y-161619320D01*
X85117280Y-159242440D01*
X85142680Y-159242440D01*
X85384803Y-159195463D01*
X85597607Y-159055673D01*
X85740057Y-158844640D01*
X85790120Y-158595000D01*
X85790120Y-162913060D01*
X60147200Y-162913060D01*
X60147200Y-154304508D01*
X60559557Y-154717586D01*
X61894994Y-155272108D01*
X63340983Y-155273370D01*
X64677385Y-154721180D01*
X65700746Y-153699603D01*
X66255268Y-152364166D01*
X66256530Y-150918177D01*
X65704340Y-149581775D01*
X64682763Y-148558414D01*
X63347326Y-148003892D01*
X61901337Y-148002630D01*
X60564935Y-148554820D01*
X60147200Y-148971826D01*
X60147200Y-137635782D01*
X60358869Y-138148061D01*
X61108453Y-138898955D01*
X62088333Y-139305836D01*
X63149332Y-139306762D01*
X64129921Y-138901591D01*
X64880815Y-138152007D01*
X65287696Y-137172127D01*
X65288622Y-136111128D01*
X64883451Y-135130539D01*
X64133867Y-134379645D01*
X63153987Y-133972764D01*
X62092988Y-133971838D01*
X61112399Y-134377009D01*
X60361505Y-135126593D01*
X60147200Y-135642697D01*
X60147200Y-65332610D01*
X69171820Y-65332610D01*
X69433778Y-65280503D01*
X69655856Y-65132116D01*
X69804243Y-64910038D01*
X69856350Y-64648080D01*
X69856350Y-63323470D01*
X130712210Y-63323470D01*
X130712210Y-64648080D01*
X130764317Y-64910038D01*
X130912704Y-65132116D01*
X131134782Y-65280503D01*
X131396740Y-65332610D01*
X140393420Y-65332610D01*
X140393420Y-162913060D01*
X140393420Y-162913060D01*
G37*
X140393420Y-162913060D02*
X138736601Y-162913060D01*
X138736601Y-103000000D01*
X138736600Y-102999994D01*
X138736600Y-91000000D01*
X138680530Y-90718116D01*
X138680530Y-90718115D01*
X138520855Y-90479145D01*
X137195175Y-89153465D01*
X136956205Y-88993790D01*
X136674320Y-88937720D01*
X134167640Y-88937720D01*
X134167640Y-88912320D01*
X134120663Y-88670197D01*
X134105650Y-88647342D01*
X134105650Y-87139780D01*
X134105650Y-70139560D01*
X134053543Y-69877602D01*
X133905156Y-69655524D01*
X133683078Y-69507137D01*
X133421120Y-69455030D01*
X76921360Y-69455030D01*
X76659402Y-69507137D01*
X76437324Y-69655524D01*
X76288937Y-69877602D01*
X76236830Y-70139560D01*
X76236830Y-87139780D01*
X76288937Y-87401738D01*
X76437324Y-87623816D01*
X76659402Y-87772203D01*
X76921360Y-87824310D01*
X133421120Y-87824310D01*
X133683078Y-87772203D01*
X133905156Y-87623816D01*
X134053543Y-87401738D01*
X134105650Y-87139780D01*
X134105650Y-88647342D01*
X133980873Y-88457393D01*
X133769840Y-88314943D01*
X133520200Y-88264880D01*
X131462800Y-88264880D01*
X131220677Y-88311857D01*
X131007873Y-88451647D01*
X130865423Y-88662680D01*
X130815360Y-88912320D01*
X130815360Y-90436320D01*
X130862337Y-90678443D01*
X131002127Y-90891247D01*
X131213160Y-91033697D01*
X131462800Y-91083760D01*
X133520200Y-91083760D01*
X133762323Y-91036783D01*
X133975127Y-90896993D01*
X134117577Y-90685960D01*
X134167640Y-90436320D01*
X134167640Y-90410920D01*
X136369210Y-90410920D01*
X137263400Y-91305110D01*
X137263400Y-102694890D01*
X136694890Y-103263400D01*
X135730000Y-103263400D01*
X135730000Y-95007629D01*
X135730000Y-94405070D01*
X135730000Y-93833570D01*
X135730000Y-93231011D01*
X135633327Y-92997622D01*
X135454699Y-92818993D01*
X135221310Y-92722320D01*
X134968691Y-92722320D01*
X125855750Y-92722320D01*
X125697000Y-92881070D01*
X125697000Y-93992320D01*
X135571250Y-93992320D01*
X135730000Y-93833570D01*
X135730000Y-94405070D01*
X135571250Y-94246320D01*
X125697000Y-94246320D01*
X125697000Y-95357570D01*
X125855750Y-95516320D01*
X134968691Y-95516320D01*
X135221310Y-95516320D01*
X135454699Y-95419647D01*
X135633327Y-95241018D01*
X135730000Y-95007629D01*
X135730000Y-103263400D01*
X126602440Y-103263400D01*
X126602440Y-103118680D01*
X126555463Y-102876557D01*
X126415673Y-102663753D01*
X126204640Y-102521303D01*
X125955000Y-102471240D01*
X125443000Y-102471240D01*
X125443000Y-95357570D01*
X125443000Y-94246320D01*
X125443000Y-93992320D01*
X125443000Y-92881070D01*
X125284250Y-92722320D01*
X116171309Y-92722320D01*
X115918690Y-92722320D01*
X115685301Y-92818993D01*
X115506673Y-92997622D01*
X115410000Y-93231011D01*
X115410000Y-93833570D01*
X115568750Y-93992320D01*
X125443000Y-93992320D01*
X125443000Y-94246320D01*
X115568750Y-94246320D01*
X115410000Y-94405070D01*
X115410000Y-95007629D01*
X115506673Y-95241018D01*
X115685301Y-95419647D01*
X115918690Y-95516320D01*
X116171309Y-95516320D01*
X125284250Y-95516320D01*
X125443000Y-95357570D01*
X125443000Y-102471240D01*
X106905000Y-102471240D01*
X106662877Y-102518217D01*
X106450073Y-102658007D01*
X106307623Y-102869040D01*
X106257560Y-103118680D01*
X106257560Y-104642680D01*
X106304537Y-104884803D01*
X106444327Y-105097607D01*
X106655360Y-105240057D01*
X106905000Y-105290120D01*
X125955000Y-105290120D01*
X126197123Y-105243143D01*
X126409927Y-105103353D01*
X126552377Y-104892320D01*
X126583605Y-104736600D01*
X137000000Y-104736600D01*
X137281885Y-104680530D01*
X137520855Y-104520855D01*
X138520855Y-103520855D01*
X138680530Y-103281885D01*
X138680530Y-103281884D01*
X138689832Y-103235116D01*
X138736600Y-103000000D01*
X138736601Y-103000000D01*
X138736601Y-162913060D01*
X138736600Y-162913060D01*
X138736600Y-121000000D01*
X138736600Y-110000000D01*
X138680530Y-109718116D01*
X138680530Y-109718115D01*
X138520855Y-109479145D01*
X137195175Y-108153465D01*
X136956205Y-107993790D01*
X136674320Y-107937720D01*
X134167640Y-107937720D01*
X134167640Y-107912320D01*
X134120663Y-107670197D01*
X133980873Y-107457393D01*
X133769840Y-107314943D01*
X133520200Y-107264880D01*
X131462800Y-107264880D01*
X131220677Y-107311857D01*
X131007873Y-107451647D01*
X130865423Y-107662680D01*
X130815360Y-107912320D01*
X130815360Y-109436320D01*
X130862337Y-109678443D01*
X131002127Y-109891247D01*
X131213160Y-110033697D01*
X131462800Y-110083760D01*
X133520200Y-110083760D01*
X133762323Y-110036783D01*
X133975127Y-109896993D01*
X134117577Y-109685960D01*
X134167640Y-109436320D01*
X134167640Y-109410920D01*
X136369210Y-109410920D01*
X137263400Y-110305110D01*
X137263400Y-120694890D01*
X135998465Y-121959825D01*
X135979145Y-121979145D01*
X135730000Y-122228290D01*
X135730000Y-114007629D01*
X135730000Y-113405070D01*
X135730000Y-112833570D01*
X135730000Y-112231011D01*
X135633327Y-111997622D01*
X135454699Y-111818993D01*
X135221310Y-111722320D01*
X134968691Y-111722320D01*
X125855750Y-111722320D01*
X125697000Y-111881070D01*
X125697000Y-112992320D01*
X135571250Y-112992320D01*
X135730000Y-112833570D01*
X135730000Y-113405070D01*
X135571250Y-113246320D01*
X125697000Y-113246320D01*
X125697000Y-114357570D01*
X125855750Y-114516320D01*
X134968691Y-114516320D01*
X135221310Y-114516320D01*
X135454699Y-114419647D01*
X135633327Y-114241018D01*
X135730000Y-114007629D01*
X135730000Y-122228290D01*
X135694890Y-122263400D01*
X127102440Y-122263400D01*
X127102440Y-122118680D01*
X127055463Y-121876557D01*
X126915673Y-121663753D01*
X126704640Y-121521303D01*
X126455000Y-121471240D01*
X125443000Y-121471240D01*
X125443000Y-114357570D01*
X125443000Y-113246320D01*
X125443000Y-112992320D01*
X125443000Y-111881070D01*
X125284250Y-111722320D01*
X116171309Y-111722320D01*
X115918690Y-111722320D01*
X115685301Y-111818993D01*
X115506673Y-111997622D01*
X115410000Y-112231011D01*
X115410000Y-112833570D01*
X115568750Y-112992320D01*
X125443000Y-112992320D01*
X125443000Y-113246320D01*
X115568750Y-113246320D01*
X115410000Y-113405070D01*
X115410000Y-114007629D01*
X115506673Y-114241018D01*
X115685301Y-114419647D01*
X115918690Y-114516320D01*
X116171309Y-114516320D01*
X125284250Y-114516320D01*
X125443000Y-114357570D01*
X125443000Y-121471240D01*
X107405000Y-121471240D01*
X107162877Y-121518217D01*
X106950073Y-121658007D01*
X106807623Y-121869040D01*
X106757560Y-122118680D01*
X106757560Y-123012200D01*
X106736600Y-123012200D01*
X106736600Y-110305110D01*
X107852130Y-109189579D01*
X107879337Y-109329803D01*
X108019127Y-109542607D01*
X108230160Y-109685057D01*
X108479800Y-109735120D01*
X110537200Y-109735120D01*
X110779323Y-109688143D01*
X110992127Y-109548353D01*
X111134577Y-109337320D01*
X111184640Y-109087680D01*
X111184640Y-107563680D01*
X111137663Y-107321557D01*
X110997873Y-107108753D01*
X110786840Y-106966303D01*
X110537200Y-106916240D01*
X108479800Y-106916240D01*
X108237677Y-106963217D01*
X108024873Y-107103007D01*
X107882423Y-107314040D01*
X107832360Y-107563680D01*
X107832360Y-107589080D01*
X107674320Y-107589080D01*
X107392435Y-107645150D01*
X107153465Y-107804825D01*
X105479145Y-109479145D01*
X105319470Y-109718115D01*
X105263400Y-110000000D01*
X105263400Y-123012200D01*
X103294180Y-123012200D01*
X103294180Y-129766060D01*
X114048540Y-129766060D01*
X114048540Y-128062280D01*
X130575680Y-128062280D01*
X131220570Y-128062280D01*
X131589080Y-128430790D01*
X131589080Y-153315360D01*
X131563680Y-153315360D01*
X131321557Y-153362337D01*
X131108753Y-153502127D01*
X130966303Y-153713160D01*
X130916240Y-153962800D01*
X130916240Y-156020200D01*
X130963217Y-156262323D01*
X131103007Y-156475127D01*
X131314040Y-156617577D01*
X131563680Y-156667640D01*
X133087680Y-156667640D01*
X133329803Y-156620663D01*
X133542607Y-156480873D01*
X133685057Y-156269840D01*
X133735120Y-156020200D01*
X133735120Y-153962800D01*
X133688143Y-153720677D01*
X133548353Y-153507873D01*
X133337320Y-153365423D01*
X133087680Y-153315360D01*
X133062280Y-153315360D01*
X133062280Y-128125680D01*
X133006210Y-127843796D01*
X133006210Y-127843795D01*
X132846535Y-127604825D01*
X132046535Y-126804825D01*
X131807565Y-126645150D01*
X131525680Y-126589080D01*
X130575680Y-126589080D01*
X114048540Y-126589080D01*
X114048540Y-124290120D01*
X126455000Y-124290120D01*
X126697123Y-124243143D01*
X126909927Y-124103353D01*
X127052377Y-123892320D01*
X127083605Y-123736600D01*
X136000000Y-123736600D01*
X136281885Y-123680530D01*
X136520855Y-123520855D01*
X137020855Y-123020855D01*
X137040175Y-123001535D01*
X138520855Y-121520855D01*
X138680530Y-121281885D01*
X138736600Y-121000000D01*
X138736600Y-162913060D01*
X129290120Y-162913060D01*
X129290120Y-157595000D01*
X129290120Y-138545000D01*
X129243143Y-138302877D01*
X129103353Y-138090073D01*
X128892320Y-137947623D01*
X128642680Y-137897560D01*
X127118680Y-137897560D01*
X126876557Y-137944537D01*
X126663753Y-138084327D01*
X126521303Y-138295360D01*
X126471240Y-138545000D01*
X126471240Y-157595000D01*
X126518217Y-157837123D01*
X126658007Y-158049927D01*
X126869040Y-158192377D01*
X127116322Y-158241967D01*
X126394890Y-158963400D01*
X119016320Y-158963400D01*
X119016320Y-149581310D01*
X119016320Y-149328691D01*
X119016320Y-140215750D01*
X119016320Y-139644250D01*
X119016320Y-130531309D01*
X119016320Y-130278690D01*
X118919647Y-130045301D01*
X118741018Y-129866673D01*
X118507629Y-129770000D01*
X117905070Y-129770000D01*
X117746320Y-129928750D01*
X117746320Y-139803000D01*
X118857570Y-139803000D01*
X119016320Y-139644250D01*
X119016320Y-140215750D01*
X118857570Y-140057000D01*
X117746320Y-140057000D01*
X117746320Y-149931250D01*
X117905070Y-150090000D01*
X118507629Y-150090000D01*
X118741018Y-149993327D01*
X118919647Y-149814699D01*
X119016320Y-149581310D01*
X119016320Y-158963400D01*
X117492320Y-158963400D01*
X117492320Y-149931250D01*
X117492320Y-140057000D01*
X117492320Y-139803000D01*
X117492320Y-129928750D01*
X117333570Y-129770000D01*
X116731011Y-129770000D01*
X116497622Y-129866673D01*
X116318993Y-130045301D01*
X116222320Y-130278690D01*
X116222320Y-130531309D01*
X116222320Y-139644250D01*
X116381070Y-139803000D01*
X117492320Y-139803000D01*
X117492320Y-140057000D01*
X116381070Y-140057000D01*
X116222320Y-140215750D01*
X116222320Y-149328691D01*
X116222320Y-149581310D01*
X116318993Y-149814699D01*
X116497622Y-149993327D01*
X116731011Y-150090000D01*
X117333570Y-150090000D01*
X117492320Y-149931250D01*
X117492320Y-158963400D01*
X116705110Y-158963400D01*
X115936600Y-158194890D01*
X115936600Y-142300000D01*
X115880530Y-142018115D01*
X115720855Y-141779145D01*
X113910920Y-139969210D01*
X113910920Y-134684640D01*
X113936320Y-134684640D01*
X114178443Y-134637663D01*
X114391247Y-134497873D01*
X114533697Y-134286840D01*
X114583760Y-134037200D01*
X114583760Y-131979800D01*
X114536783Y-131737677D01*
X114396993Y-131524873D01*
X114185960Y-131382423D01*
X113936320Y-131332360D01*
X112412320Y-131332360D01*
X112170197Y-131379337D01*
X111957393Y-131519127D01*
X111814943Y-131730160D01*
X111764880Y-131979800D01*
X111764880Y-134037200D01*
X111811857Y-134279323D01*
X111951647Y-134492127D01*
X112162680Y-134634577D01*
X112412320Y-134684640D01*
X112437720Y-134684640D01*
X112437720Y-140031024D01*
X111689206Y-138910794D01*
X108803694Y-136982757D01*
X105400000Y-136305720D01*
X101996306Y-136982757D01*
X101736601Y-137156286D01*
X101736601Y-102000000D01*
X101736600Y-101999994D01*
X101736600Y-91000000D01*
X101680530Y-90718115D01*
X101520855Y-90479145D01*
X100095175Y-89053465D01*
X99856205Y-88893790D01*
X99574320Y-88837720D01*
X97153166Y-88837720D01*
X97120663Y-88670197D01*
X96980873Y-88457393D01*
X96769840Y-88314943D01*
X96520200Y-88264880D01*
X94462800Y-88264880D01*
X94220677Y-88311857D01*
X94007873Y-88451647D01*
X93865423Y-88662680D01*
X93815360Y-88912320D01*
X93815360Y-90436320D01*
X93862337Y-90678443D01*
X94002127Y-90891247D01*
X94213160Y-91033697D01*
X94462800Y-91083760D01*
X96520200Y-91083760D01*
X96762323Y-91036783D01*
X96975127Y-90896993D01*
X97117577Y-90685960D01*
X97167640Y-90436320D01*
X97167640Y-90310920D01*
X99269210Y-90310920D01*
X100263400Y-91305110D01*
X100263400Y-101694890D01*
X98730000Y-103228290D01*
X98730000Y-95007629D01*
X98730000Y-94405070D01*
X98730000Y-93833570D01*
X98730000Y-93231011D01*
X98633327Y-92997622D01*
X98454699Y-92818993D01*
X98221310Y-92722320D01*
X97968691Y-92722320D01*
X88855750Y-92722320D01*
X88697000Y-92881070D01*
X88697000Y-93992320D01*
X98571250Y-93992320D01*
X98730000Y-93833570D01*
X98730000Y-94405070D01*
X98571250Y-94246320D01*
X88697000Y-94246320D01*
X88697000Y-95357570D01*
X88855750Y-95516320D01*
X97968691Y-95516320D01*
X98221310Y-95516320D01*
X98454699Y-95419647D01*
X98633327Y-95241018D01*
X98730000Y-95007629D01*
X98730000Y-103228290D01*
X98714210Y-103244080D01*
X89602440Y-103244080D01*
X89602440Y-103118680D01*
X89555463Y-102876557D01*
X89415673Y-102663753D01*
X89204640Y-102521303D01*
X88955000Y-102471240D01*
X88443000Y-102471240D01*
X88443000Y-95357570D01*
X88443000Y-94246320D01*
X88443000Y-93992320D01*
X88443000Y-92881070D01*
X88284250Y-92722320D01*
X79171309Y-92722320D01*
X78918690Y-92722320D01*
X78685301Y-92818993D01*
X78506673Y-92997622D01*
X78410000Y-93231011D01*
X78410000Y-93833570D01*
X78568750Y-93992320D01*
X88443000Y-93992320D01*
X88443000Y-94246320D01*
X78568750Y-94246320D01*
X78410000Y-94405070D01*
X78410000Y-95007629D01*
X78506673Y-95241018D01*
X78685301Y-95419647D01*
X78918690Y-95516320D01*
X79171309Y-95516320D01*
X88284250Y-95516320D01*
X88443000Y-95357570D01*
X88443000Y-102471240D01*
X69905000Y-102471240D01*
X69662877Y-102518217D01*
X69450073Y-102658007D01*
X69307623Y-102869040D01*
X69257560Y-103118680D01*
X69257560Y-104642680D01*
X69304537Y-104884803D01*
X69444327Y-105097607D01*
X69655360Y-105240057D01*
X69905000Y-105290120D01*
X88955000Y-105290120D01*
X89197123Y-105243143D01*
X89409927Y-105103353D01*
X89552377Y-104892320D01*
X89587479Y-104717280D01*
X99019320Y-104717280D01*
X99301205Y-104661210D01*
X99540175Y-104501535D01*
X101520855Y-102520855D01*
X101680530Y-102281885D01*
X101680531Y-102281884D01*
X101736600Y-102000000D01*
X101736601Y-102000000D01*
X101736601Y-137156286D01*
X101736600Y-137156286D01*
X101736600Y-120000000D01*
X101736600Y-110000000D01*
X101680530Y-109718116D01*
X101680530Y-109718115D01*
X101520855Y-109479145D01*
X100195175Y-108153465D01*
X99956205Y-107993790D01*
X99674320Y-107937720D01*
X97167640Y-107937720D01*
X97167640Y-107912320D01*
X97120663Y-107670197D01*
X96980873Y-107457393D01*
X96769840Y-107314943D01*
X96520200Y-107264880D01*
X94462800Y-107264880D01*
X94220677Y-107311857D01*
X94007873Y-107451647D01*
X93865423Y-107662680D01*
X93815360Y-107912320D01*
X93815360Y-109436320D01*
X93862337Y-109678443D01*
X94002127Y-109891247D01*
X94213160Y-110033697D01*
X94462800Y-110083760D01*
X96520200Y-110083760D01*
X96762323Y-110036783D01*
X96975127Y-109896993D01*
X97117577Y-109685960D01*
X97167640Y-109436320D01*
X97167640Y-109410920D01*
X99369210Y-109410920D01*
X100263400Y-110305110D01*
X100263400Y-119694890D01*
X98730000Y-121228290D01*
X98730000Y-114007629D01*
X98730000Y-113405070D01*
X98730000Y-112833570D01*
X98730000Y-112231011D01*
X98633327Y-111997622D01*
X98454699Y-111818993D01*
X98221310Y-111722320D01*
X97968691Y-111722320D01*
X88855750Y-111722320D01*
X88697000Y-111881070D01*
X88697000Y-112992320D01*
X98571250Y-112992320D01*
X98730000Y-112833570D01*
X98730000Y-113405070D01*
X98571250Y-113246320D01*
X88697000Y-113246320D01*
X88697000Y-114357570D01*
X88855750Y-114516320D01*
X97968691Y-114516320D01*
X98221310Y-114516320D01*
X98454699Y-114419647D01*
X98633327Y-114241018D01*
X98730000Y-114007629D01*
X98730000Y-121228290D01*
X97998465Y-121959825D01*
X97694890Y-122263400D01*
X89602440Y-122263400D01*
X89602440Y-122118680D01*
X89555463Y-121876557D01*
X89415673Y-121663753D01*
X89204640Y-121521303D01*
X88955000Y-121471240D01*
X88443000Y-121471240D01*
X88443000Y-114357570D01*
X88443000Y-113246320D01*
X88443000Y-112992320D01*
X88443000Y-111881070D01*
X88284250Y-111722320D01*
X79171309Y-111722320D01*
X78918690Y-111722320D01*
X78685301Y-111818993D01*
X78506673Y-111997622D01*
X78410000Y-112231011D01*
X78410000Y-112833570D01*
X78568750Y-112992320D01*
X88443000Y-112992320D01*
X88443000Y-113246320D01*
X78568750Y-113246320D01*
X78410000Y-113405070D01*
X78410000Y-114007629D01*
X78506673Y-114241018D01*
X78685301Y-114419647D01*
X78918690Y-114516320D01*
X79171309Y-114516320D01*
X88284250Y-114516320D01*
X88443000Y-114357570D01*
X88443000Y-121471240D01*
X69905000Y-121471240D01*
X69662877Y-121518217D01*
X69450073Y-121658007D01*
X69346949Y-121810780D01*
X67236600Y-121810780D01*
X67236600Y-111305110D01*
X69479430Y-109062280D01*
X70832360Y-109062280D01*
X70832360Y-109087680D01*
X70879337Y-109329803D01*
X71019127Y-109542607D01*
X71230160Y-109685057D01*
X71479800Y-109735120D01*
X73537200Y-109735120D01*
X73779323Y-109688143D01*
X73992127Y-109548353D01*
X74134577Y-109337320D01*
X74184640Y-109087680D01*
X74184640Y-107563680D01*
X74137663Y-107321557D01*
X73997873Y-107108753D01*
X73786840Y-106966303D01*
X73537200Y-106916240D01*
X71479800Y-106916240D01*
X71237677Y-106963217D01*
X71024873Y-107103007D01*
X70882423Y-107314040D01*
X70832360Y-107563680D01*
X70832360Y-107589080D01*
X69174320Y-107589080D01*
X68892435Y-107645150D01*
X68653465Y-107804825D01*
X65979145Y-110479145D01*
X65819470Y-110718115D01*
X65763400Y-111000000D01*
X65763400Y-121810780D01*
X63294260Y-121810780D01*
X63294260Y-129364740D01*
X72547480Y-129364740D01*
X72547480Y-128735120D01*
X73537200Y-128735120D01*
X73779323Y-128688143D01*
X73992127Y-128548353D01*
X74134577Y-128337320D01*
X74184640Y-128087680D01*
X74184640Y-128062280D01*
X89770570Y-128062280D01*
X91013400Y-129305110D01*
X91013400Y-152762070D01*
X89460110Y-154315360D01*
X88063680Y-154315360D01*
X87821557Y-154362337D01*
X87608753Y-154502127D01*
X87466303Y-154713160D01*
X87416240Y-154962800D01*
X87416240Y-157020200D01*
X87463217Y-157262323D01*
X87603007Y-157475127D01*
X87814040Y-157617577D01*
X88063680Y-157667640D01*
X89587680Y-157667640D01*
X89829803Y-157620663D01*
X90042607Y-157480873D01*
X90185057Y-157269840D01*
X90235120Y-157020200D01*
X90235120Y-155623770D01*
X92270855Y-153588035D01*
X92430530Y-153349065D01*
X92486600Y-153067180D01*
X92486600Y-129000000D01*
X92430530Y-128718115D01*
X92270855Y-128479145D01*
X90596535Y-126804825D01*
X90357565Y-126645150D01*
X90075680Y-126589080D01*
X74184640Y-126589080D01*
X74184640Y-126563680D01*
X74137663Y-126321557D01*
X73997873Y-126108753D01*
X73786840Y-125966303D01*
X73537200Y-125916240D01*
X72547480Y-125916240D01*
X72547480Y-124290120D01*
X88955000Y-124290120D01*
X89197123Y-124243143D01*
X89409927Y-124103353D01*
X89552377Y-123892320D01*
X89583605Y-123736600D01*
X98000000Y-123736600D01*
X98281885Y-123680530D01*
X98520855Y-123520855D01*
X99040175Y-123001535D01*
X101520855Y-120520855D01*
X101680530Y-120281885D01*
X101736600Y-120000000D01*
X101736600Y-137156286D01*
X99110794Y-138910794D01*
X97182757Y-141796306D01*
X96505720Y-145200000D01*
X97182757Y-148603694D01*
X99110794Y-151489206D01*
X100630203Y-152504442D01*
X99314431Y-152503294D01*
X97518553Y-153245336D01*
X96143345Y-154618146D01*
X95398170Y-156412726D01*
X95396474Y-158355869D01*
X96138516Y-160151747D01*
X97511326Y-161526955D01*
X99305906Y-162272130D01*
X101249049Y-162273826D01*
X103044927Y-161531784D01*
X104420135Y-160158974D01*
X105165310Y-158364394D01*
X105167006Y-156421251D01*
X104424964Y-154625373D01*
X103521863Y-153720695D01*
X105400000Y-154094280D01*
X108803694Y-153417243D01*
X111689206Y-151489206D01*
X113617243Y-148603694D01*
X114294280Y-145200000D01*
X113617243Y-141796306D01*
X113542026Y-141683736D01*
X114463400Y-142605110D01*
X114463400Y-158500000D01*
X114519470Y-158781885D01*
X114679145Y-159020855D01*
X115879145Y-160220855D01*
X116118115Y-160380530D01*
X116400000Y-160436600D01*
X126700000Y-160436600D01*
X126981885Y-160380530D01*
X127220855Y-160220855D01*
X128401535Y-159040175D01*
X128561210Y-158801205D01*
X128561210Y-158801204D01*
X128617280Y-158519320D01*
X128617280Y-158242440D01*
X128642680Y-158242440D01*
X128884803Y-158195463D01*
X129097607Y-158055673D01*
X129240057Y-157844640D01*
X129290120Y-157595000D01*
X129290120Y-162913060D01*
X85790120Y-162913060D01*
X85790120Y-158595000D01*
X85790120Y-139545000D01*
X85743143Y-139302877D01*
X85603353Y-139090073D01*
X85392320Y-138947623D01*
X85142680Y-138897560D01*
X83618680Y-138897560D01*
X83376557Y-138944537D01*
X83163753Y-139084327D01*
X83021303Y-139295360D01*
X82971240Y-139545000D01*
X82971240Y-158595000D01*
X83018217Y-158837123D01*
X83158007Y-159049927D01*
X83369040Y-159192377D01*
X83618680Y-159242440D01*
X83644080Y-159242440D01*
X83644080Y-161263400D01*
X75516320Y-161263400D01*
X75516320Y-150581310D01*
X75516320Y-150328691D01*
X75516320Y-141215750D01*
X75516320Y-140644250D01*
X75516320Y-131531309D01*
X75516320Y-131278690D01*
X75419647Y-131045301D01*
X75241018Y-130866673D01*
X75007629Y-130770000D01*
X74405070Y-130770000D01*
X74246320Y-130928750D01*
X74246320Y-140803000D01*
X75357570Y-140803000D01*
X75516320Y-140644250D01*
X75516320Y-141215750D01*
X75357570Y-141057000D01*
X74246320Y-141057000D01*
X74246320Y-150931250D01*
X74405070Y-151090000D01*
X75007629Y-151090000D01*
X75241018Y-150993327D01*
X75419647Y-150814699D01*
X75516320Y-150581310D01*
X75516320Y-161263400D01*
X73992320Y-161263400D01*
X73992320Y-150931250D01*
X73992320Y-141057000D01*
X73992320Y-140803000D01*
X73992320Y-130928750D01*
X73833570Y-130770000D01*
X73231011Y-130770000D01*
X72997622Y-130866673D01*
X72818993Y-131045301D01*
X72722320Y-131278690D01*
X72722320Y-131531309D01*
X72722320Y-140644250D01*
X72881070Y-140803000D01*
X73992320Y-140803000D01*
X73992320Y-141057000D01*
X72881070Y-141057000D01*
X72722320Y-141215750D01*
X72722320Y-150328691D01*
X72722320Y-150581310D01*
X72818993Y-150814699D01*
X72997622Y-150993327D01*
X73231011Y-151090000D01*
X73833570Y-151090000D01*
X73992320Y-150931250D01*
X73992320Y-161263400D01*
X72153750Y-161263400D01*
X70410920Y-159520570D01*
X70410920Y-135684640D01*
X70436320Y-135684640D01*
X70678443Y-135637663D01*
X70891247Y-135497873D01*
X71033697Y-135286840D01*
X71083760Y-135037200D01*
X71083760Y-132979800D01*
X71036783Y-132737677D01*
X70896993Y-132524873D01*
X70685960Y-132382423D01*
X70436320Y-132332360D01*
X68912320Y-132332360D01*
X68670197Y-132379337D01*
X68457393Y-132519127D01*
X68314943Y-132730160D01*
X68264880Y-132979800D01*
X68264880Y-135037200D01*
X68311857Y-135279323D01*
X68451647Y-135492127D01*
X68662680Y-135634577D01*
X68912320Y-135684640D01*
X68937720Y-135684640D01*
X68937720Y-159825680D01*
X68993790Y-160107565D01*
X69153465Y-160346535D01*
X71327785Y-162520855D01*
X71566755Y-162680530D01*
X71566756Y-162680530D01*
X71848640Y-162736600D01*
X84000000Y-162736600D01*
X84281885Y-162680530D01*
X84520855Y-162520855D01*
X84901535Y-162140175D01*
X85061210Y-161901205D01*
X85061210Y-161901204D01*
X85117280Y-161619320D01*
X85117280Y-159242440D01*
X85142680Y-159242440D01*
X85384803Y-159195463D01*
X85597607Y-159055673D01*
X85740057Y-158844640D01*
X85790120Y-158595000D01*
X85790120Y-162913060D01*
X60147200Y-162913060D01*
X60147200Y-154304508D01*
X60559557Y-154717586D01*
X61894994Y-155272108D01*
X63340983Y-155273370D01*
X64677385Y-154721180D01*
X65700746Y-153699603D01*
X66255268Y-152364166D01*
X66256530Y-150918177D01*
X65704340Y-149581775D01*
X64682763Y-148558414D01*
X63347326Y-148003892D01*
X61901337Y-148002630D01*
X60564935Y-148554820D01*
X60147200Y-148971826D01*
X60147200Y-137635782D01*
X60358869Y-138148061D01*
X61108453Y-138898955D01*
X62088333Y-139305836D01*
X63149332Y-139306762D01*
X64129921Y-138901591D01*
X64880815Y-138152007D01*
X65287696Y-137172127D01*
X65288622Y-136111128D01*
X64883451Y-135130539D01*
X64133867Y-134379645D01*
X63153987Y-133972764D01*
X62092988Y-133971838D01*
X61112399Y-134377009D01*
X60361505Y-135126593D01*
X60147200Y-135642697D01*
X60147200Y-65332610D01*
X69171820Y-65332610D01*
X69433778Y-65280503D01*
X69655856Y-65132116D01*
X69804243Y-64910038D01*
X69856350Y-64648080D01*
X69856350Y-63323470D01*
X130712210Y-63323470D01*
X130712210Y-64648080D01*
X130764317Y-64910038D01*
X130912704Y-65132116D01*
X131134782Y-65280503D01*
X131396740Y-65332610D01*
X140393420Y-65332610D01*
X140393420Y-162913060D01*
G36*
X71292720Y-127452680D02*
X71003550Y-127452680D01*
X70844800Y-127611430D01*
X70844800Y-128213989D01*
X70926918Y-128412240D01*
X64549020Y-128412240D01*
X64549020Y-123266200D01*
X69257560Y-123266200D01*
X69257560Y-123642680D01*
X69304537Y-123884803D01*
X69444327Y-124097607D01*
X69655360Y-124240057D01*
X69905000Y-124290120D01*
X71292720Y-124290120D01*
X71292720Y-125953851D01*
X71120101Y-126025353D01*
X70941473Y-126203982D01*
X70844800Y-126437371D01*
X70844800Y-127039930D01*
X71003550Y-127198680D01*
X71292720Y-127198680D01*
X71292720Y-127452680D01*
X71292720Y-127452680D01*
G37*
X71292720Y-127452680D02*
X71003550Y-127452680D01*
X70844800Y-127611430D01*
X70844800Y-128213989D01*
X70926918Y-128412240D01*
X64549020Y-128412240D01*
X64549020Y-123266200D01*
X69257560Y-123266200D01*
X69257560Y-123642680D01*
X69304537Y-123884803D01*
X69444327Y-124097607D01*
X69655360Y-124240057D01*
X69905000Y-124290120D01*
X71292720Y-124290120D01*
X71292720Y-125953851D01*
X71120101Y-126025353D01*
X70941473Y-126203982D01*
X70844800Y-126437371D01*
X70844800Y-127039930D01*
X71003550Y-127198680D01*
X71292720Y-127198680D01*
X71292720Y-127452680D01*
G36*
X112793780Y-128511300D02*
X111511605Y-128511300D01*
X111575527Y-128447378D01*
X111672200Y-128213989D01*
X111672200Y-127611430D01*
X111672200Y-127039930D01*
X111672200Y-126437371D01*
X111575527Y-126203982D01*
X111396899Y-126025353D01*
X111163510Y-125928680D01*
X110910891Y-125928680D01*
X110294250Y-125928680D01*
X110135500Y-126087430D01*
X110135500Y-127198680D01*
X111513450Y-127198680D01*
X111672200Y-127039930D01*
X111672200Y-127611430D01*
X111513450Y-127452680D01*
X110135500Y-127452680D01*
X110135500Y-127472680D01*
X109881500Y-127472680D01*
X109881500Y-127452680D01*
X109881500Y-127198680D01*
X109881500Y-126087430D01*
X109722750Y-125928680D01*
X109106109Y-125928680D01*
X108853490Y-125928680D01*
X108620101Y-126025353D01*
X108441473Y-126203982D01*
X108344800Y-126437371D01*
X108344800Y-127039930D01*
X108503550Y-127198680D01*
X109881500Y-127198680D01*
X109881500Y-127452680D01*
X108503550Y-127452680D01*
X108344800Y-127611430D01*
X108344800Y-128213989D01*
X108441473Y-128447378D01*
X108505394Y-128511300D01*
X104548940Y-128511300D01*
X104548940Y-124266960D01*
X107289512Y-124266960D01*
X107405000Y-124290120D01*
X112793780Y-124290120D01*
X112793780Y-128511300D01*
X112793780Y-128511300D01*
G37*
X112793780Y-128511300D02*
X111511605Y-128511300D01*
X111575527Y-128447378D01*
X111672200Y-128213989D01*
X111672200Y-127611430D01*
X111672200Y-127039930D01*
X111672200Y-126437371D01*
X111575527Y-126203982D01*
X111396899Y-126025353D01*
X111163510Y-125928680D01*
X110910891Y-125928680D01*
X110294250Y-125928680D01*
X110135500Y-126087430D01*
X110135500Y-127198680D01*
X111513450Y-127198680D01*
X111672200Y-127039930D01*
X111672200Y-127611430D01*
X111513450Y-127452680D01*
X110135500Y-127452680D01*
X110135500Y-127472680D01*
X109881500Y-127472680D01*
X109881500Y-127452680D01*
X109881500Y-127198680D01*
X109881500Y-126087430D01*
X109722750Y-125928680D01*
X109106109Y-125928680D01*
X108853490Y-125928680D01*
X108620101Y-126025353D01*
X108441473Y-126203982D01*
X108344800Y-126437371D01*
X108344800Y-127039930D01*
X108503550Y-127198680D01*
X109881500Y-127198680D01*
X109881500Y-127452680D01*
X108503550Y-127452680D01*
X108344800Y-127611430D01*
X108344800Y-128213989D01*
X108441473Y-128447378D01*
X108505394Y-128511300D01*
X104548940Y-128511300D01*
X104548940Y-124266960D01*
X107289512Y-124266960D01*
X107405000Y-124290120D01*
X112793780Y-124290120D01*
X112793780Y-128511300D01*
M02*
