G04 #@! TF.GenerationSoftware,KiCad,Pcbnew,(5.1.9)-1*
G04 #@! TF.CreationDate,2021-03-05T17:29:33-06:00*
G04 #@! TF.ProjectId,X-,582d2e6b-6963-4616-945f-706362585858,3*
G04 #@! TF.SameCoordinates,Original*
G04 #@! TF.FileFunction,Soldermask,Bot*
G04 #@! TF.FilePolarity,Negative*
%FSLAX46Y46*%
G04 Gerber Fmt 4.6, Leading zero omitted, Abs format (unit mm)*
G04 Created by KiCad (PCBNEW (5.1.9)-1) date 2021-03-05 17:29:33*
%MOMM*%
%LPD*%
G01*
G04 APERTURE LIST*
G04 APERTURE END LIST*
G36*
G01*
X92580000Y-135975000D02*
X90080000Y-135975000D01*
G75*
G02*
X89830000Y-135725000I0J250000D01*
G01*
X89830000Y-134125000D01*
G75*
G02*
X90080000Y-133875000I250000J0D01*
G01*
X92580000Y-133875000D01*
G75*
G02*
X92830000Y-134125000I0J-250000D01*
G01*
X92830000Y-135725000D01*
G75*
G02*
X92580000Y-135975000I-250000J0D01*
G01*
G37*
G36*
G01*
X92580000Y-142325000D02*
X90080000Y-142325000D01*
G75*
G02*
X89830000Y-142075000I0J250000D01*
G01*
X89830000Y-140475000D01*
G75*
G02*
X90080000Y-140225000I250000J0D01*
G01*
X92580000Y-140225000D01*
G75*
G02*
X92830000Y-140475000I0J-250000D01*
G01*
X92830000Y-142075000D01*
G75*
G02*
X92580000Y-142325000I-250000J0D01*
G01*
G37*
G36*
G01*
X94530000Y-137875000D02*
X93630000Y-137875000D01*
G75*
G02*
X93430000Y-137675000I0J200000D01*
G01*
X93430000Y-137275000D01*
G75*
G02*
X93630000Y-137075000I200000J0D01*
G01*
X94530000Y-137075000D01*
G75*
G02*
X94730000Y-137275000I0J-200000D01*
G01*
X94730000Y-137675000D01*
G75*
G02*
X94530000Y-137875000I-200000J0D01*
G01*
G37*
G36*
G01*
X94530000Y-139125000D02*
X93630000Y-139125000D01*
G75*
G02*
X93430000Y-138925000I0J200000D01*
G01*
X93430000Y-138525000D01*
G75*
G02*
X93630000Y-138325000I200000J0D01*
G01*
X94530000Y-138325000D01*
G75*
G02*
X94730000Y-138525000I0J-200000D01*
G01*
X94730000Y-138925000D01*
G75*
G02*
X94530000Y-139125000I-200000J0D01*
G01*
G37*
G36*
G01*
X92580000Y-145725000D02*
X90080000Y-145725000D01*
G75*
G02*
X89830000Y-145475000I0J250000D01*
G01*
X89830000Y-143875000D01*
G75*
G02*
X90080000Y-143625000I250000J0D01*
G01*
X92580000Y-143625000D01*
G75*
G02*
X92830000Y-143875000I0J-250000D01*
G01*
X92830000Y-145475000D01*
G75*
G02*
X92580000Y-145725000I-250000J0D01*
G01*
G37*
G36*
G01*
X92580000Y-154575000D02*
X90080000Y-154575000D01*
G75*
G02*
X89830000Y-154325000I0J250000D01*
G01*
X89830000Y-152725000D01*
G75*
G02*
X90080000Y-152475000I250000J0D01*
G01*
X92580000Y-152475000D01*
G75*
G02*
X92830000Y-152725000I0J-250000D01*
G01*
X92830000Y-154325000D01*
G75*
G02*
X92580000Y-154575000I-250000J0D01*
G01*
G37*
G36*
G01*
X94530000Y-147625000D02*
X93630000Y-147625000D01*
G75*
G02*
X93430000Y-147425000I0J200000D01*
G01*
X93430000Y-147025000D01*
G75*
G02*
X93630000Y-146825000I200000J0D01*
G01*
X94530000Y-146825000D01*
G75*
G02*
X94730000Y-147025000I0J-200000D01*
G01*
X94730000Y-147425000D01*
G75*
G02*
X94530000Y-147625000I-200000J0D01*
G01*
G37*
G36*
G01*
X94530000Y-148875000D02*
X93630000Y-148875000D01*
G75*
G02*
X93430000Y-148675000I0J200000D01*
G01*
X93430000Y-148275000D01*
G75*
G02*
X93630000Y-148075000I200000J0D01*
G01*
X94530000Y-148075000D01*
G75*
G02*
X94730000Y-148275000I0J-200000D01*
G01*
X94730000Y-148675000D01*
G75*
G02*
X94530000Y-148875000I-200000J0D01*
G01*
G37*
G36*
G01*
X94530000Y-150125000D02*
X93630000Y-150125000D01*
G75*
G02*
X93430000Y-149925000I0J200000D01*
G01*
X93430000Y-149525000D01*
G75*
G02*
X93630000Y-149325000I200000J0D01*
G01*
X94530000Y-149325000D01*
G75*
G02*
X94730000Y-149525000I0J-200000D01*
G01*
X94730000Y-149925000D01*
G75*
G02*
X94530000Y-150125000I-200000J0D01*
G01*
G37*
G36*
G01*
X94530000Y-151375000D02*
X93630000Y-151375000D01*
G75*
G02*
X93430000Y-151175000I0J200000D01*
G01*
X93430000Y-150775000D01*
G75*
G02*
X93630000Y-150575000I200000J0D01*
G01*
X94530000Y-150575000D01*
G75*
G02*
X94730000Y-150775000I0J-200000D01*
G01*
X94730000Y-151175000D01*
G75*
G02*
X94530000Y-151375000I-200000J0D01*
G01*
G37*
M02*
