G04 #@! TF.GenerationSoftware,KiCad,Pcbnew,(6.0.4-0)*
G04 #@! TF.CreationDate,2022-06-29T10:28:43-05:00*
G04 #@! TF.ProjectId,X-,582d2e6b-6963-4616-945f-706362585858,4*
G04 #@! TF.SameCoordinates,Original*
G04 #@! TF.FileFunction,Profile,NP*
%FSLAX46Y46*%
G04 Gerber Fmt 4.6, Leading zero omitted, Abs format (unit mm)*
G04 Created by KiCad (PCBNEW (6.0.4-0)) date 2022-06-29 10:28:43*
%MOMM*%
%LPD*%
G01*
G04 APERTURE LIST*
G04 #@! TA.AperFunction,Profile*
%ADD10C,0.150000*%
G04 #@! TD*
G04 APERTURE END LIST*
D10*
X380482000Y-121190500D02*
X380482000Y-184246000D01*
X74080000Y-101180000D02*
X374195500Y-101188000D01*
X56962616Y-179915300D02*
G75*
G03*
X56962616Y-179915300I-775116J0D01*
G01*
X53076000Y-153131000D02*
X57394000Y-153131000D01*
X56975316Y-105404400D02*
G75*
G03*
X56975316Y-105404400I-775116J0D01*
G01*
X57394000Y-153131000D02*
G75*
G03*
X59426000Y-151099000I0J2032000D01*
G01*
X74080000Y-107200000D02*
X74080000Y-101180000D01*
X59426000Y-134081000D02*
G75*
G03*
X57521000Y-132176000I-1905000J0D01*
G01*
X53076000Y-132176000D02*
X53076000Y-101188000D01*
X59426000Y-151099000D02*
X59426000Y-134081000D01*
X63070000Y-107200000D02*
X74080000Y-107200000D01*
X63080000Y-101190000D02*
X63070000Y-107200000D01*
X52949000Y-184119000D02*
X53076000Y-153131000D01*
X378081804Y-127223000D02*
G75*
G03*
X378081804Y-127223000I-774804J0D01*
G01*
X374195500Y-101188000D02*
X374132000Y-119412500D01*
X265699816Y-105404400D02*
G75*
G03*
X265699816Y-105404400I-775116J0D01*
G01*
X265687428Y-179928000D02*
G75*
G03*
X265687428Y-179928000I-775428J0D01*
G01*
X374132000Y-119412500D02*
G75*
G03*
X375910000Y-121190500I1778000J0D01*
G01*
X375910000Y-121190500D02*
X380482000Y-121190500D01*
X57521000Y-132176000D02*
X53076000Y-132176000D01*
X122926416Y-179928000D02*
G75*
G03*
X122926416Y-179928000I-775116J0D01*
G01*
X380482000Y-184246000D02*
X52949000Y-184119000D01*
X53076000Y-101188000D02*
X63080000Y-101190000D01*
X122964204Y-105417100D02*
G75*
G03*
X122964204Y-105417100I-774804J0D01*
G01*
X378082116Y-179991500D02*
G75*
G03*
X378082116Y-179991500I-775116J0D01*
G01*
M02*
