G04 #@! TF.GenerationSoftware,KiCad,Pcbnew,(5.1.9)-1*
G04 #@! TF.CreationDate,2021-03-05T17:29:32-06:00*
G04 #@! TF.ProjectId,X-,582d2e6b-6963-4616-945f-706362585858,3*
G04 #@! TF.SameCoordinates,Original*
G04 #@! TF.FileFunction,Copper,L1,Top*
G04 #@! TF.FilePolarity,Positive*
%FSLAX46Y46*%
G04 Gerber Fmt 4.6, Leading zero omitted, Abs format (unit mm)*
G04 Created by KiCad (PCBNEW (5.1.9)-1) date 2021-03-05 17:29:32*
%MOMM*%
%LPD*%
G01*
G04 APERTURE LIST*
G04 #@! TA.AperFunction,SMDPad,CuDef*
%ADD10R,2.500000X2.500000*%
G04 #@! TD*
G04 #@! TA.AperFunction,ViaPad*
%ADD11C,0.800000*%
G04 #@! TD*
G04 #@! TA.AperFunction,Conductor*
%ADD12C,0.250000*%
G04 #@! TD*
G04 #@! TA.AperFunction,Conductor*
%ADD13C,0.254000*%
G04 #@! TD*
G04 #@! TA.AperFunction,Conductor*
%ADD14C,0.100000*%
G04 #@! TD*
G04 APERTURE END LIST*
D10*
X145879913Y-166759427D03*
X145879913Y-161759427D03*
X145879913Y-144359427D03*
X145879913Y-140359427D03*
X145879913Y-122759427D03*
X145879913Y-117759427D03*
X101429913Y-169299427D03*
X101429913Y-164299427D03*
X101429913Y-146899427D03*
X101429913Y-142899427D03*
X101429913Y-125299427D03*
X101429913Y-120299427D03*
G04 #@! TA.AperFunction,SMDPad,CuDef*
G36*
G01*
X141760000Y-181136250D02*
X141760000Y-180223750D01*
G75*
G02*
X142003750Y-179980000I243750J0D01*
G01*
X142491250Y-179980000D01*
G75*
G02*
X142735000Y-180223750I0J-243750D01*
G01*
X142735000Y-181136250D01*
G75*
G02*
X142491250Y-181380000I-243750J0D01*
G01*
X142003750Y-181380000D01*
G75*
G02*
X141760000Y-181136250I0J243750D01*
G01*
G37*
G04 #@! TD.AperFunction*
G04 #@! TA.AperFunction,SMDPad,CuDef*
G36*
G01*
X139885000Y-181136250D02*
X139885000Y-180223750D01*
G75*
G02*
X140128750Y-179980000I243750J0D01*
G01*
X140616250Y-179980000D01*
G75*
G02*
X140860000Y-180223750I0J-243750D01*
G01*
X140860000Y-181136250D01*
G75*
G02*
X140616250Y-181380000I-243750J0D01*
G01*
X140128750Y-181380000D01*
G75*
G02*
X139885000Y-181136250I0J243750D01*
G01*
G37*
G04 #@! TD.AperFunction*
X190329913Y-166759427D03*
X190329913Y-161759427D03*
X190329913Y-144359427D03*
X190329913Y-140359427D03*
X190329913Y-122759427D03*
X190329913Y-117759427D03*
X368129913Y-166759427D03*
X368129913Y-161759427D03*
X368129913Y-144359427D03*
X368129913Y-140359427D03*
X368129913Y-122759427D03*
X368129913Y-117759427D03*
X234779913Y-166759427D03*
X234779913Y-161759427D03*
X234779913Y-144359427D03*
X234779913Y-140359427D03*
X234779913Y-122759427D03*
X234779913Y-117759427D03*
X323590001Y-166759427D03*
X323590001Y-161759427D03*
X323590001Y-144359427D03*
X323590001Y-140359427D03*
X323590001Y-122759427D03*
X323590001Y-117759427D03*
X279229913Y-166759427D03*
X279229913Y-161759427D03*
X279229913Y-144359427D03*
X279229913Y-140359427D03*
X279229913Y-122759427D03*
X279229913Y-117759427D03*
D11*
X372110000Y-142240000D03*
X325755000Y-142240000D03*
X281305000Y-142240000D03*
X236855000Y-142240000D03*
X192405000Y-142240000D03*
X147955000Y-142240000D03*
X103505000Y-144780000D03*
X97155000Y-148590000D03*
X103505000Y-137795000D03*
X142240000Y-173990000D03*
D12*
X368129913Y-140359427D02*
X370229427Y-140359427D01*
X370229427Y-140359427D02*
X372110000Y-142240000D01*
X369990573Y-144359427D02*
X372110000Y-142240000D01*
X368129913Y-144359427D02*
X369990573Y-144359427D01*
X323590001Y-140359427D02*
X323874427Y-140359427D01*
X323874427Y-140359427D02*
X325755000Y-142240000D01*
X323635573Y-144359427D02*
X325755000Y-142240000D01*
X323590001Y-144359427D02*
X323635573Y-144359427D01*
X279229913Y-140359427D02*
X279424427Y-140359427D01*
X279424427Y-140359427D02*
X281305000Y-142240000D01*
X279229913Y-144315087D02*
X281305000Y-142240000D01*
X279229913Y-144359427D02*
X279229913Y-144315087D01*
X234779913Y-140359427D02*
X234974427Y-140359427D01*
X234974427Y-140359427D02*
X236855000Y-142240000D01*
X234779913Y-144315087D02*
X236855000Y-142240000D01*
X234779913Y-144359427D02*
X234779913Y-144315087D01*
X190329913Y-140359427D02*
X190524427Y-140359427D01*
X190524427Y-140359427D02*
X192405000Y-142240000D01*
X190329913Y-144315087D02*
X192405000Y-142240000D01*
X190329913Y-144359427D02*
X190329913Y-144315087D01*
X145879913Y-140359427D02*
X146074427Y-140359427D01*
X146074427Y-140359427D02*
X147955000Y-142240000D01*
X145879913Y-144315087D02*
X147955000Y-142240000D01*
X145879913Y-144359427D02*
X145879913Y-144315087D01*
X101429913Y-142899427D02*
X101624427Y-142899427D01*
X101624427Y-142899427D02*
X103505000Y-144780000D01*
X101429913Y-146855087D02*
X103505000Y-144780000D01*
X101429913Y-146899427D02*
X101429913Y-146855087D01*
X101429913Y-164299427D02*
X101429913Y-152864913D01*
X101429913Y-152864913D02*
X97155000Y-148590000D01*
X140372500Y-180680000D02*
X140372500Y-174662500D01*
X140372500Y-174662500D02*
X103505000Y-137795000D01*
X142247500Y-180680000D02*
X142247500Y-173997500D01*
X142247500Y-173997500D02*
X142240000Y-173990000D01*
D13*
X373253000Y-101897974D02*
X373253000Y-182753000D01*
X53664604Y-182753000D01*
X53676838Y-179767773D01*
X54689632Y-179767773D01*
X54689632Y-180062827D01*
X54747194Y-180352212D01*
X54860106Y-180624807D01*
X55024030Y-180870135D01*
X55232665Y-181078770D01*
X55477993Y-181242694D01*
X55750588Y-181355606D01*
X56039973Y-181413168D01*
X56335027Y-181413168D01*
X56624412Y-181355606D01*
X56897007Y-181242694D01*
X57142335Y-181078770D01*
X57350970Y-180870135D01*
X57514894Y-180624807D01*
X57627806Y-180352212D01*
X57685368Y-180062827D01*
X57685368Y-179780473D01*
X120653432Y-179780473D01*
X120653432Y-180075527D01*
X120710994Y-180364912D01*
X120823906Y-180637507D01*
X120987830Y-180882835D01*
X121196465Y-181091470D01*
X121441793Y-181255394D01*
X121714388Y-181368306D01*
X122003773Y-181425868D01*
X122298827Y-181425868D01*
X122588212Y-181368306D01*
X122860807Y-181255394D01*
X123106135Y-181091470D01*
X123314770Y-180882835D01*
X123478694Y-180637507D01*
X123591606Y-180364912D01*
X123649168Y-180075527D01*
X123649168Y-179780473D01*
X123591606Y-179491088D01*
X123478694Y-179218493D01*
X123314770Y-178973165D01*
X123106135Y-178764530D01*
X122860807Y-178600606D01*
X122588212Y-178487694D01*
X122298827Y-178430132D01*
X122003773Y-178430132D01*
X121714388Y-178487694D01*
X121441793Y-178600606D01*
X121196465Y-178764530D01*
X120987830Y-178973165D01*
X120823906Y-179218493D01*
X120710994Y-179491088D01*
X120653432Y-179780473D01*
X57685368Y-179780473D01*
X57685368Y-179767773D01*
X57627806Y-179478388D01*
X57514894Y-179205793D01*
X57350970Y-178960465D01*
X57142335Y-178751830D01*
X56897007Y-178587906D01*
X56624412Y-178474994D01*
X56335027Y-178417432D01*
X56039973Y-178417432D01*
X55750588Y-178474994D01*
X55477993Y-178587906D01*
X55232665Y-178751830D01*
X55024030Y-178960465D01*
X54860106Y-179205793D01*
X54747194Y-179478388D01*
X54689632Y-179767773D01*
X53676838Y-179767773D01*
X53714618Y-170549427D01*
X99541841Y-170549427D01*
X99554101Y-170673909D01*
X99590411Y-170793607D01*
X99649376Y-170903921D01*
X99728728Y-171000612D01*
X99825419Y-171079964D01*
X99935733Y-171138929D01*
X100055431Y-171175239D01*
X100179913Y-171187499D01*
X101144163Y-171184427D01*
X101302913Y-171025677D01*
X101302913Y-169426427D01*
X101556913Y-169426427D01*
X101556913Y-171025677D01*
X101715663Y-171184427D01*
X102679913Y-171187499D01*
X102804395Y-171175239D01*
X102924093Y-171138929D01*
X103034407Y-171079964D01*
X103131098Y-171000612D01*
X103210450Y-170903921D01*
X103269415Y-170793607D01*
X103305725Y-170673909D01*
X103317985Y-170549427D01*
X103314913Y-169585177D01*
X103156163Y-169426427D01*
X101556913Y-169426427D01*
X101302913Y-169426427D01*
X99703663Y-169426427D01*
X99544913Y-169585177D01*
X99541841Y-170549427D01*
X53714618Y-170549427D01*
X53724863Y-168049427D01*
X99541841Y-168049427D01*
X99544913Y-169013677D01*
X99703663Y-169172427D01*
X101302913Y-169172427D01*
X101302913Y-167573177D01*
X101556913Y-167573177D01*
X101556913Y-169172427D01*
X103156163Y-169172427D01*
X103314913Y-169013677D01*
X103317985Y-168049427D01*
X103305725Y-167924945D01*
X103269415Y-167805247D01*
X103210450Y-167694933D01*
X103131098Y-167598242D01*
X103034407Y-167518890D01*
X102924093Y-167459925D01*
X102804395Y-167423615D01*
X102679913Y-167411355D01*
X101715663Y-167414427D01*
X101556913Y-167573177D01*
X101302913Y-167573177D01*
X101144163Y-167414427D01*
X100179913Y-167411355D01*
X100055431Y-167423615D01*
X99935733Y-167459925D01*
X99825419Y-167518890D01*
X99728728Y-167598242D01*
X99649376Y-167694933D01*
X99590411Y-167805247D01*
X99554101Y-167924945D01*
X99541841Y-168049427D01*
X53724863Y-168049427D01*
X53735109Y-165549427D01*
X99541841Y-165549427D01*
X99554101Y-165673909D01*
X99590411Y-165793607D01*
X99649376Y-165903921D01*
X99728728Y-166000612D01*
X99825419Y-166079964D01*
X99935733Y-166138929D01*
X100055431Y-166175239D01*
X100179913Y-166187499D01*
X101144163Y-166184427D01*
X101302913Y-166025677D01*
X101302913Y-164426427D01*
X101556913Y-164426427D01*
X101556913Y-166025677D01*
X101715663Y-166184427D01*
X102679913Y-166187499D01*
X102804395Y-166175239D01*
X102924093Y-166138929D01*
X103034407Y-166079964D01*
X103131098Y-166000612D01*
X103210450Y-165903921D01*
X103269415Y-165793607D01*
X103305725Y-165673909D01*
X103317985Y-165549427D01*
X103314913Y-164585177D01*
X103156163Y-164426427D01*
X101556913Y-164426427D01*
X101302913Y-164426427D01*
X99703663Y-164426427D01*
X99544913Y-164585177D01*
X99541841Y-165549427D01*
X53735109Y-165549427D01*
X53745355Y-163049427D01*
X99541841Y-163049427D01*
X99544913Y-164013677D01*
X99703663Y-164172427D01*
X101302913Y-164172427D01*
X101302913Y-162573177D01*
X101556913Y-162573177D01*
X101556913Y-164172427D01*
X103156163Y-164172427D01*
X103314913Y-164013677D01*
X103317985Y-163049427D01*
X103305725Y-162924945D01*
X103269415Y-162805247D01*
X103210450Y-162694933D01*
X103131098Y-162598242D01*
X103034407Y-162518890D01*
X102924093Y-162459925D01*
X102804395Y-162423615D01*
X102679913Y-162411355D01*
X101715663Y-162414427D01*
X101556913Y-162573177D01*
X101302913Y-162573177D01*
X101144163Y-162414427D01*
X100179913Y-162411355D01*
X100055431Y-162423615D01*
X99935733Y-162459925D01*
X99825419Y-162518890D01*
X99728728Y-162598242D01*
X99649376Y-162694933D01*
X99590411Y-162805247D01*
X99554101Y-162924945D01*
X99541841Y-163049427D01*
X53745355Y-163049427D01*
X53783095Y-153841000D01*
X57428877Y-153841000D01*
X57459945Y-153837940D01*
X57472534Y-153838028D01*
X57482400Y-153837061D01*
X57876804Y-153795608D01*
X57939848Y-153782667D01*
X58003052Y-153770610D01*
X58012542Y-153767745D01*
X58391385Y-153650474D01*
X58450694Y-153625542D01*
X58510373Y-153601430D01*
X58519126Y-153596776D01*
X58867974Y-153408154D01*
X58921291Y-153372191D01*
X58975168Y-153336935D01*
X58982850Y-153330669D01*
X59288418Y-153077882D01*
X59333754Y-153032229D01*
X59379740Y-152987196D01*
X59386059Y-152979558D01*
X59636707Y-152672232D01*
X59672313Y-152618641D01*
X59708674Y-152565537D01*
X59713389Y-152556817D01*
X59899570Y-152206661D01*
X59924083Y-152147187D01*
X59949444Y-152088017D01*
X59952375Y-152078547D01*
X60066998Y-151698896D01*
X60079493Y-151635791D01*
X60092876Y-151572827D01*
X60093912Y-151562968D01*
X60132612Y-151168283D01*
X60132612Y-151168277D01*
X60136000Y-151133877D01*
X60136000Y-141649427D01*
X99541841Y-141649427D01*
X99541841Y-144149427D01*
X99554101Y-144273909D01*
X99590411Y-144393607D01*
X99649376Y-144503921D01*
X99728728Y-144600612D01*
X99825419Y-144679964D01*
X99935733Y-144738929D01*
X100055431Y-144775239D01*
X100179913Y-144787499D01*
X102422699Y-144787499D01*
X102198843Y-145011355D01*
X100179913Y-145011355D01*
X100055431Y-145023615D01*
X99935733Y-145059925D01*
X99825419Y-145118890D01*
X99728728Y-145198242D01*
X99649376Y-145294933D01*
X99590411Y-145405247D01*
X99554101Y-145524945D01*
X99541841Y-145649427D01*
X99541841Y-148149427D01*
X99554101Y-148273909D01*
X99590411Y-148393607D01*
X99649376Y-148503921D01*
X99728728Y-148600612D01*
X99825419Y-148679964D01*
X99935733Y-148738929D01*
X100055431Y-148775239D01*
X100179913Y-148787499D01*
X102679913Y-148787499D01*
X102804395Y-148775239D01*
X102924093Y-148738929D01*
X103034407Y-148679964D01*
X103131098Y-148600612D01*
X103210450Y-148503921D01*
X103269415Y-148393607D01*
X103305725Y-148273909D01*
X103317985Y-148149427D01*
X103317985Y-146041817D01*
X103544802Y-145815000D01*
X103606939Y-145815000D01*
X103806898Y-145775226D01*
X103995256Y-145697205D01*
X104164774Y-145583937D01*
X104308937Y-145439774D01*
X104422205Y-145270256D01*
X104500226Y-145081898D01*
X104540000Y-144881939D01*
X104540000Y-144678061D01*
X104500226Y-144478102D01*
X104422205Y-144289744D01*
X104308937Y-144120226D01*
X104164774Y-143976063D01*
X103995256Y-143862795D01*
X103806898Y-143784774D01*
X103606939Y-143745000D01*
X103544802Y-143745000D01*
X103317985Y-143518183D01*
X103317985Y-141649427D01*
X103305725Y-141524945D01*
X103269415Y-141405247D01*
X103210450Y-141294933D01*
X103131098Y-141198242D01*
X103034407Y-141118890D01*
X102924093Y-141059925D01*
X102804395Y-141023615D01*
X102679913Y-141011355D01*
X100179913Y-141011355D01*
X100055431Y-141023615D01*
X99935733Y-141059925D01*
X99825419Y-141118890D01*
X99728728Y-141198242D01*
X99649376Y-141294933D01*
X99590411Y-141405247D01*
X99554101Y-141524945D01*
X99541841Y-141649427D01*
X60136000Y-141649427D01*
X60136000Y-137693061D01*
X102470000Y-137693061D01*
X102470000Y-137896939D01*
X102509774Y-138096898D01*
X102587795Y-138285256D01*
X102701063Y-138454774D01*
X102845226Y-138598937D01*
X103014744Y-138712205D01*
X103203102Y-138790226D01*
X103403061Y-138830000D01*
X103465199Y-138830000D01*
X139612501Y-174977303D01*
X139612500Y-179512155D01*
X139505208Y-179600208D01*
X139395542Y-179733836D01*
X139314053Y-179886291D01*
X139263872Y-180051715D01*
X139246928Y-180223750D01*
X139246928Y-181136250D01*
X139263872Y-181308285D01*
X139314053Y-181473709D01*
X139395542Y-181626164D01*
X139505208Y-181759792D01*
X139638836Y-181869458D01*
X139791291Y-181950947D01*
X139956715Y-182001128D01*
X140128750Y-182018072D01*
X140616250Y-182018072D01*
X140788285Y-182001128D01*
X140953709Y-181950947D01*
X141106164Y-181869458D01*
X141239792Y-181759792D01*
X141310000Y-181674244D01*
X141380208Y-181759792D01*
X141513836Y-181869458D01*
X141666291Y-181950947D01*
X141831715Y-182001128D01*
X142003750Y-182018072D01*
X142491250Y-182018072D01*
X142663285Y-182001128D01*
X142828709Y-181950947D01*
X142981164Y-181869458D01*
X143114792Y-181759792D01*
X143224458Y-181626164D01*
X143305947Y-181473709D01*
X143356128Y-181308285D01*
X143373072Y-181136250D01*
X143373072Y-180223750D01*
X143356128Y-180051715D01*
X143305947Y-179886291D01*
X143249370Y-179780442D01*
X263413821Y-179780442D01*
X263413821Y-180075558D01*
X263471395Y-180365003D01*
X263584331Y-180637654D01*
X263748288Y-180883033D01*
X263956967Y-181091712D01*
X264202346Y-181255669D01*
X264474997Y-181368605D01*
X264764442Y-181426179D01*
X265059558Y-181426179D01*
X265349003Y-181368605D01*
X265621654Y-181255669D01*
X265867033Y-181091712D01*
X266075712Y-180883033D01*
X266239669Y-180637654D01*
X266352605Y-180365003D01*
X266410179Y-180075558D01*
X266410179Y-179780442D01*
X266352605Y-179490997D01*
X266239669Y-179218346D01*
X266075712Y-178972967D01*
X265867033Y-178764288D01*
X265621654Y-178600331D01*
X265349003Y-178487395D01*
X265059558Y-178429821D01*
X264764442Y-178429821D01*
X264474997Y-178487395D01*
X264202346Y-178600331D01*
X263956967Y-178764288D01*
X263748288Y-178972967D01*
X263584331Y-179218346D01*
X263471395Y-179490997D01*
X263413821Y-179780442D01*
X143249370Y-179780442D01*
X143224458Y-179733836D01*
X143114792Y-179600208D01*
X143007500Y-179512155D01*
X143007500Y-174686211D01*
X143043937Y-174649774D01*
X143157205Y-174480256D01*
X143235226Y-174291898D01*
X143275000Y-174091939D01*
X143275000Y-173888061D01*
X143235226Y-173688102D01*
X143157205Y-173499744D01*
X143043937Y-173330226D01*
X142899774Y-173186063D01*
X142730256Y-173072795D01*
X142541898Y-172994774D01*
X142341939Y-172955000D01*
X142138061Y-172955000D01*
X141938102Y-172994774D01*
X141749744Y-173072795D01*
X141580226Y-173186063D01*
X141436063Y-173330226D01*
X141322795Y-173499744D01*
X141244774Y-173688102D01*
X141205000Y-173888061D01*
X141205000Y-174091939D01*
X141244774Y-174291898D01*
X141322795Y-174480256D01*
X141436063Y-174649774D01*
X141487501Y-174701212D01*
X141487500Y-179512155D01*
X141380208Y-179600208D01*
X141310000Y-179685756D01*
X141239792Y-179600208D01*
X141132500Y-179512155D01*
X141132500Y-174699833D01*
X141136177Y-174662500D01*
X141121503Y-174513514D01*
X141078046Y-174370253D01*
X141007474Y-174238224D01*
X140936299Y-174151497D01*
X140912501Y-174122499D01*
X140883503Y-174098701D01*
X134794229Y-168009427D01*
X143991841Y-168009427D01*
X144004101Y-168133909D01*
X144040411Y-168253607D01*
X144099376Y-168363921D01*
X144178728Y-168460612D01*
X144275419Y-168539964D01*
X144385733Y-168598929D01*
X144505431Y-168635239D01*
X144629913Y-168647499D01*
X145594163Y-168644427D01*
X145752913Y-168485677D01*
X145752913Y-166886427D01*
X146006913Y-166886427D01*
X146006913Y-168485677D01*
X146165663Y-168644427D01*
X147129913Y-168647499D01*
X147254395Y-168635239D01*
X147374093Y-168598929D01*
X147484407Y-168539964D01*
X147581098Y-168460612D01*
X147660450Y-168363921D01*
X147719415Y-168253607D01*
X147755725Y-168133909D01*
X147767985Y-168009427D01*
X188441841Y-168009427D01*
X188454101Y-168133909D01*
X188490411Y-168253607D01*
X188549376Y-168363921D01*
X188628728Y-168460612D01*
X188725419Y-168539964D01*
X188835733Y-168598929D01*
X188955431Y-168635239D01*
X189079913Y-168647499D01*
X190044163Y-168644427D01*
X190202913Y-168485677D01*
X190202913Y-166886427D01*
X190456913Y-166886427D01*
X190456913Y-168485677D01*
X190615663Y-168644427D01*
X191579913Y-168647499D01*
X191704395Y-168635239D01*
X191824093Y-168598929D01*
X191934407Y-168539964D01*
X192031098Y-168460612D01*
X192110450Y-168363921D01*
X192169415Y-168253607D01*
X192205725Y-168133909D01*
X192217985Y-168009427D01*
X232891841Y-168009427D01*
X232904101Y-168133909D01*
X232940411Y-168253607D01*
X232999376Y-168363921D01*
X233078728Y-168460612D01*
X233175419Y-168539964D01*
X233285733Y-168598929D01*
X233405431Y-168635239D01*
X233529913Y-168647499D01*
X234494163Y-168644427D01*
X234652913Y-168485677D01*
X234652913Y-166886427D01*
X234906913Y-166886427D01*
X234906913Y-168485677D01*
X235065663Y-168644427D01*
X236029913Y-168647499D01*
X236154395Y-168635239D01*
X236274093Y-168598929D01*
X236384407Y-168539964D01*
X236481098Y-168460612D01*
X236560450Y-168363921D01*
X236619415Y-168253607D01*
X236655725Y-168133909D01*
X236667985Y-168009427D01*
X277341841Y-168009427D01*
X277354101Y-168133909D01*
X277390411Y-168253607D01*
X277449376Y-168363921D01*
X277528728Y-168460612D01*
X277625419Y-168539964D01*
X277735733Y-168598929D01*
X277855431Y-168635239D01*
X277979913Y-168647499D01*
X278944163Y-168644427D01*
X279102913Y-168485677D01*
X279102913Y-166886427D01*
X279356913Y-166886427D01*
X279356913Y-168485677D01*
X279515663Y-168644427D01*
X280479913Y-168647499D01*
X280604395Y-168635239D01*
X280724093Y-168598929D01*
X280834407Y-168539964D01*
X280931098Y-168460612D01*
X281010450Y-168363921D01*
X281069415Y-168253607D01*
X281105725Y-168133909D01*
X281117985Y-168009427D01*
X321701929Y-168009427D01*
X321714189Y-168133909D01*
X321750499Y-168253607D01*
X321809464Y-168363921D01*
X321888816Y-168460612D01*
X321985507Y-168539964D01*
X322095821Y-168598929D01*
X322215519Y-168635239D01*
X322340001Y-168647499D01*
X323304251Y-168644427D01*
X323463001Y-168485677D01*
X323463001Y-166886427D01*
X323717001Y-166886427D01*
X323717001Y-168485677D01*
X323875751Y-168644427D01*
X324840001Y-168647499D01*
X324964483Y-168635239D01*
X325084181Y-168598929D01*
X325194495Y-168539964D01*
X325291186Y-168460612D01*
X325370538Y-168363921D01*
X325429503Y-168253607D01*
X325465813Y-168133909D01*
X325478073Y-168009427D01*
X366241841Y-168009427D01*
X366254101Y-168133909D01*
X366290411Y-168253607D01*
X366349376Y-168363921D01*
X366428728Y-168460612D01*
X366525419Y-168539964D01*
X366635733Y-168598929D01*
X366755431Y-168635239D01*
X366879913Y-168647499D01*
X367844163Y-168644427D01*
X368002913Y-168485677D01*
X368002913Y-166886427D01*
X368256913Y-166886427D01*
X368256913Y-168485677D01*
X368415663Y-168644427D01*
X369379913Y-168647499D01*
X369504395Y-168635239D01*
X369624093Y-168598929D01*
X369734407Y-168539964D01*
X369831098Y-168460612D01*
X369910450Y-168363921D01*
X369969415Y-168253607D01*
X370005725Y-168133909D01*
X370017985Y-168009427D01*
X370014913Y-167045177D01*
X369856163Y-166886427D01*
X368256913Y-166886427D01*
X368002913Y-166886427D01*
X366403663Y-166886427D01*
X366244913Y-167045177D01*
X366241841Y-168009427D01*
X325478073Y-168009427D01*
X325475001Y-167045177D01*
X325316251Y-166886427D01*
X323717001Y-166886427D01*
X323463001Y-166886427D01*
X321863751Y-166886427D01*
X321705001Y-167045177D01*
X321701929Y-168009427D01*
X281117985Y-168009427D01*
X281114913Y-167045177D01*
X280956163Y-166886427D01*
X279356913Y-166886427D01*
X279102913Y-166886427D01*
X277503663Y-166886427D01*
X277344913Y-167045177D01*
X277341841Y-168009427D01*
X236667985Y-168009427D01*
X236664913Y-167045177D01*
X236506163Y-166886427D01*
X234906913Y-166886427D01*
X234652913Y-166886427D01*
X233053663Y-166886427D01*
X232894913Y-167045177D01*
X232891841Y-168009427D01*
X192217985Y-168009427D01*
X192214913Y-167045177D01*
X192056163Y-166886427D01*
X190456913Y-166886427D01*
X190202913Y-166886427D01*
X188603663Y-166886427D01*
X188444913Y-167045177D01*
X188441841Y-168009427D01*
X147767985Y-168009427D01*
X147764913Y-167045177D01*
X147606163Y-166886427D01*
X146006913Y-166886427D01*
X145752913Y-166886427D01*
X144153663Y-166886427D01*
X143994913Y-167045177D01*
X143991841Y-168009427D01*
X134794229Y-168009427D01*
X132294229Y-165509427D01*
X143991841Y-165509427D01*
X143994913Y-166473677D01*
X144153663Y-166632427D01*
X145752913Y-166632427D01*
X145752913Y-165033177D01*
X146006913Y-165033177D01*
X146006913Y-166632427D01*
X147606163Y-166632427D01*
X147764913Y-166473677D01*
X147767985Y-165509427D01*
X188441841Y-165509427D01*
X188444913Y-166473677D01*
X188603663Y-166632427D01*
X190202913Y-166632427D01*
X190202913Y-165033177D01*
X190456913Y-165033177D01*
X190456913Y-166632427D01*
X192056163Y-166632427D01*
X192214913Y-166473677D01*
X192217985Y-165509427D01*
X232891841Y-165509427D01*
X232894913Y-166473677D01*
X233053663Y-166632427D01*
X234652913Y-166632427D01*
X234652913Y-165033177D01*
X234906913Y-165033177D01*
X234906913Y-166632427D01*
X236506163Y-166632427D01*
X236664913Y-166473677D01*
X236667985Y-165509427D01*
X277341841Y-165509427D01*
X277344913Y-166473677D01*
X277503663Y-166632427D01*
X279102913Y-166632427D01*
X279102913Y-165033177D01*
X279356913Y-165033177D01*
X279356913Y-166632427D01*
X280956163Y-166632427D01*
X281114913Y-166473677D01*
X281117985Y-165509427D01*
X321701929Y-165509427D01*
X321705001Y-166473677D01*
X321863751Y-166632427D01*
X323463001Y-166632427D01*
X323463001Y-165033177D01*
X323717001Y-165033177D01*
X323717001Y-166632427D01*
X325316251Y-166632427D01*
X325475001Y-166473677D01*
X325478073Y-165509427D01*
X366241841Y-165509427D01*
X366244913Y-166473677D01*
X366403663Y-166632427D01*
X368002913Y-166632427D01*
X368002913Y-165033177D01*
X368256913Y-165033177D01*
X368256913Y-166632427D01*
X369856163Y-166632427D01*
X370014913Y-166473677D01*
X370017985Y-165509427D01*
X370005725Y-165384945D01*
X369969415Y-165265247D01*
X369910450Y-165154933D01*
X369831098Y-165058242D01*
X369734407Y-164978890D01*
X369624093Y-164919925D01*
X369504395Y-164883615D01*
X369379913Y-164871355D01*
X368415663Y-164874427D01*
X368256913Y-165033177D01*
X368002913Y-165033177D01*
X367844163Y-164874427D01*
X366879913Y-164871355D01*
X366755431Y-164883615D01*
X366635733Y-164919925D01*
X366525419Y-164978890D01*
X366428728Y-165058242D01*
X366349376Y-165154933D01*
X366290411Y-165265247D01*
X366254101Y-165384945D01*
X366241841Y-165509427D01*
X325478073Y-165509427D01*
X325465813Y-165384945D01*
X325429503Y-165265247D01*
X325370538Y-165154933D01*
X325291186Y-165058242D01*
X325194495Y-164978890D01*
X325084181Y-164919925D01*
X324964483Y-164883615D01*
X324840001Y-164871355D01*
X323875751Y-164874427D01*
X323717001Y-165033177D01*
X323463001Y-165033177D01*
X323304251Y-164874427D01*
X322340001Y-164871355D01*
X322215519Y-164883615D01*
X322095821Y-164919925D01*
X321985507Y-164978890D01*
X321888816Y-165058242D01*
X321809464Y-165154933D01*
X321750499Y-165265247D01*
X321714189Y-165384945D01*
X321701929Y-165509427D01*
X281117985Y-165509427D01*
X281105725Y-165384945D01*
X281069415Y-165265247D01*
X281010450Y-165154933D01*
X280931098Y-165058242D01*
X280834407Y-164978890D01*
X280724093Y-164919925D01*
X280604395Y-164883615D01*
X280479913Y-164871355D01*
X279515663Y-164874427D01*
X279356913Y-165033177D01*
X279102913Y-165033177D01*
X278944163Y-164874427D01*
X277979913Y-164871355D01*
X277855431Y-164883615D01*
X277735733Y-164919925D01*
X277625419Y-164978890D01*
X277528728Y-165058242D01*
X277449376Y-165154933D01*
X277390411Y-165265247D01*
X277354101Y-165384945D01*
X277341841Y-165509427D01*
X236667985Y-165509427D01*
X236655725Y-165384945D01*
X236619415Y-165265247D01*
X236560450Y-165154933D01*
X236481098Y-165058242D01*
X236384407Y-164978890D01*
X236274093Y-164919925D01*
X236154395Y-164883615D01*
X236029913Y-164871355D01*
X235065663Y-164874427D01*
X234906913Y-165033177D01*
X234652913Y-165033177D01*
X234494163Y-164874427D01*
X233529913Y-164871355D01*
X233405431Y-164883615D01*
X233285733Y-164919925D01*
X233175419Y-164978890D01*
X233078728Y-165058242D01*
X232999376Y-165154933D01*
X232940411Y-165265247D01*
X232904101Y-165384945D01*
X232891841Y-165509427D01*
X192217985Y-165509427D01*
X192205725Y-165384945D01*
X192169415Y-165265247D01*
X192110450Y-165154933D01*
X192031098Y-165058242D01*
X191934407Y-164978890D01*
X191824093Y-164919925D01*
X191704395Y-164883615D01*
X191579913Y-164871355D01*
X190615663Y-164874427D01*
X190456913Y-165033177D01*
X190202913Y-165033177D01*
X190044163Y-164874427D01*
X189079913Y-164871355D01*
X188955431Y-164883615D01*
X188835733Y-164919925D01*
X188725419Y-164978890D01*
X188628728Y-165058242D01*
X188549376Y-165154933D01*
X188490411Y-165265247D01*
X188454101Y-165384945D01*
X188441841Y-165509427D01*
X147767985Y-165509427D01*
X147755725Y-165384945D01*
X147719415Y-165265247D01*
X147660450Y-165154933D01*
X147581098Y-165058242D01*
X147484407Y-164978890D01*
X147374093Y-164919925D01*
X147254395Y-164883615D01*
X147129913Y-164871355D01*
X146165663Y-164874427D01*
X146006913Y-165033177D01*
X145752913Y-165033177D01*
X145594163Y-164874427D01*
X144629913Y-164871355D01*
X144505431Y-164883615D01*
X144385733Y-164919925D01*
X144275419Y-164978890D01*
X144178728Y-165058242D01*
X144099376Y-165154933D01*
X144040411Y-165265247D01*
X144004101Y-165384945D01*
X143991841Y-165509427D01*
X132294229Y-165509427D01*
X129794229Y-163009427D01*
X143991841Y-163009427D01*
X144004101Y-163133909D01*
X144040411Y-163253607D01*
X144099376Y-163363921D01*
X144178728Y-163460612D01*
X144275419Y-163539964D01*
X144385733Y-163598929D01*
X144505431Y-163635239D01*
X144629913Y-163647499D01*
X145594163Y-163644427D01*
X145752913Y-163485677D01*
X145752913Y-161886427D01*
X146006913Y-161886427D01*
X146006913Y-163485677D01*
X146165663Y-163644427D01*
X147129913Y-163647499D01*
X147254395Y-163635239D01*
X147374093Y-163598929D01*
X147484407Y-163539964D01*
X147581098Y-163460612D01*
X147660450Y-163363921D01*
X147719415Y-163253607D01*
X147755725Y-163133909D01*
X147767985Y-163009427D01*
X188441841Y-163009427D01*
X188454101Y-163133909D01*
X188490411Y-163253607D01*
X188549376Y-163363921D01*
X188628728Y-163460612D01*
X188725419Y-163539964D01*
X188835733Y-163598929D01*
X188955431Y-163635239D01*
X189079913Y-163647499D01*
X190044163Y-163644427D01*
X190202913Y-163485677D01*
X190202913Y-161886427D01*
X190456913Y-161886427D01*
X190456913Y-163485677D01*
X190615663Y-163644427D01*
X191579913Y-163647499D01*
X191704395Y-163635239D01*
X191824093Y-163598929D01*
X191934407Y-163539964D01*
X192031098Y-163460612D01*
X192110450Y-163363921D01*
X192169415Y-163253607D01*
X192205725Y-163133909D01*
X192217985Y-163009427D01*
X232891841Y-163009427D01*
X232904101Y-163133909D01*
X232940411Y-163253607D01*
X232999376Y-163363921D01*
X233078728Y-163460612D01*
X233175419Y-163539964D01*
X233285733Y-163598929D01*
X233405431Y-163635239D01*
X233529913Y-163647499D01*
X234494163Y-163644427D01*
X234652913Y-163485677D01*
X234652913Y-161886427D01*
X234906913Y-161886427D01*
X234906913Y-163485677D01*
X235065663Y-163644427D01*
X236029913Y-163647499D01*
X236154395Y-163635239D01*
X236274093Y-163598929D01*
X236384407Y-163539964D01*
X236481098Y-163460612D01*
X236560450Y-163363921D01*
X236619415Y-163253607D01*
X236655725Y-163133909D01*
X236667985Y-163009427D01*
X277341841Y-163009427D01*
X277354101Y-163133909D01*
X277390411Y-163253607D01*
X277449376Y-163363921D01*
X277528728Y-163460612D01*
X277625419Y-163539964D01*
X277735733Y-163598929D01*
X277855431Y-163635239D01*
X277979913Y-163647499D01*
X278944163Y-163644427D01*
X279102913Y-163485677D01*
X279102913Y-161886427D01*
X279356913Y-161886427D01*
X279356913Y-163485677D01*
X279515663Y-163644427D01*
X280479913Y-163647499D01*
X280604395Y-163635239D01*
X280724093Y-163598929D01*
X280834407Y-163539964D01*
X280931098Y-163460612D01*
X281010450Y-163363921D01*
X281069415Y-163253607D01*
X281105725Y-163133909D01*
X281117985Y-163009427D01*
X321701929Y-163009427D01*
X321714189Y-163133909D01*
X321750499Y-163253607D01*
X321809464Y-163363921D01*
X321888816Y-163460612D01*
X321985507Y-163539964D01*
X322095821Y-163598929D01*
X322215519Y-163635239D01*
X322340001Y-163647499D01*
X323304251Y-163644427D01*
X323463001Y-163485677D01*
X323463001Y-161886427D01*
X323717001Y-161886427D01*
X323717001Y-163485677D01*
X323875751Y-163644427D01*
X324840001Y-163647499D01*
X324964483Y-163635239D01*
X325084181Y-163598929D01*
X325194495Y-163539964D01*
X325291186Y-163460612D01*
X325370538Y-163363921D01*
X325429503Y-163253607D01*
X325465813Y-163133909D01*
X325478073Y-163009427D01*
X366241841Y-163009427D01*
X366254101Y-163133909D01*
X366290411Y-163253607D01*
X366349376Y-163363921D01*
X366428728Y-163460612D01*
X366525419Y-163539964D01*
X366635733Y-163598929D01*
X366755431Y-163635239D01*
X366879913Y-163647499D01*
X367844163Y-163644427D01*
X368002913Y-163485677D01*
X368002913Y-161886427D01*
X368256913Y-161886427D01*
X368256913Y-163485677D01*
X368415663Y-163644427D01*
X369379913Y-163647499D01*
X369504395Y-163635239D01*
X369624093Y-163598929D01*
X369734407Y-163539964D01*
X369831098Y-163460612D01*
X369910450Y-163363921D01*
X369969415Y-163253607D01*
X370005725Y-163133909D01*
X370017985Y-163009427D01*
X370014913Y-162045177D01*
X369856163Y-161886427D01*
X368256913Y-161886427D01*
X368002913Y-161886427D01*
X366403663Y-161886427D01*
X366244913Y-162045177D01*
X366241841Y-163009427D01*
X325478073Y-163009427D01*
X325475001Y-162045177D01*
X325316251Y-161886427D01*
X323717001Y-161886427D01*
X323463001Y-161886427D01*
X321863751Y-161886427D01*
X321705001Y-162045177D01*
X321701929Y-163009427D01*
X281117985Y-163009427D01*
X281114913Y-162045177D01*
X280956163Y-161886427D01*
X279356913Y-161886427D01*
X279102913Y-161886427D01*
X277503663Y-161886427D01*
X277344913Y-162045177D01*
X277341841Y-163009427D01*
X236667985Y-163009427D01*
X236664913Y-162045177D01*
X236506163Y-161886427D01*
X234906913Y-161886427D01*
X234652913Y-161886427D01*
X233053663Y-161886427D01*
X232894913Y-162045177D01*
X232891841Y-163009427D01*
X192217985Y-163009427D01*
X192214913Y-162045177D01*
X192056163Y-161886427D01*
X190456913Y-161886427D01*
X190202913Y-161886427D01*
X188603663Y-161886427D01*
X188444913Y-162045177D01*
X188441841Y-163009427D01*
X147767985Y-163009427D01*
X147764913Y-162045177D01*
X147606163Y-161886427D01*
X146006913Y-161886427D01*
X145752913Y-161886427D01*
X144153663Y-161886427D01*
X143994913Y-162045177D01*
X143991841Y-163009427D01*
X129794229Y-163009427D01*
X127294229Y-160509427D01*
X143991841Y-160509427D01*
X143994913Y-161473677D01*
X144153663Y-161632427D01*
X145752913Y-161632427D01*
X145752913Y-160033177D01*
X146006913Y-160033177D01*
X146006913Y-161632427D01*
X147606163Y-161632427D01*
X147764913Y-161473677D01*
X147767985Y-160509427D01*
X188441841Y-160509427D01*
X188444913Y-161473677D01*
X188603663Y-161632427D01*
X190202913Y-161632427D01*
X190202913Y-160033177D01*
X190456913Y-160033177D01*
X190456913Y-161632427D01*
X192056163Y-161632427D01*
X192214913Y-161473677D01*
X192217985Y-160509427D01*
X232891841Y-160509427D01*
X232894913Y-161473677D01*
X233053663Y-161632427D01*
X234652913Y-161632427D01*
X234652913Y-160033177D01*
X234906913Y-160033177D01*
X234906913Y-161632427D01*
X236506163Y-161632427D01*
X236664913Y-161473677D01*
X236667985Y-160509427D01*
X277341841Y-160509427D01*
X277344913Y-161473677D01*
X277503663Y-161632427D01*
X279102913Y-161632427D01*
X279102913Y-160033177D01*
X279356913Y-160033177D01*
X279356913Y-161632427D01*
X280956163Y-161632427D01*
X281114913Y-161473677D01*
X281117985Y-160509427D01*
X321701929Y-160509427D01*
X321705001Y-161473677D01*
X321863751Y-161632427D01*
X323463001Y-161632427D01*
X323463001Y-160033177D01*
X323717001Y-160033177D01*
X323717001Y-161632427D01*
X325316251Y-161632427D01*
X325475001Y-161473677D01*
X325478073Y-160509427D01*
X366241841Y-160509427D01*
X366244913Y-161473677D01*
X366403663Y-161632427D01*
X368002913Y-161632427D01*
X368002913Y-160033177D01*
X368256913Y-160033177D01*
X368256913Y-161632427D01*
X369856163Y-161632427D01*
X370014913Y-161473677D01*
X370017985Y-160509427D01*
X370005725Y-160384945D01*
X369969415Y-160265247D01*
X369910450Y-160154933D01*
X369831098Y-160058242D01*
X369734407Y-159978890D01*
X369624093Y-159919925D01*
X369504395Y-159883615D01*
X369379913Y-159871355D01*
X368415663Y-159874427D01*
X368256913Y-160033177D01*
X368002913Y-160033177D01*
X367844163Y-159874427D01*
X366879913Y-159871355D01*
X366755431Y-159883615D01*
X366635733Y-159919925D01*
X366525419Y-159978890D01*
X366428728Y-160058242D01*
X366349376Y-160154933D01*
X366290411Y-160265247D01*
X366254101Y-160384945D01*
X366241841Y-160509427D01*
X325478073Y-160509427D01*
X325465813Y-160384945D01*
X325429503Y-160265247D01*
X325370538Y-160154933D01*
X325291186Y-160058242D01*
X325194495Y-159978890D01*
X325084181Y-159919925D01*
X324964483Y-159883615D01*
X324840001Y-159871355D01*
X323875751Y-159874427D01*
X323717001Y-160033177D01*
X323463001Y-160033177D01*
X323304251Y-159874427D01*
X322340001Y-159871355D01*
X322215519Y-159883615D01*
X322095821Y-159919925D01*
X321985507Y-159978890D01*
X321888816Y-160058242D01*
X321809464Y-160154933D01*
X321750499Y-160265247D01*
X321714189Y-160384945D01*
X321701929Y-160509427D01*
X281117985Y-160509427D01*
X281105725Y-160384945D01*
X281069415Y-160265247D01*
X281010450Y-160154933D01*
X280931098Y-160058242D01*
X280834407Y-159978890D01*
X280724093Y-159919925D01*
X280604395Y-159883615D01*
X280479913Y-159871355D01*
X279515663Y-159874427D01*
X279356913Y-160033177D01*
X279102913Y-160033177D01*
X278944163Y-159874427D01*
X277979913Y-159871355D01*
X277855431Y-159883615D01*
X277735733Y-159919925D01*
X277625419Y-159978890D01*
X277528728Y-160058242D01*
X277449376Y-160154933D01*
X277390411Y-160265247D01*
X277354101Y-160384945D01*
X277341841Y-160509427D01*
X236667985Y-160509427D01*
X236655725Y-160384945D01*
X236619415Y-160265247D01*
X236560450Y-160154933D01*
X236481098Y-160058242D01*
X236384407Y-159978890D01*
X236274093Y-159919925D01*
X236154395Y-159883615D01*
X236029913Y-159871355D01*
X235065663Y-159874427D01*
X234906913Y-160033177D01*
X234652913Y-160033177D01*
X234494163Y-159874427D01*
X233529913Y-159871355D01*
X233405431Y-159883615D01*
X233285733Y-159919925D01*
X233175419Y-159978890D01*
X233078728Y-160058242D01*
X232999376Y-160154933D01*
X232940411Y-160265247D01*
X232904101Y-160384945D01*
X232891841Y-160509427D01*
X192217985Y-160509427D01*
X192205725Y-160384945D01*
X192169415Y-160265247D01*
X192110450Y-160154933D01*
X192031098Y-160058242D01*
X191934407Y-159978890D01*
X191824093Y-159919925D01*
X191704395Y-159883615D01*
X191579913Y-159871355D01*
X190615663Y-159874427D01*
X190456913Y-160033177D01*
X190202913Y-160033177D01*
X190044163Y-159874427D01*
X189079913Y-159871355D01*
X188955431Y-159883615D01*
X188835733Y-159919925D01*
X188725419Y-159978890D01*
X188628728Y-160058242D01*
X188549376Y-160154933D01*
X188490411Y-160265247D01*
X188454101Y-160384945D01*
X188441841Y-160509427D01*
X147767985Y-160509427D01*
X147755725Y-160384945D01*
X147719415Y-160265247D01*
X147660450Y-160154933D01*
X147581098Y-160058242D01*
X147484407Y-159978890D01*
X147374093Y-159919925D01*
X147254395Y-159883615D01*
X147129913Y-159871355D01*
X146165663Y-159874427D01*
X146006913Y-160033177D01*
X145752913Y-160033177D01*
X145594163Y-159874427D01*
X144629913Y-159871355D01*
X144505431Y-159883615D01*
X144385733Y-159919925D01*
X144275419Y-159978890D01*
X144178728Y-160058242D01*
X144099376Y-160154933D01*
X144040411Y-160265247D01*
X144004101Y-160384945D01*
X143991841Y-160509427D01*
X127294229Y-160509427D01*
X105894229Y-139109427D01*
X143991841Y-139109427D01*
X143991841Y-141609427D01*
X144004101Y-141733909D01*
X144040411Y-141853607D01*
X144099376Y-141963921D01*
X144178728Y-142060612D01*
X144275419Y-142139964D01*
X144385733Y-142198929D01*
X144505431Y-142235239D01*
X144629913Y-142247499D01*
X146872699Y-142247499D01*
X146648843Y-142471355D01*
X144629913Y-142471355D01*
X144505431Y-142483615D01*
X144385733Y-142519925D01*
X144275419Y-142578890D01*
X144178728Y-142658242D01*
X144099376Y-142754933D01*
X144040411Y-142865247D01*
X144004101Y-142984945D01*
X143991841Y-143109427D01*
X143991841Y-145609427D01*
X144004101Y-145733909D01*
X144040411Y-145853607D01*
X144099376Y-145963921D01*
X144178728Y-146060612D01*
X144275419Y-146139964D01*
X144385733Y-146198929D01*
X144505431Y-146235239D01*
X144629913Y-146247499D01*
X147129913Y-146247499D01*
X147254395Y-146235239D01*
X147374093Y-146198929D01*
X147484407Y-146139964D01*
X147581098Y-146060612D01*
X147660450Y-145963921D01*
X147719415Y-145853607D01*
X147755725Y-145733909D01*
X147767985Y-145609427D01*
X147767985Y-143501817D01*
X147994802Y-143275000D01*
X148056939Y-143275000D01*
X148256898Y-143235226D01*
X148445256Y-143157205D01*
X148614774Y-143043937D01*
X148758937Y-142899774D01*
X148872205Y-142730256D01*
X148950226Y-142541898D01*
X148990000Y-142341939D01*
X148990000Y-142138061D01*
X148950226Y-141938102D01*
X148872205Y-141749744D01*
X148758937Y-141580226D01*
X148614774Y-141436063D01*
X148445256Y-141322795D01*
X148256898Y-141244774D01*
X148056939Y-141205000D01*
X147994802Y-141205000D01*
X147767985Y-140978183D01*
X147767985Y-139109427D01*
X188441841Y-139109427D01*
X188441841Y-141609427D01*
X188454101Y-141733909D01*
X188490411Y-141853607D01*
X188549376Y-141963921D01*
X188628728Y-142060612D01*
X188725419Y-142139964D01*
X188835733Y-142198929D01*
X188955431Y-142235239D01*
X189079913Y-142247499D01*
X191322699Y-142247499D01*
X191098843Y-142471355D01*
X189079913Y-142471355D01*
X188955431Y-142483615D01*
X188835733Y-142519925D01*
X188725419Y-142578890D01*
X188628728Y-142658242D01*
X188549376Y-142754933D01*
X188490411Y-142865247D01*
X188454101Y-142984945D01*
X188441841Y-143109427D01*
X188441841Y-145609427D01*
X188454101Y-145733909D01*
X188490411Y-145853607D01*
X188549376Y-145963921D01*
X188628728Y-146060612D01*
X188725419Y-146139964D01*
X188835733Y-146198929D01*
X188955431Y-146235239D01*
X189079913Y-146247499D01*
X191579913Y-146247499D01*
X191704395Y-146235239D01*
X191824093Y-146198929D01*
X191934407Y-146139964D01*
X192031098Y-146060612D01*
X192110450Y-145963921D01*
X192169415Y-145853607D01*
X192205725Y-145733909D01*
X192217985Y-145609427D01*
X192217985Y-143501817D01*
X192444802Y-143275000D01*
X192506939Y-143275000D01*
X192706898Y-143235226D01*
X192895256Y-143157205D01*
X193064774Y-143043937D01*
X193208937Y-142899774D01*
X193322205Y-142730256D01*
X193400226Y-142541898D01*
X193440000Y-142341939D01*
X193440000Y-142138061D01*
X193400226Y-141938102D01*
X193322205Y-141749744D01*
X193208937Y-141580226D01*
X193064774Y-141436063D01*
X192895256Y-141322795D01*
X192706898Y-141244774D01*
X192506939Y-141205000D01*
X192444802Y-141205000D01*
X192217985Y-140978183D01*
X192217985Y-139109427D01*
X232891841Y-139109427D01*
X232891841Y-141609427D01*
X232904101Y-141733909D01*
X232940411Y-141853607D01*
X232999376Y-141963921D01*
X233078728Y-142060612D01*
X233175419Y-142139964D01*
X233285733Y-142198929D01*
X233405431Y-142235239D01*
X233529913Y-142247499D01*
X235772699Y-142247499D01*
X235548843Y-142471355D01*
X233529913Y-142471355D01*
X233405431Y-142483615D01*
X233285733Y-142519925D01*
X233175419Y-142578890D01*
X233078728Y-142658242D01*
X232999376Y-142754933D01*
X232940411Y-142865247D01*
X232904101Y-142984945D01*
X232891841Y-143109427D01*
X232891841Y-145609427D01*
X232904101Y-145733909D01*
X232940411Y-145853607D01*
X232999376Y-145963921D01*
X233078728Y-146060612D01*
X233175419Y-146139964D01*
X233285733Y-146198929D01*
X233405431Y-146235239D01*
X233529913Y-146247499D01*
X236029913Y-146247499D01*
X236154395Y-146235239D01*
X236274093Y-146198929D01*
X236384407Y-146139964D01*
X236481098Y-146060612D01*
X236560450Y-145963921D01*
X236619415Y-145853607D01*
X236655725Y-145733909D01*
X236667985Y-145609427D01*
X236667985Y-143501817D01*
X236894802Y-143275000D01*
X236956939Y-143275000D01*
X237156898Y-143235226D01*
X237345256Y-143157205D01*
X237514774Y-143043937D01*
X237658937Y-142899774D01*
X237772205Y-142730256D01*
X237850226Y-142541898D01*
X237890000Y-142341939D01*
X237890000Y-142138061D01*
X237850226Y-141938102D01*
X237772205Y-141749744D01*
X237658937Y-141580226D01*
X237514774Y-141436063D01*
X237345256Y-141322795D01*
X237156898Y-141244774D01*
X236956939Y-141205000D01*
X236894802Y-141205000D01*
X236667985Y-140978183D01*
X236667985Y-139109427D01*
X277341841Y-139109427D01*
X277341841Y-141609427D01*
X277354101Y-141733909D01*
X277390411Y-141853607D01*
X277449376Y-141963921D01*
X277528728Y-142060612D01*
X277625419Y-142139964D01*
X277735733Y-142198929D01*
X277855431Y-142235239D01*
X277979913Y-142247499D01*
X280222699Y-142247499D01*
X279998843Y-142471355D01*
X277979913Y-142471355D01*
X277855431Y-142483615D01*
X277735733Y-142519925D01*
X277625419Y-142578890D01*
X277528728Y-142658242D01*
X277449376Y-142754933D01*
X277390411Y-142865247D01*
X277354101Y-142984945D01*
X277341841Y-143109427D01*
X277341841Y-145609427D01*
X277354101Y-145733909D01*
X277390411Y-145853607D01*
X277449376Y-145963921D01*
X277528728Y-146060612D01*
X277625419Y-146139964D01*
X277735733Y-146198929D01*
X277855431Y-146235239D01*
X277979913Y-146247499D01*
X280479913Y-146247499D01*
X280604395Y-146235239D01*
X280724093Y-146198929D01*
X280834407Y-146139964D01*
X280931098Y-146060612D01*
X281010450Y-145963921D01*
X281069415Y-145853607D01*
X281105725Y-145733909D01*
X281117985Y-145609427D01*
X281117985Y-143501817D01*
X281344802Y-143275000D01*
X281406939Y-143275000D01*
X281606898Y-143235226D01*
X281795256Y-143157205D01*
X281964774Y-143043937D01*
X282108937Y-142899774D01*
X282222205Y-142730256D01*
X282300226Y-142541898D01*
X282340000Y-142341939D01*
X282340000Y-142138061D01*
X282300226Y-141938102D01*
X282222205Y-141749744D01*
X282108937Y-141580226D01*
X281964774Y-141436063D01*
X281795256Y-141322795D01*
X281606898Y-141244774D01*
X281406939Y-141205000D01*
X281344802Y-141205000D01*
X281117985Y-140978183D01*
X281117985Y-139109427D01*
X321701929Y-139109427D01*
X321701929Y-141609427D01*
X321714189Y-141733909D01*
X321750499Y-141853607D01*
X321809464Y-141963921D01*
X321888816Y-142060612D01*
X321985507Y-142139964D01*
X322095821Y-142198929D01*
X322215519Y-142235239D01*
X322340001Y-142247499D01*
X324672699Y-142247499D01*
X324448843Y-142471355D01*
X322340001Y-142471355D01*
X322215519Y-142483615D01*
X322095821Y-142519925D01*
X321985507Y-142578890D01*
X321888816Y-142658242D01*
X321809464Y-142754933D01*
X321750499Y-142865247D01*
X321714189Y-142984945D01*
X321701929Y-143109427D01*
X321701929Y-145609427D01*
X321714189Y-145733909D01*
X321750499Y-145853607D01*
X321809464Y-145963921D01*
X321888816Y-146060612D01*
X321985507Y-146139964D01*
X322095821Y-146198929D01*
X322215519Y-146235239D01*
X322340001Y-146247499D01*
X324840001Y-146247499D01*
X324964483Y-146235239D01*
X325084181Y-146198929D01*
X325194495Y-146139964D01*
X325291186Y-146060612D01*
X325370538Y-145963921D01*
X325429503Y-145853607D01*
X325465813Y-145733909D01*
X325478073Y-145609427D01*
X325478073Y-143591729D01*
X325794803Y-143275000D01*
X325856939Y-143275000D01*
X326056898Y-143235226D01*
X326245256Y-143157205D01*
X326414774Y-143043937D01*
X326558937Y-142899774D01*
X326672205Y-142730256D01*
X326750226Y-142541898D01*
X326790000Y-142341939D01*
X326790000Y-142138061D01*
X326750226Y-141938102D01*
X326672205Y-141749744D01*
X326558937Y-141580226D01*
X326414774Y-141436063D01*
X326245256Y-141322795D01*
X326056898Y-141244774D01*
X325856939Y-141205000D01*
X325794802Y-141205000D01*
X325478073Y-140888271D01*
X325478073Y-139109427D01*
X366241841Y-139109427D01*
X366241841Y-141609427D01*
X366254101Y-141733909D01*
X366290411Y-141853607D01*
X366349376Y-141963921D01*
X366428728Y-142060612D01*
X366525419Y-142139964D01*
X366635733Y-142198929D01*
X366755431Y-142235239D01*
X366879913Y-142247499D01*
X369379913Y-142247499D01*
X369504395Y-142235239D01*
X369624093Y-142198929D01*
X369734407Y-142139964D01*
X369831098Y-142060612D01*
X369910450Y-141963921D01*
X369969415Y-141853607D01*
X370005725Y-141733909D01*
X370017985Y-141609427D01*
X370017985Y-141222786D01*
X371035198Y-142240000D01*
X370017985Y-143257213D01*
X370017985Y-143109427D01*
X370005725Y-142984945D01*
X369969415Y-142865247D01*
X369910450Y-142754933D01*
X369831098Y-142658242D01*
X369734407Y-142578890D01*
X369624093Y-142519925D01*
X369504395Y-142483615D01*
X369379913Y-142471355D01*
X366879913Y-142471355D01*
X366755431Y-142483615D01*
X366635733Y-142519925D01*
X366525419Y-142578890D01*
X366428728Y-142658242D01*
X366349376Y-142754933D01*
X366290411Y-142865247D01*
X366254101Y-142984945D01*
X366241841Y-143109427D01*
X366241841Y-145609427D01*
X366254101Y-145733909D01*
X366290411Y-145853607D01*
X366349376Y-145963921D01*
X366428728Y-146060612D01*
X366525419Y-146139964D01*
X366635733Y-146198929D01*
X366755431Y-146235239D01*
X366879913Y-146247499D01*
X369379913Y-146247499D01*
X369504395Y-146235239D01*
X369624093Y-146198929D01*
X369734407Y-146139964D01*
X369831098Y-146060612D01*
X369910450Y-145963921D01*
X369969415Y-145853607D01*
X370005725Y-145733909D01*
X370017985Y-145609427D01*
X370017985Y-145120403D01*
X370027895Y-145119427D01*
X370027906Y-145119427D01*
X370139559Y-145108430D01*
X370282820Y-145064973D01*
X370414849Y-144994401D01*
X370530574Y-144899428D01*
X370554377Y-144870425D01*
X372149803Y-143275000D01*
X372211939Y-143275000D01*
X372411898Y-143235226D01*
X372600256Y-143157205D01*
X372769774Y-143043937D01*
X372913937Y-142899774D01*
X373027205Y-142730256D01*
X373105226Y-142541898D01*
X373145000Y-142341939D01*
X373145000Y-142138061D01*
X373105226Y-141938102D01*
X373027205Y-141749744D01*
X372913937Y-141580226D01*
X372769774Y-141436063D01*
X372600256Y-141322795D01*
X372411898Y-141244774D01*
X372211939Y-141205000D01*
X372149802Y-141205000D01*
X370793231Y-139848430D01*
X370769428Y-139819426D01*
X370653703Y-139724453D01*
X370521674Y-139653881D01*
X370378413Y-139610424D01*
X370266760Y-139599427D01*
X370266749Y-139599427D01*
X370229427Y-139595751D01*
X370192105Y-139599427D01*
X370017985Y-139599427D01*
X370017985Y-139109427D01*
X370005725Y-138984945D01*
X369969415Y-138865247D01*
X369910450Y-138754933D01*
X369831098Y-138658242D01*
X369734407Y-138578890D01*
X369624093Y-138519925D01*
X369504395Y-138483615D01*
X369379913Y-138471355D01*
X366879913Y-138471355D01*
X366755431Y-138483615D01*
X366635733Y-138519925D01*
X366525419Y-138578890D01*
X366428728Y-138658242D01*
X366349376Y-138754933D01*
X366290411Y-138865247D01*
X366254101Y-138984945D01*
X366241841Y-139109427D01*
X325478073Y-139109427D01*
X325465813Y-138984945D01*
X325429503Y-138865247D01*
X325370538Y-138754933D01*
X325291186Y-138658242D01*
X325194495Y-138578890D01*
X325084181Y-138519925D01*
X324964483Y-138483615D01*
X324840001Y-138471355D01*
X322340001Y-138471355D01*
X322215519Y-138483615D01*
X322095821Y-138519925D01*
X321985507Y-138578890D01*
X321888816Y-138658242D01*
X321809464Y-138754933D01*
X321750499Y-138865247D01*
X321714189Y-138984945D01*
X321701929Y-139109427D01*
X281117985Y-139109427D01*
X281105725Y-138984945D01*
X281069415Y-138865247D01*
X281010450Y-138754933D01*
X280931098Y-138658242D01*
X280834407Y-138578890D01*
X280724093Y-138519925D01*
X280604395Y-138483615D01*
X280479913Y-138471355D01*
X277979913Y-138471355D01*
X277855431Y-138483615D01*
X277735733Y-138519925D01*
X277625419Y-138578890D01*
X277528728Y-138658242D01*
X277449376Y-138754933D01*
X277390411Y-138865247D01*
X277354101Y-138984945D01*
X277341841Y-139109427D01*
X236667985Y-139109427D01*
X236655725Y-138984945D01*
X236619415Y-138865247D01*
X236560450Y-138754933D01*
X236481098Y-138658242D01*
X236384407Y-138578890D01*
X236274093Y-138519925D01*
X236154395Y-138483615D01*
X236029913Y-138471355D01*
X233529913Y-138471355D01*
X233405431Y-138483615D01*
X233285733Y-138519925D01*
X233175419Y-138578890D01*
X233078728Y-138658242D01*
X232999376Y-138754933D01*
X232940411Y-138865247D01*
X232904101Y-138984945D01*
X232891841Y-139109427D01*
X192217985Y-139109427D01*
X192205725Y-138984945D01*
X192169415Y-138865247D01*
X192110450Y-138754933D01*
X192031098Y-138658242D01*
X191934407Y-138578890D01*
X191824093Y-138519925D01*
X191704395Y-138483615D01*
X191579913Y-138471355D01*
X189079913Y-138471355D01*
X188955431Y-138483615D01*
X188835733Y-138519925D01*
X188725419Y-138578890D01*
X188628728Y-138658242D01*
X188549376Y-138754933D01*
X188490411Y-138865247D01*
X188454101Y-138984945D01*
X188441841Y-139109427D01*
X147767985Y-139109427D01*
X147755725Y-138984945D01*
X147719415Y-138865247D01*
X147660450Y-138754933D01*
X147581098Y-138658242D01*
X147484407Y-138578890D01*
X147374093Y-138519925D01*
X147254395Y-138483615D01*
X147129913Y-138471355D01*
X144629913Y-138471355D01*
X144505431Y-138483615D01*
X144385733Y-138519925D01*
X144275419Y-138578890D01*
X144178728Y-138658242D01*
X144099376Y-138754933D01*
X144040411Y-138865247D01*
X144004101Y-138984945D01*
X143991841Y-139109427D01*
X105894229Y-139109427D01*
X104540000Y-137755199D01*
X104540000Y-137693061D01*
X104500226Y-137493102D01*
X104422205Y-137304744D01*
X104308937Y-137135226D01*
X104164774Y-136991063D01*
X103995256Y-136877795D01*
X103806898Y-136799774D01*
X103606939Y-136760000D01*
X103403061Y-136760000D01*
X103203102Y-136799774D01*
X103014744Y-136877795D01*
X102845226Y-136991063D01*
X102701063Y-137135226D01*
X102587795Y-137304744D01*
X102509774Y-137493102D01*
X102470000Y-137693061D01*
X60136000Y-137693061D01*
X60136000Y-134046123D01*
X60132950Y-134015151D01*
X60133032Y-134003351D01*
X60132065Y-133993486D01*
X60093201Y-133623731D01*
X60080273Y-133560750D01*
X60068204Y-133497483D01*
X60065338Y-133487993D01*
X59955396Y-133132830D01*
X59930477Y-133073551D01*
X59906354Y-133013843D01*
X59901700Y-133005090D01*
X59724868Y-132678046D01*
X59688887Y-132624703D01*
X59653646Y-132570848D01*
X59647381Y-132563166D01*
X59410392Y-132276697D01*
X59364740Y-132231362D01*
X59319708Y-132185377D01*
X59312070Y-132179058D01*
X59023952Y-131944075D01*
X58970377Y-131908479D01*
X58917256Y-131872107D01*
X58908535Y-131867392D01*
X58580263Y-131692847D01*
X58520774Y-131668327D01*
X58461622Y-131642975D01*
X58452152Y-131640043D01*
X58096229Y-131532583D01*
X58033132Y-131520090D01*
X57970158Y-131506704D01*
X57960299Y-131505668D01*
X57590283Y-131469388D01*
X57590277Y-131469388D01*
X57555877Y-131466000D01*
X53786000Y-131466000D01*
X53786000Y-126549427D01*
X99541841Y-126549427D01*
X99554101Y-126673909D01*
X99590411Y-126793607D01*
X99649376Y-126903921D01*
X99728728Y-127000612D01*
X99825419Y-127079964D01*
X99935733Y-127138929D01*
X100055431Y-127175239D01*
X100179913Y-127187499D01*
X101144163Y-127184427D01*
X101302913Y-127025677D01*
X101302913Y-125426427D01*
X101556913Y-125426427D01*
X101556913Y-127025677D01*
X101715663Y-127184427D01*
X102679913Y-127187499D01*
X102804395Y-127175239D01*
X102924093Y-127138929D01*
X103034407Y-127079964D01*
X103131098Y-127000612D01*
X103210450Y-126903921D01*
X103269415Y-126793607D01*
X103305725Y-126673909D01*
X103317985Y-126549427D01*
X103314913Y-125585177D01*
X103156163Y-125426427D01*
X101556913Y-125426427D01*
X101302913Y-125426427D01*
X99703663Y-125426427D01*
X99544913Y-125585177D01*
X99541841Y-126549427D01*
X53786000Y-126549427D01*
X53786000Y-124049427D01*
X99541841Y-124049427D01*
X99544913Y-125013677D01*
X99703663Y-125172427D01*
X101302913Y-125172427D01*
X101302913Y-123573177D01*
X101556913Y-123573177D01*
X101556913Y-125172427D01*
X103156163Y-125172427D01*
X103314913Y-125013677D01*
X103317985Y-124049427D01*
X103314046Y-124009427D01*
X143991841Y-124009427D01*
X144004101Y-124133909D01*
X144040411Y-124253607D01*
X144099376Y-124363921D01*
X144178728Y-124460612D01*
X144275419Y-124539964D01*
X144385733Y-124598929D01*
X144505431Y-124635239D01*
X144629913Y-124647499D01*
X145594163Y-124644427D01*
X145752913Y-124485677D01*
X145752913Y-122886427D01*
X146006913Y-122886427D01*
X146006913Y-124485677D01*
X146165663Y-124644427D01*
X147129913Y-124647499D01*
X147254395Y-124635239D01*
X147374093Y-124598929D01*
X147484407Y-124539964D01*
X147581098Y-124460612D01*
X147660450Y-124363921D01*
X147719415Y-124253607D01*
X147755725Y-124133909D01*
X147767985Y-124009427D01*
X188441841Y-124009427D01*
X188454101Y-124133909D01*
X188490411Y-124253607D01*
X188549376Y-124363921D01*
X188628728Y-124460612D01*
X188725419Y-124539964D01*
X188835733Y-124598929D01*
X188955431Y-124635239D01*
X189079913Y-124647499D01*
X190044163Y-124644427D01*
X190202913Y-124485677D01*
X190202913Y-122886427D01*
X190456913Y-122886427D01*
X190456913Y-124485677D01*
X190615663Y-124644427D01*
X191579913Y-124647499D01*
X191704395Y-124635239D01*
X191824093Y-124598929D01*
X191934407Y-124539964D01*
X192031098Y-124460612D01*
X192110450Y-124363921D01*
X192169415Y-124253607D01*
X192205725Y-124133909D01*
X192217985Y-124009427D01*
X232891841Y-124009427D01*
X232904101Y-124133909D01*
X232940411Y-124253607D01*
X232999376Y-124363921D01*
X233078728Y-124460612D01*
X233175419Y-124539964D01*
X233285733Y-124598929D01*
X233405431Y-124635239D01*
X233529913Y-124647499D01*
X234494163Y-124644427D01*
X234652913Y-124485677D01*
X234652913Y-122886427D01*
X234906913Y-122886427D01*
X234906913Y-124485677D01*
X235065663Y-124644427D01*
X236029913Y-124647499D01*
X236154395Y-124635239D01*
X236274093Y-124598929D01*
X236384407Y-124539964D01*
X236481098Y-124460612D01*
X236560450Y-124363921D01*
X236619415Y-124253607D01*
X236655725Y-124133909D01*
X236667985Y-124009427D01*
X277341841Y-124009427D01*
X277354101Y-124133909D01*
X277390411Y-124253607D01*
X277449376Y-124363921D01*
X277528728Y-124460612D01*
X277625419Y-124539964D01*
X277735733Y-124598929D01*
X277855431Y-124635239D01*
X277979913Y-124647499D01*
X278944163Y-124644427D01*
X279102913Y-124485677D01*
X279102913Y-122886427D01*
X279356913Y-122886427D01*
X279356913Y-124485677D01*
X279515663Y-124644427D01*
X280479913Y-124647499D01*
X280604395Y-124635239D01*
X280724093Y-124598929D01*
X280834407Y-124539964D01*
X280931098Y-124460612D01*
X281010450Y-124363921D01*
X281069415Y-124253607D01*
X281105725Y-124133909D01*
X281117985Y-124009427D01*
X321701929Y-124009427D01*
X321714189Y-124133909D01*
X321750499Y-124253607D01*
X321809464Y-124363921D01*
X321888816Y-124460612D01*
X321985507Y-124539964D01*
X322095821Y-124598929D01*
X322215519Y-124635239D01*
X322340001Y-124647499D01*
X323304251Y-124644427D01*
X323463001Y-124485677D01*
X323463001Y-122886427D01*
X323717001Y-122886427D01*
X323717001Y-124485677D01*
X323875751Y-124644427D01*
X324840001Y-124647499D01*
X324964483Y-124635239D01*
X325084181Y-124598929D01*
X325194495Y-124539964D01*
X325291186Y-124460612D01*
X325370538Y-124363921D01*
X325429503Y-124253607D01*
X325465813Y-124133909D01*
X325478073Y-124009427D01*
X366241841Y-124009427D01*
X366254101Y-124133909D01*
X366290411Y-124253607D01*
X366349376Y-124363921D01*
X366428728Y-124460612D01*
X366525419Y-124539964D01*
X366635733Y-124598929D01*
X366755431Y-124635239D01*
X366879913Y-124647499D01*
X367844163Y-124644427D01*
X368002913Y-124485677D01*
X368002913Y-122886427D01*
X368256913Y-122886427D01*
X368256913Y-124485677D01*
X368415663Y-124644427D01*
X369379913Y-124647499D01*
X369504395Y-124635239D01*
X369624093Y-124598929D01*
X369734407Y-124539964D01*
X369831098Y-124460612D01*
X369910450Y-124363921D01*
X369969415Y-124253607D01*
X370005725Y-124133909D01*
X370017985Y-124009427D01*
X370014913Y-123045177D01*
X369856163Y-122886427D01*
X368256913Y-122886427D01*
X368002913Y-122886427D01*
X366403663Y-122886427D01*
X366244913Y-123045177D01*
X366241841Y-124009427D01*
X325478073Y-124009427D01*
X325475001Y-123045177D01*
X325316251Y-122886427D01*
X323717001Y-122886427D01*
X323463001Y-122886427D01*
X321863751Y-122886427D01*
X321705001Y-123045177D01*
X321701929Y-124009427D01*
X281117985Y-124009427D01*
X281114913Y-123045177D01*
X280956163Y-122886427D01*
X279356913Y-122886427D01*
X279102913Y-122886427D01*
X277503663Y-122886427D01*
X277344913Y-123045177D01*
X277341841Y-124009427D01*
X236667985Y-124009427D01*
X236664913Y-123045177D01*
X236506163Y-122886427D01*
X234906913Y-122886427D01*
X234652913Y-122886427D01*
X233053663Y-122886427D01*
X232894913Y-123045177D01*
X232891841Y-124009427D01*
X192217985Y-124009427D01*
X192214913Y-123045177D01*
X192056163Y-122886427D01*
X190456913Y-122886427D01*
X190202913Y-122886427D01*
X188603663Y-122886427D01*
X188444913Y-123045177D01*
X188441841Y-124009427D01*
X147767985Y-124009427D01*
X147764913Y-123045177D01*
X147606163Y-122886427D01*
X146006913Y-122886427D01*
X145752913Y-122886427D01*
X144153663Y-122886427D01*
X143994913Y-123045177D01*
X143991841Y-124009427D01*
X103314046Y-124009427D01*
X103305725Y-123924945D01*
X103269415Y-123805247D01*
X103210450Y-123694933D01*
X103131098Y-123598242D01*
X103034407Y-123518890D01*
X102924093Y-123459925D01*
X102804395Y-123423615D01*
X102679913Y-123411355D01*
X101715663Y-123414427D01*
X101556913Y-123573177D01*
X101302913Y-123573177D01*
X101144163Y-123414427D01*
X100179913Y-123411355D01*
X100055431Y-123423615D01*
X99935733Y-123459925D01*
X99825419Y-123518890D01*
X99728728Y-123598242D01*
X99649376Y-123694933D01*
X99590411Y-123805247D01*
X99554101Y-123924945D01*
X99541841Y-124049427D01*
X53786000Y-124049427D01*
X53786000Y-121549427D01*
X99541841Y-121549427D01*
X99554101Y-121673909D01*
X99590411Y-121793607D01*
X99649376Y-121903921D01*
X99728728Y-122000612D01*
X99825419Y-122079964D01*
X99935733Y-122138929D01*
X100055431Y-122175239D01*
X100179913Y-122187499D01*
X101144163Y-122184427D01*
X101302913Y-122025677D01*
X101302913Y-120426427D01*
X101556913Y-120426427D01*
X101556913Y-122025677D01*
X101715663Y-122184427D01*
X102679913Y-122187499D01*
X102804395Y-122175239D01*
X102924093Y-122138929D01*
X103034407Y-122079964D01*
X103131098Y-122000612D01*
X103210450Y-121903921D01*
X103269415Y-121793607D01*
X103305725Y-121673909D01*
X103317985Y-121549427D01*
X103317858Y-121509427D01*
X143991841Y-121509427D01*
X143994913Y-122473677D01*
X144153663Y-122632427D01*
X145752913Y-122632427D01*
X145752913Y-121033177D01*
X146006913Y-121033177D01*
X146006913Y-122632427D01*
X147606163Y-122632427D01*
X147764913Y-122473677D01*
X147767985Y-121509427D01*
X188441841Y-121509427D01*
X188444913Y-122473677D01*
X188603663Y-122632427D01*
X190202913Y-122632427D01*
X190202913Y-121033177D01*
X190456913Y-121033177D01*
X190456913Y-122632427D01*
X192056163Y-122632427D01*
X192214913Y-122473677D01*
X192217985Y-121509427D01*
X232891841Y-121509427D01*
X232894913Y-122473677D01*
X233053663Y-122632427D01*
X234652913Y-122632427D01*
X234652913Y-121033177D01*
X234906913Y-121033177D01*
X234906913Y-122632427D01*
X236506163Y-122632427D01*
X236664913Y-122473677D01*
X236667985Y-121509427D01*
X277341841Y-121509427D01*
X277344913Y-122473677D01*
X277503663Y-122632427D01*
X279102913Y-122632427D01*
X279102913Y-121033177D01*
X279356913Y-121033177D01*
X279356913Y-122632427D01*
X280956163Y-122632427D01*
X281114913Y-122473677D01*
X281117985Y-121509427D01*
X321701929Y-121509427D01*
X321705001Y-122473677D01*
X321863751Y-122632427D01*
X323463001Y-122632427D01*
X323463001Y-121033177D01*
X323717001Y-121033177D01*
X323717001Y-122632427D01*
X325316251Y-122632427D01*
X325475001Y-122473677D01*
X325478073Y-121509427D01*
X366241841Y-121509427D01*
X366244913Y-122473677D01*
X366403663Y-122632427D01*
X368002913Y-122632427D01*
X368002913Y-121033177D01*
X368256913Y-121033177D01*
X368256913Y-122632427D01*
X369856163Y-122632427D01*
X370014913Y-122473677D01*
X370017985Y-121509427D01*
X370005725Y-121384945D01*
X369969415Y-121265247D01*
X369910450Y-121154933D01*
X369831098Y-121058242D01*
X369734407Y-120978890D01*
X369624093Y-120919925D01*
X369504395Y-120883615D01*
X369379913Y-120871355D01*
X368415663Y-120874427D01*
X368256913Y-121033177D01*
X368002913Y-121033177D01*
X367844163Y-120874427D01*
X366879913Y-120871355D01*
X366755431Y-120883615D01*
X366635733Y-120919925D01*
X366525419Y-120978890D01*
X366428728Y-121058242D01*
X366349376Y-121154933D01*
X366290411Y-121265247D01*
X366254101Y-121384945D01*
X366241841Y-121509427D01*
X325478073Y-121509427D01*
X325465813Y-121384945D01*
X325429503Y-121265247D01*
X325370538Y-121154933D01*
X325291186Y-121058242D01*
X325194495Y-120978890D01*
X325084181Y-120919925D01*
X324964483Y-120883615D01*
X324840001Y-120871355D01*
X323875751Y-120874427D01*
X323717001Y-121033177D01*
X323463001Y-121033177D01*
X323304251Y-120874427D01*
X322340001Y-120871355D01*
X322215519Y-120883615D01*
X322095821Y-120919925D01*
X321985507Y-120978890D01*
X321888816Y-121058242D01*
X321809464Y-121154933D01*
X321750499Y-121265247D01*
X321714189Y-121384945D01*
X321701929Y-121509427D01*
X281117985Y-121509427D01*
X281105725Y-121384945D01*
X281069415Y-121265247D01*
X281010450Y-121154933D01*
X280931098Y-121058242D01*
X280834407Y-120978890D01*
X280724093Y-120919925D01*
X280604395Y-120883615D01*
X280479913Y-120871355D01*
X279515663Y-120874427D01*
X279356913Y-121033177D01*
X279102913Y-121033177D01*
X278944163Y-120874427D01*
X277979913Y-120871355D01*
X277855431Y-120883615D01*
X277735733Y-120919925D01*
X277625419Y-120978890D01*
X277528728Y-121058242D01*
X277449376Y-121154933D01*
X277390411Y-121265247D01*
X277354101Y-121384945D01*
X277341841Y-121509427D01*
X236667985Y-121509427D01*
X236655725Y-121384945D01*
X236619415Y-121265247D01*
X236560450Y-121154933D01*
X236481098Y-121058242D01*
X236384407Y-120978890D01*
X236274093Y-120919925D01*
X236154395Y-120883615D01*
X236029913Y-120871355D01*
X235065663Y-120874427D01*
X234906913Y-121033177D01*
X234652913Y-121033177D01*
X234494163Y-120874427D01*
X233529913Y-120871355D01*
X233405431Y-120883615D01*
X233285733Y-120919925D01*
X233175419Y-120978890D01*
X233078728Y-121058242D01*
X232999376Y-121154933D01*
X232940411Y-121265247D01*
X232904101Y-121384945D01*
X232891841Y-121509427D01*
X192217985Y-121509427D01*
X192205725Y-121384945D01*
X192169415Y-121265247D01*
X192110450Y-121154933D01*
X192031098Y-121058242D01*
X191934407Y-120978890D01*
X191824093Y-120919925D01*
X191704395Y-120883615D01*
X191579913Y-120871355D01*
X190615663Y-120874427D01*
X190456913Y-121033177D01*
X190202913Y-121033177D01*
X190044163Y-120874427D01*
X189079913Y-120871355D01*
X188955431Y-120883615D01*
X188835733Y-120919925D01*
X188725419Y-120978890D01*
X188628728Y-121058242D01*
X188549376Y-121154933D01*
X188490411Y-121265247D01*
X188454101Y-121384945D01*
X188441841Y-121509427D01*
X147767985Y-121509427D01*
X147755725Y-121384945D01*
X147719415Y-121265247D01*
X147660450Y-121154933D01*
X147581098Y-121058242D01*
X147484407Y-120978890D01*
X147374093Y-120919925D01*
X147254395Y-120883615D01*
X147129913Y-120871355D01*
X146165663Y-120874427D01*
X146006913Y-121033177D01*
X145752913Y-121033177D01*
X145594163Y-120874427D01*
X144629913Y-120871355D01*
X144505431Y-120883615D01*
X144385733Y-120919925D01*
X144275419Y-120978890D01*
X144178728Y-121058242D01*
X144099376Y-121154933D01*
X144040411Y-121265247D01*
X144004101Y-121384945D01*
X143991841Y-121509427D01*
X103317858Y-121509427D01*
X103314913Y-120585177D01*
X103156163Y-120426427D01*
X101556913Y-120426427D01*
X101302913Y-120426427D01*
X99703663Y-120426427D01*
X99544913Y-120585177D01*
X99541841Y-121549427D01*
X53786000Y-121549427D01*
X53786000Y-119049427D01*
X99541841Y-119049427D01*
X99544913Y-120013677D01*
X99703663Y-120172427D01*
X101302913Y-120172427D01*
X101302913Y-118573177D01*
X101556913Y-118573177D01*
X101556913Y-120172427D01*
X103156163Y-120172427D01*
X103314913Y-120013677D01*
X103317985Y-119049427D01*
X103314046Y-119009427D01*
X143991841Y-119009427D01*
X144004101Y-119133909D01*
X144040411Y-119253607D01*
X144099376Y-119363921D01*
X144178728Y-119460612D01*
X144275419Y-119539964D01*
X144385733Y-119598929D01*
X144505431Y-119635239D01*
X144629913Y-119647499D01*
X145594163Y-119644427D01*
X145752913Y-119485677D01*
X145752913Y-117886427D01*
X146006913Y-117886427D01*
X146006913Y-119485677D01*
X146165663Y-119644427D01*
X147129913Y-119647499D01*
X147254395Y-119635239D01*
X147374093Y-119598929D01*
X147484407Y-119539964D01*
X147581098Y-119460612D01*
X147660450Y-119363921D01*
X147719415Y-119253607D01*
X147755725Y-119133909D01*
X147767985Y-119009427D01*
X188441841Y-119009427D01*
X188454101Y-119133909D01*
X188490411Y-119253607D01*
X188549376Y-119363921D01*
X188628728Y-119460612D01*
X188725419Y-119539964D01*
X188835733Y-119598929D01*
X188955431Y-119635239D01*
X189079913Y-119647499D01*
X190044163Y-119644427D01*
X190202913Y-119485677D01*
X190202913Y-117886427D01*
X190456913Y-117886427D01*
X190456913Y-119485677D01*
X190615663Y-119644427D01*
X191579913Y-119647499D01*
X191704395Y-119635239D01*
X191824093Y-119598929D01*
X191934407Y-119539964D01*
X192031098Y-119460612D01*
X192110450Y-119363921D01*
X192169415Y-119253607D01*
X192205725Y-119133909D01*
X192217985Y-119009427D01*
X232891841Y-119009427D01*
X232904101Y-119133909D01*
X232940411Y-119253607D01*
X232999376Y-119363921D01*
X233078728Y-119460612D01*
X233175419Y-119539964D01*
X233285733Y-119598929D01*
X233405431Y-119635239D01*
X233529913Y-119647499D01*
X234494163Y-119644427D01*
X234652913Y-119485677D01*
X234652913Y-117886427D01*
X234906913Y-117886427D01*
X234906913Y-119485677D01*
X235065663Y-119644427D01*
X236029913Y-119647499D01*
X236154395Y-119635239D01*
X236274093Y-119598929D01*
X236384407Y-119539964D01*
X236481098Y-119460612D01*
X236560450Y-119363921D01*
X236619415Y-119253607D01*
X236655725Y-119133909D01*
X236667985Y-119009427D01*
X277341841Y-119009427D01*
X277354101Y-119133909D01*
X277390411Y-119253607D01*
X277449376Y-119363921D01*
X277528728Y-119460612D01*
X277625419Y-119539964D01*
X277735733Y-119598929D01*
X277855431Y-119635239D01*
X277979913Y-119647499D01*
X278944163Y-119644427D01*
X279102913Y-119485677D01*
X279102913Y-117886427D01*
X279356913Y-117886427D01*
X279356913Y-119485677D01*
X279515663Y-119644427D01*
X280479913Y-119647499D01*
X280604395Y-119635239D01*
X280724093Y-119598929D01*
X280834407Y-119539964D01*
X280931098Y-119460612D01*
X281010450Y-119363921D01*
X281069415Y-119253607D01*
X281105725Y-119133909D01*
X281117985Y-119009427D01*
X321701929Y-119009427D01*
X321714189Y-119133909D01*
X321750499Y-119253607D01*
X321809464Y-119363921D01*
X321888816Y-119460612D01*
X321985507Y-119539964D01*
X322095821Y-119598929D01*
X322215519Y-119635239D01*
X322340001Y-119647499D01*
X323304251Y-119644427D01*
X323463001Y-119485677D01*
X323463001Y-117886427D01*
X323717001Y-117886427D01*
X323717001Y-119485677D01*
X323875751Y-119644427D01*
X324840001Y-119647499D01*
X324964483Y-119635239D01*
X325084181Y-119598929D01*
X325194495Y-119539964D01*
X325291186Y-119460612D01*
X325370538Y-119363921D01*
X325429503Y-119253607D01*
X325465813Y-119133909D01*
X325478073Y-119009427D01*
X366241841Y-119009427D01*
X366254101Y-119133909D01*
X366290411Y-119253607D01*
X366349376Y-119363921D01*
X366428728Y-119460612D01*
X366525419Y-119539964D01*
X366635733Y-119598929D01*
X366755431Y-119635239D01*
X366879913Y-119647499D01*
X367844163Y-119644427D01*
X368002913Y-119485677D01*
X368002913Y-117886427D01*
X368256913Y-117886427D01*
X368256913Y-119485677D01*
X368415663Y-119644427D01*
X369379913Y-119647499D01*
X369504395Y-119635239D01*
X369624093Y-119598929D01*
X369734407Y-119539964D01*
X369831098Y-119460612D01*
X369910450Y-119363921D01*
X369969415Y-119253607D01*
X370005725Y-119133909D01*
X370017985Y-119009427D01*
X370014913Y-118045177D01*
X369856163Y-117886427D01*
X368256913Y-117886427D01*
X368002913Y-117886427D01*
X366403663Y-117886427D01*
X366244913Y-118045177D01*
X366241841Y-119009427D01*
X325478073Y-119009427D01*
X325475001Y-118045177D01*
X325316251Y-117886427D01*
X323717001Y-117886427D01*
X323463001Y-117886427D01*
X321863751Y-117886427D01*
X321705001Y-118045177D01*
X321701929Y-119009427D01*
X281117985Y-119009427D01*
X281114913Y-118045177D01*
X280956163Y-117886427D01*
X279356913Y-117886427D01*
X279102913Y-117886427D01*
X277503663Y-117886427D01*
X277344913Y-118045177D01*
X277341841Y-119009427D01*
X236667985Y-119009427D01*
X236664913Y-118045177D01*
X236506163Y-117886427D01*
X234906913Y-117886427D01*
X234652913Y-117886427D01*
X233053663Y-117886427D01*
X232894913Y-118045177D01*
X232891841Y-119009427D01*
X192217985Y-119009427D01*
X192214913Y-118045177D01*
X192056163Y-117886427D01*
X190456913Y-117886427D01*
X190202913Y-117886427D01*
X188603663Y-117886427D01*
X188444913Y-118045177D01*
X188441841Y-119009427D01*
X147767985Y-119009427D01*
X147764913Y-118045177D01*
X147606163Y-117886427D01*
X146006913Y-117886427D01*
X145752913Y-117886427D01*
X144153663Y-117886427D01*
X143994913Y-118045177D01*
X143991841Y-119009427D01*
X103314046Y-119009427D01*
X103305725Y-118924945D01*
X103269415Y-118805247D01*
X103210450Y-118694933D01*
X103131098Y-118598242D01*
X103034407Y-118518890D01*
X102924093Y-118459925D01*
X102804395Y-118423615D01*
X102679913Y-118411355D01*
X101715663Y-118414427D01*
X101556913Y-118573177D01*
X101302913Y-118573177D01*
X101144163Y-118414427D01*
X100179913Y-118411355D01*
X100055431Y-118423615D01*
X99935733Y-118459925D01*
X99825419Y-118518890D01*
X99728728Y-118598242D01*
X99649376Y-118694933D01*
X99590411Y-118805247D01*
X99554101Y-118924945D01*
X99541841Y-119049427D01*
X53786000Y-119049427D01*
X53786000Y-116509427D01*
X143991841Y-116509427D01*
X143994913Y-117473677D01*
X144153663Y-117632427D01*
X145752913Y-117632427D01*
X145752913Y-116033177D01*
X146006913Y-116033177D01*
X146006913Y-117632427D01*
X147606163Y-117632427D01*
X147764913Y-117473677D01*
X147767985Y-116509427D01*
X188441841Y-116509427D01*
X188444913Y-117473677D01*
X188603663Y-117632427D01*
X190202913Y-117632427D01*
X190202913Y-116033177D01*
X190456913Y-116033177D01*
X190456913Y-117632427D01*
X192056163Y-117632427D01*
X192214913Y-117473677D01*
X192217985Y-116509427D01*
X232891841Y-116509427D01*
X232894913Y-117473677D01*
X233053663Y-117632427D01*
X234652913Y-117632427D01*
X234652913Y-116033177D01*
X234906913Y-116033177D01*
X234906913Y-117632427D01*
X236506163Y-117632427D01*
X236664913Y-117473677D01*
X236667985Y-116509427D01*
X277341841Y-116509427D01*
X277344913Y-117473677D01*
X277503663Y-117632427D01*
X279102913Y-117632427D01*
X279102913Y-116033177D01*
X279356913Y-116033177D01*
X279356913Y-117632427D01*
X280956163Y-117632427D01*
X281114913Y-117473677D01*
X281117985Y-116509427D01*
X321701929Y-116509427D01*
X321705001Y-117473677D01*
X321863751Y-117632427D01*
X323463001Y-117632427D01*
X323463001Y-116033177D01*
X323717001Y-116033177D01*
X323717001Y-117632427D01*
X325316251Y-117632427D01*
X325475001Y-117473677D01*
X325478073Y-116509427D01*
X366241841Y-116509427D01*
X366244913Y-117473677D01*
X366403663Y-117632427D01*
X368002913Y-117632427D01*
X368002913Y-116033177D01*
X368256913Y-116033177D01*
X368256913Y-117632427D01*
X369856163Y-117632427D01*
X370014913Y-117473677D01*
X370017985Y-116509427D01*
X370005725Y-116384945D01*
X369969415Y-116265247D01*
X369910450Y-116154933D01*
X369831098Y-116058242D01*
X369734407Y-115978890D01*
X369624093Y-115919925D01*
X369504395Y-115883615D01*
X369379913Y-115871355D01*
X368415663Y-115874427D01*
X368256913Y-116033177D01*
X368002913Y-116033177D01*
X367844163Y-115874427D01*
X366879913Y-115871355D01*
X366755431Y-115883615D01*
X366635733Y-115919925D01*
X366525419Y-115978890D01*
X366428728Y-116058242D01*
X366349376Y-116154933D01*
X366290411Y-116265247D01*
X366254101Y-116384945D01*
X366241841Y-116509427D01*
X325478073Y-116509427D01*
X325465813Y-116384945D01*
X325429503Y-116265247D01*
X325370538Y-116154933D01*
X325291186Y-116058242D01*
X325194495Y-115978890D01*
X325084181Y-115919925D01*
X324964483Y-115883615D01*
X324840001Y-115871355D01*
X323875751Y-115874427D01*
X323717001Y-116033177D01*
X323463001Y-116033177D01*
X323304251Y-115874427D01*
X322340001Y-115871355D01*
X322215519Y-115883615D01*
X322095821Y-115919925D01*
X321985507Y-115978890D01*
X321888816Y-116058242D01*
X321809464Y-116154933D01*
X321750499Y-116265247D01*
X321714189Y-116384945D01*
X321701929Y-116509427D01*
X281117985Y-116509427D01*
X281105725Y-116384945D01*
X281069415Y-116265247D01*
X281010450Y-116154933D01*
X280931098Y-116058242D01*
X280834407Y-115978890D01*
X280724093Y-115919925D01*
X280604395Y-115883615D01*
X280479913Y-115871355D01*
X279515663Y-115874427D01*
X279356913Y-116033177D01*
X279102913Y-116033177D01*
X278944163Y-115874427D01*
X277979913Y-115871355D01*
X277855431Y-115883615D01*
X277735733Y-115919925D01*
X277625419Y-115978890D01*
X277528728Y-116058242D01*
X277449376Y-116154933D01*
X277390411Y-116265247D01*
X277354101Y-116384945D01*
X277341841Y-116509427D01*
X236667985Y-116509427D01*
X236655725Y-116384945D01*
X236619415Y-116265247D01*
X236560450Y-116154933D01*
X236481098Y-116058242D01*
X236384407Y-115978890D01*
X236274093Y-115919925D01*
X236154395Y-115883615D01*
X236029913Y-115871355D01*
X235065663Y-115874427D01*
X234906913Y-116033177D01*
X234652913Y-116033177D01*
X234494163Y-115874427D01*
X233529913Y-115871355D01*
X233405431Y-115883615D01*
X233285733Y-115919925D01*
X233175419Y-115978890D01*
X233078728Y-116058242D01*
X232999376Y-116154933D01*
X232940411Y-116265247D01*
X232904101Y-116384945D01*
X232891841Y-116509427D01*
X192217985Y-116509427D01*
X192205725Y-116384945D01*
X192169415Y-116265247D01*
X192110450Y-116154933D01*
X192031098Y-116058242D01*
X191934407Y-115978890D01*
X191824093Y-115919925D01*
X191704395Y-115883615D01*
X191579913Y-115871355D01*
X190615663Y-115874427D01*
X190456913Y-116033177D01*
X190202913Y-116033177D01*
X190044163Y-115874427D01*
X189079913Y-115871355D01*
X188955431Y-115883615D01*
X188835733Y-115919925D01*
X188725419Y-115978890D01*
X188628728Y-116058242D01*
X188549376Y-116154933D01*
X188490411Y-116265247D01*
X188454101Y-116384945D01*
X188441841Y-116509427D01*
X147767985Y-116509427D01*
X147755725Y-116384945D01*
X147719415Y-116265247D01*
X147660450Y-116154933D01*
X147581098Y-116058242D01*
X147484407Y-115978890D01*
X147374093Y-115919925D01*
X147254395Y-115883615D01*
X147129913Y-115871355D01*
X146165663Y-115874427D01*
X146006913Y-116033177D01*
X145752913Y-116033177D01*
X145594163Y-115874427D01*
X144629913Y-115871355D01*
X144505431Y-115883615D01*
X144385733Y-115919925D01*
X144275419Y-115978890D01*
X144178728Y-116058242D01*
X144099376Y-116154933D01*
X144040411Y-116265247D01*
X144004101Y-116384945D01*
X143991841Y-116509427D01*
X53786000Y-116509427D01*
X53786000Y-105256873D01*
X54702332Y-105256873D01*
X54702332Y-105551927D01*
X54759894Y-105841312D01*
X54872806Y-106113907D01*
X55036730Y-106359235D01*
X55245365Y-106567870D01*
X55490693Y-106731794D01*
X55763288Y-106844706D01*
X56052673Y-106902268D01*
X56347727Y-106902268D01*
X56637112Y-106844706D01*
X56909707Y-106731794D01*
X57155035Y-106567870D01*
X57363670Y-106359235D01*
X57527594Y-106113907D01*
X57640506Y-105841312D01*
X57698068Y-105551927D01*
X57698068Y-105256873D01*
X57640506Y-104967488D01*
X57527594Y-104694893D01*
X57363670Y-104449565D01*
X57155035Y-104240930D01*
X56909707Y-104077006D01*
X56637112Y-103964094D01*
X56347727Y-103906532D01*
X56052673Y-103906532D01*
X55763288Y-103964094D01*
X55490693Y-104077006D01*
X55245365Y-104240930D01*
X55036730Y-104449565D01*
X54872806Y-104694893D01*
X54759894Y-104967488D01*
X54702332Y-105256873D01*
X53786000Y-105256873D01*
X53786000Y-101898142D01*
X62368819Y-101899857D01*
X62360058Y-107164533D01*
X62356565Y-107200000D01*
X62363379Y-107269188D01*
X62370043Y-107338019D01*
X62370214Y-107338587D01*
X62370273Y-107339184D01*
X62390520Y-107405928D01*
X62410419Y-107471922D01*
X62410698Y-107472446D01*
X62410872Y-107473020D01*
X62443777Y-107534581D01*
X62476142Y-107595375D01*
X62476517Y-107595833D01*
X62476800Y-107596363D01*
X62521153Y-107650408D01*
X62564687Y-107703634D01*
X62565143Y-107704009D01*
X62565525Y-107704475D01*
X62619580Y-107748836D01*
X62672651Y-107792539D01*
X62673173Y-107792819D01*
X62673637Y-107793200D01*
X62735237Y-107826126D01*
X62795884Y-107858672D01*
X62796450Y-107858845D01*
X62796980Y-107859128D01*
X62863710Y-107879370D01*
X62929652Y-107899494D01*
X62930243Y-107899553D01*
X62930816Y-107899727D01*
X62999953Y-107906536D01*
X63068813Y-107913434D01*
X63104283Y-107910000D01*
X74045123Y-107910000D01*
X74080000Y-107913435D01*
X74114877Y-107910000D01*
X74219184Y-107899727D01*
X74353020Y-107859128D01*
X74476363Y-107793200D01*
X74584475Y-107704475D01*
X74673200Y-107596363D01*
X74739128Y-107473020D01*
X74779727Y-107339184D01*
X74793435Y-107200000D01*
X74790000Y-107165123D01*
X74790000Y-105269603D01*
X120691842Y-105269603D01*
X120691842Y-105564597D01*
X120749392Y-105853922D01*
X120862281Y-106126460D01*
X121026171Y-106371738D01*
X121234762Y-106580329D01*
X121480040Y-106744219D01*
X121752578Y-106857108D01*
X122041903Y-106914658D01*
X122336897Y-106914658D01*
X122626222Y-106857108D01*
X122898760Y-106744219D01*
X123144038Y-106580329D01*
X123352629Y-106371738D01*
X123516519Y-106126460D01*
X123629408Y-105853922D01*
X123686958Y-105564597D01*
X123686958Y-105269603D01*
X123684426Y-105256873D01*
X263426832Y-105256873D01*
X263426832Y-105551927D01*
X263484394Y-105841312D01*
X263597306Y-106113907D01*
X263761230Y-106359235D01*
X263969865Y-106567870D01*
X264215193Y-106731794D01*
X264487788Y-106844706D01*
X264777173Y-106902268D01*
X265072227Y-106902268D01*
X265361612Y-106844706D01*
X265634207Y-106731794D01*
X265879535Y-106567870D01*
X266088170Y-106359235D01*
X266252094Y-106113907D01*
X266365006Y-105841312D01*
X266422568Y-105551927D01*
X266422568Y-105256873D01*
X266365006Y-104967488D01*
X266252094Y-104694893D01*
X266088170Y-104449565D01*
X265879535Y-104240930D01*
X265634207Y-104077006D01*
X265361612Y-103964094D01*
X265072227Y-103906532D01*
X264777173Y-103906532D01*
X264487788Y-103964094D01*
X264215193Y-104077006D01*
X263969865Y-104240930D01*
X263761230Y-104449565D01*
X263597306Y-104694893D01*
X263484394Y-104967488D01*
X263426832Y-105256873D01*
X123684426Y-105256873D01*
X123629408Y-104980278D01*
X123516519Y-104707740D01*
X123352629Y-104462462D01*
X123144038Y-104253871D01*
X122898760Y-104089981D01*
X122626222Y-103977092D01*
X122336897Y-103919542D01*
X122041903Y-103919542D01*
X121752578Y-103977092D01*
X121480040Y-104089981D01*
X121234762Y-104253871D01*
X121026171Y-104462462D01*
X120862281Y-104707740D01*
X120749392Y-104980278D01*
X120691842Y-105269603D01*
X74790000Y-105269603D01*
X74790000Y-101890019D01*
X373253000Y-101897974D01*
G04 #@! TA.AperFunction,Conductor*
D14*
G36*
X373253000Y-101897974D02*
G01*
X373253000Y-182753000D01*
X53664604Y-182753000D01*
X53676838Y-179767773D01*
X54689632Y-179767773D01*
X54689632Y-180062827D01*
X54747194Y-180352212D01*
X54860106Y-180624807D01*
X55024030Y-180870135D01*
X55232665Y-181078770D01*
X55477993Y-181242694D01*
X55750588Y-181355606D01*
X56039973Y-181413168D01*
X56335027Y-181413168D01*
X56624412Y-181355606D01*
X56897007Y-181242694D01*
X57142335Y-181078770D01*
X57350970Y-180870135D01*
X57514894Y-180624807D01*
X57627806Y-180352212D01*
X57685368Y-180062827D01*
X57685368Y-179780473D01*
X120653432Y-179780473D01*
X120653432Y-180075527D01*
X120710994Y-180364912D01*
X120823906Y-180637507D01*
X120987830Y-180882835D01*
X121196465Y-181091470D01*
X121441793Y-181255394D01*
X121714388Y-181368306D01*
X122003773Y-181425868D01*
X122298827Y-181425868D01*
X122588212Y-181368306D01*
X122860807Y-181255394D01*
X123106135Y-181091470D01*
X123314770Y-180882835D01*
X123478694Y-180637507D01*
X123591606Y-180364912D01*
X123649168Y-180075527D01*
X123649168Y-179780473D01*
X123591606Y-179491088D01*
X123478694Y-179218493D01*
X123314770Y-178973165D01*
X123106135Y-178764530D01*
X122860807Y-178600606D01*
X122588212Y-178487694D01*
X122298827Y-178430132D01*
X122003773Y-178430132D01*
X121714388Y-178487694D01*
X121441793Y-178600606D01*
X121196465Y-178764530D01*
X120987830Y-178973165D01*
X120823906Y-179218493D01*
X120710994Y-179491088D01*
X120653432Y-179780473D01*
X57685368Y-179780473D01*
X57685368Y-179767773D01*
X57627806Y-179478388D01*
X57514894Y-179205793D01*
X57350970Y-178960465D01*
X57142335Y-178751830D01*
X56897007Y-178587906D01*
X56624412Y-178474994D01*
X56335027Y-178417432D01*
X56039973Y-178417432D01*
X55750588Y-178474994D01*
X55477993Y-178587906D01*
X55232665Y-178751830D01*
X55024030Y-178960465D01*
X54860106Y-179205793D01*
X54747194Y-179478388D01*
X54689632Y-179767773D01*
X53676838Y-179767773D01*
X53714618Y-170549427D01*
X99541841Y-170549427D01*
X99554101Y-170673909D01*
X99590411Y-170793607D01*
X99649376Y-170903921D01*
X99728728Y-171000612D01*
X99825419Y-171079964D01*
X99935733Y-171138929D01*
X100055431Y-171175239D01*
X100179913Y-171187499D01*
X101144163Y-171184427D01*
X101302913Y-171025677D01*
X101302913Y-169426427D01*
X101556913Y-169426427D01*
X101556913Y-171025677D01*
X101715663Y-171184427D01*
X102679913Y-171187499D01*
X102804395Y-171175239D01*
X102924093Y-171138929D01*
X103034407Y-171079964D01*
X103131098Y-171000612D01*
X103210450Y-170903921D01*
X103269415Y-170793607D01*
X103305725Y-170673909D01*
X103317985Y-170549427D01*
X103314913Y-169585177D01*
X103156163Y-169426427D01*
X101556913Y-169426427D01*
X101302913Y-169426427D01*
X99703663Y-169426427D01*
X99544913Y-169585177D01*
X99541841Y-170549427D01*
X53714618Y-170549427D01*
X53724863Y-168049427D01*
X99541841Y-168049427D01*
X99544913Y-169013677D01*
X99703663Y-169172427D01*
X101302913Y-169172427D01*
X101302913Y-167573177D01*
X101556913Y-167573177D01*
X101556913Y-169172427D01*
X103156163Y-169172427D01*
X103314913Y-169013677D01*
X103317985Y-168049427D01*
X103305725Y-167924945D01*
X103269415Y-167805247D01*
X103210450Y-167694933D01*
X103131098Y-167598242D01*
X103034407Y-167518890D01*
X102924093Y-167459925D01*
X102804395Y-167423615D01*
X102679913Y-167411355D01*
X101715663Y-167414427D01*
X101556913Y-167573177D01*
X101302913Y-167573177D01*
X101144163Y-167414427D01*
X100179913Y-167411355D01*
X100055431Y-167423615D01*
X99935733Y-167459925D01*
X99825419Y-167518890D01*
X99728728Y-167598242D01*
X99649376Y-167694933D01*
X99590411Y-167805247D01*
X99554101Y-167924945D01*
X99541841Y-168049427D01*
X53724863Y-168049427D01*
X53735109Y-165549427D01*
X99541841Y-165549427D01*
X99554101Y-165673909D01*
X99590411Y-165793607D01*
X99649376Y-165903921D01*
X99728728Y-166000612D01*
X99825419Y-166079964D01*
X99935733Y-166138929D01*
X100055431Y-166175239D01*
X100179913Y-166187499D01*
X101144163Y-166184427D01*
X101302913Y-166025677D01*
X101302913Y-164426427D01*
X101556913Y-164426427D01*
X101556913Y-166025677D01*
X101715663Y-166184427D01*
X102679913Y-166187499D01*
X102804395Y-166175239D01*
X102924093Y-166138929D01*
X103034407Y-166079964D01*
X103131098Y-166000612D01*
X103210450Y-165903921D01*
X103269415Y-165793607D01*
X103305725Y-165673909D01*
X103317985Y-165549427D01*
X103314913Y-164585177D01*
X103156163Y-164426427D01*
X101556913Y-164426427D01*
X101302913Y-164426427D01*
X99703663Y-164426427D01*
X99544913Y-164585177D01*
X99541841Y-165549427D01*
X53735109Y-165549427D01*
X53745355Y-163049427D01*
X99541841Y-163049427D01*
X99544913Y-164013677D01*
X99703663Y-164172427D01*
X101302913Y-164172427D01*
X101302913Y-162573177D01*
X101556913Y-162573177D01*
X101556913Y-164172427D01*
X103156163Y-164172427D01*
X103314913Y-164013677D01*
X103317985Y-163049427D01*
X103305725Y-162924945D01*
X103269415Y-162805247D01*
X103210450Y-162694933D01*
X103131098Y-162598242D01*
X103034407Y-162518890D01*
X102924093Y-162459925D01*
X102804395Y-162423615D01*
X102679913Y-162411355D01*
X101715663Y-162414427D01*
X101556913Y-162573177D01*
X101302913Y-162573177D01*
X101144163Y-162414427D01*
X100179913Y-162411355D01*
X100055431Y-162423615D01*
X99935733Y-162459925D01*
X99825419Y-162518890D01*
X99728728Y-162598242D01*
X99649376Y-162694933D01*
X99590411Y-162805247D01*
X99554101Y-162924945D01*
X99541841Y-163049427D01*
X53745355Y-163049427D01*
X53783095Y-153841000D01*
X57428877Y-153841000D01*
X57459945Y-153837940D01*
X57472534Y-153838028D01*
X57482400Y-153837061D01*
X57876804Y-153795608D01*
X57939848Y-153782667D01*
X58003052Y-153770610D01*
X58012542Y-153767745D01*
X58391385Y-153650474D01*
X58450694Y-153625542D01*
X58510373Y-153601430D01*
X58519126Y-153596776D01*
X58867974Y-153408154D01*
X58921291Y-153372191D01*
X58975168Y-153336935D01*
X58982850Y-153330669D01*
X59288418Y-153077882D01*
X59333754Y-153032229D01*
X59379740Y-152987196D01*
X59386059Y-152979558D01*
X59636707Y-152672232D01*
X59672313Y-152618641D01*
X59708674Y-152565537D01*
X59713389Y-152556817D01*
X59899570Y-152206661D01*
X59924083Y-152147187D01*
X59949444Y-152088017D01*
X59952375Y-152078547D01*
X60066998Y-151698896D01*
X60079493Y-151635791D01*
X60092876Y-151572827D01*
X60093912Y-151562968D01*
X60132612Y-151168283D01*
X60132612Y-151168277D01*
X60136000Y-151133877D01*
X60136000Y-141649427D01*
X99541841Y-141649427D01*
X99541841Y-144149427D01*
X99554101Y-144273909D01*
X99590411Y-144393607D01*
X99649376Y-144503921D01*
X99728728Y-144600612D01*
X99825419Y-144679964D01*
X99935733Y-144738929D01*
X100055431Y-144775239D01*
X100179913Y-144787499D01*
X102422699Y-144787499D01*
X102198843Y-145011355D01*
X100179913Y-145011355D01*
X100055431Y-145023615D01*
X99935733Y-145059925D01*
X99825419Y-145118890D01*
X99728728Y-145198242D01*
X99649376Y-145294933D01*
X99590411Y-145405247D01*
X99554101Y-145524945D01*
X99541841Y-145649427D01*
X99541841Y-148149427D01*
X99554101Y-148273909D01*
X99590411Y-148393607D01*
X99649376Y-148503921D01*
X99728728Y-148600612D01*
X99825419Y-148679964D01*
X99935733Y-148738929D01*
X100055431Y-148775239D01*
X100179913Y-148787499D01*
X102679913Y-148787499D01*
X102804395Y-148775239D01*
X102924093Y-148738929D01*
X103034407Y-148679964D01*
X103131098Y-148600612D01*
X103210450Y-148503921D01*
X103269415Y-148393607D01*
X103305725Y-148273909D01*
X103317985Y-148149427D01*
X103317985Y-146041817D01*
X103544802Y-145815000D01*
X103606939Y-145815000D01*
X103806898Y-145775226D01*
X103995256Y-145697205D01*
X104164774Y-145583937D01*
X104308937Y-145439774D01*
X104422205Y-145270256D01*
X104500226Y-145081898D01*
X104540000Y-144881939D01*
X104540000Y-144678061D01*
X104500226Y-144478102D01*
X104422205Y-144289744D01*
X104308937Y-144120226D01*
X104164774Y-143976063D01*
X103995256Y-143862795D01*
X103806898Y-143784774D01*
X103606939Y-143745000D01*
X103544802Y-143745000D01*
X103317985Y-143518183D01*
X103317985Y-141649427D01*
X103305725Y-141524945D01*
X103269415Y-141405247D01*
X103210450Y-141294933D01*
X103131098Y-141198242D01*
X103034407Y-141118890D01*
X102924093Y-141059925D01*
X102804395Y-141023615D01*
X102679913Y-141011355D01*
X100179913Y-141011355D01*
X100055431Y-141023615D01*
X99935733Y-141059925D01*
X99825419Y-141118890D01*
X99728728Y-141198242D01*
X99649376Y-141294933D01*
X99590411Y-141405247D01*
X99554101Y-141524945D01*
X99541841Y-141649427D01*
X60136000Y-141649427D01*
X60136000Y-137693061D01*
X102470000Y-137693061D01*
X102470000Y-137896939D01*
X102509774Y-138096898D01*
X102587795Y-138285256D01*
X102701063Y-138454774D01*
X102845226Y-138598937D01*
X103014744Y-138712205D01*
X103203102Y-138790226D01*
X103403061Y-138830000D01*
X103465199Y-138830000D01*
X139612501Y-174977303D01*
X139612500Y-179512155D01*
X139505208Y-179600208D01*
X139395542Y-179733836D01*
X139314053Y-179886291D01*
X139263872Y-180051715D01*
X139246928Y-180223750D01*
X139246928Y-181136250D01*
X139263872Y-181308285D01*
X139314053Y-181473709D01*
X139395542Y-181626164D01*
X139505208Y-181759792D01*
X139638836Y-181869458D01*
X139791291Y-181950947D01*
X139956715Y-182001128D01*
X140128750Y-182018072D01*
X140616250Y-182018072D01*
X140788285Y-182001128D01*
X140953709Y-181950947D01*
X141106164Y-181869458D01*
X141239792Y-181759792D01*
X141310000Y-181674244D01*
X141380208Y-181759792D01*
X141513836Y-181869458D01*
X141666291Y-181950947D01*
X141831715Y-182001128D01*
X142003750Y-182018072D01*
X142491250Y-182018072D01*
X142663285Y-182001128D01*
X142828709Y-181950947D01*
X142981164Y-181869458D01*
X143114792Y-181759792D01*
X143224458Y-181626164D01*
X143305947Y-181473709D01*
X143356128Y-181308285D01*
X143373072Y-181136250D01*
X143373072Y-180223750D01*
X143356128Y-180051715D01*
X143305947Y-179886291D01*
X143249370Y-179780442D01*
X263413821Y-179780442D01*
X263413821Y-180075558D01*
X263471395Y-180365003D01*
X263584331Y-180637654D01*
X263748288Y-180883033D01*
X263956967Y-181091712D01*
X264202346Y-181255669D01*
X264474997Y-181368605D01*
X264764442Y-181426179D01*
X265059558Y-181426179D01*
X265349003Y-181368605D01*
X265621654Y-181255669D01*
X265867033Y-181091712D01*
X266075712Y-180883033D01*
X266239669Y-180637654D01*
X266352605Y-180365003D01*
X266410179Y-180075558D01*
X266410179Y-179780442D01*
X266352605Y-179490997D01*
X266239669Y-179218346D01*
X266075712Y-178972967D01*
X265867033Y-178764288D01*
X265621654Y-178600331D01*
X265349003Y-178487395D01*
X265059558Y-178429821D01*
X264764442Y-178429821D01*
X264474997Y-178487395D01*
X264202346Y-178600331D01*
X263956967Y-178764288D01*
X263748288Y-178972967D01*
X263584331Y-179218346D01*
X263471395Y-179490997D01*
X263413821Y-179780442D01*
X143249370Y-179780442D01*
X143224458Y-179733836D01*
X143114792Y-179600208D01*
X143007500Y-179512155D01*
X143007500Y-174686211D01*
X143043937Y-174649774D01*
X143157205Y-174480256D01*
X143235226Y-174291898D01*
X143275000Y-174091939D01*
X143275000Y-173888061D01*
X143235226Y-173688102D01*
X143157205Y-173499744D01*
X143043937Y-173330226D01*
X142899774Y-173186063D01*
X142730256Y-173072795D01*
X142541898Y-172994774D01*
X142341939Y-172955000D01*
X142138061Y-172955000D01*
X141938102Y-172994774D01*
X141749744Y-173072795D01*
X141580226Y-173186063D01*
X141436063Y-173330226D01*
X141322795Y-173499744D01*
X141244774Y-173688102D01*
X141205000Y-173888061D01*
X141205000Y-174091939D01*
X141244774Y-174291898D01*
X141322795Y-174480256D01*
X141436063Y-174649774D01*
X141487501Y-174701212D01*
X141487500Y-179512155D01*
X141380208Y-179600208D01*
X141310000Y-179685756D01*
X141239792Y-179600208D01*
X141132500Y-179512155D01*
X141132500Y-174699833D01*
X141136177Y-174662500D01*
X141121503Y-174513514D01*
X141078046Y-174370253D01*
X141007474Y-174238224D01*
X140936299Y-174151497D01*
X140912501Y-174122499D01*
X140883503Y-174098701D01*
X134794229Y-168009427D01*
X143991841Y-168009427D01*
X144004101Y-168133909D01*
X144040411Y-168253607D01*
X144099376Y-168363921D01*
X144178728Y-168460612D01*
X144275419Y-168539964D01*
X144385733Y-168598929D01*
X144505431Y-168635239D01*
X144629913Y-168647499D01*
X145594163Y-168644427D01*
X145752913Y-168485677D01*
X145752913Y-166886427D01*
X146006913Y-166886427D01*
X146006913Y-168485677D01*
X146165663Y-168644427D01*
X147129913Y-168647499D01*
X147254395Y-168635239D01*
X147374093Y-168598929D01*
X147484407Y-168539964D01*
X147581098Y-168460612D01*
X147660450Y-168363921D01*
X147719415Y-168253607D01*
X147755725Y-168133909D01*
X147767985Y-168009427D01*
X188441841Y-168009427D01*
X188454101Y-168133909D01*
X188490411Y-168253607D01*
X188549376Y-168363921D01*
X188628728Y-168460612D01*
X188725419Y-168539964D01*
X188835733Y-168598929D01*
X188955431Y-168635239D01*
X189079913Y-168647499D01*
X190044163Y-168644427D01*
X190202913Y-168485677D01*
X190202913Y-166886427D01*
X190456913Y-166886427D01*
X190456913Y-168485677D01*
X190615663Y-168644427D01*
X191579913Y-168647499D01*
X191704395Y-168635239D01*
X191824093Y-168598929D01*
X191934407Y-168539964D01*
X192031098Y-168460612D01*
X192110450Y-168363921D01*
X192169415Y-168253607D01*
X192205725Y-168133909D01*
X192217985Y-168009427D01*
X232891841Y-168009427D01*
X232904101Y-168133909D01*
X232940411Y-168253607D01*
X232999376Y-168363921D01*
X233078728Y-168460612D01*
X233175419Y-168539964D01*
X233285733Y-168598929D01*
X233405431Y-168635239D01*
X233529913Y-168647499D01*
X234494163Y-168644427D01*
X234652913Y-168485677D01*
X234652913Y-166886427D01*
X234906913Y-166886427D01*
X234906913Y-168485677D01*
X235065663Y-168644427D01*
X236029913Y-168647499D01*
X236154395Y-168635239D01*
X236274093Y-168598929D01*
X236384407Y-168539964D01*
X236481098Y-168460612D01*
X236560450Y-168363921D01*
X236619415Y-168253607D01*
X236655725Y-168133909D01*
X236667985Y-168009427D01*
X277341841Y-168009427D01*
X277354101Y-168133909D01*
X277390411Y-168253607D01*
X277449376Y-168363921D01*
X277528728Y-168460612D01*
X277625419Y-168539964D01*
X277735733Y-168598929D01*
X277855431Y-168635239D01*
X277979913Y-168647499D01*
X278944163Y-168644427D01*
X279102913Y-168485677D01*
X279102913Y-166886427D01*
X279356913Y-166886427D01*
X279356913Y-168485677D01*
X279515663Y-168644427D01*
X280479913Y-168647499D01*
X280604395Y-168635239D01*
X280724093Y-168598929D01*
X280834407Y-168539964D01*
X280931098Y-168460612D01*
X281010450Y-168363921D01*
X281069415Y-168253607D01*
X281105725Y-168133909D01*
X281117985Y-168009427D01*
X321701929Y-168009427D01*
X321714189Y-168133909D01*
X321750499Y-168253607D01*
X321809464Y-168363921D01*
X321888816Y-168460612D01*
X321985507Y-168539964D01*
X322095821Y-168598929D01*
X322215519Y-168635239D01*
X322340001Y-168647499D01*
X323304251Y-168644427D01*
X323463001Y-168485677D01*
X323463001Y-166886427D01*
X323717001Y-166886427D01*
X323717001Y-168485677D01*
X323875751Y-168644427D01*
X324840001Y-168647499D01*
X324964483Y-168635239D01*
X325084181Y-168598929D01*
X325194495Y-168539964D01*
X325291186Y-168460612D01*
X325370538Y-168363921D01*
X325429503Y-168253607D01*
X325465813Y-168133909D01*
X325478073Y-168009427D01*
X366241841Y-168009427D01*
X366254101Y-168133909D01*
X366290411Y-168253607D01*
X366349376Y-168363921D01*
X366428728Y-168460612D01*
X366525419Y-168539964D01*
X366635733Y-168598929D01*
X366755431Y-168635239D01*
X366879913Y-168647499D01*
X367844163Y-168644427D01*
X368002913Y-168485677D01*
X368002913Y-166886427D01*
X368256913Y-166886427D01*
X368256913Y-168485677D01*
X368415663Y-168644427D01*
X369379913Y-168647499D01*
X369504395Y-168635239D01*
X369624093Y-168598929D01*
X369734407Y-168539964D01*
X369831098Y-168460612D01*
X369910450Y-168363921D01*
X369969415Y-168253607D01*
X370005725Y-168133909D01*
X370017985Y-168009427D01*
X370014913Y-167045177D01*
X369856163Y-166886427D01*
X368256913Y-166886427D01*
X368002913Y-166886427D01*
X366403663Y-166886427D01*
X366244913Y-167045177D01*
X366241841Y-168009427D01*
X325478073Y-168009427D01*
X325475001Y-167045177D01*
X325316251Y-166886427D01*
X323717001Y-166886427D01*
X323463001Y-166886427D01*
X321863751Y-166886427D01*
X321705001Y-167045177D01*
X321701929Y-168009427D01*
X281117985Y-168009427D01*
X281114913Y-167045177D01*
X280956163Y-166886427D01*
X279356913Y-166886427D01*
X279102913Y-166886427D01*
X277503663Y-166886427D01*
X277344913Y-167045177D01*
X277341841Y-168009427D01*
X236667985Y-168009427D01*
X236664913Y-167045177D01*
X236506163Y-166886427D01*
X234906913Y-166886427D01*
X234652913Y-166886427D01*
X233053663Y-166886427D01*
X232894913Y-167045177D01*
X232891841Y-168009427D01*
X192217985Y-168009427D01*
X192214913Y-167045177D01*
X192056163Y-166886427D01*
X190456913Y-166886427D01*
X190202913Y-166886427D01*
X188603663Y-166886427D01*
X188444913Y-167045177D01*
X188441841Y-168009427D01*
X147767985Y-168009427D01*
X147764913Y-167045177D01*
X147606163Y-166886427D01*
X146006913Y-166886427D01*
X145752913Y-166886427D01*
X144153663Y-166886427D01*
X143994913Y-167045177D01*
X143991841Y-168009427D01*
X134794229Y-168009427D01*
X132294229Y-165509427D01*
X143991841Y-165509427D01*
X143994913Y-166473677D01*
X144153663Y-166632427D01*
X145752913Y-166632427D01*
X145752913Y-165033177D01*
X146006913Y-165033177D01*
X146006913Y-166632427D01*
X147606163Y-166632427D01*
X147764913Y-166473677D01*
X147767985Y-165509427D01*
X188441841Y-165509427D01*
X188444913Y-166473677D01*
X188603663Y-166632427D01*
X190202913Y-166632427D01*
X190202913Y-165033177D01*
X190456913Y-165033177D01*
X190456913Y-166632427D01*
X192056163Y-166632427D01*
X192214913Y-166473677D01*
X192217985Y-165509427D01*
X232891841Y-165509427D01*
X232894913Y-166473677D01*
X233053663Y-166632427D01*
X234652913Y-166632427D01*
X234652913Y-165033177D01*
X234906913Y-165033177D01*
X234906913Y-166632427D01*
X236506163Y-166632427D01*
X236664913Y-166473677D01*
X236667985Y-165509427D01*
X277341841Y-165509427D01*
X277344913Y-166473677D01*
X277503663Y-166632427D01*
X279102913Y-166632427D01*
X279102913Y-165033177D01*
X279356913Y-165033177D01*
X279356913Y-166632427D01*
X280956163Y-166632427D01*
X281114913Y-166473677D01*
X281117985Y-165509427D01*
X321701929Y-165509427D01*
X321705001Y-166473677D01*
X321863751Y-166632427D01*
X323463001Y-166632427D01*
X323463001Y-165033177D01*
X323717001Y-165033177D01*
X323717001Y-166632427D01*
X325316251Y-166632427D01*
X325475001Y-166473677D01*
X325478073Y-165509427D01*
X366241841Y-165509427D01*
X366244913Y-166473677D01*
X366403663Y-166632427D01*
X368002913Y-166632427D01*
X368002913Y-165033177D01*
X368256913Y-165033177D01*
X368256913Y-166632427D01*
X369856163Y-166632427D01*
X370014913Y-166473677D01*
X370017985Y-165509427D01*
X370005725Y-165384945D01*
X369969415Y-165265247D01*
X369910450Y-165154933D01*
X369831098Y-165058242D01*
X369734407Y-164978890D01*
X369624093Y-164919925D01*
X369504395Y-164883615D01*
X369379913Y-164871355D01*
X368415663Y-164874427D01*
X368256913Y-165033177D01*
X368002913Y-165033177D01*
X367844163Y-164874427D01*
X366879913Y-164871355D01*
X366755431Y-164883615D01*
X366635733Y-164919925D01*
X366525419Y-164978890D01*
X366428728Y-165058242D01*
X366349376Y-165154933D01*
X366290411Y-165265247D01*
X366254101Y-165384945D01*
X366241841Y-165509427D01*
X325478073Y-165509427D01*
X325465813Y-165384945D01*
X325429503Y-165265247D01*
X325370538Y-165154933D01*
X325291186Y-165058242D01*
X325194495Y-164978890D01*
X325084181Y-164919925D01*
X324964483Y-164883615D01*
X324840001Y-164871355D01*
X323875751Y-164874427D01*
X323717001Y-165033177D01*
X323463001Y-165033177D01*
X323304251Y-164874427D01*
X322340001Y-164871355D01*
X322215519Y-164883615D01*
X322095821Y-164919925D01*
X321985507Y-164978890D01*
X321888816Y-165058242D01*
X321809464Y-165154933D01*
X321750499Y-165265247D01*
X321714189Y-165384945D01*
X321701929Y-165509427D01*
X281117985Y-165509427D01*
X281105725Y-165384945D01*
X281069415Y-165265247D01*
X281010450Y-165154933D01*
X280931098Y-165058242D01*
X280834407Y-164978890D01*
X280724093Y-164919925D01*
X280604395Y-164883615D01*
X280479913Y-164871355D01*
X279515663Y-164874427D01*
X279356913Y-165033177D01*
X279102913Y-165033177D01*
X278944163Y-164874427D01*
X277979913Y-164871355D01*
X277855431Y-164883615D01*
X277735733Y-164919925D01*
X277625419Y-164978890D01*
X277528728Y-165058242D01*
X277449376Y-165154933D01*
X277390411Y-165265247D01*
X277354101Y-165384945D01*
X277341841Y-165509427D01*
X236667985Y-165509427D01*
X236655725Y-165384945D01*
X236619415Y-165265247D01*
X236560450Y-165154933D01*
X236481098Y-165058242D01*
X236384407Y-164978890D01*
X236274093Y-164919925D01*
X236154395Y-164883615D01*
X236029913Y-164871355D01*
X235065663Y-164874427D01*
X234906913Y-165033177D01*
X234652913Y-165033177D01*
X234494163Y-164874427D01*
X233529913Y-164871355D01*
X233405431Y-164883615D01*
X233285733Y-164919925D01*
X233175419Y-164978890D01*
X233078728Y-165058242D01*
X232999376Y-165154933D01*
X232940411Y-165265247D01*
X232904101Y-165384945D01*
X232891841Y-165509427D01*
X192217985Y-165509427D01*
X192205725Y-165384945D01*
X192169415Y-165265247D01*
X192110450Y-165154933D01*
X192031098Y-165058242D01*
X191934407Y-164978890D01*
X191824093Y-164919925D01*
X191704395Y-164883615D01*
X191579913Y-164871355D01*
X190615663Y-164874427D01*
X190456913Y-165033177D01*
X190202913Y-165033177D01*
X190044163Y-164874427D01*
X189079913Y-164871355D01*
X188955431Y-164883615D01*
X188835733Y-164919925D01*
X188725419Y-164978890D01*
X188628728Y-165058242D01*
X188549376Y-165154933D01*
X188490411Y-165265247D01*
X188454101Y-165384945D01*
X188441841Y-165509427D01*
X147767985Y-165509427D01*
X147755725Y-165384945D01*
X147719415Y-165265247D01*
X147660450Y-165154933D01*
X147581098Y-165058242D01*
X147484407Y-164978890D01*
X147374093Y-164919925D01*
X147254395Y-164883615D01*
X147129913Y-164871355D01*
X146165663Y-164874427D01*
X146006913Y-165033177D01*
X145752913Y-165033177D01*
X145594163Y-164874427D01*
X144629913Y-164871355D01*
X144505431Y-164883615D01*
X144385733Y-164919925D01*
X144275419Y-164978890D01*
X144178728Y-165058242D01*
X144099376Y-165154933D01*
X144040411Y-165265247D01*
X144004101Y-165384945D01*
X143991841Y-165509427D01*
X132294229Y-165509427D01*
X129794229Y-163009427D01*
X143991841Y-163009427D01*
X144004101Y-163133909D01*
X144040411Y-163253607D01*
X144099376Y-163363921D01*
X144178728Y-163460612D01*
X144275419Y-163539964D01*
X144385733Y-163598929D01*
X144505431Y-163635239D01*
X144629913Y-163647499D01*
X145594163Y-163644427D01*
X145752913Y-163485677D01*
X145752913Y-161886427D01*
X146006913Y-161886427D01*
X146006913Y-163485677D01*
X146165663Y-163644427D01*
X147129913Y-163647499D01*
X147254395Y-163635239D01*
X147374093Y-163598929D01*
X147484407Y-163539964D01*
X147581098Y-163460612D01*
X147660450Y-163363921D01*
X147719415Y-163253607D01*
X147755725Y-163133909D01*
X147767985Y-163009427D01*
X188441841Y-163009427D01*
X188454101Y-163133909D01*
X188490411Y-163253607D01*
X188549376Y-163363921D01*
X188628728Y-163460612D01*
X188725419Y-163539964D01*
X188835733Y-163598929D01*
X188955431Y-163635239D01*
X189079913Y-163647499D01*
X190044163Y-163644427D01*
X190202913Y-163485677D01*
X190202913Y-161886427D01*
X190456913Y-161886427D01*
X190456913Y-163485677D01*
X190615663Y-163644427D01*
X191579913Y-163647499D01*
X191704395Y-163635239D01*
X191824093Y-163598929D01*
X191934407Y-163539964D01*
X192031098Y-163460612D01*
X192110450Y-163363921D01*
X192169415Y-163253607D01*
X192205725Y-163133909D01*
X192217985Y-163009427D01*
X232891841Y-163009427D01*
X232904101Y-163133909D01*
X232940411Y-163253607D01*
X232999376Y-163363921D01*
X233078728Y-163460612D01*
X233175419Y-163539964D01*
X233285733Y-163598929D01*
X233405431Y-163635239D01*
X233529913Y-163647499D01*
X234494163Y-163644427D01*
X234652913Y-163485677D01*
X234652913Y-161886427D01*
X234906913Y-161886427D01*
X234906913Y-163485677D01*
X235065663Y-163644427D01*
X236029913Y-163647499D01*
X236154395Y-163635239D01*
X236274093Y-163598929D01*
X236384407Y-163539964D01*
X236481098Y-163460612D01*
X236560450Y-163363921D01*
X236619415Y-163253607D01*
X236655725Y-163133909D01*
X236667985Y-163009427D01*
X277341841Y-163009427D01*
X277354101Y-163133909D01*
X277390411Y-163253607D01*
X277449376Y-163363921D01*
X277528728Y-163460612D01*
X277625419Y-163539964D01*
X277735733Y-163598929D01*
X277855431Y-163635239D01*
X277979913Y-163647499D01*
X278944163Y-163644427D01*
X279102913Y-163485677D01*
X279102913Y-161886427D01*
X279356913Y-161886427D01*
X279356913Y-163485677D01*
X279515663Y-163644427D01*
X280479913Y-163647499D01*
X280604395Y-163635239D01*
X280724093Y-163598929D01*
X280834407Y-163539964D01*
X280931098Y-163460612D01*
X281010450Y-163363921D01*
X281069415Y-163253607D01*
X281105725Y-163133909D01*
X281117985Y-163009427D01*
X321701929Y-163009427D01*
X321714189Y-163133909D01*
X321750499Y-163253607D01*
X321809464Y-163363921D01*
X321888816Y-163460612D01*
X321985507Y-163539964D01*
X322095821Y-163598929D01*
X322215519Y-163635239D01*
X322340001Y-163647499D01*
X323304251Y-163644427D01*
X323463001Y-163485677D01*
X323463001Y-161886427D01*
X323717001Y-161886427D01*
X323717001Y-163485677D01*
X323875751Y-163644427D01*
X324840001Y-163647499D01*
X324964483Y-163635239D01*
X325084181Y-163598929D01*
X325194495Y-163539964D01*
X325291186Y-163460612D01*
X325370538Y-163363921D01*
X325429503Y-163253607D01*
X325465813Y-163133909D01*
X325478073Y-163009427D01*
X366241841Y-163009427D01*
X366254101Y-163133909D01*
X366290411Y-163253607D01*
X366349376Y-163363921D01*
X366428728Y-163460612D01*
X366525419Y-163539964D01*
X366635733Y-163598929D01*
X366755431Y-163635239D01*
X366879913Y-163647499D01*
X367844163Y-163644427D01*
X368002913Y-163485677D01*
X368002913Y-161886427D01*
X368256913Y-161886427D01*
X368256913Y-163485677D01*
X368415663Y-163644427D01*
X369379913Y-163647499D01*
X369504395Y-163635239D01*
X369624093Y-163598929D01*
X369734407Y-163539964D01*
X369831098Y-163460612D01*
X369910450Y-163363921D01*
X369969415Y-163253607D01*
X370005725Y-163133909D01*
X370017985Y-163009427D01*
X370014913Y-162045177D01*
X369856163Y-161886427D01*
X368256913Y-161886427D01*
X368002913Y-161886427D01*
X366403663Y-161886427D01*
X366244913Y-162045177D01*
X366241841Y-163009427D01*
X325478073Y-163009427D01*
X325475001Y-162045177D01*
X325316251Y-161886427D01*
X323717001Y-161886427D01*
X323463001Y-161886427D01*
X321863751Y-161886427D01*
X321705001Y-162045177D01*
X321701929Y-163009427D01*
X281117985Y-163009427D01*
X281114913Y-162045177D01*
X280956163Y-161886427D01*
X279356913Y-161886427D01*
X279102913Y-161886427D01*
X277503663Y-161886427D01*
X277344913Y-162045177D01*
X277341841Y-163009427D01*
X236667985Y-163009427D01*
X236664913Y-162045177D01*
X236506163Y-161886427D01*
X234906913Y-161886427D01*
X234652913Y-161886427D01*
X233053663Y-161886427D01*
X232894913Y-162045177D01*
X232891841Y-163009427D01*
X192217985Y-163009427D01*
X192214913Y-162045177D01*
X192056163Y-161886427D01*
X190456913Y-161886427D01*
X190202913Y-161886427D01*
X188603663Y-161886427D01*
X188444913Y-162045177D01*
X188441841Y-163009427D01*
X147767985Y-163009427D01*
X147764913Y-162045177D01*
X147606163Y-161886427D01*
X146006913Y-161886427D01*
X145752913Y-161886427D01*
X144153663Y-161886427D01*
X143994913Y-162045177D01*
X143991841Y-163009427D01*
X129794229Y-163009427D01*
X127294229Y-160509427D01*
X143991841Y-160509427D01*
X143994913Y-161473677D01*
X144153663Y-161632427D01*
X145752913Y-161632427D01*
X145752913Y-160033177D01*
X146006913Y-160033177D01*
X146006913Y-161632427D01*
X147606163Y-161632427D01*
X147764913Y-161473677D01*
X147767985Y-160509427D01*
X188441841Y-160509427D01*
X188444913Y-161473677D01*
X188603663Y-161632427D01*
X190202913Y-161632427D01*
X190202913Y-160033177D01*
X190456913Y-160033177D01*
X190456913Y-161632427D01*
X192056163Y-161632427D01*
X192214913Y-161473677D01*
X192217985Y-160509427D01*
X232891841Y-160509427D01*
X232894913Y-161473677D01*
X233053663Y-161632427D01*
X234652913Y-161632427D01*
X234652913Y-160033177D01*
X234906913Y-160033177D01*
X234906913Y-161632427D01*
X236506163Y-161632427D01*
X236664913Y-161473677D01*
X236667985Y-160509427D01*
X277341841Y-160509427D01*
X277344913Y-161473677D01*
X277503663Y-161632427D01*
X279102913Y-161632427D01*
X279102913Y-160033177D01*
X279356913Y-160033177D01*
X279356913Y-161632427D01*
X280956163Y-161632427D01*
X281114913Y-161473677D01*
X281117985Y-160509427D01*
X321701929Y-160509427D01*
X321705001Y-161473677D01*
X321863751Y-161632427D01*
X323463001Y-161632427D01*
X323463001Y-160033177D01*
X323717001Y-160033177D01*
X323717001Y-161632427D01*
X325316251Y-161632427D01*
X325475001Y-161473677D01*
X325478073Y-160509427D01*
X366241841Y-160509427D01*
X366244913Y-161473677D01*
X366403663Y-161632427D01*
X368002913Y-161632427D01*
X368002913Y-160033177D01*
X368256913Y-160033177D01*
X368256913Y-161632427D01*
X369856163Y-161632427D01*
X370014913Y-161473677D01*
X370017985Y-160509427D01*
X370005725Y-160384945D01*
X369969415Y-160265247D01*
X369910450Y-160154933D01*
X369831098Y-160058242D01*
X369734407Y-159978890D01*
X369624093Y-159919925D01*
X369504395Y-159883615D01*
X369379913Y-159871355D01*
X368415663Y-159874427D01*
X368256913Y-160033177D01*
X368002913Y-160033177D01*
X367844163Y-159874427D01*
X366879913Y-159871355D01*
X366755431Y-159883615D01*
X366635733Y-159919925D01*
X366525419Y-159978890D01*
X366428728Y-160058242D01*
X366349376Y-160154933D01*
X366290411Y-160265247D01*
X366254101Y-160384945D01*
X366241841Y-160509427D01*
X325478073Y-160509427D01*
X325465813Y-160384945D01*
X325429503Y-160265247D01*
X325370538Y-160154933D01*
X325291186Y-160058242D01*
X325194495Y-159978890D01*
X325084181Y-159919925D01*
X324964483Y-159883615D01*
X324840001Y-159871355D01*
X323875751Y-159874427D01*
X323717001Y-160033177D01*
X323463001Y-160033177D01*
X323304251Y-159874427D01*
X322340001Y-159871355D01*
X322215519Y-159883615D01*
X322095821Y-159919925D01*
X321985507Y-159978890D01*
X321888816Y-160058242D01*
X321809464Y-160154933D01*
X321750499Y-160265247D01*
X321714189Y-160384945D01*
X321701929Y-160509427D01*
X281117985Y-160509427D01*
X281105725Y-160384945D01*
X281069415Y-160265247D01*
X281010450Y-160154933D01*
X280931098Y-160058242D01*
X280834407Y-159978890D01*
X280724093Y-159919925D01*
X280604395Y-159883615D01*
X280479913Y-159871355D01*
X279515663Y-159874427D01*
X279356913Y-160033177D01*
X279102913Y-160033177D01*
X278944163Y-159874427D01*
X277979913Y-159871355D01*
X277855431Y-159883615D01*
X277735733Y-159919925D01*
X277625419Y-159978890D01*
X277528728Y-160058242D01*
X277449376Y-160154933D01*
X277390411Y-160265247D01*
X277354101Y-160384945D01*
X277341841Y-160509427D01*
X236667985Y-160509427D01*
X236655725Y-160384945D01*
X236619415Y-160265247D01*
X236560450Y-160154933D01*
X236481098Y-160058242D01*
X236384407Y-159978890D01*
X236274093Y-159919925D01*
X236154395Y-159883615D01*
X236029913Y-159871355D01*
X235065663Y-159874427D01*
X234906913Y-160033177D01*
X234652913Y-160033177D01*
X234494163Y-159874427D01*
X233529913Y-159871355D01*
X233405431Y-159883615D01*
X233285733Y-159919925D01*
X233175419Y-159978890D01*
X233078728Y-160058242D01*
X232999376Y-160154933D01*
X232940411Y-160265247D01*
X232904101Y-160384945D01*
X232891841Y-160509427D01*
X192217985Y-160509427D01*
X192205725Y-160384945D01*
X192169415Y-160265247D01*
X192110450Y-160154933D01*
X192031098Y-160058242D01*
X191934407Y-159978890D01*
X191824093Y-159919925D01*
X191704395Y-159883615D01*
X191579913Y-159871355D01*
X190615663Y-159874427D01*
X190456913Y-160033177D01*
X190202913Y-160033177D01*
X190044163Y-159874427D01*
X189079913Y-159871355D01*
X188955431Y-159883615D01*
X188835733Y-159919925D01*
X188725419Y-159978890D01*
X188628728Y-160058242D01*
X188549376Y-160154933D01*
X188490411Y-160265247D01*
X188454101Y-160384945D01*
X188441841Y-160509427D01*
X147767985Y-160509427D01*
X147755725Y-160384945D01*
X147719415Y-160265247D01*
X147660450Y-160154933D01*
X147581098Y-160058242D01*
X147484407Y-159978890D01*
X147374093Y-159919925D01*
X147254395Y-159883615D01*
X147129913Y-159871355D01*
X146165663Y-159874427D01*
X146006913Y-160033177D01*
X145752913Y-160033177D01*
X145594163Y-159874427D01*
X144629913Y-159871355D01*
X144505431Y-159883615D01*
X144385733Y-159919925D01*
X144275419Y-159978890D01*
X144178728Y-160058242D01*
X144099376Y-160154933D01*
X144040411Y-160265247D01*
X144004101Y-160384945D01*
X143991841Y-160509427D01*
X127294229Y-160509427D01*
X105894229Y-139109427D01*
X143991841Y-139109427D01*
X143991841Y-141609427D01*
X144004101Y-141733909D01*
X144040411Y-141853607D01*
X144099376Y-141963921D01*
X144178728Y-142060612D01*
X144275419Y-142139964D01*
X144385733Y-142198929D01*
X144505431Y-142235239D01*
X144629913Y-142247499D01*
X146872699Y-142247499D01*
X146648843Y-142471355D01*
X144629913Y-142471355D01*
X144505431Y-142483615D01*
X144385733Y-142519925D01*
X144275419Y-142578890D01*
X144178728Y-142658242D01*
X144099376Y-142754933D01*
X144040411Y-142865247D01*
X144004101Y-142984945D01*
X143991841Y-143109427D01*
X143991841Y-145609427D01*
X144004101Y-145733909D01*
X144040411Y-145853607D01*
X144099376Y-145963921D01*
X144178728Y-146060612D01*
X144275419Y-146139964D01*
X144385733Y-146198929D01*
X144505431Y-146235239D01*
X144629913Y-146247499D01*
X147129913Y-146247499D01*
X147254395Y-146235239D01*
X147374093Y-146198929D01*
X147484407Y-146139964D01*
X147581098Y-146060612D01*
X147660450Y-145963921D01*
X147719415Y-145853607D01*
X147755725Y-145733909D01*
X147767985Y-145609427D01*
X147767985Y-143501817D01*
X147994802Y-143275000D01*
X148056939Y-143275000D01*
X148256898Y-143235226D01*
X148445256Y-143157205D01*
X148614774Y-143043937D01*
X148758937Y-142899774D01*
X148872205Y-142730256D01*
X148950226Y-142541898D01*
X148990000Y-142341939D01*
X148990000Y-142138061D01*
X148950226Y-141938102D01*
X148872205Y-141749744D01*
X148758937Y-141580226D01*
X148614774Y-141436063D01*
X148445256Y-141322795D01*
X148256898Y-141244774D01*
X148056939Y-141205000D01*
X147994802Y-141205000D01*
X147767985Y-140978183D01*
X147767985Y-139109427D01*
X188441841Y-139109427D01*
X188441841Y-141609427D01*
X188454101Y-141733909D01*
X188490411Y-141853607D01*
X188549376Y-141963921D01*
X188628728Y-142060612D01*
X188725419Y-142139964D01*
X188835733Y-142198929D01*
X188955431Y-142235239D01*
X189079913Y-142247499D01*
X191322699Y-142247499D01*
X191098843Y-142471355D01*
X189079913Y-142471355D01*
X188955431Y-142483615D01*
X188835733Y-142519925D01*
X188725419Y-142578890D01*
X188628728Y-142658242D01*
X188549376Y-142754933D01*
X188490411Y-142865247D01*
X188454101Y-142984945D01*
X188441841Y-143109427D01*
X188441841Y-145609427D01*
X188454101Y-145733909D01*
X188490411Y-145853607D01*
X188549376Y-145963921D01*
X188628728Y-146060612D01*
X188725419Y-146139964D01*
X188835733Y-146198929D01*
X188955431Y-146235239D01*
X189079913Y-146247499D01*
X191579913Y-146247499D01*
X191704395Y-146235239D01*
X191824093Y-146198929D01*
X191934407Y-146139964D01*
X192031098Y-146060612D01*
X192110450Y-145963921D01*
X192169415Y-145853607D01*
X192205725Y-145733909D01*
X192217985Y-145609427D01*
X192217985Y-143501817D01*
X192444802Y-143275000D01*
X192506939Y-143275000D01*
X192706898Y-143235226D01*
X192895256Y-143157205D01*
X193064774Y-143043937D01*
X193208937Y-142899774D01*
X193322205Y-142730256D01*
X193400226Y-142541898D01*
X193440000Y-142341939D01*
X193440000Y-142138061D01*
X193400226Y-141938102D01*
X193322205Y-141749744D01*
X193208937Y-141580226D01*
X193064774Y-141436063D01*
X192895256Y-141322795D01*
X192706898Y-141244774D01*
X192506939Y-141205000D01*
X192444802Y-141205000D01*
X192217985Y-140978183D01*
X192217985Y-139109427D01*
X232891841Y-139109427D01*
X232891841Y-141609427D01*
X232904101Y-141733909D01*
X232940411Y-141853607D01*
X232999376Y-141963921D01*
X233078728Y-142060612D01*
X233175419Y-142139964D01*
X233285733Y-142198929D01*
X233405431Y-142235239D01*
X233529913Y-142247499D01*
X235772699Y-142247499D01*
X235548843Y-142471355D01*
X233529913Y-142471355D01*
X233405431Y-142483615D01*
X233285733Y-142519925D01*
X233175419Y-142578890D01*
X233078728Y-142658242D01*
X232999376Y-142754933D01*
X232940411Y-142865247D01*
X232904101Y-142984945D01*
X232891841Y-143109427D01*
X232891841Y-145609427D01*
X232904101Y-145733909D01*
X232940411Y-145853607D01*
X232999376Y-145963921D01*
X233078728Y-146060612D01*
X233175419Y-146139964D01*
X233285733Y-146198929D01*
X233405431Y-146235239D01*
X233529913Y-146247499D01*
X236029913Y-146247499D01*
X236154395Y-146235239D01*
X236274093Y-146198929D01*
X236384407Y-146139964D01*
X236481098Y-146060612D01*
X236560450Y-145963921D01*
X236619415Y-145853607D01*
X236655725Y-145733909D01*
X236667985Y-145609427D01*
X236667985Y-143501817D01*
X236894802Y-143275000D01*
X236956939Y-143275000D01*
X237156898Y-143235226D01*
X237345256Y-143157205D01*
X237514774Y-143043937D01*
X237658937Y-142899774D01*
X237772205Y-142730256D01*
X237850226Y-142541898D01*
X237890000Y-142341939D01*
X237890000Y-142138061D01*
X237850226Y-141938102D01*
X237772205Y-141749744D01*
X237658937Y-141580226D01*
X237514774Y-141436063D01*
X237345256Y-141322795D01*
X237156898Y-141244774D01*
X236956939Y-141205000D01*
X236894802Y-141205000D01*
X236667985Y-140978183D01*
X236667985Y-139109427D01*
X277341841Y-139109427D01*
X277341841Y-141609427D01*
X277354101Y-141733909D01*
X277390411Y-141853607D01*
X277449376Y-141963921D01*
X277528728Y-142060612D01*
X277625419Y-142139964D01*
X277735733Y-142198929D01*
X277855431Y-142235239D01*
X277979913Y-142247499D01*
X280222699Y-142247499D01*
X279998843Y-142471355D01*
X277979913Y-142471355D01*
X277855431Y-142483615D01*
X277735733Y-142519925D01*
X277625419Y-142578890D01*
X277528728Y-142658242D01*
X277449376Y-142754933D01*
X277390411Y-142865247D01*
X277354101Y-142984945D01*
X277341841Y-143109427D01*
X277341841Y-145609427D01*
X277354101Y-145733909D01*
X277390411Y-145853607D01*
X277449376Y-145963921D01*
X277528728Y-146060612D01*
X277625419Y-146139964D01*
X277735733Y-146198929D01*
X277855431Y-146235239D01*
X277979913Y-146247499D01*
X280479913Y-146247499D01*
X280604395Y-146235239D01*
X280724093Y-146198929D01*
X280834407Y-146139964D01*
X280931098Y-146060612D01*
X281010450Y-145963921D01*
X281069415Y-145853607D01*
X281105725Y-145733909D01*
X281117985Y-145609427D01*
X281117985Y-143501817D01*
X281344802Y-143275000D01*
X281406939Y-143275000D01*
X281606898Y-143235226D01*
X281795256Y-143157205D01*
X281964774Y-143043937D01*
X282108937Y-142899774D01*
X282222205Y-142730256D01*
X282300226Y-142541898D01*
X282340000Y-142341939D01*
X282340000Y-142138061D01*
X282300226Y-141938102D01*
X282222205Y-141749744D01*
X282108937Y-141580226D01*
X281964774Y-141436063D01*
X281795256Y-141322795D01*
X281606898Y-141244774D01*
X281406939Y-141205000D01*
X281344802Y-141205000D01*
X281117985Y-140978183D01*
X281117985Y-139109427D01*
X321701929Y-139109427D01*
X321701929Y-141609427D01*
X321714189Y-141733909D01*
X321750499Y-141853607D01*
X321809464Y-141963921D01*
X321888816Y-142060612D01*
X321985507Y-142139964D01*
X322095821Y-142198929D01*
X322215519Y-142235239D01*
X322340001Y-142247499D01*
X324672699Y-142247499D01*
X324448843Y-142471355D01*
X322340001Y-142471355D01*
X322215519Y-142483615D01*
X322095821Y-142519925D01*
X321985507Y-142578890D01*
X321888816Y-142658242D01*
X321809464Y-142754933D01*
X321750499Y-142865247D01*
X321714189Y-142984945D01*
X321701929Y-143109427D01*
X321701929Y-145609427D01*
X321714189Y-145733909D01*
X321750499Y-145853607D01*
X321809464Y-145963921D01*
X321888816Y-146060612D01*
X321985507Y-146139964D01*
X322095821Y-146198929D01*
X322215519Y-146235239D01*
X322340001Y-146247499D01*
X324840001Y-146247499D01*
X324964483Y-146235239D01*
X325084181Y-146198929D01*
X325194495Y-146139964D01*
X325291186Y-146060612D01*
X325370538Y-145963921D01*
X325429503Y-145853607D01*
X325465813Y-145733909D01*
X325478073Y-145609427D01*
X325478073Y-143591729D01*
X325794803Y-143275000D01*
X325856939Y-143275000D01*
X326056898Y-143235226D01*
X326245256Y-143157205D01*
X326414774Y-143043937D01*
X326558937Y-142899774D01*
X326672205Y-142730256D01*
X326750226Y-142541898D01*
X326790000Y-142341939D01*
X326790000Y-142138061D01*
X326750226Y-141938102D01*
X326672205Y-141749744D01*
X326558937Y-141580226D01*
X326414774Y-141436063D01*
X326245256Y-141322795D01*
X326056898Y-141244774D01*
X325856939Y-141205000D01*
X325794802Y-141205000D01*
X325478073Y-140888271D01*
X325478073Y-139109427D01*
X366241841Y-139109427D01*
X366241841Y-141609427D01*
X366254101Y-141733909D01*
X366290411Y-141853607D01*
X366349376Y-141963921D01*
X366428728Y-142060612D01*
X366525419Y-142139964D01*
X366635733Y-142198929D01*
X366755431Y-142235239D01*
X366879913Y-142247499D01*
X369379913Y-142247499D01*
X369504395Y-142235239D01*
X369624093Y-142198929D01*
X369734407Y-142139964D01*
X369831098Y-142060612D01*
X369910450Y-141963921D01*
X369969415Y-141853607D01*
X370005725Y-141733909D01*
X370017985Y-141609427D01*
X370017985Y-141222786D01*
X371035198Y-142240000D01*
X370017985Y-143257213D01*
X370017985Y-143109427D01*
X370005725Y-142984945D01*
X369969415Y-142865247D01*
X369910450Y-142754933D01*
X369831098Y-142658242D01*
X369734407Y-142578890D01*
X369624093Y-142519925D01*
X369504395Y-142483615D01*
X369379913Y-142471355D01*
X366879913Y-142471355D01*
X366755431Y-142483615D01*
X366635733Y-142519925D01*
X366525419Y-142578890D01*
X366428728Y-142658242D01*
X366349376Y-142754933D01*
X366290411Y-142865247D01*
X366254101Y-142984945D01*
X366241841Y-143109427D01*
X366241841Y-145609427D01*
X366254101Y-145733909D01*
X366290411Y-145853607D01*
X366349376Y-145963921D01*
X366428728Y-146060612D01*
X366525419Y-146139964D01*
X366635733Y-146198929D01*
X366755431Y-146235239D01*
X366879913Y-146247499D01*
X369379913Y-146247499D01*
X369504395Y-146235239D01*
X369624093Y-146198929D01*
X369734407Y-146139964D01*
X369831098Y-146060612D01*
X369910450Y-145963921D01*
X369969415Y-145853607D01*
X370005725Y-145733909D01*
X370017985Y-145609427D01*
X370017985Y-145120403D01*
X370027895Y-145119427D01*
X370027906Y-145119427D01*
X370139559Y-145108430D01*
X370282820Y-145064973D01*
X370414849Y-144994401D01*
X370530574Y-144899428D01*
X370554377Y-144870425D01*
X372149803Y-143275000D01*
X372211939Y-143275000D01*
X372411898Y-143235226D01*
X372600256Y-143157205D01*
X372769774Y-143043937D01*
X372913937Y-142899774D01*
X373027205Y-142730256D01*
X373105226Y-142541898D01*
X373145000Y-142341939D01*
X373145000Y-142138061D01*
X373105226Y-141938102D01*
X373027205Y-141749744D01*
X372913937Y-141580226D01*
X372769774Y-141436063D01*
X372600256Y-141322795D01*
X372411898Y-141244774D01*
X372211939Y-141205000D01*
X372149802Y-141205000D01*
X370793231Y-139848430D01*
X370769428Y-139819426D01*
X370653703Y-139724453D01*
X370521674Y-139653881D01*
X370378413Y-139610424D01*
X370266760Y-139599427D01*
X370266749Y-139599427D01*
X370229427Y-139595751D01*
X370192105Y-139599427D01*
X370017985Y-139599427D01*
X370017985Y-139109427D01*
X370005725Y-138984945D01*
X369969415Y-138865247D01*
X369910450Y-138754933D01*
X369831098Y-138658242D01*
X369734407Y-138578890D01*
X369624093Y-138519925D01*
X369504395Y-138483615D01*
X369379913Y-138471355D01*
X366879913Y-138471355D01*
X366755431Y-138483615D01*
X366635733Y-138519925D01*
X366525419Y-138578890D01*
X366428728Y-138658242D01*
X366349376Y-138754933D01*
X366290411Y-138865247D01*
X366254101Y-138984945D01*
X366241841Y-139109427D01*
X325478073Y-139109427D01*
X325465813Y-138984945D01*
X325429503Y-138865247D01*
X325370538Y-138754933D01*
X325291186Y-138658242D01*
X325194495Y-138578890D01*
X325084181Y-138519925D01*
X324964483Y-138483615D01*
X324840001Y-138471355D01*
X322340001Y-138471355D01*
X322215519Y-138483615D01*
X322095821Y-138519925D01*
X321985507Y-138578890D01*
X321888816Y-138658242D01*
X321809464Y-138754933D01*
X321750499Y-138865247D01*
X321714189Y-138984945D01*
X321701929Y-139109427D01*
X281117985Y-139109427D01*
X281105725Y-138984945D01*
X281069415Y-138865247D01*
X281010450Y-138754933D01*
X280931098Y-138658242D01*
X280834407Y-138578890D01*
X280724093Y-138519925D01*
X280604395Y-138483615D01*
X280479913Y-138471355D01*
X277979913Y-138471355D01*
X277855431Y-138483615D01*
X277735733Y-138519925D01*
X277625419Y-138578890D01*
X277528728Y-138658242D01*
X277449376Y-138754933D01*
X277390411Y-138865247D01*
X277354101Y-138984945D01*
X277341841Y-139109427D01*
X236667985Y-139109427D01*
X236655725Y-138984945D01*
X236619415Y-138865247D01*
X236560450Y-138754933D01*
X236481098Y-138658242D01*
X236384407Y-138578890D01*
X236274093Y-138519925D01*
X236154395Y-138483615D01*
X236029913Y-138471355D01*
X233529913Y-138471355D01*
X233405431Y-138483615D01*
X233285733Y-138519925D01*
X233175419Y-138578890D01*
X233078728Y-138658242D01*
X232999376Y-138754933D01*
X232940411Y-138865247D01*
X232904101Y-138984945D01*
X232891841Y-139109427D01*
X192217985Y-139109427D01*
X192205725Y-138984945D01*
X192169415Y-138865247D01*
X192110450Y-138754933D01*
X192031098Y-138658242D01*
X191934407Y-138578890D01*
X191824093Y-138519925D01*
X191704395Y-138483615D01*
X191579913Y-138471355D01*
X189079913Y-138471355D01*
X188955431Y-138483615D01*
X188835733Y-138519925D01*
X188725419Y-138578890D01*
X188628728Y-138658242D01*
X188549376Y-138754933D01*
X188490411Y-138865247D01*
X188454101Y-138984945D01*
X188441841Y-139109427D01*
X147767985Y-139109427D01*
X147755725Y-138984945D01*
X147719415Y-138865247D01*
X147660450Y-138754933D01*
X147581098Y-138658242D01*
X147484407Y-138578890D01*
X147374093Y-138519925D01*
X147254395Y-138483615D01*
X147129913Y-138471355D01*
X144629913Y-138471355D01*
X144505431Y-138483615D01*
X144385733Y-138519925D01*
X144275419Y-138578890D01*
X144178728Y-138658242D01*
X144099376Y-138754933D01*
X144040411Y-138865247D01*
X144004101Y-138984945D01*
X143991841Y-139109427D01*
X105894229Y-139109427D01*
X104540000Y-137755199D01*
X104540000Y-137693061D01*
X104500226Y-137493102D01*
X104422205Y-137304744D01*
X104308937Y-137135226D01*
X104164774Y-136991063D01*
X103995256Y-136877795D01*
X103806898Y-136799774D01*
X103606939Y-136760000D01*
X103403061Y-136760000D01*
X103203102Y-136799774D01*
X103014744Y-136877795D01*
X102845226Y-136991063D01*
X102701063Y-137135226D01*
X102587795Y-137304744D01*
X102509774Y-137493102D01*
X102470000Y-137693061D01*
X60136000Y-137693061D01*
X60136000Y-134046123D01*
X60132950Y-134015151D01*
X60133032Y-134003351D01*
X60132065Y-133993486D01*
X60093201Y-133623731D01*
X60080273Y-133560750D01*
X60068204Y-133497483D01*
X60065338Y-133487993D01*
X59955396Y-133132830D01*
X59930477Y-133073551D01*
X59906354Y-133013843D01*
X59901700Y-133005090D01*
X59724868Y-132678046D01*
X59688887Y-132624703D01*
X59653646Y-132570848D01*
X59647381Y-132563166D01*
X59410392Y-132276697D01*
X59364740Y-132231362D01*
X59319708Y-132185377D01*
X59312070Y-132179058D01*
X59023952Y-131944075D01*
X58970377Y-131908479D01*
X58917256Y-131872107D01*
X58908535Y-131867392D01*
X58580263Y-131692847D01*
X58520774Y-131668327D01*
X58461622Y-131642975D01*
X58452152Y-131640043D01*
X58096229Y-131532583D01*
X58033132Y-131520090D01*
X57970158Y-131506704D01*
X57960299Y-131505668D01*
X57590283Y-131469388D01*
X57590277Y-131469388D01*
X57555877Y-131466000D01*
X53786000Y-131466000D01*
X53786000Y-126549427D01*
X99541841Y-126549427D01*
X99554101Y-126673909D01*
X99590411Y-126793607D01*
X99649376Y-126903921D01*
X99728728Y-127000612D01*
X99825419Y-127079964D01*
X99935733Y-127138929D01*
X100055431Y-127175239D01*
X100179913Y-127187499D01*
X101144163Y-127184427D01*
X101302913Y-127025677D01*
X101302913Y-125426427D01*
X101556913Y-125426427D01*
X101556913Y-127025677D01*
X101715663Y-127184427D01*
X102679913Y-127187499D01*
X102804395Y-127175239D01*
X102924093Y-127138929D01*
X103034407Y-127079964D01*
X103131098Y-127000612D01*
X103210450Y-126903921D01*
X103269415Y-126793607D01*
X103305725Y-126673909D01*
X103317985Y-126549427D01*
X103314913Y-125585177D01*
X103156163Y-125426427D01*
X101556913Y-125426427D01*
X101302913Y-125426427D01*
X99703663Y-125426427D01*
X99544913Y-125585177D01*
X99541841Y-126549427D01*
X53786000Y-126549427D01*
X53786000Y-124049427D01*
X99541841Y-124049427D01*
X99544913Y-125013677D01*
X99703663Y-125172427D01*
X101302913Y-125172427D01*
X101302913Y-123573177D01*
X101556913Y-123573177D01*
X101556913Y-125172427D01*
X103156163Y-125172427D01*
X103314913Y-125013677D01*
X103317985Y-124049427D01*
X103314046Y-124009427D01*
X143991841Y-124009427D01*
X144004101Y-124133909D01*
X144040411Y-124253607D01*
X144099376Y-124363921D01*
X144178728Y-124460612D01*
X144275419Y-124539964D01*
X144385733Y-124598929D01*
X144505431Y-124635239D01*
X144629913Y-124647499D01*
X145594163Y-124644427D01*
X145752913Y-124485677D01*
X145752913Y-122886427D01*
X146006913Y-122886427D01*
X146006913Y-124485677D01*
X146165663Y-124644427D01*
X147129913Y-124647499D01*
X147254395Y-124635239D01*
X147374093Y-124598929D01*
X147484407Y-124539964D01*
X147581098Y-124460612D01*
X147660450Y-124363921D01*
X147719415Y-124253607D01*
X147755725Y-124133909D01*
X147767985Y-124009427D01*
X188441841Y-124009427D01*
X188454101Y-124133909D01*
X188490411Y-124253607D01*
X188549376Y-124363921D01*
X188628728Y-124460612D01*
X188725419Y-124539964D01*
X188835733Y-124598929D01*
X188955431Y-124635239D01*
X189079913Y-124647499D01*
X190044163Y-124644427D01*
X190202913Y-124485677D01*
X190202913Y-122886427D01*
X190456913Y-122886427D01*
X190456913Y-124485677D01*
X190615663Y-124644427D01*
X191579913Y-124647499D01*
X191704395Y-124635239D01*
X191824093Y-124598929D01*
X191934407Y-124539964D01*
X192031098Y-124460612D01*
X192110450Y-124363921D01*
X192169415Y-124253607D01*
X192205725Y-124133909D01*
X192217985Y-124009427D01*
X232891841Y-124009427D01*
X232904101Y-124133909D01*
X232940411Y-124253607D01*
X232999376Y-124363921D01*
X233078728Y-124460612D01*
X233175419Y-124539964D01*
X233285733Y-124598929D01*
X233405431Y-124635239D01*
X233529913Y-124647499D01*
X234494163Y-124644427D01*
X234652913Y-124485677D01*
X234652913Y-122886427D01*
X234906913Y-122886427D01*
X234906913Y-124485677D01*
X235065663Y-124644427D01*
X236029913Y-124647499D01*
X236154395Y-124635239D01*
X236274093Y-124598929D01*
X236384407Y-124539964D01*
X236481098Y-124460612D01*
X236560450Y-124363921D01*
X236619415Y-124253607D01*
X236655725Y-124133909D01*
X236667985Y-124009427D01*
X277341841Y-124009427D01*
X277354101Y-124133909D01*
X277390411Y-124253607D01*
X277449376Y-124363921D01*
X277528728Y-124460612D01*
X277625419Y-124539964D01*
X277735733Y-124598929D01*
X277855431Y-124635239D01*
X277979913Y-124647499D01*
X278944163Y-124644427D01*
X279102913Y-124485677D01*
X279102913Y-122886427D01*
X279356913Y-122886427D01*
X279356913Y-124485677D01*
X279515663Y-124644427D01*
X280479913Y-124647499D01*
X280604395Y-124635239D01*
X280724093Y-124598929D01*
X280834407Y-124539964D01*
X280931098Y-124460612D01*
X281010450Y-124363921D01*
X281069415Y-124253607D01*
X281105725Y-124133909D01*
X281117985Y-124009427D01*
X321701929Y-124009427D01*
X321714189Y-124133909D01*
X321750499Y-124253607D01*
X321809464Y-124363921D01*
X321888816Y-124460612D01*
X321985507Y-124539964D01*
X322095821Y-124598929D01*
X322215519Y-124635239D01*
X322340001Y-124647499D01*
X323304251Y-124644427D01*
X323463001Y-124485677D01*
X323463001Y-122886427D01*
X323717001Y-122886427D01*
X323717001Y-124485677D01*
X323875751Y-124644427D01*
X324840001Y-124647499D01*
X324964483Y-124635239D01*
X325084181Y-124598929D01*
X325194495Y-124539964D01*
X325291186Y-124460612D01*
X325370538Y-124363921D01*
X325429503Y-124253607D01*
X325465813Y-124133909D01*
X325478073Y-124009427D01*
X366241841Y-124009427D01*
X366254101Y-124133909D01*
X366290411Y-124253607D01*
X366349376Y-124363921D01*
X366428728Y-124460612D01*
X366525419Y-124539964D01*
X366635733Y-124598929D01*
X366755431Y-124635239D01*
X366879913Y-124647499D01*
X367844163Y-124644427D01*
X368002913Y-124485677D01*
X368002913Y-122886427D01*
X368256913Y-122886427D01*
X368256913Y-124485677D01*
X368415663Y-124644427D01*
X369379913Y-124647499D01*
X369504395Y-124635239D01*
X369624093Y-124598929D01*
X369734407Y-124539964D01*
X369831098Y-124460612D01*
X369910450Y-124363921D01*
X369969415Y-124253607D01*
X370005725Y-124133909D01*
X370017985Y-124009427D01*
X370014913Y-123045177D01*
X369856163Y-122886427D01*
X368256913Y-122886427D01*
X368002913Y-122886427D01*
X366403663Y-122886427D01*
X366244913Y-123045177D01*
X366241841Y-124009427D01*
X325478073Y-124009427D01*
X325475001Y-123045177D01*
X325316251Y-122886427D01*
X323717001Y-122886427D01*
X323463001Y-122886427D01*
X321863751Y-122886427D01*
X321705001Y-123045177D01*
X321701929Y-124009427D01*
X281117985Y-124009427D01*
X281114913Y-123045177D01*
X280956163Y-122886427D01*
X279356913Y-122886427D01*
X279102913Y-122886427D01*
X277503663Y-122886427D01*
X277344913Y-123045177D01*
X277341841Y-124009427D01*
X236667985Y-124009427D01*
X236664913Y-123045177D01*
X236506163Y-122886427D01*
X234906913Y-122886427D01*
X234652913Y-122886427D01*
X233053663Y-122886427D01*
X232894913Y-123045177D01*
X232891841Y-124009427D01*
X192217985Y-124009427D01*
X192214913Y-123045177D01*
X192056163Y-122886427D01*
X190456913Y-122886427D01*
X190202913Y-122886427D01*
X188603663Y-122886427D01*
X188444913Y-123045177D01*
X188441841Y-124009427D01*
X147767985Y-124009427D01*
X147764913Y-123045177D01*
X147606163Y-122886427D01*
X146006913Y-122886427D01*
X145752913Y-122886427D01*
X144153663Y-122886427D01*
X143994913Y-123045177D01*
X143991841Y-124009427D01*
X103314046Y-124009427D01*
X103305725Y-123924945D01*
X103269415Y-123805247D01*
X103210450Y-123694933D01*
X103131098Y-123598242D01*
X103034407Y-123518890D01*
X102924093Y-123459925D01*
X102804395Y-123423615D01*
X102679913Y-123411355D01*
X101715663Y-123414427D01*
X101556913Y-123573177D01*
X101302913Y-123573177D01*
X101144163Y-123414427D01*
X100179913Y-123411355D01*
X100055431Y-123423615D01*
X99935733Y-123459925D01*
X99825419Y-123518890D01*
X99728728Y-123598242D01*
X99649376Y-123694933D01*
X99590411Y-123805247D01*
X99554101Y-123924945D01*
X99541841Y-124049427D01*
X53786000Y-124049427D01*
X53786000Y-121549427D01*
X99541841Y-121549427D01*
X99554101Y-121673909D01*
X99590411Y-121793607D01*
X99649376Y-121903921D01*
X99728728Y-122000612D01*
X99825419Y-122079964D01*
X99935733Y-122138929D01*
X100055431Y-122175239D01*
X100179913Y-122187499D01*
X101144163Y-122184427D01*
X101302913Y-122025677D01*
X101302913Y-120426427D01*
X101556913Y-120426427D01*
X101556913Y-122025677D01*
X101715663Y-122184427D01*
X102679913Y-122187499D01*
X102804395Y-122175239D01*
X102924093Y-122138929D01*
X103034407Y-122079964D01*
X103131098Y-122000612D01*
X103210450Y-121903921D01*
X103269415Y-121793607D01*
X103305725Y-121673909D01*
X103317985Y-121549427D01*
X103317858Y-121509427D01*
X143991841Y-121509427D01*
X143994913Y-122473677D01*
X144153663Y-122632427D01*
X145752913Y-122632427D01*
X145752913Y-121033177D01*
X146006913Y-121033177D01*
X146006913Y-122632427D01*
X147606163Y-122632427D01*
X147764913Y-122473677D01*
X147767985Y-121509427D01*
X188441841Y-121509427D01*
X188444913Y-122473677D01*
X188603663Y-122632427D01*
X190202913Y-122632427D01*
X190202913Y-121033177D01*
X190456913Y-121033177D01*
X190456913Y-122632427D01*
X192056163Y-122632427D01*
X192214913Y-122473677D01*
X192217985Y-121509427D01*
X232891841Y-121509427D01*
X232894913Y-122473677D01*
X233053663Y-122632427D01*
X234652913Y-122632427D01*
X234652913Y-121033177D01*
X234906913Y-121033177D01*
X234906913Y-122632427D01*
X236506163Y-122632427D01*
X236664913Y-122473677D01*
X236667985Y-121509427D01*
X277341841Y-121509427D01*
X277344913Y-122473677D01*
X277503663Y-122632427D01*
X279102913Y-122632427D01*
X279102913Y-121033177D01*
X279356913Y-121033177D01*
X279356913Y-122632427D01*
X280956163Y-122632427D01*
X281114913Y-122473677D01*
X281117985Y-121509427D01*
X321701929Y-121509427D01*
X321705001Y-122473677D01*
X321863751Y-122632427D01*
X323463001Y-122632427D01*
X323463001Y-121033177D01*
X323717001Y-121033177D01*
X323717001Y-122632427D01*
X325316251Y-122632427D01*
X325475001Y-122473677D01*
X325478073Y-121509427D01*
X366241841Y-121509427D01*
X366244913Y-122473677D01*
X366403663Y-122632427D01*
X368002913Y-122632427D01*
X368002913Y-121033177D01*
X368256913Y-121033177D01*
X368256913Y-122632427D01*
X369856163Y-122632427D01*
X370014913Y-122473677D01*
X370017985Y-121509427D01*
X370005725Y-121384945D01*
X369969415Y-121265247D01*
X369910450Y-121154933D01*
X369831098Y-121058242D01*
X369734407Y-120978890D01*
X369624093Y-120919925D01*
X369504395Y-120883615D01*
X369379913Y-120871355D01*
X368415663Y-120874427D01*
X368256913Y-121033177D01*
X368002913Y-121033177D01*
X367844163Y-120874427D01*
X366879913Y-120871355D01*
X366755431Y-120883615D01*
X366635733Y-120919925D01*
X366525419Y-120978890D01*
X366428728Y-121058242D01*
X366349376Y-121154933D01*
X366290411Y-121265247D01*
X366254101Y-121384945D01*
X366241841Y-121509427D01*
X325478073Y-121509427D01*
X325465813Y-121384945D01*
X325429503Y-121265247D01*
X325370538Y-121154933D01*
X325291186Y-121058242D01*
X325194495Y-120978890D01*
X325084181Y-120919925D01*
X324964483Y-120883615D01*
X324840001Y-120871355D01*
X323875751Y-120874427D01*
X323717001Y-121033177D01*
X323463001Y-121033177D01*
X323304251Y-120874427D01*
X322340001Y-120871355D01*
X322215519Y-120883615D01*
X322095821Y-120919925D01*
X321985507Y-120978890D01*
X321888816Y-121058242D01*
X321809464Y-121154933D01*
X321750499Y-121265247D01*
X321714189Y-121384945D01*
X321701929Y-121509427D01*
X281117985Y-121509427D01*
X281105725Y-121384945D01*
X281069415Y-121265247D01*
X281010450Y-121154933D01*
X280931098Y-121058242D01*
X280834407Y-120978890D01*
X280724093Y-120919925D01*
X280604395Y-120883615D01*
X280479913Y-120871355D01*
X279515663Y-120874427D01*
X279356913Y-121033177D01*
X279102913Y-121033177D01*
X278944163Y-120874427D01*
X277979913Y-120871355D01*
X277855431Y-120883615D01*
X277735733Y-120919925D01*
X277625419Y-120978890D01*
X277528728Y-121058242D01*
X277449376Y-121154933D01*
X277390411Y-121265247D01*
X277354101Y-121384945D01*
X277341841Y-121509427D01*
X236667985Y-121509427D01*
X236655725Y-121384945D01*
X236619415Y-121265247D01*
X236560450Y-121154933D01*
X236481098Y-121058242D01*
X236384407Y-120978890D01*
X236274093Y-120919925D01*
X236154395Y-120883615D01*
X236029913Y-120871355D01*
X235065663Y-120874427D01*
X234906913Y-121033177D01*
X234652913Y-121033177D01*
X234494163Y-120874427D01*
X233529913Y-120871355D01*
X233405431Y-120883615D01*
X233285733Y-120919925D01*
X233175419Y-120978890D01*
X233078728Y-121058242D01*
X232999376Y-121154933D01*
X232940411Y-121265247D01*
X232904101Y-121384945D01*
X232891841Y-121509427D01*
X192217985Y-121509427D01*
X192205725Y-121384945D01*
X192169415Y-121265247D01*
X192110450Y-121154933D01*
X192031098Y-121058242D01*
X191934407Y-120978890D01*
X191824093Y-120919925D01*
X191704395Y-120883615D01*
X191579913Y-120871355D01*
X190615663Y-120874427D01*
X190456913Y-121033177D01*
X190202913Y-121033177D01*
X190044163Y-120874427D01*
X189079913Y-120871355D01*
X188955431Y-120883615D01*
X188835733Y-120919925D01*
X188725419Y-120978890D01*
X188628728Y-121058242D01*
X188549376Y-121154933D01*
X188490411Y-121265247D01*
X188454101Y-121384945D01*
X188441841Y-121509427D01*
X147767985Y-121509427D01*
X147755725Y-121384945D01*
X147719415Y-121265247D01*
X147660450Y-121154933D01*
X147581098Y-121058242D01*
X147484407Y-120978890D01*
X147374093Y-120919925D01*
X147254395Y-120883615D01*
X147129913Y-120871355D01*
X146165663Y-120874427D01*
X146006913Y-121033177D01*
X145752913Y-121033177D01*
X145594163Y-120874427D01*
X144629913Y-120871355D01*
X144505431Y-120883615D01*
X144385733Y-120919925D01*
X144275419Y-120978890D01*
X144178728Y-121058242D01*
X144099376Y-121154933D01*
X144040411Y-121265247D01*
X144004101Y-121384945D01*
X143991841Y-121509427D01*
X103317858Y-121509427D01*
X103314913Y-120585177D01*
X103156163Y-120426427D01*
X101556913Y-120426427D01*
X101302913Y-120426427D01*
X99703663Y-120426427D01*
X99544913Y-120585177D01*
X99541841Y-121549427D01*
X53786000Y-121549427D01*
X53786000Y-119049427D01*
X99541841Y-119049427D01*
X99544913Y-120013677D01*
X99703663Y-120172427D01*
X101302913Y-120172427D01*
X101302913Y-118573177D01*
X101556913Y-118573177D01*
X101556913Y-120172427D01*
X103156163Y-120172427D01*
X103314913Y-120013677D01*
X103317985Y-119049427D01*
X103314046Y-119009427D01*
X143991841Y-119009427D01*
X144004101Y-119133909D01*
X144040411Y-119253607D01*
X144099376Y-119363921D01*
X144178728Y-119460612D01*
X144275419Y-119539964D01*
X144385733Y-119598929D01*
X144505431Y-119635239D01*
X144629913Y-119647499D01*
X145594163Y-119644427D01*
X145752913Y-119485677D01*
X145752913Y-117886427D01*
X146006913Y-117886427D01*
X146006913Y-119485677D01*
X146165663Y-119644427D01*
X147129913Y-119647499D01*
X147254395Y-119635239D01*
X147374093Y-119598929D01*
X147484407Y-119539964D01*
X147581098Y-119460612D01*
X147660450Y-119363921D01*
X147719415Y-119253607D01*
X147755725Y-119133909D01*
X147767985Y-119009427D01*
X188441841Y-119009427D01*
X188454101Y-119133909D01*
X188490411Y-119253607D01*
X188549376Y-119363921D01*
X188628728Y-119460612D01*
X188725419Y-119539964D01*
X188835733Y-119598929D01*
X188955431Y-119635239D01*
X189079913Y-119647499D01*
X190044163Y-119644427D01*
X190202913Y-119485677D01*
X190202913Y-117886427D01*
X190456913Y-117886427D01*
X190456913Y-119485677D01*
X190615663Y-119644427D01*
X191579913Y-119647499D01*
X191704395Y-119635239D01*
X191824093Y-119598929D01*
X191934407Y-119539964D01*
X192031098Y-119460612D01*
X192110450Y-119363921D01*
X192169415Y-119253607D01*
X192205725Y-119133909D01*
X192217985Y-119009427D01*
X232891841Y-119009427D01*
X232904101Y-119133909D01*
X232940411Y-119253607D01*
X232999376Y-119363921D01*
X233078728Y-119460612D01*
X233175419Y-119539964D01*
X233285733Y-119598929D01*
X233405431Y-119635239D01*
X233529913Y-119647499D01*
X234494163Y-119644427D01*
X234652913Y-119485677D01*
X234652913Y-117886427D01*
X234906913Y-117886427D01*
X234906913Y-119485677D01*
X235065663Y-119644427D01*
X236029913Y-119647499D01*
X236154395Y-119635239D01*
X236274093Y-119598929D01*
X236384407Y-119539964D01*
X236481098Y-119460612D01*
X236560450Y-119363921D01*
X236619415Y-119253607D01*
X236655725Y-119133909D01*
X236667985Y-119009427D01*
X277341841Y-119009427D01*
X277354101Y-119133909D01*
X277390411Y-119253607D01*
X277449376Y-119363921D01*
X277528728Y-119460612D01*
X277625419Y-119539964D01*
X277735733Y-119598929D01*
X277855431Y-119635239D01*
X277979913Y-119647499D01*
X278944163Y-119644427D01*
X279102913Y-119485677D01*
X279102913Y-117886427D01*
X279356913Y-117886427D01*
X279356913Y-119485677D01*
X279515663Y-119644427D01*
X280479913Y-119647499D01*
X280604395Y-119635239D01*
X280724093Y-119598929D01*
X280834407Y-119539964D01*
X280931098Y-119460612D01*
X281010450Y-119363921D01*
X281069415Y-119253607D01*
X281105725Y-119133909D01*
X281117985Y-119009427D01*
X321701929Y-119009427D01*
X321714189Y-119133909D01*
X321750499Y-119253607D01*
X321809464Y-119363921D01*
X321888816Y-119460612D01*
X321985507Y-119539964D01*
X322095821Y-119598929D01*
X322215519Y-119635239D01*
X322340001Y-119647499D01*
X323304251Y-119644427D01*
X323463001Y-119485677D01*
X323463001Y-117886427D01*
X323717001Y-117886427D01*
X323717001Y-119485677D01*
X323875751Y-119644427D01*
X324840001Y-119647499D01*
X324964483Y-119635239D01*
X325084181Y-119598929D01*
X325194495Y-119539964D01*
X325291186Y-119460612D01*
X325370538Y-119363921D01*
X325429503Y-119253607D01*
X325465813Y-119133909D01*
X325478073Y-119009427D01*
X366241841Y-119009427D01*
X366254101Y-119133909D01*
X366290411Y-119253607D01*
X366349376Y-119363921D01*
X366428728Y-119460612D01*
X366525419Y-119539964D01*
X366635733Y-119598929D01*
X366755431Y-119635239D01*
X366879913Y-119647499D01*
X367844163Y-119644427D01*
X368002913Y-119485677D01*
X368002913Y-117886427D01*
X368256913Y-117886427D01*
X368256913Y-119485677D01*
X368415663Y-119644427D01*
X369379913Y-119647499D01*
X369504395Y-119635239D01*
X369624093Y-119598929D01*
X369734407Y-119539964D01*
X369831098Y-119460612D01*
X369910450Y-119363921D01*
X369969415Y-119253607D01*
X370005725Y-119133909D01*
X370017985Y-119009427D01*
X370014913Y-118045177D01*
X369856163Y-117886427D01*
X368256913Y-117886427D01*
X368002913Y-117886427D01*
X366403663Y-117886427D01*
X366244913Y-118045177D01*
X366241841Y-119009427D01*
X325478073Y-119009427D01*
X325475001Y-118045177D01*
X325316251Y-117886427D01*
X323717001Y-117886427D01*
X323463001Y-117886427D01*
X321863751Y-117886427D01*
X321705001Y-118045177D01*
X321701929Y-119009427D01*
X281117985Y-119009427D01*
X281114913Y-118045177D01*
X280956163Y-117886427D01*
X279356913Y-117886427D01*
X279102913Y-117886427D01*
X277503663Y-117886427D01*
X277344913Y-118045177D01*
X277341841Y-119009427D01*
X236667985Y-119009427D01*
X236664913Y-118045177D01*
X236506163Y-117886427D01*
X234906913Y-117886427D01*
X234652913Y-117886427D01*
X233053663Y-117886427D01*
X232894913Y-118045177D01*
X232891841Y-119009427D01*
X192217985Y-119009427D01*
X192214913Y-118045177D01*
X192056163Y-117886427D01*
X190456913Y-117886427D01*
X190202913Y-117886427D01*
X188603663Y-117886427D01*
X188444913Y-118045177D01*
X188441841Y-119009427D01*
X147767985Y-119009427D01*
X147764913Y-118045177D01*
X147606163Y-117886427D01*
X146006913Y-117886427D01*
X145752913Y-117886427D01*
X144153663Y-117886427D01*
X143994913Y-118045177D01*
X143991841Y-119009427D01*
X103314046Y-119009427D01*
X103305725Y-118924945D01*
X103269415Y-118805247D01*
X103210450Y-118694933D01*
X103131098Y-118598242D01*
X103034407Y-118518890D01*
X102924093Y-118459925D01*
X102804395Y-118423615D01*
X102679913Y-118411355D01*
X101715663Y-118414427D01*
X101556913Y-118573177D01*
X101302913Y-118573177D01*
X101144163Y-118414427D01*
X100179913Y-118411355D01*
X100055431Y-118423615D01*
X99935733Y-118459925D01*
X99825419Y-118518890D01*
X99728728Y-118598242D01*
X99649376Y-118694933D01*
X99590411Y-118805247D01*
X99554101Y-118924945D01*
X99541841Y-119049427D01*
X53786000Y-119049427D01*
X53786000Y-116509427D01*
X143991841Y-116509427D01*
X143994913Y-117473677D01*
X144153663Y-117632427D01*
X145752913Y-117632427D01*
X145752913Y-116033177D01*
X146006913Y-116033177D01*
X146006913Y-117632427D01*
X147606163Y-117632427D01*
X147764913Y-117473677D01*
X147767985Y-116509427D01*
X188441841Y-116509427D01*
X188444913Y-117473677D01*
X188603663Y-117632427D01*
X190202913Y-117632427D01*
X190202913Y-116033177D01*
X190456913Y-116033177D01*
X190456913Y-117632427D01*
X192056163Y-117632427D01*
X192214913Y-117473677D01*
X192217985Y-116509427D01*
X232891841Y-116509427D01*
X232894913Y-117473677D01*
X233053663Y-117632427D01*
X234652913Y-117632427D01*
X234652913Y-116033177D01*
X234906913Y-116033177D01*
X234906913Y-117632427D01*
X236506163Y-117632427D01*
X236664913Y-117473677D01*
X236667985Y-116509427D01*
X277341841Y-116509427D01*
X277344913Y-117473677D01*
X277503663Y-117632427D01*
X279102913Y-117632427D01*
X279102913Y-116033177D01*
X279356913Y-116033177D01*
X279356913Y-117632427D01*
X280956163Y-117632427D01*
X281114913Y-117473677D01*
X281117985Y-116509427D01*
X321701929Y-116509427D01*
X321705001Y-117473677D01*
X321863751Y-117632427D01*
X323463001Y-117632427D01*
X323463001Y-116033177D01*
X323717001Y-116033177D01*
X323717001Y-117632427D01*
X325316251Y-117632427D01*
X325475001Y-117473677D01*
X325478073Y-116509427D01*
X366241841Y-116509427D01*
X366244913Y-117473677D01*
X366403663Y-117632427D01*
X368002913Y-117632427D01*
X368002913Y-116033177D01*
X368256913Y-116033177D01*
X368256913Y-117632427D01*
X369856163Y-117632427D01*
X370014913Y-117473677D01*
X370017985Y-116509427D01*
X370005725Y-116384945D01*
X369969415Y-116265247D01*
X369910450Y-116154933D01*
X369831098Y-116058242D01*
X369734407Y-115978890D01*
X369624093Y-115919925D01*
X369504395Y-115883615D01*
X369379913Y-115871355D01*
X368415663Y-115874427D01*
X368256913Y-116033177D01*
X368002913Y-116033177D01*
X367844163Y-115874427D01*
X366879913Y-115871355D01*
X366755431Y-115883615D01*
X366635733Y-115919925D01*
X366525419Y-115978890D01*
X366428728Y-116058242D01*
X366349376Y-116154933D01*
X366290411Y-116265247D01*
X366254101Y-116384945D01*
X366241841Y-116509427D01*
X325478073Y-116509427D01*
X325465813Y-116384945D01*
X325429503Y-116265247D01*
X325370538Y-116154933D01*
X325291186Y-116058242D01*
X325194495Y-115978890D01*
X325084181Y-115919925D01*
X324964483Y-115883615D01*
X324840001Y-115871355D01*
X323875751Y-115874427D01*
X323717001Y-116033177D01*
X323463001Y-116033177D01*
X323304251Y-115874427D01*
X322340001Y-115871355D01*
X322215519Y-115883615D01*
X322095821Y-115919925D01*
X321985507Y-115978890D01*
X321888816Y-116058242D01*
X321809464Y-116154933D01*
X321750499Y-116265247D01*
X321714189Y-116384945D01*
X321701929Y-116509427D01*
X281117985Y-116509427D01*
X281105725Y-116384945D01*
X281069415Y-116265247D01*
X281010450Y-116154933D01*
X280931098Y-116058242D01*
X280834407Y-115978890D01*
X280724093Y-115919925D01*
X280604395Y-115883615D01*
X280479913Y-115871355D01*
X279515663Y-115874427D01*
X279356913Y-116033177D01*
X279102913Y-116033177D01*
X278944163Y-115874427D01*
X277979913Y-115871355D01*
X277855431Y-115883615D01*
X277735733Y-115919925D01*
X277625419Y-115978890D01*
X277528728Y-116058242D01*
X277449376Y-116154933D01*
X277390411Y-116265247D01*
X277354101Y-116384945D01*
X277341841Y-116509427D01*
X236667985Y-116509427D01*
X236655725Y-116384945D01*
X236619415Y-116265247D01*
X236560450Y-116154933D01*
X236481098Y-116058242D01*
X236384407Y-115978890D01*
X236274093Y-115919925D01*
X236154395Y-115883615D01*
X236029913Y-115871355D01*
X235065663Y-115874427D01*
X234906913Y-116033177D01*
X234652913Y-116033177D01*
X234494163Y-115874427D01*
X233529913Y-115871355D01*
X233405431Y-115883615D01*
X233285733Y-115919925D01*
X233175419Y-115978890D01*
X233078728Y-116058242D01*
X232999376Y-116154933D01*
X232940411Y-116265247D01*
X232904101Y-116384945D01*
X232891841Y-116509427D01*
X192217985Y-116509427D01*
X192205725Y-116384945D01*
X192169415Y-116265247D01*
X192110450Y-116154933D01*
X192031098Y-116058242D01*
X191934407Y-115978890D01*
X191824093Y-115919925D01*
X191704395Y-115883615D01*
X191579913Y-115871355D01*
X190615663Y-115874427D01*
X190456913Y-116033177D01*
X190202913Y-116033177D01*
X190044163Y-115874427D01*
X189079913Y-115871355D01*
X188955431Y-115883615D01*
X188835733Y-115919925D01*
X188725419Y-115978890D01*
X188628728Y-116058242D01*
X188549376Y-116154933D01*
X188490411Y-116265247D01*
X188454101Y-116384945D01*
X188441841Y-116509427D01*
X147767985Y-116509427D01*
X147755725Y-116384945D01*
X147719415Y-116265247D01*
X147660450Y-116154933D01*
X147581098Y-116058242D01*
X147484407Y-115978890D01*
X147374093Y-115919925D01*
X147254395Y-115883615D01*
X147129913Y-115871355D01*
X146165663Y-115874427D01*
X146006913Y-116033177D01*
X145752913Y-116033177D01*
X145594163Y-115874427D01*
X144629913Y-115871355D01*
X144505431Y-115883615D01*
X144385733Y-115919925D01*
X144275419Y-115978890D01*
X144178728Y-116058242D01*
X144099376Y-116154933D01*
X144040411Y-116265247D01*
X144004101Y-116384945D01*
X143991841Y-116509427D01*
X53786000Y-116509427D01*
X53786000Y-105256873D01*
X54702332Y-105256873D01*
X54702332Y-105551927D01*
X54759894Y-105841312D01*
X54872806Y-106113907D01*
X55036730Y-106359235D01*
X55245365Y-106567870D01*
X55490693Y-106731794D01*
X55763288Y-106844706D01*
X56052673Y-106902268D01*
X56347727Y-106902268D01*
X56637112Y-106844706D01*
X56909707Y-106731794D01*
X57155035Y-106567870D01*
X57363670Y-106359235D01*
X57527594Y-106113907D01*
X57640506Y-105841312D01*
X57698068Y-105551927D01*
X57698068Y-105256873D01*
X57640506Y-104967488D01*
X57527594Y-104694893D01*
X57363670Y-104449565D01*
X57155035Y-104240930D01*
X56909707Y-104077006D01*
X56637112Y-103964094D01*
X56347727Y-103906532D01*
X56052673Y-103906532D01*
X55763288Y-103964094D01*
X55490693Y-104077006D01*
X55245365Y-104240930D01*
X55036730Y-104449565D01*
X54872806Y-104694893D01*
X54759894Y-104967488D01*
X54702332Y-105256873D01*
X53786000Y-105256873D01*
X53786000Y-101898142D01*
X62368819Y-101899857D01*
X62360058Y-107164533D01*
X62356565Y-107200000D01*
X62363379Y-107269188D01*
X62370043Y-107338019D01*
X62370214Y-107338587D01*
X62370273Y-107339184D01*
X62390520Y-107405928D01*
X62410419Y-107471922D01*
X62410698Y-107472446D01*
X62410872Y-107473020D01*
X62443777Y-107534581D01*
X62476142Y-107595375D01*
X62476517Y-107595833D01*
X62476800Y-107596363D01*
X62521153Y-107650408D01*
X62564687Y-107703634D01*
X62565143Y-107704009D01*
X62565525Y-107704475D01*
X62619580Y-107748836D01*
X62672651Y-107792539D01*
X62673173Y-107792819D01*
X62673637Y-107793200D01*
X62735237Y-107826126D01*
X62795884Y-107858672D01*
X62796450Y-107858845D01*
X62796980Y-107859128D01*
X62863710Y-107879370D01*
X62929652Y-107899494D01*
X62930243Y-107899553D01*
X62930816Y-107899727D01*
X62999953Y-107906536D01*
X63068813Y-107913434D01*
X63104283Y-107910000D01*
X74045123Y-107910000D01*
X74080000Y-107913435D01*
X74114877Y-107910000D01*
X74219184Y-107899727D01*
X74353020Y-107859128D01*
X74476363Y-107793200D01*
X74584475Y-107704475D01*
X74673200Y-107596363D01*
X74739128Y-107473020D01*
X74779727Y-107339184D01*
X74793435Y-107200000D01*
X74790000Y-107165123D01*
X74790000Y-105269603D01*
X120691842Y-105269603D01*
X120691842Y-105564597D01*
X120749392Y-105853922D01*
X120862281Y-106126460D01*
X121026171Y-106371738D01*
X121234762Y-106580329D01*
X121480040Y-106744219D01*
X121752578Y-106857108D01*
X122041903Y-106914658D01*
X122336897Y-106914658D01*
X122626222Y-106857108D01*
X122898760Y-106744219D01*
X123144038Y-106580329D01*
X123352629Y-106371738D01*
X123516519Y-106126460D01*
X123629408Y-105853922D01*
X123686958Y-105564597D01*
X123686958Y-105269603D01*
X123684426Y-105256873D01*
X263426832Y-105256873D01*
X263426832Y-105551927D01*
X263484394Y-105841312D01*
X263597306Y-106113907D01*
X263761230Y-106359235D01*
X263969865Y-106567870D01*
X264215193Y-106731794D01*
X264487788Y-106844706D01*
X264777173Y-106902268D01*
X265072227Y-106902268D01*
X265361612Y-106844706D01*
X265634207Y-106731794D01*
X265879535Y-106567870D01*
X266088170Y-106359235D01*
X266252094Y-106113907D01*
X266365006Y-105841312D01*
X266422568Y-105551927D01*
X266422568Y-105256873D01*
X266365006Y-104967488D01*
X266252094Y-104694893D01*
X266088170Y-104449565D01*
X265879535Y-104240930D01*
X265634207Y-104077006D01*
X265361612Y-103964094D01*
X265072227Y-103906532D01*
X264777173Y-103906532D01*
X264487788Y-103964094D01*
X264215193Y-104077006D01*
X263969865Y-104240930D01*
X263761230Y-104449565D01*
X263597306Y-104694893D01*
X263484394Y-104967488D01*
X263426832Y-105256873D01*
X123684426Y-105256873D01*
X123629408Y-104980278D01*
X123516519Y-104707740D01*
X123352629Y-104462462D01*
X123144038Y-104253871D01*
X122898760Y-104089981D01*
X122626222Y-103977092D01*
X122336897Y-103919542D01*
X122041903Y-103919542D01*
X121752578Y-103977092D01*
X121480040Y-104089981D01*
X121234762Y-104253871D01*
X121026171Y-104462462D01*
X120862281Y-104707740D01*
X120749392Y-104980278D01*
X120691842Y-105269603D01*
X74790000Y-105269603D01*
X74790000Y-101890019D01*
X373253000Y-101897974D01*
G37*
G04 #@! TD.AperFunction*
M02*
