G04 (created by PCBNEW (2013-june-11)-stable) date Sun 22 Dec 2013 01:43:27 AM CST*
%MOIN*%
G04 Gerber Fmt 3.4, Leading zero omitted, Abs format*
%FSLAX34Y34*%
G01*
G70*
G90*
G04 APERTURE LIST*
%ADD10C,0.00590551*%
%ADD11C,0.015*%
%ADD12R,0.16X0.06*%
%ADD13R,0.16X0.08*%
%ADD14C,0.18*%
%ADD15R,0.0476X0.0476*%
%ADD16C,0.0987*%
%ADD17R,0.0987X0.0987*%
G04 APERTURE END LIST*
G54D10*
G54D11*
X59122Y-27015D02*
X35114Y-27015D01*
X66607Y-58488D02*
X66607Y-34504D01*
X35114Y-65984D02*
X59142Y-65984D01*
X27638Y-58504D02*
X27638Y-34500D01*
X33390Y-64256D02*
X35110Y-65976D01*
X27643Y-58508D02*
X27642Y-58508D01*
X29351Y-60216D02*
X27643Y-58508D01*
X59142Y-65969D02*
X59142Y-65980D01*
X60851Y-64260D02*
X59142Y-65969D01*
X66607Y-58503D02*
X66607Y-58500D01*
X64890Y-60220D02*
X66607Y-58503D01*
X66603Y-34492D02*
X66603Y-34496D01*
X64886Y-32775D02*
X66603Y-34492D01*
X59126Y-27015D02*
X59126Y-27012D01*
X60843Y-28732D02*
X59126Y-27015D01*
X33402Y-28728D02*
X35118Y-27012D01*
X27638Y-34495D02*
X27638Y-34496D01*
X29358Y-32775D02*
X27638Y-34495D01*
X29355Y-32779D02*
X33402Y-28732D01*
X64890Y-32779D02*
X60843Y-28732D01*
X60843Y-64267D02*
X64890Y-60220D01*
X33402Y-64267D02*
X29358Y-60223D01*
G54D12*
X48086Y-35426D03*
X48086Y-36226D03*
G54D13*
X45866Y-36946D03*
X45866Y-34706D03*
G54D14*
X34134Y-40787D03*
X37677Y-40787D03*
X40039Y-46496D03*
X54212Y-46496D03*
G54D15*
X49823Y-35433D03*
X49389Y-35433D03*
G54D16*
X47126Y-46496D03*
X49095Y-46496D03*
X45158Y-46496D03*
X33070Y-37401D03*
X34842Y-37401D03*
G54D17*
X33070Y-38582D03*
X47136Y-45482D03*
M02*
