M48
;DRILL file {kicad (after 2015-mar-04 BZR unknown)-product} date Wed 15 Apr 2015 11:54:59 AM CDT
;FORMAT={2:4/ absolute / inch / keep zeros}
FMAT,2
INCH,TZ
T1C0.025
T2C0.039
T3C0.120
%
G90
G05
M72
T1
X032470Y-054545
X033055Y-054545
X033635Y-054535
X034225Y-054525
X034835Y-054515
X043898Y-032283
X043898Y-032874
X043898Y-039764
X043898Y-040354
X044340Y-062695
X044488Y-032283
X044488Y-032874
X044488Y-039764
X044488Y-040354
X044940Y-062695
X045079Y-032283
X045079Y-032874
X045079Y-039764
X045079Y-040354
X045530Y-062690
X045748Y-047677
X045748Y-048267
X046120Y-062700
X046142Y-047677
X046142Y-048267
X046614Y-047638
X046735Y-062700
X051772Y-034843
X051772Y-035433
X051772Y-036024
X052362Y-034843
X052362Y-035433
X052362Y-036024
X052953Y-034843
X052953Y-035433
X052953Y-036024
X053543Y-034843
X053543Y-035433
X053543Y-036024
X054134Y-034843
X054134Y-035433
X054134Y-036024
X056070Y-054120
X056660Y-054115
X057260Y-054120
X057283Y-039764
X057283Y-040354
X057874Y-039764
X057874Y-040354
X057910Y-054125
X058465Y-039764
X058465Y-040354
X058505Y-054120
T2
X033071Y-037402
X034843Y-037402
X045158Y-046496
X047126Y-046496
X049095Y-046496
T3
X034134Y-040787
X037677Y-040787
X040039Y-046496
X054213Y-046496
T0
M30
