G04 (created by PCBNEW (2013-june-11)-stable) date Sun 22 Dec 2013 01:43:27 AM CST*
%MOIN*%
G04 Gerber Fmt 3.4, Leading zero omitted, Abs format*
%FSLAX34Y34*%
G01*
G70*
G90*
G04 APERTURE LIST*
%ADD10C,0.00590551*%
%ADD11C,0.015*%
G04 APERTURE END LIST*
G54D10*
G54D11*
X59122Y-27015D02*
X35114Y-27015D01*
X66607Y-58488D02*
X66607Y-34504D01*
X35114Y-65984D02*
X59142Y-65984D01*
X27638Y-58504D02*
X27638Y-34500D01*
X33390Y-64256D02*
X35110Y-65976D01*
X27643Y-58508D02*
X27642Y-58508D01*
X29351Y-60216D02*
X27643Y-58508D01*
X59142Y-65969D02*
X59142Y-65980D01*
X60851Y-64260D02*
X59142Y-65969D01*
X66607Y-58503D02*
X66607Y-58500D01*
X64890Y-60220D02*
X66607Y-58503D01*
X66603Y-34492D02*
X66603Y-34496D01*
X64886Y-32775D02*
X66603Y-34492D01*
X59126Y-27015D02*
X59126Y-27012D01*
X60843Y-28732D02*
X59126Y-27015D01*
X33402Y-28728D02*
X35118Y-27012D01*
X27638Y-34495D02*
X27638Y-34496D01*
X29358Y-32775D02*
X27638Y-34495D01*
X34622Y-29957D02*
X33402Y-28737D01*
X30579Y-34000D02*
X34622Y-29957D01*
X29358Y-32779D02*
X30579Y-34000D01*
X29355Y-32779D02*
X33402Y-28732D01*
X63666Y-33999D02*
X64886Y-32779D01*
X59623Y-29956D02*
X63666Y-33999D01*
X60843Y-28736D02*
X59623Y-29956D01*
X64890Y-32779D02*
X60843Y-28732D01*
X63666Y-59002D02*
X64884Y-60220D01*
X59622Y-63046D02*
X63666Y-59002D01*
X60843Y-64267D02*
X59622Y-63046D01*
X60843Y-64267D02*
X64890Y-60220D01*
X30579Y-59004D02*
X29363Y-60220D01*
X34622Y-63047D02*
X30579Y-59004D01*
X33402Y-64267D02*
X34622Y-63047D01*
X33402Y-64267D02*
X29358Y-60223D01*
X35034Y-40787D02*
G75*
G03X35034Y-40787I-900J0D01*
G74*
G01*
X38577Y-40787D02*
G75*
G03X38577Y-40787I-900J0D01*
G74*
G01*
X40939Y-46496D02*
G75*
G03X40939Y-46496I-900J0D01*
G74*
G01*
X55112Y-46496D02*
G75*
G03X55112Y-46496I-900J0D01*
G74*
G01*
X48026Y-46496D02*
G75*
G03X48026Y-46496I-900J0D01*
G74*
G01*
X49995Y-46496D02*
G75*
G03X49995Y-46496I-900J0D01*
G74*
G01*
X46058Y-46496D02*
G75*
G03X46058Y-46496I-900J0D01*
G74*
G01*
X33970Y-37401D02*
G75*
G03X33970Y-37401I-900J0D01*
G74*
G01*
X35742Y-37401D02*
G75*
G03X35742Y-37401I-900J0D01*
G74*
G01*
X47382Y-47913D02*
X47382Y-49685D01*
X47382Y-49724D02*
X46516Y-49724D01*
X46516Y-49685D02*
X46516Y-47913D01*
X46516Y-47913D02*
X47382Y-47913D01*
X45669Y-55048D02*
X34139Y-51178D01*
X34139Y-51178D02*
X33129Y-49978D01*
X45669Y-55048D02*
X45669Y-49978D01*
X45669Y-49978D02*
X33129Y-49978D01*
X33070Y-51251D02*
X44600Y-55121D01*
X44600Y-55121D02*
X45610Y-56321D01*
X33070Y-51251D02*
X33070Y-56321D01*
X33070Y-56321D02*
X45610Y-56321D01*
X53346Y-62725D02*
X41816Y-58855D01*
X41816Y-58855D02*
X40806Y-57655D01*
X53346Y-62725D02*
X53346Y-57655D01*
X53346Y-57655D02*
X40806Y-57655D01*
X40748Y-58928D02*
X52278Y-62798D01*
X52278Y-62798D02*
X53288Y-63998D01*
X40748Y-58928D02*
X40748Y-63998D01*
X40748Y-63998D02*
X53288Y-63998D01*
X60826Y-55048D02*
X49296Y-51178D01*
X49296Y-51178D02*
X48286Y-49978D01*
X60826Y-55048D02*
X60826Y-49978D01*
X60826Y-49978D02*
X48286Y-49978D01*
X48228Y-51251D02*
X59758Y-55121D01*
X59758Y-55121D02*
X60768Y-56321D01*
X48228Y-51251D02*
X48228Y-56321D01*
X48228Y-56321D02*
X60768Y-56321D01*
X65944Y-41071D02*
X54414Y-37201D01*
X54414Y-37201D02*
X53404Y-36001D01*
X65944Y-41071D02*
X65944Y-36001D01*
X65944Y-36001D02*
X53404Y-36001D01*
X53346Y-37274D02*
X64876Y-41144D01*
X64876Y-41144D02*
X65886Y-42344D01*
X53346Y-37274D02*
X53346Y-42344D01*
X53346Y-42344D02*
X65886Y-42344D01*
X52559Y-33591D02*
X41029Y-29721D01*
X41029Y-29721D02*
X40019Y-28521D01*
X52559Y-33591D02*
X52559Y-28521D01*
X52559Y-28521D02*
X40019Y-28521D01*
X39960Y-29794D02*
X51490Y-33664D01*
X51490Y-33664D02*
X52500Y-34864D01*
X39960Y-29794D02*
X39960Y-34864D01*
X39960Y-34864D02*
X52500Y-34864D01*
X52559Y-41071D02*
X41029Y-37201D01*
X41029Y-37201D02*
X40019Y-36001D01*
X52559Y-41071D02*
X52559Y-36001D01*
X52559Y-36001D02*
X40019Y-36001D01*
X39960Y-37274D02*
X51490Y-41144D01*
X51490Y-41144D02*
X52500Y-42344D01*
X39960Y-37274D02*
X39960Y-42344D01*
X39960Y-42344D02*
X52500Y-42344D01*
M02*
