G04 #@! TF.FileFunction,Copper,L2,Bot,Signal*
%FSLAX46Y46*%
G04 Gerber Fmt 4.6, Leading zero omitted, Abs format (unit mm)*
G04 Created by KiCad (PCBNEW (after 2015-mar-04 BZR unknown)-product) date Wed 15 Apr 2015 11:54:57 AM CDT*
%MOMM*%
G01*
G04 APERTURE LIST*
%ADD10C,0.150000*%
%ADD11C,0.381000*%
%ADD12R,3.556000X1.016000*%
%ADD13R,3.556000X1.524000*%
%ADD14C,4.064000*%
%ADD15R,0.701040X0.701040*%
%ADD16C,1.998980*%
%ADD17R,1.998980X1.998980*%
%ADD18C,0.889000*%
%ADD19C,0.203200*%
%ADD20C,0.500000*%
%ADD21C,0.254000*%
G04 APERTURE END LIST*
D10*
D11*
X150190200Y-167589200D02*
X89166700Y-167589200D01*
X89166700Y-167589200D02*
X70205600Y-148628100D01*
X150190200Y-68630800D02*
X169176700Y-87617300D01*
X70205600Y-87617300D02*
X89192100Y-68630800D01*
X169176700Y-148602700D02*
X150190200Y-167589200D01*
X169176700Y-87617300D02*
X169176700Y-148602700D01*
X89192100Y-68630800D02*
X150190200Y-68630800D01*
X70205600Y-148628100D02*
X70205600Y-87617300D01*
X127102752Y-139179300D02*
G75*
G03X127102752Y-139179300I-8472052J0D01*
G01*
X169181780Y-148597620D02*
X169181780Y-148590000D01*
X169171620Y-87609680D02*
X169171620Y-87619840D01*
D12*
X122138800Y-89984000D03*
X122138800Y-92016000D03*
D13*
X116500000Y-93844800D03*
X116500000Y-88155200D03*
D14*
X86700360Y-103598980D03*
X95699580Y-103598980D03*
X101700000Y-118100000D03*
X137700000Y-118100000D03*
D15*
X126551180Y-90000000D03*
X125448820Y-90000000D03*
D16*
X119700040Y-118099840D03*
X124701300Y-118099840D03*
X114701320Y-118099840D03*
X84000000Y-95000000D03*
X88500000Y-95000000D03*
D17*
X84000000Y-98000000D03*
X119725440Y-115524280D03*
D18*
X137500000Y-91500000D03*
X137500000Y-90000000D03*
X137500000Y-88500000D03*
X136000000Y-88500000D03*
X136000000Y-90000000D03*
X136000000Y-91500000D03*
X134500000Y-91500000D03*
X134500000Y-90000000D03*
X134500000Y-88500000D03*
X133000000Y-88500000D03*
X133000000Y-90000000D03*
X133000000Y-91500000D03*
X131500000Y-91500000D03*
X131500000Y-90000000D03*
X131500000Y-88500000D03*
X148500000Y-101000000D03*
X148500000Y-102500000D03*
X145500000Y-102500000D03*
X145500000Y-101000000D03*
X147000000Y-101000000D03*
X147000000Y-102500000D03*
X114500000Y-101000000D03*
X114500000Y-102500000D03*
X111500000Y-102500000D03*
X111500000Y-101000000D03*
X113000000Y-101000000D03*
X113000000Y-102500000D03*
X114500000Y-82000000D03*
X114500000Y-83500000D03*
X111500000Y-83500000D03*
X111500000Y-82000000D03*
X113000000Y-82000000D03*
X113000000Y-83500000D03*
X116199920Y-122598180D03*
X116199920Y-121099580D03*
X118399560Y-121000520D03*
X117200680Y-122598180D03*
X117200680Y-121099580D03*
X115646200Y-159232600D03*
X114147600Y-159245300D03*
X112623600Y-159245300D03*
X117144800Y-159258000D03*
X118706900Y-159258000D03*
X145440400Y-137464800D03*
X147091400Y-137477500D03*
X148602700Y-137464800D03*
X143916400Y-137452100D03*
X142417800Y-137464800D03*
X85432900Y-138518900D03*
X83959700Y-138544300D03*
X82473800Y-138544300D03*
X86931500Y-138493500D03*
X88480900Y-138468100D03*
D11*
X137500000Y-88500000D02*
X137500000Y-90000000D01*
X136000000Y-90000000D02*
X136000000Y-88500000D01*
X134500000Y-91500000D02*
X136000000Y-91500000D01*
X134500000Y-88500000D02*
X134500000Y-90000000D01*
X133000000Y-90000000D02*
X133000000Y-88500000D01*
X131500000Y-91500000D02*
X133000000Y-91500000D01*
X131500000Y-88500000D02*
X131500000Y-90000000D01*
D19*
X148500000Y-102500000D02*
X148500000Y-101000000D01*
X145500000Y-101000000D02*
X145500000Y-102500000D01*
X147000000Y-102500000D02*
X147000000Y-101000000D01*
X114500000Y-102500000D02*
X114500000Y-101000000D01*
X111500000Y-101000000D02*
X111500000Y-102500000D01*
X113000000Y-102500000D02*
X113000000Y-101000000D01*
X114500000Y-83500000D02*
X114500000Y-82000000D01*
X111500000Y-82000000D02*
X111500000Y-83500000D01*
X113000000Y-83500000D02*
X113000000Y-82000000D01*
X116199920Y-121099580D02*
X116199920Y-122598180D01*
X117200680Y-122598180D02*
X117200680Y-121099580D01*
X115646200Y-159232600D02*
X115633500Y-159245300D01*
X115633500Y-159245300D02*
X114147600Y-159245300D01*
X112623600Y-159245300D02*
X112636300Y-159258000D01*
X112636300Y-159258000D02*
X117144800Y-159258000D01*
X145440400Y-137464800D02*
X147002500Y-137464800D01*
X147002500Y-137464800D02*
X147015200Y-137477500D01*
X147015200Y-137477500D02*
X147091400Y-137477500D01*
X148602700Y-137464800D02*
X148590000Y-137452100D01*
X148590000Y-137452100D02*
X143916400Y-137452100D01*
X85432900Y-138518900D02*
X85407500Y-138544300D01*
X85407500Y-138544300D02*
X83959700Y-138544300D01*
X82473800Y-138544300D02*
X82524600Y-138493500D01*
X82524600Y-138493500D02*
X86931500Y-138493500D01*
D20*
X125448820Y-90000000D02*
X122154800Y-90000000D01*
X122154800Y-90000000D02*
X122138800Y-89984000D01*
D21*
G36*
X163873180Y-147945320D02*
X149446970Y-162272980D01*
X140367462Y-162272980D01*
X140367462Y-117571828D01*
X139962291Y-116591239D01*
X139627000Y-116255362D01*
X139627000Y-93627000D01*
X139627000Y-86873000D01*
X119373000Y-86873000D01*
X119373000Y-91127000D01*
X119843774Y-91127000D01*
X119822473Y-91148302D01*
X119725800Y-91381691D01*
X119725800Y-91730250D01*
X119884550Y-91889000D01*
X122011800Y-91889000D01*
X122011800Y-91869000D01*
X122265800Y-91869000D01*
X122265800Y-91889000D01*
X124393050Y-91889000D01*
X124551800Y-91730250D01*
X124551800Y-91381691D01*
X124455127Y-91148302D01*
X124433825Y-91127000D01*
X124873000Y-91127000D01*
X124873000Y-93627000D01*
X139627000Y-93627000D01*
X139627000Y-116255362D01*
X139212707Y-115840345D01*
X138232827Y-115433464D01*
X137171828Y-115432538D01*
X136191239Y-115837709D01*
X135440345Y-116587293D01*
X135033464Y-117567173D01*
X135032538Y-118628172D01*
X135437709Y-119608761D01*
X136187293Y-120359655D01*
X137167173Y-120766536D01*
X138228172Y-120767462D01*
X139208761Y-120362291D01*
X139959655Y-119612707D01*
X140366536Y-118632827D01*
X140367462Y-117571828D01*
X140367462Y-162272980D01*
X139192247Y-162272980D01*
X139192233Y-162280600D01*
X134849068Y-162280600D01*
X134849096Y-162272980D01*
X127928252Y-162272980D01*
X127928252Y-139179300D01*
X127220518Y-135621281D01*
X126336074Y-134297617D01*
X126336074Y-117776146D01*
X126087762Y-117175185D01*
X125628373Y-116714994D01*
X125027847Y-116465634D01*
X124551800Y-116465218D01*
X124551800Y-92650309D01*
X124551800Y-92301750D01*
X124393050Y-92143000D01*
X122265800Y-92143000D01*
X122265800Y-93000250D01*
X122424550Y-93159000D01*
X123790491Y-93159000D01*
X124043110Y-93159000D01*
X124276499Y-93062327D01*
X124455127Y-92883698D01*
X124551800Y-92650309D01*
X124551800Y-116465218D01*
X124377606Y-116465066D01*
X123776645Y-116713378D01*
X123316454Y-117172767D01*
X123067094Y-117773293D01*
X123066526Y-118423534D01*
X123314838Y-119024495D01*
X123774227Y-119484686D01*
X124374753Y-119734046D01*
X125024994Y-119734614D01*
X125625955Y-119486302D01*
X126086146Y-119026913D01*
X126335506Y-118426387D01*
X126336074Y-117776146D01*
X126336074Y-134297617D01*
X125205062Y-132604938D01*
X122188719Y-130589482D01*
X122011800Y-130554290D01*
X122011800Y-93000250D01*
X122011800Y-92143000D01*
X119884550Y-92143000D01*
X119725800Y-92301750D01*
X119725800Y-92650309D01*
X119822473Y-92883698D01*
X120001101Y-93062327D01*
X120234490Y-93159000D01*
X120487109Y-93159000D01*
X121853050Y-93159000D01*
X122011800Y-93000250D01*
X122011800Y-130554290D01*
X121359930Y-130424625D01*
X121359930Y-116650080D01*
X121359930Y-116397461D01*
X121359930Y-115810030D01*
X121359930Y-115238530D01*
X121359930Y-114651099D01*
X121359930Y-114398480D01*
X121263257Y-114165091D01*
X121084628Y-113986463D01*
X120851239Y-113889790D01*
X120011190Y-113889790D01*
X119852440Y-114048540D01*
X119852440Y-115397280D01*
X121201180Y-115397280D01*
X121359930Y-115238530D01*
X121359930Y-115810030D01*
X121201180Y-115651280D01*
X119852440Y-115651280D01*
X119852440Y-115671280D01*
X119598440Y-115671280D01*
X119598440Y-115651280D01*
X119598440Y-115397280D01*
X119598440Y-114048540D01*
X119439690Y-113889790D01*
X118925440Y-113889790D01*
X118925440Y-94606800D01*
X118925440Y-93082800D01*
X118925440Y-88917200D01*
X118925440Y-87393200D01*
X118878463Y-87151077D01*
X118738673Y-86938273D01*
X118527640Y-86795823D01*
X118278000Y-86745760D01*
X114722000Y-86745760D01*
X114479877Y-86792737D01*
X114267073Y-86932527D01*
X114124623Y-87143560D01*
X114074560Y-87393200D01*
X114074560Y-88917200D01*
X114121537Y-89159323D01*
X114261327Y-89372127D01*
X114472360Y-89514577D01*
X114722000Y-89564640D01*
X118278000Y-89564640D01*
X118520123Y-89517663D01*
X118732927Y-89377873D01*
X118875377Y-89166840D01*
X118925440Y-88917200D01*
X118925440Y-93082800D01*
X118878463Y-92840677D01*
X118738673Y-92627873D01*
X118527640Y-92485423D01*
X118278000Y-92435360D01*
X114722000Y-92435360D01*
X114479877Y-92482337D01*
X114267073Y-92622127D01*
X114124623Y-92833160D01*
X114074560Y-93082800D01*
X114074560Y-94606800D01*
X114121537Y-94848923D01*
X114261327Y-95061727D01*
X114472360Y-95204177D01*
X114722000Y-95254240D01*
X118278000Y-95254240D01*
X118520123Y-95207263D01*
X118732927Y-95067473D01*
X118875377Y-94856440D01*
X118925440Y-94606800D01*
X118925440Y-113889790D01*
X118599641Y-113889790D01*
X118366252Y-113986463D01*
X118187623Y-114165091D01*
X118090950Y-114398480D01*
X118090950Y-114651099D01*
X118090950Y-115238530D01*
X118249700Y-115397280D01*
X119598440Y-115397280D01*
X119598440Y-115651280D01*
X118249700Y-115651280D01*
X118090950Y-115810030D01*
X118090950Y-116397461D01*
X118090950Y-116650080D01*
X118187623Y-116883469D01*
X118366252Y-117062097D01*
X118408519Y-117079604D01*
X118315194Y-117172767D01*
X118065834Y-117773293D01*
X118065266Y-118423534D01*
X118313578Y-119024495D01*
X118772967Y-119484686D01*
X119373493Y-119734046D01*
X120023734Y-119734614D01*
X120624695Y-119486302D01*
X121084886Y-119026913D01*
X121334246Y-118426387D01*
X121334814Y-117776146D01*
X121086502Y-117175185D01*
X121006087Y-117094629D01*
X121084628Y-117062097D01*
X121263257Y-116883469D01*
X121359930Y-116650080D01*
X121359930Y-130424625D01*
X118630700Y-129881748D01*
X116336094Y-130338173D01*
X116336094Y-117776146D01*
X116087782Y-117175185D01*
X115628393Y-116714994D01*
X115027867Y-116465634D01*
X114377626Y-116465066D01*
X113776665Y-116713378D01*
X113316474Y-117172767D01*
X113067114Y-117773293D01*
X113066546Y-118423534D01*
X113314858Y-119024495D01*
X113774247Y-119484686D01*
X114374773Y-119734046D01*
X115025014Y-119734614D01*
X115625975Y-119486302D01*
X116086166Y-119026913D01*
X116335526Y-118426387D01*
X116336094Y-117776146D01*
X116336094Y-130338173D01*
X115072681Y-130589482D01*
X112056338Y-132604938D01*
X110040882Y-135621281D01*
X109333148Y-139179300D01*
X110040882Y-142737319D01*
X112056338Y-145753662D01*
X115072681Y-147769118D01*
X118630700Y-148476852D01*
X122188719Y-147769118D01*
X125205062Y-145753662D01*
X127220518Y-142737319D01*
X127928252Y-139179300D01*
X127928252Y-162272980D01*
X104367462Y-162272980D01*
X104367462Y-117571828D01*
X103962291Y-116591239D01*
X103212707Y-115840345D01*
X102232827Y-115433464D01*
X101171828Y-115432538D01*
X100191239Y-115837709D01*
X99440345Y-116587293D01*
X99033464Y-117567173D01*
X99032538Y-118628172D01*
X99437709Y-119608761D01*
X100187293Y-120359655D01*
X101167173Y-120766536D01*
X102228172Y-120767462D01*
X103208761Y-120362291D01*
X103959655Y-119612707D01*
X104366536Y-118632827D01*
X104367462Y-117571828D01*
X104367462Y-162272980D01*
X98367042Y-162272980D01*
X98367042Y-103070808D01*
X97961871Y-102090219D01*
X97212287Y-101339325D01*
X96232407Y-100932444D01*
X95171408Y-100931518D01*
X94190819Y-101336689D01*
X93439925Y-102086273D01*
X93033044Y-103066153D01*
X93032118Y-104127152D01*
X93437289Y-105107741D01*
X94186873Y-105858635D01*
X95166753Y-106265516D01*
X96227752Y-106266442D01*
X97208341Y-105861271D01*
X97959235Y-105111687D01*
X98366116Y-104131807D01*
X98367042Y-103070808D01*
X98367042Y-162272980D01*
X90134774Y-162272980D01*
X90134774Y-94676306D01*
X89886462Y-94075345D01*
X89427073Y-93615154D01*
X88826547Y-93365794D01*
X88176306Y-93365226D01*
X87575345Y-93613538D01*
X87115154Y-94072927D01*
X86865794Y-94673453D01*
X86865226Y-95323694D01*
X87113538Y-95924655D01*
X87572927Y-96384846D01*
X88173453Y-96634206D01*
X88823694Y-96634774D01*
X89424655Y-96386462D01*
X89884846Y-95927073D01*
X90134206Y-95326547D01*
X90134774Y-94676306D01*
X90134774Y-162272980D01*
X89367822Y-162272980D01*
X89367822Y-103070808D01*
X88962651Y-102090219D01*
X88213067Y-101339325D01*
X87233187Y-100932444D01*
X86172188Y-100931518D01*
X85634774Y-101153572D01*
X85634774Y-94676306D01*
X85386462Y-94075345D01*
X84927073Y-93615154D01*
X84326547Y-93365794D01*
X83676306Y-93365226D01*
X83075345Y-93613538D01*
X82615154Y-94072927D01*
X82365794Y-94673453D01*
X82365226Y-95323694D01*
X82613538Y-95924655D01*
X83053624Y-96365510D01*
X82874201Y-96365510D01*
X82640812Y-96462183D01*
X82462183Y-96640811D01*
X82365510Y-96874200D01*
X82365510Y-97126819D01*
X82365510Y-97714250D01*
X82524260Y-97873000D01*
X83873000Y-97873000D01*
X83873000Y-97853000D01*
X84127000Y-97853000D01*
X84127000Y-97873000D01*
X85475740Y-97873000D01*
X85634490Y-97714250D01*
X85634490Y-97126819D01*
X85634490Y-96874200D01*
X85537817Y-96640811D01*
X85359188Y-96462183D01*
X85125799Y-96365510D01*
X84945643Y-96365510D01*
X85384846Y-95927073D01*
X85634206Y-95326547D01*
X85634774Y-94676306D01*
X85634774Y-101153572D01*
X85634490Y-101153690D01*
X85634490Y-99125800D01*
X85634490Y-98873181D01*
X85634490Y-98285750D01*
X85475740Y-98127000D01*
X84127000Y-98127000D01*
X84127000Y-99475740D01*
X84285750Y-99634490D01*
X85125799Y-99634490D01*
X85359188Y-99537817D01*
X85537817Y-99359189D01*
X85634490Y-99125800D01*
X85634490Y-101153690D01*
X85191599Y-101336689D01*
X84440705Y-102086273D01*
X84033824Y-103066153D01*
X84032898Y-104127152D01*
X84438069Y-105107741D01*
X85187653Y-105858635D01*
X86167533Y-106265516D01*
X87228532Y-106266442D01*
X88209121Y-105861271D01*
X88960015Y-105111687D01*
X89366896Y-104131807D01*
X89367822Y-103070808D01*
X89367822Y-162272980D01*
X89252057Y-162272980D01*
X83873000Y-156932535D01*
X83873000Y-99475740D01*
X83873000Y-98127000D01*
X82524260Y-98127000D01*
X82365510Y-98285750D01*
X82365510Y-98873181D01*
X82365510Y-99125800D01*
X82462183Y-99359189D01*
X82640812Y-99537817D01*
X82874201Y-99634490D01*
X83714250Y-99634490D01*
X83873000Y-99475740D01*
X83873000Y-156932535D01*
X75526900Y-148646347D01*
X75526900Y-86649896D01*
X87755207Y-73926700D01*
X150647033Y-73926700D01*
X163873180Y-87549430D01*
X163873180Y-147945320D01*
X163873180Y-147945320D01*
G37*
X163873180Y-147945320D02*
X149446970Y-162272980D01*
X140367462Y-162272980D01*
X140367462Y-117571828D01*
X139962291Y-116591239D01*
X139627000Y-116255362D01*
X139627000Y-93627000D01*
X139627000Y-86873000D01*
X119373000Y-86873000D01*
X119373000Y-91127000D01*
X119843774Y-91127000D01*
X119822473Y-91148302D01*
X119725800Y-91381691D01*
X119725800Y-91730250D01*
X119884550Y-91889000D01*
X122011800Y-91889000D01*
X122011800Y-91869000D01*
X122265800Y-91869000D01*
X122265800Y-91889000D01*
X124393050Y-91889000D01*
X124551800Y-91730250D01*
X124551800Y-91381691D01*
X124455127Y-91148302D01*
X124433825Y-91127000D01*
X124873000Y-91127000D01*
X124873000Y-93627000D01*
X139627000Y-93627000D01*
X139627000Y-116255362D01*
X139212707Y-115840345D01*
X138232827Y-115433464D01*
X137171828Y-115432538D01*
X136191239Y-115837709D01*
X135440345Y-116587293D01*
X135033464Y-117567173D01*
X135032538Y-118628172D01*
X135437709Y-119608761D01*
X136187293Y-120359655D01*
X137167173Y-120766536D01*
X138228172Y-120767462D01*
X139208761Y-120362291D01*
X139959655Y-119612707D01*
X140366536Y-118632827D01*
X140367462Y-117571828D01*
X140367462Y-162272980D01*
X139192247Y-162272980D01*
X139192233Y-162280600D01*
X134849068Y-162280600D01*
X134849096Y-162272980D01*
X127928252Y-162272980D01*
X127928252Y-139179300D01*
X127220518Y-135621281D01*
X126336074Y-134297617D01*
X126336074Y-117776146D01*
X126087762Y-117175185D01*
X125628373Y-116714994D01*
X125027847Y-116465634D01*
X124551800Y-116465218D01*
X124551800Y-92650309D01*
X124551800Y-92301750D01*
X124393050Y-92143000D01*
X122265800Y-92143000D01*
X122265800Y-93000250D01*
X122424550Y-93159000D01*
X123790491Y-93159000D01*
X124043110Y-93159000D01*
X124276499Y-93062327D01*
X124455127Y-92883698D01*
X124551800Y-92650309D01*
X124551800Y-116465218D01*
X124377606Y-116465066D01*
X123776645Y-116713378D01*
X123316454Y-117172767D01*
X123067094Y-117773293D01*
X123066526Y-118423534D01*
X123314838Y-119024495D01*
X123774227Y-119484686D01*
X124374753Y-119734046D01*
X125024994Y-119734614D01*
X125625955Y-119486302D01*
X126086146Y-119026913D01*
X126335506Y-118426387D01*
X126336074Y-117776146D01*
X126336074Y-134297617D01*
X125205062Y-132604938D01*
X122188719Y-130589482D01*
X122011800Y-130554290D01*
X122011800Y-93000250D01*
X122011800Y-92143000D01*
X119884550Y-92143000D01*
X119725800Y-92301750D01*
X119725800Y-92650309D01*
X119822473Y-92883698D01*
X120001101Y-93062327D01*
X120234490Y-93159000D01*
X120487109Y-93159000D01*
X121853050Y-93159000D01*
X122011800Y-93000250D01*
X122011800Y-130554290D01*
X121359930Y-130424625D01*
X121359930Y-116650080D01*
X121359930Y-116397461D01*
X121359930Y-115810030D01*
X121359930Y-115238530D01*
X121359930Y-114651099D01*
X121359930Y-114398480D01*
X121263257Y-114165091D01*
X121084628Y-113986463D01*
X120851239Y-113889790D01*
X120011190Y-113889790D01*
X119852440Y-114048540D01*
X119852440Y-115397280D01*
X121201180Y-115397280D01*
X121359930Y-115238530D01*
X121359930Y-115810030D01*
X121201180Y-115651280D01*
X119852440Y-115651280D01*
X119852440Y-115671280D01*
X119598440Y-115671280D01*
X119598440Y-115651280D01*
X119598440Y-115397280D01*
X119598440Y-114048540D01*
X119439690Y-113889790D01*
X118925440Y-113889790D01*
X118925440Y-94606800D01*
X118925440Y-93082800D01*
X118925440Y-88917200D01*
X118925440Y-87393200D01*
X118878463Y-87151077D01*
X118738673Y-86938273D01*
X118527640Y-86795823D01*
X118278000Y-86745760D01*
X114722000Y-86745760D01*
X114479877Y-86792737D01*
X114267073Y-86932527D01*
X114124623Y-87143560D01*
X114074560Y-87393200D01*
X114074560Y-88917200D01*
X114121537Y-89159323D01*
X114261327Y-89372127D01*
X114472360Y-89514577D01*
X114722000Y-89564640D01*
X118278000Y-89564640D01*
X118520123Y-89517663D01*
X118732927Y-89377873D01*
X118875377Y-89166840D01*
X118925440Y-88917200D01*
X118925440Y-93082800D01*
X118878463Y-92840677D01*
X118738673Y-92627873D01*
X118527640Y-92485423D01*
X118278000Y-92435360D01*
X114722000Y-92435360D01*
X114479877Y-92482337D01*
X114267073Y-92622127D01*
X114124623Y-92833160D01*
X114074560Y-93082800D01*
X114074560Y-94606800D01*
X114121537Y-94848923D01*
X114261327Y-95061727D01*
X114472360Y-95204177D01*
X114722000Y-95254240D01*
X118278000Y-95254240D01*
X118520123Y-95207263D01*
X118732927Y-95067473D01*
X118875377Y-94856440D01*
X118925440Y-94606800D01*
X118925440Y-113889790D01*
X118599641Y-113889790D01*
X118366252Y-113986463D01*
X118187623Y-114165091D01*
X118090950Y-114398480D01*
X118090950Y-114651099D01*
X118090950Y-115238530D01*
X118249700Y-115397280D01*
X119598440Y-115397280D01*
X119598440Y-115651280D01*
X118249700Y-115651280D01*
X118090950Y-115810030D01*
X118090950Y-116397461D01*
X118090950Y-116650080D01*
X118187623Y-116883469D01*
X118366252Y-117062097D01*
X118408519Y-117079604D01*
X118315194Y-117172767D01*
X118065834Y-117773293D01*
X118065266Y-118423534D01*
X118313578Y-119024495D01*
X118772967Y-119484686D01*
X119373493Y-119734046D01*
X120023734Y-119734614D01*
X120624695Y-119486302D01*
X121084886Y-119026913D01*
X121334246Y-118426387D01*
X121334814Y-117776146D01*
X121086502Y-117175185D01*
X121006087Y-117094629D01*
X121084628Y-117062097D01*
X121263257Y-116883469D01*
X121359930Y-116650080D01*
X121359930Y-130424625D01*
X118630700Y-129881748D01*
X116336094Y-130338173D01*
X116336094Y-117776146D01*
X116087782Y-117175185D01*
X115628393Y-116714994D01*
X115027867Y-116465634D01*
X114377626Y-116465066D01*
X113776665Y-116713378D01*
X113316474Y-117172767D01*
X113067114Y-117773293D01*
X113066546Y-118423534D01*
X113314858Y-119024495D01*
X113774247Y-119484686D01*
X114374773Y-119734046D01*
X115025014Y-119734614D01*
X115625975Y-119486302D01*
X116086166Y-119026913D01*
X116335526Y-118426387D01*
X116336094Y-117776146D01*
X116336094Y-130338173D01*
X115072681Y-130589482D01*
X112056338Y-132604938D01*
X110040882Y-135621281D01*
X109333148Y-139179300D01*
X110040882Y-142737319D01*
X112056338Y-145753662D01*
X115072681Y-147769118D01*
X118630700Y-148476852D01*
X122188719Y-147769118D01*
X125205062Y-145753662D01*
X127220518Y-142737319D01*
X127928252Y-139179300D01*
X127928252Y-162272980D01*
X104367462Y-162272980D01*
X104367462Y-117571828D01*
X103962291Y-116591239D01*
X103212707Y-115840345D01*
X102232827Y-115433464D01*
X101171828Y-115432538D01*
X100191239Y-115837709D01*
X99440345Y-116587293D01*
X99033464Y-117567173D01*
X99032538Y-118628172D01*
X99437709Y-119608761D01*
X100187293Y-120359655D01*
X101167173Y-120766536D01*
X102228172Y-120767462D01*
X103208761Y-120362291D01*
X103959655Y-119612707D01*
X104366536Y-118632827D01*
X104367462Y-117571828D01*
X104367462Y-162272980D01*
X98367042Y-162272980D01*
X98367042Y-103070808D01*
X97961871Y-102090219D01*
X97212287Y-101339325D01*
X96232407Y-100932444D01*
X95171408Y-100931518D01*
X94190819Y-101336689D01*
X93439925Y-102086273D01*
X93033044Y-103066153D01*
X93032118Y-104127152D01*
X93437289Y-105107741D01*
X94186873Y-105858635D01*
X95166753Y-106265516D01*
X96227752Y-106266442D01*
X97208341Y-105861271D01*
X97959235Y-105111687D01*
X98366116Y-104131807D01*
X98367042Y-103070808D01*
X98367042Y-162272980D01*
X90134774Y-162272980D01*
X90134774Y-94676306D01*
X89886462Y-94075345D01*
X89427073Y-93615154D01*
X88826547Y-93365794D01*
X88176306Y-93365226D01*
X87575345Y-93613538D01*
X87115154Y-94072927D01*
X86865794Y-94673453D01*
X86865226Y-95323694D01*
X87113538Y-95924655D01*
X87572927Y-96384846D01*
X88173453Y-96634206D01*
X88823694Y-96634774D01*
X89424655Y-96386462D01*
X89884846Y-95927073D01*
X90134206Y-95326547D01*
X90134774Y-94676306D01*
X90134774Y-162272980D01*
X89367822Y-162272980D01*
X89367822Y-103070808D01*
X88962651Y-102090219D01*
X88213067Y-101339325D01*
X87233187Y-100932444D01*
X86172188Y-100931518D01*
X85634774Y-101153572D01*
X85634774Y-94676306D01*
X85386462Y-94075345D01*
X84927073Y-93615154D01*
X84326547Y-93365794D01*
X83676306Y-93365226D01*
X83075345Y-93613538D01*
X82615154Y-94072927D01*
X82365794Y-94673453D01*
X82365226Y-95323694D01*
X82613538Y-95924655D01*
X83053624Y-96365510D01*
X82874201Y-96365510D01*
X82640812Y-96462183D01*
X82462183Y-96640811D01*
X82365510Y-96874200D01*
X82365510Y-97126819D01*
X82365510Y-97714250D01*
X82524260Y-97873000D01*
X83873000Y-97873000D01*
X83873000Y-97853000D01*
X84127000Y-97853000D01*
X84127000Y-97873000D01*
X85475740Y-97873000D01*
X85634490Y-97714250D01*
X85634490Y-97126819D01*
X85634490Y-96874200D01*
X85537817Y-96640811D01*
X85359188Y-96462183D01*
X85125799Y-96365510D01*
X84945643Y-96365510D01*
X85384846Y-95927073D01*
X85634206Y-95326547D01*
X85634774Y-94676306D01*
X85634774Y-101153572D01*
X85634490Y-101153690D01*
X85634490Y-99125800D01*
X85634490Y-98873181D01*
X85634490Y-98285750D01*
X85475740Y-98127000D01*
X84127000Y-98127000D01*
X84127000Y-99475740D01*
X84285750Y-99634490D01*
X85125799Y-99634490D01*
X85359188Y-99537817D01*
X85537817Y-99359189D01*
X85634490Y-99125800D01*
X85634490Y-101153690D01*
X85191599Y-101336689D01*
X84440705Y-102086273D01*
X84033824Y-103066153D01*
X84032898Y-104127152D01*
X84438069Y-105107741D01*
X85187653Y-105858635D01*
X86167533Y-106265516D01*
X87228532Y-106266442D01*
X88209121Y-105861271D01*
X88960015Y-105111687D01*
X89366896Y-104131807D01*
X89367822Y-103070808D01*
X89367822Y-162272980D01*
X89252057Y-162272980D01*
X83873000Y-156932535D01*
X83873000Y-99475740D01*
X83873000Y-98127000D01*
X82524260Y-98127000D01*
X82365510Y-98285750D01*
X82365510Y-98873181D01*
X82365510Y-99125800D01*
X82462183Y-99359189D01*
X82640812Y-99537817D01*
X82874201Y-99634490D01*
X83714250Y-99634490D01*
X83873000Y-99475740D01*
X83873000Y-156932535D01*
X75526900Y-148646347D01*
X75526900Y-86649896D01*
X87755207Y-73926700D01*
X150647033Y-73926700D01*
X163873180Y-87549430D01*
X163873180Y-147945320D01*
G36*
X138373000Y-92373000D02*
X127536700Y-92373000D01*
X127536700Y-90476830D01*
X127536700Y-90285750D01*
X127536700Y-89714250D01*
X127536700Y-89523170D01*
X127440027Y-89289781D01*
X127261398Y-89111153D01*
X127028009Y-89014480D01*
X126836930Y-89014480D01*
X126678180Y-89173230D01*
X126678180Y-89873000D01*
X127377950Y-89873000D01*
X127536700Y-89714250D01*
X127536700Y-90285750D01*
X127377950Y-90127000D01*
X126678180Y-90127000D01*
X126678180Y-90826770D01*
X126836930Y-90985520D01*
X127028009Y-90985520D01*
X127261398Y-90888847D01*
X127440027Y-90710219D01*
X127536700Y-90476830D01*
X127536700Y-92373000D01*
X126127000Y-92373000D01*
X126127000Y-90985520D01*
X126265430Y-90985520D01*
X126424180Y-90826770D01*
X126424180Y-90463215D01*
X126446780Y-90350520D01*
X126446780Y-89649480D01*
X126424180Y-89532997D01*
X126424180Y-89173230D01*
X126265430Y-89014480D01*
X126127000Y-89014480D01*
X126127000Y-88127000D01*
X138373000Y-88127000D01*
X138373000Y-92373000D01*
X138373000Y-92373000D01*
G37*
X138373000Y-92373000D02*
X127536700Y-92373000D01*
X127536700Y-90476830D01*
X127536700Y-90285750D01*
X127536700Y-89714250D01*
X127536700Y-89523170D01*
X127440027Y-89289781D01*
X127261398Y-89111153D01*
X127028009Y-89014480D01*
X126836930Y-89014480D01*
X126678180Y-89173230D01*
X126678180Y-89873000D01*
X127377950Y-89873000D01*
X127536700Y-89714250D01*
X127536700Y-90285750D01*
X127377950Y-90127000D01*
X126678180Y-90127000D01*
X126678180Y-90826770D01*
X126836930Y-90985520D01*
X127028009Y-90985520D01*
X127261398Y-90888847D01*
X127440027Y-90710219D01*
X127536700Y-90476830D01*
X127536700Y-92373000D01*
X126127000Y-92373000D01*
X126127000Y-90985520D01*
X126265430Y-90985520D01*
X126424180Y-90826770D01*
X126424180Y-90463215D01*
X126446780Y-90350520D01*
X126446780Y-89649480D01*
X126424180Y-89532997D01*
X126424180Y-89173230D01*
X126265430Y-89014480D01*
X126127000Y-89014480D01*
X126127000Y-88127000D01*
X138373000Y-88127000D01*
X138373000Y-92373000D01*
M02*
