M48
;DRILL file {Pcbnew (2013-june-11)-stable} date Sun 22 Dec 2013 01:43:29 AM CST
;FORMAT={-:-/ absolute / inch / decimal}
FMAT,2
INCH,TZ
T1C0.025
T2C0.039
T3C0.120
%
G90
G05
M72
T1
X3.7008Y-5.374
X3.7008Y-5.4331
X3.7598Y-5.374
X3.7598Y-5.4331
X3.8189Y-5.374
X3.8189Y-5.4331
X4.3898Y-3.2283
X4.3898Y-3.2874
X4.3898Y-3.9764
X4.3898Y-4.0354
X4.4488Y-3.2283
X4.4488Y-3.2874
X4.4488Y-3.9764
X4.4488Y-4.0354
X4.4685Y-6.1417
X4.4685Y-6.2008
X4.5079Y-3.2283
X4.5079Y-3.2874
X4.5079Y-3.9764
X4.5079Y-4.0354
X4.5276Y-6.1417
X4.5276Y-6.2008
X4.5748Y-4.7677
X4.5748Y-4.8267
X4.5866Y-6.1417
X4.5866Y-6.2008
X4.6142Y-4.7677
X4.6142Y-4.8267
X4.6614Y-4.7638
X5.1772Y-3.4843
X5.1772Y-3.5433
X5.1772Y-3.6024
X5.2165Y-5.374
X5.2165Y-5.4331
X5.2362Y-3.4843
X5.2362Y-3.5433
X5.2362Y-3.6024
X5.2756Y-5.374
X5.2756Y-5.4331
X5.2953Y-3.4843
X5.2953Y-3.5433
X5.2953Y-3.6024
X5.3346Y-5.374
X5.3346Y-5.4331
X5.3543Y-3.4843
X5.3543Y-3.5433
X5.3543Y-3.6024
X5.4134Y-3.4843
X5.4134Y-3.5433
X5.4134Y-3.6024
X5.7283Y-3.9764
X5.7283Y-4.0354
X5.7874Y-3.9764
X5.7874Y-4.0354
X5.8465Y-3.9764
X5.8465Y-4.0354
T2
X3.3071Y-3.7402
X3.4843Y-3.7402
X4.5158Y-4.6496
X4.7126Y-4.6496
X4.9095Y-4.6496
T3
X3.4134Y-4.0787
X3.7677Y-4.0787
X4.0039Y-4.6496
X5.4213Y-4.6496
T0
M30
