G04 (created by PCBNEW (2013-june-11)-stable) date Sun 22 Dec 2013 01:43:27 AM CST*
%MOIN*%
G04 Gerber Fmt 3.4, Leading zero omitted, Abs format*
%FSLAX34Y34*%
G01*
G70*
G90*
G04 APERTURE LIST*
%ADD10C,0.00590551*%
%ADD11C,0.015*%
%ADD12R,0.14X0.04*%
%ADD13R,0.14X0.06*%
%ADD14C,0.16*%
%ADD15R,0.0276X0.0276*%
%ADD16C,0.0787*%
%ADD17R,0.0787X0.0787*%
%ADD18C,0.035*%
%ADD19C,0.008*%
%ADD20C,0.019685*%
%ADD21C,0.01*%
G04 APERTURE END LIST*
G54D10*
G54D11*
X59122Y-27015D02*
X35114Y-27015D01*
X66607Y-58488D02*
X66607Y-34504D01*
X35114Y-65984D02*
X59142Y-65984D01*
X27638Y-58504D02*
X27638Y-34500D01*
X33390Y-64256D02*
X35110Y-65976D01*
X27643Y-58508D02*
X27642Y-58508D01*
X29351Y-60216D02*
X27643Y-58508D01*
X59142Y-65969D02*
X59142Y-65980D01*
X60851Y-64260D02*
X59142Y-65969D01*
X66607Y-58503D02*
X66607Y-58500D01*
X64890Y-60220D02*
X66607Y-58503D01*
X66603Y-34492D02*
X66603Y-34496D01*
X64886Y-32775D02*
X66603Y-34492D01*
X59126Y-27015D02*
X59126Y-27012D01*
X60843Y-28732D02*
X59126Y-27015D01*
X33402Y-28728D02*
X35118Y-27012D01*
X27638Y-34495D02*
X27638Y-34496D01*
X29358Y-32775D02*
X27638Y-34495D01*
X29355Y-32779D02*
X33402Y-28732D01*
X64890Y-32779D02*
X60843Y-28732D01*
X60843Y-64267D02*
X64890Y-60220D01*
X33402Y-64267D02*
X29358Y-60223D01*
G54D12*
X48086Y-35426D03*
X48086Y-36226D03*
G54D13*
X45866Y-36946D03*
X45866Y-34706D03*
G54D14*
X34134Y-40787D03*
X37677Y-40787D03*
X40039Y-46496D03*
X54212Y-46496D03*
G54D15*
X49823Y-35433D03*
X49389Y-35433D03*
G54D16*
X47126Y-46496D03*
X49095Y-46496D03*
X45158Y-46496D03*
X33070Y-37401D03*
X34842Y-37401D03*
G54D17*
X33070Y-38582D03*
X47136Y-45482D03*
G54D18*
X54133Y-36023D03*
X54133Y-35433D03*
X54133Y-34842D03*
X53543Y-34842D03*
X53543Y-35433D03*
X53543Y-36023D03*
X52952Y-36023D03*
X52952Y-35433D03*
X52952Y-34842D03*
X52362Y-34842D03*
X52362Y-35433D03*
X52362Y-36023D03*
X51771Y-36023D03*
X51771Y-35433D03*
X51771Y-34842D03*
X58464Y-39763D03*
X58464Y-40354D03*
X57283Y-40354D03*
X57283Y-39763D03*
X57874Y-39763D03*
X57874Y-40354D03*
X45078Y-39763D03*
X45078Y-40354D03*
X43897Y-40354D03*
X43897Y-39763D03*
X44488Y-39763D03*
X44488Y-40354D03*
X53346Y-53740D03*
X53346Y-54330D03*
X52165Y-54330D03*
X52165Y-53740D03*
X52755Y-53740D03*
X52755Y-54330D03*
X45866Y-61417D03*
X45866Y-62007D03*
X44685Y-62007D03*
X44685Y-61417D03*
X45275Y-61417D03*
X45275Y-62007D03*
X38188Y-53740D03*
X38188Y-54330D03*
X37007Y-54330D03*
X37007Y-53740D03*
X37598Y-53740D03*
X37598Y-54330D03*
X45078Y-32283D03*
X45078Y-32874D03*
X43897Y-32874D03*
X43897Y-32283D03*
X44488Y-32283D03*
X44488Y-32874D03*
X45748Y-48267D03*
X45748Y-47677D03*
X46614Y-47638D03*
X46142Y-48267D03*
X46142Y-47677D03*
G54D11*
X54133Y-34842D02*
X54133Y-35433D01*
X53543Y-35433D02*
X53543Y-34842D01*
X52952Y-36023D02*
X53543Y-36023D01*
X52952Y-34842D02*
X52952Y-35433D01*
X52362Y-35433D02*
X52362Y-34842D01*
X51771Y-36023D02*
X52362Y-36023D01*
X51771Y-34842D02*
X51771Y-35433D01*
G54D19*
X58464Y-40354D02*
X58464Y-39763D01*
X57283Y-39763D02*
X57283Y-40354D01*
X57874Y-40354D02*
X57874Y-39763D01*
X45078Y-40354D02*
X45078Y-39763D01*
X43897Y-39763D02*
X43897Y-40354D01*
X44488Y-40354D02*
X44488Y-39763D01*
X53346Y-54330D02*
X53346Y-53740D01*
X52165Y-53740D02*
X52165Y-54330D01*
X52755Y-54330D02*
X52755Y-53740D01*
X45866Y-62007D02*
X45866Y-61417D01*
X44685Y-61417D02*
X44685Y-62007D01*
X45275Y-62007D02*
X45275Y-61417D01*
X38188Y-54330D02*
X38188Y-53740D01*
X37007Y-53740D02*
X37007Y-54330D01*
X37598Y-54330D02*
X37598Y-53740D01*
X45078Y-32874D02*
X45078Y-32283D01*
X43897Y-32283D02*
X43897Y-32874D01*
X44488Y-32874D02*
X44488Y-32283D01*
X45748Y-47677D02*
X45748Y-48267D01*
X46142Y-48267D02*
X46142Y-47677D01*
G54D20*
X49389Y-35433D02*
X48092Y-35433D01*
X48092Y-35433D02*
X48086Y-35426D01*
G54D10*
G36*
X64517Y-58246D02*
X58837Y-63887D01*
X55262Y-63887D01*
X55262Y-46288D01*
X55103Y-45902D01*
X54971Y-45769D01*
X54971Y-36861D01*
X54971Y-34201D01*
X46997Y-34201D01*
X46997Y-35876D01*
X47182Y-35876D01*
X47174Y-35885D01*
X47136Y-35977D01*
X47136Y-36114D01*
X47198Y-36176D01*
X48036Y-36176D01*
X48036Y-36168D01*
X48136Y-36168D01*
X48136Y-36176D01*
X48973Y-36176D01*
X49036Y-36114D01*
X49036Y-35977D01*
X48998Y-35885D01*
X48989Y-35876D01*
X49162Y-35876D01*
X49162Y-36861D01*
X54971Y-36861D01*
X54971Y-45769D01*
X54808Y-45606D01*
X54422Y-45446D01*
X54004Y-45445D01*
X53618Y-45605D01*
X53322Y-45900D01*
X53162Y-46286D01*
X53162Y-46704D01*
X53321Y-47090D01*
X53617Y-47385D01*
X54002Y-47545D01*
X54420Y-47546D01*
X54806Y-47386D01*
X54971Y-47222D01*
X55102Y-47091D01*
X55262Y-46705D01*
X55262Y-46288D01*
X55262Y-63887D01*
X54971Y-63887D01*
X54921Y-63887D01*
X54800Y-63887D01*
X54800Y-63890D01*
X53090Y-63890D01*
X53090Y-63887D01*
X49738Y-63887D01*
X49738Y-46368D01*
X49640Y-46131D01*
X49459Y-45950D01*
X49223Y-45852D01*
X49036Y-45852D01*
X49036Y-36476D01*
X49036Y-36339D01*
X48973Y-36276D01*
X48136Y-36276D01*
X48136Y-36614D01*
X48198Y-36676D01*
X48736Y-36676D01*
X48836Y-36676D01*
X48927Y-36638D01*
X48998Y-36568D01*
X49036Y-36476D01*
X49036Y-45852D01*
X48967Y-45852D01*
X48730Y-45950D01*
X48549Y-46131D01*
X48451Y-46367D01*
X48451Y-46623D01*
X48549Y-46860D01*
X48730Y-47041D01*
X48966Y-47139D01*
X49222Y-47139D01*
X49459Y-47041D01*
X49640Y-46860D01*
X49738Y-46624D01*
X49738Y-46368D01*
X49738Y-63887D01*
X48036Y-63887D01*
X48036Y-36614D01*
X48036Y-36276D01*
X47198Y-36276D01*
X47136Y-36339D01*
X47136Y-36476D01*
X47174Y-36568D01*
X47244Y-36638D01*
X47336Y-36676D01*
X47435Y-36676D01*
X47973Y-36676D01*
X48036Y-36614D01*
X48036Y-63887D01*
X47779Y-63887D01*
X47779Y-45825D01*
X47779Y-45138D01*
X47779Y-45038D01*
X47741Y-44946D01*
X47670Y-44876D01*
X47579Y-44838D01*
X47248Y-44838D01*
X47186Y-44901D01*
X47186Y-45432D01*
X47717Y-45432D01*
X47779Y-45369D01*
X47779Y-45138D01*
X47779Y-45825D01*
X47779Y-45594D01*
X47717Y-45532D01*
X47186Y-45532D01*
X47186Y-45539D01*
X47086Y-45539D01*
X47086Y-45532D01*
X47086Y-45432D01*
X47086Y-44901D01*
X47023Y-44838D01*
X46816Y-44838D01*
X46816Y-37197D01*
X46816Y-36597D01*
X46816Y-34957D01*
X46816Y-34357D01*
X46778Y-34265D01*
X46707Y-34194D01*
X46616Y-34156D01*
X46516Y-34156D01*
X45116Y-34156D01*
X45024Y-34194D01*
X44954Y-34264D01*
X44916Y-34356D01*
X44916Y-34456D01*
X44916Y-35056D01*
X44954Y-35148D01*
X45024Y-35218D01*
X45116Y-35256D01*
X45215Y-35256D01*
X46615Y-35256D01*
X46707Y-35218D01*
X46777Y-35148D01*
X46816Y-35056D01*
X46816Y-34957D01*
X46816Y-36597D01*
X46778Y-36505D01*
X46707Y-36434D01*
X46616Y-36396D01*
X46516Y-36396D01*
X45116Y-36396D01*
X45024Y-36434D01*
X44954Y-36504D01*
X44916Y-36596D01*
X44916Y-36696D01*
X44916Y-37296D01*
X44954Y-37388D01*
X45024Y-37458D01*
X45116Y-37496D01*
X45215Y-37496D01*
X46615Y-37496D01*
X46707Y-37458D01*
X46777Y-37388D01*
X46816Y-37296D01*
X46816Y-37197D01*
X46816Y-44838D01*
X46692Y-44838D01*
X46601Y-44876D01*
X46530Y-44946D01*
X46492Y-45038D01*
X46492Y-45138D01*
X46492Y-45369D01*
X46555Y-45432D01*
X47086Y-45432D01*
X47086Y-45532D01*
X46555Y-45532D01*
X46492Y-45594D01*
X46492Y-45825D01*
X46492Y-45925D01*
X46530Y-46017D01*
X46601Y-46087D01*
X46617Y-46094D01*
X46580Y-46131D01*
X46482Y-46367D01*
X46482Y-46623D01*
X46580Y-46860D01*
X46761Y-47041D01*
X46997Y-47139D01*
X47253Y-47139D01*
X47490Y-47041D01*
X47671Y-46860D01*
X47769Y-46624D01*
X47769Y-46368D01*
X47671Y-46131D01*
X47640Y-46100D01*
X47670Y-46087D01*
X47741Y-46017D01*
X47779Y-45925D01*
X47779Y-45825D01*
X47779Y-63887D01*
X45801Y-63887D01*
X45801Y-46368D01*
X45703Y-46131D01*
X45522Y-45950D01*
X45286Y-45852D01*
X45030Y-45852D01*
X44793Y-45950D01*
X44612Y-46131D01*
X44514Y-46367D01*
X44514Y-46623D01*
X44612Y-46860D01*
X44793Y-47041D01*
X45029Y-47139D01*
X45285Y-47139D01*
X45522Y-47041D01*
X45703Y-46860D01*
X45801Y-46624D01*
X45801Y-46368D01*
X45801Y-63887D01*
X41089Y-63887D01*
X41089Y-46288D01*
X40930Y-45902D01*
X40634Y-45606D01*
X40249Y-45446D01*
X39831Y-45445D01*
X39445Y-45605D01*
X39149Y-45900D01*
X38989Y-46286D01*
X38989Y-46704D01*
X39148Y-47090D01*
X39443Y-47385D01*
X39829Y-47545D01*
X40247Y-47546D01*
X40633Y-47386D01*
X40928Y-47091D01*
X41089Y-46705D01*
X41089Y-46288D01*
X41089Y-63887D01*
X38727Y-63887D01*
X38727Y-40579D01*
X38567Y-40193D01*
X38272Y-39897D01*
X37886Y-39737D01*
X37469Y-39736D01*
X37083Y-39896D01*
X36787Y-40191D01*
X36627Y-40577D01*
X36626Y-40994D01*
X36786Y-41381D01*
X37081Y-41676D01*
X37467Y-41836D01*
X37884Y-41837D01*
X38271Y-41677D01*
X38566Y-41382D01*
X38726Y-40996D01*
X38727Y-40579D01*
X38727Y-63887D01*
X35486Y-63887D01*
X35486Y-37274D01*
X35388Y-37037D01*
X35207Y-36856D01*
X34971Y-36758D01*
X34715Y-36757D01*
X34478Y-36855D01*
X34297Y-37036D01*
X34199Y-37273D01*
X34198Y-37529D01*
X34296Y-37765D01*
X34477Y-37946D01*
X34713Y-38044D01*
X34969Y-38045D01*
X35206Y-37947D01*
X35387Y-37766D01*
X35485Y-37530D01*
X35486Y-37274D01*
X35486Y-63887D01*
X35184Y-63887D01*
X35184Y-40579D01*
X35024Y-40193D01*
X34729Y-39897D01*
X34343Y-39737D01*
X33926Y-39736D01*
X33714Y-39824D01*
X33714Y-37274D01*
X33616Y-37037D01*
X33435Y-36856D01*
X33199Y-36758D01*
X32943Y-36757D01*
X32706Y-36855D01*
X32525Y-37036D01*
X32427Y-37273D01*
X32427Y-37529D01*
X32525Y-37765D01*
X32698Y-37939D01*
X32627Y-37939D01*
X32535Y-37977D01*
X32465Y-38047D01*
X32427Y-38139D01*
X32427Y-38238D01*
X32427Y-38470D01*
X32489Y-38532D01*
X33020Y-38532D01*
X33020Y-38524D01*
X33120Y-38524D01*
X33120Y-38532D01*
X33651Y-38532D01*
X33714Y-38470D01*
X33714Y-38238D01*
X33714Y-38139D01*
X33676Y-38047D01*
X33605Y-37977D01*
X33513Y-37939D01*
X33443Y-37939D01*
X33616Y-37766D01*
X33714Y-37530D01*
X33714Y-37274D01*
X33714Y-39824D01*
X33714Y-39824D01*
X33714Y-38926D01*
X33714Y-38695D01*
X33651Y-38632D01*
X33120Y-38632D01*
X33120Y-39163D01*
X33183Y-39226D01*
X33513Y-39226D01*
X33605Y-39188D01*
X33676Y-39117D01*
X33714Y-39026D01*
X33714Y-38926D01*
X33714Y-39824D01*
X33540Y-39896D01*
X33244Y-40191D01*
X33084Y-40577D01*
X33083Y-40994D01*
X33243Y-41381D01*
X33538Y-41676D01*
X33924Y-41836D01*
X34341Y-41837D01*
X34728Y-41677D01*
X35023Y-41382D01*
X35183Y-40996D01*
X35184Y-40579D01*
X35184Y-63887D01*
X35138Y-63887D01*
X33020Y-61784D01*
X33020Y-39163D01*
X33020Y-38632D01*
X32489Y-38632D01*
X32427Y-38695D01*
X32427Y-38926D01*
X32427Y-39026D01*
X32465Y-39117D01*
X32535Y-39188D01*
X32627Y-39226D01*
X32958Y-39226D01*
X33020Y-39163D01*
X33020Y-61784D01*
X29735Y-58522D01*
X29735Y-34114D01*
X34549Y-29105D01*
X59309Y-29105D01*
X64517Y-34468D01*
X64517Y-58246D01*
X64517Y-58246D01*
G37*
G54D21*
X64517Y-58246D02*
X58837Y-63887D01*
X55262Y-63887D01*
X55262Y-46288D01*
X55103Y-45902D01*
X54971Y-45769D01*
X54971Y-36861D01*
X54971Y-34201D01*
X46997Y-34201D01*
X46997Y-35876D01*
X47182Y-35876D01*
X47174Y-35885D01*
X47136Y-35977D01*
X47136Y-36114D01*
X47198Y-36176D01*
X48036Y-36176D01*
X48036Y-36168D01*
X48136Y-36168D01*
X48136Y-36176D01*
X48973Y-36176D01*
X49036Y-36114D01*
X49036Y-35977D01*
X48998Y-35885D01*
X48989Y-35876D01*
X49162Y-35876D01*
X49162Y-36861D01*
X54971Y-36861D01*
X54971Y-45769D01*
X54808Y-45606D01*
X54422Y-45446D01*
X54004Y-45445D01*
X53618Y-45605D01*
X53322Y-45900D01*
X53162Y-46286D01*
X53162Y-46704D01*
X53321Y-47090D01*
X53617Y-47385D01*
X54002Y-47545D01*
X54420Y-47546D01*
X54806Y-47386D01*
X54971Y-47222D01*
X55102Y-47091D01*
X55262Y-46705D01*
X55262Y-46288D01*
X55262Y-63887D01*
X54971Y-63887D01*
X54921Y-63887D01*
X54800Y-63887D01*
X54800Y-63890D01*
X53090Y-63890D01*
X53090Y-63887D01*
X49738Y-63887D01*
X49738Y-46368D01*
X49640Y-46131D01*
X49459Y-45950D01*
X49223Y-45852D01*
X49036Y-45852D01*
X49036Y-36476D01*
X49036Y-36339D01*
X48973Y-36276D01*
X48136Y-36276D01*
X48136Y-36614D01*
X48198Y-36676D01*
X48736Y-36676D01*
X48836Y-36676D01*
X48927Y-36638D01*
X48998Y-36568D01*
X49036Y-36476D01*
X49036Y-45852D01*
X48967Y-45852D01*
X48730Y-45950D01*
X48549Y-46131D01*
X48451Y-46367D01*
X48451Y-46623D01*
X48549Y-46860D01*
X48730Y-47041D01*
X48966Y-47139D01*
X49222Y-47139D01*
X49459Y-47041D01*
X49640Y-46860D01*
X49738Y-46624D01*
X49738Y-46368D01*
X49738Y-63887D01*
X48036Y-63887D01*
X48036Y-36614D01*
X48036Y-36276D01*
X47198Y-36276D01*
X47136Y-36339D01*
X47136Y-36476D01*
X47174Y-36568D01*
X47244Y-36638D01*
X47336Y-36676D01*
X47435Y-36676D01*
X47973Y-36676D01*
X48036Y-36614D01*
X48036Y-63887D01*
X47779Y-63887D01*
X47779Y-45825D01*
X47779Y-45138D01*
X47779Y-45038D01*
X47741Y-44946D01*
X47670Y-44876D01*
X47579Y-44838D01*
X47248Y-44838D01*
X47186Y-44901D01*
X47186Y-45432D01*
X47717Y-45432D01*
X47779Y-45369D01*
X47779Y-45138D01*
X47779Y-45825D01*
X47779Y-45594D01*
X47717Y-45532D01*
X47186Y-45532D01*
X47186Y-45539D01*
X47086Y-45539D01*
X47086Y-45532D01*
X47086Y-45432D01*
X47086Y-44901D01*
X47023Y-44838D01*
X46816Y-44838D01*
X46816Y-37197D01*
X46816Y-36597D01*
X46816Y-34957D01*
X46816Y-34357D01*
X46778Y-34265D01*
X46707Y-34194D01*
X46616Y-34156D01*
X46516Y-34156D01*
X45116Y-34156D01*
X45024Y-34194D01*
X44954Y-34264D01*
X44916Y-34356D01*
X44916Y-34456D01*
X44916Y-35056D01*
X44954Y-35148D01*
X45024Y-35218D01*
X45116Y-35256D01*
X45215Y-35256D01*
X46615Y-35256D01*
X46707Y-35218D01*
X46777Y-35148D01*
X46816Y-35056D01*
X46816Y-34957D01*
X46816Y-36597D01*
X46778Y-36505D01*
X46707Y-36434D01*
X46616Y-36396D01*
X46516Y-36396D01*
X45116Y-36396D01*
X45024Y-36434D01*
X44954Y-36504D01*
X44916Y-36596D01*
X44916Y-36696D01*
X44916Y-37296D01*
X44954Y-37388D01*
X45024Y-37458D01*
X45116Y-37496D01*
X45215Y-37496D01*
X46615Y-37496D01*
X46707Y-37458D01*
X46777Y-37388D01*
X46816Y-37296D01*
X46816Y-37197D01*
X46816Y-44838D01*
X46692Y-44838D01*
X46601Y-44876D01*
X46530Y-44946D01*
X46492Y-45038D01*
X46492Y-45138D01*
X46492Y-45369D01*
X46555Y-45432D01*
X47086Y-45432D01*
X47086Y-45532D01*
X46555Y-45532D01*
X46492Y-45594D01*
X46492Y-45825D01*
X46492Y-45925D01*
X46530Y-46017D01*
X46601Y-46087D01*
X46617Y-46094D01*
X46580Y-46131D01*
X46482Y-46367D01*
X46482Y-46623D01*
X46580Y-46860D01*
X46761Y-47041D01*
X46997Y-47139D01*
X47253Y-47139D01*
X47490Y-47041D01*
X47671Y-46860D01*
X47769Y-46624D01*
X47769Y-46368D01*
X47671Y-46131D01*
X47640Y-46100D01*
X47670Y-46087D01*
X47741Y-46017D01*
X47779Y-45925D01*
X47779Y-45825D01*
X47779Y-63887D01*
X45801Y-63887D01*
X45801Y-46368D01*
X45703Y-46131D01*
X45522Y-45950D01*
X45286Y-45852D01*
X45030Y-45852D01*
X44793Y-45950D01*
X44612Y-46131D01*
X44514Y-46367D01*
X44514Y-46623D01*
X44612Y-46860D01*
X44793Y-47041D01*
X45029Y-47139D01*
X45285Y-47139D01*
X45522Y-47041D01*
X45703Y-46860D01*
X45801Y-46624D01*
X45801Y-46368D01*
X45801Y-63887D01*
X41089Y-63887D01*
X41089Y-46288D01*
X40930Y-45902D01*
X40634Y-45606D01*
X40249Y-45446D01*
X39831Y-45445D01*
X39445Y-45605D01*
X39149Y-45900D01*
X38989Y-46286D01*
X38989Y-46704D01*
X39148Y-47090D01*
X39443Y-47385D01*
X39829Y-47545D01*
X40247Y-47546D01*
X40633Y-47386D01*
X40928Y-47091D01*
X41089Y-46705D01*
X41089Y-46288D01*
X41089Y-63887D01*
X38727Y-63887D01*
X38727Y-40579D01*
X38567Y-40193D01*
X38272Y-39897D01*
X37886Y-39737D01*
X37469Y-39736D01*
X37083Y-39896D01*
X36787Y-40191D01*
X36627Y-40577D01*
X36626Y-40994D01*
X36786Y-41381D01*
X37081Y-41676D01*
X37467Y-41836D01*
X37884Y-41837D01*
X38271Y-41677D01*
X38566Y-41382D01*
X38726Y-40996D01*
X38727Y-40579D01*
X38727Y-63887D01*
X35486Y-63887D01*
X35486Y-37274D01*
X35388Y-37037D01*
X35207Y-36856D01*
X34971Y-36758D01*
X34715Y-36757D01*
X34478Y-36855D01*
X34297Y-37036D01*
X34199Y-37273D01*
X34198Y-37529D01*
X34296Y-37765D01*
X34477Y-37946D01*
X34713Y-38044D01*
X34969Y-38045D01*
X35206Y-37947D01*
X35387Y-37766D01*
X35485Y-37530D01*
X35486Y-37274D01*
X35486Y-63887D01*
X35184Y-63887D01*
X35184Y-40579D01*
X35024Y-40193D01*
X34729Y-39897D01*
X34343Y-39737D01*
X33926Y-39736D01*
X33714Y-39824D01*
X33714Y-37274D01*
X33616Y-37037D01*
X33435Y-36856D01*
X33199Y-36758D01*
X32943Y-36757D01*
X32706Y-36855D01*
X32525Y-37036D01*
X32427Y-37273D01*
X32427Y-37529D01*
X32525Y-37765D01*
X32698Y-37939D01*
X32627Y-37939D01*
X32535Y-37977D01*
X32465Y-38047D01*
X32427Y-38139D01*
X32427Y-38238D01*
X32427Y-38470D01*
X32489Y-38532D01*
X33020Y-38532D01*
X33020Y-38524D01*
X33120Y-38524D01*
X33120Y-38532D01*
X33651Y-38532D01*
X33714Y-38470D01*
X33714Y-38238D01*
X33714Y-38139D01*
X33676Y-38047D01*
X33605Y-37977D01*
X33513Y-37939D01*
X33443Y-37939D01*
X33616Y-37766D01*
X33714Y-37530D01*
X33714Y-37274D01*
X33714Y-39824D01*
X33714Y-39824D01*
X33714Y-38926D01*
X33714Y-38695D01*
X33651Y-38632D01*
X33120Y-38632D01*
X33120Y-39163D01*
X33183Y-39226D01*
X33513Y-39226D01*
X33605Y-39188D01*
X33676Y-39117D01*
X33714Y-39026D01*
X33714Y-38926D01*
X33714Y-39824D01*
X33540Y-39896D01*
X33244Y-40191D01*
X33084Y-40577D01*
X33083Y-40994D01*
X33243Y-41381D01*
X33538Y-41676D01*
X33924Y-41836D01*
X34341Y-41837D01*
X34728Y-41677D01*
X35023Y-41382D01*
X35183Y-40996D01*
X35184Y-40579D01*
X35184Y-63887D01*
X35138Y-63887D01*
X33020Y-61784D01*
X33020Y-39163D01*
X33020Y-38632D01*
X32489Y-38632D01*
X32427Y-38695D01*
X32427Y-38926D01*
X32427Y-39026D01*
X32465Y-39117D01*
X32535Y-39188D01*
X32627Y-39226D01*
X32958Y-39226D01*
X33020Y-39163D01*
X33020Y-61784D01*
X29735Y-58522D01*
X29735Y-34114D01*
X34549Y-29105D01*
X59309Y-29105D01*
X64517Y-34468D01*
X64517Y-58246D01*
G54D10*
G36*
X54477Y-36367D02*
X50211Y-36367D01*
X50211Y-35521D01*
X50211Y-35344D01*
X50211Y-35245D01*
X50173Y-35153D01*
X50102Y-35083D01*
X50010Y-35045D01*
X49935Y-35045D01*
X49873Y-35107D01*
X49873Y-35383D01*
X50148Y-35383D01*
X50211Y-35320D01*
X50211Y-35344D01*
X50211Y-35521D01*
X50211Y-35545D01*
X50148Y-35483D01*
X49873Y-35483D01*
X49873Y-35758D01*
X49935Y-35821D01*
X50010Y-35821D01*
X50102Y-35783D01*
X50173Y-35712D01*
X50211Y-35621D01*
X50211Y-35521D01*
X50211Y-36367D01*
X49656Y-36367D01*
X49656Y-35821D01*
X49710Y-35821D01*
X49773Y-35758D01*
X49773Y-35630D01*
X49777Y-35621D01*
X49777Y-35521D01*
X49777Y-35245D01*
X49773Y-35235D01*
X49773Y-35107D01*
X49710Y-35045D01*
X49656Y-35045D01*
X49656Y-34695D01*
X54477Y-34695D01*
X54477Y-36367D01*
X54477Y-36367D01*
G37*
G54D21*
X54477Y-36367D02*
X50211Y-36367D01*
X50211Y-35521D01*
X50211Y-35344D01*
X50211Y-35245D01*
X50173Y-35153D01*
X50102Y-35083D01*
X50010Y-35045D01*
X49935Y-35045D01*
X49873Y-35107D01*
X49873Y-35383D01*
X50148Y-35383D01*
X50211Y-35320D01*
X50211Y-35344D01*
X50211Y-35521D01*
X50211Y-35545D01*
X50148Y-35483D01*
X49873Y-35483D01*
X49873Y-35758D01*
X49935Y-35821D01*
X50010Y-35821D01*
X50102Y-35783D01*
X50173Y-35712D01*
X50211Y-35621D01*
X50211Y-35521D01*
X50211Y-36367D01*
X49656Y-36367D01*
X49656Y-35821D01*
X49710Y-35821D01*
X49773Y-35758D01*
X49773Y-35630D01*
X49777Y-35621D01*
X49777Y-35521D01*
X49777Y-35245D01*
X49773Y-35235D01*
X49773Y-35107D01*
X49710Y-35045D01*
X49656Y-35045D01*
X49656Y-34695D01*
X54477Y-34695D01*
X54477Y-36367D01*
M02*
