G04 #@! TF.FileFunction,Copper,L1,Top,Signal*
%FSLAX46Y46*%
G04 Gerber Fmt 4.6, Leading zero omitted, Abs format (unit mm)*
G04 Created by KiCad (PCBNEW (after 2015-mar-04 BZR unknown)-product) date Wed 15 Apr 2015 11:54:57 AM CDT*
%MOMM*%
G01*
G04 APERTURE LIST*
%ADD10C,0.150000*%
%ADD11C,0.381000*%
%ADD12C,4.064000*%
%ADD13C,1.998980*%
%ADD14R,0.350520X0.749300*%
%ADD15R,2.057400X1.524000*%
%ADD16R,19.050000X1.524000*%
%ADD17C,0.889000*%
%ADD18C,0.203200*%
%ADD19C,0.254000*%
G04 APERTURE END LIST*
D10*
D11*
X150190200Y-167589200D02*
X89166700Y-167589200D01*
X89166700Y-167589200D02*
X70205600Y-148628100D01*
X150190200Y-68630800D02*
X169176700Y-87617300D01*
X70205600Y-87617300D02*
X89192100Y-68630800D01*
X169176700Y-148602700D02*
X150190200Y-167589200D01*
X169176700Y-87617300D02*
X169176700Y-148602700D01*
X89192100Y-68630800D02*
X150190200Y-68630800D01*
X70205600Y-148628100D02*
X70205600Y-87617300D01*
X127102752Y-139179300D02*
G75*
G03X127102752Y-139179300I-8472052J0D01*
G01*
X169181780Y-148597620D02*
X169181780Y-148590000D01*
X169171620Y-87609680D02*
X169171620Y-87619840D01*
D12*
X86700360Y-103598980D03*
X95699580Y-103598980D03*
X101700000Y-118100000D03*
X137700000Y-118100000D03*
D13*
X119700040Y-118099840D03*
X124701300Y-118099840D03*
X114701320Y-118099840D03*
X84000000Y-95000000D03*
X88500000Y-95000000D03*
D14*
X119674640Y-122651520D03*
X118826280Y-122651520D03*
X118826280Y-125349000D03*
X119674640Y-125349000D03*
D15*
X99991500Y-125424320D03*
D16*
X93070000Y-129869320D03*
D15*
X78508500Y-144825680D03*
D16*
X85430000Y-140380680D03*
D15*
X131741500Y-147174320D03*
D16*
X124820000Y-151619320D03*
D15*
X108758500Y-165825680D03*
D16*
X115680000Y-161380680D03*
D15*
X159491500Y-124424320D03*
D16*
X152570000Y-128869320D03*
D15*
X138508500Y-143825680D03*
D16*
X145430000Y-139380680D03*
D15*
X162991500Y-90174320D03*
D16*
X156070000Y-94619320D03*
D15*
X140008500Y-108825680D03*
D16*
X146930000Y-104380680D03*
D15*
X128991500Y-71174320D03*
D16*
X122070000Y-75619320D03*
D15*
X106008500Y-89825680D03*
D16*
X112930000Y-85380680D03*
D15*
X128991500Y-90174320D03*
D16*
X122070000Y-94619320D03*
D15*
X106008500Y-108825680D03*
D16*
X112930000Y-104380680D03*
D17*
X137500000Y-91500000D03*
X137500000Y-90000000D03*
X137500000Y-88500000D03*
X136000000Y-88500000D03*
X136000000Y-90000000D03*
X136000000Y-91500000D03*
X134500000Y-91500000D03*
X134500000Y-90000000D03*
X134500000Y-88500000D03*
X133000000Y-88500000D03*
X133000000Y-90000000D03*
X133000000Y-91500000D03*
X131500000Y-91500000D03*
X131500000Y-90000000D03*
X131500000Y-88500000D03*
X148500000Y-101000000D03*
X148500000Y-102500000D03*
X145500000Y-102500000D03*
X145500000Y-101000000D03*
X147000000Y-101000000D03*
X147000000Y-102500000D03*
X114500000Y-101000000D03*
X114500000Y-102500000D03*
X111500000Y-102500000D03*
X111500000Y-101000000D03*
X113000000Y-101000000D03*
X113000000Y-102500000D03*
X114500000Y-82000000D03*
X114500000Y-83500000D03*
X111500000Y-83500000D03*
X111500000Y-82000000D03*
X113000000Y-82000000D03*
X113000000Y-83500000D03*
X116199920Y-122598180D03*
X116199920Y-121099580D03*
X118399560Y-121000520D03*
X117200680Y-122598180D03*
X117200680Y-121099580D03*
X115646200Y-159232600D03*
X114147600Y-159245300D03*
X112623600Y-159245300D03*
X117144800Y-159258000D03*
X118706900Y-159258000D03*
X145440400Y-137464800D03*
X147091400Y-137477500D03*
X148602700Y-137464800D03*
X143916400Y-137452100D03*
X142417800Y-137464800D03*
X85432900Y-138518900D03*
X83959700Y-138544300D03*
X82473800Y-138544300D03*
X86931500Y-138493500D03*
X88480900Y-138468100D03*
D11*
X129424320Y-90174320D02*
X128991500Y-90174320D01*
X162991500Y-90174320D02*
X137500000Y-90174320D01*
X137500000Y-90174320D02*
X137500000Y-90500000D01*
X133500000Y-88500000D02*
X131500000Y-88500000D01*
X131174320Y-71174320D02*
X133500000Y-73500000D01*
X133500000Y-73500000D02*
X133500000Y-88500000D01*
X128991500Y-71174320D02*
X131174320Y-71174320D01*
X137500000Y-90000000D02*
X137500000Y-90500000D01*
X137500000Y-90500000D02*
X137500000Y-91000000D01*
X137500000Y-91000000D02*
X137500000Y-91500000D01*
X136000000Y-88500000D02*
X137500000Y-88500000D01*
X136000000Y-91500000D02*
X136000000Y-90000000D01*
X134500000Y-90000000D02*
X134500000Y-91500000D01*
X133000000Y-88500000D02*
X134500000Y-88500000D01*
X133000000Y-91500000D02*
X133000000Y-90000000D01*
X131500000Y-90000000D02*
X131500000Y-91500000D01*
X133527800Y-124358400D02*
X133527800Y-92027800D01*
X133527800Y-126834900D02*
X133527800Y-124358400D01*
X133527800Y-92027800D02*
X133000000Y-91500000D01*
X133527800Y-143941800D02*
X133527800Y-126834900D01*
X131741500Y-145728100D02*
X133527800Y-143941800D01*
X131741500Y-147174320D02*
X131741500Y-145728100D01*
X133593720Y-124424320D02*
X133527800Y-124358400D01*
X159491500Y-124424320D02*
X133593720Y-124424320D01*
X103593020Y-125424320D02*
X106603800Y-128435100D01*
X106603800Y-128435100D02*
X131927600Y-128435100D01*
X131927600Y-128435100D02*
X133527800Y-126834900D01*
X99991500Y-125424320D02*
X103593020Y-125424320D01*
D18*
X147000000Y-102500000D02*
X148500000Y-102500000D01*
X146930000Y-104380680D02*
X146930000Y-102570000D01*
X147000000Y-101000000D02*
X145500000Y-101000000D01*
X146930000Y-102570000D02*
X147000000Y-102500000D01*
X112930000Y-104380680D02*
X112930000Y-102570000D01*
X111500000Y-102500000D02*
X114500000Y-102500000D01*
X113000000Y-101000000D02*
X111500000Y-101000000D01*
X112930000Y-102570000D02*
X113000000Y-102500000D01*
X112930000Y-85380680D02*
X112930000Y-83570000D01*
X111500000Y-83500000D02*
X114500000Y-83500000D01*
X113000000Y-82000000D02*
X111500000Y-82000000D01*
X112930000Y-83570000D02*
X113000000Y-83500000D01*
X118826280Y-121427240D02*
X118399560Y-121000520D01*
X117200680Y-121099580D02*
X116199920Y-121099580D01*
X117254020Y-122651520D02*
X117200680Y-122598180D01*
X118826280Y-122651520D02*
X118826280Y-121427240D01*
X118826280Y-122651520D02*
X117254020Y-122651520D01*
X115680000Y-159266400D02*
X115646200Y-159232600D01*
X114147600Y-159245300D02*
X112623600Y-159245300D01*
X117144800Y-159258000D02*
X118706900Y-159258000D01*
X115680000Y-161380680D02*
X115680000Y-159266400D01*
X145430000Y-137475200D02*
X145440400Y-137464800D01*
X147091400Y-137477500D02*
X147104100Y-137464800D01*
X147104100Y-137464800D02*
X148602700Y-137464800D01*
X143916400Y-137452100D02*
X143903700Y-137464800D01*
X143903700Y-137464800D02*
X142417800Y-137464800D01*
X145430000Y-139380680D02*
X145430000Y-137475200D01*
X85430000Y-138521800D02*
X85432900Y-138518900D01*
X83959700Y-138544300D02*
X82473800Y-138544300D01*
X86931500Y-138493500D02*
X86956900Y-138468100D01*
X86956900Y-138468100D02*
X88480900Y-138468100D01*
X85430000Y-140380680D02*
X85430000Y-138521800D01*
D11*
X106008500Y-108825680D02*
X103325680Y-108825680D01*
X102880680Y-94619320D02*
X122070000Y-94619320D01*
X101500000Y-96000000D02*
X102880680Y-94619320D01*
X101500000Y-107000000D02*
X101500000Y-96000000D01*
X103325680Y-108825680D02*
X101500000Y-107000000D01*
D18*
X140008500Y-108825680D02*
X137325680Y-108825680D01*
X136880680Y-94619320D02*
X156070000Y-94619320D01*
X135500000Y-96000000D02*
X136880680Y-94619320D01*
X135500000Y-107000000D02*
X135500000Y-96000000D01*
X137325680Y-108825680D02*
X135500000Y-107000000D01*
X106008500Y-89825680D02*
X103325680Y-89825680D01*
X103380680Y-75619320D02*
X122070000Y-75619320D01*
X101500000Y-77500000D02*
X103380680Y-75619320D01*
X101500000Y-88000000D02*
X101500000Y-77500000D01*
X103325680Y-89825680D02*
X101500000Y-88000000D01*
X84000000Y-95000000D02*
X88500000Y-95000000D01*
D11*
X78508500Y-144825680D02*
X72825680Y-144825680D01*
X73630680Y-129869320D02*
X93070000Y-129869320D01*
X72750000Y-130750000D02*
X73630680Y-129869320D01*
X72750000Y-144750000D02*
X72750000Y-130750000D01*
X72825680Y-144825680D02*
X72750000Y-144750000D01*
X119674640Y-125349000D02*
X122201940Y-125349000D01*
X124701300Y-122849640D02*
X124701300Y-118099840D01*
X122201940Y-125349000D02*
X124701300Y-122849640D01*
X114701320Y-122849640D02*
X114701320Y-118099840D01*
X117200680Y-125349000D02*
X114701320Y-122849640D01*
X118826280Y-125349000D02*
X117200680Y-125349000D01*
X119700040Y-118099840D02*
X119700040Y-122626120D01*
X119700040Y-122626120D02*
X119674640Y-122651520D01*
X108758500Y-165825680D02*
X139924320Y-165825680D01*
X139369320Y-151619320D02*
X124820000Y-151619320D01*
X140500000Y-152750000D02*
X139369320Y-151619320D01*
X140500000Y-165250000D02*
X140500000Y-152750000D01*
X139924320Y-165825680D02*
X140500000Y-165250000D01*
X165444720Y-143825680D02*
X138508500Y-143825680D01*
X166270400Y-143000000D02*
X165444720Y-143825680D01*
X164162620Y-128869320D02*
X166270400Y-130977100D01*
X166270400Y-130977100D02*
X166270400Y-143000000D01*
X152570000Y-128869320D02*
X164162620Y-128869320D01*
D19*
G36*
X138704320Y-92373000D02*
X133873000Y-92373000D01*
X133873000Y-126373000D01*
X133127000Y-126373000D01*
X133127000Y-92471240D01*
X130655200Y-92471240D01*
X130655200Y-91062629D01*
X130655200Y-90460070D01*
X130655200Y-89888570D01*
X130655200Y-89286011D01*
X130558527Y-89052622D01*
X130379899Y-88873993D01*
X130146510Y-88777320D01*
X129893891Y-88777320D01*
X129277250Y-88777320D01*
X129118500Y-88936070D01*
X129118500Y-90047320D01*
X130496450Y-90047320D01*
X130655200Y-89888570D01*
X130655200Y-90460070D01*
X130496450Y-90301320D01*
X129118500Y-90301320D01*
X129118500Y-91412570D01*
X129277250Y-91571320D01*
X129893891Y-91571320D01*
X130146510Y-91571320D01*
X130379899Y-91474647D01*
X130558527Y-91296018D01*
X130655200Y-91062629D01*
X130655200Y-92471240D01*
X128864500Y-92471240D01*
X128864500Y-91412570D01*
X128864500Y-90301320D01*
X128864500Y-90047320D01*
X128864500Y-88936070D01*
X128705750Y-88777320D01*
X128089109Y-88777320D01*
X127836490Y-88777320D01*
X127603101Y-88873993D01*
X127424473Y-89052622D01*
X127327800Y-89286011D01*
X127327800Y-89888570D01*
X127486550Y-90047320D01*
X128864500Y-90047320D01*
X128864500Y-90301320D01*
X127486550Y-90301320D01*
X127327800Y-90460070D01*
X127327800Y-91062629D01*
X127424473Y-91296018D01*
X127603101Y-91474647D01*
X127836490Y-91571320D01*
X128089109Y-91571320D01*
X128705750Y-91571320D01*
X128864500Y-91412570D01*
X128864500Y-92471240D01*
X126326900Y-92471240D01*
X126326900Y-87726520D01*
X138704320Y-87726520D01*
X138704320Y-92373000D01*
X138704320Y-92373000D01*
G37*
X138704320Y-92373000D02*
X133873000Y-92373000D01*
X133873000Y-126373000D01*
X133127000Y-126373000D01*
X133127000Y-92471240D01*
X130655200Y-92471240D01*
X130655200Y-91062629D01*
X130655200Y-90460070D01*
X130655200Y-89888570D01*
X130655200Y-89286011D01*
X130558527Y-89052622D01*
X130379899Y-88873993D01*
X130146510Y-88777320D01*
X129893891Y-88777320D01*
X129277250Y-88777320D01*
X129118500Y-88936070D01*
X129118500Y-90047320D01*
X130496450Y-90047320D01*
X130655200Y-89888570D01*
X130655200Y-90460070D01*
X130496450Y-90301320D01*
X129118500Y-90301320D01*
X129118500Y-91412570D01*
X129277250Y-91571320D01*
X129893891Y-91571320D01*
X130146510Y-91571320D01*
X130379899Y-91474647D01*
X130558527Y-91296018D01*
X130655200Y-91062629D01*
X130655200Y-92471240D01*
X128864500Y-92471240D01*
X128864500Y-91412570D01*
X128864500Y-90301320D01*
X128864500Y-90047320D01*
X128864500Y-88936070D01*
X128705750Y-88777320D01*
X128089109Y-88777320D01*
X127836490Y-88777320D01*
X127603101Y-88873993D01*
X127424473Y-89052622D01*
X127327800Y-89286011D01*
X127327800Y-89888570D01*
X127486550Y-90047320D01*
X128864500Y-90047320D01*
X128864500Y-90301320D01*
X127486550Y-90301320D01*
X127327800Y-90460070D01*
X127327800Y-91062629D01*
X127424473Y-91296018D01*
X127603101Y-91474647D01*
X127836490Y-91571320D01*
X128089109Y-91571320D01*
X128705750Y-91571320D01*
X128864500Y-91412570D01*
X128864500Y-92471240D01*
X126326900Y-92471240D01*
X126326900Y-87726520D01*
X138704320Y-87726520D01*
X138704320Y-92373000D01*
M02*
