  0
SECTION
  2
HEADER
  9
$ANGBASE
  50
0.0
  9
$ANGDIR
  70
  1
  9
$MEASUREMENT
  70
0
  0
ENDSEC
  0
SECTION
  2
TABLES
  0
TABLE
  2
LTYPE
  70
4
  0
LTYPE
  5
40F
  2
CONTINUOUS
  70
0
  3
Solid line
  72
65
  73
0
  40
0.0
  0
LTYPE
  5
410
  2
DASHDOT
 70
0
  3
Dash Dot ____ _ ____ _
 72
65
 73
4
 40
2.0
 49
1.25
 49
-0.25
 49
0.25
 49
-0.25
  0
LTYPE
  5
411
  2
DASHED
 70
0
  3
Dashed __ __ __ __ __
 72
65
 73
2
 40
0.75
 49
0.5
 49
-0.25
  0
LTYPE
  5
43B
  2
DOTTED
 70
0
  3
Dotted .  .  .  .
 72
65
 73
2
 40
0.2
 49
0.0
 49
-0.2
  0
ENDTAB
  0
TABLE
  2
STYLE
  70
4
  0
STYLE
  2
KICAD
  70
0
  40
0
  41
1
  42
1
  50
0
  71
0
  3
isocp.shx
  0
STYLE
  2
KICADB
  70
0
  40
0
  41
1
  42
1
  50
0
  71
0
  3
isocp.shx
  0
STYLE
  2
KICADI
  70
0
  40
0
  41
1
  42
1
  50
15
  71
0
  3
isocp.shx
  0
STYLE
  2
KICADBI
  70
0
  40
0
  41
1
  42
1
  50
15
  71
0
  3
isocp.shx
  0
ENDTAB
  0
TABLE
  2
LAYER
  70
30
  0
LAYER
  2
BLACK
  70
0
  62
7
  6
CONTINUOUS
  0
LAYER
  2
GRAY1
  70
0
  62
251
  6
CONTINUOUS
  0
LAYER
  2
GRAY2
  70
0
  62
8
  6
CONTINUOUS
  0
LAYER
  2
GRAY3
  70
0
  62
9
  6
CONTINUOUS
  0
LAYER
  2
WHITE
  70
0
  62
7
  6
CONTINUOUS
  0
LAYER
  2
LYELLOW
  70
0
  62
51
  6
CONTINUOUS
  0
LAYER
  2
BLUE1
  70
0
  62
178
  6
CONTINUOUS
  0
LAYER
  2
GREEN1
  70
0
  62
98
  6
CONTINUOUS
  0
LAYER
  2
CYAN1
  70
0
  62
138
  6
CONTINUOUS
  0
LAYER
  2
RED1
  70
0
  62
18
  6
CONTINUOUS
  0
LAYER
  2
MAGENTA1
  70
0
  62
228
  6
CONTINUOUS
  0
LAYER
  2
BROWN1
  70
0
  62
58
  6
CONTINUOUS
  0
LAYER
  2
BLUE2
  70
0
  62
5
  6
CONTINUOUS
  0
LAYER
  2
GREEN2
  70
0
  62
3
  6
CONTINUOUS
  0
LAYER
  2
CYAN2
  70
0
  62
4
  6
CONTINUOUS
  0
LAYER
  2
RED2
  70
0
  62
1
  6
CONTINUOUS
  0
LAYER
  2
MAGENTA2
  70
0
  62
6
  6
CONTINUOUS
  0
LAYER
  2
BROWN2
  70
0
  62
54
  6
CONTINUOUS
  0
LAYER
  2
BLUE3
  70
0
  62
171
  6
CONTINUOUS
  0
LAYER
  2
GREEN3
  70
0
  62
91
  6
CONTINUOUS
  0
LAYER
  2
CYAN3
  70
0
  62
131
  6
CONTINUOUS
  0
LAYER
  2
RED3
  70
0
  62
11
  6
CONTINUOUS
  0
LAYER
  2
MAGENTA3
  70
0
  62
221
  6
CONTINUOUS
  0
LAYER
  2
YELLOW3
  70
0
  62
2
  6
CONTINUOUS
  0
LAYER
  2
BLUE4
  70
0
  62
5
  6
CONTINUOUS
  0
LAYER
  2
GREEN4
  70
0
  62
3
  6
CONTINUOUS
  0
LAYER
  2
CYAN4
  70
0
  62
4
  6
CONTINUOUS
  0
LAYER
  2
RED4
  70
0
  62
1
  6
CONTINUOUS
  0
LAYER
  2
MAGENTA4
  70
0
  62
6
  6
CONTINUOUS
  0
LAYER
  2
YELLOW4
  70
0
  62
2
  6
CONTINUOUS
  0
ENDTAB
  0
ENDSEC
  0
SECTION
  2
ENTITIES
0
LINE
8
BLACK
6
CONTINUOUS
10
140.217
20
-48.185
11
140.223
21
-48.185
0
LINE
8
BLACK
6
CONTINUOUS
10
140.223
20
-48.185
11
140.229
21
-48.1873
0
LINE
8
BLACK
6
CONTINUOUS
10
140.229
20
-48.1873
11
140.236
21
-48.1884
0
LINE
8
BLACK
6
CONTINUOUS
10
140.236
20
-48.1884
11
140.242
21
-48.1918
0
LINE
8
BLACK
6
CONTINUOUS
10
140.242
20
-48.1918
11
140.248
21
-48.194
0
LINE
8
BLACK
6
CONTINUOUS
10
140.248
20
-48.194
11
140.253
21
-48.1983
0
LINE
8
BLACK
6
CONTINUOUS
10
140.253
20
-48.1983
11
140.259
21
-48.2017
0
LINE
8
BLACK
6
CONTINUOUS
10
140.259
20
-48.2017
11
140.263
21
-48.2068
0
LINE
8
BLACK
6
CONTINUOUS
10
140.263
20
-48.2068
11
140.268
21
-48.211
0
LINE
8
BLACK
6
CONTINUOUS
10
140.268
20
-48.211
11
140.272
21
-48.2168
0
LINE
8
BLACK
6
CONTINUOUS
10
140.272
20
-48.2168
11
140.276
21
-48.2219
0
LINE
8
BLACK
6
CONTINUOUS
10
140.276
20
-48.2219
11
140.278
21
-48.2282
0
LINE
8
BLACK
6
CONTINUOUS
10
140.278
20
-48.2282
11
140.282
21
-48.234
0
LINE
8
BLACK
6
CONTINUOUS
10
140.282
20
-48.234
11
140.283
21
-48.2405
0
LINE
8
BLACK
6
CONTINUOUS
10
140.283
20
-48.2405
11
140.285
21
-48.2468
0
LINE
8
BLACK
6
CONTINUOUS
10
140.285
20
-48.2468
11
140.285
21
-48.2534
0
LINE
8
BLACK
6
CONTINUOUS
10
140.285
20
-48.2534
11
140.285
21
-48.2534
0
LINE
8
BLACK
6
CONTINUOUS
10
140.285
20
-48.2534
11
140.285
21
-51.115
0
LINE
8
BLACK
6
CONTINUOUS
10
140.285
20
-51.115
11
160.455
21
-51.115
0
LINE
8
BLACK
6
CONTINUOUS
10
160.455
20
-51.115
11
160.455
21
-48.2534
0
LINE
8
BLACK
6
CONTINUOUS
10
160.455
20
-48.2534
11
160.455
21
-48.2468
0
LINE
8
BLACK
6
CONTINUOUS
10
160.455
20
-48.2468
11
160.457
21
-48.2405
0
LINE
8
BLACK
6
CONTINUOUS
10
160.457
20
-48.2405
11
160.458
21
-48.234
0
LINE
8
BLACK
6
CONTINUOUS
10
160.458
20
-48.234
11
160.462
21
-48.2282
0
LINE
8
BLACK
6
CONTINUOUS
10
160.462
20
-48.2282
11
160.464
21
-48.2219
0
LINE
8
BLACK
6
CONTINUOUS
10
160.464
20
-48.2219
11
160.468
21
-48.2168
0
LINE
8
BLACK
6
CONTINUOUS
10
160.468
20
-48.2168
11
160.472
21
-48.211
0
LINE
8
BLACK
6
CONTINUOUS
10
160.472
20
-48.211
11
160.477
21
-48.2068
0
LINE
8
BLACK
6
CONTINUOUS
10
160.477
20
-48.2068
11
160.481
21
-48.2017
0
LINE
8
BLACK
6
CONTINUOUS
10
160.481
20
-48.2017
11
160.487
21
-48.1983
0
LINE
8
BLACK
6
CONTINUOUS
10
160.487
20
-48.1983
11
160.492
21
-48.194
0
LINE
8
BLACK
6
CONTINUOUS
10
160.492
20
-48.194
11
160.498
21
-48.1918
0
LINE
8
BLACK
6
CONTINUOUS
10
160.498
20
-48.1918
11
160.504
21
-48.1884
0
LINE
8
BLACK
6
CONTINUOUS
10
160.504
20
-48.1884
11
160.511
21
-48.1873
0
LINE
8
BLACK
6
CONTINUOUS
10
160.511
20
-48.1873
11
160.517
21
-48.185
0
LINE
8
BLACK
6
CONTINUOUS
10
160.517
20
-48.185
11
160.523
21
-48.185
0
LINE
8
BLACK
6
CONTINUOUS
10
160.523
20
-48.185
11
160.523
21
-48.185
0
LINE
8
BLACK
6
CONTINUOUS
10
160.523
20
-48.185
11
189.747
21
-48.185
0
LINE
8
BLACK
6
CONTINUOUS
10
189.747
20
-48.185
11
189.747
21
-48.185
0
LINE
8
BLACK
6
CONTINUOUS
10
189.747
20
-48.185
11
189.753
21
-48.185
0
LINE
8
BLACK
6
CONTINUOUS
10
189.753
20
-48.185
11
189.759
21
-48.1873
0
LINE
8
BLACK
6
CONTINUOUS
10
189.759
20
-48.1873
11
189.766
21
-48.1884
0
LINE
8
BLACK
6
CONTINUOUS
10
189.766
20
-48.1884
11
189.772
21
-48.1918
0
LINE
8
BLACK
6
CONTINUOUS
10
189.772
20
-48.1918
11
189.778
21
-48.194
0
LINE
8
BLACK
6
CONTINUOUS
10
189.778
20
-48.194
11
189.783
21
-48.1983
0
LINE
8
BLACK
6
CONTINUOUS
10
189.783
20
-48.1983
11
189.789
21
-48.2017
0
LINE
8
BLACK
6
CONTINUOUS
10
189.789
20
-48.2017
11
189.793
21
-48.2068
0
LINE
8
BLACK
6
CONTINUOUS
10
189.793
20
-48.2068
11
189.798
21
-48.211
0
LINE
8
BLACK
6
CONTINUOUS
10
189.798
20
-48.211
11
189.802
21
-48.2168
0
LINE
8
BLACK
6
CONTINUOUS
10
189.802
20
-48.2168
11
189.806
21
-48.2219
0
LINE
8
BLACK
6
CONTINUOUS
10
189.806
20
-48.2219
11
189.808
21
-48.2282
0
LINE
8
BLACK
6
CONTINUOUS
10
189.808
20
-48.2282
11
189.812
21
-48.234
0
LINE
8
BLACK
6
CONTINUOUS
10
189.812
20
-48.234
11
189.813
21
-48.2405
0
LINE
8
BLACK
6
CONTINUOUS
10
189.813
20
-48.2405
11
189.815
21
-48.2468
0
LINE
8
BLACK
6
CONTINUOUS
10
189.815
20
-48.2468
11
189.815
21
-48.2534
0
LINE
8
BLACK
6
CONTINUOUS
10
189.815
20
-48.2534
11
189.815
21
-48.2534
0
LINE
8
BLACK
6
CONTINUOUS
10
189.815
20
-48.2534
11
189.815
21
-71.175
0
LINE
8
BLACK
6
CONTINUOUS
10
189.815
20
-71.175
11
194.317
21
-71.175
0
LINE
8
BLACK
6
CONTINUOUS
10
194.317
20
-71.175
11
194.317
21
-71.175
0
LINE
8
BLACK
6
CONTINUOUS
10
194.317
20
-71.175
11
194.323
21
-71.175
0
LINE
8
BLACK
6
CONTINUOUS
10
194.323
20
-71.175
11
194.329
21
-71.1773
0
LINE
8
BLACK
6
CONTINUOUS
10
194.329
20
-71.1773
11
194.336
21
-71.1784
0
LINE
8
BLACK
6
CONTINUOUS
10
194.336
20
-71.1784
11
194.342
21
-71.1818
0
LINE
8
BLACK
6
CONTINUOUS
10
194.342
20
-71.1818
11
194.348
21
-71.184
0
LINE
8
BLACK
6
CONTINUOUS
10
194.348
20
-71.184
11
194.353
21
-71.1883
0
LINE
8
BLACK
6
CONTINUOUS
10
194.353
20
-71.1883
11
194.359
21
-71.1917
0
LINE
8
BLACK
6
CONTINUOUS
10
194.359
20
-71.1917
11
194.363
21
-71.1968
0
LINE
8
BLACK
6
CONTINUOUS
10
194.363
20
-71.1968
11
194.368
21
-71.201
0
LINE
8
BLACK
6
CONTINUOUS
10
194.368
20
-71.201
11
194.372
21
-71.2068
0
LINE
8
BLACK
6
CONTINUOUS
10
194.372
20
-71.2068
11
194.376
21
-71.2119
0
LINE
8
BLACK
6
CONTINUOUS
10
194.376
20
-71.2119
11
194.378
21
-71.2182
0
LINE
8
BLACK
6
CONTINUOUS
10
194.378
20
-71.2182
11
194.382
21
-71.224
0
LINE
8
BLACK
6
CONTINUOUS
10
194.382
20
-71.224
11
194.383
21
-71.2305
0
LINE
8
BLACK
6
CONTINUOUS
10
194.383
20
-71.2305
11
194.385
21
-71.2368
0
LINE
8
BLACK
6
CONTINUOUS
10
194.385
20
-71.2368
11
194.385
21
-71.2434
0
LINE
8
BLACK
6
CONTINUOUS
10
194.385
20
-71.2434
11
194.385
21
-71.2434
0
LINE
8
BLACK
6
CONTINUOUS
10
194.385
20
-71.2434
11
194.385
21
-144.157
0
LINE
8
BLACK
6
CONTINUOUS
10
194.385
20
-144.157
11
194.385
21
-144.157
0
LINE
8
BLACK
6
CONTINUOUS
10
194.385
20
-144.157
11
194.385
21
-144.163
0
LINE
8
BLACK
6
CONTINUOUS
10
194.385
20
-144.163
11
194.383
21
-144.169
0
LINE
8
BLACK
6
CONTINUOUS
10
194.383
20
-144.169
11
194.382
21
-144.176
0
LINE
8
BLACK
6
CONTINUOUS
10
194.382
20
-144.176
11
194.378
21
-144.182
0
LINE
8
BLACK
6
CONTINUOUS
10
194.378
20
-144.182
11
194.376
21
-144.188
0
LINE
8
BLACK
6
CONTINUOUS
10
194.376
20
-144.188
11
194.372
21
-144.193
0
LINE
8
BLACK
6
CONTINUOUS
10
194.372
20
-144.193
11
194.368
21
-144.199
0
LINE
8
BLACK
6
CONTINUOUS
10
194.368
20
-144.199
11
194.363
21
-144.203
0
LINE
8
BLACK
6
CONTINUOUS
10
194.363
20
-144.203
11
194.359
21
-144.208
0
LINE
8
BLACK
6
CONTINUOUS
10
194.359
20
-144.208
11
194.353
21
-144.212
0
LINE
8
BLACK
6
CONTINUOUS
10
194.353
20
-144.212
11
194.348
21
-144.216
0
LINE
8
BLACK
6
CONTINUOUS
10
194.348
20
-144.216
11
194.342
21
-144.218
0
LINE
8
BLACK
6
CONTINUOUS
10
194.342
20
-144.218
11
194.336
21
-144.222
0
LINE
8
BLACK
6
CONTINUOUS
10
194.336
20
-144.222
11
194.329
21
-144.223
0
LINE
8
BLACK
6
CONTINUOUS
10
194.329
20
-144.223
11
194.323
21
-144.225
0
LINE
8
BLACK
6
CONTINUOUS
10
194.323
20
-144.225
11
194.317
21
-144.225
0
LINE
8
BLACK
6
CONTINUOUS
10
194.317
20
-144.225
11
194.317
21
-144.225
0
LINE
8
BLACK
6
CONTINUOUS
10
194.317
20
-144.225
11
160.523
21
-144.225
0
LINE
8
BLACK
6
CONTINUOUS
10
160.523
20
-144.225
11
160.523
21
-144.225
0
LINE
8
BLACK
6
CONTINUOUS
10
160.523
20
-144.225
11
160.517
21
-144.225
0
LINE
8
BLACK
6
CONTINUOUS
10
160.517
20
-144.225
11
160.511
21
-144.223
0
LINE
8
BLACK
6
CONTINUOUS
10
160.511
20
-144.223
11
160.504
21
-144.222
0
LINE
8
BLACK
6
CONTINUOUS
10
160.504
20
-144.222
11
160.498
21
-144.218
0
LINE
8
BLACK
6
CONTINUOUS
10
160.498
20
-144.218
11
160.492
21
-144.216
0
LINE
8
BLACK
6
CONTINUOUS
10
160.492
20
-144.216
11
160.487
21
-144.212
0
LINE
8
BLACK
6
CONTINUOUS
10
160.487
20
-144.212
11
160.481
21
-144.208
0
LINE
8
BLACK
6
CONTINUOUS
10
160.481
20
-144.208
11
160.477
21
-144.203
0
LINE
8
BLACK
6
CONTINUOUS
10
160.477
20
-144.203
11
160.472
21
-144.199
0
LINE
8
BLACK
6
CONTINUOUS
10
160.472
20
-144.199
11
160.468
21
-144.193
0
LINE
8
BLACK
6
CONTINUOUS
10
160.468
20
-144.193
11
160.464
21
-144.188
0
LINE
8
BLACK
6
CONTINUOUS
10
160.464
20
-144.188
11
160.462
21
-144.182
0
LINE
8
BLACK
6
CONTINUOUS
10
160.462
20
-144.182
11
160.458
21
-144.176
0
LINE
8
BLACK
6
CONTINUOUS
10
160.458
20
-144.176
11
160.457
21
-144.169
0
LINE
8
BLACK
6
CONTINUOUS
10
160.457
20
-144.169
11
160.455
21
-144.163
0
LINE
8
BLACK
6
CONTINUOUS
10
160.455
20
-144.163
11
160.455
21
-144.137
0
LINE
8
BLACK
6
CONTINUOUS
10
160.455
20
-144.137
11
160.455
21
-141.305
0
LINE
8
BLACK
6
CONTINUOUS
10
160.455
20
-141.305
11
140.285
21
-141.305
0
LINE
8
BLACK
6
CONTINUOUS
10
140.285
20
-141.305
11
140.285
21
-144.157
0
LINE
8
BLACK
6
CONTINUOUS
10
140.285
20
-144.157
11
140.285
21
-144.157
0
LINE
8
BLACK
6
CONTINUOUS
10
140.285
20
-144.157
11
140.285
21
-144.163
0
LINE
8
BLACK
6
CONTINUOUS
10
140.285
20
-144.163
11
140.283
21
-144.169
0
LINE
8
BLACK
6
CONTINUOUS
10
140.283
20
-144.169
11
140.282
21
-144.176
0
LINE
8
BLACK
6
CONTINUOUS
10
140.282
20
-144.176
11
140.278
21
-144.182
0
LINE
8
BLACK
6
CONTINUOUS
10
140.278
20
-144.182
11
140.276
21
-144.188
0
LINE
8
BLACK
6
CONTINUOUS
10
140.276
20
-144.188
11
140.272
21
-144.193
0
LINE
8
BLACK
6
CONTINUOUS
10
140.272
20
-144.193
11
140.268
21
-144.199
0
LINE
8
BLACK
6
CONTINUOUS
10
140.268
20
-144.199
11
140.263
21
-144.203
0
LINE
8
BLACK
6
CONTINUOUS
10
140.263
20
-144.203
11
140.259
21
-144.208
0
LINE
8
BLACK
6
CONTINUOUS
10
140.259
20
-144.208
11
140.253
21
-144.212
0
LINE
8
BLACK
6
CONTINUOUS
10
140.253
20
-144.212
11
140.248
21
-144.216
0
LINE
8
BLACK
6
CONTINUOUS
10
140.248
20
-144.216
11
140.242
21
-144.218
0
LINE
8
BLACK
6
CONTINUOUS
10
140.242
20
-144.218
11
140.236
21
-144.222
0
LINE
8
BLACK
6
CONTINUOUS
10
140.236
20
-144.222
11
140.229
21
-144.223
0
LINE
8
BLACK
6
CONTINUOUS
10
140.229
20
-144.223
11
140.223
21
-144.225
0
LINE
8
BLACK
6
CONTINUOUS
10
140.223
20
-144.225
11
140.217
21
-144.225
0
LINE
8
BLACK
6
CONTINUOUS
10
140.217
20
-144.225
11
140.217
21
-144.225
0
LINE
8
BLACK
6
CONTINUOUS
10
140.217
20
-144.225
11
104.133
21
-144.225
0
LINE
8
BLACK
6
CONTINUOUS
10
104.133
20
-144.225
11
104.133
21
-144.225
0
LINE
8
BLACK
6
CONTINUOUS
10
104.133
20
-144.225
11
104.127
21
-144.225
0
LINE
8
BLACK
6
CONTINUOUS
10
104.127
20
-144.225
11
104.121
21
-144.223
0
LINE
8
BLACK
6
CONTINUOUS
10
104.121
20
-144.223
11
104.114
21
-144.222
0
LINE
8
BLACK
6
CONTINUOUS
10
104.114
20
-144.222
11
104.108
21
-144.218
0
LINE
8
BLACK
6
CONTINUOUS
10
104.108
20
-144.218
11
104.102
21
-144.216
0
LINE
8
BLACK
6
CONTINUOUS
10
104.102
20
-144.216
11
104.097
21
-144.212
0
LINE
8
BLACK
6
CONTINUOUS
10
104.097
20
-144.212
11
104.091
21
-144.208
0
LINE
8
BLACK
6
CONTINUOUS
10
104.091
20
-144.208
11
104.087
21
-144.203
0
LINE
8
BLACK
6
CONTINUOUS
10
104.087
20
-144.203
11
104.082
21
-144.199
0
LINE
8
BLACK
6
CONTINUOUS
10
104.082
20
-144.199
11
104.078
21
-144.193
0
LINE
8
BLACK
6
CONTINUOUS
10
104.078
20
-144.193
11
104.074
21
-144.188
0
LINE
8
BLACK
6
CONTINUOUS
10
104.074
20
-144.188
11
104.072
21
-144.182
0
LINE
8
BLACK
6
CONTINUOUS
10
104.072
20
-144.182
11
104.068
21
-144.176
0
LINE
8
BLACK
6
CONTINUOUS
10
104.068
20
-144.176
11
104.067
21
-144.169
0
LINE
8
BLACK
6
CONTINUOUS
10
104.067
20
-144.169
11
104.065
21
-144.163
0
LINE
8
BLACK
6
CONTINUOUS
10
104.065
20
-144.163
11
104.065
21
-144.137
0
LINE
8
BLACK
6
CONTINUOUS
10
104.065
20
-144.137
11
104.065
21
-106.333
0
LINE
8
BLACK
6
CONTINUOUS
10
104.065
20
-106.333
11
104.065
21
-106.333
0
LINE
8
BLACK
6
CONTINUOUS
10
104.065
20
-106.333
11
104.065
21
-106.327
0
LINE
8
BLACK
6
CONTINUOUS
10
104.065
20
-106.327
11
104.067
21
-106.321
0
LINE
8
BLACK
6
CONTINUOUS
10
104.067
20
-106.321
11
104.068
21
-106.314
0
LINE
8
BLACK
6
CONTINUOUS
10
104.068
20
-106.314
11
104.072
21
-106.308
0
LINE
8
BLACK
6
CONTINUOUS
10
104.072
20
-106.308
11
104.074
21
-106.302
0
LINE
8
BLACK
6
CONTINUOUS
10
104.074
20
-106.302
11
104.078
21
-106.297
0
LINE
8
BLACK
6
CONTINUOUS
10
104.078
20
-106.297
11
104.082
21
-106.291
0
LINE
8
BLACK
6
CONTINUOUS
10
104.082
20
-106.291
11
104.087
21
-106.287
0
LINE
8
BLACK
6
CONTINUOUS
10
104.087
20
-106.287
11
104.091
21
-106.282
0
LINE
8
BLACK
6
CONTINUOUS
10
104.091
20
-106.282
11
104.097
21
-106.278
0
LINE
8
BLACK
6
CONTINUOUS
10
104.097
20
-106.278
11
104.102
21
-106.274
0
LINE
8
BLACK
6
CONTINUOUS
10
104.102
20
-106.274
11
104.108
21
-106.272
0
LINE
8
BLACK
6
CONTINUOUS
10
104.108
20
-106.272
11
104.114
21
-106.268
0
LINE
8
BLACK
6
CONTINUOUS
10
104.114
20
-106.268
11
104.121
21
-106.267
0
LINE
8
BLACK
6
CONTINUOUS
10
104.121
20
-106.267
11
104.127
21
-106.265
0
LINE
8
BLACK
6
CONTINUOUS
10
104.127
20
-106.265
11
104.133
21
-106.265
0
LINE
8
BLACK
6
CONTINUOUS
10
104.133
20
-106.265
11
104.133
21
-106.265
0
LINE
8
BLACK
6
CONTINUOUS
10
104.133
20
-106.265
11
105.985
21
-106.265
0
LINE
8
BLACK
6
CONTINUOUS
10
105.985
20
-106.265
11
105.985
21
-86.145
0
LINE
8
BLACK
6
CONTINUOUS
10
105.985
20
-86.145
11
104.133
21
-86.145
0
LINE
8
BLACK
6
CONTINUOUS
10
104.133
20
-86.145
11
104.133
21
-86.145
0
LINE
8
BLACK
6
CONTINUOUS
10
104.133
20
-86.145
11
104.127
21
-86.145
0
LINE
8
BLACK
6
CONTINUOUS
10
104.127
20
-86.145
11
104.121
21
-86.1427
0
LINE
8
BLACK
6
CONTINUOUS
10
104.121
20
-86.1427
11
104.114
21
-86.1416
0
LINE
8
BLACK
6
CONTINUOUS
10
104.114
20
-86.1416
11
104.108
21
-86.1382
0
LINE
8
BLACK
6
CONTINUOUS
10
104.108
20
-86.1382
11
104.102
21
-86.136
0
LINE
8
BLACK
6
CONTINUOUS
10
104.102
20
-86.136
11
104.097
21
-86.1317
0
LINE
8
BLACK
6
CONTINUOUS
10
104.097
20
-86.1317
11
104.091
21
-86.1283
0
LINE
8
BLACK
6
CONTINUOUS
10
104.091
20
-86.1283
11
104.087
21
-86.1232
0
LINE
8
BLACK
6
CONTINUOUS
10
104.087
20
-86.1232
11
104.082
21
-86.119
0
LINE
8
BLACK
6
CONTINUOUS
10
104.082
20
-86.119
11
104.078
21
-86.1132
0
LINE
8
BLACK
6
CONTINUOUS
10
104.078
20
-86.1132
11
104.074
21
-86.1081
0
LINE
8
BLACK
6
CONTINUOUS
10
104.074
20
-86.1081
11
104.072
21
-86.1018
0
LINE
8
BLACK
6
CONTINUOUS
10
104.072
20
-86.1018
11
104.068
21
-86.096
0
LINE
8
BLACK
6
CONTINUOUS
10
104.068
20
-86.096
11
104.067
21
-86.0895
0
LINE
8
BLACK
6
CONTINUOUS
10
104.067
20
-86.0895
11
104.065
21
-86.0832
0
LINE
8
BLACK
6
CONTINUOUS
10
104.065
20
-86.0832
11
104.065
21
-86.0568
0
LINE
8
BLACK
6
CONTINUOUS
10
104.065
20
-86.0568
11
104.065
21
-48.2534
0
LINE
8
BLACK
6
CONTINUOUS
10
104.065
20
-48.2534
11
104.065
21
-48.2534
0
LINE
8
BLACK
6
CONTINUOUS
10
104.065
20
-48.2534
11
104.065
21
-48.2468
0
LINE
8
BLACK
6
CONTINUOUS
10
104.065
20
-48.2468
11
104.067
21
-48.2405
0
LINE
8
BLACK
6
CONTINUOUS
10
104.067
20
-48.2405
11
104.068
21
-48.234
0
LINE
8
BLACK
6
CONTINUOUS
10
104.068
20
-48.234
11
104.072
21
-48.2282
0
LINE
8
BLACK
6
CONTINUOUS
10
104.072
20
-48.2282
11
104.074
21
-48.2219
0
LINE
8
BLACK
6
CONTINUOUS
10
104.074
20
-48.2219
11
104.078
21
-48.2168
0
LINE
8
BLACK
6
CONTINUOUS
10
104.078
20
-48.2168
11
104.082
21
-48.211
0
LINE
8
BLACK
6
CONTINUOUS
10
104.082
20
-48.211
11
104.087
21
-48.2068
0
LINE
8
BLACK
6
CONTINUOUS
10
104.087
20
-48.2068
11
104.091
21
-48.2017
0
LINE
8
BLACK
6
CONTINUOUS
10
104.091
20
-48.2017
11
104.097
21
-48.1983
0
LINE
8
BLACK
6
CONTINUOUS
10
104.097
20
-48.1983
11
104.102
21
-48.194
0
LINE
8
BLACK
6
CONTINUOUS
10
104.102
20
-48.194
11
104.108
21
-48.1918
0
LINE
8
BLACK
6
CONTINUOUS
10
104.108
20
-48.1918
11
104.114
21
-48.1884
0
LINE
8
BLACK
6
CONTINUOUS
10
104.114
20
-48.1884
11
104.121
21
-48.1873
0
LINE
8
BLACK
6
CONTINUOUS
10
104.121
20
-48.1873
11
104.127
21
-48.185
0
LINE
8
BLACK
6
CONTINUOUS
10
104.127
20
-48.185
11
104.133
21
-48.185
0
LINE
8
BLACK
6
CONTINUOUS
10
104.133
20
-48.185
11
104.133
21
-48.185
0
LINE
8
BLACK
6
CONTINUOUS
10
104.133
20
-48.185
11
140.217
21
-48.185
0
LINE
8
BLACK
6
CONTINUOUS
10
140.217
20
-48.185
11
140.217
21
-48.185
0
LINE
8
BLACK
6
CONTINUOUS
10
104.215
20
-48.335
11
104.215
21
-85.995
0
LINE
8
BLACK
6
CONTINUOUS
10
104.215
20
-85.995
11
106.067
21
-85.995
0
LINE
8
BLACK
6
CONTINUOUS
10
106.067
20
-85.995
11
106.067
21
-85.995
0
LINE
8
BLACK
6
CONTINUOUS
10
106.067
20
-85.995
11
106.073
21
-85.995
0
LINE
8
BLACK
6
CONTINUOUS
10
106.073
20
-85.995
11
106.079
21
-85.9973
0
LINE
8
BLACK
6
CONTINUOUS
10
106.079
20
-85.9973
11
106.086
21
-85.9984
0
LINE
8
BLACK
6
CONTINUOUS
10
106.086
20
-85.9984
11
106.092
21
-86.0018
0
LINE
8
BLACK
6
CONTINUOUS
10
106.092
20
-86.0018
11
106.098
21
-86.004
0
LINE
8
BLACK
6
CONTINUOUS
10
106.098
20
-86.004
11
106.103
21
-86.0083
0
LINE
8
BLACK
6
CONTINUOUS
10
106.103
20
-86.0083
11
106.109
21
-86.0117
0
LINE
8
BLACK
6
CONTINUOUS
10
106.109
20
-86.0117
11
106.113
21
-86.0168
0
LINE
8
BLACK
6
CONTINUOUS
10
106.113
20
-86.0168
11
106.118
21
-86.021
0
LINE
8
BLACK
6
CONTINUOUS
10
106.118
20
-86.021
11
106.122
21
-86.0268
0
LINE
8
BLACK
6
CONTINUOUS
10
106.122
20
-86.0268
11
106.126
21
-86.0319
0
LINE
8
BLACK
6
CONTINUOUS
10
106.126
20
-86.0319
11
106.128
21
-86.0382
0
LINE
8
BLACK
6
CONTINUOUS
10
106.128
20
-86.0382
11
106.132
21
-86.044
0
LINE
8
BLACK
6
CONTINUOUS
10
106.132
20
-86.044
11
106.133
21
-86.0505
0
LINE
8
BLACK
6
CONTINUOUS
10
106.133
20
-86.0505
11
106.135
21
-86.0568
0
LINE
8
BLACK
6
CONTINUOUS
10
106.135
20
-86.0568
11
106.135
21
-86.0634
0
LINE
8
BLACK
6
CONTINUOUS
10
106.135
20
-86.0634
11
106.135
21
-86.0634
0
LINE
8
BLACK
6
CONTINUOUS
10
106.135
20
-86.0634
11
106.135
21
-106.347
0
LINE
8
BLACK
6
CONTINUOUS
10
106.135
20
-106.347
11
106.135
21
-106.347
0
LINE
8
BLACK
6
CONTINUOUS
10
106.135
20
-106.347
11
106.135
21
-106.353
0
LINE
8
BLACK
6
CONTINUOUS
10
106.135
20
-106.353
11
106.133
21
-106.359
0
LINE
8
BLACK
6
CONTINUOUS
10
106.133
20
-106.359
11
106.132
21
-106.366
0
LINE
8
BLACK
6
CONTINUOUS
10
106.132
20
-106.366
11
106.128
21
-106.372
0
LINE
8
BLACK
6
CONTINUOUS
10
106.128
20
-106.372
11
106.126
21
-106.378
0
LINE
8
BLACK
6
CONTINUOUS
10
106.126
20
-106.378
11
106.122
21
-106.383
0
LINE
8
BLACK
6
CONTINUOUS
10
106.122
20
-106.383
11
106.118
21
-106.389
0
LINE
8
BLACK
6
CONTINUOUS
10
106.118
20
-106.389
11
106.113
21
-106.393
0
LINE
8
BLACK
6
CONTINUOUS
10
106.113
20
-106.393
11
106.109
21
-106.398
0
LINE
8
BLACK
6
CONTINUOUS
10
106.109
20
-106.398
11
106.103
21
-106.402
0
LINE
8
BLACK
6
CONTINUOUS
10
106.103
20
-106.402
11
106.098
21
-106.406
0
LINE
8
BLACK
6
CONTINUOUS
10
106.098
20
-106.406
11
106.092
21
-106.408
0
LINE
8
BLACK
6
CONTINUOUS
10
106.092
20
-106.408
11
106.086
21
-106.412
0
LINE
8
BLACK
6
CONTINUOUS
10
106.086
20
-106.412
11
106.079
21
-106.413
0
LINE
8
BLACK
6
CONTINUOUS
10
106.079
20
-106.413
11
106.073
21
-106.415
0
LINE
8
BLACK
6
CONTINUOUS
10
106.073
20
-106.415
11
106.067
21
-106.415
0
LINE
8
BLACK
6
CONTINUOUS
10
106.067
20
-106.415
11
106.067
21
-106.415
0
LINE
8
BLACK
6
CONTINUOUS
10
106.067
20
-106.415
11
104.215
21
-106.415
0
LINE
8
BLACK
6
CONTINUOUS
10
104.215
20
-106.415
11
104.215
21
-144.075
0
LINE
8
BLACK
6
CONTINUOUS
10
104.215
20
-144.075
11
140.135
21
-144.075
0
LINE
8
BLACK
6
CONTINUOUS
10
140.135
20
-144.075
11
140.135
21
-141.223
0
LINE
8
BLACK
6
CONTINUOUS
10
140.135
20
-141.223
11
140.135
21
-141.217
0
LINE
8
BLACK
6
CONTINUOUS
10
140.135
20
-141.217
11
140.137
21
-141.211
0
LINE
8
BLACK
6
CONTINUOUS
10
140.137
20
-141.211
11
140.138
21
-141.204
0
LINE
8
BLACK
6
CONTINUOUS
10
140.138
20
-141.204
11
140.142
21
-141.198
0
LINE
8
BLACK
6
CONTINUOUS
10
140.142
20
-141.198
11
140.144
21
-141.192
0
LINE
8
BLACK
6
CONTINUOUS
10
140.144
20
-141.192
11
140.148
21
-141.187
0
LINE
8
BLACK
6
CONTINUOUS
10
140.148
20
-141.187
11
140.152
21
-141.181
0
LINE
8
BLACK
6
CONTINUOUS
10
140.152
20
-141.181
11
140.157
21
-141.177
0
LINE
8
BLACK
6
CONTINUOUS
10
140.157
20
-141.177
11
140.161
21
-141.172
0
LINE
8
BLACK
6
CONTINUOUS
10
140.161
20
-141.172
11
140.167
21
-141.168
0
LINE
8
BLACK
6
CONTINUOUS
10
140.167
20
-141.168
11
140.172
21
-141.164
0
LINE
8
BLACK
6
CONTINUOUS
10
140.172
20
-141.164
11
140.178
21
-141.162
0
LINE
8
BLACK
6
CONTINUOUS
10
140.178
20
-141.162
11
140.184
21
-141.158
0
LINE
8
BLACK
6
CONTINUOUS
10
140.184
20
-141.158
11
140.191
21
-141.157
0
LINE
8
BLACK
6
CONTINUOUS
10
140.191
20
-141.157
11
140.197
21
-141.155
0
LINE
8
BLACK
6
CONTINUOUS
10
140.197
20
-141.155
11
140.203
21
-141.155
0
LINE
8
BLACK
6
CONTINUOUS
10
140.203
20
-141.155
11
140.203
21
-141.155
0
LINE
8
BLACK
6
CONTINUOUS
10
140.203
20
-141.155
11
160.537
21
-141.155
0
LINE
8
BLACK
6
CONTINUOUS
10
160.537
20
-141.155
11
160.537
21
-141.155
0
LINE
8
BLACK
6
CONTINUOUS
10
160.537
20
-141.155
11
160.543
21
-141.155
0
LINE
8
BLACK
6
CONTINUOUS
10
160.543
20
-141.155
11
160.549
21
-141.157
0
LINE
8
BLACK
6
CONTINUOUS
10
160.549
20
-141.157
11
160.556
21
-141.158
0
LINE
8
BLACK
6
CONTINUOUS
10
160.556
20
-141.158
11
160.562
21
-141.162
0
LINE
8
BLACK
6
CONTINUOUS
10
160.562
20
-141.162
11
160.568
21
-141.164
0
LINE
8
BLACK
6
CONTINUOUS
10
160.568
20
-141.164
11
160.573
21
-141.168
0
LINE
8
BLACK
6
CONTINUOUS
10
160.573
20
-141.168
11
160.579
21
-141.172
0
LINE
8
BLACK
6
CONTINUOUS
10
160.579
20
-141.172
11
160.583
21
-141.177
0
LINE
8
BLACK
6
CONTINUOUS
10
160.583
20
-141.177
11
160.588
21
-141.181
0
LINE
8
BLACK
6
CONTINUOUS
10
160.588
20
-141.181
11
160.592
21
-141.187
0
LINE
8
BLACK
6
CONTINUOUS
10
160.592
20
-141.187
11
160.596
21
-141.192
0
LINE
8
BLACK
6
CONTINUOUS
10
160.596
20
-141.192
11
160.598
21
-141.198
0
LINE
8
BLACK
6
CONTINUOUS
10
160.598
20
-141.198
11
160.602
21
-141.204
0
LINE
8
BLACK
6
CONTINUOUS
10
160.602
20
-141.204
11
160.603
21
-141.211
0
LINE
8
BLACK
6
CONTINUOUS
10
160.603
20
-141.211
11
160.605
21
-141.217
0
LINE
8
BLACK
6
CONTINUOUS
10
160.605
20
-141.217
11
160.605
21
-141.223
0
LINE
8
BLACK
6
CONTINUOUS
10
160.605
20
-141.223
11
160.605
21
-141.223
0
LINE
8
BLACK
6
CONTINUOUS
10
160.605
20
-141.223
11
160.605
21
-144.075
0
LINE
8
BLACK
6
CONTINUOUS
10
160.605
20
-144.075
11
194.235
21
-144.075
0
LINE
8
BLACK
6
CONTINUOUS
10
194.235
20
-144.075
11
194.235
21
-71.325
0
LINE
8
BLACK
6
CONTINUOUS
10
194.235
20
-71.325
11
189.733
21
-71.325
0
LINE
8
BLACK
6
CONTINUOUS
10
189.733
20
-71.325
11
189.733
21
-71.325
0
LINE
8
BLACK
6
CONTINUOUS
10
189.733
20
-71.325
11
189.727
21
-71.325
0
LINE
8
BLACK
6
CONTINUOUS
10
189.727
20
-71.325
11
189.721
21
-71.3227
0
LINE
8
BLACK
6
CONTINUOUS
10
189.721
20
-71.3227
11
189.714
21
-71.3216
0
LINE
8
BLACK
6
CONTINUOUS
10
189.714
20
-71.3216
11
189.708
21
-71.3182
0
LINE
8
BLACK
6
CONTINUOUS
10
189.708
20
-71.3182
11
189.702
21
-71.316
0
LINE
8
BLACK
6
CONTINUOUS
10
189.702
20
-71.316
11
189.697
21
-71.3117
0
LINE
8
BLACK
6
CONTINUOUS
10
189.697
20
-71.3117
11
189.691
21
-71.3083
0
LINE
8
BLACK
6
CONTINUOUS
10
189.691
20
-71.3083
11
189.687
21
-71.3032
0
LINE
8
BLACK
6
CONTINUOUS
10
189.687
20
-71.3032
11
189.682
21
-71.299
0
LINE
8
BLACK
6
CONTINUOUS
10
189.682
20
-71.299
11
189.678
21
-71.2932
0
LINE
8
BLACK
6
CONTINUOUS
10
189.678
20
-71.2932
11
189.674
21
-71.2881
0
LINE
8
BLACK
6
CONTINUOUS
10
189.674
20
-71.2881
11
189.672
21
-71.2818
0
LINE
8
BLACK
6
CONTINUOUS
10
189.672
20
-71.2818
11
189.668
21
-71.276
0
LINE
8
BLACK
6
CONTINUOUS
10
189.668
20
-71.276
11
189.667
21
-71.2695
0
LINE
8
BLACK
6
CONTINUOUS
10
189.667
20
-71.2695
11
189.665
21
-71.2632
0
LINE
8
BLACK
6
CONTINUOUS
10
189.665
20
-71.2632
11
189.665
21
-71.2368
0
LINE
8
BLACK
6
CONTINUOUS
10
189.665
20
-71.2368
11
189.665
21
-48.335
0
LINE
8
BLACK
6
CONTINUOUS
10
189.665
20
-48.335
11
160.605
21
-48.335
0
LINE
8
BLACK
6
CONTINUOUS
10
160.605
20
-48.335
11
160.605
21
-51.1966
0
LINE
8
BLACK
6
CONTINUOUS
10
160.605
20
-51.1966
11
160.605
21
-51.1966
0
LINE
8
BLACK
6
CONTINUOUS
10
160.605
20
-51.1966
11
160.605
21
-51.2032
0
LINE
8
BLACK
6
CONTINUOUS
10
160.605
20
-51.2032
11
160.603
21
-51.2095
0
LINE
8
BLACK
6
CONTINUOUS
10
160.603
20
-51.2095
11
160.602
21
-51.216
0
LINE
8
BLACK
6
CONTINUOUS
10
160.602
20
-51.216
11
160.598
21
-51.2218
0
LINE
8
BLACK
6
CONTINUOUS
10
160.598
20
-51.2218
11
160.596
21
-51.2281
0
LINE
8
BLACK
6
CONTINUOUS
10
160.596
20
-51.2281
11
160.592
21
-51.2332
0
LINE
8
BLACK
6
CONTINUOUS
10
160.592
20
-51.2332
11
160.588
21
-51.239
0
LINE
8
BLACK
6
CONTINUOUS
10
160.588
20
-51.239
11
160.583
21
-51.2432
0
LINE
8
BLACK
6
CONTINUOUS
10
160.583
20
-51.2432
11
160.579
21
-51.2483
0
LINE
8
BLACK
6
CONTINUOUS
10
160.579
20
-51.2483
11
160.573
21
-51.2517
0
LINE
8
BLACK
6
CONTINUOUS
10
160.573
20
-51.2517
11
160.568
21
-51.256
0
LINE
8
BLACK
6
CONTINUOUS
10
160.568
20
-51.256
11
160.562
21
-51.2582
0
LINE
8
BLACK
6
CONTINUOUS
10
160.562
20
-51.2582
11
160.556
21
-51.2616
0
LINE
8
BLACK
6
CONTINUOUS
10
160.556
20
-51.2616
11
160.549
21
-51.2627
0
LINE
8
BLACK
6
CONTINUOUS
10
160.549
20
-51.2627
11
160.543
21
-51.265
0
LINE
8
BLACK
6
CONTINUOUS
10
160.543
20
-51.265
11
160.537
21
-51.265
0
LINE
8
BLACK
6
CONTINUOUS
10
160.537
20
-51.265
11
160.537
21
-51.265
0
LINE
8
BLACK
6
CONTINUOUS
10
160.537
20
-51.265
11
140.203
21
-51.265
0
LINE
8
BLACK
6
CONTINUOUS
10
140.203
20
-51.265
11
140.203
21
-51.265
0
LINE
8
BLACK
6
CONTINUOUS
10
140.203
20
-51.265
11
140.197
21
-51.265
0
LINE
8
BLACK
6
CONTINUOUS
10
140.197
20
-51.265
11
140.191
21
-51.2627
0
LINE
8
BLACK
6
CONTINUOUS
10
140.191
20
-51.2627
11
140.184
21
-51.2616
0
LINE
8
BLACK
6
CONTINUOUS
10
140.184
20
-51.2616
11
140.178
21
-51.2582
0
LINE
8
BLACK
6
CONTINUOUS
10
140.178
20
-51.2582
11
140.172
21
-51.256
0
LINE
8
BLACK
6
CONTINUOUS
10
140.172
20
-51.256
11
140.167
21
-51.2517
0
LINE
8
BLACK
6
CONTINUOUS
10
140.167
20
-51.2517
11
140.161
21
-51.2483
0
LINE
8
BLACK
6
CONTINUOUS
10
140.161
20
-51.2483
11
140.157
21
-51.2432
0
LINE
8
BLACK
6
CONTINUOUS
10
140.157
20
-51.2432
11
140.152
21
-51.239
0
LINE
8
BLACK
6
CONTINUOUS
10
140.152
20
-51.239
11
140.148
21
-51.2332
0
LINE
8
BLACK
6
CONTINUOUS
10
140.148
20
-51.2332
11
140.144
21
-51.2281
0
LINE
8
BLACK
6
CONTINUOUS
10
140.144
20
-51.2281
11
140.142
21
-51.2218
0
LINE
8
BLACK
6
CONTINUOUS
10
140.142
20
-51.2218
11
140.138
21
-51.216
0
LINE
8
BLACK
6
CONTINUOUS
10
140.138
20
-51.216
11
140.137
21
-51.2095
0
LINE
8
BLACK
6
CONTINUOUS
10
140.137
20
-51.2095
11
140.135
21
-51.2032
0
LINE
8
BLACK
6
CONTINUOUS
10
140.135
20
-51.2032
11
140.135
21
-51.1768
0
LINE
8
BLACK
6
CONTINUOUS
10
140.135
20
-51.1768
11
140.135
21
-48.335
0
LINE
8
BLACK
6
CONTINUOUS
10
140.135
20
-48.335
11
104.215
21
-48.335
  0
ENDSEC
  0
EOF
