G04 #@! TF.GenerationSoftware,KiCad,Pcbnew,5.0.0*
G04 #@! TF.CreationDate,2018-09-12T17:51:14-05:00*
G04 #@! TF.ProjectId,AntennaDeploymentBracket,416E74656E6E614465706C6F796D656E,rev?*
G04 #@! TF.SameCoordinates,Original*
G04 #@! TF.FileFunction,Legend,Top*
G04 #@! TF.FilePolarity,Positive*
%FSLAX46Y46*%
G04 Gerber Fmt 4.6, Leading zero omitted, Abs format (unit mm)*
G04 Created by KiCad (PCBNEW 5.0.0) date Wed Sep 12 17:51:14 2018*
%MOMM*%
%LPD*%
G01*
G04 APERTURE LIST*
%ADD10C,0.200000*%
%ADD11C,0.300000*%
%ADD12C,0.120000*%
%ADD13C,0.150000*%
G04 APERTURE END LIST*
D10*
X123012476Y-102746333D02*
X123393428Y-102746333D01*
X122936285Y-102974904D02*
X123202952Y-102174904D01*
X123469619Y-102974904D01*
X123736285Y-102441571D02*
X123736285Y-102974904D01*
X123736285Y-102517761D02*
X123774380Y-102479666D01*
X123850571Y-102441571D01*
X123964857Y-102441571D01*
X124041047Y-102479666D01*
X124079142Y-102555857D01*
X124079142Y-102974904D01*
X124345809Y-102441571D02*
X124650571Y-102441571D01*
X124460095Y-102174904D02*
X124460095Y-102860619D01*
X124498190Y-102936809D01*
X124574380Y-102974904D01*
X124650571Y-102974904D01*
X125222000Y-102936809D02*
X125145809Y-102974904D01*
X124993428Y-102974904D01*
X124917238Y-102936809D01*
X124879142Y-102860619D01*
X124879142Y-102555857D01*
X124917238Y-102479666D01*
X124993428Y-102441571D01*
X125145809Y-102441571D01*
X125222000Y-102479666D01*
X125260095Y-102555857D01*
X125260095Y-102632047D01*
X124879142Y-102708238D01*
X125602952Y-102441571D02*
X125602952Y-102974904D01*
X125602952Y-102517761D02*
X125641047Y-102479666D01*
X125717238Y-102441571D01*
X125831523Y-102441571D01*
X125907714Y-102479666D01*
X125945809Y-102555857D01*
X125945809Y-102974904D01*
X126326761Y-102441571D02*
X126326761Y-102974904D01*
X126326761Y-102517761D02*
X126364857Y-102479666D01*
X126441047Y-102441571D01*
X126555333Y-102441571D01*
X126631523Y-102479666D01*
X126669619Y-102555857D01*
X126669619Y-102974904D01*
X127393428Y-102974904D02*
X127393428Y-102555857D01*
X127355333Y-102479666D01*
X127279142Y-102441571D01*
X127126761Y-102441571D01*
X127050571Y-102479666D01*
X127393428Y-102936809D02*
X127317238Y-102974904D01*
X127126761Y-102974904D01*
X127050571Y-102936809D01*
X127012476Y-102860619D01*
X127012476Y-102784428D01*
X127050571Y-102708238D01*
X127126761Y-102670142D01*
X127317238Y-102670142D01*
X127393428Y-102632047D01*
X121964857Y-104374904D02*
X121964857Y-103574904D01*
X122155333Y-103574904D01*
X122269619Y-103613000D01*
X122345809Y-103689190D01*
X122383904Y-103765380D01*
X122422000Y-103917761D01*
X122422000Y-104032047D01*
X122383904Y-104184428D01*
X122345809Y-104260619D01*
X122269619Y-104336809D01*
X122155333Y-104374904D01*
X121964857Y-104374904D01*
X123069619Y-104336809D02*
X122993428Y-104374904D01*
X122841047Y-104374904D01*
X122764857Y-104336809D01*
X122726761Y-104260619D01*
X122726761Y-103955857D01*
X122764857Y-103879666D01*
X122841047Y-103841571D01*
X122993428Y-103841571D01*
X123069619Y-103879666D01*
X123107714Y-103955857D01*
X123107714Y-104032047D01*
X122726761Y-104108238D01*
X123450571Y-103841571D02*
X123450571Y-104641571D01*
X123450571Y-103879666D02*
X123526761Y-103841571D01*
X123679142Y-103841571D01*
X123755333Y-103879666D01*
X123793428Y-103917761D01*
X123831523Y-103993952D01*
X123831523Y-104222523D01*
X123793428Y-104298714D01*
X123755333Y-104336809D01*
X123679142Y-104374904D01*
X123526761Y-104374904D01*
X123450571Y-104336809D01*
X124288666Y-104374904D02*
X124212476Y-104336809D01*
X124174380Y-104260619D01*
X124174380Y-103574904D01*
X124707714Y-104374904D02*
X124631523Y-104336809D01*
X124593428Y-104298714D01*
X124555333Y-104222523D01*
X124555333Y-103993952D01*
X124593428Y-103917761D01*
X124631523Y-103879666D01*
X124707714Y-103841571D01*
X124822000Y-103841571D01*
X124898190Y-103879666D01*
X124936285Y-103917761D01*
X124974380Y-103993952D01*
X124974380Y-104222523D01*
X124936285Y-104298714D01*
X124898190Y-104336809D01*
X124822000Y-104374904D01*
X124707714Y-104374904D01*
X125241047Y-103841571D02*
X125431523Y-104374904D01*
X125622000Y-103841571D02*
X125431523Y-104374904D01*
X125355333Y-104565380D01*
X125317238Y-104603476D01*
X125241047Y-104641571D01*
X125926761Y-104374904D02*
X125926761Y-103841571D01*
X125926761Y-103917761D02*
X125964857Y-103879666D01*
X126041047Y-103841571D01*
X126155333Y-103841571D01*
X126231523Y-103879666D01*
X126269619Y-103955857D01*
X126269619Y-104374904D01*
X126269619Y-103955857D02*
X126307714Y-103879666D01*
X126383904Y-103841571D01*
X126498190Y-103841571D01*
X126574380Y-103879666D01*
X126612476Y-103955857D01*
X126612476Y-104374904D01*
X127298190Y-104336809D02*
X127222000Y-104374904D01*
X127069619Y-104374904D01*
X126993428Y-104336809D01*
X126955333Y-104260619D01*
X126955333Y-103955857D01*
X126993428Y-103879666D01*
X127069619Y-103841571D01*
X127222000Y-103841571D01*
X127298190Y-103879666D01*
X127336285Y-103955857D01*
X127336285Y-104032047D01*
X126955333Y-104108238D01*
X127679142Y-103841571D02*
X127679142Y-104374904D01*
X127679142Y-103917761D02*
X127717238Y-103879666D01*
X127793428Y-103841571D01*
X127907714Y-103841571D01*
X127983904Y-103879666D01*
X128022000Y-103955857D01*
X128022000Y-104374904D01*
X128288666Y-103841571D02*
X128593428Y-103841571D01*
X128402952Y-103574904D02*
X128402952Y-104260619D01*
X128441047Y-104336809D01*
X128517238Y-104374904D01*
X128593428Y-104374904D01*
X123945809Y-105355857D02*
X124060095Y-105393952D01*
X124098190Y-105432047D01*
X124136285Y-105508238D01*
X124136285Y-105622523D01*
X124098190Y-105698714D01*
X124060095Y-105736809D01*
X123983904Y-105774904D01*
X123679142Y-105774904D01*
X123679142Y-104974904D01*
X123945809Y-104974904D01*
X124022000Y-105013000D01*
X124060095Y-105051095D01*
X124098190Y-105127285D01*
X124098190Y-105203476D01*
X124060095Y-105279666D01*
X124022000Y-105317761D01*
X123945809Y-105355857D01*
X123679142Y-105355857D01*
X124593428Y-105774904D02*
X124517238Y-105736809D01*
X124479142Y-105698714D01*
X124441047Y-105622523D01*
X124441047Y-105393952D01*
X124479142Y-105317761D01*
X124517238Y-105279666D01*
X124593428Y-105241571D01*
X124707714Y-105241571D01*
X124783904Y-105279666D01*
X124822000Y-105317761D01*
X124860095Y-105393952D01*
X124860095Y-105622523D01*
X124822000Y-105698714D01*
X124783904Y-105736809D01*
X124707714Y-105774904D01*
X124593428Y-105774904D01*
X125545809Y-105774904D02*
X125545809Y-105355857D01*
X125507714Y-105279666D01*
X125431523Y-105241571D01*
X125279142Y-105241571D01*
X125202952Y-105279666D01*
X125545809Y-105736809D02*
X125469619Y-105774904D01*
X125279142Y-105774904D01*
X125202952Y-105736809D01*
X125164857Y-105660619D01*
X125164857Y-105584428D01*
X125202952Y-105508238D01*
X125279142Y-105470142D01*
X125469619Y-105470142D01*
X125545809Y-105432047D01*
X125926761Y-105774904D02*
X125926761Y-105241571D01*
X125926761Y-105393952D02*
X125964857Y-105317761D01*
X126002952Y-105279666D01*
X126079142Y-105241571D01*
X126155333Y-105241571D01*
X126764857Y-105774904D02*
X126764857Y-104974904D01*
X126764857Y-105736809D02*
X126688666Y-105774904D01*
X126536285Y-105774904D01*
X126460095Y-105736809D01*
X126422000Y-105698714D01*
X126383904Y-105622523D01*
X126383904Y-105393952D01*
X126422000Y-105317761D01*
X126460095Y-105279666D01*
X126536285Y-105241571D01*
X126688666Y-105241571D01*
X126764857Y-105279666D01*
D11*
X122007714Y-90959714D02*
X121936285Y-91031142D01*
X121722000Y-91102571D01*
X121579142Y-91102571D01*
X121364857Y-91031142D01*
X121222000Y-90888285D01*
X121150571Y-90745428D01*
X121079142Y-90459714D01*
X121079142Y-90245428D01*
X121150571Y-89959714D01*
X121222000Y-89816857D01*
X121364857Y-89674000D01*
X121579142Y-89602571D01*
X121722000Y-89602571D01*
X121936285Y-89674000D01*
X122007714Y-89745428D01*
X122507714Y-90102571D02*
X122864857Y-91102571D01*
X123222000Y-90102571D02*
X122864857Y-91102571D01*
X122722000Y-91459714D01*
X122650571Y-91531142D01*
X122507714Y-91602571D01*
X123722000Y-91031142D02*
X123936285Y-91102571D01*
X124293428Y-91102571D01*
X124436285Y-91031142D01*
X124507714Y-90959714D01*
X124579142Y-90816857D01*
X124579142Y-90674000D01*
X124507714Y-90531142D01*
X124436285Y-90459714D01*
X124293428Y-90388285D01*
X124007714Y-90316857D01*
X123864857Y-90245428D01*
X123793428Y-90174000D01*
X123722000Y-90031142D01*
X123722000Y-89888285D01*
X123793428Y-89745428D01*
X123864857Y-89674000D01*
X124007714Y-89602571D01*
X124364857Y-89602571D01*
X124579142Y-89674000D01*
X125864857Y-91102571D02*
X125864857Y-90316857D01*
X125793428Y-90174000D01*
X125650571Y-90102571D01*
X125364857Y-90102571D01*
X125222000Y-90174000D01*
X125864857Y-91031142D02*
X125722000Y-91102571D01*
X125364857Y-91102571D01*
X125222000Y-91031142D01*
X125150571Y-90888285D01*
X125150571Y-90745428D01*
X125222000Y-90602571D01*
X125364857Y-90531142D01*
X125722000Y-90531142D01*
X125864857Y-90459714D01*
X126364857Y-90102571D02*
X126936285Y-90102571D01*
X126579142Y-89602571D02*
X126579142Y-90888285D01*
X126650571Y-91031142D01*
X126793428Y-91102571D01*
X126936285Y-91102571D01*
X129364857Y-91102571D02*
X128507714Y-91102571D01*
X128936285Y-91102571D02*
X128936285Y-89602571D01*
X128793428Y-89816857D01*
X128650571Y-89959714D01*
X128507714Y-90031142D01*
X116668190Y-98571857D02*
X116871047Y-98643285D01*
X116938666Y-98714714D01*
X117006285Y-98857571D01*
X117006285Y-99071857D01*
X116938666Y-99214714D01*
X116871047Y-99286142D01*
X116735809Y-99357571D01*
X116194857Y-99357571D01*
X116194857Y-97857571D01*
X116668190Y-97857571D01*
X116803428Y-97929000D01*
X116871047Y-98000428D01*
X116938666Y-98143285D01*
X116938666Y-98286142D01*
X116871047Y-98429000D01*
X116803428Y-98500428D01*
X116668190Y-98571857D01*
X116194857Y-98571857D01*
X118223428Y-98357571D02*
X118223428Y-99357571D01*
X117614857Y-98357571D02*
X117614857Y-99143285D01*
X117682476Y-99286142D01*
X117817714Y-99357571D01*
X118020571Y-99357571D01*
X118155809Y-99286142D01*
X118223428Y-99214714D01*
X118899619Y-99357571D02*
X118899619Y-98357571D01*
X118899619Y-98643285D02*
X118967238Y-98500428D01*
X119034857Y-98429000D01*
X119170095Y-98357571D01*
X119305333Y-98357571D01*
X119778666Y-98357571D02*
X119778666Y-99357571D01*
X119778666Y-98500428D02*
X119846285Y-98429000D01*
X119981523Y-98357571D01*
X120184380Y-98357571D01*
X120319619Y-98429000D01*
X120387238Y-98571857D01*
X120387238Y-99357571D01*
X121131047Y-99286142D02*
X121131047Y-99357571D01*
X121063428Y-99500428D01*
X120995809Y-99571857D01*
X122821523Y-99357571D02*
X122821523Y-97857571D01*
X122821523Y-98429000D02*
X122956761Y-98357571D01*
X123227238Y-98357571D01*
X123362476Y-98429000D01*
X123430095Y-98500428D01*
X123497714Y-98643285D01*
X123497714Y-99071857D01*
X123430095Y-99214714D01*
X123362476Y-99286142D01*
X123227238Y-99357571D01*
X122956761Y-99357571D01*
X122821523Y-99286142D01*
X124714857Y-99357571D02*
X124714857Y-98571857D01*
X124647238Y-98429000D01*
X124512000Y-98357571D01*
X124241523Y-98357571D01*
X124106285Y-98429000D01*
X124714857Y-99286142D02*
X124579619Y-99357571D01*
X124241523Y-99357571D01*
X124106285Y-99286142D01*
X124038666Y-99143285D01*
X124038666Y-99000428D01*
X124106285Y-98857571D01*
X124241523Y-98786142D01*
X124579619Y-98786142D01*
X124714857Y-98714714D01*
X125391047Y-99357571D02*
X125391047Y-97857571D01*
X125391047Y-98429000D02*
X125526285Y-98357571D01*
X125796761Y-98357571D01*
X125932000Y-98429000D01*
X125999619Y-98500428D01*
X126067238Y-98643285D01*
X126067238Y-99071857D01*
X125999619Y-99214714D01*
X125932000Y-99286142D01*
X125796761Y-99357571D01*
X125526285Y-99357571D01*
X125391047Y-99286142D01*
X126540571Y-98357571D02*
X126878666Y-99357571D01*
X127216761Y-98357571D02*
X126878666Y-99357571D01*
X126743428Y-99714714D01*
X126675809Y-99786142D01*
X126540571Y-99857571D01*
X127825333Y-99286142D02*
X127825333Y-99357571D01*
X127757714Y-99500428D01*
X127690095Y-99571857D01*
X129515809Y-99357571D02*
X129515809Y-97857571D01*
X129515809Y-98429000D02*
X129651047Y-98357571D01*
X129921523Y-98357571D01*
X130056761Y-98429000D01*
X130124380Y-98500428D01*
X130192000Y-98643285D01*
X130192000Y-99071857D01*
X130124380Y-99214714D01*
X130056761Y-99286142D01*
X129921523Y-99357571D01*
X129651047Y-99357571D01*
X129515809Y-99286142D01*
X131409142Y-98357571D02*
X131409142Y-99357571D01*
X130800571Y-98357571D02*
X130800571Y-99143285D01*
X130868190Y-99286142D01*
X131003428Y-99357571D01*
X131206285Y-99357571D01*
X131341523Y-99286142D01*
X131409142Y-99214714D01*
X132085333Y-99357571D02*
X132085333Y-98357571D01*
X132085333Y-98643285D02*
X132152952Y-98500428D01*
X132220571Y-98429000D01*
X132355809Y-98357571D01*
X132491047Y-98357571D01*
X132964380Y-98357571D02*
X132964380Y-99357571D01*
X132964380Y-98500428D02*
X133032000Y-98429000D01*
X133167238Y-98357571D01*
X133370095Y-98357571D01*
X133505333Y-98429000D01*
X133572952Y-98571857D01*
X133572952Y-99357571D01*
X134249142Y-99214714D02*
X134316761Y-99286142D01*
X134249142Y-99357571D01*
X134181523Y-99286142D01*
X134249142Y-99214714D01*
X134249142Y-99357571D01*
X134249142Y-98786142D02*
X134181523Y-97929000D01*
X134249142Y-97857571D01*
X134316761Y-97929000D01*
X134249142Y-98786142D01*
X134249142Y-97857571D01*
D12*
G04 #@! TO.C,REF\002A\002A*
X120523000Y-103886000D02*
G75*
G03X120523000Y-103886000I-2286000J0D01*
G01*
X134493000Y-103886000D02*
G75*
G03X134493000Y-103886000I-2286000J0D01*
G01*
X120523000Y-91313000D02*
G75*
G03X120523000Y-91313000I-2286000J0D01*
G01*
X134493000Y-91313000D02*
G75*
G03X134493000Y-91313000I-2286000J0D01*
G01*
D13*
X116903666Y-107640380D02*
X116570333Y-107164190D01*
X116332238Y-107640380D02*
X116332238Y-106640380D01*
X116713190Y-106640380D01*
X116808428Y-106688000D01*
X116856047Y-106735619D01*
X116903666Y-106830857D01*
X116903666Y-106973714D01*
X116856047Y-107068952D01*
X116808428Y-107116571D01*
X116713190Y-107164190D01*
X116332238Y-107164190D01*
X117332238Y-107116571D02*
X117665571Y-107116571D01*
X117808428Y-107640380D02*
X117332238Y-107640380D01*
X117332238Y-106640380D01*
X117808428Y-106640380D01*
X118570333Y-107116571D02*
X118237000Y-107116571D01*
X118237000Y-107640380D02*
X118237000Y-106640380D01*
X118713190Y-106640380D01*
X119237000Y-106640380D02*
X119237000Y-106878476D01*
X118998904Y-106783238D02*
X119237000Y-106878476D01*
X119475095Y-106783238D01*
X119094142Y-107068952D02*
X119237000Y-106878476D01*
X119379857Y-107068952D01*
X119998904Y-106640380D02*
X119998904Y-106878476D01*
X119760809Y-106783238D02*
X119998904Y-106878476D01*
X120237000Y-106783238D01*
X119856047Y-107068952D02*
X119998904Y-106878476D01*
X120141761Y-107068952D01*
X131000666Y-107640380D02*
X130667333Y-107164190D01*
X130429238Y-107640380D02*
X130429238Y-106640380D01*
X130810190Y-106640380D01*
X130905428Y-106688000D01*
X130953047Y-106735619D01*
X131000666Y-106830857D01*
X131000666Y-106973714D01*
X130953047Y-107068952D01*
X130905428Y-107116571D01*
X130810190Y-107164190D01*
X130429238Y-107164190D01*
X131429238Y-107116571D02*
X131762571Y-107116571D01*
X131905428Y-107640380D02*
X131429238Y-107640380D01*
X131429238Y-106640380D01*
X131905428Y-106640380D01*
X132667333Y-107116571D02*
X132334000Y-107116571D01*
X132334000Y-107640380D02*
X132334000Y-106640380D01*
X132810190Y-106640380D01*
X133334000Y-106640380D02*
X133334000Y-106878476D01*
X133095904Y-106783238D02*
X133334000Y-106878476D01*
X133572095Y-106783238D01*
X133191142Y-107068952D02*
X133334000Y-106878476D01*
X133476857Y-107068952D01*
X134095904Y-106640380D02*
X134095904Y-106878476D01*
X133857809Y-106783238D02*
X134095904Y-106878476D01*
X134334000Y-106783238D01*
X133953047Y-107068952D02*
X134095904Y-106878476D01*
X134238761Y-107068952D01*
X116903666Y-88717380D02*
X116570333Y-88241190D01*
X116332238Y-88717380D02*
X116332238Y-87717380D01*
X116713190Y-87717380D01*
X116808428Y-87765000D01*
X116856047Y-87812619D01*
X116903666Y-87907857D01*
X116903666Y-88050714D01*
X116856047Y-88145952D01*
X116808428Y-88193571D01*
X116713190Y-88241190D01*
X116332238Y-88241190D01*
X117332238Y-88193571D02*
X117665571Y-88193571D01*
X117808428Y-88717380D02*
X117332238Y-88717380D01*
X117332238Y-87717380D01*
X117808428Y-87717380D01*
X118570333Y-88193571D02*
X118237000Y-88193571D01*
X118237000Y-88717380D02*
X118237000Y-87717380D01*
X118713190Y-87717380D01*
X119237000Y-87717380D02*
X119237000Y-87955476D01*
X118998904Y-87860238D02*
X119237000Y-87955476D01*
X119475095Y-87860238D01*
X119094142Y-88145952D02*
X119237000Y-87955476D01*
X119379857Y-88145952D01*
X119998904Y-87717380D02*
X119998904Y-87955476D01*
X119760809Y-87860238D02*
X119998904Y-87955476D01*
X120237000Y-87860238D01*
X119856047Y-88145952D02*
X119998904Y-87955476D01*
X120141761Y-88145952D01*
G04 #@! TO.C,J1*
X124761666Y-96226380D02*
X124761666Y-96940666D01*
X124714047Y-97083523D01*
X124618809Y-97178761D01*
X124475952Y-97226380D01*
X124380714Y-97226380D01*
X125761666Y-97226380D02*
X125190238Y-97226380D01*
X125475952Y-97226380D02*
X125475952Y-96226380D01*
X125380714Y-96369238D01*
X125285476Y-96464476D01*
X125190238Y-96512095D01*
G04 #@! TO.C,R1*
X120864333Y-97480380D02*
X120531000Y-97004190D01*
X120292904Y-97480380D02*
X120292904Y-96480380D01*
X120673857Y-96480380D01*
X120769095Y-96528000D01*
X120816714Y-96575619D01*
X120864333Y-96670857D01*
X120864333Y-96813714D01*
X120816714Y-96908952D01*
X120769095Y-96956571D01*
X120673857Y-97004190D01*
X120292904Y-97004190D01*
X121816714Y-97480380D02*
X121245285Y-97480380D01*
X121531000Y-97480380D02*
X121531000Y-96480380D01*
X121435761Y-96623238D01*
X121340523Y-96718476D01*
X121245285Y-96766095D01*
G04 #@! TO.C,REF\002A\002A*
X130873666Y-88717380D02*
X130540333Y-88241190D01*
X130302238Y-88717380D02*
X130302238Y-87717380D01*
X130683190Y-87717380D01*
X130778428Y-87765000D01*
X130826047Y-87812619D01*
X130873666Y-87907857D01*
X130873666Y-88050714D01*
X130826047Y-88145952D01*
X130778428Y-88193571D01*
X130683190Y-88241190D01*
X130302238Y-88241190D01*
X131302238Y-88193571D02*
X131635571Y-88193571D01*
X131778428Y-88717380D02*
X131302238Y-88717380D01*
X131302238Y-87717380D01*
X131778428Y-87717380D01*
X132540333Y-88193571D02*
X132207000Y-88193571D01*
X132207000Y-88717380D02*
X132207000Y-87717380D01*
X132683190Y-87717380D01*
X133207000Y-87717380D02*
X133207000Y-87955476D01*
X132968904Y-87860238D02*
X133207000Y-87955476D01*
X133445095Y-87860238D01*
X133064142Y-88145952D02*
X133207000Y-87955476D01*
X133349857Y-88145952D01*
X133968904Y-87717380D02*
X133968904Y-87955476D01*
X133730809Y-87860238D02*
X133968904Y-87955476D01*
X134207000Y-87860238D01*
X133826047Y-88145952D02*
X133968904Y-87955476D01*
X134111761Y-88145952D01*
G04 #@! TD*
M02*
