G04 #@! TF.FileFunction,Legend,Top*
%FSLAX46Y46*%
G04 Gerber Fmt 4.6, Leading zero omitted, Abs format (unit mm)*
G04 Created by KiCad (PCBNEW (after 2015-mar-04 BZR unknown)-product) date Wed 15 Apr 2015 11:51:05 AM CDT*
%MOMM*%
G01*
G04 APERTURE LIST*
%ADD10C,0.150000*%
%ADD11C,0.304800*%
%ADD12C,0.099060*%
%ADD13C,0.381000*%
G04 APERTURE END LIST*
D10*
D11*
X123625430Y-66076286D02*
X123698001Y-65979524D01*
X123915715Y-65882762D01*
X124060858Y-65882762D01*
X124278573Y-65979524D01*
X124423715Y-66173048D01*
X124496287Y-66366571D01*
X124568858Y-66753619D01*
X124568858Y-67043905D01*
X124496287Y-67430952D01*
X124423715Y-67624476D01*
X124278573Y-67818000D01*
X124060858Y-67914762D01*
X123915715Y-67914762D01*
X123698001Y-67818000D01*
X123625430Y-67721238D01*
X123117430Y-67237429D02*
X122754573Y-65882762D01*
X122391715Y-67237429D02*
X122754573Y-65882762D01*
X122899715Y-65398952D01*
X122972287Y-65302190D01*
X123117430Y-65205429D01*
X121883715Y-65979524D02*
X121666001Y-65882762D01*
X121303144Y-65882762D01*
X121158001Y-65979524D01*
X121085430Y-66076286D01*
X121012858Y-66269810D01*
X121012858Y-66463333D01*
X121085430Y-66656857D01*
X121158001Y-66753619D01*
X121303144Y-66850381D01*
X121593430Y-66947143D01*
X121738572Y-67043905D01*
X121811144Y-67140667D01*
X121883715Y-67334190D01*
X121883715Y-67527714D01*
X121811144Y-67721238D01*
X121738572Y-67818000D01*
X121593430Y-67914762D01*
X121230572Y-67914762D01*
X121012858Y-67818000D01*
X119706572Y-65882762D02*
X119706572Y-66947143D01*
X119779143Y-67140667D01*
X119924286Y-67237429D01*
X120214572Y-67237429D01*
X120359715Y-67140667D01*
X119706572Y-65979524D02*
X119851715Y-65882762D01*
X120214572Y-65882762D01*
X120359715Y-65979524D01*
X120432286Y-66173048D01*
X120432286Y-66366571D01*
X120359715Y-66560095D01*
X120214572Y-66656857D01*
X119851715Y-66656857D01*
X119706572Y-66753619D01*
X119198572Y-67237429D02*
X118618001Y-67237429D01*
X118980858Y-67914762D02*
X118980858Y-66173048D01*
X118908286Y-65979524D01*
X118763144Y-65882762D01*
X118618001Y-65882762D01*
X116948858Y-65882762D02*
X116948858Y-67914762D01*
X116586001Y-67914762D01*
X116368286Y-67818000D01*
X116223144Y-67624476D01*
X116150572Y-67430952D01*
X116078001Y-67043905D01*
X116078001Y-66753619D01*
X116150572Y-66366571D01*
X116223144Y-66173048D01*
X116368286Y-65979524D01*
X116586001Y-65882762D01*
X116948858Y-65882762D01*
X115424858Y-65882762D02*
X115424858Y-67237429D01*
X115424858Y-67914762D02*
X115497429Y-67818000D01*
X115424858Y-67721238D01*
X115352286Y-67818000D01*
X115424858Y-67914762D01*
X115424858Y-67721238D01*
X114046001Y-65882762D02*
X114046001Y-66947143D01*
X114118572Y-67140667D01*
X114263715Y-67237429D01*
X114554001Y-67237429D01*
X114699144Y-67140667D01*
X114046001Y-65979524D02*
X114191144Y-65882762D01*
X114554001Y-65882762D01*
X114699144Y-65979524D01*
X114771715Y-66173048D01*
X114771715Y-66366571D01*
X114699144Y-66560095D01*
X114554001Y-66656857D01*
X114191144Y-66656857D01*
X114046001Y-66753619D01*
X112667144Y-67237429D02*
X112667144Y-65592476D01*
X112739715Y-65398952D01*
X112812287Y-65302190D01*
X112957430Y-65205429D01*
X113175144Y-65205429D01*
X113320287Y-65302190D01*
X112667144Y-65979524D02*
X112812287Y-65882762D01*
X113102573Y-65882762D01*
X113247715Y-65979524D01*
X113320287Y-66076286D01*
X113392858Y-66269810D01*
X113392858Y-66850381D01*
X113320287Y-67043905D01*
X113247715Y-67140667D01*
X113102573Y-67237429D01*
X112812287Y-67237429D01*
X112667144Y-67140667D01*
X111941430Y-67237429D02*
X111941430Y-65882762D01*
X111941430Y-67043905D02*
X111868858Y-67140667D01*
X111723716Y-67237429D01*
X111506001Y-67237429D01*
X111360858Y-67140667D01*
X111288287Y-66947143D01*
X111288287Y-65882762D01*
X110344859Y-65882762D02*
X110490001Y-65979524D01*
X110562573Y-66076286D01*
X110635144Y-66269810D01*
X110635144Y-66850381D01*
X110562573Y-67043905D01*
X110490001Y-67140667D01*
X110344859Y-67237429D01*
X110127144Y-67237429D01*
X109982001Y-67140667D01*
X109909430Y-67043905D01*
X109836859Y-66850381D01*
X109836859Y-66269810D01*
X109909430Y-66076286D01*
X109982001Y-65979524D01*
X110127144Y-65882762D01*
X110344859Y-65882762D01*
X109256287Y-65979524D02*
X109111144Y-65882762D01*
X108820859Y-65882762D01*
X108675716Y-65979524D01*
X108603144Y-66173048D01*
X108603144Y-66269810D01*
X108675716Y-66463333D01*
X108820859Y-66560095D01*
X109038573Y-66560095D01*
X109183716Y-66656857D01*
X109256287Y-66850381D01*
X109256287Y-66947143D01*
X109183716Y-67140667D01*
X109038573Y-67237429D01*
X108820859Y-67237429D01*
X108675716Y-67140667D01*
X108167716Y-67237429D02*
X107587145Y-67237429D01*
X107950002Y-67914762D02*
X107950002Y-66173048D01*
X107877430Y-65979524D01*
X107732288Y-65882762D01*
X107587145Y-65882762D01*
X107079145Y-65882762D02*
X107079145Y-67237429D01*
X107079145Y-67914762D02*
X107151716Y-67818000D01*
X107079145Y-67721238D01*
X107006573Y-67818000D01*
X107079145Y-67914762D01*
X107079145Y-67721238D01*
X105700288Y-65979524D02*
X105845431Y-65882762D01*
X106135717Y-65882762D01*
X106280859Y-65979524D01*
X106353431Y-66076286D01*
X106426002Y-66269810D01*
X106426002Y-66850381D01*
X106353431Y-67043905D01*
X106280859Y-67140667D01*
X106135717Y-67237429D01*
X105845431Y-67237429D01*
X105700288Y-67140667D01*
X103886002Y-65882762D02*
X103886002Y-67914762D01*
X103305430Y-67914762D01*
X103160288Y-67818000D01*
X103087716Y-67721238D01*
X103015145Y-67527714D01*
X103015145Y-67237429D01*
X103087716Y-67043905D01*
X103160288Y-66947143D01*
X103305430Y-66850381D01*
X103886002Y-66850381D01*
X101708859Y-65882762D02*
X101708859Y-66947143D01*
X101781430Y-67140667D01*
X101926573Y-67237429D01*
X102216859Y-67237429D01*
X102362002Y-67140667D01*
X101708859Y-65979524D02*
X101854002Y-65882762D01*
X102216859Y-65882762D01*
X102362002Y-65979524D01*
X102434573Y-66173048D01*
X102434573Y-66366571D01*
X102362002Y-66560095D01*
X102216859Y-66656857D01*
X101854002Y-66656857D01*
X101708859Y-66753619D01*
X100983145Y-67237429D02*
X100983145Y-65882762D01*
X100983145Y-67043905D02*
X100910573Y-67140667D01*
X100765431Y-67237429D01*
X100547716Y-67237429D01*
X100402573Y-67140667D01*
X100330002Y-66947143D01*
X100330002Y-65882762D01*
X99023716Y-65979524D02*
X99168859Y-65882762D01*
X99459145Y-65882762D01*
X99604288Y-65979524D01*
X99676859Y-66173048D01*
X99676859Y-66947143D01*
X99604288Y-67140667D01*
X99459145Y-67237429D01*
X99168859Y-67237429D01*
X99023716Y-67140667D01*
X98951145Y-66947143D01*
X98951145Y-66753619D01*
X99676859Y-66560095D01*
X98080288Y-65882762D02*
X98225430Y-65979524D01*
X98298002Y-66173048D01*
X98298002Y-67914762D01*
X97499716Y-66076286D02*
X97427144Y-65979524D01*
X97499716Y-65882762D01*
X97572287Y-65979524D01*
X97499716Y-66076286D01*
X97499716Y-65882762D01*
X97499716Y-67140667D02*
X97427144Y-67043905D01*
X97499716Y-66947143D01*
X97572287Y-67043905D01*
X97499716Y-67140667D01*
X97499716Y-66947143D01*
X94742002Y-65882762D02*
X95250002Y-66850381D01*
X95612859Y-65882762D02*
X95612859Y-67914762D01*
X95032287Y-67914762D01*
X94887145Y-67818000D01*
X94814573Y-67721238D01*
X94742002Y-67527714D01*
X94742002Y-67237429D01*
X94814573Y-67043905D01*
X94887145Y-66947143D01*
X95032287Y-66850381D01*
X95612859Y-66850381D01*
X93508287Y-65979524D02*
X93653430Y-65882762D01*
X93943716Y-65882762D01*
X94088859Y-65979524D01*
X94161430Y-66173048D01*
X94161430Y-66947143D01*
X94088859Y-67140667D01*
X93943716Y-67237429D01*
X93653430Y-67237429D01*
X93508287Y-67140667D01*
X93435716Y-66947143D01*
X93435716Y-66753619D01*
X94161430Y-66560095D01*
X92927716Y-67237429D02*
X92564859Y-65882762D01*
X92202001Y-67237429D01*
X89952287Y-66947143D02*
X89734573Y-66850381D01*
X89662001Y-66753619D01*
X89589430Y-66560095D01*
X89589430Y-66269810D01*
X89662001Y-66076286D01*
X89734573Y-65979524D01*
X89879715Y-65882762D01*
X90460287Y-65882762D01*
X90460287Y-67914762D01*
X89952287Y-67914762D01*
X89807144Y-67818000D01*
X89734573Y-67721238D01*
X89662001Y-67527714D01*
X89662001Y-67334190D01*
X89734573Y-67140667D01*
X89807144Y-67043905D01*
X89952287Y-66947143D01*
X90460287Y-66947143D01*
X87122001Y-67237429D02*
X87122001Y-65882762D01*
X87484858Y-68011524D02*
X87847715Y-66560095D01*
X86904287Y-66560095D01*
X85235143Y-68011524D02*
X86541429Y-65398952D01*
X83928858Y-65882762D02*
X84799715Y-65882762D01*
X84364287Y-65882762D02*
X84364287Y-67914762D01*
X84509430Y-67624476D01*
X84654572Y-67430952D01*
X84799715Y-67334190D01*
X82550001Y-67914762D02*
X83275715Y-67914762D01*
X83348286Y-66947143D01*
X83275715Y-67043905D01*
X83130572Y-67140667D01*
X82767715Y-67140667D01*
X82622572Y-67043905D01*
X82550001Y-66947143D01*
X82477429Y-66753619D01*
X82477429Y-66269810D01*
X82550001Y-66076286D01*
X82622572Y-65979524D01*
X82767715Y-65882762D01*
X83130572Y-65882762D01*
X83275715Y-65979524D01*
X83348286Y-66076286D01*
X80735714Y-68011524D02*
X82042000Y-65398952D01*
X80300286Y-67721238D02*
X80227715Y-67818000D01*
X80082572Y-67914762D01*
X79719715Y-67914762D01*
X79574572Y-67818000D01*
X79502001Y-67721238D01*
X79429429Y-67527714D01*
X79429429Y-67334190D01*
X79502001Y-67043905D01*
X80372858Y-65882762D01*
X79429429Y-65882762D01*
X78486000Y-67914762D02*
X78340857Y-67914762D01*
X78195714Y-67818000D01*
X78123143Y-67721238D01*
X78050572Y-67527714D01*
X77978000Y-67140667D01*
X77978000Y-66656857D01*
X78050572Y-66269810D01*
X78123143Y-66076286D01*
X78195714Y-65979524D01*
X78340857Y-65882762D01*
X78486000Y-65882762D01*
X78631143Y-65979524D01*
X78703714Y-66076286D01*
X78776286Y-66269810D01*
X78848857Y-66656857D01*
X78848857Y-67140667D01*
X78776286Y-67527714D01*
X78703714Y-67721238D01*
X78631143Y-67818000D01*
X78486000Y-67914762D01*
X76526571Y-65882762D02*
X77397428Y-65882762D01*
X76962000Y-65882762D02*
X76962000Y-67914762D01*
X77107143Y-67624476D01*
X77252285Y-67430952D01*
X77397428Y-67334190D01*
X75147714Y-67914762D02*
X75873428Y-67914762D01*
X75945999Y-66947143D01*
X75873428Y-67043905D01*
X75728285Y-67140667D01*
X75365428Y-67140667D01*
X75220285Y-67043905D01*
X75147714Y-66947143D01*
X75075142Y-66753619D01*
X75075142Y-66269810D01*
X75147714Y-66076286D01*
X75220285Y-65979524D01*
X75365428Y-65882762D01*
X75728285Y-65882762D01*
X75873428Y-65979524D01*
X75945999Y-66076286D01*
D12*
X69171820Y-64648080D02*
X69171820Y-62638940D01*
X59420760Y-64648080D02*
X69171820Y-64648080D01*
X131396740Y-64648080D02*
X141150340Y-64648080D01*
X131396740Y-62638940D02*
X131396740Y-64648080D01*
X113609750Y-145200000D02*
G75*
G03X113609750Y-145200000I-8209750J0D01*
G01*
X69171820Y-62638940D02*
X131396740Y-62638940D01*
X131391660Y-163639500D02*
X131391660Y-165638480D01*
X69171820Y-163639500D02*
X69171820Y-165638480D01*
X131391660Y-165638480D02*
X69171820Y-165638480D01*
X76921360Y-70139560D02*
X76921360Y-87139780D01*
X133421120Y-70139560D02*
X133421120Y-87139780D01*
X76921360Y-70139560D02*
X133421120Y-70139560D01*
X133421120Y-87139780D02*
X76921360Y-87139780D01*
X69171820Y-159258000D02*
X59420760Y-159258000D01*
X69171820Y-163639500D02*
X69171820Y-159258000D01*
X131391660Y-159258000D02*
X141150340Y-159258000D01*
X131391660Y-163639500D02*
X131391660Y-159258000D01*
X131391660Y-69029580D02*
X141150340Y-69029580D01*
X131391660Y-64648080D02*
X131391660Y-69029580D01*
X69171820Y-69029580D02*
X59420760Y-69029580D01*
X69171820Y-64648080D02*
X69171820Y-69029580D01*
X141150340Y-163639500D02*
X131391660Y-163639500D01*
X141150340Y-64648080D02*
X141150340Y-163639500D01*
X59420760Y-163639500D02*
X59420760Y-64648080D01*
X59420760Y-163639500D02*
X69171820Y-163639500D01*
D13*
X64907160Y-136639300D02*
G75*
G03X64907160Y-136639300I-2286000J0D01*
G01*
X64907160Y-151638000D02*
G75*
G03X64907160Y-151638000I-2286000J0D01*
G01*
X102567740Y-157388560D02*
G75*
G03X102567740Y-157388560I-2286000J0D01*
G01*
X100000000Y-103822120D02*
X70713800Y-93992320D01*
X70713800Y-93992320D02*
X68148400Y-90944320D01*
X100000000Y-103822120D02*
X100000000Y-90944320D01*
X100000000Y-90944320D02*
X68148400Y-90944320D01*
X68000000Y-94177880D02*
X97286200Y-104007680D01*
X97286200Y-104007680D02*
X99851600Y-107055680D01*
X68000000Y-94177880D02*
X68000000Y-107055680D01*
X68000000Y-107055680D02*
X99851600Y-107055680D01*
X137000000Y-103822120D02*
X107713800Y-93992320D01*
X107713800Y-93992320D02*
X105148400Y-90944320D01*
X137000000Y-103822120D02*
X137000000Y-90944320D01*
X137000000Y-90944320D02*
X105148400Y-90944320D01*
X105000000Y-94177880D02*
X134286200Y-104007680D01*
X134286200Y-104007680D02*
X136851600Y-107055680D01*
X105000000Y-94177880D02*
X105000000Y-107055680D01*
X105000000Y-107055680D02*
X136851600Y-107055680D01*
X68000000Y-113177880D02*
X97286200Y-123007680D01*
X97286200Y-123007680D02*
X99851600Y-126055680D01*
X68000000Y-113177880D02*
X68000000Y-126055680D01*
X68000000Y-126055680D02*
X99851600Y-126055680D01*
X100000000Y-122822120D02*
X70713800Y-112992320D01*
X70713800Y-112992320D02*
X68148400Y-109944320D01*
X100000000Y-122822120D02*
X100000000Y-109944320D01*
X100000000Y-109944320D02*
X68148400Y-109944320D01*
X105500000Y-113177880D02*
X134786200Y-123007680D01*
X134786200Y-123007680D02*
X137351600Y-126055680D01*
X105500000Y-113177880D02*
X105500000Y-126055680D01*
X105500000Y-126055680D02*
X137351600Y-126055680D01*
X137000000Y-122822120D02*
X107713800Y-112992320D01*
X107713800Y-112992320D02*
X105148400Y-109944320D01*
X137000000Y-122822120D02*
X137000000Y-109944320D01*
X137000000Y-109944320D02*
X105148400Y-109944320D01*
X74677880Y-160500000D02*
X84507680Y-131213800D01*
X84507680Y-131213800D02*
X87555680Y-128648400D01*
X74677880Y-160500000D02*
X87555680Y-160500000D01*
X87555680Y-160500000D02*
X87555680Y-128648400D01*
X83822120Y-129500000D02*
X73992320Y-158786200D01*
X73992320Y-158786200D02*
X70944320Y-161351600D01*
X83822120Y-129500000D02*
X70944320Y-129500000D01*
X70944320Y-129500000D02*
X70944320Y-161351600D01*
X118177880Y-159500000D02*
X128007680Y-130213800D01*
X128007680Y-130213800D02*
X131055680Y-127648400D01*
X118177880Y-159500000D02*
X131055680Y-159500000D01*
X131055680Y-159500000D02*
X131055680Y-127648400D01*
X127322120Y-128500000D02*
X117492320Y-157786200D01*
X117492320Y-157786200D02*
X114444320Y-160351600D01*
X127322120Y-128500000D02*
X114444320Y-128500000D01*
X114444320Y-128500000D02*
X114444320Y-160351600D01*
M02*
