M48
;DRILL file {Pcbnew (2013-june-11)-stable} date Sun 22 Dec 2013 12:07:12 AM CST
;FORMAT={-:-/ absolute / inch / decimal}
FMAT,2
INCH,TZ
T1C0.025
T2C0.120
T3C0.197
T4C0.283
%
G90
G05
M72
T1
X2.5197Y-2.9528
X2.5197Y-3.0315
X2.5984Y-2.9528
X2.5984Y-3.0315
X2.6181Y-4.9409
X2.6181Y-5.
X2.6772Y-2.9528
X2.6772Y-3.0315
X2.6772Y-4.9409
X2.6772Y-5.
X2.7362Y-4.9409
X2.7362Y-5.
X2.7559Y-2.9528
X2.7559Y-3.0315
X3.0118Y-4.6063
X3.0512Y-3.8976
X3.0906Y-4.6063
X3.1299Y-3.8976
X3.1693Y-4.6063
X3.1693Y-5.4724
X3.2087Y-3.8976
X3.248Y-4.6063
X3.248Y-5.4724
X3.2874Y-3.8976
X3.3268Y-5.4724
X3.4055Y-5.4724
X4.0354Y-3.7795
X4.0354Y-3.8583
X4.0354Y-3.937
X4.0354Y-4.0157
X4.0354Y-4.0945
X4.0354Y-4.4882
X4.0354Y-4.5669
X4.0354Y-4.6457
X4.0354Y-4.7244
X4.0354Y-4.8031
X4.0354Y-5.3543
X4.0354Y-5.4331
X4.0354Y-5.5118
X4.0354Y-5.5906
X4.0354Y-5.6693
X4.1732Y-4.9213
X4.1732Y-4.9803
X4.1732Y-5.0394
X4.2323Y-4.9213
X4.2323Y-4.9803
X4.2323Y-5.0394
X4.2913Y-4.9213
X4.3504Y-4.9213
X4.4094Y-4.9213
X4.5079Y-3.8976
X4.5866Y-3.8976
X4.6063Y-4.6457
X4.6063Y-5.4724
X4.6654Y-3.8976
X4.685Y-4.6457
X4.685Y-5.4724
X4.7441Y-3.8976
X4.7638Y-4.6457
X4.7638Y-5.4724
X4.8228Y-3.8976
X4.8425Y-4.6457
X4.8425Y-5.4724
X5.3543Y-2.9528
X5.3543Y-3.0315
X5.3543Y-3.1102
X5.3543Y-3.189
X5.4331Y-2.9528
X5.4331Y-3.0315
X5.4331Y-3.1102
X5.4331Y-3.189
T2
X2.4654Y-5.3795
T3
X2.4654Y-5.97
T4
X3.9481Y-6.1964
T0
M30
