G04 (created by PCBNEW (2013-june-11)-stable) date Sun 22 Dec 2013 12:07:11 AM CST*
%MOIN*%
G04 Gerber Fmt 3.4, Leading zero omitted, Abs format*
%FSLAX34Y34*%
G01*
G70*
G90*
G04 APERTURE LIST*
%ADD10C,0.00590551*%
%ADD11C,0.0039*%
%ADD12C,0.16*%
%ADD13C,0.2362*%
%ADD14R,0.04X0.14*%
%ADD15R,0.06X0.14*%
%ADD16C,0.3346*%
%ADD17R,0.0276X0.0276*%
%ADD18C,0.035*%
%ADD19C,0.015*%
%ADD20C,0.008*%
%ADD21C,0.01*%
G04 APERTURE END LIST*
G54D10*
G54D11*
X51731Y-24661D02*
X51731Y-25458D01*
X27233Y-24661D02*
X51731Y-24661D01*
X27233Y-25448D02*
X27233Y-24661D01*
X51729Y-64425D02*
X51729Y-65212D01*
X27233Y-64425D02*
X27233Y-65212D01*
X51729Y-65212D02*
X27233Y-65212D01*
X30284Y-27614D02*
X30284Y-34307D01*
X52528Y-27614D02*
X52528Y-34307D01*
X30284Y-27614D02*
X52528Y-27614D01*
X52528Y-34307D02*
X30284Y-34307D01*
X55571Y-64425D02*
X51729Y-64425D01*
X55571Y-25452D02*
X55571Y-64425D01*
X51729Y-25452D02*
X55571Y-25452D01*
X23394Y-25452D02*
X27233Y-25452D01*
X23394Y-64425D02*
X23394Y-25452D01*
X23394Y-64425D02*
X27233Y-64425D01*
G54D12*
X24654Y-53795D03*
G54D13*
X24654Y-59700D03*
G54D14*
X27718Y-42520D03*
X28518Y-42520D03*
G54D15*
X29238Y-44740D03*
X26998Y-44740D03*
G54D16*
X39481Y-61964D03*
G54D17*
X26937Y-47161D03*
X26937Y-46727D03*
G54D18*
X53543Y-29527D03*
X54330Y-29527D03*
X54330Y-30314D03*
X53543Y-30314D03*
X53543Y-31102D03*
X54330Y-31102D03*
X54330Y-31889D03*
X53543Y-31889D03*
X27559Y-30314D03*
X27559Y-29527D03*
X26771Y-29527D03*
X26771Y-30314D03*
X25984Y-30314D03*
X25984Y-29527D03*
X25196Y-29527D03*
X25196Y-30314D03*
X31692Y-54724D03*
X32480Y-54724D03*
X33267Y-54724D03*
X34055Y-54724D03*
X46062Y-54724D03*
X46850Y-54724D03*
X47637Y-54724D03*
X48425Y-54724D03*
X48425Y-46456D03*
X46062Y-46456D03*
X46850Y-46456D03*
X47637Y-46456D03*
X30118Y-46062D03*
X30905Y-46062D03*
X31692Y-46062D03*
X32480Y-46062D03*
X40354Y-44881D03*
X40354Y-45669D03*
X40354Y-46456D03*
X40354Y-47244D03*
X40354Y-48031D03*
X40354Y-40944D03*
X40354Y-40157D03*
X40354Y-39370D03*
X40354Y-38582D03*
X40354Y-37795D03*
X45078Y-38976D03*
X45866Y-38976D03*
X46653Y-38976D03*
X47440Y-38976D03*
X48228Y-38976D03*
X40354Y-56692D03*
X40354Y-55905D03*
X40354Y-55118D03*
X40354Y-54330D03*
X40354Y-53543D03*
X30511Y-38976D03*
X31299Y-38976D03*
X32086Y-38976D03*
X32874Y-38976D03*
X27362Y-49409D03*
X26771Y-49409D03*
X26771Y-50000D03*
X26181Y-50000D03*
X26181Y-49409D03*
X27362Y-50000D03*
X42913Y-49212D03*
X44094Y-49212D03*
X43503Y-49212D03*
X42322Y-49212D03*
X42322Y-49803D03*
X42322Y-50393D03*
X41732Y-50393D03*
X41732Y-49803D03*
X41732Y-49212D03*
G54D19*
X49409Y-37007D02*
X49409Y-37795D01*
X51377Y-37007D02*
X53543Y-34842D01*
X53543Y-34842D02*
X53543Y-29527D01*
X54330Y-29527D02*
X54330Y-30314D01*
X53543Y-30314D02*
X53543Y-31102D01*
X54330Y-31102D02*
X54330Y-31889D01*
X49409Y-37007D02*
X51377Y-37007D01*
X49409Y-37795D02*
X48228Y-38976D01*
X27559Y-29527D02*
X27559Y-30314D01*
X26574Y-29724D02*
X26771Y-29527D01*
X26574Y-30118D02*
X26574Y-29724D01*
X26771Y-30314D02*
X26574Y-30118D01*
X25984Y-29527D02*
X25984Y-30314D01*
X25196Y-30314D02*
X25196Y-29527D01*
X32480Y-54724D02*
X31692Y-54724D01*
X34055Y-54724D02*
X33267Y-54724D01*
X46850Y-54724D02*
X46062Y-54724D01*
X48425Y-54724D02*
X47637Y-54724D01*
X47637Y-46456D02*
X48425Y-46456D01*
X47637Y-46456D02*
X46850Y-46456D01*
X30905Y-46062D02*
X30118Y-46062D01*
X32480Y-46062D02*
X31692Y-46062D01*
X40354Y-45669D02*
X40354Y-46456D01*
X40354Y-47244D02*
X40354Y-48031D01*
X40354Y-40157D02*
X40354Y-40944D01*
X40354Y-38582D02*
X40354Y-39370D01*
X43897Y-37795D02*
X40354Y-37795D01*
X45078Y-38976D02*
X43897Y-37795D01*
X46653Y-38976D02*
X45866Y-38976D01*
X48228Y-38976D02*
X47440Y-38976D01*
X40354Y-40944D02*
X40354Y-44881D01*
X40354Y-55118D02*
X40354Y-55905D01*
X40354Y-53543D02*
X40354Y-54330D01*
X31299Y-38976D02*
X30511Y-38976D01*
X32874Y-38976D02*
X32086Y-38976D01*
G54D20*
X27362Y-49409D02*
X26771Y-49409D01*
X26771Y-50000D02*
X26181Y-50000D01*
X42913Y-49212D02*
X43503Y-49212D01*
X42322Y-49803D02*
X42322Y-49212D01*
X41732Y-50393D02*
X42322Y-50393D01*
X41732Y-49212D02*
X41732Y-49803D01*
G54D10*
G36*
X55234Y-63981D02*
X52797Y-63981D01*
X52797Y-34307D01*
X52797Y-27614D01*
X52776Y-27510D01*
X52718Y-27423D01*
X52631Y-27365D01*
X52528Y-27344D01*
X30284Y-27344D01*
X30180Y-27365D01*
X30093Y-27423D01*
X30035Y-27510D01*
X30014Y-27614D01*
X30014Y-34307D01*
X30035Y-34410D01*
X30093Y-34497D01*
X30180Y-34555D01*
X30284Y-34576D01*
X52528Y-34576D01*
X52631Y-34555D01*
X52718Y-34497D01*
X52776Y-34410D01*
X52797Y-34307D01*
X52797Y-63981D01*
X44901Y-63981D01*
X44901Y-51089D01*
X44901Y-48430D01*
X29788Y-48430D01*
X29788Y-45390D01*
X29788Y-43990D01*
X29750Y-43898D01*
X29679Y-43828D01*
X29587Y-43790D01*
X29488Y-43789D01*
X28968Y-43789D01*
X28968Y-43170D01*
X28968Y-41869D01*
X28967Y-41770D01*
X28929Y-41678D01*
X28859Y-41607D01*
X28767Y-41569D01*
X28630Y-41570D01*
X28568Y-41632D01*
X28568Y-42470D01*
X28905Y-42470D01*
X28968Y-42407D01*
X28968Y-41869D01*
X28968Y-43170D01*
X28968Y-42632D01*
X28905Y-42570D01*
X28568Y-42570D01*
X28568Y-43407D01*
X28630Y-43470D01*
X28767Y-43470D01*
X28859Y-43432D01*
X28929Y-43361D01*
X28967Y-43269D01*
X28968Y-43170D01*
X28968Y-43789D01*
X28888Y-43789D01*
X28796Y-43827D01*
X28726Y-43898D01*
X28688Y-43990D01*
X28687Y-44089D01*
X28687Y-45489D01*
X28725Y-45581D01*
X28796Y-45651D01*
X28888Y-45689D01*
X28987Y-45690D01*
X29587Y-45690D01*
X29679Y-45652D01*
X29749Y-45581D01*
X29787Y-45489D01*
X29788Y-45390D01*
X29788Y-48430D01*
X28405Y-48430D01*
X28405Y-43470D01*
X28405Y-43470D01*
X28468Y-43407D01*
X28468Y-42570D01*
X28460Y-42570D01*
X28460Y-42470D01*
X28468Y-42470D01*
X28468Y-41632D01*
X28405Y-41570D01*
X28405Y-41569D01*
X28405Y-40950D01*
X25116Y-40950D01*
X25116Y-51089D01*
X44901Y-51089D01*
X44901Y-63981D01*
X44851Y-63981D01*
X41404Y-63981D01*
X41404Y-61583D01*
X41112Y-60876D01*
X40571Y-60334D01*
X39865Y-60041D01*
X39100Y-60040D01*
X38393Y-60332D01*
X37851Y-60873D01*
X37558Y-61579D01*
X37557Y-62344D01*
X37849Y-63051D01*
X38390Y-63593D01*
X39096Y-63886D01*
X39861Y-63887D01*
X40568Y-63595D01*
X41110Y-63054D01*
X41403Y-62348D01*
X41404Y-61583D01*
X41404Y-63981D01*
X23663Y-63981D01*
X23663Y-60733D01*
X23842Y-60912D01*
X24368Y-61130D01*
X24937Y-61131D01*
X25463Y-60913D01*
X25866Y-60511D01*
X26084Y-59985D01*
X26085Y-59416D01*
X25867Y-58890D01*
X25465Y-58487D01*
X24939Y-58269D01*
X24370Y-58268D01*
X23844Y-58486D01*
X23663Y-58666D01*
X23663Y-54147D01*
X23763Y-54389D01*
X24058Y-54684D01*
X24444Y-54844D01*
X24861Y-54845D01*
X25248Y-54685D01*
X25543Y-54390D01*
X25703Y-54004D01*
X25704Y-53587D01*
X25544Y-53201D01*
X25249Y-52905D01*
X24863Y-52745D01*
X24446Y-52744D01*
X24060Y-52904D01*
X23764Y-53199D01*
X23663Y-53442D01*
X23663Y-25721D01*
X27233Y-25721D01*
X27336Y-25700D01*
X27345Y-25695D01*
X27578Y-25695D01*
X27578Y-24930D01*
X51461Y-24930D01*
X51461Y-25441D01*
X51459Y-25452D01*
X51480Y-25555D01*
X51481Y-25556D01*
X51482Y-25561D01*
X51494Y-25579D01*
X51494Y-25695D01*
X51609Y-25695D01*
X51627Y-25706D01*
X51731Y-25727D01*
X51761Y-25721D01*
X55234Y-25721D01*
X55234Y-63981D01*
X55234Y-63981D01*
G37*
G54D21*
X55234Y-63981D02*
X52797Y-63981D01*
X52797Y-34307D01*
X52797Y-27614D01*
X52776Y-27510D01*
X52718Y-27423D01*
X52631Y-27365D01*
X52528Y-27344D01*
X30284Y-27344D01*
X30180Y-27365D01*
X30093Y-27423D01*
X30035Y-27510D01*
X30014Y-27614D01*
X30014Y-34307D01*
X30035Y-34410D01*
X30093Y-34497D01*
X30180Y-34555D01*
X30284Y-34576D01*
X52528Y-34576D01*
X52631Y-34555D01*
X52718Y-34497D01*
X52776Y-34410D01*
X52797Y-34307D01*
X52797Y-63981D01*
X44901Y-63981D01*
X44901Y-51089D01*
X44901Y-48430D01*
X29788Y-48430D01*
X29788Y-45390D01*
X29788Y-43990D01*
X29750Y-43898D01*
X29679Y-43828D01*
X29587Y-43790D01*
X29488Y-43789D01*
X28968Y-43789D01*
X28968Y-43170D01*
X28968Y-41869D01*
X28967Y-41770D01*
X28929Y-41678D01*
X28859Y-41607D01*
X28767Y-41569D01*
X28630Y-41570D01*
X28568Y-41632D01*
X28568Y-42470D01*
X28905Y-42470D01*
X28968Y-42407D01*
X28968Y-41869D01*
X28968Y-43170D01*
X28968Y-42632D01*
X28905Y-42570D01*
X28568Y-42570D01*
X28568Y-43407D01*
X28630Y-43470D01*
X28767Y-43470D01*
X28859Y-43432D01*
X28929Y-43361D01*
X28967Y-43269D01*
X28968Y-43170D01*
X28968Y-43789D01*
X28888Y-43789D01*
X28796Y-43827D01*
X28726Y-43898D01*
X28688Y-43990D01*
X28687Y-44089D01*
X28687Y-45489D01*
X28725Y-45581D01*
X28796Y-45651D01*
X28888Y-45689D01*
X28987Y-45690D01*
X29587Y-45690D01*
X29679Y-45652D01*
X29749Y-45581D01*
X29787Y-45489D01*
X29788Y-45390D01*
X29788Y-48430D01*
X28405Y-48430D01*
X28405Y-43470D01*
X28405Y-43470D01*
X28468Y-43407D01*
X28468Y-42570D01*
X28460Y-42570D01*
X28460Y-42470D01*
X28468Y-42470D01*
X28468Y-41632D01*
X28405Y-41570D01*
X28405Y-41569D01*
X28405Y-40950D01*
X25116Y-40950D01*
X25116Y-51089D01*
X44901Y-51089D01*
X44901Y-63981D01*
X44851Y-63981D01*
X41404Y-63981D01*
X41404Y-61583D01*
X41112Y-60876D01*
X40571Y-60334D01*
X39865Y-60041D01*
X39100Y-60040D01*
X38393Y-60332D01*
X37851Y-60873D01*
X37558Y-61579D01*
X37557Y-62344D01*
X37849Y-63051D01*
X38390Y-63593D01*
X39096Y-63886D01*
X39861Y-63887D01*
X40568Y-63595D01*
X41110Y-63054D01*
X41403Y-62348D01*
X41404Y-61583D01*
X41404Y-63981D01*
X23663Y-63981D01*
X23663Y-60733D01*
X23842Y-60912D01*
X24368Y-61130D01*
X24937Y-61131D01*
X25463Y-60913D01*
X25866Y-60511D01*
X26084Y-59985D01*
X26085Y-59416D01*
X25867Y-58890D01*
X25465Y-58487D01*
X24939Y-58269D01*
X24370Y-58268D01*
X23844Y-58486D01*
X23663Y-58666D01*
X23663Y-54147D01*
X23763Y-54389D01*
X24058Y-54684D01*
X24444Y-54844D01*
X24861Y-54845D01*
X25248Y-54685D01*
X25543Y-54390D01*
X25703Y-54004D01*
X25704Y-53587D01*
X25544Y-53201D01*
X25249Y-52905D01*
X24863Y-52745D01*
X24446Y-52744D01*
X24060Y-52904D01*
X23764Y-53199D01*
X23663Y-53442D01*
X23663Y-25721D01*
X27233Y-25721D01*
X27336Y-25700D01*
X27345Y-25695D01*
X27578Y-25695D01*
X27578Y-24930D01*
X51461Y-24930D01*
X51461Y-25441D01*
X51459Y-25452D01*
X51480Y-25555D01*
X51481Y-25556D01*
X51482Y-25561D01*
X51494Y-25579D01*
X51494Y-25695D01*
X51609Y-25695D01*
X51627Y-25706D01*
X51731Y-25727D01*
X51761Y-25721D01*
X55234Y-25721D01*
X55234Y-63981D01*
G54D10*
G36*
X44407Y-50595D02*
X27325Y-50595D01*
X27325Y-47348D01*
X27325Y-47273D01*
X27262Y-47211D01*
X26987Y-47211D01*
X26987Y-47486D01*
X27049Y-47549D01*
X27025Y-47549D01*
X27124Y-47548D01*
X27216Y-47510D01*
X27287Y-47440D01*
X27325Y-47348D01*
X27325Y-50595D01*
X26887Y-50595D01*
X26887Y-47486D01*
X26887Y-47211D01*
X26611Y-47211D01*
X26549Y-47273D01*
X26548Y-47348D01*
X26586Y-47440D01*
X26657Y-47510D01*
X26749Y-47548D01*
X26848Y-47549D01*
X26824Y-47549D01*
X26887Y-47486D01*
X26887Y-50595D01*
X25609Y-50595D01*
X25609Y-47152D01*
X27950Y-47152D01*
X27950Y-48924D01*
X44407Y-48924D01*
X44407Y-50595D01*
X44407Y-50595D01*
G37*
G54D21*
X44407Y-50595D02*
X27325Y-50595D01*
X27325Y-47348D01*
X27325Y-47273D01*
X27262Y-47211D01*
X26987Y-47211D01*
X26987Y-47486D01*
X27049Y-47549D01*
X27025Y-47549D01*
X27124Y-47548D01*
X27216Y-47510D01*
X27287Y-47440D01*
X27325Y-47348D01*
X27325Y-50595D01*
X26887Y-50595D01*
X26887Y-47486D01*
X26887Y-47211D01*
X26611Y-47211D01*
X26549Y-47273D01*
X26548Y-47348D01*
X26586Y-47440D01*
X26657Y-47510D01*
X26749Y-47548D01*
X26848Y-47549D01*
X26824Y-47549D01*
X26887Y-47486D01*
X26887Y-50595D01*
X25609Y-50595D01*
X25609Y-47152D01*
X27950Y-47152D01*
X27950Y-48924D01*
X44407Y-48924D01*
X44407Y-50595D01*
G54D10*
G36*
X27832Y-46776D02*
X27668Y-46776D01*
X27668Y-43407D01*
X27668Y-42570D01*
X27668Y-42470D01*
X27668Y-41632D01*
X27605Y-41570D01*
X27468Y-41569D01*
X27376Y-41607D01*
X27306Y-41678D01*
X27268Y-41770D01*
X27267Y-41869D01*
X27268Y-42407D01*
X27330Y-42470D01*
X27668Y-42470D01*
X27668Y-42570D01*
X27330Y-42570D01*
X27268Y-42632D01*
X27267Y-43170D01*
X27268Y-43269D01*
X27306Y-43361D01*
X27376Y-43432D01*
X27468Y-43470D01*
X27605Y-43470D01*
X27668Y-43407D01*
X27668Y-46776D01*
X27548Y-46776D01*
X27548Y-45390D01*
X27548Y-43990D01*
X27510Y-43898D01*
X27439Y-43828D01*
X27347Y-43790D01*
X27248Y-43789D01*
X26648Y-43789D01*
X26556Y-43827D01*
X26486Y-43898D01*
X26448Y-43990D01*
X26447Y-44089D01*
X26447Y-45489D01*
X26485Y-45581D01*
X26556Y-45651D01*
X26648Y-45689D01*
X26747Y-45690D01*
X27347Y-45690D01*
X27439Y-45652D01*
X27509Y-45581D01*
X27547Y-45489D01*
X27548Y-45390D01*
X27548Y-46776D01*
X27325Y-46776D01*
X27325Y-46539D01*
X27287Y-46447D01*
X27216Y-46377D01*
X27124Y-46339D01*
X27025Y-46338D01*
X27049Y-46339D01*
X26987Y-46401D01*
X26987Y-46677D01*
X27262Y-46677D01*
X27325Y-46614D01*
X27325Y-46539D01*
X27325Y-46776D01*
X27132Y-46776D01*
X27124Y-46773D01*
X27025Y-46772D01*
X26887Y-46772D01*
X26887Y-46677D01*
X26887Y-46401D01*
X26824Y-46339D01*
X26848Y-46338D01*
X26749Y-46339D01*
X26657Y-46377D01*
X26586Y-46447D01*
X26548Y-46539D01*
X26549Y-46614D01*
X26611Y-46677D01*
X26887Y-46677D01*
X26887Y-46772D01*
X26749Y-46772D01*
X26742Y-46776D01*
X25609Y-46776D01*
X25609Y-41443D01*
X27832Y-41443D01*
X27832Y-41569D01*
X27830Y-41570D01*
X27768Y-41632D01*
X27768Y-42470D01*
X27775Y-42470D01*
X27775Y-42570D01*
X27768Y-42570D01*
X27768Y-43407D01*
X27830Y-43470D01*
X27832Y-43470D01*
X27832Y-46776D01*
X27832Y-46776D01*
G37*
G54D21*
X27832Y-46776D02*
X27668Y-46776D01*
X27668Y-43407D01*
X27668Y-42570D01*
X27668Y-42470D01*
X27668Y-41632D01*
X27605Y-41570D01*
X27468Y-41569D01*
X27376Y-41607D01*
X27306Y-41678D01*
X27268Y-41770D01*
X27267Y-41869D01*
X27268Y-42407D01*
X27330Y-42470D01*
X27668Y-42470D01*
X27668Y-42570D01*
X27330Y-42570D01*
X27268Y-42632D01*
X27267Y-43170D01*
X27268Y-43269D01*
X27306Y-43361D01*
X27376Y-43432D01*
X27468Y-43470D01*
X27605Y-43470D01*
X27668Y-43407D01*
X27668Y-46776D01*
X27548Y-46776D01*
X27548Y-45390D01*
X27548Y-43990D01*
X27510Y-43898D01*
X27439Y-43828D01*
X27347Y-43790D01*
X27248Y-43789D01*
X26648Y-43789D01*
X26556Y-43827D01*
X26486Y-43898D01*
X26448Y-43990D01*
X26447Y-44089D01*
X26447Y-45489D01*
X26485Y-45581D01*
X26556Y-45651D01*
X26648Y-45689D01*
X26747Y-45690D01*
X27347Y-45690D01*
X27439Y-45652D01*
X27509Y-45581D01*
X27547Y-45489D01*
X27548Y-45390D01*
X27548Y-46776D01*
X27325Y-46776D01*
X27325Y-46539D01*
X27287Y-46447D01*
X27216Y-46377D01*
X27124Y-46339D01*
X27025Y-46338D01*
X27049Y-46339D01*
X26987Y-46401D01*
X26987Y-46677D01*
X27262Y-46677D01*
X27325Y-46614D01*
X27325Y-46539D01*
X27325Y-46776D01*
X27132Y-46776D01*
X27124Y-46773D01*
X27025Y-46772D01*
X26887Y-46772D01*
X26887Y-46677D01*
X26887Y-46401D01*
X26824Y-46339D01*
X26848Y-46338D01*
X26749Y-46339D01*
X26657Y-46377D01*
X26586Y-46447D01*
X26548Y-46539D01*
X26549Y-46614D01*
X26611Y-46677D01*
X26887Y-46677D01*
X26887Y-46772D01*
X26749Y-46772D01*
X26742Y-46776D01*
X25609Y-46776D01*
X25609Y-41443D01*
X27832Y-41443D01*
X27832Y-41569D01*
X27830Y-41570D01*
X27768Y-41632D01*
X27768Y-42470D01*
X27775Y-42470D01*
X27775Y-42570D01*
X27768Y-42570D01*
X27768Y-43407D01*
X27830Y-43470D01*
X27832Y-43470D01*
X27832Y-46776D01*
M02*
