G04 (created by PCBNEW (2013-june-11)-stable) date Sun 22 Dec 2013 12:07:11 AM CST*
%MOIN*%
G04 Gerber Fmt 3.4, Leading zero omitted, Abs format*
%FSLAX34Y34*%
G01*
G70*
G90*
G04 APERTURE LIST*
%ADD10C,0.00590551*%
%ADD11C,0.0039*%
%ADD12C,0.16*%
%ADD13C,0.2362*%
%ADD14C,0.3346*%
%ADD15R,0.081X0.06*%
%ADD16R,0.75X0.06*%
%ADD17C,0.035*%
%ADD18C,0.015*%
%ADD19C,0.008*%
%ADD20C,0.01*%
G04 APERTURE END LIST*
G54D10*
G54D11*
X51731Y-24661D02*
X51731Y-25458D01*
X27233Y-24661D02*
X51731Y-24661D01*
X27233Y-25448D02*
X27233Y-24661D01*
X51729Y-64425D02*
X51729Y-65212D01*
X27233Y-64425D02*
X27233Y-65212D01*
X51729Y-65212D02*
X27233Y-65212D01*
X30284Y-27614D02*
X30284Y-34307D01*
X52528Y-27614D02*
X52528Y-34307D01*
X30284Y-27614D02*
X52528Y-27614D01*
X52528Y-34307D02*
X30284Y-34307D01*
X55571Y-64425D02*
X51729Y-64425D01*
X55571Y-25452D02*
X55571Y-64425D01*
X51729Y-25452D02*
X55571Y-25452D01*
X23394Y-25452D02*
X27233Y-25452D01*
X23394Y-64425D02*
X23394Y-25452D01*
X23394Y-64425D02*
X27233Y-64425D01*
G54D12*
X24654Y-53795D03*
G54D13*
X24654Y-59700D03*
G54D14*
X39481Y-61964D03*
G54D15*
X37595Y-35304D03*
G54D16*
X34870Y-37054D03*
G54D15*
X28546Y-42647D03*
G54D16*
X31271Y-40897D03*
G54D15*
X52162Y-35304D03*
G54D16*
X49437Y-37054D03*
G54D15*
X43113Y-42647D03*
G54D16*
X45838Y-40897D03*
G54D15*
X28546Y-50128D03*
G54D16*
X31271Y-48378D03*
G54D15*
X37595Y-42785D03*
G54D16*
X34870Y-44535D03*
G54D15*
X43310Y-50128D03*
G54D16*
X46035Y-48378D03*
G54D15*
X52162Y-42785D03*
G54D16*
X49437Y-44535D03*
G54D15*
X28546Y-58592D03*
G54D16*
X31271Y-56842D03*
G54D15*
X37595Y-51249D03*
G54D16*
X34870Y-52999D03*
G54D15*
X43310Y-58592D03*
G54D16*
X46035Y-56842D03*
G54D15*
X52162Y-51249D03*
G54D16*
X49437Y-52999D03*
G54D17*
X53543Y-29527D03*
X54330Y-29527D03*
X54330Y-30314D03*
X53543Y-30314D03*
X53543Y-31102D03*
X54330Y-31102D03*
X54330Y-31889D03*
X53543Y-31889D03*
X27559Y-30314D03*
X27559Y-29527D03*
X26771Y-29527D03*
X26771Y-30314D03*
X25984Y-30314D03*
X25984Y-29527D03*
X25196Y-29527D03*
X25196Y-30314D03*
X31692Y-54724D03*
X32480Y-54724D03*
X33267Y-54724D03*
X34055Y-54724D03*
X46062Y-54724D03*
X46850Y-54724D03*
X47637Y-54724D03*
X48425Y-54724D03*
X48425Y-46456D03*
X46062Y-46456D03*
X46850Y-46456D03*
X47637Y-46456D03*
X30118Y-46062D03*
X30905Y-46062D03*
X31692Y-46062D03*
X32480Y-46062D03*
X40354Y-44881D03*
X40354Y-45669D03*
X40354Y-46456D03*
X40354Y-47244D03*
X40354Y-48031D03*
X40354Y-40944D03*
X40354Y-40157D03*
X40354Y-39370D03*
X40354Y-38582D03*
X40354Y-37795D03*
X45078Y-38976D03*
X45866Y-38976D03*
X46653Y-38976D03*
X47440Y-38976D03*
X48228Y-38976D03*
X40354Y-56692D03*
X40354Y-55905D03*
X40354Y-55118D03*
X40354Y-54330D03*
X40354Y-53543D03*
X30511Y-38976D03*
X31299Y-38976D03*
X32086Y-38976D03*
X32874Y-38976D03*
X27362Y-49409D03*
X26771Y-49409D03*
X26771Y-50000D03*
X26181Y-50000D03*
X26181Y-49409D03*
X27362Y-50000D03*
X42913Y-49212D03*
X44094Y-49212D03*
X43503Y-49212D03*
X42322Y-49212D03*
X42322Y-49803D03*
X42322Y-50393D03*
X41732Y-50393D03*
X41732Y-49803D03*
X41732Y-49212D03*
G54D18*
X53543Y-29527D02*
X54330Y-29527D01*
X54330Y-30314D02*
X53543Y-30314D01*
X53543Y-31102D02*
X54330Y-31102D01*
X53543Y-31889D02*
X54330Y-31889D01*
X34870Y-37054D02*
X31936Y-37054D01*
X26771Y-29527D02*
X27559Y-29527D01*
X25984Y-30314D02*
X26771Y-30314D01*
X25196Y-29527D02*
X25984Y-29527D01*
X31936Y-37054D02*
X25196Y-30314D01*
X34870Y-52999D02*
X34870Y-53909D01*
X33267Y-54724D02*
X32480Y-54724D01*
X34870Y-53909D02*
X34055Y-54724D01*
X49437Y-52999D02*
X49437Y-53712D01*
X47637Y-54724D02*
X46850Y-54724D01*
X49437Y-53712D02*
X48425Y-54724D01*
X49437Y-44535D02*
X49437Y-44657D01*
X46850Y-46456D02*
X46062Y-46456D01*
X49437Y-44657D02*
X47637Y-46456D01*
X34870Y-44535D02*
X34008Y-44535D01*
X31692Y-46062D02*
X30905Y-46062D01*
X34008Y-44535D02*
X32480Y-46062D01*
X40354Y-48031D02*
X40354Y-53543D01*
X40354Y-44881D02*
X40354Y-45669D01*
X40354Y-46456D02*
X40354Y-47244D01*
X49437Y-37054D02*
X49437Y-37767D01*
X40354Y-39370D02*
X40354Y-40157D01*
X40354Y-37795D02*
X40354Y-38582D01*
X45866Y-38976D02*
X45078Y-38976D01*
X47440Y-38976D02*
X46653Y-38976D01*
X49437Y-37767D02*
X48228Y-38976D01*
X40354Y-55905D02*
X40354Y-56692D01*
X40354Y-54330D02*
X40354Y-55118D01*
X34870Y-37054D02*
X34795Y-37054D01*
X32086Y-38976D02*
X31299Y-38976D01*
X34795Y-37054D02*
X32874Y-38976D01*
G54D19*
X28546Y-58592D02*
X26703Y-58592D01*
X26181Y-58070D02*
X26181Y-50000D01*
X26703Y-58592D02*
X26181Y-58070D01*
X28546Y-42647D02*
X27233Y-42647D01*
X27362Y-50000D02*
X27362Y-49409D01*
X26771Y-49409D02*
X26771Y-50000D01*
X26181Y-50000D02*
X26181Y-49409D01*
X27391Y-49970D02*
X28940Y-49970D01*
X27391Y-49970D02*
X27362Y-50000D01*
X26181Y-43700D02*
X26181Y-49409D01*
X27233Y-42647D02*
X26181Y-43700D01*
X43310Y-58592D02*
X42254Y-58592D01*
X41732Y-58070D02*
X41732Y-50393D01*
X42254Y-58592D02*
X41732Y-58070D01*
X42322Y-49212D02*
X42913Y-49212D01*
X43503Y-49212D02*
X44094Y-49212D01*
X43113Y-42647D02*
X42391Y-42647D01*
X42322Y-50393D02*
X42322Y-49803D01*
X41732Y-49803D02*
X41732Y-50393D01*
X41732Y-43307D02*
X41732Y-49212D01*
X42391Y-42647D02*
X41732Y-43307D01*
X37791Y-35265D02*
X39202Y-35265D01*
X39202Y-35265D02*
X39763Y-35826D01*
X39763Y-35826D02*
X39763Y-40157D01*
X39763Y-40157D02*
X38983Y-40937D01*
X38983Y-40937D02*
X31468Y-40937D01*
X52162Y-51249D02*
X53611Y-51249D01*
X53787Y-56842D02*
X46035Y-56842D01*
X54330Y-56299D02*
X53787Y-56842D01*
X54330Y-51968D02*
X54330Y-56299D01*
X53611Y-51249D02*
X54330Y-51968D01*
X53740Y-48228D02*
X53543Y-48425D01*
X46082Y-48425D02*
X46035Y-48378D01*
X53543Y-48425D02*
X46082Y-48425D01*
X52162Y-42785D02*
X53808Y-42785D01*
X54330Y-43307D02*
X54330Y-47637D01*
X53808Y-42785D02*
X54330Y-43307D01*
X54330Y-47637D02*
X53740Y-48228D01*
X53740Y-48228D02*
X53747Y-48220D01*
X39005Y-51210D02*
X39763Y-51968D01*
X39763Y-51968D02*
X39763Y-55905D01*
X39763Y-55905D02*
X38582Y-57086D01*
X37791Y-51210D02*
X39005Y-51210D01*
X38582Y-57086D02*
X31672Y-57086D01*
X31672Y-57086D02*
X31665Y-57079D01*
X38787Y-48220D02*
X38582Y-48425D01*
X39241Y-42785D02*
X39763Y-43307D01*
X39763Y-47244D02*
X38787Y-48220D01*
X39763Y-43307D02*
X39763Y-47244D01*
X37595Y-42785D02*
X39241Y-42785D01*
X31318Y-48425D02*
X31271Y-48378D01*
X38582Y-48425D02*
X31318Y-48425D01*
X52162Y-35304D02*
X53808Y-35304D01*
X46239Y-40944D02*
X46232Y-40937D01*
X54330Y-40551D02*
X53937Y-40944D01*
X54330Y-35826D02*
X54330Y-40551D01*
X53937Y-40944D02*
X46239Y-40944D01*
X53808Y-35304D02*
X54330Y-35826D01*
G54D10*
G36*
X55273Y-64139D02*
X54620Y-64139D01*
X54620Y-56299D01*
X54620Y-51968D01*
X54620Y-47637D01*
X54620Y-43307D01*
X54620Y-40551D01*
X54620Y-35826D01*
X54598Y-35715D01*
X54535Y-35621D01*
X54535Y-35621D01*
X54013Y-35099D01*
X53919Y-35036D01*
X53808Y-35014D01*
X52817Y-35014D01*
X52817Y-34955D01*
X52797Y-34908D01*
X52797Y-34307D01*
X52797Y-27614D01*
X52776Y-27510D01*
X52718Y-27423D01*
X52631Y-27365D01*
X52528Y-27344D01*
X30284Y-27344D01*
X30180Y-27365D01*
X30093Y-27423D01*
X30035Y-27510D01*
X30014Y-27614D01*
X30014Y-34307D01*
X30035Y-34410D01*
X30093Y-34497D01*
X30180Y-34555D01*
X30284Y-34576D01*
X52528Y-34576D01*
X52631Y-34555D01*
X52718Y-34497D01*
X52776Y-34410D01*
X52797Y-34307D01*
X52797Y-34908D01*
X52779Y-34863D01*
X52708Y-34793D01*
X52616Y-34754D01*
X52517Y-34754D01*
X51707Y-34754D01*
X51615Y-34792D01*
X51545Y-34863D01*
X51507Y-34954D01*
X51506Y-35054D01*
X51506Y-35654D01*
X51544Y-35746D01*
X51615Y-35816D01*
X51707Y-35854D01*
X51806Y-35854D01*
X52616Y-35854D01*
X52708Y-35816D01*
X52778Y-35746D01*
X52816Y-35654D01*
X52817Y-35594D01*
X53688Y-35594D01*
X54040Y-35946D01*
X54040Y-40431D01*
X53816Y-40654D01*
X53437Y-40654D01*
X53437Y-37404D01*
X53437Y-36705D01*
X53399Y-36613D01*
X53328Y-36543D01*
X53236Y-36504D01*
X53137Y-36504D01*
X49549Y-36504D01*
X49487Y-36567D01*
X49487Y-37004D01*
X53374Y-37004D01*
X53437Y-36942D01*
X53437Y-36705D01*
X53437Y-37404D01*
X53437Y-37167D01*
X53374Y-37104D01*
X49487Y-37104D01*
X49487Y-37542D01*
X49549Y-37604D01*
X53137Y-37604D01*
X53236Y-37604D01*
X53328Y-37566D01*
X53399Y-37496D01*
X53437Y-37404D01*
X53437Y-40654D01*
X49838Y-40654D01*
X49838Y-40548D01*
X49800Y-40456D01*
X49730Y-40386D01*
X49638Y-40347D01*
X49539Y-40347D01*
X49387Y-40347D01*
X49387Y-37542D01*
X49387Y-37104D01*
X49387Y-37004D01*
X49387Y-36567D01*
X49324Y-36504D01*
X45736Y-36504D01*
X45637Y-36504D01*
X45545Y-36543D01*
X45474Y-36613D01*
X45436Y-36705D01*
X45437Y-36942D01*
X45499Y-37004D01*
X49387Y-37004D01*
X49387Y-37104D01*
X45499Y-37104D01*
X45437Y-37167D01*
X45436Y-37404D01*
X45474Y-37496D01*
X45545Y-37566D01*
X45637Y-37604D01*
X45736Y-37604D01*
X49324Y-37604D01*
X49387Y-37542D01*
X49387Y-40347D01*
X42039Y-40347D01*
X41947Y-40385D01*
X41876Y-40456D01*
X41838Y-40547D01*
X41838Y-40647D01*
X41838Y-41247D01*
X41876Y-41339D01*
X41946Y-41409D01*
X42038Y-41447D01*
X42138Y-41447D01*
X49638Y-41447D01*
X49730Y-41409D01*
X49800Y-41339D01*
X49838Y-41247D01*
X49838Y-41234D01*
X53937Y-41234D01*
X54047Y-41212D01*
X54142Y-41149D01*
X54535Y-40756D01*
X54535Y-40756D01*
X54535Y-40756D01*
X54598Y-40662D01*
X54620Y-40551D01*
X54620Y-43307D01*
X54598Y-43196D01*
X54535Y-43102D01*
X54535Y-43102D01*
X54013Y-42580D01*
X53919Y-42517D01*
X53808Y-42495D01*
X52817Y-42495D01*
X52817Y-42435D01*
X52779Y-42343D01*
X52708Y-42273D01*
X52616Y-42235D01*
X52517Y-42235D01*
X51707Y-42235D01*
X51615Y-42273D01*
X51545Y-42343D01*
X51507Y-42435D01*
X51506Y-42534D01*
X51506Y-43134D01*
X51544Y-43226D01*
X51615Y-43296D01*
X51707Y-43335D01*
X51806Y-43335D01*
X52616Y-43335D01*
X52708Y-43297D01*
X52778Y-43226D01*
X52816Y-43135D01*
X52817Y-43075D01*
X53688Y-43075D01*
X54040Y-43427D01*
X54040Y-47517D01*
X53535Y-48023D01*
X53535Y-48023D01*
X53437Y-48121D01*
X53437Y-44884D01*
X53437Y-44185D01*
X53399Y-44093D01*
X53328Y-44023D01*
X53236Y-43985D01*
X53137Y-43985D01*
X49549Y-43985D01*
X49487Y-44047D01*
X49487Y-44485D01*
X53374Y-44485D01*
X53437Y-44422D01*
X53437Y-44185D01*
X53437Y-44884D01*
X53437Y-44647D01*
X53374Y-44585D01*
X49487Y-44585D01*
X49487Y-45022D01*
X49549Y-45085D01*
X53137Y-45085D01*
X53236Y-45085D01*
X53328Y-45046D01*
X53399Y-44976D01*
X53437Y-44884D01*
X53437Y-48121D01*
X53423Y-48135D01*
X50035Y-48135D01*
X50035Y-48028D01*
X49997Y-47936D01*
X49927Y-47866D01*
X49835Y-47828D01*
X49735Y-47828D01*
X49387Y-47828D01*
X49387Y-45022D01*
X49387Y-44585D01*
X49387Y-44485D01*
X49387Y-44047D01*
X49324Y-43985D01*
X45736Y-43985D01*
X45637Y-43985D01*
X45545Y-44023D01*
X45474Y-44093D01*
X45436Y-44185D01*
X45437Y-44422D01*
X45499Y-44485D01*
X49387Y-44485D01*
X49387Y-44585D01*
X45499Y-44585D01*
X45437Y-44647D01*
X45436Y-44884D01*
X45474Y-44976D01*
X45545Y-45046D01*
X45637Y-45085D01*
X45736Y-45085D01*
X49324Y-45085D01*
X49387Y-45022D01*
X49387Y-47828D01*
X42235Y-47828D01*
X42144Y-47866D01*
X42073Y-47936D01*
X42035Y-48028D01*
X42035Y-48127D01*
X42035Y-48430D01*
X42022Y-48430D01*
X42022Y-43427D01*
X42458Y-42990D01*
X42458Y-42997D01*
X42496Y-43089D01*
X42566Y-43159D01*
X42658Y-43197D01*
X42758Y-43197D01*
X43568Y-43197D01*
X43660Y-43159D01*
X43730Y-43089D01*
X43768Y-42997D01*
X43768Y-42898D01*
X43768Y-42298D01*
X43730Y-42206D01*
X43660Y-42136D01*
X43568Y-42097D01*
X43469Y-42097D01*
X42659Y-42097D01*
X42567Y-42135D01*
X42496Y-42206D01*
X42458Y-42297D01*
X42458Y-42357D01*
X42391Y-42357D01*
X42280Y-42379D01*
X42186Y-42442D01*
X41527Y-43102D01*
X41464Y-43196D01*
X41442Y-43307D01*
X41442Y-48430D01*
X40667Y-48430D01*
X40667Y-51089D01*
X41442Y-51089D01*
X41442Y-58070D01*
X41464Y-58181D01*
X41527Y-58275D01*
X42049Y-58797D01*
X42049Y-58797D01*
X42143Y-58860D01*
X42254Y-58882D01*
X42655Y-58882D01*
X42655Y-58942D01*
X42693Y-59034D01*
X42763Y-59104D01*
X42855Y-59142D01*
X42954Y-59142D01*
X43764Y-59142D01*
X43856Y-59104D01*
X43927Y-59034D01*
X43965Y-58942D01*
X43965Y-58843D01*
X43965Y-58243D01*
X43927Y-58151D01*
X43857Y-58080D01*
X43765Y-58042D01*
X43665Y-58042D01*
X42855Y-58042D01*
X42764Y-58080D01*
X42693Y-58150D01*
X42655Y-58242D01*
X42655Y-58302D01*
X42374Y-58302D01*
X42022Y-57950D01*
X42022Y-51089D01*
X44901Y-51089D01*
X44901Y-48928D01*
X49834Y-48928D01*
X49926Y-48890D01*
X49997Y-48820D01*
X50035Y-48728D01*
X50035Y-48715D01*
X53543Y-48715D01*
X53654Y-48693D01*
X53748Y-48630D01*
X53945Y-48433D01*
X53945Y-48433D01*
X53945Y-48433D01*
X53952Y-48425D01*
X54535Y-47842D01*
X54598Y-47748D01*
X54620Y-47637D01*
X54620Y-51968D01*
X54598Y-51857D01*
X54535Y-51763D01*
X53816Y-51044D01*
X53722Y-50981D01*
X53611Y-50959D01*
X52817Y-50959D01*
X52817Y-50900D01*
X52779Y-50808D01*
X52708Y-50737D01*
X52616Y-50699D01*
X52517Y-50699D01*
X51707Y-50699D01*
X51615Y-50737D01*
X51545Y-50807D01*
X51507Y-50899D01*
X51506Y-50999D01*
X51506Y-51599D01*
X51544Y-51691D01*
X51615Y-51761D01*
X51707Y-51799D01*
X51806Y-51799D01*
X52616Y-51799D01*
X52708Y-51761D01*
X52778Y-51691D01*
X52816Y-51599D01*
X52817Y-51539D01*
X53491Y-51539D01*
X54040Y-52088D01*
X54040Y-56179D01*
X53667Y-56552D01*
X53437Y-56552D01*
X53437Y-53349D01*
X53437Y-52650D01*
X53399Y-52558D01*
X53328Y-52487D01*
X53236Y-52449D01*
X53137Y-52449D01*
X49549Y-52449D01*
X49487Y-52512D01*
X49487Y-52949D01*
X53374Y-52949D01*
X53437Y-52887D01*
X53437Y-52650D01*
X53437Y-53349D01*
X53437Y-53112D01*
X53374Y-53049D01*
X49487Y-53049D01*
X49487Y-53487D01*
X49549Y-53549D01*
X53137Y-53549D01*
X53236Y-53549D01*
X53328Y-53511D01*
X53399Y-53441D01*
X53437Y-53349D01*
X53437Y-56552D01*
X50035Y-56552D01*
X50035Y-56493D01*
X49997Y-56401D01*
X49927Y-56330D01*
X49835Y-56292D01*
X49735Y-56292D01*
X49387Y-56292D01*
X49387Y-53487D01*
X49387Y-53049D01*
X49387Y-52949D01*
X49387Y-52512D01*
X49324Y-52449D01*
X45736Y-52449D01*
X45637Y-52449D01*
X45545Y-52487D01*
X45474Y-52558D01*
X45436Y-52650D01*
X45437Y-52887D01*
X45499Y-52949D01*
X49387Y-52949D01*
X49387Y-53049D01*
X45499Y-53049D01*
X45437Y-53112D01*
X45436Y-53349D01*
X45474Y-53441D01*
X45545Y-53511D01*
X45637Y-53549D01*
X45736Y-53549D01*
X49324Y-53549D01*
X49387Y-53487D01*
X49387Y-56292D01*
X44901Y-56292D01*
X42235Y-56292D01*
X42144Y-56330D01*
X42073Y-56400D01*
X42035Y-56492D01*
X42035Y-56592D01*
X42035Y-57192D01*
X42073Y-57284D01*
X42143Y-57354D01*
X42235Y-57392D01*
X42334Y-57392D01*
X44901Y-57392D01*
X49834Y-57392D01*
X49926Y-57354D01*
X49997Y-57284D01*
X50035Y-57192D01*
X50035Y-57132D01*
X53787Y-57132D01*
X53898Y-57110D01*
X53992Y-57047D01*
X54535Y-56504D01*
X54598Y-56410D01*
X54620Y-56299D01*
X54620Y-64139D01*
X44901Y-64139D01*
X44851Y-64139D01*
X41404Y-64139D01*
X41404Y-61583D01*
X41112Y-60876D01*
X40571Y-60334D01*
X40053Y-60119D01*
X40053Y-55905D01*
X40053Y-51968D01*
X40053Y-51968D01*
X40053Y-51968D01*
X40053Y-47244D01*
X40053Y-43307D01*
X40053Y-40157D01*
X40053Y-35826D01*
X40053Y-35826D01*
X40053Y-35826D01*
X40050Y-35808D01*
X40031Y-35715D01*
X39968Y-35621D01*
X39968Y-35621D01*
X39407Y-35060D01*
X39313Y-34997D01*
X39202Y-34975D01*
X38250Y-34975D01*
X38250Y-34955D01*
X38212Y-34863D01*
X38141Y-34793D01*
X38050Y-34754D01*
X37950Y-34754D01*
X37140Y-34754D01*
X37048Y-34792D01*
X36978Y-34863D01*
X36940Y-34954D01*
X36940Y-35054D01*
X36940Y-35654D01*
X36978Y-35746D01*
X37048Y-35816D01*
X37140Y-35854D01*
X37239Y-35854D01*
X38049Y-35854D01*
X38141Y-35816D01*
X38211Y-35746D01*
X38250Y-35654D01*
X38250Y-35555D01*
X39082Y-35555D01*
X39473Y-35946D01*
X39473Y-40037D01*
X38870Y-40641D01*
X38870Y-37404D01*
X38870Y-36705D01*
X38832Y-36613D01*
X38761Y-36543D01*
X38670Y-36504D01*
X38570Y-36504D01*
X34982Y-36504D01*
X34920Y-36567D01*
X34920Y-37004D01*
X38807Y-37004D01*
X38870Y-36942D01*
X38870Y-36705D01*
X38870Y-37404D01*
X38870Y-37167D01*
X38807Y-37104D01*
X34920Y-37104D01*
X34920Y-37542D01*
X34982Y-37604D01*
X38570Y-37604D01*
X38670Y-37604D01*
X38761Y-37566D01*
X38832Y-37496D01*
X38870Y-37404D01*
X38870Y-40641D01*
X38863Y-40647D01*
X35271Y-40647D01*
X35271Y-40548D01*
X35233Y-40456D01*
X35163Y-40386D01*
X35071Y-40347D01*
X34972Y-40347D01*
X34820Y-40347D01*
X34820Y-37542D01*
X34820Y-37104D01*
X34820Y-37004D01*
X34820Y-36567D01*
X34757Y-36504D01*
X31169Y-36504D01*
X31070Y-36504D01*
X30978Y-36543D01*
X30908Y-36613D01*
X30870Y-36705D01*
X30870Y-36942D01*
X30932Y-37004D01*
X34820Y-37004D01*
X34820Y-37104D01*
X30932Y-37104D01*
X30870Y-37167D01*
X30870Y-37404D01*
X30908Y-37496D01*
X30978Y-37566D01*
X31070Y-37604D01*
X31169Y-37604D01*
X34757Y-37604D01*
X34820Y-37542D01*
X34820Y-40347D01*
X27472Y-40347D01*
X27380Y-40385D01*
X27309Y-40456D01*
X27271Y-40547D01*
X27271Y-40647D01*
X27271Y-41247D01*
X27309Y-41339D01*
X27379Y-41409D01*
X27471Y-41447D01*
X27571Y-41447D01*
X35071Y-41447D01*
X35163Y-41409D01*
X35233Y-41339D01*
X35271Y-41247D01*
X35271Y-41227D01*
X38983Y-41227D01*
X39094Y-41205D01*
X39189Y-41142D01*
X39968Y-40362D01*
X39968Y-40362D01*
X39968Y-40362D01*
X40031Y-40268D01*
X40053Y-40157D01*
X40053Y-43307D01*
X40031Y-43196D01*
X39968Y-43102D01*
X39968Y-43102D01*
X39446Y-42580D01*
X39352Y-42517D01*
X39241Y-42495D01*
X38250Y-42495D01*
X38250Y-42435D01*
X38212Y-42343D01*
X38141Y-42273D01*
X38050Y-42235D01*
X37950Y-42235D01*
X37140Y-42235D01*
X37048Y-42273D01*
X36978Y-42343D01*
X36940Y-42435D01*
X36940Y-42534D01*
X36940Y-43134D01*
X36978Y-43226D01*
X37048Y-43296D01*
X37140Y-43335D01*
X37239Y-43335D01*
X38049Y-43335D01*
X38141Y-43297D01*
X38211Y-43226D01*
X38250Y-43135D01*
X38250Y-43075D01*
X39121Y-43075D01*
X39473Y-43427D01*
X39473Y-47123D01*
X38870Y-47727D01*
X38870Y-44884D01*
X38870Y-44185D01*
X38832Y-44093D01*
X38761Y-44023D01*
X38670Y-43985D01*
X38570Y-43985D01*
X34982Y-43985D01*
X34920Y-44047D01*
X34920Y-44485D01*
X38807Y-44485D01*
X38870Y-44422D01*
X38870Y-44185D01*
X38870Y-44884D01*
X38870Y-44647D01*
X38807Y-44585D01*
X34920Y-44585D01*
X34920Y-45022D01*
X34982Y-45085D01*
X38570Y-45085D01*
X38670Y-45085D01*
X38761Y-45046D01*
X38832Y-44976D01*
X38870Y-44884D01*
X38870Y-47727D01*
X38582Y-48015D01*
X38462Y-48135D01*
X35271Y-48135D01*
X35271Y-48028D01*
X35233Y-47936D01*
X35163Y-47866D01*
X35071Y-47828D01*
X34972Y-47828D01*
X34820Y-47828D01*
X34820Y-45022D01*
X34820Y-44585D01*
X34820Y-44485D01*
X34820Y-44047D01*
X34757Y-43985D01*
X31169Y-43985D01*
X31070Y-43985D01*
X30978Y-44023D01*
X30908Y-44093D01*
X30870Y-44185D01*
X30870Y-44422D01*
X30932Y-44485D01*
X34820Y-44485D01*
X34820Y-44585D01*
X30932Y-44585D01*
X30870Y-44647D01*
X30870Y-44884D01*
X30908Y-44976D01*
X30978Y-45046D01*
X31070Y-45085D01*
X31169Y-45085D01*
X34757Y-45085D01*
X34820Y-45022D01*
X34820Y-47828D01*
X27472Y-47828D01*
X27380Y-47866D01*
X27309Y-47936D01*
X27301Y-47957D01*
X26471Y-47957D01*
X26471Y-43820D01*
X27354Y-42937D01*
X27891Y-42937D01*
X27891Y-42997D01*
X27929Y-43089D01*
X27999Y-43159D01*
X28091Y-43197D01*
X28191Y-43197D01*
X29001Y-43197D01*
X29093Y-43159D01*
X29163Y-43089D01*
X29201Y-42997D01*
X29201Y-42898D01*
X29201Y-42298D01*
X29163Y-42206D01*
X29093Y-42136D01*
X29001Y-42097D01*
X28902Y-42097D01*
X28092Y-42097D01*
X28000Y-42135D01*
X27929Y-42206D01*
X27891Y-42297D01*
X27891Y-42357D01*
X27233Y-42357D01*
X27123Y-42379D01*
X27028Y-42442D01*
X27028Y-42442D01*
X25976Y-43495D01*
X25913Y-43589D01*
X25891Y-43700D01*
X25891Y-47957D01*
X24919Y-47957D01*
X24919Y-50931D01*
X25891Y-50931D01*
X25891Y-58070D01*
X25913Y-58181D01*
X25976Y-58275D01*
X26497Y-58797D01*
X26497Y-58797D01*
X26592Y-58860D01*
X26703Y-58882D01*
X27891Y-58882D01*
X27891Y-58942D01*
X27929Y-59034D01*
X27999Y-59104D01*
X28091Y-59142D01*
X28191Y-59142D01*
X28562Y-59142D01*
X29001Y-59142D01*
X29093Y-59104D01*
X29163Y-59034D01*
X29201Y-58942D01*
X29201Y-58843D01*
X29201Y-58243D01*
X29163Y-58151D01*
X29093Y-58080D01*
X29001Y-58042D01*
X28902Y-58042D01*
X28562Y-58042D01*
X28092Y-58042D01*
X28000Y-58080D01*
X27929Y-58150D01*
X27891Y-58242D01*
X27891Y-58302D01*
X26823Y-58302D01*
X26471Y-57950D01*
X26471Y-50931D01*
X28562Y-50931D01*
X28562Y-50678D01*
X29001Y-50678D01*
X29093Y-50640D01*
X29163Y-50570D01*
X29201Y-50478D01*
X29201Y-50378D01*
X29201Y-50091D01*
X29208Y-50081D01*
X29230Y-49970D01*
X29208Y-49859D01*
X29201Y-49849D01*
X29201Y-49778D01*
X29163Y-49686D01*
X29093Y-49616D01*
X29001Y-49578D01*
X28902Y-49578D01*
X28562Y-49578D01*
X28562Y-48928D01*
X35071Y-48928D01*
X35163Y-48890D01*
X35233Y-48820D01*
X35271Y-48728D01*
X35271Y-48715D01*
X38582Y-48715D01*
X38693Y-48693D01*
X38787Y-48630D01*
X38992Y-48425D01*
X39968Y-47449D01*
X40031Y-47355D01*
X40053Y-47244D01*
X40053Y-51968D01*
X40031Y-51857D01*
X39968Y-51763D01*
X39968Y-51763D01*
X39210Y-51005D01*
X39116Y-50942D01*
X39005Y-50920D01*
X38250Y-50920D01*
X38250Y-50900D01*
X38212Y-50808D01*
X38141Y-50737D01*
X38050Y-50699D01*
X37950Y-50699D01*
X37140Y-50699D01*
X37048Y-50737D01*
X36978Y-50807D01*
X36940Y-50899D01*
X36940Y-50999D01*
X36940Y-51599D01*
X36978Y-51691D01*
X37048Y-51761D01*
X37140Y-51799D01*
X37239Y-51799D01*
X38049Y-51799D01*
X38141Y-51761D01*
X38211Y-51691D01*
X38250Y-51599D01*
X38250Y-51500D01*
X38885Y-51500D01*
X39473Y-52088D01*
X39473Y-55785D01*
X38870Y-56389D01*
X38870Y-53349D01*
X38870Y-52650D01*
X38832Y-52558D01*
X38761Y-52487D01*
X38670Y-52449D01*
X38570Y-52449D01*
X34982Y-52449D01*
X34920Y-52512D01*
X34920Y-52949D01*
X38807Y-52949D01*
X38870Y-52887D01*
X38870Y-52650D01*
X38870Y-53349D01*
X38870Y-53112D01*
X38807Y-53049D01*
X34920Y-53049D01*
X34920Y-53487D01*
X34982Y-53549D01*
X38570Y-53549D01*
X38670Y-53549D01*
X38761Y-53511D01*
X38832Y-53441D01*
X38870Y-53349D01*
X38870Y-56389D01*
X38462Y-56796D01*
X35271Y-56796D01*
X35271Y-56493D01*
X35233Y-56401D01*
X35163Y-56330D01*
X35071Y-56292D01*
X34972Y-56292D01*
X34820Y-56292D01*
X34820Y-53487D01*
X34820Y-53049D01*
X34820Y-52949D01*
X34820Y-52512D01*
X34757Y-52449D01*
X31169Y-52449D01*
X31070Y-52449D01*
X30978Y-52487D01*
X30908Y-52558D01*
X30870Y-52650D01*
X30870Y-52887D01*
X30932Y-52949D01*
X34820Y-52949D01*
X34820Y-53049D01*
X30932Y-53049D01*
X30870Y-53112D01*
X30870Y-53349D01*
X30908Y-53441D01*
X30978Y-53511D01*
X31070Y-53549D01*
X31169Y-53549D01*
X34757Y-53549D01*
X34820Y-53487D01*
X34820Y-56292D01*
X28562Y-56292D01*
X27472Y-56292D01*
X27380Y-56330D01*
X27309Y-56400D01*
X27271Y-56492D01*
X27271Y-56592D01*
X27271Y-57192D01*
X27309Y-57284D01*
X27379Y-57354D01*
X27471Y-57392D01*
X27571Y-57392D01*
X28562Y-57392D01*
X35071Y-57392D01*
X35110Y-57376D01*
X38582Y-57376D01*
X38693Y-57354D01*
X38787Y-57291D01*
X39968Y-56110D01*
X39968Y-56110D01*
X39968Y-56110D01*
X40031Y-56016D01*
X40053Y-55905D01*
X40053Y-60119D01*
X39865Y-60041D01*
X39100Y-60040D01*
X38393Y-60332D01*
X37851Y-60873D01*
X37558Y-61579D01*
X37557Y-62344D01*
X37849Y-63051D01*
X38390Y-63593D01*
X39096Y-63886D01*
X39861Y-63887D01*
X40568Y-63595D01*
X41110Y-63054D01*
X41403Y-62348D01*
X41404Y-61583D01*
X41404Y-64139D01*
X28562Y-64139D01*
X28512Y-64139D01*
X23680Y-64139D01*
X23680Y-60749D01*
X23842Y-60912D01*
X24368Y-61130D01*
X24937Y-61131D01*
X25463Y-60913D01*
X25866Y-60511D01*
X26084Y-59985D01*
X26085Y-59416D01*
X25867Y-58890D01*
X25465Y-58487D01*
X24939Y-58269D01*
X24370Y-58268D01*
X23844Y-58486D01*
X23680Y-58650D01*
X23680Y-54187D01*
X23763Y-54389D01*
X24058Y-54684D01*
X24444Y-54844D01*
X24861Y-54845D01*
X25248Y-54685D01*
X25543Y-54390D01*
X25703Y-54004D01*
X25704Y-53587D01*
X25544Y-53201D01*
X25249Y-52905D01*
X24863Y-52745D01*
X24446Y-52744D01*
X24060Y-52904D01*
X23764Y-53199D01*
X23680Y-53402D01*
X23680Y-25721D01*
X27233Y-25721D01*
X27336Y-25700D01*
X27423Y-25642D01*
X27481Y-25555D01*
X27502Y-25452D01*
X27502Y-25450D01*
X27502Y-25448D01*
X27502Y-24930D01*
X51461Y-24930D01*
X51461Y-25441D01*
X51459Y-25452D01*
X51480Y-25555D01*
X51481Y-25556D01*
X51482Y-25561D01*
X51540Y-25648D01*
X51627Y-25706D01*
X51731Y-25727D01*
X51761Y-25721D01*
X55273Y-25721D01*
X55273Y-64139D01*
X55273Y-64139D01*
G37*
G54D20*
X55273Y-64139D02*
X54620Y-64139D01*
X54620Y-56299D01*
X54620Y-51968D01*
X54620Y-47637D01*
X54620Y-43307D01*
X54620Y-40551D01*
X54620Y-35826D01*
X54598Y-35715D01*
X54535Y-35621D01*
X54535Y-35621D01*
X54013Y-35099D01*
X53919Y-35036D01*
X53808Y-35014D01*
X52817Y-35014D01*
X52817Y-34955D01*
X52797Y-34908D01*
X52797Y-34307D01*
X52797Y-27614D01*
X52776Y-27510D01*
X52718Y-27423D01*
X52631Y-27365D01*
X52528Y-27344D01*
X30284Y-27344D01*
X30180Y-27365D01*
X30093Y-27423D01*
X30035Y-27510D01*
X30014Y-27614D01*
X30014Y-34307D01*
X30035Y-34410D01*
X30093Y-34497D01*
X30180Y-34555D01*
X30284Y-34576D01*
X52528Y-34576D01*
X52631Y-34555D01*
X52718Y-34497D01*
X52776Y-34410D01*
X52797Y-34307D01*
X52797Y-34908D01*
X52779Y-34863D01*
X52708Y-34793D01*
X52616Y-34754D01*
X52517Y-34754D01*
X51707Y-34754D01*
X51615Y-34792D01*
X51545Y-34863D01*
X51507Y-34954D01*
X51506Y-35054D01*
X51506Y-35654D01*
X51544Y-35746D01*
X51615Y-35816D01*
X51707Y-35854D01*
X51806Y-35854D01*
X52616Y-35854D01*
X52708Y-35816D01*
X52778Y-35746D01*
X52816Y-35654D01*
X52817Y-35594D01*
X53688Y-35594D01*
X54040Y-35946D01*
X54040Y-40431D01*
X53816Y-40654D01*
X53437Y-40654D01*
X53437Y-37404D01*
X53437Y-36705D01*
X53399Y-36613D01*
X53328Y-36543D01*
X53236Y-36504D01*
X53137Y-36504D01*
X49549Y-36504D01*
X49487Y-36567D01*
X49487Y-37004D01*
X53374Y-37004D01*
X53437Y-36942D01*
X53437Y-36705D01*
X53437Y-37404D01*
X53437Y-37167D01*
X53374Y-37104D01*
X49487Y-37104D01*
X49487Y-37542D01*
X49549Y-37604D01*
X53137Y-37604D01*
X53236Y-37604D01*
X53328Y-37566D01*
X53399Y-37496D01*
X53437Y-37404D01*
X53437Y-40654D01*
X49838Y-40654D01*
X49838Y-40548D01*
X49800Y-40456D01*
X49730Y-40386D01*
X49638Y-40347D01*
X49539Y-40347D01*
X49387Y-40347D01*
X49387Y-37542D01*
X49387Y-37104D01*
X49387Y-37004D01*
X49387Y-36567D01*
X49324Y-36504D01*
X45736Y-36504D01*
X45637Y-36504D01*
X45545Y-36543D01*
X45474Y-36613D01*
X45436Y-36705D01*
X45437Y-36942D01*
X45499Y-37004D01*
X49387Y-37004D01*
X49387Y-37104D01*
X45499Y-37104D01*
X45437Y-37167D01*
X45436Y-37404D01*
X45474Y-37496D01*
X45545Y-37566D01*
X45637Y-37604D01*
X45736Y-37604D01*
X49324Y-37604D01*
X49387Y-37542D01*
X49387Y-40347D01*
X42039Y-40347D01*
X41947Y-40385D01*
X41876Y-40456D01*
X41838Y-40547D01*
X41838Y-40647D01*
X41838Y-41247D01*
X41876Y-41339D01*
X41946Y-41409D01*
X42038Y-41447D01*
X42138Y-41447D01*
X49638Y-41447D01*
X49730Y-41409D01*
X49800Y-41339D01*
X49838Y-41247D01*
X49838Y-41234D01*
X53937Y-41234D01*
X54047Y-41212D01*
X54142Y-41149D01*
X54535Y-40756D01*
X54535Y-40756D01*
X54535Y-40756D01*
X54598Y-40662D01*
X54620Y-40551D01*
X54620Y-43307D01*
X54598Y-43196D01*
X54535Y-43102D01*
X54535Y-43102D01*
X54013Y-42580D01*
X53919Y-42517D01*
X53808Y-42495D01*
X52817Y-42495D01*
X52817Y-42435D01*
X52779Y-42343D01*
X52708Y-42273D01*
X52616Y-42235D01*
X52517Y-42235D01*
X51707Y-42235D01*
X51615Y-42273D01*
X51545Y-42343D01*
X51507Y-42435D01*
X51506Y-42534D01*
X51506Y-43134D01*
X51544Y-43226D01*
X51615Y-43296D01*
X51707Y-43335D01*
X51806Y-43335D01*
X52616Y-43335D01*
X52708Y-43297D01*
X52778Y-43226D01*
X52816Y-43135D01*
X52817Y-43075D01*
X53688Y-43075D01*
X54040Y-43427D01*
X54040Y-47517D01*
X53535Y-48023D01*
X53535Y-48023D01*
X53437Y-48121D01*
X53437Y-44884D01*
X53437Y-44185D01*
X53399Y-44093D01*
X53328Y-44023D01*
X53236Y-43985D01*
X53137Y-43985D01*
X49549Y-43985D01*
X49487Y-44047D01*
X49487Y-44485D01*
X53374Y-44485D01*
X53437Y-44422D01*
X53437Y-44185D01*
X53437Y-44884D01*
X53437Y-44647D01*
X53374Y-44585D01*
X49487Y-44585D01*
X49487Y-45022D01*
X49549Y-45085D01*
X53137Y-45085D01*
X53236Y-45085D01*
X53328Y-45046D01*
X53399Y-44976D01*
X53437Y-44884D01*
X53437Y-48121D01*
X53423Y-48135D01*
X50035Y-48135D01*
X50035Y-48028D01*
X49997Y-47936D01*
X49927Y-47866D01*
X49835Y-47828D01*
X49735Y-47828D01*
X49387Y-47828D01*
X49387Y-45022D01*
X49387Y-44585D01*
X49387Y-44485D01*
X49387Y-44047D01*
X49324Y-43985D01*
X45736Y-43985D01*
X45637Y-43985D01*
X45545Y-44023D01*
X45474Y-44093D01*
X45436Y-44185D01*
X45437Y-44422D01*
X45499Y-44485D01*
X49387Y-44485D01*
X49387Y-44585D01*
X45499Y-44585D01*
X45437Y-44647D01*
X45436Y-44884D01*
X45474Y-44976D01*
X45545Y-45046D01*
X45637Y-45085D01*
X45736Y-45085D01*
X49324Y-45085D01*
X49387Y-45022D01*
X49387Y-47828D01*
X42235Y-47828D01*
X42144Y-47866D01*
X42073Y-47936D01*
X42035Y-48028D01*
X42035Y-48127D01*
X42035Y-48430D01*
X42022Y-48430D01*
X42022Y-43427D01*
X42458Y-42990D01*
X42458Y-42997D01*
X42496Y-43089D01*
X42566Y-43159D01*
X42658Y-43197D01*
X42758Y-43197D01*
X43568Y-43197D01*
X43660Y-43159D01*
X43730Y-43089D01*
X43768Y-42997D01*
X43768Y-42898D01*
X43768Y-42298D01*
X43730Y-42206D01*
X43660Y-42136D01*
X43568Y-42097D01*
X43469Y-42097D01*
X42659Y-42097D01*
X42567Y-42135D01*
X42496Y-42206D01*
X42458Y-42297D01*
X42458Y-42357D01*
X42391Y-42357D01*
X42280Y-42379D01*
X42186Y-42442D01*
X41527Y-43102D01*
X41464Y-43196D01*
X41442Y-43307D01*
X41442Y-48430D01*
X40667Y-48430D01*
X40667Y-51089D01*
X41442Y-51089D01*
X41442Y-58070D01*
X41464Y-58181D01*
X41527Y-58275D01*
X42049Y-58797D01*
X42049Y-58797D01*
X42143Y-58860D01*
X42254Y-58882D01*
X42655Y-58882D01*
X42655Y-58942D01*
X42693Y-59034D01*
X42763Y-59104D01*
X42855Y-59142D01*
X42954Y-59142D01*
X43764Y-59142D01*
X43856Y-59104D01*
X43927Y-59034D01*
X43965Y-58942D01*
X43965Y-58843D01*
X43965Y-58243D01*
X43927Y-58151D01*
X43857Y-58080D01*
X43765Y-58042D01*
X43665Y-58042D01*
X42855Y-58042D01*
X42764Y-58080D01*
X42693Y-58150D01*
X42655Y-58242D01*
X42655Y-58302D01*
X42374Y-58302D01*
X42022Y-57950D01*
X42022Y-51089D01*
X44901Y-51089D01*
X44901Y-48928D01*
X49834Y-48928D01*
X49926Y-48890D01*
X49997Y-48820D01*
X50035Y-48728D01*
X50035Y-48715D01*
X53543Y-48715D01*
X53654Y-48693D01*
X53748Y-48630D01*
X53945Y-48433D01*
X53945Y-48433D01*
X53945Y-48433D01*
X53952Y-48425D01*
X54535Y-47842D01*
X54598Y-47748D01*
X54620Y-47637D01*
X54620Y-51968D01*
X54598Y-51857D01*
X54535Y-51763D01*
X53816Y-51044D01*
X53722Y-50981D01*
X53611Y-50959D01*
X52817Y-50959D01*
X52817Y-50900D01*
X52779Y-50808D01*
X52708Y-50737D01*
X52616Y-50699D01*
X52517Y-50699D01*
X51707Y-50699D01*
X51615Y-50737D01*
X51545Y-50807D01*
X51507Y-50899D01*
X51506Y-50999D01*
X51506Y-51599D01*
X51544Y-51691D01*
X51615Y-51761D01*
X51707Y-51799D01*
X51806Y-51799D01*
X52616Y-51799D01*
X52708Y-51761D01*
X52778Y-51691D01*
X52816Y-51599D01*
X52817Y-51539D01*
X53491Y-51539D01*
X54040Y-52088D01*
X54040Y-56179D01*
X53667Y-56552D01*
X53437Y-56552D01*
X53437Y-53349D01*
X53437Y-52650D01*
X53399Y-52558D01*
X53328Y-52487D01*
X53236Y-52449D01*
X53137Y-52449D01*
X49549Y-52449D01*
X49487Y-52512D01*
X49487Y-52949D01*
X53374Y-52949D01*
X53437Y-52887D01*
X53437Y-52650D01*
X53437Y-53349D01*
X53437Y-53112D01*
X53374Y-53049D01*
X49487Y-53049D01*
X49487Y-53487D01*
X49549Y-53549D01*
X53137Y-53549D01*
X53236Y-53549D01*
X53328Y-53511D01*
X53399Y-53441D01*
X53437Y-53349D01*
X53437Y-56552D01*
X50035Y-56552D01*
X50035Y-56493D01*
X49997Y-56401D01*
X49927Y-56330D01*
X49835Y-56292D01*
X49735Y-56292D01*
X49387Y-56292D01*
X49387Y-53487D01*
X49387Y-53049D01*
X49387Y-52949D01*
X49387Y-52512D01*
X49324Y-52449D01*
X45736Y-52449D01*
X45637Y-52449D01*
X45545Y-52487D01*
X45474Y-52558D01*
X45436Y-52650D01*
X45437Y-52887D01*
X45499Y-52949D01*
X49387Y-52949D01*
X49387Y-53049D01*
X45499Y-53049D01*
X45437Y-53112D01*
X45436Y-53349D01*
X45474Y-53441D01*
X45545Y-53511D01*
X45637Y-53549D01*
X45736Y-53549D01*
X49324Y-53549D01*
X49387Y-53487D01*
X49387Y-56292D01*
X44901Y-56292D01*
X42235Y-56292D01*
X42144Y-56330D01*
X42073Y-56400D01*
X42035Y-56492D01*
X42035Y-56592D01*
X42035Y-57192D01*
X42073Y-57284D01*
X42143Y-57354D01*
X42235Y-57392D01*
X42334Y-57392D01*
X44901Y-57392D01*
X49834Y-57392D01*
X49926Y-57354D01*
X49997Y-57284D01*
X50035Y-57192D01*
X50035Y-57132D01*
X53787Y-57132D01*
X53898Y-57110D01*
X53992Y-57047D01*
X54535Y-56504D01*
X54598Y-56410D01*
X54620Y-56299D01*
X54620Y-64139D01*
X44901Y-64139D01*
X44851Y-64139D01*
X41404Y-64139D01*
X41404Y-61583D01*
X41112Y-60876D01*
X40571Y-60334D01*
X40053Y-60119D01*
X40053Y-55905D01*
X40053Y-51968D01*
X40053Y-51968D01*
X40053Y-51968D01*
X40053Y-47244D01*
X40053Y-43307D01*
X40053Y-40157D01*
X40053Y-35826D01*
X40053Y-35826D01*
X40053Y-35826D01*
X40050Y-35808D01*
X40031Y-35715D01*
X39968Y-35621D01*
X39968Y-35621D01*
X39407Y-35060D01*
X39313Y-34997D01*
X39202Y-34975D01*
X38250Y-34975D01*
X38250Y-34955D01*
X38212Y-34863D01*
X38141Y-34793D01*
X38050Y-34754D01*
X37950Y-34754D01*
X37140Y-34754D01*
X37048Y-34792D01*
X36978Y-34863D01*
X36940Y-34954D01*
X36940Y-35054D01*
X36940Y-35654D01*
X36978Y-35746D01*
X37048Y-35816D01*
X37140Y-35854D01*
X37239Y-35854D01*
X38049Y-35854D01*
X38141Y-35816D01*
X38211Y-35746D01*
X38250Y-35654D01*
X38250Y-35555D01*
X39082Y-35555D01*
X39473Y-35946D01*
X39473Y-40037D01*
X38870Y-40641D01*
X38870Y-37404D01*
X38870Y-36705D01*
X38832Y-36613D01*
X38761Y-36543D01*
X38670Y-36504D01*
X38570Y-36504D01*
X34982Y-36504D01*
X34920Y-36567D01*
X34920Y-37004D01*
X38807Y-37004D01*
X38870Y-36942D01*
X38870Y-36705D01*
X38870Y-37404D01*
X38870Y-37167D01*
X38807Y-37104D01*
X34920Y-37104D01*
X34920Y-37542D01*
X34982Y-37604D01*
X38570Y-37604D01*
X38670Y-37604D01*
X38761Y-37566D01*
X38832Y-37496D01*
X38870Y-37404D01*
X38870Y-40641D01*
X38863Y-40647D01*
X35271Y-40647D01*
X35271Y-40548D01*
X35233Y-40456D01*
X35163Y-40386D01*
X35071Y-40347D01*
X34972Y-40347D01*
X34820Y-40347D01*
X34820Y-37542D01*
X34820Y-37104D01*
X34820Y-37004D01*
X34820Y-36567D01*
X34757Y-36504D01*
X31169Y-36504D01*
X31070Y-36504D01*
X30978Y-36543D01*
X30908Y-36613D01*
X30870Y-36705D01*
X30870Y-36942D01*
X30932Y-37004D01*
X34820Y-37004D01*
X34820Y-37104D01*
X30932Y-37104D01*
X30870Y-37167D01*
X30870Y-37404D01*
X30908Y-37496D01*
X30978Y-37566D01*
X31070Y-37604D01*
X31169Y-37604D01*
X34757Y-37604D01*
X34820Y-37542D01*
X34820Y-40347D01*
X27472Y-40347D01*
X27380Y-40385D01*
X27309Y-40456D01*
X27271Y-40547D01*
X27271Y-40647D01*
X27271Y-41247D01*
X27309Y-41339D01*
X27379Y-41409D01*
X27471Y-41447D01*
X27571Y-41447D01*
X35071Y-41447D01*
X35163Y-41409D01*
X35233Y-41339D01*
X35271Y-41247D01*
X35271Y-41227D01*
X38983Y-41227D01*
X39094Y-41205D01*
X39189Y-41142D01*
X39968Y-40362D01*
X39968Y-40362D01*
X39968Y-40362D01*
X40031Y-40268D01*
X40053Y-40157D01*
X40053Y-43307D01*
X40031Y-43196D01*
X39968Y-43102D01*
X39968Y-43102D01*
X39446Y-42580D01*
X39352Y-42517D01*
X39241Y-42495D01*
X38250Y-42495D01*
X38250Y-42435D01*
X38212Y-42343D01*
X38141Y-42273D01*
X38050Y-42235D01*
X37950Y-42235D01*
X37140Y-42235D01*
X37048Y-42273D01*
X36978Y-42343D01*
X36940Y-42435D01*
X36940Y-42534D01*
X36940Y-43134D01*
X36978Y-43226D01*
X37048Y-43296D01*
X37140Y-43335D01*
X37239Y-43335D01*
X38049Y-43335D01*
X38141Y-43297D01*
X38211Y-43226D01*
X38250Y-43135D01*
X38250Y-43075D01*
X39121Y-43075D01*
X39473Y-43427D01*
X39473Y-47123D01*
X38870Y-47727D01*
X38870Y-44884D01*
X38870Y-44185D01*
X38832Y-44093D01*
X38761Y-44023D01*
X38670Y-43985D01*
X38570Y-43985D01*
X34982Y-43985D01*
X34920Y-44047D01*
X34920Y-44485D01*
X38807Y-44485D01*
X38870Y-44422D01*
X38870Y-44185D01*
X38870Y-44884D01*
X38870Y-44647D01*
X38807Y-44585D01*
X34920Y-44585D01*
X34920Y-45022D01*
X34982Y-45085D01*
X38570Y-45085D01*
X38670Y-45085D01*
X38761Y-45046D01*
X38832Y-44976D01*
X38870Y-44884D01*
X38870Y-47727D01*
X38582Y-48015D01*
X38462Y-48135D01*
X35271Y-48135D01*
X35271Y-48028D01*
X35233Y-47936D01*
X35163Y-47866D01*
X35071Y-47828D01*
X34972Y-47828D01*
X34820Y-47828D01*
X34820Y-45022D01*
X34820Y-44585D01*
X34820Y-44485D01*
X34820Y-44047D01*
X34757Y-43985D01*
X31169Y-43985D01*
X31070Y-43985D01*
X30978Y-44023D01*
X30908Y-44093D01*
X30870Y-44185D01*
X30870Y-44422D01*
X30932Y-44485D01*
X34820Y-44485D01*
X34820Y-44585D01*
X30932Y-44585D01*
X30870Y-44647D01*
X30870Y-44884D01*
X30908Y-44976D01*
X30978Y-45046D01*
X31070Y-45085D01*
X31169Y-45085D01*
X34757Y-45085D01*
X34820Y-45022D01*
X34820Y-47828D01*
X27472Y-47828D01*
X27380Y-47866D01*
X27309Y-47936D01*
X27301Y-47957D01*
X26471Y-47957D01*
X26471Y-43820D01*
X27354Y-42937D01*
X27891Y-42937D01*
X27891Y-42997D01*
X27929Y-43089D01*
X27999Y-43159D01*
X28091Y-43197D01*
X28191Y-43197D01*
X29001Y-43197D01*
X29093Y-43159D01*
X29163Y-43089D01*
X29201Y-42997D01*
X29201Y-42898D01*
X29201Y-42298D01*
X29163Y-42206D01*
X29093Y-42136D01*
X29001Y-42097D01*
X28902Y-42097D01*
X28092Y-42097D01*
X28000Y-42135D01*
X27929Y-42206D01*
X27891Y-42297D01*
X27891Y-42357D01*
X27233Y-42357D01*
X27123Y-42379D01*
X27028Y-42442D01*
X27028Y-42442D01*
X25976Y-43495D01*
X25913Y-43589D01*
X25891Y-43700D01*
X25891Y-47957D01*
X24919Y-47957D01*
X24919Y-50931D01*
X25891Y-50931D01*
X25891Y-58070D01*
X25913Y-58181D01*
X25976Y-58275D01*
X26497Y-58797D01*
X26497Y-58797D01*
X26592Y-58860D01*
X26703Y-58882D01*
X27891Y-58882D01*
X27891Y-58942D01*
X27929Y-59034D01*
X27999Y-59104D01*
X28091Y-59142D01*
X28191Y-59142D01*
X28562Y-59142D01*
X29001Y-59142D01*
X29093Y-59104D01*
X29163Y-59034D01*
X29201Y-58942D01*
X29201Y-58843D01*
X29201Y-58243D01*
X29163Y-58151D01*
X29093Y-58080D01*
X29001Y-58042D01*
X28902Y-58042D01*
X28562Y-58042D01*
X28092Y-58042D01*
X28000Y-58080D01*
X27929Y-58150D01*
X27891Y-58242D01*
X27891Y-58302D01*
X26823Y-58302D01*
X26471Y-57950D01*
X26471Y-50931D01*
X28562Y-50931D01*
X28562Y-50678D01*
X29001Y-50678D01*
X29093Y-50640D01*
X29163Y-50570D01*
X29201Y-50478D01*
X29201Y-50378D01*
X29201Y-50091D01*
X29208Y-50081D01*
X29230Y-49970D01*
X29208Y-49859D01*
X29201Y-49849D01*
X29201Y-49778D01*
X29163Y-49686D01*
X29093Y-49616D01*
X29001Y-49578D01*
X28902Y-49578D01*
X28562Y-49578D01*
X28562Y-48928D01*
X35071Y-48928D01*
X35163Y-48890D01*
X35233Y-48820D01*
X35271Y-48728D01*
X35271Y-48715D01*
X38582Y-48715D01*
X38693Y-48693D01*
X38787Y-48630D01*
X38992Y-48425D01*
X39968Y-47449D01*
X40031Y-47355D01*
X40053Y-47244D01*
X40053Y-51968D01*
X40031Y-51857D01*
X39968Y-51763D01*
X39968Y-51763D01*
X39210Y-51005D01*
X39116Y-50942D01*
X39005Y-50920D01*
X38250Y-50920D01*
X38250Y-50900D01*
X38212Y-50808D01*
X38141Y-50737D01*
X38050Y-50699D01*
X37950Y-50699D01*
X37140Y-50699D01*
X37048Y-50737D01*
X36978Y-50807D01*
X36940Y-50899D01*
X36940Y-50999D01*
X36940Y-51599D01*
X36978Y-51691D01*
X37048Y-51761D01*
X37140Y-51799D01*
X37239Y-51799D01*
X38049Y-51799D01*
X38141Y-51761D01*
X38211Y-51691D01*
X38250Y-51599D01*
X38250Y-51500D01*
X38885Y-51500D01*
X39473Y-52088D01*
X39473Y-55785D01*
X38870Y-56389D01*
X38870Y-53349D01*
X38870Y-52650D01*
X38832Y-52558D01*
X38761Y-52487D01*
X38670Y-52449D01*
X38570Y-52449D01*
X34982Y-52449D01*
X34920Y-52512D01*
X34920Y-52949D01*
X38807Y-52949D01*
X38870Y-52887D01*
X38870Y-52650D01*
X38870Y-53349D01*
X38870Y-53112D01*
X38807Y-53049D01*
X34920Y-53049D01*
X34920Y-53487D01*
X34982Y-53549D01*
X38570Y-53549D01*
X38670Y-53549D01*
X38761Y-53511D01*
X38832Y-53441D01*
X38870Y-53349D01*
X38870Y-56389D01*
X38462Y-56796D01*
X35271Y-56796D01*
X35271Y-56493D01*
X35233Y-56401D01*
X35163Y-56330D01*
X35071Y-56292D01*
X34972Y-56292D01*
X34820Y-56292D01*
X34820Y-53487D01*
X34820Y-53049D01*
X34820Y-52949D01*
X34820Y-52512D01*
X34757Y-52449D01*
X31169Y-52449D01*
X31070Y-52449D01*
X30978Y-52487D01*
X30908Y-52558D01*
X30870Y-52650D01*
X30870Y-52887D01*
X30932Y-52949D01*
X34820Y-52949D01*
X34820Y-53049D01*
X30932Y-53049D01*
X30870Y-53112D01*
X30870Y-53349D01*
X30908Y-53441D01*
X30978Y-53511D01*
X31070Y-53549D01*
X31169Y-53549D01*
X34757Y-53549D01*
X34820Y-53487D01*
X34820Y-56292D01*
X28562Y-56292D01*
X27472Y-56292D01*
X27380Y-56330D01*
X27309Y-56400D01*
X27271Y-56492D01*
X27271Y-56592D01*
X27271Y-57192D01*
X27309Y-57284D01*
X27379Y-57354D01*
X27471Y-57392D01*
X27571Y-57392D01*
X28562Y-57392D01*
X35071Y-57392D01*
X35110Y-57376D01*
X38582Y-57376D01*
X38693Y-57354D01*
X38787Y-57291D01*
X39968Y-56110D01*
X39968Y-56110D01*
X39968Y-56110D01*
X40031Y-56016D01*
X40053Y-55905D01*
X40053Y-60119D01*
X39865Y-60041D01*
X39100Y-60040D01*
X38393Y-60332D01*
X37851Y-60873D01*
X37558Y-61579D01*
X37557Y-62344D01*
X37849Y-63051D01*
X38390Y-63593D01*
X39096Y-63886D01*
X39861Y-63887D01*
X40568Y-63595D01*
X41110Y-63054D01*
X41403Y-62348D01*
X41404Y-61583D01*
X41404Y-64139D01*
X28562Y-64139D01*
X28512Y-64139D01*
X23680Y-64139D01*
X23680Y-60749D01*
X23842Y-60912D01*
X24368Y-61130D01*
X24937Y-61131D01*
X25463Y-60913D01*
X25866Y-60511D01*
X26084Y-59985D01*
X26085Y-59416D01*
X25867Y-58890D01*
X25465Y-58487D01*
X24939Y-58269D01*
X24370Y-58268D01*
X23844Y-58486D01*
X23680Y-58650D01*
X23680Y-54187D01*
X23763Y-54389D01*
X24058Y-54684D01*
X24444Y-54844D01*
X24861Y-54845D01*
X25248Y-54685D01*
X25543Y-54390D01*
X25703Y-54004D01*
X25704Y-53587D01*
X25544Y-53201D01*
X25249Y-52905D01*
X24863Y-52745D01*
X24446Y-52744D01*
X24060Y-52904D01*
X23764Y-53199D01*
X23680Y-53402D01*
X23680Y-25721D01*
X27233Y-25721D01*
X27336Y-25700D01*
X27423Y-25642D01*
X27481Y-25555D01*
X27502Y-25452D01*
X27502Y-25450D01*
X27502Y-25448D01*
X27502Y-24930D01*
X51461Y-24930D01*
X51461Y-25441D01*
X51459Y-25452D01*
X51480Y-25555D01*
X51481Y-25556D01*
X51482Y-25561D01*
X51540Y-25648D01*
X51627Y-25706D01*
X51731Y-25727D01*
X51761Y-25721D01*
X55273Y-25721D01*
X55273Y-64139D01*
G54D10*
G36*
X28068Y-50178D02*
X27954Y-50178D01*
X27891Y-50240D01*
X27891Y-50477D01*
X27923Y-50556D01*
X25413Y-50556D01*
X25413Y-48530D01*
X27271Y-48530D01*
X27271Y-48727D01*
X27309Y-48819D01*
X27379Y-48890D01*
X27471Y-48928D01*
X27571Y-48928D01*
X28068Y-48928D01*
X28068Y-49588D01*
X27999Y-49616D01*
X27929Y-49686D01*
X27891Y-49778D01*
X27891Y-50015D01*
X27954Y-50078D01*
X28068Y-50078D01*
X28068Y-50178D01*
X28068Y-50178D01*
G37*
G54D20*
X28068Y-50178D02*
X27954Y-50178D01*
X27891Y-50240D01*
X27891Y-50477D01*
X27923Y-50556D01*
X25413Y-50556D01*
X25413Y-48530D01*
X27271Y-48530D01*
X27271Y-48727D01*
X27309Y-48819D01*
X27379Y-48890D01*
X27471Y-48928D01*
X27571Y-48928D01*
X28068Y-48928D01*
X28068Y-49588D01*
X27999Y-49616D01*
X27929Y-49686D01*
X27891Y-49778D01*
X27891Y-50015D01*
X27954Y-50078D01*
X28068Y-50078D01*
X28068Y-50178D01*
G54D10*
G36*
X44407Y-50595D02*
X43902Y-50595D01*
X43927Y-50569D01*
X43965Y-50477D01*
X43965Y-49778D01*
X43927Y-49686D01*
X43857Y-49616D01*
X43765Y-49578D01*
X43665Y-49578D01*
X43422Y-49578D01*
X43360Y-49640D01*
X43360Y-50078D01*
X43902Y-50078D01*
X43965Y-50015D01*
X43965Y-49778D01*
X43965Y-50477D01*
X43965Y-50240D01*
X43902Y-50178D01*
X43360Y-50178D01*
X43360Y-50186D01*
X43260Y-50186D01*
X43260Y-50178D01*
X43260Y-50078D01*
X43260Y-49640D01*
X43197Y-49578D01*
X42954Y-49578D01*
X42855Y-49578D01*
X42763Y-49616D01*
X42693Y-49686D01*
X42655Y-49778D01*
X42655Y-50015D01*
X42717Y-50078D01*
X43260Y-50078D01*
X43260Y-50178D01*
X42717Y-50178D01*
X42655Y-50240D01*
X42655Y-50477D01*
X42693Y-50569D01*
X42718Y-50595D01*
X41161Y-50595D01*
X41161Y-48924D01*
X42225Y-48924D01*
X42235Y-48928D01*
X42334Y-48928D01*
X44407Y-48928D01*
X44407Y-50595D01*
X44407Y-50595D01*
G37*
G54D20*
X44407Y-50595D02*
X43902Y-50595D01*
X43927Y-50569D01*
X43965Y-50477D01*
X43965Y-49778D01*
X43927Y-49686D01*
X43857Y-49616D01*
X43765Y-49578D01*
X43665Y-49578D01*
X43422Y-49578D01*
X43360Y-49640D01*
X43360Y-50078D01*
X43902Y-50078D01*
X43965Y-50015D01*
X43965Y-49778D01*
X43965Y-50477D01*
X43965Y-50240D01*
X43902Y-50178D01*
X43360Y-50178D01*
X43360Y-50186D01*
X43260Y-50186D01*
X43260Y-50178D01*
X43260Y-50078D01*
X43260Y-49640D01*
X43197Y-49578D01*
X42954Y-49578D01*
X42855Y-49578D01*
X42763Y-49616D01*
X42693Y-49686D01*
X42655Y-49778D01*
X42655Y-50015D01*
X42717Y-50078D01*
X43260Y-50078D01*
X43260Y-50178D01*
X42717Y-50178D01*
X42655Y-50240D01*
X42655Y-50477D01*
X42693Y-50569D01*
X42718Y-50595D01*
X41161Y-50595D01*
X41161Y-48924D01*
X42225Y-48924D01*
X42235Y-48928D01*
X42334Y-48928D01*
X44407Y-48928D01*
X44407Y-50595D01*
M02*
