G04 #@! TF.GenerationSoftware,KiCad,Pcbnew,5.0.0*
G04 #@! TF.CreationDate,2018-07-29T00:07:07-05:00*
G04 #@! TF.ProjectId,SolarPanelTest,536F6C617250616E656C546573742E6B,rev?*
G04 #@! TF.SameCoordinates,PX87a6900PY4b17a20*
G04 #@! TF.FileFunction,Soldermask,Top*
G04 #@! TF.FilePolarity,Negative*
%FSLAX46Y46*%
G04 Gerber Fmt 4.6, Leading zero omitted, Abs format (unit mm)*
G04 Created by KiCad (PCBNEW 5.0.0) date Sun Jul 29 00:07:07 2018*
%MOMM*%
%LPD*%
G01*
G04 APERTURE LIST*
%ADD10O,5.730000X11.060000*%
%ADD11R,3.400000X6.400000*%
%ADD12R,14.120000X6.400000*%
%ADD13C,3.802252*%
%ADD14C,0.100000*%
%ADD15C,3.631164*%
%ADD16R,4.400000X1.900000*%
%ADD17R,15.400000X1.400000*%
%ADD18R,2.100000X2.100000*%
%ADD19O,2.100000X2.100000*%
%ADD20R,1.900000X1.200000*%
%ADD21R,3.500000X2.600000*%
G04 APERTURE END LIST*
D10*
G04 #@! TO.C,SC1*
X69934800Y28140800D03*
X105103800Y28232800D03*
X60820800Y36730800D03*
X87368800Y36749800D03*
X114138800Y36844800D03*
X105087800Y5890800D03*
X69918800Y5798800D03*
X114201800Y-2699200D03*
X87653800Y-2718200D03*
X60883800Y-2813200D03*
G04 #@! TD*
D11*
G04 #@! TO.C,SC2*
X-30734000Y-32004000D03*
D12*
X-20320000Y-32004000D03*
D13*
X-10160000Y-32004000D03*
D14*
G36*
X-13685000Y-35234797D02*
X-13685000Y-28773203D01*
X-6635000Y-31211549D01*
X-6635000Y-32796451D01*
X-13685000Y-35234797D01*
X-13685000Y-35234797D01*
G37*
D15*
X-7493000Y-33210500D03*
D14*
G36*
X-3749465Y-35260500D02*
X-11236535Y-35260500D01*
X-8244643Y-31160500D01*
X-6741357Y-31160500D01*
X-3749465Y-35260500D01*
X-3749465Y-35260500D01*
G37*
D16*
X-11874500Y-34290000D03*
D17*
X-18351500Y-34544000D03*
X-19685000Y-34544000D03*
G04 #@! TD*
D11*
G04 #@! TO.C,SC3*
X3556000Y-32004000D03*
D12*
X13970000Y-32004000D03*
D13*
X24130000Y-32004000D03*
D14*
G36*
X20605000Y-35234797D02*
X20605000Y-28773203D01*
X27655000Y-31211549D01*
X27655000Y-32796451D01*
X20605000Y-35234797D01*
X20605000Y-35234797D01*
G37*
D15*
X26797000Y-33210500D03*
D14*
G36*
X30540535Y-35260500D02*
X23053465Y-35260500D01*
X26045357Y-31160500D01*
X27548643Y-31160500D01*
X30540535Y-35260500D01*
X30540535Y-35260500D01*
G37*
D16*
X22415500Y-34290000D03*
D17*
X15938500Y-34544000D03*
X14605000Y-34544000D03*
G04 #@! TD*
D10*
G04 #@! TO.C,SC4*
X-11904000Y28344000D03*
X23265000Y28436000D03*
X-21018000Y36934000D03*
X5530000Y36953000D03*
X32300000Y37048000D03*
X23249000Y6094000D03*
X-11920000Y6002000D03*
X32363000Y-2496000D03*
X5815000Y-2515000D03*
X-20955000Y-2610000D03*
G04 #@! TD*
D11*
G04 #@! TO.C,SC5*
X37846000Y-32004000D03*
D12*
X48260000Y-32004000D03*
D13*
X58420000Y-32004000D03*
D14*
G36*
X54895000Y-35234797D02*
X54895000Y-28773203D01*
X61945000Y-31211549D01*
X61945000Y-32796451D01*
X54895000Y-35234797D01*
X54895000Y-35234797D01*
G37*
D15*
X61087000Y-33210500D03*
D14*
G36*
X64830535Y-35260500D02*
X57343465Y-35260500D01*
X60335357Y-31160500D01*
X61838643Y-31160500D01*
X64830535Y-35260500D01*
X64830535Y-35260500D01*
G37*
D16*
X56705500Y-34290000D03*
D17*
X50228500Y-34544000D03*
X48895000Y-34544000D03*
G04 #@! TD*
D11*
G04 #@! TO.C,SC6*
X70866000Y-32004000D03*
D12*
X81280000Y-32004000D03*
D13*
X91440000Y-32004000D03*
D14*
G36*
X87915000Y-35234797D02*
X87915000Y-28773203D01*
X94965000Y-31211549D01*
X94965000Y-32796451D01*
X87915000Y-35234797D01*
X87915000Y-35234797D01*
G37*
D15*
X94107000Y-33210500D03*
D14*
G36*
X97850535Y-35260500D02*
X90363465Y-35260500D01*
X93355357Y-31160500D01*
X94858643Y-31160500D01*
X97850535Y-35260500D01*
X97850535Y-35260500D01*
G37*
D16*
X89725500Y-34290000D03*
D17*
X83248500Y-34544000D03*
X81915000Y-34544000D03*
G04 #@! TD*
D11*
G04 #@! TO.C,SC7*
X105156000Y-32004000D03*
D12*
X115570000Y-32004000D03*
D13*
X125730000Y-32004000D03*
D14*
G36*
X122205000Y-35234797D02*
X122205000Y-28773203D01*
X129255000Y-31211549D01*
X129255000Y-32796451D01*
X122205000Y-35234797D01*
X122205000Y-35234797D01*
G37*
D15*
X128397000Y-33210500D03*
D14*
G36*
X132140535Y-35260500D02*
X124653465Y-35260500D01*
X127645357Y-31160500D01*
X129148643Y-31160500D01*
X132140535Y-35260500D01*
X132140535Y-35260500D01*
G37*
D16*
X124015500Y-34290000D03*
D17*
X117538500Y-34544000D03*
X116205000Y-34544000D03*
G04 #@! TD*
D11*
G04 #@! TO.C,SC8*
X-30734000Y-40894000D03*
D12*
X-20320000Y-40894000D03*
D13*
X-10160000Y-40894000D03*
D14*
G36*
X-13685000Y-44124797D02*
X-13685000Y-37663203D01*
X-6635000Y-40101549D01*
X-6635000Y-41686451D01*
X-13685000Y-44124797D01*
X-13685000Y-44124797D01*
G37*
D15*
X-7493000Y-42100500D03*
D14*
G36*
X-3749465Y-44150500D02*
X-11236535Y-44150500D01*
X-8244643Y-40050500D01*
X-6741357Y-40050500D01*
X-3749465Y-44150500D01*
X-3749465Y-44150500D01*
G37*
D16*
X-11874500Y-43180000D03*
D17*
X-18351500Y-43434000D03*
X-19685000Y-43434000D03*
G04 #@! TD*
D11*
G04 #@! TO.C,SC9*
X3556000Y-40894000D03*
D12*
X13970000Y-40894000D03*
D13*
X24130000Y-40894000D03*
D14*
G36*
X20605000Y-44124797D02*
X20605000Y-37663203D01*
X27655000Y-40101549D01*
X27655000Y-41686451D01*
X20605000Y-44124797D01*
X20605000Y-44124797D01*
G37*
D15*
X26797000Y-42100500D03*
D14*
G36*
X30540535Y-44150500D02*
X23053465Y-44150500D01*
X26045357Y-40050500D01*
X27548643Y-40050500D01*
X30540535Y-44150500D01*
X30540535Y-44150500D01*
G37*
D16*
X22415500Y-43180000D03*
D17*
X15938500Y-43434000D03*
X14605000Y-43434000D03*
G04 #@! TD*
D11*
G04 #@! TO.C,SC10*
X37846000Y-40894000D03*
D12*
X48260000Y-40894000D03*
D13*
X58420000Y-40894000D03*
D14*
G36*
X54895000Y-44124797D02*
X54895000Y-37663203D01*
X61945000Y-40101549D01*
X61945000Y-41686451D01*
X54895000Y-44124797D01*
X54895000Y-44124797D01*
G37*
D15*
X61087000Y-42100500D03*
D14*
G36*
X64830535Y-44150500D02*
X57343465Y-44150500D01*
X60335357Y-40050500D01*
X61838643Y-40050500D01*
X64830535Y-44150500D01*
X64830535Y-44150500D01*
G37*
D16*
X56705500Y-43180000D03*
D17*
X50228500Y-43434000D03*
X48895000Y-43434000D03*
G04 #@! TD*
D11*
G04 #@! TO.C,SC11*
X70866000Y-40894000D03*
D12*
X81280000Y-40894000D03*
D13*
X91440000Y-40894000D03*
D14*
G36*
X87915000Y-44124797D02*
X87915000Y-37663203D01*
X94965000Y-40101549D01*
X94965000Y-41686451D01*
X87915000Y-44124797D01*
X87915000Y-44124797D01*
G37*
D15*
X94107000Y-42100500D03*
D14*
G36*
X97850535Y-44150500D02*
X90363465Y-44150500D01*
X93355357Y-40050500D01*
X94858643Y-40050500D01*
X97850535Y-44150500D01*
X97850535Y-44150500D01*
G37*
D16*
X89725500Y-43180000D03*
D17*
X83248500Y-43434000D03*
X81915000Y-43434000D03*
G04 #@! TD*
D11*
G04 #@! TO.C,SC12*
X105156000Y-40894000D03*
D12*
X115570000Y-40894000D03*
D13*
X125730000Y-40894000D03*
D14*
G36*
X122205000Y-44124797D02*
X122205000Y-37663203D01*
X129255000Y-40101549D01*
X129255000Y-41686451D01*
X122205000Y-44124797D01*
X122205000Y-44124797D01*
G37*
D15*
X128397000Y-42100500D03*
D14*
G36*
X132140535Y-44150500D02*
X124653465Y-44150500D01*
X127645357Y-40050500D01*
X129148643Y-40050500D01*
X132140535Y-44150500D01*
X132140535Y-44150500D01*
G37*
D16*
X124015500Y-43180000D03*
D17*
X117538500Y-43434000D03*
X116205000Y-43434000D03*
G04 #@! TD*
D18*
G04 #@! TO.C,J3*
X100330000Y-33020000D03*
D19*
X100330000Y-30480000D03*
G04 #@! TD*
D18*
G04 #@! TO.C,J4*
X85090000Y-48260000D03*
D19*
X87630000Y-48260000D03*
G04 #@! TD*
D20*
G04 #@! TO.C,J1*
X-36725000Y-15905000D03*
X-36725000Y-17155000D03*
X-36725000Y-18405000D03*
X-36725000Y-19655000D03*
D21*
X-39475000Y-13405000D03*
X-39475000Y-22155000D03*
G04 #@! TD*
D18*
G04 #@! TO.C,J2*
X100330000Y-25400000D03*
D19*
X97790000Y-25400000D03*
G04 #@! TD*
M02*
