G04 #@! TF.FileFunction,Paste,Top*
%FSLAX46Y46*%
G04 Gerber Fmt 4.6, Leading zero omitted, Abs format (unit mm)*
G04 Created by KiCad (PCBNEW 4.0.7) date Tue Jul  3 16:38:59 2018*
%MOMM*%
%LPD*%
G01*
G04 APERTURE LIST*
%ADD10C,0.100000*%
%ADD11O,5.330000X10.660000*%
%ADD12R,3.000000X6.000000*%
%ADD13R,13.720000X6.000000*%
%ADD14R,4.000000X1.500000*%
%ADD15R,15.000000X1.000000*%
%ADD16R,1.500000X0.800000*%
%ADD17R,3.100000X2.200000*%
G04 APERTURE END LIST*
D10*
D11*
X69934800Y28140800D03*
X105103800Y28232800D03*
X60820800Y36730800D03*
X87368800Y36749800D03*
X114138800Y36844800D03*
X105087800Y5890800D03*
X69918800Y5798800D03*
X114201800Y-2699200D03*
X87653800Y-2718200D03*
X60883800Y-2813200D03*
D12*
X-30734000Y-32004000D03*
D13*
X-20320000Y-32004000D03*
D10*
G36*
X-13485000Y-34954000D02*
X-13485000Y-29054000D01*
X-6835000Y-31354000D01*
X-6835000Y-32654000D01*
X-13485000Y-34954000D01*
X-13485000Y-34954000D01*
G37*
G36*
X-4143000Y-35060500D02*
X-10843000Y-35060500D01*
X-8143000Y-31360500D01*
X-6843000Y-31360500D01*
X-4143000Y-35060500D01*
X-4143000Y-35060500D01*
G37*
D14*
X-11874500Y-34290000D03*
D15*
X-18351500Y-34544000D03*
X-19685000Y-34544000D03*
D12*
X3556000Y-32004000D03*
D13*
X13970000Y-32004000D03*
D10*
G36*
X20805000Y-34954000D02*
X20805000Y-29054000D01*
X27455000Y-31354000D01*
X27455000Y-32654000D01*
X20805000Y-34954000D01*
X20805000Y-34954000D01*
G37*
G36*
X30147000Y-35060500D02*
X23447000Y-35060500D01*
X26147000Y-31360500D01*
X27447000Y-31360500D01*
X30147000Y-35060500D01*
X30147000Y-35060500D01*
G37*
D14*
X22415500Y-34290000D03*
D15*
X15938500Y-34544000D03*
X14605000Y-34544000D03*
D11*
X-11904000Y28344000D03*
X23265000Y28436000D03*
X-21018000Y36934000D03*
X5530000Y36953000D03*
X32300000Y37048000D03*
X23249000Y6094000D03*
X-11920000Y6002000D03*
X32363000Y-2496000D03*
X5815000Y-2515000D03*
X-20955000Y-2610000D03*
D12*
X37846000Y-32004000D03*
D13*
X48260000Y-32004000D03*
D10*
G36*
X55095000Y-34954000D02*
X55095000Y-29054000D01*
X61745000Y-31354000D01*
X61745000Y-32654000D01*
X55095000Y-34954000D01*
X55095000Y-34954000D01*
G37*
G36*
X64437000Y-35060500D02*
X57737000Y-35060500D01*
X60437000Y-31360500D01*
X61737000Y-31360500D01*
X64437000Y-35060500D01*
X64437000Y-35060500D01*
G37*
D14*
X56705500Y-34290000D03*
D15*
X50228500Y-34544000D03*
X48895000Y-34544000D03*
D12*
X70866000Y-32004000D03*
D13*
X81280000Y-32004000D03*
D10*
G36*
X88115000Y-34954000D02*
X88115000Y-29054000D01*
X94765000Y-31354000D01*
X94765000Y-32654000D01*
X88115000Y-34954000D01*
X88115000Y-34954000D01*
G37*
G36*
X97457000Y-35060500D02*
X90757000Y-35060500D01*
X93457000Y-31360500D01*
X94757000Y-31360500D01*
X97457000Y-35060500D01*
X97457000Y-35060500D01*
G37*
D14*
X89725500Y-34290000D03*
D15*
X83248500Y-34544000D03*
X81915000Y-34544000D03*
D12*
X105156000Y-32004000D03*
D13*
X115570000Y-32004000D03*
D10*
G36*
X122405000Y-34954000D02*
X122405000Y-29054000D01*
X129055000Y-31354000D01*
X129055000Y-32654000D01*
X122405000Y-34954000D01*
X122405000Y-34954000D01*
G37*
G36*
X131747000Y-35060500D02*
X125047000Y-35060500D01*
X127747000Y-31360500D01*
X129047000Y-31360500D01*
X131747000Y-35060500D01*
X131747000Y-35060500D01*
G37*
D14*
X124015500Y-34290000D03*
D15*
X117538500Y-34544000D03*
X116205000Y-34544000D03*
D12*
X-30734000Y-40894000D03*
D13*
X-20320000Y-40894000D03*
D10*
G36*
X-13485000Y-43844000D02*
X-13485000Y-37944000D01*
X-6835000Y-40244000D01*
X-6835000Y-41544000D01*
X-13485000Y-43844000D01*
X-13485000Y-43844000D01*
G37*
G36*
X-4143000Y-43950500D02*
X-10843000Y-43950500D01*
X-8143000Y-40250500D01*
X-6843000Y-40250500D01*
X-4143000Y-43950500D01*
X-4143000Y-43950500D01*
G37*
D14*
X-11874500Y-43180000D03*
D15*
X-18351500Y-43434000D03*
X-19685000Y-43434000D03*
D12*
X3556000Y-40894000D03*
D13*
X13970000Y-40894000D03*
D10*
G36*
X20805000Y-43844000D02*
X20805000Y-37944000D01*
X27455000Y-40244000D01*
X27455000Y-41544000D01*
X20805000Y-43844000D01*
X20805000Y-43844000D01*
G37*
G36*
X30147000Y-43950500D02*
X23447000Y-43950500D01*
X26147000Y-40250500D01*
X27447000Y-40250500D01*
X30147000Y-43950500D01*
X30147000Y-43950500D01*
G37*
D14*
X22415500Y-43180000D03*
D15*
X15938500Y-43434000D03*
X14605000Y-43434000D03*
D12*
X37846000Y-40894000D03*
D13*
X48260000Y-40894000D03*
D10*
G36*
X55095000Y-43844000D02*
X55095000Y-37944000D01*
X61745000Y-40244000D01*
X61745000Y-41544000D01*
X55095000Y-43844000D01*
X55095000Y-43844000D01*
G37*
G36*
X64437000Y-43950500D02*
X57737000Y-43950500D01*
X60437000Y-40250500D01*
X61737000Y-40250500D01*
X64437000Y-43950500D01*
X64437000Y-43950500D01*
G37*
D14*
X56705500Y-43180000D03*
D15*
X50228500Y-43434000D03*
X48895000Y-43434000D03*
D12*
X70866000Y-40894000D03*
D13*
X81280000Y-40894000D03*
D10*
G36*
X88115000Y-43844000D02*
X88115000Y-37944000D01*
X94765000Y-40244000D01*
X94765000Y-41544000D01*
X88115000Y-43844000D01*
X88115000Y-43844000D01*
G37*
G36*
X97457000Y-43950500D02*
X90757000Y-43950500D01*
X93457000Y-40250500D01*
X94757000Y-40250500D01*
X97457000Y-43950500D01*
X97457000Y-43950500D01*
G37*
D14*
X89725500Y-43180000D03*
D15*
X83248500Y-43434000D03*
X81915000Y-43434000D03*
D12*
X105156000Y-40894000D03*
D13*
X115570000Y-40894000D03*
D10*
G36*
X122405000Y-43844000D02*
X122405000Y-37944000D01*
X129055000Y-40244000D01*
X129055000Y-41544000D01*
X122405000Y-43844000D01*
X122405000Y-43844000D01*
G37*
G36*
X131747000Y-43950500D02*
X125047000Y-43950500D01*
X127747000Y-40250500D01*
X129047000Y-40250500D01*
X131747000Y-43950500D01*
X131747000Y-43950500D01*
G37*
D14*
X124015500Y-43180000D03*
D15*
X117538500Y-43434000D03*
X116205000Y-43434000D03*
D16*
X-36725000Y-15905000D03*
X-36725000Y-17155000D03*
X-36725000Y-18405000D03*
X-36725000Y-19655000D03*
D17*
X-39475000Y-13405000D03*
X-39475000Y-22155000D03*
M02*
