G04 #@! TF.FileFunction,Copper,L1,Top,Signal*
%FSLAX46Y46*%
G04 Gerber Fmt 4.6, Leading zero omitted, Abs format (unit mm)*
G04 Created by KiCad (PCBNEW 4.0.7) date Tue Jul  3 16:38:59 2018*
%MOMM*%
%LPD*%
G01*
G04 APERTURE LIST*
%ADD10C,0.100000*%
%ADD11O,5.330000X10.660000*%
%ADD12R,3.000000X6.000000*%
%ADD13R,13.720000X6.000000*%
%ADD14R,4.000000X1.500000*%
%ADD15R,15.000000X1.000000*%
%ADD16R,1.700000X1.700000*%
%ADD17O,1.700000X1.700000*%
%ADD18R,1.500000X0.800000*%
%ADD19R,3.100000X2.200000*%
%ADD20C,0.600000*%
%ADD21C,0.250000*%
G04 APERTURE END LIST*
D10*
D11*
X69934800Y28140800D03*
X105103800Y28232800D03*
X60820800Y36730800D03*
X87368800Y36749800D03*
X114138800Y36844800D03*
X105087800Y5890800D03*
X69918800Y5798800D03*
X114201800Y-2699200D03*
X87653800Y-2718200D03*
X60883800Y-2813200D03*
D12*
X-30734000Y-32004000D03*
D13*
X-20320000Y-32004000D03*
D10*
G36*
X-13485000Y-34954000D02*
X-13485000Y-29054000D01*
X-6835000Y-31354000D01*
X-6835000Y-32654000D01*
X-13485000Y-34954000D01*
X-13485000Y-34954000D01*
G37*
G36*
X-4143000Y-35060500D02*
X-10843000Y-35060500D01*
X-8143000Y-31360500D01*
X-6843000Y-31360500D01*
X-4143000Y-35060500D01*
X-4143000Y-35060500D01*
G37*
D14*
X-11874500Y-34290000D03*
D15*
X-18351500Y-34544000D03*
X-19685000Y-34544000D03*
D12*
X3556000Y-32004000D03*
D13*
X13970000Y-32004000D03*
D10*
G36*
X20805000Y-34954000D02*
X20805000Y-29054000D01*
X27455000Y-31354000D01*
X27455000Y-32654000D01*
X20805000Y-34954000D01*
X20805000Y-34954000D01*
G37*
G36*
X30147000Y-35060500D02*
X23447000Y-35060500D01*
X26147000Y-31360500D01*
X27447000Y-31360500D01*
X30147000Y-35060500D01*
X30147000Y-35060500D01*
G37*
D14*
X22415500Y-34290000D03*
D15*
X15938500Y-34544000D03*
X14605000Y-34544000D03*
D11*
X-11904000Y28344000D03*
X23265000Y28436000D03*
X-21018000Y36934000D03*
X5530000Y36953000D03*
X32300000Y37048000D03*
X23249000Y6094000D03*
X-11920000Y6002000D03*
X32363000Y-2496000D03*
X5815000Y-2515000D03*
X-20955000Y-2610000D03*
D12*
X37846000Y-32004000D03*
D13*
X48260000Y-32004000D03*
D10*
G36*
X55095000Y-34954000D02*
X55095000Y-29054000D01*
X61745000Y-31354000D01*
X61745000Y-32654000D01*
X55095000Y-34954000D01*
X55095000Y-34954000D01*
G37*
G36*
X64437000Y-35060500D02*
X57737000Y-35060500D01*
X60437000Y-31360500D01*
X61737000Y-31360500D01*
X64437000Y-35060500D01*
X64437000Y-35060500D01*
G37*
D14*
X56705500Y-34290000D03*
D15*
X50228500Y-34544000D03*
X48895000Y-34544000D03*
D12*
X70866000Y-32004000D03*
D13*
X81280000Y-32004000D03*
D10*
G36*
X88115000Y-34954000D02*
X88115000Y-29054000D01*
X94765000Y-31354000D01*
X94765000Y-32654000D01*
X88115000Y-34954000D01*
X88115000Y-34954000D01*
G37*
G36*
X97457000Y-35060500D02*
X90757000Y-35060500D01*
X93457000Y-31360500D01*
X94757000Y-31360500D01*
X97457000Y-35060500D01*
X97457000Y-35060500D01*
G37*
D14*
X89725500Y-34290000D03*
D15*
X83248500Y-34544000D03*
X81915000Y-34544000D03*
D12*
X105156000Y-32004000D03*
D13*
X115570000Y-32004000D03*
D10*
G36*
X122405000Y-34954000D02*
X122405000Y-29054000D01*
X129055000Y-31354000D01*
X129055000Y-32654000D01*
X122405000Y-34954000D01*
X122405000Y-34954000D01*
G37*
G36*
X131747000Y-35060500D02*
X125047000Y-35060500D01*
X127747000Y-31360500D01*
X129047000Y-31360500D01*
X131747000Y-35060500D01*
X131747000Y-35060500D01*
G37*
D14*
X124015500Y-34290000D03*
D15*
X117538500Y-34544000D03*
X116205000Y-34544000D03*
D12*
X-30734000Y-40894000D03*
D13*
X-20320000Y-40894000D03*
D10*
G36*
X-13485000Y-43844000D02*
X-13485000Y-37944000D01*
X-6835000Y-40244000D01*
X-6835000Y-41544000D01*
X-13485000Y-43844000D01*
X-13485000Y-43844000D01*
G37*
G36*
X-4143000Y-43950500D02*
X-10843000Y-43950500D01*
X-8143000Y-40250500D01*
X-6843000Y-40250500D01*
X-4143000Y-43950500D01*
X-4143000Y-43950500D01*
G37*
D14*
X-11874500Y-43180000D03*
D15*
X-18351500Y-43434000D03*
X-19685000Y-43434000D03*
D12*
X3556000Y-40894000D03*
D13*
X13970000Y-40894000D03*
D10*
G36*
X20805000Y-43844000D02*
X20805000Y-37944000D01*
X27455000Y-40244000D01*
X27455000Y-41544000D01*
X20805000Y-43844000D01*
X20805000Y-43844000D01*
G37*
G36*
X30147000Y-43950500D02*
X23447000Y-43950500D01*
X26147000Y-40250500D01*
X27447000Y-40250500D01*
X30147000Y-43950500D01*
X30147000Y-43950500D01*
G37*
D14*
X22415500Y-43180000D03*
D15*
X15938500Y-43434000D03*
X14605000Y-43434000D03*
D12*
X37846000Y-40894000D03*
D13*
X48260000Y-40894000D03*
D10*
G36*
X55095000Y-43844000D02*
X55095000Y-37944000D01*
X61745000Y-40244000D01*
X61745000Y-41544000D01*
X55095000Y-43844000D01*
X55095000Y-43844000D01*
G37*
G36*
X64437000Y-43950500D02*
X57737000Y-43950500D01*
X60437000Y-40250500D01*
X61737000Y-40250500D01*
X64437000Y-43950500D01*
X64437000Y-43950500D01*
G37*
D14*
X56705500Y-43180000D03*
D15*
X50228500Y-43434000D03*
X48895000Y-43434000D03*
D12*
X70866000Y-40894000D03*
D13*
X81280000Y-40894000D03*
D10*
G36*
X88115000Y-43844000D02*
X88115000Y-37944000D01*
X94765000Y-40244000D01*
X94765000Y-41544000D01*
X88115000Y-43844000D01*
X88115000Y-43844000D01*
G37*
G36*
X97457000Y-43950500D02*
X90757000Y-43950500D01*
X93457000Y-40250500D01*
X94757000Y-40250500D01*
X97457000Y-43950500D01*
X97457000Y-43950500D01*
G37*
D14*
X89725500Y-43180000D03*
D15*
X83248500Y-43434000D03*
X81915000Y-43434000D03*
D12*
X105156000Y-40894000D03*
D13*
X115570000Y-40894000D03*
D10*
G36*
X122405000Y-43844000D02*
X122405000Y-37944000D01*
X129055000Y-40244000D01*
X129055000Y-41544000D01*
X122405000Y-43844000D01*
X122405000Y-43844000D01*
G37*
G36*
X131747000Y-43950500D02*
X125047000Y-43950500D01*
X127747000Y-40250500D01*
X129047000Y-40250500D01*
X131747000Y-43950500D01*
X131747000Y-43950500D01*
G37*
D14*
X124015500Y-43180000D03*
D15*
X117538500Y-43434000D03*
X116205000Y-43434000D03*
D16*
X100330000Y-33020000D03*
D17*
X100330000Y-30480000D03*
D16*
X85090000Y-48260000D03*
D17*
X87630000Y-48260000D03*
D18*
X-36725000Y-15905000D03*
X-36725000Y-17155000D03*
X-36725000Y-18405000D03*
X-36725000Y-19655000D03*
D19*
X-39475000Y-13405000D03*
X-39475000Y-22155000D03*
D16*
X100330000Y-25400000D03*
D17*
X97790000Y-25400000D03*
D20*
X-6350000Y-6350000D03*
X-6350000Y0D03*
X-34290000Y-16510000D03*
X-34290000Y-24130000D03*
D21*
X105156000Y-32004000D02*
X101854000Y-32004000D01*
X101854000Y-32004000D02*
X100330000Y-30480000D01*
X125730000Y-32004000D02*
X126936500Y-33210500D01*
X126936500Y-33210500D02*
X128397000Y-33210500D01*
X100330000Y-25400000D02*
X108966000Y-25400000D01*
X108966000Y-25400000D02*
X115570000Y-32004000D01*
X-7493000Y-33210500D02*
X-8699500Y-32004000D01*
X-8699500Y-32004000D02*
X-20320000Y-32004000D01*
X26797000Y-33210500D02*
X25590500Y-32004000D01*
X25590500Y-32004000D02*
X13970000Y-32004000D01*
X91440000Y-32004000D02*
X92646500Y-33210500D01*
X92646500Y-33210500D02*
X94107000Y-33210500D01*
X48260000Y-32004000D02*
X48260000Y-25400000D01*
X105103800Y28232800D02*
X105011800Y28140800D01*
X105011800Y28140800D02*
X69934800Y28140800D01*
X23265000Y28436000D02*
X23173000Y28344000D01*
X23173000Y28344000D02*
X-11904000Y28344000D01*
X-20320000Y-32004000D02*
X-23126000Y-32004000D01*
X-23126000Y-32004000D02*
X-36725000Y-18405000D01*
X-36725000Y-18405000D02*
X-36725000Y-19655000D01*
X-11920000Y6002000D02*
X-11920000Y5570000D01*
X-11920000Y5570000D02*
X-6350000Y0D01*
X-18405000Y-18405000D02*
X-36725000Y-18405000D01*
X-6350000Y-6350000D02*
X-18405000Y-18405000D01*
X97790000Y-25400000D02*
X81280000Y-25400000D01*
X81280000Y-25400000D02*
X48260000Y-25400000D01*
X48260000Y-25400000D02*
X13970000Y-25400000D01*
X13970000Y-25400000D02*
X-20320000Y-25400000D01*
X80264000Y-32004000D02*
X81280000Y-32004000D01*
X81280000Y-32004000D02*
X81280000Y-25400000D01*
X13970000Y-32004000D02*
X13970000Y-25400000D01*
X-20320000Y-32004000D02*
X-20320000Y-25400000D01*
X23249000Y6094000D02*
X23249000Y3421000D01*
X69934800Y28140800D02*
X69934800Y5814800D01*
X69934800Y5814800D02*
X69918800Y5798800D01*
X23265000Y28436000D02*
X23265000Y6110000D01*
X23265000Y6110000D02*
X23249000Y6094000D01*
X-11904000Y28344000D02*
X-11904000Y6018000D01*
X-11904000Y6018000D02*
X-11920000Y6002000D01*
X105103800Y28232800D02*
X105103800Y5906800D01*
X105103800Y5906800D02*
X104995800Y5798800D01*
X104995800Y5798800D02*
X23544200Y5798800D01*
X23544200Y5798800D02*
X23341000Y6002000D01*
X-7493000Y-42100500D02*
X-8699500Y-40894000D01*
X-8699500Y-40894000D02*
X-20320000Y-40894000D01*
X-20320000Y-40894000D02*
X-25146000Y-40894000D01*
X-25146000Y-40894000D02*
X-30734000Y-35306000D01*
X-30734000Y-35306000D02*
X-30734000Y-32004000D01*
X26797000Y-42100500D02*
X25590500Y-40894000D01*
X25590500Y-40894000D02*
X13970000Y-40894000D01*
X13970000Y-40894000D02*
X9144000Y-40894000D01*
X9144000Y-40894000D02*
X3556000Y-35306000D01*
X3556000Y-35306000D02*
X3556000Y-32004000D01*
X61087000Y-42100500D02*
X59880500Y-40894000D01*
X59880500Y-40894000D02*
X48260000Y-40894000D01*
X48260000Y-40894000D02*
X43434000Y-40894000D01*
X43434000Y-40894000D02*
X37846000Y-35306000D01*
X37846000Y-35306000D02*
X37846000Y-32004000D01*
X43434000Y-40894000D02*
X37846000Y-35306000D01*
X37846000Y-35306000D02*
X37846000Y-32004000D01*
X91440000Y-40894000D02*
X92646500Y-42100500D01*
X92646500Y-42100500D02*
X94107000Y-42100500D01*
X81280000Y-40894000D02*
X77216000Y-36830000D01*
X70866000Y-35306000D02*
X70866000Y-32004000D01*
X72390000Y-36830000D02*
X70866000Y-35306000D01*
X77216000Y-36830000D02*
X72390000Y-36830000D01*
X81280000Y-40894000D02*
X77724000Y-40894000D01*
X70866000Y-34036000D02*
X70866000Y-32004000D01*
X32363000Y-2496000D02*
X32344000Y-2515000D01*
X32344000Y-2515000D02*
X5815000Y-2515000D01*
X87653800Y-2718200D02*
X87558800Y-2813200D01*
X87558800Y-2813200D02*
X60883800Y-2813200D01*
X60820800Y36730800D02*
X60839800Y36749800D01*
X60839800Y36749800D02*
X87368800Y36749800D01*
X5530000Y36953000D02*
X5511000Y36934000D01*
X5511000Y36934000D02*
X-21018000Y36934000D01*
X-30734000Y-40894000D02*
X-34290000Y-37338000D01*
X-36080000Y-16510000D02*
X-36725000Y-17155000D01*
X-34290000Y-16510000D02*
X-36080000Y-16510000D01*
X-34290000Y-37338000D02*
X-34290000Y-24130000D01*
X-36725000Y-15905000D02*
X-36725000Y-17155000D01*
X-20955000Y-2610000D02*
X-23430000Y-2610000D01*
X-23430000Y-2610000D02*
X-36725000Y-15905000D01*
X85090000Y-48260000D02*
X73406000Y-48260000D01*
X73406000Y-48260000D02*
X70866000Y-45720000D01*
X70866000Y-40894000D02*
X70866000Y-43434000D01*
X70866000Y-40894000D02*
X70866000Y-45720000D01*
X70866000Y-45720000D02*
X71120000Y-45720000D01*
X37846000Y-40894000D02*
X37846000Y-45720000D01*
X37846000Y-45720000D02*
X38100000Y-45720000D01*
X3556000Y-40894000D02*
X3556000Y-45720000D01*
X3556000Y-45720000D02*
X3810000Y-45720000D01*
X-30734000Y-40894000D02*
X-30734000Y-45720000D01*
X-30734000Y-45720000D02*
X-30480000Y-45720000D01*
X71120000Y-45720000D02*
X38100000Y-45720000D01*
X38100000Y-45720000D02*
X3810000Y-45720000D01*
X3810000Y-45720000D02*
X-30480000Y-45720000D01*
X114138800Y36844800D02*
X114138800Y-2636200D01*
X114138800Y-2636200D02*
X114201800Y-2699200D01*
X114201800Y-2699200D02*
X87672800Y-2699200D01*
X87672800Y-2699200D02*
X87558800Y-2813200D01*
X87558800Y-2813200D02*
X32680200Y-2813200D01*
X32680200Y-2813200D02*
X32382000Y-2515000D01*
X32382000Y-2515000D02*
X-20860000Y-2515000D01*
X114138800Y36844800D02*
X87463800Y36844800D01*
X87463800Y36844800D02*
X87349800Y36730800D01*
X87349800Y36730800D02*
X32617200Y36730800D01*
X32617200Y36730800D02*
X32395000Y36953000D01*
X32395000Y36953000D02*
X-20999000Y36953000D01*
X-20999000Y36953000D02*
X-21018000Y36934000D01*
X125730000Y-40894000D02*
X126936500Y-42100500D01*
X126936500Y-42100500D02*
X128397000Y-42100500D01*
X100330000Y-33020000D02*
X100330000Y-34290000D01*
X111506000Y-36830000D02*
X115570000Y-40894000D01*
X102870000Y-36830000D02*
X111506000Y-36830000D01*
X100330000Y-34290000D02*
X102870000Y-36830000D01*
X115570000Y-40894000D02*
X110744000Y-40894000D01*
X87630000Y-48260000D02*
X97790000Y-48260000D01*
X97790000Y-48260000D02*
X105156000Y-40894000D01*
X105156000Y-40894000D02*
X103886000Y-40894000D01*
M02*
