G04 #@! TF.FileFunction,Paste,Top*
%FSLAX46Y46*%
G04 Gerber Fmt 4.6, Leading zero omitted, Abs format (unit mm)*
G04 Created by KiCad (PCBNEW 4.0.7) date Fri Jul 20 16:26:56 2018*
%MOMM*%
%LPD*%
G01*
G04 APERTURE LIST*
%ADD10C,0.100000*%
%ADD11O,5.330000X10.660000*%
%ADD12R,3.000000X6.000000*%
%ADD13R,13.720000X6.000000*%
%ADD14R,4.000000X1.500000*%
%ADD15R,15.000000X1.000000*%
%ADD16R,1.500000X0.800000*%
%ADD17R,3.100000X2.200000*%
G04 APERTURE END LIST*
D10*
D11*
X212174800Y-50599200D03*
X247343800Y-50507200D03*
X203060800Y-42009200D03*
X229608800Y-41990200D03*
X256378800Y-41895200D03*
X247327800Y-72849200D03*
X212158800Y-72941200D03*
X256441800Y-81439200D03*
X229893800Y-81458200D03*
X203123800Y-81553200D03*
D12*
X111506000Y-110744000D03*
D13*
X121920000Y-110744000D03*
D10*
G36*
X128755000Y-113694000D02*
X128755000Y-107794000D01*
X135405000Y-110094000D01*
X135405000Y-111394000D01*
X128755000Y-113694000D01*
X128755000Y-113694000D01*
G37*
G36*
X138097000Y-113800500D02*
X131397000Y-113800500D01*
X134097000Y-110100500D01*
X135397000Y-110100500D01*
X138097000Y-113800500D01*
X138097000Y-113800500D01*
G37*
D14*
X130365500Y-113030000D03*
D15*
X123888500Y-113284000D03*
X122555000Y-113284000D03*
D12*
X145796000Y-110744000D03*
D13*
X156210000Y-110744000D03*
D10*
G36*
X163045000Y-113694000D02*
X163045000Y-107794000D01*
X169695000Y-110094000D01*
X169695000Y-111394000D01*
X163045000Y-113694000D01*
X163045000Y-113694000D01*
G37*
G36*
X172387000Y-113800500D02*
X165687000Y-113800500D01*
X168387000Y-110100500D01*
X169687000Y-110100500D01*
X172387000Y-113800500D01*
X172387000Y-113800500D01*
G37*
D14*
X164655500Y-113030000D03*
D15*
X158178500Y-113284000D03*
X156845000Y-113284000D03*
D11*
X130336000Y-50396000D03*
X165505000Y-50304000D03*
X121222000Y-41806000D03*
X147770000Y-41787000D03*
X174540000Y-41692000D03*
X165489000Y-72646000D03*
X130320000Y-72738000D03*
X174603000Y-81236000D03*
X148055000Y-81255000D03*
X121285000Y-81350000D03*
D12*
X180086000Y-110744000D03*
D13*
X190500000Y-110744000D03*
D10*
G36*
X197335000Y-113694000D02*
X197335000Y-107794000D01*
X203985000Y-110094000D01*
X203985000Y-111394000D01*
X197335000Y-113694000D01*
X197335000Y-113694000D01*
G37*
G36*
X206677000Y-113800500D02*
X199977000Y-113800500D01*
X202677000Y-110100500D01*
X203977000Y-110100500D01*
X206677000Y-113800500D01*
X206677000Y-113800500D01*
G37*
D14*
X198945500Y-113030000D03*
D15*
X192468500Y-113284000D03*
X191135000Y-113284000D03*
D12*
X213106000Y-110744000D03*
D13*
X223520000Y-110744000D03*
D10*
G36*
X230355000Y-113694000D02*
X230355000Y-107794000D01*
X237005000Y-110094000D01*
X237005000Y-111394000D01*
X230355000Y-113694000D01*
X230355000Y-113694000D01*
G37*
G36*
X239697000Y-113800500D02*
X232997000Y-113800500D01*
X235697000Y-110100500D01*
X236997000Y-110100500D01*
X239697000Y-113800500D01*
X239697000Y-113800500D01*
G37*
D14*
X231965500Y-113030000D03*
D15*
X225488500Y-113284000D03*
X224155000Y-113284000D03*
D12*
X247396000Y-110744000D03*
D13*
X257810000Y-110744000D03*
D10*
G36*
X264645000Y-113694000D02*
X264645000Y-107794000D01*
X271295000Y-110094000D01*
X271295000Y-111394000D01*
X264645000Y-113694000D01*
X264645000Y-113694000D01*
G37*
G36*
X273987000Y-113800500D02*
X267287000Y-113800500D01*
X269987000Y-110100500D01*
X271287000Y-110100500D01*
X273987000Y-113800500D01*
X273987000Y-113800500D01*
G37*
D14*
X266255500Y-113030000D03*
D15*
X259778500Y-113284000D03*
X258445000Y-113284000D03*
D12*
X111506000Y-119634000D03*
D13*
X121920000Y-119634000D03*
D10*
G36*
X128755000Y-122584000D02*
X128755000Y-116684000D01*
X135405000Y-118984000D01*
X135405000Y-120284000D01*
X128755000Y-122584000D01*
X128755000Y-122584000D01*
G37*
G36*
X138097000Y-122690500D02*
X131397000Y-122690500D01*
X134097000Y-118990500D01*
X135397000Y-118990500D01*
X138097000Y-122690500D01*
X138097000Y-122690500D01*
G37*
D14*
X130365500Y-121920000D03*
D15*
X123888500Y-122174000D03*
X122555000Y-122174000D03*
D12*
X145796000Y-119634000D03*
D13*
X156210000Y-119634000D03*
D10*
G36*
X163045000Y-122584000D02*
X163045000Y-116684000D01*
X169695000Y-118984000D01*
X169695000Y-120284000D01*
X163045000Y-122584000D01*
X163045000Y-122584000D01*
G37*
G36*
X172387000Y-122690500D02*
X165687000Y-122690500D01*
X168387000Y-118990500D01*
X169687000Y-118990500D01*
X172387000Y-122690500D01*
X172387000Y-122690500D01*
G37*
D14*
X164655500Y-121920000D03*
D15*
X158178500Y-122174000D03*
X156845000Y-122174000D03*
D12*
X180086000Y-119634000D03*
D13*
X190500000Y-119634000D03*
D10*
G36*
X197335000Y-122584000D02*
X197335000Y-116684000D01*
X203985000Y-118984000D01*
X203985000Y-120284000D01*
X197335000Y-122584000D01*
X197335000Y-122584000D01*
G37*
G36*
X206677000Y-122690500D02*
X199977000Y-122690500D01*
X202677000Y-118990500D01*
X203977000Y-118990500D01*
X206677000Y-122690500D01*
X206677000Y-122690500D01*
G37*
D14*
X198945500Y-121920000D03*
D15*
X192468500Y-122174000D03*
X191135000Y-122174000D03*
D12*
X213106000Y-119634000D03*
D13*
X223520000Y-119634000D03*
D10*
G36*
X230355000Y-122584000D02*
X230355000Y-116684000D01*
X237005000Y-118984000D01*
X237005000Y-120284000D01*
X230355000Y-122584000D01*
X230355000Y-122584000D01*
G37*
G36*
X239697000Y-122690500D02*
X232997000Y-122690500D01*
X235697000Y-118990500D01*
X236997000Y-118990500D01*
X239697000Y-122690500D01*
X239697000Y-122690500D01*
G37*
D14*
X231965500Y-121920000D03*
D15*
X225488500Y-122174000D03*
X224155000Y-122174000D03*
D12*
X247396000Y-119634000D03*
D13*
X257810000Y-119634000D03*
D10*
G36*
X264645000Y-122584000D02*
X264645000Y-116684000D01*
X271295000Y-118984000D01*
X271295000Y-120284000D01*
X264645000Y-122584000D01*
X264645000Y-122584000D01*
G37*
G36*
X273987000Y-122690500D02*
X267287000Y-122690500D01*
X269987000Y-118990500D01*
X271287000Y-118990500D01*
X273987000Y-122690500D01*
X273987000Y-122690500D01*
G37*
D14*
X266255500Y-121920000D03*
D15*
X259778500Y-122174000D03*
X258445000Y-122174000D03*
D16*
X105515000Y-94645000D03*
X105515000Y-95895000D03*
X105515000Y-97145000D03*
X105515000Y-98395000D03*
D17*
X102765000Y-92145000D03*
X102765000Y-100895000D03*
M02*
