0
SECTION
2
HEADER
9
$ANGBASE
50
0.0
9
$ANGDIR
70
0
0
ENDSEC
0
SECTION
2
TABLES
0
TABLE
2
LTYPE
70
1
0
LTYPE
2
CONTINUOUS
70
0
3
Solid line
72
65
73
0
40
0.0
0
ENDTAB
0
TABLE
2
LAYER
70
24
0
LAYER
2
BLACK
70
0
62
1
6
CONTINUOUS
0
LAYER
2
BLUE
70
0
62
2
6
CONTINUOUS
0
LAYER
2
GREEN
70
0
62
3
6
CONTINUOUS
0
LAYER
2
CYAN
70
0
62
4
6
CONTINUOUS
0
LAYER
2
RED
70
0
62
5
6
CONTINUOUS
0
LAYER
2
MAGENTA
70
0
62
6
6
CONTINUOUS
0
LAYER
2
BROWN
70
0
62
7
6
CONTINUOUS
0
LAYER
2
GRAY
70
0
62
8
6
CONTINUOUS
0
LAYER
2
DARKGRAY
70
0
62
9
6
CONTINUOUS
0
LAYER
2
LIGHTBLUE
70
0
62
10
6
CONTINUOUS
0
LAYER
2
LIGHTGREEN
70
0
62
11
6
CONTINUOUS
0
LAYER
2
LIGHTCYAN
70
0
62
12
6
CONTINUOUS
0
LAYER
2
LIGHTRED
70
0
62
13
6
CONTINUOUS
0
LAYER
2
LIGHTMAGENTA
70
0
62
14
6
CONTINUOUS
0
LAYER
2
YELLOW
70
0
62
15
6
CONTINUOUS
0
LAYER
2
WHITE
70
0
62
16
6
CONTINUOUS
0
LAYER
2
DARKDARKGRAY
70
0
62
17
6
CONTINUOUS
0
LAYER
2
DARKBLUE
70
0
62
18
6
CONTINUOUS
0
LAYER
2
DARKGREEN
70
0
62
19
6
CONTINUOUS
0
LAYER
2
DARKCYAN
70
0
62
20
6
CONTINUOUS
0
LAYER
2
DARKRED
70
0
62
21
6
CONTINUOUS
0
LAYER
2
DARKMAGENTA
70
0
62
22
6
CONTINUOUS
0
LAYER
2
DARKBROWN
70
0
62
23
6
CONTINUOUS
0
LAYER
2
LIGHTYELLOW
70
0
62
24
6
CONTINUOUS
0
ENDTAB
0
ENDSEC
0
SECTION
2
ENTITIES
0
LINE
8
BLACK
10
51750.0
20
57213.0
11
51750.0
21
58009.0
0
LINE
8
BLACK
10
51712.0
20
57213.0
11
51712.0
21
58009.0
0
ARC
8
BLACK
10
51731.0
20
58009.0
40
19.0
50
360.0
51
540.0
0
ARC
8
BLACK
10
51731.0
20
57213.0
40
19.0
50
180.0
51
360.0
0
LINE
8
BLACK
10
27233.0
20
57990.0
11
51731.0
21
57990.0
0
LINE
8
BLACK
10
27233.0
20
58028.0
11
51731.0
21
58028.0
0
ARC
8
BLACK
10
51731.0
20
58009.0
40
19.0
50
270.0
51
450.0
0
ARC
8
BLACK
10
27233.0
20
58009.0
40
19.0
50
90.0
51
270.0
0
LINE
8
BLACK
10
27252.0
20
57223.0
11
27252.0
21
58009.0
0
LINE
8
BLACK
10
27214.0
20
57223.0
11
27214.0
21
58009.0
0
ARC
8
BLACK
10
27233.0
20
58009.0
40
19.0
50
360.0
51
540.0
0
ARC
8
BLACK
10
27233.0
20
57223.0
40
19.0
50
180.0
51
360.0
0
LINE
8
BLACK
10
51748.0
20
17459.0
11
51748.0
21
18245.0
0
LINE
8
BLACK
10
51710.0
20
17459.0
11
51710.0
21
18245.0
0
ARC
8
BLACK
10
51729.0
20
18245.0
40
19.0
50
360.0
51
540.0
0
ARC
8
BLACK
10
51729.0
20
17459.0
40
19.0
50
180.0
51
360.0
0
LINE
8
BLACK
10
27252.0
20
17459.0
11
27252.0
21
18245.0
0
LINE
8
BLACK
10
27214.0
20
17459.0
11
27214.0
21
18245.0
0
ARC
8
BLACK
10
27233.0
20
18245.0
40
19.0
50
360.0
51
540.0
0
ARC
8
BLACK
10
27233.0
20
17459.0
40
19.0
50
180.0
51
360.0
0
LINE
8
BLACK
10
27233.0
20
17439.0
11
51729.0
21
17439.0
0
LINE
8
BLACK
10
27233.0
20
17477.0
11
51729.0
21
17477.0
0
ARC
8
BLACK
10
51729.0
20
17458.0
40
19.0
50
270.0
51
450.0
0
ARC
8
BLACK
10
27233.0
20
17458.0
40
19.0
50
90.0
51
270.0
0
LINE
8
BLACK
10
30303.0
20
48364.0
11
30303.0
21
55056.0
0
LINE
8
BLACK
10
30265.0
20
48364.0
11
30265.0
21
55056.0
0
ARC
8
BLACK
10
30284.0
20
55056.0
40
19.0
50
360.0
51
540.0
0
ARC
8
BLACK
10
30284.0
20
48364.0
40
19.0
50
180.0
51
360.0
0
LINE
8
BLACK
10
52547.0
20
48364.0
11
52547.0
21
55056.0
0
LINE
8
BLACK
10
52509.0
20
48364.0
11
52509.0
21
55056.0
0
ARC
8
BLACK
10
52528.0
20
55056.0
40
19.0
50
360.0
51
540.0
0
ARC
8
BLACK
10
52528.0
20
48364.0
40
19.0
50
180.0
51
360.0
0
LINE
8
BLACK
10
30284.0
20
55037.0
11
52528.0
21
55037.0
0
LINE
8
BLACK
10
30284.0
20
55075.0
11
52528.0
21
55075.0
0
ARC
8
BLACK
10
52528.0
20
55056.0
40
19.0
50
270.0
51
450.0
0
ARC
8
BLACK
10
30284.0
20
55056.0
40
19.0
50
90.0
51
270.0
0
LINE
8
BLACK
10
30284.0
20
48344.0
11
52528.0
21
48344.0
0
LINE
8
BLACK
10
30284.0
20
48382.0
11
52528.0
21
48382.0
0
ARC
8
BLACK
10
52528.0
20
48363.0
40
19.0
50
270.0
51
450.0
0
ARC
8
BLACK
10
30284.0
20
48363.0
40
19.0
50
90.0
51
270.0
0
LINE
8
BLACK
10
23394.0
20
19951.0
11
27232.0
21
19951.0
0
LINE
8
BLACK
10
23394.0
20
19989.0
11
27232.0
21
19989.0
0
ARC
8
BLACK
10
27232.0
20
19970.0
40
19.0
50
270.0
51
450.0
0
ARC
8
BLACK
10
23394.0
20
19970.0
40
19.0
50
90.0
51
270.0
0
LINE
8
BLACK
10
27252.0
20
18246.0
11
27252.0
21
19970.0
0
LINE
8
BLACK
10
27214.0
20
18246.0
11
27214.0
21
19970.0
0
ARC
8
BLACK
10
27233.0
20
19970.0
40
19.0
50
360.0
51
540.0
0
ARC
8
BLACK
10
27233.0
20
18246.0
40
19.0
50
180.0
51
360.0
0
LINE
8
BLACK
10
51729.0
20
19951.0
11
55571.0
21
19951.0
0
LINE
8
BLACK
10
51729.0
20
19989.0
11
55571.0
21
19989.0
0
ARC
8
BLACK
10
55571.0
20
19970.0
40
19.0
50
270.0
51
450.0
0
ARC
8
BLACK
10
51729.0
20
19970.0
40
19.0
50
90.0
51
270.0
0
LINE
8
BLACK
10
51748.0
20
18246.0
11
51748.0
21
19970.0
0
LINE
8
BLACK
10
51710.0
20
18246.0
11
51710.0
21
19970.0
0
ARC
8
BLACK
10
51729.0
20
19970.0
40
19.0
50
360.0
51
540.0
0
ARC
8
BLACK
10
51729.0
20
18246.0
40
19.0
50
180.0
51
360.0
0
LINE
8
BLACK
10
51729.0
20
55474.0
11
55571.0
21
55474.0
0
LINE
8
BLACK
10
51729.0
20
55512.0
11
55571.0
21
55512.0
0
ARC
8
BLACK
10
55571.0
20
55493.0
40
19.0
50
270.0
51
450.0
0
ARC
8
BLACK
10
51729.0
20
55493.0
40
19.0
50
90.0
51
270.0
0
LINE
8
BLACK
10
51748.0
20
55494.0
11
51748.0
21
57218.0
0
LINE
8
BLACK
10
51710.0
20
55494.0
11
51710.0
21
57218.0
0
ARC
8
BLACK
10
51729.0
20
57218.0
40
19.0
50
360.0
51
540.0
0
ARC
8
BLACK
10
51729.0
20
55494.0
40
19.0
50
180.0
51
360.0
0
LINE
8
BLACK
10
23394.0
20
55474.0
11
27232.0
21
55474.0
0
LINE
8
BLACK
10
23394.0
20
55512.0
11
27232.0
21
55512.0
0
ARC
8
BLACK
10
27232.0
20
55493.0
40
19.0
50
270.0
51
450.0
0
ARC
8
BLACK
10
23394.0
20
55493.0
40
19.0
50
90.0
51
270.0
0
LINE
8
BLACK
10
27252.0
20
55494.0
11
27252.0
21
57218.0
0
LINE
8
BLACK
10
27214.0
20
55494.0
11
27214.0
21
57218.0
0
ARC
8
BLACK
10
27233.0
20
57218.0
40
19.0
50
360.0
51
540.0
0
ARC
8
BLACK
10
27233.0
20
55494.0
40
19.0
50
180.0
51
360.0
0
LINE
8
BLACK
10
51729.0
20
18226.0
11
55571.0
21
18226.0
0
LINE
8
BLACK
10
51729.0
20
18264.0
11
55571.0
21
18264.0
0
ARC
8
BLACK
10
55571.0
20
18245.0
40
19.0
50
270.0
51
450.0
0
ARC
8
BLACK
10
51729.0
20
18245.0
40
19.0
50
90.0
51
270.0
0
LINE
8
BLACK
10
55590.0
20
18246.0
11
55590.0
21
57218.0
0
LINE
8
BLACK
10
55552.0
20
18246.0
11
55552.0
21
57218.0
0
ARC
8
BLACK
10
55571.0
20
57218.0
40
19.0
50
360.0
51
540.0
0
ARC
8
BLACK
10
55571.0
20
18246.0
40
19.0
50
180.0
51
360.0
0
LINE
8
BLACK
10
51729.0
20
57199.0
11
55571.0
21
57199.0
0
LINE
8
BLACK
10
51729.0
20
57237.0
11
55571.0
21
57237.0
0
ARC
8
BLACK
10
55571.0
20
57218.0
40
19.0
50
270.0
51
450.0
0
ARC
8
BLACK
10
51729.0
20
57218.0
40
19.0
50
90.0
51
270.0
0
LINE
8
BLACK
10
23394.0
20
57199.0
11
27232.0
21
57199.0
0
LINE
8
BLACK
10
23394.0
20
57237.0
11
27232.0
21
57237.0
0
ARC
8
BLACK
10
27232.0
20
57218.0
40
19.0
50
270.0
51
450.0
0
ARC
8
BLACK
10
23394.0
20
57218.0
40
19.0
50
90.0
51
270.0
0
LINE
8
BLACK
10
23413.0
20
18246.0
11
23413.0
21
57218.0
0
LINE
8
BLACK
10
23375.0
20
18246.0
11
23375.0
21
57218.0
0
ARC
8
BLACK
10
23394.0
20
57218.0
40
19.0
50
360.0
51
540.0
0
ARC
8
BLACK
10
23394.0
20
18246.0
40
19.0
50
180.0
51
360.0
0
LINE
8
BLACK
10
23394.0
20
18226.0
11
27232.0
21
18226.0
0
LINE
8
BLACK
10
23394.0
20
18264.0
11
27232.0
21
18264.0
0
ARC
8
BLACK
10
27232.0
20
18245.0
40
19.0
50
270.0
51
450.0
0
ARC
8
BLACK
10
23394.0
20
18245.0
40
19.0
50
90.0
51
270.0
0
CIRCLE
8
BLACK
10
24654.0
20
28875.0
40
900
0
CIRCLE
8
BLACK
10
24654.0
20
22970.0
40
900
0
CIRCLE
8
BLACK
10
39481.0
20
20706.0
40
900
0
LINE
8
BLACK
10
38132.0
20
46029.0
11
26606.0
21
42149.0
0
LINE
8
BLACK
10
38180.0
20
45887.0
11
26654.0
21
42007.0
0
ARC
8
BLACK
10
26630.0
20
42078.0
40
75.0
50
108.0
51
288.0
0
ARC
8
BLACK
10
38156.0
20
45958.0
40
75.0
50
-71.0
51
108.0
0
LINE
8
BLACK
10
26569.0
20
42132.0
11
25562.0
21
40931.0
0
LINE
8
BLACK
10
26684.0
20
42035.0
11
25677.0
21
40834.0
0
ARC
8
BLACK
10
25619.0
20
40882.0
40
75.0
50
140.0
51
320.0
0
ARC
8
BLACK
10
26627.0
20
42084.0
40
75.0
50
-40.0
51
140.0
0
LINE
8
BLACK
10
38233.0
20
40883.0
11
38233.0
21
45953.0
0
LINE
8
BLACK
10
38083.0
20
40883.0
11
38083.0
21
45953.0
0
ARC
8
BLACK
10
38158.0
20
45953.0
40
75.0
50
360.0
51
540.0
0
ARC
8
BLACK
10
38158.0
20
40883.0
40
75.0
50
180.0
51
360.0
0
LINE
8
BLACK
10
25618.0
20
40808.0
11
38158.0
21
40808.0
0
LINE
8
BLACK
10
25618.0
20
40958.0
11
38158.0
21
40958.0
0
ARC
8
BLACK
10
38158.0
20
40883.0
40
75.0
50
270.0
51
450.0
0
ARC
8
BLACK
10
25618.0
20
40883.0
40
75.0
50
90.0
51
270.0
0
LINE
8
BLACK
10
25581.0
20
41653.0
11
37115.0
21
45512.0
0
LINE
8
BLACK
10
25533.0
20
41796.0
11
37067.0
21
45655.0
0
ARC
8
BLACK
10
37091.0
20
45584.0
40
75.0
50
288.0
51
468.0
0
ARC
8
BLACK
10
25557.0
20
41724.0
40
75.0
50
108.0
51
288.0
0
LINE
8
BLACK
10
37146.0
20
45541.0
11
38156.0
21
46740.0
0
LINE
8
BLACK
10
37032.0
20
45638.0
11
38042.0
21
46837.0
0
ARC
8
BLACK
10
38099.0
20
46789.0
40
75.0
50
319.0
51
499.0
0
ARC
8
BLACK
10
37089.0
20
45589.0
40
75.0
50
139.0
51
319.0
0
LINE
8
BLACK
10
25634.0
20
41719.0
11
25634.0
21
46789.0
0
LINE
8
BLACK
10
25484.0
20
41719.0
11
25484.0
21
46789.0
0
ARC
8
BLACK
10
25559.0
20
46789.0
40
75.0
50
360.0
51
540.0
0
ARC
8
BLACK
10
25559.0
20
41719.0
40
75.0
50
180.0
51
360.0
0
LINE
8
BLACK
10
25559.0
20
46714.0
11
38099.0
21
46714.0
0
LINE
8
BLACK
10
25559.0
20
46864.0
11
38099.0
21
46864.0
0
ARC
8
BLACK
10
38099.0
20
46789.0
40
75.0
50
270.0
51
450.0
0
ARC
8
BLACK
10
25559.0
20
46789.0
40
75.0
50
90.0
51
270.0
0
LINE
8
BLACK
10
54273.0
20
46029.0
11
42747.0
21
42149.0
0
LINE
8
BLACK
10
54321.0
20
45887.0
11
42795.0
21
42007.0
0
ARC
8
BLACK
10
42771.0
20
42078.0
40
75.0
50
108.0
51
288.0
0
ARC
8
BLACK
10
54297.0
20
45958.0
40
75.0
50
-71.0
51
108.0
0
LINE
8
BLACK
10
42710.0
20
42132.0
11
41703.0
21
40931.0
0
LINE
8
BLACK
10
42825.0
20
42035.0
11
41818.0
21
40834.0
0
ARC
8
BLACK
10
41760.0
20
40882.0
40
75.0
50
140.0
51
320.0
0
ARC
8
BLACK
10
42768.0
20
42084.0
40
75.0
50
-40.0
51
140.0
0
LINE
8
BLACK
10
54374.0
20
40883.0
11
54374.0
21
45953.0
0
LINE
8
BLACK
10
54224.0
20
40883.0
11
54224.0
21
45953.0
0
ARC
8
BLACK
10
54299.0
20
45953.0
40
75.0
50
360.0
51
540.0
0
ARC
8
BLACK
10
54299.0
20
40883.0
40
75.0
50
180.0
51
360.0
0
LINE
8
BLACK
10
41759.0
20
40808.0
11
54299.0
21
40808.0
0
LINE
8
BLACK
10
41759.0
20
40958.0
11
54299.0
21
40958.0
0
ARC
8
BLACK
10
54299.0
20
40883.0
40
75.0
50
270.0
51
450.0
0
ARC
8
BLACK
10
41759.0
20
40883.0
40
75.0
50
90.0
51
270.0
0
LINE
8
BLACK
10
41723.0
20
41653.0
11
53257.0
21
45512.0
0
LINE
8
BLACK
10
41675.0
20
41796.0
11
53209.0
21
45655.0
0
ARC
8
BLACK
10
53233.0
20
45584.0
40
75.0
50
288.0
51
468.0
0
ARC
8
BLACK
10
41699.0
20
41724.0
40
75.0
50
108.0
51
288.0
0
LINE
8
BLACK
10
53288.0
20
45541.0
11
54298.0
21
46740.0
0
LINE
8
BLACK
10
53174.0
20
45638.0
11
54184.0
21
46837.0
0
ARC
8
BLACK
10
54241.0
20
46789.0
40
75.0
50
319.0
51
499.0
0
ARC
8
BLACK
10
53231.0
20
45589.0
40
75.0
50
139.0
51
319.0
0
LINE
8
BLACK
10
41776.0
20
41719.0
11
41776.0
21
46789.0
0
LINE
8
BLACK
10
41626.0
20
41719.0
11
41626.0
21
46789.0
0
ARC
8
BLACK
10
41701.0
20
46789.0
40
75.0
50
360.0
51
540.0
0
ARC
8
BLACK
10
41701.0
20
41719.0
40
75.0
50
180.0
51
360.0
0
LINE
8
BLACK
10
41701.0
20
46714.0
11
54241.0
21
46714.0
0
LINE
8
BLACK
10
41701.0
20
46864.0
11
54241.0
21
46864.0
0
ARC
8
BLACK
10
54241.0
20
46789.0
40
75.0
50
270.0
51
450.0
0
ARC
8
BLACK
10
41701.0
20
46789.0
40
75.0
50
90.0
51
270.0
0
LINE
8
BLACK
10
38132.0
20
38745.0
11
26606.0
21
34865.0
0
LINE
8
BLACK
10
38180.0
20
38603.0
11
26654.0
21
34723.0
0
ARC
8
BLACK
10
26630.0
20
34794.0
40
75.0
50
108.0
51
288.0
0
ARC
8
BLACK
10
38156.0
20
38674.0
40
75.0
50
-71.0
51
108.0
0
LINE
8
BLACK
10
26569.0
20
34848.0
11
25562.0
21
33647.0
0
LINE
8
BLACK
10
26684.0
20
34751.0
11
25677.0
21
33550.0
0
ARC
8
BLACK
10
25619.0
20
33598.0
40
75.0
50
140.0
51
320.0
0
ARC
8
BLACK
10
26627.0
20
34800.0
40
75.0
50
-40.0
51
140.0
0
LINE
8
BLACK
10
38233.0
20
33599.0
11
38233.0
21
38669.0
0
LINE
8
BLACK
10
38083.0
20
33599.0
11
38083.0
21
38669.0
0
ARC
8
BLACK
10
38158.0
20
38669.0
40
75.0
50
360.0
51
540.0
0
ARC
8
BLACK
10
38158.0
20
33599.0
40
75.0
50
180.0
51
360.0
0
LINE
8
BLACK
10
25618.0
20
33524.0
11
38158.0
21
33524.0
0
LINE
8
BLACK
10
25618.0
20
33674.0
11
38158.0
21
33674.0
0
ARC
8
BLACK
10
38158.0
20
33599.0
40
75.0
50
270.0
51
450.0
0
ARC
8
BLACK
10
25618.0
20
33599.0
40
75.0
50
90.0
51
270.0
0
LINE
8
BLACK
10
25582.0
20
34369.0
11
37116.0
21
38228.0
0
LINE
8
BLACK
10
25534.0
20
34512.0
11
37068.0
21
38371.0
0
ARC
8
BLACK
10
37092.0
20
38300.0
40
75.0
50
288.0
51
468.0
0
ARC
8
BLACK
10
25558.0
20
34440.0
40
75.0
50
108.0
51
288.0
0
LINE
8
BLACK
10
37147.0
20
38257.0
11
38157.0
21
39456.0
0
LINE
8
BLACK
10
37033.0
20
38354.0
11
38043.0
21
39553.0
0
ARC
8
BLACK
10
38100.0
20
39505.0
40
75.0
50
319.0
51
499.0
0
ARC
8
BLACK
10
37090.0
20
38305.0
40
75.0
50
139.0
51
319.0
0
LINE
8
BLACK
10
25635.0
20
34435.0
11
25635.0
21
39505.0
0
LINE
8
BLACK
10
25485.0
20
34435.0
11
25485.0
21
39505.0
0
ARC
8
BLACK
10
25560.0
20
39505.0
40
75.0
50
360.0
51
540.0
0
ARC
8
BLACK
10
25560.0
20
34435.0
40
75.0
50
180.0
51
360.0
0
LINE
8
BLACK
10
25560.0
20
39430.0
11
38100.0
21
39430.0
0
LINE
8
BLACK
10
25560.0
20
39580.0
11
38100.0
21
39580.0
0
ARC
8
BLACK
10
38100.0
20
39505.0
40
75.0
50
270.0
51
450.0
0
ARC
8
BLACK
10
25560.0
20
39505.0
40
75.0
50
90.0
51
270.0
0
LINE
8
BLACK
10
54274.0
20
38746.0
11
42748.0
21
34866.0
0
LINE
8
BLACK
10
54322.0
20
38604.0
11
42796.0
21
34724.0
0
ARC
8
BLACK
10
42772.0
20
34795.0
40
75.0
50
108.0
51
288.0
0
ARC
8
BLACK
10
54298.0
20
38675.0
40
75.0
50
-71.0
51
108.0
0
LINE
8
BLACK
10
42711.0
20
34849.0
11
41704.0
21
33648.0
0
LINE
8
BLACK
10
42826.0
20
34752.0
11
41819.0
21
33551.0
0
ARC
8
BLACK
10
41761.0
20
33599.0
40
75.0
50
140.0
51
320.0
0
ARC
8
BLACK
10
42769.0
20
34801.0
40
75.0
50
-40.0
51
140.0
0
LINE
8
BLACK
10
54375.0
20
33600.0
11
54375.0
21
38670.0
0
LINE
8
BLACK
10
54225.0
20
33600.0
11
54225.0
21
38670.0
0
ARC
8
BLACK
10
54300.0
20
38670.0
40
75.0
50
360.0
51
540.0
0
ARC
8
BLACK
10
54300.0
20
33600.0
40
75.0
50
180.0
51
360.0
0
LINE
8
BLACK
10
41760.0
20
33525.0
11
54300.0
21
33525.0
0
LINE
8
BLACK
10
41760.0
20
33675.0
11
54300.0
21
33675.0
0
ARC
8
BLACK
10
54300.0
20
33600.0
40
75.0
50
270.0
51
450.0
0
ARC
8
BLACK
10
41760.0
20
33600.0
40
75.0
50
90.0
51
270.0
0
LINE
8
BLACK
10
41723.0
20
34370.0
11
53257.0
21
38229.0
0
LINE
8
BLACK
10
41675.0
20
34513.0
11
53209.0
21
38372.0
0
ARC
8
BLACK
10
53233.0
20
38301.0
40
75.0
50
288.0
51
468.0
0
ARC
8
BLACK
10
41699.0
20
34441.0
40
75.0
50
108.0
51
288.0
0
LINE
8
BLACK
10
53288.0
20
38258.0
11
54298.0
21
39457.0
0
LINE
8
BLACK
10
53174.0
20
38355.0
11
54184.0
21
39554.0
0
ARC
8
BLACK
10
54241.0
20
39506.0
40
75.0
50
319.0
51
499.0
0
ARC
8
BLACK
10
53231.0
20
38306.0
40
75.0
50
139.0
51
319.0
0
LINE
8
BLACK
10
41776.0
20
34436.0
11
41776.0
21
39506.0
0
LINE
8
BLACK
10
41626.0
20
34436.0
11
41626.0
21
39506.0
0
ARC
8
BLACK
10
41701.0
20
39506.0
40
75.0
50
360.0
51
540.0
0
ARC
8
BLACK
10
41701.0
20
34436.0
40
75.0
50
180.0
51
360.0
0
LINE
8
BLACK
10
41701.0
20
39431.0
11
54241.0
21
39431.0
0
LINE
8
BLACK
10
41701.0
20
39581.0
11
54241.0
21
39581.0
0
ARC
8
BLACK
10
54241.0
20
39506.0
40
75.0
50
270.0
51
450.0
0
ARC
8
BLACK
10
41701.0
20
39506.0
40
75.0
50
90.0
51
270.0
0
LINE
8
BLACK
10
38131.0
20
31462.0
11
26605.0
21
27582.0
0
LINE
8
BLACK
10
38179.0
20
31320.0
11
26653.0
21
27440.0
0
ARC
8
BLACK
10
26629.0
20
27511.0
40
75.0
50
108.0
51
288.0
0
ARC
8
BLACK
10
38155.0
20
31391.0
40
75.0
50
-71.0
51
108.0
0
LINE
8
BLACK
10
26568.0
20
27565.0
11
25561.0
21
26364.0
0
LINE
8
BLACK
10
26683.0
20
27468.0
11
25676.0
21
26267.0
0
ARC
8
BLACK
10
25618.0
20
26315.0
40
75.0
50
140.0
51
320.0
0
ARC
8
BLACK
10
26626.0
20
27517.0
40
75.0
50
-40.0
51
140.0
0
LINE
8
BLACK
10
38232.0
20
26316.0
11
38232.0
21
31386.0
0
LINE
8
BLACK
10
38082.0
20
26316.0
11
38082.0
21
31386.0
0
ARC
8
BLACK
10
38157.0
20
31386.0
40
75.0
50
360.0
51
540.0
0
ARC
8
BLACK
10
38157.0
20
26316.0
40
75.0
50
180.0
51
360.0
0
LINE
8
BLACK
10
25617.0
20
26241.0
11
38157.0
21
26241.0
0
LINE
8
BLACK
10
25617.0
20
26391.0
11
38157.0
21
26391.0
0
ARC
8
BLACK
10
38157.0
20
26316.0
40
75.0
50
270.0
51
450.0
0
ARC
8
BLACK
10
25617.0
20
26316.0
40
75.0
50
90.0
51
270.0
0
LINE
8
BLACK
10
25581.0
20
27086.0
11
37115.0
21
30945.0
0
LINE
8
BLACK
10
25533.0
20
27229.0
11
37067.0
21
31088.0
0
ARC
8
BLACK
10
37091.0
20
31017.0
40
75.0
50
288.0
51
468.0
0
ARC
8
BLACK
10
25557.0
20
27157.0
40
75.0
50
108.0
51
288.0
0
LINE
8
BLACK
10
37146.0
20
30974.0
11
38156.0
21
32173.0
0
LINE
8
BLACK
10
37032.0
20
31071.0
11
38042.0
21
32270.0
0
ARC
8
BLACK
10
38099.0
20
32222.0
40
75.0
50
319.0
51
499.0
0
ARC
8
BLACK
10
37089.0
20
31022.0
40
75.0
50
139.0
51
319.0
0
LINE
8
BLACK
10
25634.0
20
27152.0
11
25634.0
21
32222.0
0
LINE
8
BLACK
10
25484.0
20
27152.0
11
25484.0
21
32222.0
0
ARC
8
BLACK
10
25559.0
20
32222.0
40
75.0
50
360.0
51
540.0
0
ARC
8
BLACK
10
25559.0
20
27152.0
40
75.0
50
180.0
51
360.0
0
LINE
8
BLACK
10
25559.0
20
32147.0
11
38099.0
21
32147.0
0
LINE
8
BLACK
10
25559.0
20
32297.0
11
38099.0
21
32297.0
0
ARC
8
BLACK
10
38099.0
20
32222.0
40
75.0
50
270.0
51
450.0
0
ARC
8
BLACK
10
25559.0
20
32222.0
40
75.0
50
90.0
51
270.0
0
LINE
8
BLACK
10
54274.0
20
31462.0
11
42748.0
21
27582.0
0
LINE
8
BLACK
10
54322.0
20
31320.0
11
42796.0
21
27440.0
0
ARC
8
BLACK
10
42772.0
20
27511.0
40
75.0
50
108.0
51
288.0
0
ARC
8
BLACK
10
54298.0
20
31391.0
40
75.0
50
-71.0
51
108.0
0
LINE
8
BLACK
10
42711.0
20
27565.0
11
41704.0
21
26364.0
0
LINE
8
BLACK
10
42826.0
20
27468.0
11
41819.0
21
26267.0
0
ARC
8
BLACK
10
41761.0
20
26315.0
40
75.0
50
140.0
51
320.0
0
ARC
8
BLACK
10
42769.0
20
27517.0
40
75.0
50
-40.0
51
140.0
0
LINE
8
BLACK
10
54375.0
20
26316.0
11
54375.0
21
31386.0
0
LINE
8
BLACK
10
54225.0
20
26316.0
11
54225.0
21
31386.0
0
ARC
8
BLACK
10
54300.0
20
31386.0
40
75.0
50
360.0
51
540.0
0
ARC
8
BLACK
10
54300.0
20
26316.0
40
75.0
50
180.0
51
360.0
0
LINE
8
BLACK
10
41760.0
20
26241.0
11
54300.0
21
26241.0
0
LINE
8
BLACK
10
41760.0
20
26391.0
11
54300.0
21
26391.0
0
ARC
8
BLACK
10
54300.0
20
26316.0
40
75.0
50
270.0
51
450.0
0
ARC
8
BLACK
10
41760.0
20
26316.0
40
75.0
50
90.0
51
270.0
0
LINE
8
BLACK
10
41723.0
20
27085.0
11
53257.0
21
30944.0
0
LINE
8
BLACK
10
41675.0
20
27228.0
11
53209.0
21
31087.0
0
ARC
8
BLACK
10
53233.0
20
31016.0
40
75.0
50
288.0
51
468.0
0
ARC
8
BLACK
10
41699.0
20
27156.0
40
75.0
50
108.0
51
288.0
0
LINE
8
BLACK
10
53288.0
20
30973.0
11
54298.0
21
32172.0
0
LINE
8
BLACK
10
53174.0
20
31070.0
11
54184.0
21
32269.0
0
ARC
8
BLACK
10
54241.0
20
32221.0
40
75.0
50
319.0
51
499.0
0
ARC
8
BLACK
10
53231.0
20
31021.0
40
75.0
50
139.0
51
319.0
0
LINE
8
BLACK
10
41776.0
20
27151.0
11
41776.0
21
32221.0
0
LINE
8
BLACK
10
41626.0
20
27151.0
11
41626.0
21
32221.0
0
ARC
8
BLACK
10
41701.0
20
32221.0
40
75.0
50
360.0
51
540.0
0
ARC
8
BLACK
10
41701.0
20
27151.0
40
75.0
50
180.0
51
360.0
0
LINE
8
BLACK
10
41701.0
20
32146.0
11
54241.0
21
32146.0
0
LINE
8
BLACK
10
41701.0
20
32296.0
11
54241.0
21
32296.0
0
ARC
8
BLACK
10
54241.0
20
32221.0
40
75.0
50
270.0
51
450.0
0
ARC
8
BLACK
10
41701.0
20
32221.0
40
75.0
50
90.0
51
270.0
0
ENDSEC
0
EOF
