G04 #@! TF.GenerationSoftware,KiCad,Pcbnew,(6.0.4-0)*
G04 #@! TF.CreationDate,2022-09-21T16:46:56-05:00*
G04 #@! TF.ProjectId,Y+,592b2e6b-6963-4616-945f-706362585858,4*
G04 #@! TF.SameCoordinates,Original*
G04 #@! TF.FileFunction,Copper,L2,Bot*
G04 #@! TF.FilePolarity,Positive*
%FSLAX46Y46*%
G04 Gerber Fmt 4.6, Leading zero omitted, Abs format (unit mm)*
G04 Created by KiCad (PCBNEW (6.0.4-0)) date 2022-09-21 16:46:56*
%MOMM*%
%LPD*%
G01*
G04 APERTURE LIST*
G04 Aperture macros list*
%AMRoundRect*
0 Rectangle with rounded corners*
0 $1 Rounding radius*
0 $2 $3 $4 $5 $6 $7 $8 $9 X,Y pos of 4 corners*
0 Add a 4 corners polygon primitive as box body*
4,1,4,$2,$3,$4,$5,$6,$7,$8,$9,$2,$3,0*
0 Add four circle primitives for the rounded corners*
1,1,$1+$1,$2,$3*
1,1,$1+$1,$4,$5*
1,1,$1+$1,$6,$7*
1,1,$1+$1,$8,$9*
0 Add four rect primitives between the rounded corners*
20,1,$1+$1,$2,$3,$4,$5,0*
20,1,$1+$1,$4,$5,$6,$7,0*
20,1,$1+$1,$6,$7,$8,$9,0*
20,1,$1+$1,$8,$9,$2,$3,0*%
G04 Aperture macros list end*
G04 #@! TA.AperFunction,SMDPad,CuDef*
%ADD10RoundRect,0.200000X0.450000X-0.200000X0.450000X0.200000X-0.450000X0.200000X-0.450000X-0.200000X0*%
G04 #@! TD*
G04 #@! TA.AperFunction,SMDPad,CuDef*
%ADD11RoundRect,0.250000X1.250000X-0.800000X1.250000X0.800000X-1.250000X0.800000X-1.250000X-0.800000X0*%
G04 #@! TD*
G04 #@! TA.AperFunction,ViaPad*
%ADD12C,0.800000*%
G04 #@! TD*
G04 #@! TA.AperFunction,Conductor*
%ADD13C,0.250000*%
G04 #@! TD*
G04 APERTURE END LIST*
D10*
X167550000Y-231675000D03*
X167550000Y-230425000D03*
X167550000Y-229175000D03*
X167550000Y-227925000D03*
D11*
X164800000Y-225375000D03*
X164800000Y-234225000D03*
D10*
X167610000Y-219225000D03*
X167610000Y-217975000D03*
D11*
X164860000Y-221775000D03*
X164860000Y-215425000D03*
D12*
X148500000Y-225600000D03*
X197600000Y-222400000D03*
X170800000Y-225400000D03*
X172700000Y-218500000D03*
X172720000Y-220980000D03*
D13*
X167550000Y-227925000D02*
X167550000Y-229175000D01*
X168275000Y-227925000D02*
X170800000Y-225400000D01*
X167550000Y-227925000D02*
X168275000Y-227925000D01*
X172720000Y-218440000D02*
X168910000Y-218440000D01*
X168910000Y-218440000D02*
X168445000Y-217975000D01*
X168445000Y-217975000D02*
X167610000Y-217975000D01*
X170965000Y-219225000D02*
X167610000Y-219225000D01*
X172720000Y-220980000D02*
X170965000Y-219225000D01*
G04 #@! TA.AperFunction,Conductor*
G36*
X135683621Y-186075002D02*
G01*
X135730114Y-186128658D01*
X135741500Y-186181000D01*
X135741500Y-191291377D01*
X135741498Y-191292147D01*
X135741024Y-191369721D01*
X135743491Y-191378352D01*
X135749150Y-191398153D01*
X135752728Y-191414915D01*
X135756920Y-191444187D01*
X135760634Y-191452355D01*
X135760634Y-191452356D01*
X135767548Y-191467562D01*
X135773996Y-191485086D01*
X135781051Y-191509771D01*
X135785843Y-191517365D01*
X135785844Y-191517368D01*
X135796830Y-191534780D01*
X135804969Y-191549863D01*
X135817208Y-191576782D01*
X135823069Y-191583584D01*
X135833970Y-191596235D01*
X135845073Y-191611239D01*
X135858776Y-191632958D01*
X135865501Y-191638897D01*
X135865504Y-191638901D01*
X135880938Y-191652532D01*
X135892982Y-191664724D01*
X135906427Y-191680327D01*
X135906430Y-191680329D01*
X135912287Y-191687127D01*
X135919816Y-191692007D01*
X135919817Y-191692008D01*
X135933835Y-191701094D01*
X135948709Y-191712385D01*
X135961217Y-191723431D01*
X135967951Y-191729378D01*
X135994711Y-191741942D01*
X136009691Y-191750263D01*
X136026983Y-191761471D01*
X136026988Y-191761473D01*
X136034515Y-191766352D01*
X136043108Y-191768922D01*
X136043113Y-191768924D01*
X136059120Y-191773711D01*
X136076564Y-191780372D01*
X136091676Y-191787467D01*
X136091678Y-191787468D01*
X136099800Y-191791281D01*
X136108667Y-191792662D01*
X136108668Y-191792662D01*
X136111353Y-191793080D01*
X136129017Y-191795830D01*
X136145732Y-191799613D01*
X136165466Y-191805515D01*
X136165472Y-191805516D01*
X136174066Y-191808086D01*
X136183037Y-191808141D01*
X136183038Y-191808141D01*
X136193097Y-191808202D01*
X136208506Y-191808296D01*
X136209289Y-191808329D01*
X136210386Y-191808500D01*
X136241377Y-191808500D01*
X136242147Y-191808502D01*
X136315785Y-191808952D01*
X136315786Y-191808952D01*
X136319721Y-191808976D01*
X136321065Y-191808592D01*
X136322410Y-191808500D01*
X147241377Y-191808500D01*
X147242148Y-191808502D01*
X147319721Y-191808976D01*
X147348152Y-191800850D01*
X147364915Y-191797272D01*
X147365753Y-191797152D01*
X147394187Y-191793080D01*
X147417564Y-191782451D01*
X147435087Y-191776004D01*
X147459771Y-191768949D01*
X147467365Y-191764157D01*
X147467368Y-191764156D01*
X147484780Y-191753170D01*
X147499865Y-191745030D01*
X147526782Y-191732792D01*
X147546235Y-191716030D01*
X147561239Y-191704927D01*
X147582958Y-191691224D01*
X147588897Y-191684499D01*
X147588901Y-191684496D01*
X147602532Y-191669062D01*
X147614724Y-191657018D01*
X147630327Y-191643573D01*
X147630329Y-191643570D01*
X147637127Y-191637713D01*
X147651094Y-191616165D01*
X147662385Y-191601291D01*
X147673431Y-191588783D01*
X147673432Y-191588782D01*
X147679378Y-191582049D01*
X147691943Y-191555287D01*
X147700263Y-191540309D01*
X147711471Y-191523017D01*
X147711473Y-191523012D01*
X147716352Y-191515485D01*
X147718922Y-191506892D01*
X147718924Y-191506887D01*
X147723711Y-191490880D01*
X147730372Y-191473436D01*
X147737467Y-191458324D01*
X147737468Y-191458322D01*
X147741281Y-191450200D01*
X147745830Y-191420983D01*
X147749613Y-191404268D01*
X147755515Y-191384534D01*
X147755516Y-191384528D01*
X147758086Y-191375934D01*
X147758296Y-191341494D01*
X147758329Y-191340711D01*
X147758500Y-191339614D01*
X147758500Y-191308623D01*
X147758502Y-191307853D01*
X147758952Y-191234215D01*
X147758952Y-191234214D01*
X147758976Y-191230279D01*
X147758592Y-191228935D01*
X147758500Y-191227590D01*
X147758500Y-189550000D01*
X194196693Y-189550000D01*
X194215885Y-189769371D01*
X194272880Y-189982076D01*
X194298832Y-190037731D01*
X194363618Y-190176666D01*
X194363621Y-190176671D01*
X194365944Y-190181653D01*
X194369100Y-190186160D01*
X194369101Y-190186162D01*
X194401470Y-190232389D01*
X194492251Y-190362038D01*
X194647962Y-190517749D01*
X194828346Y-190644056D01*
X195027924Y-190737120D01*
X195240629Y-190794115D01*
X195460000Y-190813307D01*
X195679371Y-190794115D01*
X195892076Y-190737120D01*
X196091654Y-190644056D01*
X196272038Y-190517749D01*
X196427749Y-190362038D01*
X196518531Y-190232389D01*
X196550899Y-190186162D01*
X196550900Y-190186160D01*
X196554056Y-190181653D01*
X196556379Y-190176671D01*
X196556382Y-190176666D01*
X196621168Y-190037731D01*
X196647120Y-189982076D01*
X196704115Y-189769371D01*
X196723307Y-189550000D01*
X337046693Y-189550000D01*
X337065885Y-189769371D01*
X337122880Y-189982076D01*
X337148832Y-190037731D01*
X337213618Y-190176666D01*
X337213621Y-190176671D01*
X337215944Y-190181653D01*
X337219100Y-190186160D01*
X337219101Y-190186162D01*
X337251470Y-190232389D01*
X337342251Y-190362038D01*
X337497962Y-190517749D01*
X337678346Y-190644056D01*
X337877924Y-190737120D01*
X338090629Y-190794115D01*
X338310000Y-190813307D01*
X338529371Y-190794115D01*
X338742076Y-190737120D01*
X338941654Y-190644056D01*
X339122038Y-190517749D01*
X339277749Y-190362038D01*
X339368531Y-190232389D01*
X339400899Y-190186162D01*
X339400900Y-190186160D01*
X339404056Y-190181653D01*
X339406379Y-190176671D01*
X339406382Y-190176666D01*
X339471168Y-190037731D01*
X339497120Y-189982076D01*
X339554115Y-189769371D01*
X339573307Y-189550000D01*
X449096835Y-189550000D01*
X449115465Y-189786711D01*
X449116619Y-189791518D01*
X449116620Y-189791524D01*
X449146601Y-189916401D01*
X449170895Y-190017594D01*
X449172788Y-190022165D01*
X449172789Y-190022167D01*
X449240718Y-190186162D01*
X449261760Y-190236963D01*
X449264346Y-190241183D01*
X449383241Y-190435202D01*
X449383245Y-190435208D01*
X449385824Y-190439416D01*
X449540031Y-190619969D01*
X449720584Y-190774176D01*
X449724792Y-190776755D01*
X449724798Y-190776759D01*
X449918817Y-190895654D01*
X449923037Y-190898240D01*
X449927607Y-190900133D01*
X449927611Y-190900135D01*
X450137833Y-190987211D01*
X450142406Y-190989105D01*
X450222609Y-191008360D01*
X450368476Y-191043380D01*
X450368482Y-191043381D01*
X450373289Y-191044535D01*
X450610000Y-191063165D01*
X450846711Y-191044535D01*
X450851518Y-191043381D01*
X450851524Y-191043380D01*
X450997391Y-191008360D01*
X451077594Y-190989105D01*
X451082167Y-190987211D01*
X451292389Y-190900135D01*
X451292393Y-190900133D01*
X451296963Y-190898240D01*
X451301183Y-190895654D01*
X451495202Y-190776759D01*
X451495208Y-190776755D01*
X451499416Y-190774176D01*
X451679969Y-190619969D01*
X451834176Y-190439416D01*
X451836755Y-190435208D01*
X451836759Y-190435202D01*
X451955654Y-190241183D01*
X451958240Y-190236963D01*
X451979283Y-190186162D01*
X452047211Y-190022167D01*
X452047212Y-190022165D01*
X452049105Y-190017594D01*
X452073399Y-189916401D01*
X452103380Y-189791524D01*
X452103381Y-189791518D01*
X452104535Y-189786711D01*
X452123165Y-189550000D01*
X452104535Y-189313289D01*
X452096581Y-189280155D01*
X452050260Y-189087218D01*
X452049105Y-189082406D01*
X451981150Y-188918347D01*
X451960135Y-188867611D01*
X451960133Y-188867607D01*
X451958240Y-188863037D01*
X451881594Y-188737962D01*
X451836759Y-188664798D01*
X451836755Y-188664792D01*
X451834176Y-188660584D01*
X451679969Y-188480031D01*
X451499416Y-188325824D01*
X451495208Y-188323245D01*
X451495202Y-188323241D01*
X451301183Y-188204346D01*
X451296963Y-188201760D01*
X451292393Y-188199867D01*
X451292389Y-188199865D01*
X451082167Y-188112789D01*
X451082165Y-188112788D01*
X451077594Y-188110895D01*
X450997391Y-188091640D01*
X450851524Y-188056620D01*
X450851518Y-188056619D01*
X450846711Y-188055465D01*
X450610000Y-188036835D01*
X450373289Y-188055465D01*
X450368482Y-188056619D01*
X450368476Y-188056620D01*
X450222609Y-188091640D01*
X450142406Y-188110895D01*
X450137835Y-188112788D01*
X450137833Y-188112789D01*
X449927611Y-188199865D01*
X449927607Y-188199867D01*
X449923037Y-188201760D01*
X449918817Y-188204346D01*
X449724798Y-188323241D01*
X449724792Y-188323245D01*
X449720584Y-188325824D01*
X449540031Y-188480031D01*
X449385824Y-188660584D01*
X449383245Y-188664792D01*
X449383241Y-188664798D01*
X449338406Y-188737962D01*
X449261760Y-188863037D01*
X449259867Y-188867607D01*
X449259865Y-188867611D01*
X449238850Y-188918347D01*
X449170895Y-189082406D01*
X449169740Y-189087218D01*
X449123420Y-189280155D01*
X449115465Y-189313289D01*
X449097308Y-189543995D01*
X449096835Y-189550000D01*
X339573307Y-189550000D01*
X339554115Y-189330629D01*
X339497120Y-189117924D01*
X339453585Y-189024562D01*
X339406382Y-188923334D01*
X339406379Y-188923329D01*
X339404056Y-188918347D01*
X339400899Y-188913838D01*
X339280908Y-188742473D01*
X339280906Y-188742470D01*
X339277749Y-188737962D01*
X339122038Y-188582251D01*
X338941654Y-188455944D01*
X338742076Y-188362880D01*
X338529371Y-188305885D01*
X338310000Y-188286693D01*
X338090629Y-188305885D01*
X337877924Y-188362880D01*
X337784562Y-188406415D01*
X337683334Y-188453618D01*
X337683329Y-188453621D01*
X337678347Y-188455944D01*
X337673840Y-188459100D01*
X337673838Y-188459101D01*
X337502473Y-188579092D01*
X337502470Y-188579094D01*
X337497962Y-188582251D01*
X337342251Y-188737962D01*
X337339094Y-188742470D01*
X337339092Y-188742473D01*
X337219101Y-188913838D01*
X337215944Y-188918347D01*
X337213621Y-188923329D01*
X337213618Y-188923334D01*
X337166415Y-189024562D01*
X337122880Y-189117924D01*
X337065885Y-189330629D01*
X337046693Y-189550000D01*
X196723307Y-189550000D01*
X196704115Y-189330629D01*
X196647120Y-189117924D01*
X196603585Y-189024562D01*
X196556382Y-188923334D01*
X196556379Y-188923329D01*
X196554056Y-188918347D01*
X196550899Y-188913838D01*
X196430908Y-188742473D01*
X196430906Y-188742470D01*
X196427749Y-188737962D01*
X196272038Y-188582251D01*
X196091654Y-188455944D01*
X195892076Y-188362880D01*
X195679371Y-188305885D01*
X195460000Y-188286693D01*
X195240629Y-188305885D01*
X195027924Y-188362880D01*
X194934562Y-188406415D01*
X194833334Y-188453618D01*
X194833329Y-188453621D01*
X194828347Y-188455944D01*
X194823840Y-188459100D01*
X194823838Y-188459101D01*
X194652473Y-188579092D01*
X194652470Y-188579094D01*
X194647962Y-188582251D01*
X194492251Y-188737962D01*
X194489094Y-188742470D01*
X194489092Y-188742473D01*
X194369101Y-188913838D01*
X194365944Y-188918347D01*
X194363621Y-188923329D01*
X194363618Y-188923334D01*
X194316415Y-189024562D01*
X194272880Y-189117924D01*
X194215885Y-189330629D01*
X194196693Y-189550000D01*
X147758500Y-189550000D01*
X147758500Y-186181000D01*
X147778502Y-186112879D01*
X147832158Y-186066386D01*
X147884500Y-186055000D01*
X453125500Y-186055000D01*
X453193621Y-186075002D01*
X453240114Y-186128658D01*
X453251500Y-186181000D01*
X453251500Y-267209000D01*
X453231498Y-267277121D01*
X453177842Y-267323614D01*
X453125500Y-267335000D01*
X127126000Y-267335000D01*
X127057879Y-267314998D01*
X127011386Y-267261342D01*
X127000000Y-267209000D01*
X127000000Y-264050000D01*
X127946835Y-264050000D01*
X127965465Y-264286711D01*
X127966619Y-264291518D01*
X127966620Y-264291524D01*
X127996601Y-264416401D01*
X128020895Y-264517594D01*
X128022788Y-264522165D01*
X128022789Y-264522167D01*
X128090718Y-264686162D01*
X128111760Y-264736963D01*
X128114346Y-264741183D01*
X128233241Y-264935202D01*
X128233245Y-264935208D01*
X128235824Y-264939416D01*
X128390031Y-265119969D01*
X128570584Y-265274176D01*
X128574792Y-265276755D01*
X128574798Y-265276759D01*
X128768817Y-265395654D01*
X128773037Y-265398240D01*
X128777607Y-265400133D01*
X128777611Y-265400135D01*
X128987833Y-265487211D01*
X128992406Y-265489105D01*
X129072609Y-265508360D01*
X129218476Y-265543380D01*
X129218482Y-265543381D01*
X129223289Y-265544535D01*
X129460000Y-265563165D01*
X129696711Y-265544535D01*
X129701518Y-265543381D01*
X129701524Y-265543380D01*
X129847391Y-265508360D01*
X129927594Y-265489105D01*
X129932167Y-265487211D01*
X130142389Y-265400135D01*
X130142393Y-265400133D01*
X130146963Y-265398240D01*
X130151183Y-265395654D01*
X130345202Y-265276759D01*
X130345208Y-265276755D01*
X130349416Y-265274176D01*
X130529969Y-265119969D01*
X130684176Y-264939416D01*
X130686755Y-264935208D01*
X130686759Y-264935202D01*
X130805654Y-264741183D01*
X130808240Y-264736963D01*
X130829283Y-264686162D01*
X130897211Y-264522167D01*
X130897212Y-264522165D01*
X130899105Y-264517594D01*
X130923399Y-264416401D01*
X130953380Y-264291524D01*
X130953381Y-264291518D01*
X130954535Y-264286711D01*
X130973165Y-264050000D01*
X194196693Y-264050000D01*
X194215885Y-264269371D01*
X194272880Y-264482076D01*
X194298832Y-264537731D01*
X194363618Y-264676666D01*
X194363621Y-264676671D01*
X194365944Y-264681653D01*
X194369100Y-264686160D01*
X194369101Y-264686162D01*
X194401470Y-264732389D01*
X194492251Y-264862038D01*
X194647962Y-265017749D01*
X194828346Y-265144056D01*
X195027924Y-265237120D01*
X195240629Y-265294115D01*
X195460000Y-265313307D01*
X195679371Y-265294115D01*
X195892076Y-265237120D01*
X196091654Y-265144056D01*
X196272038Y-265017749D01*
X196427749Y-264862038D01*
X196518531Y-264732389D01*
X196550899Y-264686162D01*
X196550900Y-264686160D01*
X196554056Y-264681653D01*
X196556379Y-264676671D01*
X196556382Y-264676666D01*
X196621168Y-264537731D01*
X196647120Y-264482076D01*
X196704115Y-264269371D01*
X196723307Y-264050000D01*
X337046693Y-264050000D01*
X337065885Y-264269371D01*
X337122880Y-264482076D01*
X337148832Y-264537731D01*
X337213618Y-264676666D01*
X337213621Y-264676671D01*
X337215944Y-264681653D01*
X337219100Y-264686160D01*
X337219101Y-264686162D01*
X337251470Y-264732389D01*
X337342251Y-264862038D01*
X337497962Y-265017749D01*
X337678346Y-265144056D01*
X337877924Y-265237120D01*
X338090629Y-265294115D01*
X338310000Y-265313307D01*
X338529371Y-265294115D01*
X338742076Y-265237120D01*
X338941654Y-265144056D01*
X339122038Y-265017749D01*
X339277749Y-264862038D01*
X339368531Y-264732389D01*
X339400899Y-264686162D01*
X339400900Y-264686160D01*
X339404056Y-264681653D01*
X339406379Y-264676671D01*
X339406382Y-264676666D01*
X339471168Y-264537731D01*
X339497120Y-264482076D01*
X339554115Y-264269371D01*
X339573307Y-264050000D01*
X449096835Y-264050000D01*
X449115465Y-264286711D01*
X449116619Y-264291518D01*
X449116620Y-264291524D01*
X449146601Y-264416401D01*
X449170895Y-264517594D01*
X449172788Y-264522165D01*
X449172789Y-264522167D01*
X449240718Y-264686162D01*
X449261760Y-264736963D01*
X449264346Y-264741183D01*
X449383241Y-264935202D01*
X449383245Y-264935208D01*
X449385824Y-264939416D01*
X449540031Y-265119969D01*
X449720584Y-265274176D01*
X449724792Y-265276755D01*
X449724798Y-265276759D01*
X449918817Y-265395654D01*
X449923037Y-265398240D01*
X449927607Y-265400133D01*
X449927611Y-265400135D01*
X450137833Y-265487211D01*
X450142406Y-265489105D01*
X450222609Y-265508360D01*
X450368476Y-265543380D01*
X450368482Y-265543381D01*
X450373289Y-265544535D01*
X450610000Y-265563165D01*
X450846711Y-265544535D01*
X450851518Y-265543381D01*
X450851524Y-265543380D01*
X450997391Y-265508360D01*
X451077594Y-265489105D01*
X451082167Y-265487211D01*
X451292389Y-265400135D01*
X451292393Y-265400133D01*
X451296963Y-265398240D01*
X451301183Y-265395654D01*
X451495202Y-265276759D01*
X451495208Y-265276755D01*
X451499416Y-265274176D01*
X451679969Y-265119969D01*
X451834176Y-264939416D01*
X451836755Y-264935208D01*
X451836759Y-264935202D01*
X451955654Y-264741183D01*
X451958240Y-264736963D01*
X451979283Y-264686162D01*
X452047211Y-264522167D01*
X452047212Y-264522165D01*
X452049105Y-264517594D01*
X452073399Y-264416401D01*
X452103380Y-264291524D01*
X452103381Y-264291518D01*
X452104535Y-264286711D01*
X452123165Y-264050000D01*
X452104535Y-263813289D01*
X452096581Y-263780155D01*
X452050260Y-263587218D01*
X452049105Y-263582406D01*
X451981150Y-263418347D01*
X451960135Y-263367611D01*
X451960133Y-263367607D01*
X451958240Y-263363037D01*
X451881594Y-263237962D01*
X451836759Y-263164798D01*
X451836755Y-263164792D01*
X451834176Y-263160584D01*
X451679969Y-262980031D01*
X451499416Y-262825824D01*
X451495208Y-262823245D01*
X451495202Y-262823241D01*
X451301183Y-262704346D01*
X451296963Y-262701760D01*
X451292393Y-262699867D01*
X451292389Y-262699865D01*
X451082167Y-262612789D01*
X451082165Y-262612788D01*
X451077594Y-262610895D01*
X450997391Y-262591640D01*
X450851524Y-262556620D01*
X450851518Y-262556619D01*
X450846711Y-262555465D01*
X450610000Y-262536835D01*
X450373289Y-262555465D01*
X450368482Y-262556619D01*
X450368476Y-262556620D01*
X450222609Y-262591640D01*
X450142406Y-262610895D01*
X450137835Y-262612788D01*
X450137833Y-262612789D01*
X449927611Y-262699865D01*
X449927607Y-262699867D01*
X449923037Y-262701760D01*
X449918817Y-262704346D01*
X449724798Y-262823241D01*
X449724792Y-262823245D01*
X449720584Y-262825824D01*
X449540031Y-262980031D01*
X449385824Y-263160584D01*
X449383245Y-263164792D01*
X449383241Y-263164798D01*
X449338406Y-263237962D01*
X449261760Y-263363037D01*
X449259867Y-263367607D01*
X449259865Y-263367611D01*
X449238850Y-263418347D01*
X449170895Y-263582406D01*
X449169740Y-263587218D01*
X449123420Y-263780155D01*
X449115465Y-263813289D01*
X449097308Y-264043995D01*
X449096835Y-264050000D01*
X339573307Y-264050000D01*
X339554115Y-263830629D01*
X339497120Y-263617924D01*
X339453585Y-263524562D01*
X339406382Y-263423334D01*
X339406379Y-263423329D01*
X339404056Y-263418347D01*
X339400899Y-263413838D01*
X339280908Y-263242473D01*
X339280906Y-263242470D01*
X339277749Y-263237962D01*
X339122038Y-263082251D01*
X338941654Y-262955944D01*
X338742076Y-262862880D01*
X338529371Y-262805885D01*
X338310000Y-262786693D01*
X338090629Y-262805885D01*
X337877924Y-262862880D01*
X337784562Y-262906415D01*
X337683334Y-262953618D01*
X337683329Y-262953621D01*
X337678347Y-262955944D01*
X337673840Y-262959100D01*
X337673838Y-262959101D01*
X337502473Y-263079092D01*
X337502470Y-263079094D01*
X337497962Y-263082251D01*
X337342251Y-263237962D01*
X337339094Y-263242470D01*
X337339092Y-263242473D01*
X337219101Y-263413838D01*
X337215944Y-263418347D01*
X337213621Y-263423329D01*
X337213618Y-263423334D01*
X337166415Y-263524562D01*
X337122880Y-263617924D01*
X337065885Y-263830629D01*
X337046693Y-264050000D01*
X196723307Y-264050000D01*
X196704115Y-263830629D01*
X196647120Y-263617924D01*
X196603585Y-263524562D01*
X196556382Y-263423334D01*
X196556379Y-263423329D01*
X196554056Y-263418347D01*
X196550899Y-263413838D01*
X196430908Y-263242473D01*
X196430906Y-263242470D01*
X196427749Y-263237962D01*
X196272038Y-263082251D01*
X196091654Y-262955944D01*
X195892076Y-262862880D01*
X195679371Y-262805885D01*
X195460000Y-262786693D01*
X195240629Y-262805885D01*
X195027924Y-262862880D01*
X194934562Y-262906415D01*
X194833334Y-262953618D01*
X194833329Y-262953621D01*
X194828347Y-262955944D01*
X194823840Y-262959100D01*
X194823838Y-262959101D01*
X194652473Y-263079092D01*
X194652470Y-263079094D01*
X194647962Y-263082251D01*
X194492251Y-263237962D01*
X194489094Y-263242470D01*
X194489092Y-263242473D01*
X194369101Y-263413838D01*
X194365944Y-263418347D01*
X194363621Y-263423329D01*
X194363618Y-263423334D01*
X194316415Y-263524562D01*
X194272880Y-263617924D01*
X194215885Y-263830629D01*
X194196693Y-264050000D01*
X130973165Y-264050000D01*
X130954535Y-263813289D01*
X130946581Y-263780155D01*
X130900260Y-263587218D01*
X130899105Y-263582406D01*
X130831150Y-263418347D01*
X130810135Y-263367611D01*
X130810133Y-263367607D01*
X130808240Y-263363037D01*
X130731594Y-263237962D01*
X130686759Y-263164798D01*
X130686755Y-263164792D01*
X130684176Y-263160584D01*
X130529969Y-262980031D01*
X130349416Y-262825824D01*
X130345208Y-262823245D01*
X130345202Y-262823241D01*
X130151183Y-262704346D01*
X130146963Y-262701760D01*
X130142393Y-262699867D01*
X130142389Y-262699865D01*
X129932167Y-262612789D01*
X129932165Y-262612788D01*
X129927594Y-262610895D01*
X129847391Y-262591640D01*
X129701524Y-262556620D01*
X129701518Y-262556619D01*
X129696711Y-262555465D01*
X129460000Y-262536835D01*
X129223289Y-262555465D01*
X129218482Y-262556619D01*
X129218476Y-262556620D01*
X129072609Y-262591640D01*
X128992406Y-262610895D01*
X128987835Y-262612788D01*
X128987833Y-262612789D01*
X128777611Y-262699865D01*
X128777607Y-262699867D01*
X128773037Y-262701760D01*
X128768817Y-262704346D01*
X128574798Y-262823241D01*
X128574792Y-262823245D01*
X128570584Y-262825824D01*
X128390031Y-262980031D01*
X128235824Y-263160584D01*
X128233245Y-263164792D01*
X128233241Y-263164798D01*
X128188406Y-263237962D01*
X128111760Y-263363037D01*
X128109867Y-263367607D01*
X128109865Y-263367611D01*
X128088850Y-263418347D01*
X128020895Y-263582406D01*
X128019740Y-263587218D01*
X127973420Y-263780155D01*
X127965465Y-263813289D01*
X127947308Y-264043995D01*
X127946835Y-264050000D01*
X127000000Y-264050000D01*
X127000000Y-255893724D01*
X346246309Y-255893724D01*
X346247130Y-255900000D01*
X346246876Y-255900000D01*
X346265365Y-256347012D01*
X346320704Y-256790971D01*
X346412516Y-257228843D01*
X346540174Y-257657638D01*
X346702805Y-258074427D01*
X346899300Y-258476362D01*
X347128314Y-258860698D01*
X347388285Y-259224810D01*
X347677435Y-259566209D01*
X347993791Y-259882565D01*
X348335190Y-260171715D01*
X348699302Y-260431686D01*
X348701536Y-260433017D01*
X349081397Y-260659365D01*
X349081403Y-260659368D01*
X349083638Y-260660700D01*
X349485573Y-260857195D01*
X349902362Y-261019826D01*
X350331157Y-261147484D01*
X350769029Y-261239296D01*
X351212988Y-261294635D01*
X351446286Y-261304284D01*
X351632121Y-261311971D01*
X351638170Y-261312367D01*
X351642652Y-261312769D01*
X351647448Y-261313576D01*
X351653793Y-261313653D01*
X351655140Y-261313670D01*
X351655143Y-261313670D01*
X351660000Y-261313729D01*
X351687624Y-261309773D01*
X351705486Y-261308500D01*
X431806750Y-261308500D01*
X431827655Y-261310246D01*
X431842656Y-261312770D01*
X431842659Y-261312770D01*
X431847448Y-261313576D01*
X431853471Y-261313649D01*
X431855133Y-261313670D01*
X431855137Y-261313670D01*
X431860000Y-261313729D01*
X431864824Y-261313038D01*
X431868119Y-261312823D01*
X431871096Y-261312665D01*
X432307012Y-261294635D01*
X432750971Y-261239296D01*
X433188843Y-261147484D01*
X433617638Y-261019826D01*
X434034427Y-260857195D01*
X434436362Y-260660700D01*
X434438597Y-260659368D01*
X434438603Y-260659365D01*
X434818464Y-260433017D01*
X434820698Y-260431686D01*
X435184810Y-260171715D01*
X435526209Y-259882565D01*
X435842565Y-259566209D01*
X436131715Y-259224810D01*
X436391686Y-258860698D01*
X436620700Y-258476362D01*
X436817195Y-258074427D01*
X436979826Y-257657638D01*
X437107484Y-257228843D01*
X437199296Y-256790971D01*
X437254635Y-256347012D01*
X437271971Y-255927879D01*
X437272367Y-255921830D01*
X437272769Y-255917348D01*
X437273576Y-255912552D01*
X437273729Y-255900000D01*
X437269773Y-255872376D01*
X437268500Y-255854514D01*
X437268500Y-197753250D01*
X437270246Y-197732345D01*
X437272770Y-197717344D01*
X437272770Y-197717341D01*
X437273576Y-197712552D01*
X437273729Y-197700000D01*
X437273038Y-197695176D01*
X437272823Y-197691881D01*
X437272664Y-197688890D01*
X437272565Y-197686495D01*
X437254635Y-197252988D01*
X437199296Y-196809029D01*
X437107484Y-196371157D01*
X436979826Y-195942362D01*
X436817195Y-195525573D01*
X436620700Y-195123638D01*
X436391686Y-194739302D01*
X436131715Y-194375190D01*
X435842565Y-194033791D01*
X435526209Y-193717435D01*
X435184810Y-193428285D01*
X434820698Y-193168314D01*
X434691648Y-193091417D01*
X434438603Y-192940635D01*
X434438597Y-192940632D01*
X434436362Y-192939300D01*
X434034427Y-192742805D01*
X433617638Y-192580174D01*
X433188843Y-192452516D01*
X432750971Y-192360704D01*
X432307012Y-192305365D01*
X432073714Y-192295716D01*
X431887879Y-192288029D01*
X431881830Y-192287633D01*
X431877348Y-192287231D01*
X431872552Y-192286424D01*
X431866207Y-192286347D01*
X431864860Y-192286330D01*
X431864857Y-192286330D01*
X431860000Y-192286271D01*
X431835679Y-192289754D01*
X431832376Y-192290227D01*
X431814514Y-192291500D01*
X351713250Y-192291500D01*
X351692345Y-192289754D01*
X351677344Y-192287230D01*
X351677341Y-192287230D01*
X351672552Y-192286424D01*
X351666529Y-192286351D01*
X351664867Y-192286330D01*
X351664863Y-192286330D01*
X351660000Y-192286271D01*
X351655176Y-192286962D01*
X351651881Y-192287177D01*
X351648904Y-192287335D01*
X351212988Y-192305365D01*
X350769029Y-192360704D01*
X350331157Y-192452516D01*
X349902362Y-192580174D01*
X349485573Y-192742805D01*
X349083638Y-192939300D01*
X349081403Y-192940632D01*
X349081397Y-192940635D01*
X348828352Y-193091417D01*
X348699302Y-193168314D01*
X348335190Y-193428285D01*
X347993791Y-193717435D01*
X347677435Y-194033791D01*
X347388285Y-194375190D01*
X347128314Y-194739302D01*
X346899300Y-195123638D01*
X346702805Y-195525573D01*
X346540174Y-195942362D01*
X346412516Y-196371157D01*
X346320704Y-196809029D01*
X346265365Y-197252988D01*
X346265257Y-197255610D01*
X346247730Y-197679358D01*
X346247713Y-197679530D01*
X346247695Y-197680213D01*
X346247435Y-197686495D01*
X346246309Y-197693724D01*
X346246937Y-197698526D01*
X346246876Y-197700000D01*
X346247130Y-197700000D01*
X346249398Y-197717344D01*
X346250436Y-197725283D01*
X346251500Y-197741620D01*
X346251500Y-255850633D01*
X346250000Y-255870018D01*
X346247690Y-255884851D01*
X346247690Y-255884855D01*
X346246309Y-255893724D01*
X127000000Y-255893724D01*
X127000000Y-238100000D01*
X269144283Y-238100000D01*
X269163652Y-238716334D01*
X269221683Y-239330236D01*
X269318146Y-239939282D01*
X269452662Y-240541070D01*
X269624698Y-241133223D01*
X269625361Y-241135064D01*
X269625366Y-241135080D01*
X269832908Y-241711548D01*
X269833577Y-241713406D01*
X270078474Y-242279329D01*
X270358422Y-242828758D01*
X270672316Y-243359524D01*
X271018918Y-243869534D01*
X271396860Y-244356773D01*
X271804650Y-244819321D01*
X272240679Y-245255350D01*
X272703227Y-245663140D01*
X273190466Y-246041082D01*
X273700476Y-246387684D01*
X274231242Y-246701578D01*
X274232986Y-246702467D01*
X274232994Y-246702471D01*
X274505956Y-246841552D01*
X274780671Y-246981526D01*
X275346594Y-247226423D01*
X275348450Y-247227091D01*
X275348452Y-247227092D01*
X275924920Y-247434634D01*
X275924936Y-247434639D01*
X275926777Y-247435302D01*
X275928659Y-247435849D01*
X275928672Y-247435853D01*
X276517012Y-247606781D01*
X276517019Y-247606783D01*
X276518930Y-247607338D01*
X276520878Y-247607773D01*
X276520888Y-247607776D01*
X276958783Y-247705657D01*
X277120718Y-247741854D01*
X277493120Y-247800836D01*
X277727805Y-247838007D01*
X277727814Y-247838008D01*
X277729764Y-247838317D01*
X277731733Y-247838503D01*
X277731740Y-247838504D01*
X278341715Y-247896164D01*
X278341728Y-247896165D01*
X278343666Y-247896348D01*
X278345611Y-247896409D01*
X278345625Y-247896410D01*
X278958027Y-247915655D01*
X278960000Y-247915717D01*
X278961973Y-247915655D01*
X279574375Y-247896410D01*
X279574389Y-247896409D01*
X279576334Y-247896348D01*
X279578272Y-247896165D01*
X279578285Y-247896164D01*
X280188260Y-247838504D01*
X280188267Y-247838503D01*
X280190236Y-247838317D01*
X280192186Y-247838008D01*
X280192195Y-247838007D01*
X280426880Y-247800836D01*
X280799282Y-247741854D01*
X280961217Y-247705657D01*
X281399112Y-247607776D01*
X281399122Y-247607773D01*
X281401070Y-247607338D01*
X281402981Y-247606783D01*
X281402988Y-247606781D01*
X281991328Y-247435853D01*
X281991341Y-247435849D01*
X281993223Y-247435302D01*
X281995064Y-247434639D01*
X281995080Y-247434634D01*
X282571548Y-247227092D01*
X282571550Y-247227091D01*
X282573406Y-247226423D01*
X283139329Y-246981526D01*
X283414043Y-246841552D01*
X283687006Y-246702471D01*
X283687014Y-246702467D01*
X283688758Y-246701578D01*
X284219524Y-246387684D01*
X284729534Y-246041082D01*
X285216773Y-245663140D01*
X285679321Y-245255350D01*
X286115350Y-244819321D01*
X286523140Y-244356773D01*
X286901082Y-243869534D01*
X287247684Y-243359524D01*
X287561578Y-242828758D01*
X287841526Y-242279329D01*
X288086423Y-241713406D01*
X288087092Y-241711548D01*
X288294634Y-241135080D01*
X288294639Y-241135064D01*
X288295302Y-241133223D01*
X288467338Y-240541070D01*
X288601854Y-239939282D01*
X288698317Y-239330236D01*
X288756348Y-238716334D01*
X288775717Y-238100000D01*
X288756348Y-237483666D01*
X288698317Y-236869764D01*
X288601854Y-236260718D01*
X288495183Y-235783500D01*
X288467776Y-235660888D01*
X288467773Y-235660878D01*
X288467338Y-235658930D01*
X288466781Y-235657012D01*
X288295853Y-235068672D01*
X288295849Y-235068659D01*
X288295302Y-235066777D01*
X288294639Y-235064936D01*
X288294634Y-235064920D01*
X288087092Y-234488452D01*
X288087091Y-234488450D01*
X288086423Y-234486594D01*
X287841526Y-233920671D01*
X287561578Y-233371242D01*
X287247684Y-232840476D01*
X287174950Y-232733450D01*
X286902194Y-232332102D01*
X286902191Y-232332098D01*
X286901082Y-232330466D01*
X286523140Y-231843227D01*
X286115350Y-231380679D01*
X285679321Y-230944650D01*
X285216773Y-230536860D01*
X284729534Y-230158918D01*
X284726103Y-230156586D01*
X284221165Y-229813431D01*
X284221160Y-229813428D01*
X284219524Y-229812316D01*
X283688758Y-229498422D01*
X283687014Y-229497533D01*
X283687006Y-229497529D01*
X283414044Y-229358448D01*
X283139329Y-229218474D01*
X282573406Y-228973577D01*
X282571548Y-228972908D01*
X281995080Y-228765366D01*
X281995064Y-228765361D01*
X281993223Y-228764698D01*
X281991341Y-228764151D01*
X281991328Y-228764147D01*
X281402988Y-228593219D01*
X281402981Y-228593217D01*
X281401070Y-228592662D01*
X281399122Y-228592227D01*
X281399112Y-228592224D01*
X280884976Y-228477301D01*
X280799282Y-228458146D01*
X280401419Y-228395131D01*
X280192195Y-228361993D01*
X280192186Y-228361992D01*
X280190236Y-228361683D01*
X280188267Y-228361497D01*
X280188260Y-228361496D01*
X279578285Y-228303836D01*
X279578272Y-228303835D01*
X279576334Y-228303652D01*
X279574389Y-228303591D01*
X279574375Y-228303590D01*
X278961973Y-228284345D01*
X278960000Y-228284283D01*
X278958027Y-228284345D01*
X278345625Y-228303590D01*
X278345611Y-228303591D01*
X278343666Y-228303652D01*
X278341728Y-228303835D01*
X278341715Y-228303836D01*
X277731740Y-228361496D01*
X277731733Y-228361497D01*
X277729764Y-228361683D01*
X277727814Y-228361992D01*
X277727805Y-228361993D01*
X277518581Y-228395131D01*
X277120718Y-228458146D01*
X277035024Y-228477301D01*
X276520888Y-228592224D01*
X276520878Y-228592227D01*
X276518930Y-228592662D01*
X276517019Y-228593217D01*
X276517012Y-228593219D01*
X275928672Y-228764147D01*
X275928659Y-228764151D01*
X275926777Y-228764698D01*
X275924936Y-228765361D01*
X275924920Y-228765366D01*
X275348452Y-228972908D01*
X275346594Y-228973577D01*
X274780671Y-229218474D01*
X274505957Y-229358448D01*
X274232994Y-229497529D01*
X274232986Y-229497533D01*
X274231242Y-229498422D01*
X273700476Y-229812316D01*
X273698840Y-229813428D01*
X273698835Y-229813431D01*
X273193897Y-230156586D01*
X273190466Y-230158918D01*
X272703227Y-230536860D01*
X272240679Y-230944650D01*
X271804650Y-231380679D01*
X271396860Y-231843227D01*
X271018918Y-232330466D01*
X271017809Y-232332098D01*
X271017806Y-232332102D01*
X270745051Y-232733450D01*
X270672316Y-232840476D01*
X270358422Y-233371242D01*
X270078474Y-233920671D01*
X269833577Y-234486594D01*
X269832909Y-234488450D01*
X269832908Y-234488452D01*
X269625366Y-235064920D01*
X269625361Y-235064936D01*
X269624698Y-235066777D01*
X269624151Y-235068659D01*
X269624147Y-235068672D01*
X269453219Y-235657012D01*
X269452662Y-235658930D01*
X269452227Y-235660878D01*
X269452224Y-235660888D01*
X269424817Y-235783500D01*
X269318146Y-236260718D01*
X269221683Y-236869764D01*
X269163652Y-237483666D01*
X269151035Y-237885151D01*
X269144283Y-238100000D01*
X127000000Y-238100000D01*
X127000000Y-235075400D01*
X162791500Y-235075400D01*
X162802474Y-235181166D01*
X162858450Y-235348946D01*
X162951522Y-235499348D01*
X163076697Y-235624305D01*
X163082927Y-235628145D01*
X163082928Y-235628146D01*
X163220090Y-235712694D01*
X163227262Y-235717115D01*
X163307005Y-235743564D01*
X163388611Y-235770632D01*
X163388613Y-235770632D01*
X163395139Y-235772797D01*
X163401975Y-235773497D01*
X163401978Y-235773498D01*
X163445031Y-235777909D01*
X163499600Y-235783500D01*
X166100400Y-235783500D01*
X166103646Y-235783163D01*
X166103650Y-235783163D01*
X166199308Y-235773238D01*
X166199312Y-235773237D01*
X166206166Y-235772526D01*
X166212702Y-235770345D01*
X166212704Y-235770345D01*
X166344806Y-235726272D01*
X166373946Y-235716550D01*
X166524348Y-235623478D01*
X166649305Y-235498303D01*
X166742115Y-235347738D01*
X166797797Y-235179861D01*
X166808500Y-235075400D01*
X166808500Y-233374600D01*
X166797526Y-233268834D01*
X166741550Y-233101054D01*
X166648478Y-232950652D01*
X166523303Y-232825695D01*
X166517072Y-232821854D01*
X166378968Y-232736725D01*
X166378966Y-232736724D01*
X166372738Y-232732885D01*
X166212254Y-232679655D01*
X166211389Y-232679368D01*
X166211387Y-232679368D01*
X166204861Y-232677203D01*
X166198025Y-232676503D01*
X166198022Y-232676502D01*
X166154969Y-232672091D01*
X166100400Y-232666500D01*
X163499600Y-232666500D01*
X163496354Y-232666837D01*
X163496350Y-232666837D01*
X163400692Y-232676762D01*
X163400688Y-232676763D01*
X163393834Y-232677474D01*
X163387298Y-232679655D01*
X163387296Y-232679655D01*
X163255194Y-232723728D01*
X163226054Y-232733450D01*
X163075652Y-232826522D01*
X162950695Y-232951697D01*
X162857885Y-233102262D01*
X162802203Y-233270139D01*
X162791500Y-233374600D01*
X162791500Y-235075400D01*
X127000000Y-235075400D01*
X127000000Y-231939294D01*
X166392709Y-231939294D01*
X166398132Y-231998315D01*
X166400743Y-232011351D01*
X166447715Y-232161243D01*
X166453921Y-232174988D01*
X166534824Y-232308574D01*
X166544131Y-232320443D01*
X166654557Y-232430869D01*
X166666426Y-232440176D01*
X166800012Y-232521079D01*
X166813757Y-232527285D01*
X166963644Y-232574256D01*
X166976694Y-232576869D01*
X167040521Y-232582734D01*
X167046309Y-232583000D01*
X167277885Y-232583000D01*
X167293124Y-232578525D01*
X167294329Y-232577135D01*
X167296000Y-232569452D01*
X167296000Y-232564884D01*
X167804000Y-232564884D01*
X167808475Y-232580123D01*
X167809865Y-232581328D01*
X167817548Y-232582999D01*
X168053705Y-232582999D01*
X168059454Y-232582736D01*
X168123315Y-232576868D01*
X168136351Y-232574257D01*
X168286243Y-232527285D01*
X168299988Y-232521079D01*
X168433574Y-232440176D01*
X168445443Y-232430869D01*
X168555869Y-232320443D01*
X168565176Y-232308574D01*
X168646079Y-232174988D01*
X168652285Y-232161243D01*
X168699256Y-232011356D01*
X168701869Y-231998306D01*
X168706913Y-231943414D01*
X168703525Y-231931876D01*
X168702135Y-231930671D01*
X168694452Y-231929000D01*
X167822115Y-231929000D01*
X167806876Y-231933475D01*
X167805671Y-231934865D01*
X167804000Y-231942548D01*
X167804000Y-232564884D01*
X167296000Y-232564884D01*
X167296000Y-231947115D01*
X167291525Y-231931876D01*
X167290135Y-231930671D01*
X167282452Y-231929000D01*
X166410116Y-231929000D01*
X166394877Y-231933475D01*
X166393672Y-231934865D01*
X166392709Y-231939294D01*
X127000000Y-231939294D01*
X127000000Y-230689294D01*
X166392709Y-230689294D01*
X166398132Y-230748315D01*
X166400743Y-230761351D01*
X166447715Y-230911243D01*
X166453920Y-230924985D01*
X166490102Y-230984728D01*
X166508281Y-231053358D01*
X166490102Y-231115272D01*
X166453920Y-231175015D01*
X166447715Y-231188757D01*
X166400744Y-231338644D01*
X166398131Y-231351694D01*
X166393087Y-231406586D01*
X166396475Y-231418124D01*
X166397865Y-231419329D01*
X166405548Y-231421000D01*
X167277885Y-231421000D01*
X167293124Y-231416525D01*
X167294329Y-231415135D01*
X167296000Y-231407452D01*
X167296000Y-231402885D01*
X167804000Y-231402885D01*
X167808475Y-231418124D01*
X167809865Y-231419329D01*
X167817548Y-231421000D01*
X168689884Y-231421000D01*
X168705123Y-231416525D01*
X168706328Y-231415135D01*
X168707291Y-231410706D01*
X168701868Y-231351685D01*
X168699257Y-231338649D01*
X168652285Y-231188757D01*
X168646080Y-231175015D01*
X168609898Y-231115272D01*
X168591719Y-231046642D01*
X168609898Y-230984728D01*
X168646080Y-230924985D01*
X168652285Y-230911243D01*
X168699256Y-230761356D01*
X168701869Y-230748306D01*
X168706913Y-230693414D01*
X168703525Y-230681876D01*
X168702135Y-230680671D01*
X168694452Y-230679000D01*
X167822115Y-230679000D01*
X167806876Y-230683475D01*
X167805671Y-230684865D01*
X167804000Y-230692548D01*
X167804000Y-231402885D01*
X167296000Y-231402885D01*
X167296000Y-230697115D01*
X167291525Y-230681876D01*
X167290135Y-230680671D01*
X167282452Y-230679000D01*
X166410116Y-230679000D01*
X166394877Y-230683475D01*
X166393672Y-230684865D01*
X166392709Y-230689294D01*
X127000000Y-230689294D01*
X127000000Y-228918365D01*
X166391500Y-228918365D01*
X166391501Y-229431634D01*
X166391764Y-229434492D01*
X166391764Y-229434501D01*
X166395026Y-229470004D01*
X166398247Y-229505062D01*
X166449528Y-229668699D01*
X166453463Y-229675196D01*
X166489809Y-229735211D01*
X166507988Y-229803840D01*
X166489809Y-229865753D01*
X166453923Y-229925008D01*
X166447715Y-229938757D01*
X166400744Y-230088644D01*
X166398131Y-230101694D01*
X166393087Y-230156586D01*
X166396475Y-230168124D01*
X166397865Y-230169329D01*
X166405548Y-230171000D01*
X168689884Y-230171000D01*
X168705123Y-230166525D01*
X168706328Y-230165135D01*
X168707291Y-230160706D01*
X168701868Y-230101685D01*
X168699257Y-230088649D01*
X168652285Y-229938757D01*
X168646077Y-229925008D01*
X168610191Y-229865753D01*
X168592012Y-229797124D01*
X168610191Y-229735211D01*
X168646537Y-229675196D01*
X168650472Y-229668699D01*
X168701753Y-229505062D01*
X168708500Y-229431635D01*
X168708499Y-228918366D01*
X168708234Y-228915474D01*
X168702364Y-228851592D01*
X168701753Y-228844938D01*
X168650472Y-228681301D01*
X168610483Y-228615271D01*
X168592304Y-228546641D01*
X168610486Y-228484724D01*
X168614982Y-228477301D01*
X168653699Y-228438987D01*
X168653273Y-228438437D01*
X168657815Y-228434914D01*
X168658611Y-228434126D01*
X168659535Y-228433580D01*
X168659538Y-228433578D01*
X168666362Y-228429542D01*
X168680683Y-228415221D01*
X168695717Y-228402380D01*
X168705694Y-228395131D01*
X168712107Y-228390472D01*
X168740298Y-228356395D01*
X168748288Y-228347616D01*
X170750499Y-226345405D01*
X170812811Y-226311379D01*
X170839594Y-226308500D01*
X170895487Y-226308500D01*
X170901939Y-226307128D01*
X170901944Y-226307128D01*
X170988888Y-226288647D01*
X171082288Y-226268794D01*
X171088319Y-226266109D01*
X171250722Y-226193803D01*
X171250724Y-226193802D01*
X171256752Y-226191118D01*
X171411253Y-226078866D01*
X171539040Y-225936944D01*
X171634527Y-225771556D01*
X171693542Y-225589928D01*
X171713504Y-225400000D01*
X171693542Y-225210072D01*
X171634527Y-225028444D01*
X171539040Y-224863056D01*
X171411253Y-224721134D01*
X171256752Y-224608882D01*
X171250724Y-224606198D01*
X171250722Y-224606197D01*
X171088319Y-224533891D01*
X171088318Y-224533891D01*
X171082288Y-224531206D01*
X170988887Y-224511353D01*
X170901944Y-224492872D01*
X170901939Y-224492872D01*
X170895487Y-224491500D01*
X170704513Y-224491500D01*
X170698061Y-224492872D01*
X170698056Y-224492872D01*
X170611112Y-224511353D01*
X170517712Y-224531206D01*
X170511682Y-224533891D01*
X170511681Y-224533891D01*
X170349278Y-224606197D01*
X170349276Y-224606198D01*
X170343248Y-224608882D01*
X170188747Y-224721134D01*
X170060960Y-224863056D01*
X169965473Y-225028444D01*
X169906458Y-225210072D01*
X169905768Y-225216633D01*
X169905768Y-225216635D01*
X169889093Y-225375292D01*
X169862080Y-225440949D01*
X169852878Y-225451217D01*
X168298828Y-227005267D01*
X168236516Y-227039293D01*
X168172054Y-227036406D01*
X168136448Y-227025248D01*
X168136445Y-227025247D01*
X168130062Y-227023247D01*
X168056635Y-227016500D01*
X168053737Y-227016500D01*
X167548686Y-227016501D01*
X167043366Y-227016501D01*
X167040508Y-227016764D01*
X167040499Y-227016764D01*
X167004996Y-227020026D01*
X166969938Y-227023247D01*
X166963560Y-227025246D01*
X166963559Y-227025246D01*
X166813550Y-227072256D01*
X166813548Y-227072257D01*
X166806301Y-227074528D01*
X166659619Y-227163361D01*
X166538361Y-227284619D01*
X166449528Y-227431301D01*
X166398247Y-227594938D01*
X166391500Y-227668365D01*
X166391501Y-228181634D01*
X166398247Y-228255062D01*
X166400246Y-228261440D01*
X166400246Y-228261441D01*
X166438769Y-228384366D01*
X166449528Y-228418699D01*
X166489514Y-228484724D01*
X166489517Y-228484729D01*
X166507696Y-228553359D01*
X166489517Y-228615270D01*
X166449528Y-228681301D01*
X166398247Y-228844938D01*
X166391500Y-228918365D01*
X127000000Y-228918365D01*
X127000000Y-226225400D01*
X162791500Y-226225400D01*
X162791837Y-226228646D01*
X162791837Y-226228650D01*
X162799980Y-226307128D01*
X162802474Y-226331166D01*
X162804655Y-226337702D01*
X162804655Y-226337704D01*
X162848728Y-226469806D01*
X162858450Y-226498946D01*
X162951522Y-226649348D01*
X163076697Y-226774305D01*
X163082927Y-226778145D01*
X163082928Y-226778146D01*
X163220090Y-226862694D01*
X163227262Y-226867115D01*
X163307005Y-226893564D01*
X163388611Y-226920632D01*
X163388613Y-226920632D01*
X163395139Y-226922797D01*
X163401975Y-226923497D01*
X163401978Y-226923498D01*
X163445031Y-226927909D01*
X163499600Y-226933500D01*
X166100400Y-226933500D01*
X166103646Y-226933163D01*
X166103650Y-226933163D01*
X166199308Y-226923238D01*
X166199312Y-226923237D01*
X166206166Y-226922526D01*
X166212702Y-226920345D01*
X166212704Y-226920345D01*
X166344806Y-226876272D01*
X166373946Y-226866550D01*
X166524348Y-226773478D01*
X166649305Y-226648303D01*
X166742115Y-226497738D01*
X166768564Y-226417995D01*
X166795632Y-226336389D01*
X166795632Y-226336387D01*
X166797797Y-226329861D01*
X166808500Y-226225400D01*
X166808500Y-224524600D01*
X166797526Y-224418834D01*
X166741550Y-224251054D01*
X166648478Y-224100652D01*
X166523303Y-223975695D01*
X166517072Y-223971854D01*
X166378968Y-223886725D01*
X166378966Y-223886724D01*
X166372738Y-223882885D01*
X166212254Y-223829655D01*
X166211389Y-223829368D01*
X166211387Y-223829368D01*
X166204861Y-223827203D01*
X166198025Y-223826503D01*
X166198022Y-223826502D01*
X166154969Y-223822091D01*
X166100400Y-223816500D01*
X163499600Y-223816500D01*
X163496354Y-223816837D01*
X163496350Y-223816837D01*
X163400692Y-223826762D01*
X163400688Y-223826763D01*
X163393834Y-223827474D01*
X163387298Y-223829655D01*
X163387296Y-223829655D01*
X163255194Y-223873728D01*
X163226054Y-223883450D01*
X163075652Y-223976522D01*
X162950695Y-224101697D01*
X162857885Y-224252262D01*
X162802203Y-224420139D01*
X162791500Y-224524600D01*
X162791500Y-226225400D01*
X127000000Y-226225400D01*
X127000000Y-222625400D01*
X162851500Y-222625400D01*
X162862474Y-222731166D01*
X162918450Y-222898946D01*
X163011522Y-223049348D01*
X163136697Y-223174305D01*
X163142927Y-223178145D01*
X163142928Y-223178146D01*
X163280090Y-223262694D01*
X163287262Y-223267115D01*
X163367005Y-223293564D01*
X163448611Y-223320632D01*
X163448613Y-223320632D01*
X163455139Y-223322797D01*
X163461975Y-223323497D01*
X163461978Y-223323498D01*
X163505031Y-223327909D01*
X163559600Y-223333500D01*
X166160400Y-223333500D01*
X166163646Y-223333163D01*
X166163650Y-223333163D01*
X166259308Y-223323238D01*
X166259312Y-223323237D01*
X166266166Y-223322526D01*
X166272702Y-223320345D01*
X166272704Y-223320345D01*
X166404806Y-223276272D01*
X166433946Y-223266550D01*
X166584348Y-223173478D01*
X166709305Y-223048303D01*
X166802115Y-222897738D01*
X166857797Y-222729861D01*
X166868500Y-222625400D01*
X166868500Y-220924600D01*
X166857526Y-220818834D01*
X166801550Y-220651054D01*
X166708478Y-220500652D01*
X166583303Y-220375695D01*
X166476363Y-220309776D01*
X166438968Y-220286725D01*
X166438966Y-220286724D01*
X166432738Y-220282885D01*
X166272254Y-220229655D01*
X166271389Y-220229368D01*
X166271387Y-220229368D01*
X166264861Y-220227203D01*
X166258025Y-220226503D01*
X166258022Y-220226502D01*
X166214969Y-220222091D01*
X166160400Y-220216500D01*
X163559600Y-220216500D01*
X163556354Y-220216837D01*
X163556350Y-220216837D01*
X163460692Y-220226762D01*
X163460688Y-220226763D01*
X163453834Y-220227474D01*
X163447298Y-220229655D01*
X163447296Y-220229655D01*
X163315194Y-220273728D01*
X163286054Y-220283450D01*
X163135652Y-220376522D01*
X163010695Y-220501697D01*
X163006855Y-220507927D01*
X163006854Y-220507928D01*
X162948423Y-220602721D01*
X162917885Y-220652262D01*
X162862203Y-220820139D01*
X162851500Y-220924600D01*
X162851500Y-222625400D01*
X127000000Y-222625400D01*
X127000000Y-215700000D01*
X137843144Y-215700000D01*
X137852185Y-215930100D01*
X137863233Y-216211307D01*
X137863522Y-216213752D01*
X137863523Y-216213760D01*
X137882373Y-216373022D01*
X137923377Y-216719461D01*
X137923860Y-216721888D01*
X138021620Y-217213361D01*
X138023205Y-217221330D01*
X138023875Y-217223706D01*
X138023878Y-217223718D01*
X138161428Y-217711430D01*
X138162102Y-217713819D01*
X138339210Y-218193893D01*
X138340240Y-218196128D01*
X138340242Y-218196132D01*
X138552402Y-218656343D01*
X138552409Y-218656356D01*
X138553439Y-218658591D01*
X138803467Y-219105048D01*
X139087753Y-219530512D01*
X139230393Y-219711450D01*
X139362087Y-219878502D01*
X139404544Y-219932359D01*
X139406221Y-219934173D01*
X139406226Y-219934179D01*
X139729089Y-220283450D01*
X139751887Y-220308113D01*
X139753686Y-220309776D01*
X140124186Y-220652262D01*
X140127641Y-220655456D01*
X140129584Y-220656988D01*
X140129589Y-220656992D01*
X140290437Y-220783794D01*
X140529488Y-220972247D01*
X140954952Y-221256533D01*
X141401409Y-221506561D01*
X141403644Y-221507591D01*
X141403657Y-221507598D01*
X141863868Y-221719758D01*
X141866107Y-221720790D01*
X142346181Y-221897898D01*
X142348565Y-221898570D01*
X142348570Y-221898572D01*
X142836282Y-222036122D01*
X142836294Y-222036125D01*
X142838670Y-222036795D01*
X142841090Y-222037276D01*
X142841101Y-222037279D01*
X143163932Y-222101494D01*
X143340539Y-222136623D01*
X143539981Y-222160229D01*
X143846240Y-222196477D01*
X143846248Y-222196478D01*
X143848693Y-222196767D01*
X144360000Y-222216856D01*
X144871307Y-222196767D01*
X144873752Y-222196478D01*
X144873760Y-222196477D01*
X145180019Y-222160229D01*
X145379461Y-222136623D01*
X145556068Y-222101494D01*
X145878899Y-222037279D01*
X145878910Y-222037276D01*
X145881330Y-222036795D01*
X145883706Y-222036125D01*
X145883718Y-222036122D01*
X146371430Y-221898572D01*
X146371435Y-221898570D01*
X146373819Y-221897898D01*
X146853893Y-221720790D01*
X146856132Y-221719758D01*
X147316343Y-221507598D01*
X147316356Y-221507591D01*
X147318591Y-221506561D01*
X147765048Y-221256533D01*
X148190512Y-220972247D01*
X148429563Y-220783794D01*
X148590411Y-220656992D01*
X148590416Y-220656988D01*
X148592359Y-220655456D01*
X148595815Y-220652262D01*
X148966314Y-220309776D01*
X148968113Y-220308113D01*
X148990911Y-220283450D01*
X149313774Y-219934179D01*
X149313779Y-219934173D01*
X149315456Y-219932359D01*
X149357914Y-219878502D01*
X149489607Y-219711450D01*
X149632247Y-219530512D01*
X149916533Y-219105048D01*
X149993079Y-218968365D01*
X166451500Y-218968365D01*
X166451501Y-219481634D01*
X166458247Y-219555062D01*
X166509528Y-219718699D01*
X166598361Y-219865381D01*
X166719619Y-219986639D01*
X166866301Y-220075472D01*
X166873548Y-220077743D01*
X166873550Y-220077744D01*
X166939836Y-220098517D01*
X167029938Y-220126753D01*
X167103365Y-220133500D01*
X167106263Y-220133500D01*
X167611314Y-220133499D01*
X168116634Y-220133499D01*
X168119492Y-220133236D01*
X168119501Y-220133236D01*
X168155004Y-220129974D01*
X168190062Y-220126753D01*
X168196447Y-220124752D01*
X168346450Y-220077744D01*
X168346452Y-220077743D01*
X168353699Y-220075472D01*
X168500381Y-219986639D01*
X168591615Y-219895405D01*
X168653927Y-219861379D01*
X168680710Y-219858500D01*
X170650406Y-219858500D01*
X170718527Y-219878502D01*
X170739501Y-219895405D01*
X171772878Y-220928783D01*
X171806904Y-220991095D01*
X171809093Y-221004706D01*
X171826458Y-221169928D01*
X171885473Y-221351556D01*
X171980960Y-221516944D01*
X172108747Y-221658866D01*
X172263248Y-221771118D01*
X172269276Y-221773802D01*
X172269278Y-221773803D01*
X172431681Y-221846109D01*
X172437712Y-221848794D01*
X172531113Y-221868647D01*
X172618056Y-221887128D01*
X172618061Y-221887128D01*
X172624513Y-221888500D01*
X172815487Y-221888500D01*
X172821939Y-221887128D01*
X172821944Y-221887128D01*
X172908887Y-221868647D01*
X173002288Y-221848794D01*
X173008319Y-221846109D01*
X173170722Y-221773803D01*
X173170724Y-221773802D01*
X173176752Y-221771118D01*
X173331253Y-221658866D01*
X173459040Y-221516944D01*
X173554527Y-221351556D01*
X173613542Y-221169928D01*
X173633504Y-220980000D01*
X173613542Y-220790072D01*
X173554527Y-220608444D01*
X173459040Y-220443056D01*
X173403799Y-220381704D01*
X173335675Y-220306045D01*
X173335674Y-220306044D01*
X173331253Y-220301134D01*
X173176752Y-220188882D01*
X173170724Y-220186198D01*
X173170722Y-220186197D01*
X173008319Y-220113891D01*
X173008318Y-220113891D01*
X173002288Y-220111206D01*
X172908888Y-220091353D01*
X172821944Y-220072872D01*
X172821939Y-220072872D01*
X172815487Y-220071500D01*
X172759594Y-220071500D01*
X172691473Y-220051498D01*
X172670503Y-220034599D01*
X172153951Y-219518047D01*
X172119927Y-219455736D01*
X172124992Y-219384920D01*
X172167539Y-219328085D01*
X172234059Y-219303274D01*
X172294296Y-219313846D01*
X172417712Y-219368794D01*
X172511112Y-219388647D01*
X172598056Y-219407128D01*
X172598061Y-219407128D01*
X172604513Y-219408500D01*
X172795487Y-219408500D01*
X172801939Y-219407128D01*
X172801944Y-219407128D01*
X172888887Y-219388647D01*
X172982288Y-219368794D01*
X172988319Y-219366109D01*
X173150722Y-219293803D01*
X173150724Y-219293802D01*
X173156752Y-219291118D01*
X173311253Y-219178866D01*
X173377719Y-219105048D01*
X173434621Y-219041852D01*
X173434622Y-219041851D01*
X173439040Y-219036944D01*
X173497314Y-218936010D01*
X173531223Y-218877279D01*
X173531224Y-218877278D01*
X173534527Y-218871556D01*
X173593542Y-218689928D01*
X173613504Y-218500000D01*
X173593542Y-218310072D01*
X173534527Y-218128444D01*
X173439040Y-217963056D01*
X173311253Y-217821134D01*
X173156752Y-217708882D01*
X173150724Y-217706198D01*
X173150722Y-217706197D01*
X172988319Y-217633891D01*
X172988318Y-217633891D01*
X172982288Y-217631206D01*
X172888887Y-217611353D01*
X172801944Y-217592872D01*
X172801939Y-217592872D01*
X172795487Y-217591500D01*
X172604513Y-217591500D01*
X172598061Y-217592872D01*
X172598056Y-217592872D01*
X172511112Y-217611353D01*
X172417712Y-217631206D01*
X172411682Y-217633891D01*
X172411681Y-217633891D01*
X172249278Y-217706197D01*
X172249276Y-217706198D01*
X172243248Y-217708882D01*
X172237907Y-217712762D01*
X172237906Y-217712763D01*
X172142010Y-217782436D01*
X172075142Y-217806294D01*
X172067949Y-217806500D01*
X169224595Y-217806500D01*
X169156474Y-217786498D01*
X169135500Y-217769595D01*
X168948652Y-217582747D01*
X168941112Y-217574461D01*
X168937000Y-217567982D01*
X168887348Y-217521356D01*
X168884507Y-217518602D01*
X168864770Y-217498865D01*
X168861573Y-217496385D01*
X168852551Y-217488680D01*
X168844693Y-217481301D01*
X168820321Y-217458414D01*
X168813375Y-217454595D01*
X168813372Y-217454593D01*
X168802566Y-217448652D01*
X168786047Y-217437801D01*
X168785583Y-217437441D01*
X168770041Y-217425386D01*
X168762772Y-217422241D01*
X168762768Y-217422238D01*
X168729463Y-217407826D01*
X168718813Y-217402609D01*
X168680060Y-217381305D01*
X168677605Y-217380675D01*
X168626906Y-217342816D01*
X168625576Y-217341119D01*
X168621639Y-217334619D01*
X168500381Y-217213361D01*
X168353699Y-217124528D01*
X168346452Y-217122257D01*
X168346450Y-217122256D01*
X168280164Y-217101483D01*
X168190062Y-217073247D01*
X168116635Y-217066500D01*
X168113737Y-217066500D01*
X167608686Y-217066501D01*
X167103366Y-217066501D01*
X167100508Y-217066764D01*
X167100499Y-217066764D01*
X167064996Y-217070026D01*
X167029938Y-217073247D01*
X167023560Y-217075246D01*
X167023559Y-217075246D01*
X166873550Y-217122256D01*
X166873548Y-217122257D01*
X166866301Y-217124528D01*
X166719619Y-217213361D01*
X166598361Y-217334619D01*
X166509528Y-217481301D01*
X166507257Y-217488548D01*
X166507256Y-217488550D01*
X166497395Y-217520016D01*
X166458247Y-217644938D01*
X166451500Y-217718365D01*
X166451501Y-218231634D01*
X166458247Y-218305062D01*
X166509528Y-218468699D01*
X166532460Y-218506565D01*
X166549517Y-218534729D01*
X166567696Y-218603359D01*
X166549517Y-218665270D01*
X166509528Y-218731301D01*
X166458247Y-218894938D01*
X166451500Y-218968365D01*
X149993079Y-218968365D01*
X150166561Y-218658591D01*
X150167591Y-218656356D01*
X150167598Y-218656343D01*
X150379758Y-218196132D01*
X150379760Y-218196128D01*
X150380790Y-218193893D01*
X150557898Y-217713819D01*
X150558572Y-217711430D01*
X150696122Y-217223718D01*
X150696125Y-217223706D01*
X150696795Y-217221330D01*
X150698381Y-217213361D01*
X150796140Y-216721888D01*
X150796623Y-216719461D01*
X150837627Y-216373022D01*
X150849181Y-216275400D01*
X162851500Y-216275400D01*
X162862474Y-216381166D01*
X162918450Y-216548946D01*
X163011522Y-216699348D01*
X163136697Y-216824305D01*
X163142927Y-216828145D01*
X163142928Y-216828146D01*
X163280090Y-216912694D01*
X163287262Y-216917115D01*
X163367005Y-216943564D01*
X163448611Y-216970632D01*
X163448613Y-216970632D01*
X163455139Y-216972797D01*
X163461975Y-216973497D01*
X163461978Y-216973498D01*
X163505031Y-216977909D01*
X163559600Y-216983500D01*
X166160400Y-216983500D01*
X166163646Y-216983163D01*
X166163650Y-216983163D01*
X166259308Y-216973238D01*
X166259312Y-216973237D01*
X166266166Y-216972526D01*
X166272702Y-216970345D01*
X166272704Y-216970345D01*
X166404806Y-216926272D01*
X166433946Y-216916550D01*
X166584348Y-216823478D01*
X166709305Y-216698303D01*
X166802115Y-216547738D01*
X166857797Y-216379861D01*
X166868500Y-216275400D01*
X166868500Y-214574600D01*
X166857526Y-214468834D01*
X166801550Y-214301054D01*
X166708478Y-214150652D01*
X166583303Y-214025695D01*
X166577072Y-214021854D01*
X166438968Y-213936725D01*
X166438966Y-213936724D01*
X166432738Y-213932885D01*
X166272254Y-213879655D01*
X166271389Y-213879368D01*
X166271387Y-213879368D01*
X166264861Y-213877203D01*
X166258025Y-213876503D01*
X166258022Y-213876502D01*
X166214969Y-213872091D01*
X166160400Y-213866500D01*
X163559600Y-213866500D01*
X163556354Y-213866837D01*
X163556350Y-213866837D01*
X163460692Y-213876762D01*
X163460688Y-213876763D01*
X163453834Y-213877474D01*
X163447298Y-213879655D01*
X163447296Y-213879655D01*
X163315194Y-213923728D01*
X163286054Y-213933450D01*
X163135652Y-214026522D01*
X163010695Y-214151697D01*
X163006855Y-214157927D01*
X163006854Y-214157928D01*
X162994069Y-214178670D01*
X162917885Y-214302262D01*
X162862203Y-214470139D01*
X162851500Y-214574600D01*
X162851500Y-216275400D01*
X150849181Y-216275400D01*
X150856477Y-216213760D01*
X150856478Y-216213752D01*
X150856767Y-216211307D01*
X150876856Y-215700000D01*
X150856767Y-215188693D01*
X150796623Y-214680539D01*
X150720140Y-214296032D01*
X150697279Y-214181101D01*
X150697276Y-214181090D01*
X150696795Y-214178670D01*
X150690946Y-214157928D01*
X150558572Y-213688570D01*
X150558570Y-213688565D01*
X150557898Y-213686181D01*
X150380790Y-213206107D01*
X150379758Y-213203868D01*
X150167598Y-212743657D01*
X150167591Y-212743644D01*
X150166561Y-212741409D01*
X149916533Y-212294952D01*
X149632247Y-211869488D01*
X149315456Y-211467641D01*
X148968113Y-211091887D01*
X148592359Y-210744544D01*
X148190512Y-210427753D01*
X147765048Y-210143467D01*
X147318591Y-209893439D01*
X147316356Y-209892409D01*
X147316343Y-209892402D01*
X146856132Y-209680242D01*
X146856128Y-209680240D01*
X146853893Y-209679210D01*
X146373819Y-209502102D01*
X146371435Y-209501430D01*
X146371430Y-209501428D01*
X145883718Y-209363878D01*
X145883706Y-209363875D01*
X145881330Y-209363205D01*
X145878910Y-209362724D01*
X145878899Y-209362721D01*
X145556068Y-209298506D01*
X145379461Y-209263377D01*
X145180019Y-209239771D01*
X144873760Y-209203523D01*
X144873752Y-209203522D01*
X144871307Y-209203233D01*
X144360000Y-209183144D01*
X143848693Y-209203233D01*
X143846248Y-209203522D01*
X143846240Y-209203523D01*
X143539981Y-209239771D01*
X143340539Y-209263377D01*
X143163932Y-209298506D01*
X142841101Y-209362721D01*
X142841090Y-209362724D01*
X142838670Y-209363205D01*
X142836294Y-209363875D01*
X142836282Y-209363878D01*
X142348570Y-209501428D01*
X142348565Y-209501430D01*
X142346181Y-209502102D01*
X141866107Y-209679210D01*
X141863872Y-209680240D01*
X141863868Y-209680242D01*
X141403657Y-209892402D01*
X141403644Y-209892409D01*
X141401409Y-209893439D01*
X140954952Y-210143467D01*
X140529488Y-210427753D01*
X140127641Y-210744544D01*
X139751887Y-211091887D01*
X139404544Y-211467641D01*
X139087753Y-211869488D01*
X138803467Y-212294952D01*
X138553439Y-212741409D01*
X138552409Y-212743644D01*
X138552402Y-212743657D01*
X138340242Y-213203868D01*
X138339210Y-213206107D01*
X138162102Y-213686181D01*
X138161430Y-213688565D01*
X138161428Y-213688570D01*
X138029055Y-214157928D01*
X138023205Y-214178670D01*
X138022724Y-214181090D01*
X138022721Y-214181101D01*
X137999860Y-214296032D01*
X137923377Y-214680539D01*
X137863233Y-215188693D01*
X137843144Y-215700000D01*
X127000000Y-215700000D01*
X127000000Y-189550000D01*
X127946835Y-189550000D01*
X127965465Y-189786711D01*
X127966619Y-189791518D01*
X127966620Y-189791524D01*
X127996601Y-189916401D01*
X128020895Y-190017594D01*
X128022788Y-190022165D01*
X128022789Y-190022167D01*
X128090718Y-190186162D01*
X128111760Y-190236963D01*
X128114346Y-190241183D01*
X128233241Y-190435202D01*
X128233245Y-190435208D01*
X128235824Y-190439416D01*
X128390031Y-190619969D01*
X128570584Y-190774176D01*
X128574792Y-190776755D01*
X128574798Y-190776759D01*
X128768817Y-190895654D01*
X128773037Y-190898240D01*
X128777607Y-190900133D01*
X128777611Y-190900135D01*
X128987833Y-190987211D01*
X128992406Y-190989105D01*
X129072609Y-191008360D01*
X129218476Y-191043380D01*
X129218482Y-191043381D01*
X129223289Y-191044535D01*
X129460000Y-191063165D01*
X129696711Y-191044535D01*
X129701518Y-191043381D01*
X129701524Y-191043380D01*
X129847391Y-191008360D01*
X129927594Y-190989105D01*
X129932167Y-190987211D01*
X130142389Y-190900135D01*
X130142393Y-190900133D01*
X130146963Y-190898240D01*
X130151183Y-190895654D01*
X130345202Y-190776759D01*
X130345208Y-190776755D01*
X130349416Y-190774176D01*
X130529969Y-190619969D01*
X130684176Y-190439416D01*
X130686755Y-190435208D01*
X130686759Y-190435202D01*
X130805654Y-190241183D01*
X130808240Y-190236963D01*
X130829283Y-190186162D01*
X130897211Y-190022167D01*
X130897212Y-190022165D01*
X130899105Y-190017594D01*
X130923399Y-189916401D01*
X130953380Y-189791524D01*
X130953381Y-189791518D01*
X130954535Y-189786711D01*
X130973165Y-189550000D01*
X130954535Y-189313289D01*
X130946581Y-189280155D01*
X130900260Y-189087218D01*
X130899105Y-189082406D01*
X130831150Y-188918347D01*
X130810135Y-188867611D01*
X130810133Y-188867607D01*
X130808240Y-188863037D01*
X130731594Y-188737962D01*
X130686759Y-188664798D01*
X130686755Y-188664792D01*
X130684176Y-188660584D01*
X130529969Y-188480031D01*
X130349416Y-188325824D01*
X130345208Y-188323245D01*
X130345202Y-188323241D01*
X130151183Y-188204346D01*
X130146963Y-188201760D01*
X130142393Y-188199867D01*
X130142389Y-188199865D01*
X129932167Y-188112789D01*
X129932165Y-188112788D01*
X129927594Y-188110895D01*
X129847391Y-188091640D01*
X129701524Y-188056620D01*
X129701518Y-188056619D01*
X129696711Y-188055465D01*
X129460000Y-188036835D01*
X129223289Y-188055465D01*
X129218482Y-188056619D01*
X129218476Y-188056620D01*
X129072609Y-188091640D01*
X128992406Y-188110895D01*
X128987835Y-188112788D01*
X128987833Y-188112789D01*
X128777611Y-188199865D01*
X128777607Y-188199867D01*
X128773037Y-188201760D01*
X128768817Y-188204346D01*
X128574798Y-188323241D01*
X128574792Y-188323245D01*
X128570584Y-188325824D01*
X128390031Y-188480031D01*
X128235824Y-188660584D01*
X128233245Y-188664792D01*
X128233241Y-188664798D01*
X128188406Y-188737962D01*
X128111760Y-188863037D01*
X128109867Y-188867607D01*
X128109865Y-188867611D01*
X128088850Y-188918347D01*
X128020895Y-189082406D01*
X128019740Y-189087218D01*
X127973420Y-189280155D01*
X127965465Y-189313289D01*
X127947308Y-189543995D01*
X127946835Y-189550000D01*
X127000000Y-189550000D01*
X127000000Y-186181000D01*
X127020002Y-186112879D01*
X127073658Y-186066386D01*
X127126000Y-186055000D01*
X135615500Y-186055000D01*
X135683621Y-186075002D01*
G37*
G04 #@! TD.AperFunction*
M02*
