G04 #@! TF.GenerationSoftware,KiCad,Pcbnew,(6.0.4-0)*
G04 #@! TF.CreationDate,2022-09-21T16:46:56-05:00*
G04 #@! TF.ProjectId,Y+,592b2e6b-6963-4616-945f-706362585858,4*
G04 #@! TF.SameCoordinates,Original*
G04 #@! TF.FileFunction,Legend,Bot*
G04 #@! TF.FilePolarity,Positive*
%FSLAX46Y46*%
G04 Gerber Fmt 4.6, Leading zero omitted, Abs format (unit mm)*
G04 Created by KiCad (PCBNEW (6.0.4-0)) date 2022-09-21 16:46:56*
%MOMM*%
%LPD*%
G01*
G04 APERTURE LIST*
G04 Aperture macros list*
%AMRoundRect*
0 Rectangle with rounded corners*
0 $1 Rounding radius*
0 $2 $3 $4 $5 $6 $7 $8 $9 X,Y pos of 4 corners*
0 Add a 4 corners polygon primitive as box body*
4,1,4,$2,$3,$4,$5,$6,$7,$8,$9,$2,$3,0*
0 Add four circle primitives for the rounded corners*
1,1,$1+$1,$2,$3*
1,1,$1+$1,$4,$5*
1,1,$1+$1,$6,$7*
1,1,$1+$1,$8,$9*
0 Add four rect primitives between the rounded corners*
20,1,$1+$1,$2,$3,$4,$5,0*
20,1,$1+$1,$4,$5,$6,$7,0*
20,1,$1+$1,$6,$7,$8,$9,0*
20,1,$1+$1,$8,$9,$2,$3,0*%
G04 Aperture macros list end*
%ADD10C,0.120000*%
%ADD11C,0.150000*%
%ADD12RoundRect,0.200000X0.450000X-0.200000X0.450000X0.200000X-0.450000X0.200000X-0.450000X-0.200000X0*%
%ADD13RoundRect,0.250000X1.250000X-0.800000X1.250000X0.800000X-1.250000X0.800000X-1.250000X-0.800000X0*%
G04 APERTURE END LIST*
D10*
X162760000Y-220000000D02*
G75*
G03*
X162760000Y-220000000I-50000J0D01*
G01*
X163212494Y-220000000D02*
G75*
G03*
X163212494Y-220000000I-502494J0D01*
G01*
D11*
X168852380Y-229466666D02*
X169566666Y-229466666D01*
X169709523Y-229419047D01*
X169804761Y-229323809D01*
X169852380Y-229180952D01*
X169852380Y-229085714D01*
X169852380Y-230466666D02*
X169852380Y-229895238D01*
X169852380Y-230180952D02*
X168852380Y-230180952D01*
X168995238Y-230085714D01*
X169090476Y-229990476D01*
X169138095Y-229895238D01*
X168912380Y-218266666D02*
X169626666Y-218266666D01*
X169769523Y-218219047D01*
X169864761Y-218123809D01*
X169912380Y-217980952D01*
X169912380Y-217885714D01*
X169007619Y-218695238D02*
X168960000Y-218742857D01*
X168912380Y-218838095D01*
X168912380Y-219076190D01*
X168960000Y-219171428D01*
X169007619Y-219219047D01*
X169102857Y-219266666D01*
X169198095Y-219266666D01*
X169340952Y-219219047D01*
X169912380Y-218647619D01*
X169912380Y-219266666D01*
D10*
X167510000Y-232335000D02*
X168200000Y-232335000D01*
X166560000Y-226315000D02*
X167510000Y-226315000D01*
X167510000Y-226315000D02*
X167510000Y-227265000D01*
X166560000Y-233285000D02*
X167510000Y-233285000D01*
X167510000Y-233285000D02*
X167510000Y-232335000D01*
X163590000Y-232915000D02*
X163590000Y-226685000D01*
X166620000Y-220835000D02*
X167570000Y-220835000D01*
X167570000Y-220835000D02*
X167570000Y-219885000D01*
X163650000Y-220465000D02*
X163650000Y-216735000D01*
X166620000Y-216365000D02*
X167570000Y-216365000D01*
X167570000Y-216365000D02*
X167570000Y-217315000D01*
X167570000Y-219885000D02*
X168260000Y-219885000D01*
%LPC*%
D12*
X167550000Y-231675000D03*
X167550000Y-230425000D03*
X167550000Y-229175000D03*
X167550000Y-227925000D03*
D13*
X164800000Y-225375000D03*
X164800000Y-234225000D03*
D12*
X167610000Y-219225000D03*
X167610000Y-217975000D03*
D13*
X164860000Y-221775000D03*
X164860000Y-215425000D03*
M02*
