G04 #@! TF.GenerationSoftware,KiCad,Pcbnew,(6.0.4-0)*
G04 #@! TF.CreationDate,2022-09-21T16:46:57-05:00*
G04 #@! TF.ProjectId,Y+,592b2e6b-6963-4616-945f-706362585858,4*
G04 #@! TF.SameCoordinates,Original*
G04 #@! TF.FileFunction,Profile,NP*
%FSLAX46Y46*%
G04 Gerber Fmt 4.6, Leading zero omitted, Abs format (unit mm)*
G04 Created by KiCad (PCBNEW (6.0.4-0)) date 2022-09-21 16:46:57*
%MOMM*%
%LPD*%
G01*
G04 APERTURE LIST*
G04 #@! TA.AperFunction,Profile*
%ADD10C,0.050000*%
G04 #@! TD*
G04 APERTURE END LIST*
D10*
X453760000Y-268300000D02*
X453760000Y-185325000D01*
X451610000Y-189550000D02*
G75*
G03*
X451610000Y-189550000I-1000000J0D01*
G01*
X130460000Y-264050000D02*
G75*
G03*
X130460000Y-264050000I-1000000J0D01*
G01*
X130460000Y-189550000D02*
G75*
G03*
X130460000Y-189550000I-1000000J0D01*
G01*
X339060000Y-264050000D02*
G75*
G03*
X339060000Y-264050000I-750000J0D01*
G01*
X339060000Y-189550000D02*
G75*
G03*
X339060000Y-189550000I-750000J0D01*
G01*
X196210000Y-189550000D02*
G75*
G03*
X196210000Y-189550000I-750000J0D01*
G01*
X436760000Y-197700000D02*
G75*
G03*
X431860000Y-192800000I-4900000J0D01*
G01*
X346760000Y-255900000D02*
G75*
G03*
X351660000Y-260800000I4900000J0D01*
G01*
X351660000Y-192800000D02*
G75*
G03*
X346760000Y-197700000I0J-4900000D01*
G01*
X431860000Y-192800000D02*
X351660000Y-192800000D01*
X346760000Y-197700000D02*
X346760000Y-255900000D01*
X351660000Y-260800000D02*
X431860000Y-260800000D01*
X436760000Y-255900000D02*
X436760000Y-197700000D01*
X126260000Y-268300000D02*
X453760000Y-268300000D01*
X147250000Y-191300000D02*
X147250000Y-185275000D01*
X288262174Y-238100000D02*
G75*
G03*
X288262174Y-238100000I-9302174J0D01*
G01*
X196210000Y-264050000D02*
G75*
G03*
X196210000Y-264050000I-750000J0D01*
G01*
X431860000Y-260800000D02*
G75*
G03*
X436760000Y-255900000I0J4900000D01*
G01*
X126260000Y-185300000D02*
X136250000Y-185300000D01*
X147250000Y-185275000D02*
X453760000Y-185325000D01*
X126260000Y-185300000D02*
X126260000Y-268300000D01*
X150363332Y-215700000D02*
G75*
G03*
X150363332Y-215700000I-6003332J0D01*
G01*
X136250000Y-191300000D02*
X147250000Y-191300000D01*
X136250000Y-185300000D02*
X136250000Y-191300000D01*
X451610000Y-264050000D02*
G75*
G03*
X451610000Y-264050000I-1000000J0D01*
G01*
M02*
