G04 #@! TF.GenerationSoftware,KiCad,Pcbnew,5.0.0*
G04 #@! TF.CreationDate,2018-09-15T18:13:10-05:00*
G04 #@! TF.ProjectId,AntennaImpedance,416E74656E6E61496D706564616E6365,rev?*
G04 #@! TF.SameCoordinates,Original*
G04 #@! TF.FileFunction,Legend,Top*
G04 #@! TF.FilePolarity,Positive*
%FSLAX46Y46*%
G04 Gerber Fmt 4.6, Leading zero omitted, Abs format (unit mm)*
G04 Created by KiCad (PCBNEW 5.0.0) date Sat Sep 15 18:13:10 2018*
%MOMM*%
%LPD*%
G01*
G04 APERTURE LIST*
%ADD10C,0.300000*%
%ADD11C,0.127000*%
%ADD12C,0.120000*%
%ADD13C,0.150000*%
%ADD14C,0.050000*%
%ADD15C,0.100000*%
G04 APERTURE END LIST*
D10*
X108837857Y-135691428D02*
X108723571Y-135834285D01*
X108380714Y-135977142D01*
X108152142Y-135977142D01*
X107809285Y-135834285D01*
X107580714Y-135548571D01*
X107466428Y-135262857D01*
X107352142Y-134691428D01*
X107352142Y-134262857D01*
X107466428Y-133691428D01*
X107580714Y-133405714D01*
X107809285Y-133120000D01*
X108152142Y-132977142D01*
X108380714Y-132977142D01*
X108723571Y-133120000D01*
X108837857Y-133262857D01*
X109637857Y-133977142D02*
X110209285Y-135977142D01*
X110780714Y-133977142D02*
X110209285Y-135977142D01*
X109980714Y-136691428D01*
X109866428Y-136834285D01*
X109637857Y-136977142D01*
X111580714Y-135834285D02*
X111923571Y-135977142D01*
X112494999Y-135977142D01*
X112723571Y-135834285D01*
X112837857Y-135691428D01*
X112952142Y-135405714D01*
X112952142Y-135120000D01*
X112837857Y-134834285D01*
X112723571Y-134691428D01*
X112494999Y-134548571D01*
X112037857Y-134405714D01*
X111809285Y-134262857D01*
X111694999Y-134120000D01*
X111580714Y-133834285D01*
X111580714Y-133548571D01*
X111694999Y-133262857D01*
X111809285Y-133120000D01*
X112037857Y-132977142D01*
X112609285Y-132977142D01*
X112952142Y-133120000D01*
X115009285Y-135977142D02*
X115009285Y-134405714D01*
X114894999Y-134120000D01*
X114666428Y-133977142D01*
X114209285Y-133977142D01*
X113980714Y-134120000D01*
X115009285Y-135834285D02*
X114780714Y-135977142D01*
X114209285Y-135977142D01*
X113980714Y-135834285D01*
X113866428Y-135548571D01*
X113866428Y-135262857D01*
X113980714Y-134977142D01*
X114209285Y-134834285D01*
X114780714Y-134834285D01*
X115009285Y-134691428D01*
X115809285Y-133977142D02*
X116723571Y-133977142D01*
X116152142Y-132977142D02*
X116152142Y-135548571D01*
X116266428Y-135834285D01*
X116494999Y-135977142D01*
X116723571Y-135977142D01*
X120609285Y-135977142D02*
X119237857Y-135977142D01*
X119923571Y-135977142D02*
X119923571Y-132977142D01*
X119694999Y-133405714D01*
X119466428Y-133691428D01*
X119237857Y-133834285D01*
X123466428Y-134834285D02*
X125294999Y-134834285D01*
X128152142Y-135120000D02*
X129294999Y-135120000D01*
X127923571Y-135977142D02*
X128723571Y-132977142D01*
X129523571Y-135977142D01*
X130323571Y-133977142D02*
X130323571Y-135977142D01*
X130323571Y-134262857D02*
X130437857Y-134120000D01*
X130666428Y-133977142D01*
X131009285Y-133977142D01*
X131237857Y-134120000D01*
X131352142Y-134405714D01*
X131352142Y-135977142D01*
X132152142Y-133977142D02*
X133066428Y-133977142D01*
X132494999Y-132977142D02*
X132494999Y-135548571D01*
X132609285Y-135834285D01*
X132837857Y-135977142D01*
X133066428Y-135977142D01*
X134780714Y-135834285D02*
X134552142Y-135977142D01*
X134094999Y-135977142D01*
X133866428Y-135834285D01*
X133752142Y-135548571D01*
X133752142Y-134405714D01*
X133866428Y-134120000D01*
X134094999Y-133977142D01*
X134552142Y-133977142D01*
X134780714Y-134120000D01*
X134895000Y-134405714D01*
X134895000Y-134691428D01*
X133752142Y-134977142D01*
X135923571Y-133977142D02*
X135923571Y-135977142D01*
X135923571Y-134262857D02*
X136037857Y-134120000D01*
X136266428Y-133977142D01*
X136609285Y-133977142D01*
X136837857Y-134120000D01*
X136952142Y-134405714D01*
X136952142Y-135977142D01*
X138095000Y-133977142D02*
X138095000Y-135977142D01*
X138095000Y-134262857D02*
X138209285Y-134120000D01*
X138437857Y-133977142D01*
X138780714Y-133977142D01*
X139009285Y-134120000D01*
X139123571Y-134405714D01*
X139123571Y-135977142D01*
X141295000Y-135977142D02*
X141295000Y-134405714D01*
X141180714Y-134120000D01*
X140952142Y-133977142D01*
X140495000Y-133977142D01*
X140266428Y-134120000D01*
X141295000Y-135834285D02*
X141066428Y-135977142D01*
X140495000Y-135977142D01*
X140266428Y-135834285D01*
X140152142Y-135548571D01*
X140152142Y-135262857D01*
X140266428Y-134977142D01*
X140495000Y-134834285D01*
X141066428Y-134834285D01*
X141295000Y-134691428D01*
X144266428Y-135977142D02*
X144266428Y-132977142D01*
X145409285Y-135977142D02*
X145409285Y-133977142D01*
X145409285Y-134262857D02*
X145523571Y-134120000D01*
X145752142Y-133977142D01*
X146095000Y-133977142D01*
X146323571Y-134120000D01*
X146437857Y-134405714D01*
X146437857Y-135977142D01*
X146437857Y-134405714D02*
X146552142Y-134120000D01*
X146780714Y-133977142D01*
X147123571Y-133977142D01*
X147352142Y-134120000D01*
X147466428Y-134405714D01*
X147466428Y-135977142D01*
X148609285Y-133977142D02*
X148609285Y-136977142D01*
X148609285Y-134120000D02*
X148837857Y-133977142D01*
X149295000Y-133977142D01*
X149523571Y-134120000D01*
X149637857Y-134262857D01*
X149752142Y-134548571D01*
X149752142Y-135405714D01*
X149637857Y-135691428D01*
X149523571Y-135834285D01*
X149295000Y-135977142D01*
X148837857Y-135977142D01*
X148609285Y-135834285D01*
X151695000Y-135834285D02*
X151466428Y-135977142D01*
X151009285Y-135977142D01*
X150780714Y-135834285D01*
X150666428Y-135548571D01*
X150666428Y-134405714D01*
X150780714Y-134120000D01*
X151009285Y-133977142D01*
X151466428Y-133977142D01*
X151695000Y-134120000D01*
X151809285Y-134405714D01*
X151809285Y-134691428D01*
X150666428Y-134977142D01*
X153866428Y-135977142D02*
X153866428Y-132977142D01*
X153866428Y-135834285D02*
X153637857Y-135977142D01*
X153180714Y-135977142D01*
X152952142Y-135834285D01*
X152837857Y-135691428D01*
X152723571Y-135405714D01*
X152723571Y-134548571D01*
X152837857Y-134262857D01*
X152952142Y-134120000D01*
X153180714Y-133977142D01*
X153637857Y-133977142D01*
X153866428Y-134120000D01*
X155009285Y-135977142D02*
X155009285Y-133977142D01*
X155009285Y-132977142D02*
X154895000Y-133120000D01*
X155009285Y-133262857D01*
X155123571Y-133120000D01*
X155009285Y-132977142D01*
X155009285Y-133262857D01*
X157180714Y-135977142D02*
X157180714Y-134405714D01*
X157066428Y-134120000D01*
X156837857Y-133977142D01*
X156380714Y-133977142D01*
X156152142Y-134120000D01*
X157180714Y-135834285D02*
X156952142Y-135977142D01*
X156380714Y-135977142D01*
X156152142Y-135834285D01*
X156037857Y-135548571D01*
X156037857Y-135262857D01*
X156152142Y-134977142D01*
X156380714Y-134834285D01*
X156952142Y-134834285D01*
X157180714Y-134691428D01*
X158323571Y-133977142D02*
X158323571Y-135977142D01*
X158323571Y-134262857D02*
X158437857Y-134120000D01*
X158666428Y-133977142D01*
X159009285Y-133977142D01*
X159237857Y-134120000D01*
X159352142Y-134405714D01*
X159352142Y-135977142D01*
X161523571Y-135834285D02*
X161295000Y-135977142D01*
X160837857Y-135977142D01*
X160609285Y-135834285D01*
X160495000Y-135691428D01*
X160380714Y-135405714D01*
X160380714Y-134548571D01*
X160495000Y-134262857D01*
X160609285Y-134120000D01*
X160837857Y-133977142D01*
X161295000Y-133977142D01*
X161523571Y-134120000D01*
X163466428Y-135834285D02*
X163237857Y-135977142D01*
X162780714Y-135977142D01*
X162552142Y-135834285D01*
X162437857Y-135548571D01*
X162437857Y-134405714D01*
X162552142Y-134120000D01*
X162780714Y-133977142D01*
X163237857Y-133977142D01*
X163466428Y-134120000D01*
X163580714Y-134405714D01*
X163580714Y-134691428D01*
X162437857Y-134977142D01*
X166437857Y-135977142D02*
X166437857Y-132977142D01*
X167237857Y-135120000D01*
X168037857Y-132977142D01*
X168037857Y-135977142D01*
X170209285Y-135977142D02*
X170209285Y-134405714D01*
X170095000Y-134120000D01*
X169866428Y-133977142D01*
X169409285Y-133977142D01*
X169180714Y-134120000D01*
X170209285Y-135834285D02*
X169980714Y-135977142D01*
X169409285Y-135977142D01*
X169180714Y-135834285D01*
X169066428Y-135548571D01*
X169066428Y-135262857D01*
X169180714Y-134977142D01*
X169409285Y-134834285D01*
X169980714Y-134834285D01*
X170209285Y-134691428D01*
X171009285Y-133977142D02*
X171923571Y-133977142D01*
X171352142Y-132977142D02*
X171352142Y-135548571D01*
X171466428Y-135834285D01*
X171695000Y-135977142D01*
X171923571Y-135977142D01*
X173752142Y-135834285D02*
X173523571Y-135977142D01*
X173066428Y-135977142D01*
X172837857Y-135834285D01*
X172723571Y-135691428D01*
X172609285Y-135405714D01*
X172609285Y-134548571D01*
X172723571Y-134262857D01*
X172837857Y-134120000D01*
X173066428Y-133977142D01*
X173523571Y-133977142D01*
X173752142Y-134120000D01*
X174780714Y-135977142D02*
X174780714Y-132977142D01*
X175809285Y-135977142D02*
X175809285Y-134405714D01*
X175695000Y-134120000D01*
X175466428Y-133977142D01*
X175123571Y-133977142D01*
X174895000Y-134120000D01*
X174780714Y-134262857D01*
X176952142Y-135977142D02*
X176952142Y-133977142D01*
X176952142Y-132977142D02*
X176837857Y-133120000D01*
X176952142Y-133262857D01*
X177066428Y-133120000D01*
X176952142Y-132977142D01*
X176952142Y-133262857D01*
X178095000Y-133977142D02*
X178095000Y-135977142D01*
X178095000Y-134262857D02*
X178209285Y-134120000D01*
X178437857Y-133977142D01*
X178780714Y-133977142D01*
X179009285Y-134120000D01*
X179123571Y-134405714D01*
X179123571Y-135977142D01*
X181295000Y-133977142D02*
X181295000Y-136405714D01*
X181180714Y-136691428D01*
X181066428Y-136834285D01*
X180837857Y-136977142D01*
X180495000Y-136977142D01*
X180266428Y-136834285D01*
X181295000Y-135834285D02*
X181066428Y-135977142D01*
X180609285Y-135977142D01*
X180380714Y-135834285D01*
X180266428Y-135691428D01*
X180152142Y-135405714D01*
X180152142Y-134548571D01*
X180266428Y-134262857D01*
X180380714Y-134120000D01*
X180609285Y-133977142D01*
X181066428Y-133977142D01*
X181295000Y-134120000D01*
X185066428Y-134405714D02*
X185409285Y-134548571D01*
X185523571Y-134691428D01*
X185637857Y-134977142D01*
X185637857Y-135405714D01*
X185523571Y-135691428D01*
X185409285Y-135834285D01*
X185180714Y-135977142D01*
X184266428Y-135977142D01*
X184266428Y-132977142D01*
X185066428Y-132977142D01*
X185295000Y-133120000D01*
X185409285Y-133262857D01*
X185523571Y-133548571D01*
X185523571Y-133834285D01*
X185409285Y-134120000D01*
X185295000Y-134262857D01*
X185066428Y-134405714D01*
X184266428Y-134405714D01*
X187009285Y-135977142D02*
X186780714Y-135834285D01*
X186666428Y-135691428D01*
X186552142Y-135405714D01*
X186552142Y-134548571D01*
X186666428Y-134262857D01*
X186780714Y-134120000D01*
X187009285Y-133977142D01*
X187352142Y-133977142D01*
X187580714Y-134120000D01*
X187695000Y-134262857D01*
X187809285Y-134548571D01*
X187809285Y-135405714D01*
X187695000Y-135691428D01*
X187580714Y-135834285D01*
X187352142Y-135977142D01*
X187009285Y-135977142D01*
X189866428Y-135977142D02*
X189866428Y-134405714D01*
X189752142Y-134120000D01*
X189523571Y-133977142D01*
X189066428Y-133977142D01*
X188837857Y-134120000D01*
X189866428Y-135834285D02*
X189637857Y-135977142D01*
X189066428Y-135977142D01*
X188837857Y-135834285D01*
X188723571Y-135548571D01*
X188723571Y-135262857D01*
X188837857Y-134977142D01*
X189066428Y-134834285D01*
X189637857Y-134834285D01*
X189866428Y-134691428D01*
X191009285Y-135977142D02*
X191009285Y-133977142D01*
X191009285Y-134548571D02*
X191123571Y-134262857D01*
X191237857Y-134120000D01*
X191466428Y-133977142D01*
X191695000Y-133977142D01*
X193523571Y-135977142D02*
X193523571Y-132977142D01*
X193523571Y-135834285D02*
X193295000Y-135977142D01*
X192837857Y-135977142D01*
X192609285Y-135834285D01*
X192495000Y-135691428D01*
X192380714Y-135405714D01*
X192380714Y-134548571D01*
X192495000Y-134262857D01*
X192609285Y-134120000D01*
X192837857Y-133977142D01*
X193295000Y-133977142D01*
X193523571Y-134120000D01*
D11*
G04 #@! TO.C,AE1*
X136930000Y-115975000D02*
X139930000Y-115975000D01*
G04 #@! TO.C,AE2*
X136930000Y-125500000D02*
X139930000Y-125500000D01*
D12*
G04 #@! TO.C,C1*
X144565000Y-119785000D02*
X144565000Y-120785000D01*
X146265000Y-120785000D02*
X146265000Y-119785000D01*
G04 #@! TO.C,C2*
X146265000Y-130405000D02*
X146265000Y-129405000D01*
X144565000Y-129405000D02*
X144565000Y-130405000D01*
D11*
G04 #@! TO.C,J1*
X158520000Y-115975000D02*
X161520000Y-115975000D01*
G04 #@! TO.C,J2*
X158520000Y-125500000D02*
X161520000Y-125500000D01*
G04 #@! TO.C,L1*
X152765000Y-117830000D02*
X150765000Y-117830000D01*
X152765000Y-119660000D02*
X150765000Y-119660000D01*
G04 #@! TO.C,L2*
X152525000Y-129185000D02*
X150525000Y-129185000D01*
X152525000Y-127355000D02*
X150525000Y-127355000D01*
G04 #@! TD*
G04 #@! TO.C,REF\002A\002A*
D13*
X111696666Y-48712380D02*
X111363333Y-48236190D01*
X111125238Y-48712380D02*
X111125238Y-47712380D01*
X111506190Y-47712380D01*
X111601428Y-47760000D01*
X111649047Y-47807619D01*
X111696666Y-47902857D01*
X111696666Y-48045714D01*
X111649047Y-48140952D01*
X111601428Y-48188571D01*
X111506190Y-48236190D01*
X111125238Y-48236190D01*
X112125238Y-48188571D02*
X112458571Y-48188571D01*
X112601428Y-48712380D02*
X112125238Y-48712380D01*
X112125238Y-47712380D01*
X112601428Y-47712380D01*
X113363333Y-48188571D02*
X113030000Y-48188571D01*
X113030000Y-48712380D02*
X113030000Y-47712380D01*
X113506190Y-47712380D01*
X114030000Y-47712380D02*
X114030000Y-47950476D01*
X113791904Y-47855238D02*
X114030000Y-47950476D01*
X114268095Y-47855238D01*
X113887142Y-48140952D02*
X114030000Y-47950476D01*
X114172857Y-48140952D01*
X114791904Y-47712380D02*
X114791904Y-47950476D01*
X114553809Y-47855238D02*
X114791904Y-47950476D01*
X115030000Y-47855238D01*
X114649047Y-48140952D02*
X114791904Y-47950476D01*
X114934761Y-48140952D01*
X185356666Y-48712380D02*
X185023333Y-48236190D01*
X184785238Y-48712380D02*
X184785238Y-47712380D01*
X185166190Y-47712380D01*
X185261428Y-47760000D01*
X185309047Y-47807619D01*
X185356666Y-47902857D01*
X185356666Y-48045714D01*
X185309047Y-48140952D01*
X185261428Y-48188571D01*
X185166190Y-48236190D01*
X184785238Y-48236190D01*
X185785238Y-48188571D02*
X186118571Y-48188571D01*
X186261428Y-48712380D02*
X185785238Y-48712380D01*
X185785238Y-47712380D01*
X186261428Y-47712380D01*
X187023333Y-48188571D02*
X186690000Y-48188571D01*
X186690000Y-48712380D02*
X186690000Y-47712380D01*
X187166190Y-47712380D01*
X187690000Y-47712380D02*
X187690000Y-47950476D01*
X187451904Y-47855238D02*
X187690000Y-47950476D01*
X187928095Y-47855238D01*
X187547142Y-48140952D02*
X187690000Y-47950476D01*
X187832857Y-48140952D01*
X188451904Y-47712380D02*
X188451904Y-47950476D01*
X188213809Y-47855238D02*
X188451904Y-47950476D01*
X188690000Y-47855238D01*
X188309047Y-48140952D02*
X188451904Y-47950476D01*
X188594761Y-48140952D01*
X101536666Y-138882380D02*
X101203333Y-138406190D01*
X100965238Y-138882380D02*
X100965238Y-137882380D01*
X101346190Y-137882380D01*
X101441428Y-137930000D01*
X101489047Y-137977619D01*
X101536666Y-138072857D01*
X101536666Y-138215714D01*
X101489047Y-138310952D01*
X101441428Y-138358571D01*
X101346190Y-138406190D01*
X100965238Y-138406190D01*
X101965238Y-138358571D02*
X102298571Y-138358571D01*
X102441428Y-138882380D02*
X101965238Y-138882380D01*
X101965238Y-137882380D01*
X102441428Y-137882380D01*
X103203333Y-138358571D02*
X102870000Y-138358571D01*
X102870000Y-138882380D02*
X102870000Y-137882380D01*
X103346190Y-137882380D01*
X103870000Y-137882380D02*
X103870000Y-138120476D01*
X103631904Y-138025238D02*
X103870000Y-138120476D01*
X104108095Y-138025238D01*
X103727142Y-138310952D02*
X103870000Y-138120476D01*
X104012857Y-138310952D01*
X104631904Y-137882380D02*
X104631904Y-138120476D01*
X104393809Y-138025238D02*
X104631904Y-138120476D01*
X104870000Y-138025238D01*
X104489047Y-138310952D02*
X104631904Y-138120476D01*
X104774761Y-138310952D01*
X197421666Y-139517380D02*
X197088333Y-139041190D01*
X196850238Y-139517380D02*
X196850238Y-138517380D01*
X197231190Y-138517380D01*
X197326428Y-138565000D01*
X197374047Y-138612619D01*
X197421666Y-138707857D01*
X197421666Y-138850714D01*
X197374047Y-138945952D01*
X197326428Y-138993571D01*
X197231190Y-139041190D01*
X196850238Y-139041190D01*
X197850238Y-138993571D02*
X198183571Y-138993571D01*
X198326428Y-139517380D02*
X197850238Y-139517380D01*
X197850238Y-138517380D01*
X198326428Y-138517380D01*
X199088333Y-138993571D02*
X198755000Y-138993571D01*
X198755000Y-139517380D02*
X198755000Y-138517380D01*
X199231190Y-138517380D01*
X199755000Y-138517380D02*
X199755000Y-138755476D01*
X199516904Y-138660238D02*
X199755000Y-138755476D01*
X199993095Y-138660238D01*
X199612142Y-138945952D02*
X199755000Y-138755476D01*
X199897857Y-138945952D01*
X200516904Y-138517380D02*
X200516904Y-138755476D01*
X200278809Y-138660238D02*
X200516904Y-138755476D01*
X200755000Y-138660238D01*
X200374047Y-138945952D02*
X200516904Y-138755476D01*
X200659761Y-138945952D01*
G04 #@! TO.C,AE1*
D14*
X137306899Y-115171099D02*
X137612212Y-115171099D01*
X137245836Y-115354288D02*
X137459556Y-114713129D01*
X137673275Y-115354288D01*
X137886995Y-115018442D02*
X138100715Y-115018442D01*
X138192309Y-115354288D02*
X137886995Y-115354288D01*
X137886995Y-114713129D01*
X138192309Y-114713129D01*
X138802936Y-115354288D02*
X138436560Y-115354288D01*
X138619748Y-115354288D02*
X138619748Y-114713129D01*
X138558685Y-114804723D01*
X138497623Y-114865786D01*
X138436560Y-114896317D01*
D15*
X133166828Y-120686564D02*
X133166828Y-119886564D01*
X133433495Y-120457993D01*
X133700162Y-119886564D01*
X133700162Y-120686564D01*
X134195400Y-120686564D02*
X134119209Y-120648469D01*
X134081114Y-120610374D01*
X134043019Y-120534183D01*
X134043019Y-120305612D01*
X134081114Y-120229421D01*
X134119209Y-120191326D01*
X134195400Y-120153231D01*
X134309686Y-120153231D01*
X134385876Y-120191326D01*
X134423971Y-120229421D01*
X134462067Y-120305612D01*
X134462067Y-120534183D01*
X134423971Y-120610374D01*
X134385876Y-120648469D01*
X134309686Y-120686564D01*
X134195400Y-120686564D01*
X134804924Y-120153231D02*
X134804924Y-120686564D01*
X134804924Y-120229421D02*
X134843019Y-120191326D01*
X134919209Y-120153231D01*
X135033495Y-120153231D01*
X135109686Y-120191326D01*
X135147781Y-120267517D01*
X135147781Y-120686564D01*
X135643019Y-120686564D02*
X135566828Y-120648469D01*
X135528733Y-120610374D01*
X135490638Y-120534183D01*
X135490638Y-120305612D01*
X135528733Y-120229421D01*
X135566828Y-120191326D01*
X135643019Y-120153231D01*
X135757305Y-120153231D01*
X135833495Y-120191326D01*
X135871590Y-120229421D01*
X135909686Y-120305612D01*
X135909686Y-120534183D01*
X135871590Y-120610374D01*
X135833495Y-120648469D01*
X135757305Y-120686564D01*
X135643019Y-120686564D01*
X136252543Y-120153231D02*
X136252543Y-120953231D01*
X136252543Y-120191326D02*
X136328733Y-120153231D01*
X136481114Y-120153231D01*
X136557305Y-120191326D01*
X136595400Y-120229421D01*
X136633495Y-120305612D01*
X136633495Y-120534183D01*
X136595400Y-120610374D01*
X136557305Y-120648469D01*
X136481114Y-120686564D01*
X136328733Y-120686564D01*
X136252543Y-120648469D01*
X137090638Y-120686564D02*
X137014447Y-120648469D01*
X136976352Y-120610374D01*
X136938257Y-120534183D01*
X136938257Y-120305612D01*
X136976352Y-120229421D01*
X137014447Y-120191326D01*
X137090638Y-120153231D01*
X137204924Y-120153231D01*
X137281114Y-120191326D01*
X137319209Y-120229421D01*
X137357305Y-120305612D01*
X137357305Y-120534183D01*
X137319209Y-120610374D01*
X137281114Y-120648469D01*
X137204924Y-120686564D01*
X137090638Y-120686564D01*
X137814447Y-120686564D02*
X137738257Y-120648469D01*
X137700162Y-120572279D01*
X137700162Y-119886564D01*
X138423971Y-120648469D02*
X138347781Y-120686564D01*
X138195400Y-120686564D01*
X138119209Y-120648469D01*
X138081114Y-120572279D01*
X138081114Y-120267517D01*
X138119209Y-120191326D01*
X138195400Y-120153231D01*
X138347781Y-120153231D01*
X138423971Y-120191326D01*
X138462067Y-120267517D01*
X138462067Y-120343707D01*
X138081114Y-120419898D01*
X139376352Y-120457993D02*
X139757305Y-120457993D01*
X139300162Y-120686564D02*
X139566828Y-119886564D01*
X139833495Y-120686564D01*
X140100162Y-120153231D02*
X140100162Y-120686564D01*
X140100162Y-120229421D02*
X140138257Y-120191326D01*
X140214447Y-120153231D01*
X140328733Y-120153231D01*
X140404924Y-120191326D01*
X140443019Y-120267517D01*
X140443019Y-120686564D01*
X140709686Y-120153231D02*
X141014447Y-120153231D01*
X140823971Y-119886564D02*
X140823971Y-120572279D01*
X140862067Y-120648469D01*
X140938257Y-120686564D01*
X141014447Y-120686564D01*
X141585876Y-120648469D02*
X141509686Y-120686564D01*
X141357305Y-120686564D01*
X141281114Y-120648469D01*
X141243019Y-120572279D01*
X141243019Y-120267517D01*
X141281114Y-120191326D01*
X141357305Y-120153231D01*
X141509686Y-120153231D01*
X141585876Y-120191326D01*
X141623971Y-120267517D01*
X141623971Y-120343707D01*
X141243019Y-120419898D01*
X141966828Y-120153231D02*
X141966828Y-120686564D01*
X141966828Y-120229421D02*
X142004924Y-120191326D01*
X142081114Y-120153231D01*
X142195400Y-120153231D01*
X142271590Y-120191326D01*
X142309686Y-120267517D01*
X142309686Y-120686564D01*
X142690638Y-120153231D02*
X142690638Y-120686564D01*
X142690638Y-120229421D02*
X142728733Y-120191326D01*
X142804924Y-120153231D01*
X142919209Y-120153231D01*
X142995400Y-120191326D01*
X143033495Y-120267517D01*
X143033495Y-120686564D01*
X143757305Y-120686564D02*
X143757305Y-120267517D01*
X143719209Y-120191326D01*
X143643019Y-120153231D01*
X143490638Y-120153231D01*
X143414447Y-120191326D01*
X143757305Y-120648469D02*
X143681114Y-120686564D01*
X143490638Y-120686564D01*
X143414447Y-120648469D01*
X143376352Y-120572279D01*
X143376352Y-120496088D01*
X143414447Y-120419898D01*
X143490638Y-120381802D01*
X143681114Y-120381802D01*
X143757305Y-120343707D01*
G04 #@! TO.C,AE2*
D14*
X137306899Y-124696099D02*
X137612212Y-124696099D01*
X137245836Y-124879288D02*
X137459556Y-124238129D01*
X137673275Y-124879288D01*
X137886995Y-124543442D02*
X138100715Y-124543442D01*
X138192309Y-124879288D02*
X137886995Y-124879288D01*
X137886995Y-124238129D01*
X138192309Y-124238129D01*
X138436560Y-124299191D02*
X138467091Y-124268660D01*
X138528154Y-124238129D01*
X138680811Y-124238129D01*
X138741874Y-124268660D01*
X138772405Y-124299191D01*
X138802936Y-124360254D01*
X138802936Y-124421317D01*
X138772405Y-124512911D01*
X138406028Y-124879288D01*
X138802936Y-124879288D01*
D15*
X134119209Y-130211564D02*
X134119209Y-129411564D01*
X134309686Y-129411564D01*
X134423971Y-129449660D01*
X134500162Y-129525850D01*
X134538257Y-129602040D01*
X134576352Y-129754421D01*
X134576352Y-129868707D01*
X134538257Y-130021088D01*
X134500162Y-130097279D01*
X134423971Y-130173469D01*
X134309686Y-130211564D01*
X134119209Y-130211564D01*
X134919209Y-130211564D02*
X134919209Y-129678231D01*
X134919209Y-129411564D02*
X134881114Y-129449660D01*
X134919209Y-129487755D01*
X134957305Y-129449660D01*
X134919209Y-129411564D01*
X134919209Y-129487755D01*
X135300162Y-129678231D02*
X135300162Y-130478231D01*
X135300162Y-129716326D02*
X135376352Y-129678231D01*
X135528733Y-129678231D01*
X135604924Y-129716326D01*
X135643019Y-129754421D01*
X135681114Y-129830612D01*
X135681114Y-130059183D01*
X135643019Y-130135374D01*
X135604924Y-130173469D01*
X135528733Y-130211564D01*
X135376352Y-130211564D01*
X135300162Y-130173469D01*
X136138257Y-130211564D02*
X136062067Y-130173469D01*
X136023971Y-130135374D01*
X135985876Y-130059183D01*
X135985876Y-129830612D01*
X136023971Y-129754421D01*
X136062067Y-129716326D01*
X136138257Y-129678231D01*
X136252543Y-129678231D01*
X136328733Y-129716326D01*
X136366828Y-129754421D01*
X136404924Y-129830612D01*
X136404924Y-130059183D01*
X136366828Y-130135374D01*
X136328733Y-130173469D01*
X136252543Y-130211564D01*
X136138257Y-130211564D01*
X136862067Y-130211564D02*
X136785876Y-130173469D01*
X136747781Y-130097279D01*
X136747781Y-129411564D01*
X137471590Y-130173469D02*
X137395400Y-130211564D01*
X137243019Y-130211564D01*
X137166828Y-130173469D01*
X137128733Y-130097279D01*
X137128733Y-129792517D01*
X137166828Y-129716326D01*
X137243019Y-129678231D01*
X137395400Y-129678231D01*
X137471590Y-129716326D01*
X137509686Y-129792517D01*
X137509686Y-129868707D01*
X137128733Y-129944898D01*
X138423971Y-129982993D02*
X138804924Y-129982993D01*
X138347781Y-130211564D02*
X138614447Y-129411564D01*
X138881114Y-130211564D01*
X139147781Y-129678231D02*
X139147781Y-130211564D01*
X139147781Y-129754421D02*
X139185876Y-129716326D01*
X139262067Y-129678231D01*
X139376352Y-129678231D01*
X139452543Y-129716326D01*
X139490638Y-129792517D01*
X139490638Y-130211564D01*
X139757305Y-129678231D02*
X140062067Y-129678231D01*
X139871590Y-129411564D02*
X139871590Y-130097279D01*
X139909686Y-130173469D01*
X139985876Y-130211564D01*
X140062067Y-130211564D01*
X140633495Y-130173469D02*
X140557305Y-130211564D01*
X140404924Y-130211564D01*
X140328733Y-130173469D01*
X140290638Y-130097279D01*
X140290638Y-129792517D01*
X140328733Y-129716326D01*
X140404924Y-129678231D01*
X140557305Y-129678231D01*
X140633495Y-129716326D01*
X140671590Y-129792517D01*
X140671590Y-129868707D01*
X140290638Y-129944898D01*
X141014447Y-129678231D02*
X141014447Y-130211564D01*
X141014447Y-129754421D02*
X141052543Y-129716326D01*
X141128733Y-129678231D01*
X141243019Y-129678231D01*
X141319209Y-129716326D01*
X141357305Y-129792517D01*
X141357305Y-130211564D01*
X141738257Y-129678231D02*
X141738257Y-130211564D01*
X141738257Y-129754421D02*
X141776352Y-129716326D01*
X141852543Y-129678231D01*
X141966828Y-129678231D01*
X142043019Y-129716326D01*
X142081114Y-129792517D01*
X142081114Y-130211564D01*
X142804924Y-130211564D02*
X142804924Y-129792517D01*
X142766828Y-129716326D01*
X142690638Y-129678231D01*
X142538257Y-129678231D01*
X142462067Y-129716326D01*
X142804924Y-130173469D02*
X142728733Y-130211564D01*
X142538257Y-130211564D01*
X142462067Y-130173469D01*
X142423971Y-130097279D01*
X142423971Y-130021088D01*
X142462067Y-129944898D01*
X142538257Y-129906802D01*
X142728733Y-129906802D01*
X142804924Y-129868707D01*
G04 #@! TO.C,C1*
D13*
X147272142Y-120451666D02*
X147319761Y-120499285D01*
X147367380Y-120642142D01*
X147367380Y-120737380D01*
X147319761Y-120880238D01*
X147224523Y-120975476D01*
X147129285Y-121023095D01*
X146938809Y-121070714D01*
X146795952Y-121070714D01*
X146605476Y-121023095D01*
X146510238Y-120975476D01*
X146415000Y-120880238D01*
X146367380Y-120737380D01*
X146367380Y-120642142D01*
X146415000Y-120499285D01*
X146462619Y-120451666D01*
X147367380Y-119499285D02*
X147367380Y-120070714D01*
X147367380Y-119785000D02*
X146367380Y-119785000D01*
X146510238Y-119880238D01*
X146605476Y-119975476D01*
X146653095Y-120070714D01*
G04 #@! TO.C,C2*
X147272142Y-130071666D02*
X147319761Y-130119285D01*
X147367380Y-130262142D01*
X147367380Y-130357380D01*
X147319761Y-130500238D01*
X147224523Y-130595476D01*
X147129285Y-130643095D01*
X146938809Y-130690714D01*
X146795952Y-130690714D01*
X146605476Y-130643095D01*
X146510238Y-130595476D01*
X146415000Y-130500238D01*
X146367380Y-130357380D01*
X146367380Y-130262142D01*
X146415000Y-130119285D01*
X146462619Y-130071666D01*
X146462619Y-129690714D02*
X146415000Y-129643095D01*
X146367380Y-129547857D01*
X146367380Y-129309761D01*
X146415000Y-129214523D01*
X146462619Y-129166904D01*
X146557857Y-129119285D01*
X146653095Y-129119285D01*
X146795952Y-129166904D01*
X147367380Y-129738333D01*
X147367380Y-129119285D01*
G04 #@! TO.C,J1*
D14*
X159431198Y-114713129D02*
X159431198Y-115171099D01*
X159400666Y-115262693D01*
X159339604Y-115323756D01*
X159248010Y-115354288D01*
X159186947Y-115354288D01*
X160072357Y-115354288D02*
X159705980Y-115354288D01*
X159889169Y-115354288D02*
X159889169Y-114713129D01*
X159828106Y-114804723D01*
X159767043Y-114865786D01*
X159705980Y-114896317D01*
D15*
X157613971Y-120686564D02*
X157347305Y-120305612D01*
X157156828Y-120686564D02*
X157156828Y-119886564D01*
X157461590Y-119886564D01*
X157537781Y-119924660D01*
X157575876Y-119962755D01*
X157613971Y-120038945D01*
X157613971Y-120153231D01*
X157575876Y-120229421D01*
X157537781Y-120267517D01*
X157461590Y-120305612D01*
X157156828Y-120305612D01*
X158223495Y-120267517D02*
X157956828Y-120267517D01*
X157956828Y-120686564D02*
X157956828Y-119886564D01*
X158337781Y-119886564D01*
X158452067Y-120762755D02*
X159061590Y-120762755D01*
X159213971Y-120648469D02*
X159328257Y-120686564D01*
X159518733Y-120686564D01*
X159594924Y-120648469D01*
X159633019Y-120610374D01*
X159671114Y-120534183D01*
X159671114Y-120457993D01*
X159633019Y-120381802D01*
X159594924Y-120343707D01*
X159518733Y-120305612D01*
X159366352Y-120267517D01*
X159290162Y-120229421D01*
X159252067Y-120191326D01*
X159213971Y-120115136D01*
X159213971Y-120038945D01*
X159252067Y-119962755D01*
X159290162Y-119924660D01*
X159366352Y-119886564D01*
X159556828Y-119886564D01*
X159671114Y-119924660D01*
X160128257Y-120686564D02*
X160052067Y-120648469D01*
X160013971Y-120610374D01*
X159975876Y-120534183D01*
X159975876Y-120305612D01*
X160013971Y-120229421D01*
X160052067Y-120191326D01*
X160128257Y-120153231D01*
X160242543Y-120153231D01*
X160318733Y-120191326D01*
X160356828Y-120229421D01*
X160394924Y-120305612D01*
X160394924Y-120534183D01*
X160356828Y-120610374D01*
X160318733Y-120648469D01*
X160242543Y-120686564D01*
X160128257Y-120686564D01*
X161080638Y-120153231D02*
X161080638Y-120686564D01*
X160737781Y-120153231D02*
X160737781Y-120572279D01*
X160775876Y-120648469D01*
X160852067Y-120686564D01*
X160966352Y-120686564D01*
X161042543Y-120648469D01*
X161080638Y-120610374D01*
X161461590Y-120686564D02*
X161461590Y-120153231D01*
X161461590Y-120305612D02*
X161499686Y-120229421D01*
X161537781Y-120191326D01*
X161613971Y-120153231D01*
X161690162Y-120153231D01*
X162299686Y-120648469D02*
X162223495Y-120686564D01*
X162071114Y-120686564D01*
X161994924Y-120648469D01*
X161956828Y-120610374D01*
X161918733Y-120534183D01*
X161918733Y-120305612D01*
X161956828Y-120229421D01*
X161994924Y-120191326D01*
X162071114Y-120153231D01*
X162223495Y-120153231D01*
X162299686Y-120191326D01*
X162947305Y-120648469D02*
X162871114Y-120686564D01*
X162718733Y-120686564D01*
X162642543Y-120648469D01*
X162604447Y-120572279D01*
X162604447Y-120267517D01*
X162642543Y-120191326D01*
X162718733Y-120153231D01*
X162871114Y-120153231D01*
X162947305Y-120191326D01*
X162985400Y-120267517D01*
X162985400Y-120343707D01*
X162604447Y-120419898D01*
G04 #@! TO.C,J2*
D14*
X159431198Y-124238129D02*
X159431198Y-124696099D01*
X159400666Y-124787693D01*
X159339604Y-124848756D01*
X159248010Y-124879288D01*
X159186947Y-124879288D01*
X159705980Y-124299191D02*
X159736512Y-124268660D01*
X159797574Y-124238129D01*
X159950231Y-124238129D01*
X160011294Y-124268660D01*
X160041825Y-124299191D01*
X160072357Y-124360254D01*
X160072357Y-124421317D01*
X160041825Y-124512911D01*
X159675449Y-124879288D01*
X160072357Y-124879288D01*
D15*
X157613971Y-130211564D02*
X157347305Y-129830612D01*
X157156828Y-130211564D02*
X157156828Y-129411564D01*
X157461590Y-129411564D01*
X157537781Y-129449660D01*
X157575876Y-129487755D01*
X157613971Y-129563945D01*
X157613971Y-129678231D01*
X157575876Y-129754421D01*
X157537781Y-129792517D01*
X157461590Y-129830612D01*
X157156828Y-129830612D01*
X158223495Y-129792517D02*
X157956828Y-129792517D01*
X157956828Y-130211564D02*
X157956828Y-129411564D01*
X158337781Y-129411564D01*
X158452067Y-130287755D02*
X159061590Y-130287755D01*
X159213971Y-130173469D02*
X159328257Y-130211564D01*
X159518733Y-130211564D01*
X159594924Y-130173469D01*
X159633019Y-130135374D01*
X159671114Y-130059183D01*
X159671114Y-129982993D01*
X159633019Y-129906802D01*
X159594924Y-129868707D01*
X159518733Y-129830612D01*
X159366352Y-129792517D01*
X159290162Y-129754421D01*
X159252067Y-129716326D01*
X159213971Y-129640136D01*
X159213971Y-129563945D01*
X159252067Y-129487755D01*
X159290162Y-129449660D01*
X159366352Y-129411564D01*
X159556828Y-129411564D01*
X159671114Y-129449660D01*
X160128257Y-130211564D02*
X160052067Y-130173469D01*
X160013971Y-130135374D01*
X159975876Y-130059183D01*
X159975876Y-129830612D01*
X160013971Y-129754421D01*
X160052067Y-129716326D01*
X160128257Y-129678231D01*
X160242543Y-129678231D01*
X160318733Y-129716326D01*
X160356828Y-129754421D01*
X160394924Y-129830612D01*
X160394924Y-130059183D01*
X160356828Y-130135374D01*
X160318733Y-130173469D01*
X160242543Y-130211564D01*
X160128257Y-130211564D01*
X161080638Y-129678231D02*
X161080638Y-130211564D01*
X160737781Y-129678231D02*
X160737781Y-130097279D01*
X160775876Y-130173469D01*
X160852067Y-130211564D01*
X160966352Y-130211564D01*
X161042543Y-130173469D01*
X161080638Y-130135374D01*
X161461590Y-130211564D02*
X161461590Y-129678231D01*
X161461590Y-129830612D02*
X161499686Y-129754421D01*
X161537781Y-129716326D01*
X161613971Y-129678231D01*
X161690162Y-129678231D01*
X162299686Y-130173469D02*
X162223495Y-130211564D01*
X162071114Y-130211564D01*
X161994924Y-130173469D01*
X161956828Y-130135374D01*
X161918733Y-130059183D01*
X161918733Y-129830612D01*
X161956828Y-129754421D01*
X161994924Y-129716326D01*
X162071114Y-129678231D01*
X162223495Y-129678231D01*
X162299686Y-129716326D01*
X162947305Y-130173469D02*
X162871114Y-130211564D01*
X162718733Y-130211564D01*
X162642543Y-130173469D01*
X162604447Y-130097279D01*
X162604447Y-129792517D01*
X162642543Y-129716326D01*
X162718733Y-129678231D01*
X162871114Y-129678231D01*
X162947305Y-129716326D01*
X162985400Y-129792517D01*
X162985400Y-129868707D01*
X162604447Y-129944898D01*
G04 #@! TO.C,L1*
D14*
X151780034Y-120627651D02*
X151479643Y-120627651D01*
X151479643Y-119996830D01*
X152320737Y-120627651D02*
X151960268Y-120627651D01*
X152140503Y-120627651D02*
X152140503Y-119996830D01*
X152080425Y-120086947D01*
X152020346Y-120147025D01*
X151960268Y-120177064D01*
X150388414Y-116792588D02*
X150418448Y-116762555D01*
X150478516Y-116732521D01*
X150628685Y-116732521D01*
X150688753Y-116762555D01*
X150718786Y-116792588D01*
X150748820Y-116852656D01*
X150748820Y-116912724D01*
X150718786Y-117002825D01*
X150358381Y-117363231D01*
X150748820Y-117363231D01*
X151289429Y-116732521D02*
X151169294Y-116732521D01*
X151109226Y-116762555D01*
X151079192Y-116792588D01*
X151019124Y-116882690D01*
X150989091Y-117002825D01*
X150989091Y-117243095D01*
X151019124Y-117303163D01*
X151049158Y-117333197D01*
X151109226Y-117363231D01*
X151229361Y-117363231D01*
X151289429Y-117333197D01*
X151319463Y-117303163D01*
X151349496Y-117243095D01*
X151349496Y-117092926D01*
X151319463Y-117032859D01*
X151289429Y-117002825D01*
X151229361Y-116972791D01*
X151109226Y-116972791D01*
X151049158Y-117002825D01*
X151019124Y-117032859D01*
X150989091Y-117092926D01*
X151619801Y-116942757D02*
X151619801Y-117363231D01*
X151619801Y-117002825D02*
X151649834Y-116972791D01*
X151709902Y-116942757D01*
X151800004Y-116942757D01*
X151860071Y-116972791D01*
X151890105Y-117032859D01*
X151890105Y-117363231D01*
X152190443Y-117363231D02*
X152190443Y-116732521D01*
X152190443Y-117032859D02*
X152550849Y-117032859D01*
X152550849Y-117363231D02*
X152550849Y-116732521D01*
G04 #@! TO.C,L2*
X151540034Y-130152651D02*
X151239643Y-130152651D01*
X151239643Y-129521830D01*
X151720268Y-129581908D02*
X151750307Y-129551869D01*
X151810386Y-129521830D01*
X151960581Y-129521830D01*
X152020659Y-129551869D01*
X152050698Y-129581908D01*
X152080737Y-129641986D01*
X152080737Y-129702064D01*
X152050698Y-129792182D01*
X151690229Y-130152651D01*
X152080737Y-130152651D01*
X150058313Y-126888231D02*
X150178448Y-126888231D01*
X150238516Y-126858197D01*
X150268550Y-126828163D01*
X150328617Y-126738062D01*
X150358651Y-126617926D01*
X150358651Y-126377656D01*
X150328617Y-126317588D01*
X150298584Y-126287555D01*
X150238516Y-126257521D01*
X150118381Y-126257521D01*
X150058313Y-126287555D01*
X150028279Y-126317588D01*
X149998245Y-126377656D01*
X149998245Y-126527825D01*
X150028279Y-126587893D01*
X150058313Y-126617926D01*
X150118381Y-126647960D01*
X150238516Y-126647960D01*
X150298584Y-126617926D01*
X150328617Y-126587893D01*
X150358651Y-126527825D01*
X150628955Y-126828163D02*
X150658989Y-126858197D01*
X150628955Y-126888231D01*
X150598922Y-126858197D01*
X150628955Y-126828163D01*
X150628955Y-126888231D01*
X151019395Y-126527825D02*
X150959327Y-126497791D01*
X150929294Y-126467757D01*
X150899260Y-126407690D01*
X150899260Y-126377656D01*
X150929294Y-126317588D01*
X150959327Y-126287555D01*
X151019395Y-126257521D01*
X151139530Y-126257521D01*
X151199598Y-126287555D01*
X151229632Y-126317588D01*
X151259665Y-126377656D01*
X151259665Y-126407690D01*
X151229632Y-126467757D01*
X151199598Y-126497791D01*
X151139530Y-126527825D01*
X151019395Y-126527825D01*
X150959327Y-126557859D01*
X150929294Y-126587893D01*
X150899260Y-126647960D01*
X150899260Y-126768095D01*
X150929294Y-126828163D01*
X150959327Y-126858197D01*
X151019395Y-126888231D01*
X151139530Y-126888231D01*
X151199598Y-126858197D01*
X151229632Y-126828163D01*
X151259665Y-126768095D01*
X151259665Y-126647960D01*
X151229632Y-126587893D01*
X151199598Y-126557859D01*
X151139530Y-126527825D01*
X151529970Y-126467757D02*
X151529970Y-126888231D01*
X151529970Y-126527825D02*
X151560004Y-126497791D01*
X151620071Y-126467757D01*
X151710173Y-126467757D01*
X151770240Y-126497791D01*
X151800274Y-126557859D01*
X151800274Y-126888231D01*
X152100612Y-126888231D02*
X152100612Y-126257521D01*
X152100612Y-126557859D02*
X152461018Y-126557859D01*
X152461018Y-126888231D02*
X152461018Y-126257521D01*
G04 #@! TD*
M02*
