G04 #@! TF.GenerationSoftware,KiCad,Pcbnew,5.0.0*
G04 #@! TF.CreationDate,2018-07-30T22:32:49-05:00*
G04 #@! TF.ProjectId,AntennaImpedance,416E74656E6E61496D706564616E6365,rev?*
G04 #@! TF.SameCoordinates,Original*
G04 #@! TF.FileFunction,Copper,L1,Top,Signal*
G04 #@! TF.FilePolarity,Positive*
%FSLAX46Y46*%
G04 Gerber Fmt 4.6, Leading zero omitted, Abs format (unit mm)*
G04 Created by KiCad (PCBNEW 5.0.0) date Mon Jul 30 22:32:49 2018*
%MOMM*%
%LPD*%
G01*
G04 APERTURE LIST*
G04 #@! TA.AperFunction,SMDPad,CuDef*
%ADD10R,1.050000X2.200000*%
G04 #@! TD*
G04 #@! TA.AperFunction,SMDPad,CuDef*
%ADD11R,1.000000X1.050000*%
G04 #@! TD*
G04 #@! TA.AperFunction,SMDPad,CuDef*
%ADD12R,1.250000X1.000000*%
G04 #@! TD*
G04 #@! TA.AperFunction,SMDPad,CuDef*
%ADD13R,1.200000X1.500000*%
G04 #@! TD*
G04 #@! TA.AperFunction,Conductor*
%ADD14C,0.250000*%
G04 #@! TD*
G04 #@! TA.AperFunction,Conductor*
%ADD15C,0.254000*%
G04 #@! TD*
G04 APERTURE END LIST*
D10*
G04 #@! TO.P,AE1,2*
G04 #@! TO.N,N/C*
X136955000Y-117475000D03*
G04 #@! TO.P,AE1,3*
X139905000Y-117475000D03*
D11*
G04 #@! TO.P,AE1,1*
G04 #@! TO.N,Net-(AE1-Pad1)*
X138430000Y-119000000D03*
G04 #@! TD*
D10*
G04 #@! TO.P,AE2,2*
G04 #@! TO.N,N/C*
X136955000Y-127000000D03*
G04 #@! TO.P,AE2,3*
X139905000Y-127000000D03*
D11*
G04 #@! TO.P,AE2,1*
G04 #@! TO.N,Net-(AE2-Pad1)*
X138430000Y-128525000D03*
G04 #@! TD*
D12*
G04 #@! TO.P,C1,2*
G04 #@! TO.N,GND*
X145415000Y-121285000D03*
G04 #@! TO.P,C1,1*
G04 #@! TO.N,Net-(AE1-Pad1)*
X145415000Y-119285000D03*
G04 #@! TD*
G04 #@! TO.P,C2,1*
G04 #@! TO.N,Net-(AE2-Pad1)*
X145415000Y-128905000D03*
G04 #@! TO.P,C2,2*
G04 #@! TO.N,GND*
X145415000Y-130905000D03*
G04 #@! TD*
D11*
G04 #@! TO.P,J1,1*
G04 #@! TO.N,Net-(J1-Pad1)*
X160020000Y-119000000D03*
D10*
G04 #@! TO.P,J1,3*
G04 #@! TO.N,N/C*
X161495000Y-117475000D03*
G04 #@! TO.P,J1,2*
X158545000Y-117475000D03*
G04 #@! TD*
D11*
G04 #@! TO.P,J2,1*
G04 #@! TO.N,Net-(J2-Pad1)*
X160020000Y-128525000D03*
D10*
G04 #@! TO.P,J2,3*
G04 #@! TO.N,N/C*
X161495000Y-127000000D03*
G04 #@! TO.P,J2,2*
X158545000Y-127000000D03*
G04 #@! TD*
D13*
G04 #@! TO.P,L1,2*
G04 #@! TO.N,Net-(AE1-Pad1)*
X150890000Y-118745000D03*
G04 #@! TO.P,L1,1*
G04 #@! TO.N,Net-(J1-Pad1)*
X152640000Y-118745000D03*
G04 #@! TD*
G04 #@! TO.P,L2,1*
G04 #@! TO.N,Net-(J2-Pad1)*
X152400000Y-128270000D03*
G04 #@! TO.P,L2,2*
G04 #@! TO.N,Net-(AE2-Pad1)*
X150650000Y-128270000D03*
G04 #@! TD*
D14*
G04 #@! TO.N,Net-(AE1-Pad1)*
X144540000Y-119285000D02*
X145415000Y-119285000D01*
X138690000Y-119285000D02*
X144540000Y-119285000D01*
X138430000Y-119025000D02*
X138690000Y-119285000D01*
X138430000Y-119000000D02*
X138430000Y-119025000D01*
X150350000Y-119285000D02*
X150890000Y-118745000D01*
X145415000Y-119285000D02*
X150350000Y-119285000D01*
G04 #@! TO.N,Net-(AE2-Pad1)*
X145035000Y-128525000D02*
X145415000Y-128905000D01*
X138430000Y-128525000D02*
X145035000Y-128525000D01*
X150015000Y-128905000D02*
X150650000Y-128270000D01*
X145415000Y-128905000D02*
X150015000Y-128905000D01*
G04 #@! TO.N,Net-(J1-Pad1)*
X159270000Y-119000000D02*
X160020000Y-119000000D01*
X153745000Y-119000000D02*
X159270000Y-119000000D01*
X153490000Y-118745000D02*
X153745000Y-119000000D01*
X152640000Y-118745000D02*
X153490000Y-118745000D01*
G04 #@! TO.N,Net-(J2-Pad1)*
X159270000Y-128525000D02*
X160020000Y-128525000D01*
X153505000Y-128525000D02*
X159270000Y-128525000D01*
X153250000Y-128270000D02*
X153505000Y-128525000D01*
X152400000Y-128270000D02*
X153250000Y-128270000D01*
G04 #@! TD*
D15*
G04 #@! TO.N,GND*
G36*
X194802000Y-144537000D02*
X162642000Y-144537000D01*
X162642000Y-142512817D01*
X162654513Y-142467125D01*
X162651608Y-142444084D01*
X162656399Y-142420000D01*
X162642000Y-142347612D01*
X162642000Y-142341612D01*
X162639076Y-142326914D01*
X162639151Y-142255569D01*
X162620329Y-142209992D01*
X162617789Y-142180430D01*
X162605054Y-142155872D01*
X162599354Y-142127217D01*
X162572927Y-142087666D01*
X162548838Y-142019186D01*
X162546452Y-142016525D01*
X162546449Y-142016515D01*
X162514891Y-141979025D01*
X162503666Y-141952006D01*
X162483392Y-141931774D01*
X162464135Y-141897993D01*
X162414858Y-141859749D01*
X162409718Y-141853324D01*
X162407523Y-141851477D01*
X162405676Y-141849282D01*
X162399254Y-141844144D01*
X162361008Y-141794865D01*
X162327225Y-141775607D01*
X162306994Y-141755334D01*
X162279977Y-141744110D01*
X162242485Y-141712550D01*
X162242473Y-141712546D01*
X162239814Y-141710162D01*
X162171334Y-141686073D01*
X162131783Y-141659646D01*
X162103129Y-141653946D01*
X162078570Y-141641211D01*
X162049008Y-141638671D01*
X162003431Y-141619849D01*
X161932085Y-141619923D01*
X161917388Y-141617000D01*
X161891137Y-141617000D01*
X161791876Y-141604487D01*
X161746183Y-141617000D01*
X141597817Y-141617000D01*
X141552125Y-141604487D01*
X141452864Y-141617000D01*
X141426612Y-141617000D01*
X141411914Y-141619924D01*
X141340569Y-141619849D01*
X141294992Y-141638671D01*
X141265430Y-141641211D01*
X141240872Y-141653946D01*
X141212217Y-141659646D01*
X141172666Y-141686073D01*
X141104186Y-141710162D01*
X141101525Y-141712548D01*
X141101515Y-141712551D01*
X141064025Y-141744109D01*
X141037006Y-141755334D01*
X141016774Y-141775608D01*
X140982993Y-141794865D01*
X140944749Y-141844142D01*
X140938324Y-141849282D01*
X140936477Y-141851477D01*
X140934282Y-141853324D01*
X140929144Y-141859746D01*
X140879865Y-141897992D01*
X140860607Y-141931775D01*
X140840334Y-141952006D01*
X140829110Y-141979023D01*
X140797550Y-142016515D01*
X140797546Y-142016527D01*
X140795162Y-142019186D01*
X140771073Y-142087666D01*
X140744646Y-142127217D01*
X140738946Y-142155871D01*
X140726211Y-142180430D01*
X140723671Y-142209992D01*
X140704849Y-142255569D01*
X140704923Y-142326915D01*
X140702000Y-142341612D01*
X140702000Y-142367863D01*
X140689487Y-142467124D01*
X140702001Y-142512820D01*
X140702000Y-144537000D01*
X106252000Y-144537000D01*
X106252000Y-138625431D01*
X106985000Y-138625431D01*
X106985000Y-139514569D01*
X107325259Y-140336026D01*
X107953974Y-140964741D01*
X108775431Y-141305000D01*
X109664569Y-141305000D01*
X110486026Y-140964741D01*
X111114741Y-140336026D01*
X111455000Y-139514569D01*
X111455000Y-138625431D01*
X186995000Y-138625431D01*
X186995000Y-139514569D01*
X187335259Y-140336026D01*
X187963974Y-140964741D01*
X188785431Y-141305000D01*
X189674569Y-141305000D01*
X190496026Y-140964741D01*
X191124741Y-140336026D01*
X191465000Y-139514569D01*
X191465000Y-138625431D01*
X191124741Y-137803974D01*
X190496026Y-137175259D01*
X189674569Y-136835000D01*
X188785431Y-136835000D01*
X187963974Y-137175259D01*
X187335259Y-137803974D01*
X186995000Y-138625431D01*
X111455000Y-138625431D01*
X111114741Y-137803974D01*
X110486026Y-137175259D01*
X109664569Y-136835000D01*
X108775431Y-136835000D01*
X107953974Y-137175259D01*
X107325259Y-137803974D01*
X106985000Y-138625431D01*
X106252000Y-138625431D01*
X106252000Y-131190750D01*
X144155000Y-131190750D01*
X144155000Y-131531309D01*
X144251673Y-131764698D01*
X144430301Y-131943327D01*
X144663690Y-132040000D01*
X145129250Y-132040000D01*
X145288000Y-131881250D01*
X145288000Y-131032000D01*
X145542000Y-131032000D01*
X145542000Y-131881250D01*
X145700750Y-132040000D01*
X146166310Y-132040000D01*
X146399699Y-131943327D01*
X146578327Y-131764698D01*
X146675000Y-131531309D01*
X146675000Y-131190750D01*
X146516250Y-131032000D01*
X145542000Y-131032000D01*
X145288000Y-131032000D01*
X144313750Y-131032000D01*
X144155000Y-131190750D01*
X106252000Y-131190750D01*
X106252000Y-125900000D01*
X135782560Y-125900000D01*
X135782560Y-128100000D01*
X135831843Y-128347765D01*
X135972191Y-128557809D01*
X136182235Y-128698157D01*
X136430000Y-128747440D01*
X137282560Y-128747440D01*
X137282560Y-129050000D01*
X137331843Y-129297765D01*
X137472191Y-129507809D01*
X137682235Y-129648157D01*
X137930000Y-129697440D01*
X138930000Y-129697440D01*
X139177765Y-129648157D01*
X139387809Y-129507809D01*
X139528157Y-129297765D01*
X139530696Y-129285000D01*
X144142560Y-129285000D01*
X144142560Y-129405000D01*
X144191843Y-129652765D01*
X144332191Y-129862809D01*
X144393320Y-129903654D01*
X144251673Y-130045302D01*
X144155000Y-130278691D01*
X144155000Y-130619250D01*
X144313750Y-130778000D01*
X145288000Y-130778000D01*
X145288000Y-130758000D01*
X145542000Y-130758000D01*
X145542000Y-130778000D01*
X146516250Y-130778000D01*
X146675000Y-130619250D01*
X146675000Y-130278691D01*
X146578327Y-130045302D01*
X146436680Y-129903654D01*
X146497809Y-129862809D01*
X146629982Y-129665000D01*
X149940153Y-129665000D01*
X150015000Y-129679888D01*
X150077580Y-129667440D01*
X151250000Y-129667440D01*
X151497765Y-129618157D01*
X151525000Y-129599959D01*
X151552235Y-129618157D01*
X151800000Y-129667440D01*
X153000000Y-129667440D01*
X153247765Y-129618157D01*
X153457809Y-129477809D01*
X153586641Y-129285000D01*
X158919304Y-129285000D01*
X158921843Y-129297765D01*
X159062191Y-129507809D01*
X159272235Y-129648157D01*
X159520000Y-129697440D01*
X160520000Y-129697440D01*
X160767765Y-129648157D01*
X160977809Y-129507809D01*
X161118157Y-129297765D01*
X161167440Y-129050000D01*
X161167440Y-128747440D01*
X162020000Y-128747440D01*
X162267765Y-128698157D01*
X162477809Y-128557809D01*
X162618157Y-128347765D01*
X162667440Y-128100000D01*
X162667440Y-125900000D01*
X162618157Y-125652235D01*
X162477809Y-125442191D01*
X162267765Y-125301843D01*
X162020000Y-125252560D01*
X160970000Y-125252560D01*
X160722235Y-125301843D01*
X160512191Y-125442191D01*
X160371843Y-125652235D01*
X160322560Y-125900000D01*
X160322560Y-127352560D01*
X159717440Y-127352560D01*
X159717440Y-125900000D01*
X159668157Y-125652235D01*
X159527809Y-125442191D01*
X159317765Y-125301843D01*
X159070000Y-125252560D01*
X158020000Y-125252560D01*
X157772235Y-125301843D01*
X157562191Y-125442191D01*
X157421843Y-125652235D01*
X157372560Y-125900000D01*
X157372560Y-127765000D01*
X153826613Y-127765000D01*
X153797929Y-127722071D01*
X153647440Y-127621517D01*
X153647440Y-127520000D01*
X153598157Y-127272235D01*
X153457809Y-127062191D01*
X153247765Y-126921843D01*
X153000000Y-126872560D01*
X151800000Y-126872560D01*
X151552235Y-126921843D01*
X151525000Y-126940041D01*
X151497765Y-126921843D01*
X151250000Y-126872560D01*
X150050000Y-126872560D01*
X149802235Y-126921843D01*
X149592191Y-127062191D01*
X149451843Y-127272235D01*
X149402560Y-127520000D01*
X149402560Y-128145000D01*
X146629982Y-128145000D01*
X146497809Y-127947191D01*
X146287765Y-127806843D01*
X146040000Y-127757560D01*
X145072444Y-127757560D01*
X145035000Y-127750112D01*
X144997556Y-127757560D01*
X144790000Y-127757560D01*
X144752596Y-127765000D01*
X141077440Y-127765000D01*
X141077440Y-125900000D01*
X141028157Y-125652235D01*
X140887809Y-125442191D01*
X140677765Y-125301843D01*
X140430000Y-125252560D01*
X139380000Y-125252560D01*
X139132235Y-125301843D01*
X138922191Y-125442191D01*
X138781843Y-125652235D01*
X138732560Y-125900000D01*
X138732560Y-127352560D01*
X138127440Y-127352560D01*
X138127440Y-125900000D01*
X138078157Y-125652235D01*
X137937809Y-125442191D01*
X137727765Y-125301843D01*
X137480000Y-125252560D01*
X136430000Y-125252560D01*
X136182235Y-125301843D01*
X135972191Y-125442191D01*
X135831843Y-125652235D01*
X135782560Y-125900000D01*
X106252000Y-125900000D01*
X106252000Y-121570750D01*
X144155000Y-121570750D01*
X144155000Y-121911309D01*
X144251673Y-122144698D01*
X144430301Y-122323327D01*
X144663690Y-122420000D01*
X145129250Y-122420000D01*
X145288000Y-122261250D01*
X145288000Y-121412000D01*
X145542000Y-121412000D01*
X145542000Y-122261250D01*
X145700750Y-122420000D01*
X146166310Y-122420000D01*
X146399699Y-122323327D01*
X146578327Y-122144698D01*
X146675000Y-121911309D01*
X146675000Y-121570750D01*
X146516250Y-121412000D01*
X145542000Y-121412000D01*
X145288000Y-121412000D01*
X144313750Y-121412000D01*
X144155000Y-121570750D01*
X106252000Y-121570750D01*
X106252000Y-116375000D01*
X135782560Y-116375000D01*
X135782560Y-118575000D01*
X135831843Y-118822765D01*
X135972191Y-119032809D01*
X136182235Y-119173157D01*
X136430000Y-119222440D01*
X137282560Y-119222440D01*
X137282560Y-119525000D01*
X137331843Y-119772765D01*
X137472191Y-119982809D01*
X137682235Y-120123157D01*
X137930000Y-120172440D01*
X138930000Y-120172440D01*
X139177765Y-120123157D01*
X139294734Y-120045000D01*
X144200018Y-120045000D01*
X144332191Y-120242809D01*
X144393320Y-120283654D01*
X144251673Y-120425302D01*
X144155000Y-120658691D01*
X144155000Y-120999250D01*
X144313750Y-121158000D01*
X145288000Y-121158000D01*
X145288000Y-121138000D01*
X145542000Y-121138000D01*
X145542000Y-121158000D01*
X146516250Y-121158000D01*
X146675000Y-120999250D01*
X146675000Y-120658691D01*
X146578327Y-120425302D01*
X146436680Y-120283654D01*
X146497809Y-120242809D01*
X146629982Y-120045000D01*
X149970164Y-120045000D01*
X150042235Y-120093157D01*
X150290000Y-120142440D01*
X151490000Y-120142440D01*
X151737765Y-120093157D01*
X151765000Y-120074959D01*
X151792235Y-120093157D01*
X152040000Y-120142440D01*
X153240000Y-120142440D01*
X153487765Y-120093157D01*
X153697809Y-119952809D01*
X153826641Y-119760000D01*
X158919304Y-119760000D01*
X158921843Y-119772765D01*
X159062191Y-119982809D01*
X159272235Y-120123157D01*
X159520000Y-120172440D01*
X160520000Y-120172440D01*
X160767765Y-120123157D01*
X160977809Y-119982809D01*
X161118157Y-119772765D01*
X161167440Y-119525000D01*
X161167440Y-119222440D01*
X162020000Y-119222440D01*
X162267765Y-119173157D01*
X162477809Y-119032809D01*
X162618157Y-118822765D01*
X162667440Y-118575000D01*
X162667440Y-116375000D01*
X162618157Y-116127235D01*
X162477809Y-115917191D01*
X162267765Y-115776843D01*
X162020000Y-115727560D01*
X160970000Y-115727560D01*
X160722235Y-115776843D01*
X160512191Y-115917191D01*
X160371843Y-116127235D01*
X160322560Y-116375000D01*
X160322560Y-117827560D01*
X159717440Y-117827560D01*
X159717440Y-116375000D01*
X159668157Y-116127235D01*
X159527809Y-115917191D01*
X159317765Y-115776843D01*
X159070000Y-115727560D01*
X158020000Y-115727560D01*
X157772235Y-115776843D01*
X157562191Y-115917191D01*
X157421843Y-116127235D01*
X157372560Y-116375000D01*
X157372560Y-118240000D01*
X154066613Y-118240000D01*
X154037929Y-118197071D01*
X153887440Y-118096517D01*
X153887440Y-117995000D01*
X153838157Y-117747235D01*
X153697809Y-117537191D01*
X153487765Y-117396843D01*
X153240000Y-117347560D01*
X152040000Y-117347560D01*
X151792235Y-117396843D01*
X151765000Y-117415041D01*
X151737765Y-117396843D01*
X151490000Y-117347560D01*
X150290000Y-117347560D01*
X150042235Y-117396843D01*
X149832191Y-117537191D01*
X149691843Y-117747235D01*
X149642560Y-117995000D01*
X149642560Y-118525000D01*
X146629982Y-118525000D01*
X146497809Y-118327191D01*
X146287765Y-118186843D01*
X146040000Y-118137560D01*
X144790000Y-118137560D01*
X144542235Y-118186843D01*
X144332191Y-118327191D01*
X144200018Y-118525000D01*
X141077440Y-118525000D01*
X141077440Y-116375000D01*
X141028157Y-116127235D01*
X140887809Y-115917191D01*
X140677765Y-115776843D01*
X140430000Y-115727560D01*
X139380000Y-115727560D01*
X139132235Y-115776843D01*
X138922191Y-115917191D01*
X138781843Y-116127235D01*
X138732560Y-116375000D01*
X138732560Y-117827560D01*
X138127440Y-117827560D01*
X138127440Y-116375000D01*
X138078157Y-116127235D01*
X137937809Y-115917191D01*
X137727765Y-115776843D01*
X137480000Y-115727560D01*
X136430000Y-115727560D01*
X136182235Y-115776843D01*
X135972191Y-115917191D01*
X135831843Y-116127235D01*
X135782560Y-116375000D01*
X106252000Y-116375000D01*
X106252000Y-112648084D01*
X116374707Y-112627945D01*
X116389340Y-112649731D01*
X116466582Y-112765940D01*
X116468055Y-112766930D01*
X116469045Y-112768403D01*
X116585232Y-112845636D01*
X116701054Y-112923432D01*
X116702794Y-112923782D01*
X116704272Y-112924765D01*
X116841269Y-112951675D01*
X116977948Y-112979206D01*
X117049595Y-112965135D01*
X180664611Y-112813066D01*
X180733700Y-112826809D01*
X180804470Y-112812732D01*
X180805322Y-112812730D01*
X180872649Y-112799170D01*
X181010728Y-112771705D01*
X181011464Y-112771213D01*
X181012325Y-112771040D01*
X181128495Y-112693016D01*
X181245581Y-112614781D01*
X181246072Y-112614046D01*
X181246803Y-112613555D01*
X181323130Y-112498731D01*
X194802000Y-112471915D01*
X194802000Y-144537000D01*
X194802000Y-144537000D01*
G37*
X194802000Y-144537000D02*
X162642000Y-144537000D01*
X162642000Y-142512817D01*
X162654513Y-142467125D01*
X162651608Y-142444084D01*
X162656399Y-142420000D01*
X162642000Y-142347612D01*
X162642000Y-142341612D01*
X162639076Y-142326914D01*
X162639151Y-142255569D01*
X162620329Y-142209992D01*
X162617789Y-142180430D01*
X162605054Y-142155872D01*
X162599354Y-142127217D01*
X162572927Y-142087666D01*
X162548838Y-142019186D01*
X162546452Y-142016525D01*
X162546449Y-142016515D01*
X162514891Y-141979025D01*
X162503666Y-141952006D01*
X162483392Y-141931774D01*
X162464135Y-141897993D01*
X162414858Y-141859749D01*
X162409718Y-141853324D01*
X162407523Y-141851477D01*
X162405676Y-141849282D01*
X162399254Y-141844144D01*
X162361008Y-141794865D01*
X162327225Y-141775607D01*
X162306994Y-141755334D01*
X162279977Y-141744110D01*
X162242485Y-141712550D01*
X162242473Y-141712546D01*
X162239814Y-141710162D01*
X162171334Y-141686073D01*
X162131783Y-141659646D01*
X162103129Y-141653946D01*
X162078570Y-141641211D01*
X162049008Y-141638671D01*
X162003431Y-141619849D01*
X161932085Y-141619923D01*
X161917388Y-141617000D01*
X161891137Y-141617000D01*
X161791876Y-141604487D01*
X161746183Y-141617000D01*
X141597817Y-141617000D01*
X141552125Y-141604487D01*
X141452864Y-141617000D01*
X141426612Y-141617000D01*
X141411914Y-141619924D01*
X141340569Y-141619849D01*
X141294992Y-141638671D01*
X141265430Y-141641211D01*
X141240872Y-141653946D01*
X141212217Y-141659646D01*
X141172666Y-141686073D01*
X141104186Y-141710162D01*
X141101525Y-141712548D01*
X141101515Y-141712551D01*
X141064025Y-141744109D01*
X141037006Y-141755334D01*
X141016774Y-141775608D01*
X140982993Y-141794865D01*
X140944749Y-141844142D01*
X140938324Y-141849282D01*
X140936477Y-141851477D01*
X140934282Y-141853324D01*
X140929144Y-141859746D01*
X140879865Y-141897992D01*
X140860607Y-141931775D01*
X140840334Y-141952006D01*
X140829110Y-141979023D01*
X140797550Y-142016515D01*
X140797546Y-142016527D01*
X140795162Y-142019186D01*
X140771073Y-142087666D01*
X140744646Y-142127217D01*
X140738946Y-142155871D01*
X140726211Y-142180430D01*
X140723671Y-142209992D01*
X140704849Y-142255569D01*
X140704923Y-142326915D01*
X140702000Y-142341612D01*
X140702000Y-142367863D01*
X140689487Y-142467124D01*
X140702001Y-142512820D01*
X140702000Y-144537000D01*
X106252000Y-144537000D01*
X106252000Y-138625431D01*
X106985000Y-138625431D01*
X106985000Y-139514569D01*
X107325259Y-140336026D01*
X107953974Y-140964741D01*
X108775431Y-141305000D01*
X109664569Y-141305000D01*
X110486026Y-140964741D01*
X111114741Y-140336026D01*
X111455000Y-139514569D01*
X111455000Y-138625431D01*
X186995000Y-138625431D01*
X186995000Y-139514569D01*
X187335259Y-140336026D01*
X187963974Y-140964741D01*
X188785431Y-141305000D01*
X189674569Y-141305000D01*
X190496026Y-140964741D01*
X191124741Y-140336026D01*
X191465000Y-139514569D01*
X191465000Y-138625431D01*
X191124741Y-137803974D01*
X190496026Y-137175259D01*
X189674569Y-136835000D01*
X188785431Y-136835000D01*
X187963974Y-137175259D01*
X187335259Y-137803974D01*
X186995000Y-138625431D01*
X111455000Y-138625431D01*
X111114741Y-137803974D01*
X110486026Y-137175259D01*
X109664569Y-136835000D01*
X108775431Y-136835000D01*
X107953974Y-137175259D01*
X107325259Y-137803974D01*
X106985000Y-138625431D01*
X106252000Y-138625431D01*
X106252000Y-131190750D01*
X144155000Y-131190750D01*
X144155000Y-131531309D01*
X144251673Y-131764698D01*
X144430301Y-131943327D01*
X144663690Y-132040000D01*
X145129250Y-132040000D01*
X145288000Y-131881250D01*
X145288000Y-131032000D01*
X145542000Y-131032000D01*
X145542000Y-131881250D01*
X145700750Y-132040000D01*
X146166310Y-132040000D01*
X146399699Y-131943327D01*
X146578327Y-131764698D01*
X146675000Y-131531309D01*
X146675000Y-131190750D01*
X146516250Y-131032000D01*
X145542000Y-131032000D01*
X145288000Y-131032000D01*
X144313750Y-131032000D01*
X144155000Y-131190750D01*
X106252000Y-131190750D01*
X106252000Y-125900000D01*
X135782560Y-125900000D01*
X135782560Y-128100000D01*
X135831843Y-128347765D01*
X135972191Y-128557809D01*
X136182235Y-128698157D01*
X136430000Y-128747440D01*
X137282560Y-128747440D01*
X137282560Y-129050000D01*
X137331843Y-129297765D01*
X137472191Y-129507809D01*
X137682235Y-129648157D01*
X137930000Y-129697440D01*
X138930000Y-129697440D01*
X139177765Y-129648157D01*
X139387809Y-129507809D01*
X139528157Y-129297765D01*
X139530696Y-129285000D01*
X144142560Y-129285000D01*
X144142560Y-129405000D01*
X144191843Y-129652765D01*
X144332191Y-129862809D01*
X144393320Y-129903654D01*
X144251673Y-130045302D01*
X144155000Y-130278691D01*
X144155000Y-130619250D01*
X144313750Y-130778000D01*
X145288000Y-130778000D01*
X145288000Y-130758000D01*
X145542000Y-130758000D01*
X145542000Y-130778000D01*
X146516250Y-130778000D01*
X146675000Y-130619250D01*
X146675000Y-130278691D01*
X146578327Y-130045302D01*
X146436680Y-129903654D01*
X146497809Y-129862809D01*
X146629982Y-129665000D01*
X149940153Y-129665000D01*
X150015000Y-129679888D01*
X150077580Y-129667440D01*
X151250000Y-129667440D01*
X151497765Y-129618157D01*
X151525000Y-129599959D01*
X151552235Y-129618157D01*
X151800000Y-129667440D01*
X153000000Y-129667440D01*
X153247765Y-129618157D01*
X153457809Y-129477809D01*
X153586641Y-129285000D01*
X158919304Y-129285000D01*
X158921843Y-129297765D01*
X159062191Y-129507809D01*
X159272235Y-129648157D01*
X159520000Y-129697440D01*
X160520000Y-129697440D01*
X160767765Y-129648157D01*
X160977809Y-129507809D01*
X161118157Y-129297765D01*
X161167440Y-129050000D01*
X161167440Y-128747440D01*
X162020000Y-128747440D01*
X162267765Y-128698157D01*
X162477809Y-128557809D01*
X162618157Y-128347765D01*
X162667440Y-128100000D01*
X162667440Y-125900000D01*
X162618157Y-125652235D01*
X162477809Y-125442191D01*
X162267765Y-125301843D01*
X162020000Y-125252560D01*
X160970000Y-125252560D01*
X160722235Y-125301843D01*
X160512191Y-125442191D01*
X160371843Y-125652235D01*
X160322560Y-125900000D01*
X160322560Y-127352560D01*
X159717440Y-127352560D01*
X159717440Y-125900000D01*
X159668157Y-125652235D01*
X159527809Y-125442191D01*
X159317765Y-125301843D01*
X159070000Y-125252560D01*
X158020000Y-125252560D01*
X157772235Y-125301843D01*
X157562191Y-125442191D01*
X157421843Y-125652235D01*
X157372560Y-125900000D01*
X157372560Y-127765000D01*
X153826613Y-127765000D01*
X153797929Y-127722071D01*
X153647440Y-127621517D01*
X153647440Y-127520000D01*
X153598157Y-127272235D01*
X153457809Y-127062191D01*
X153247765Y-126921843D01*
X153000000Y-126872560D01*
X151800000Y-126872560D01*
X151552235Y-126921843D01*
X151525000Y-126940041D01*
X151497765Y-126921843D01*
X151250000Y-126872560D01*
X150050000Y-126872560D01*
X149802235Y-126921843D01*
X149592191Y-127062191D01*
X149451843Y-127272235D01*
X149402560Y-127520000D01*
X149402560Y-128145000D01*
X146629982Y-128145000D01*
X146497809Y-127947191D01*
X146287765Y-127806843D01*
X146040000Y-127757560D01*
X145072444Y-127757560D01*
X145035000Y-127750112D01*
X144997556Y-127757560D01*
X144790000Y-127757560D01*
X144752596Y-127765000D01*
X141077440Y-127765000D01*
X141077440Y-125900000D01*
X141028157Y-125652235D01*
X140887809Y-125442191D01*
X140677765Y-125301843D01*
X140430000Y-125252560D01*
X139380000Y-125252560D01*
X139132235Y-125301843D01*
X138922191Y-125442191D01*
X138781843Y-125652235D01*
X138732560Y-125900000D01*
X138732560Y-127352560D01*
X138127440Y-127352560D01*
X138127440Y-125900000D01*
X138078157Y-125652235D01*
X137937809Y-125442191D01*
X137727765Y-125301843D01*
X137480000Y-125252560D01*
X136430000Y-125252560D01*
X136182235Y-125301843D01*
X135972191Y-125442191D01*
X135831843Y-125652235D01*
X135782560Y-125900000D01*
X106252000Y-125900000D01*
X106252000Y-121570750D01*
X144155000Y-121570750D01*
X144155000Y-121911309D01*
X144251673Y-122144698D01*
X144430301Y-122323327D01*
X144663690Y-122420000D01*
X145129250Y-122420000D01*
X145288000Y-122261250D01*
X145288000Y-121412000D01*
X145542000Y-121412000D01*
X145542000Y-122261250D01*
X145700750Y-122420000D01*
X146166310Y-122420000D01*
X146399699Y-122323327D01*
X146578327Y-122144698D01*
X146675000Y-121911309D01*
X146675000Y-121570750D01*
X146516250Y-121412000D01*
X145542000Y-121412000D01*
X145288000Y-121412000D01*
X144313750Y-121412000D01*
X144155000Y-121570750D01*
X106252000Y-121570750D01*
X106252000Y-116375000D01*
X135782560Y-116375000D01*
X135782560Y-118575000D01*
X135831843Y-118822765D01*
X135972191Y-119032809D01*
X136182235Y-119173157D01*
X136430000Y-119222440D01*
X137282560Y-119222440D01*
X137282560Y-119525000D01*
X137331843Y-119772765D01*
X137472191Y-119982809D01*
X137682235Y-120123157D01*
X137930000Y-120172440D01*
X138930000Y-120172440D01*
X139177765Y-120123157D01*
X139294734Y-120045000D01*
X144200018Y-120045000D01*
X144332191Y-120242809D01*
X144393320Y-120283654D01*
X144251673Y-120425302D01*
X144155000Y-120658691D01*
X144155000Y-120999250D01*
X144313750Y-121158000D01*
X145288000Y-121158000D01*
X145288000Y-121138000D01*
X145542000Y-121138000D01*
X145542000Y-121158000D01*
X146516250Y-121158000D01*
X146675000Y-120999250D01*
X146675000Y-120658691D01*
X146578327Y-120425302D01*
X146436680Y-120283654D01*
X146497809Y-120242809D01*
X146629982Y-120045000D01*
X149970164Y-120045000D01*
X150042235Y-120093157D01*
X150290000Y-120142440D01*
X151490000Y-120142440D01*
X151737765Y-120093157D01*
X151765000Y-120074959D01*
X151792235Y-120093157D01*
X152040000Y-120142440D01*
X153240000Y-120142440D01*
X153487765Y-120093157D01*
X153697809Y-119952809D01*
X153826641Y-119760000D01*
X158919304Y-119760000D01*
X158921843Y-119772765D01*
X159062191Y-119982809D01*
X159272235Y-120123157D01*
X159520000Y-120172440D01*
X160520000Y-120172440D01*
X160767765Y-120123157D01*
X160977809Y-119982809D01*
X161118157Y-119772765D01*
X161167440Y-119525000D01*
X161167440Y-119222440D01*
X162020000Y-119222440D01*
X162267765Y-119173157D01*
X162477809Y-119032809D01*
X162618157Y-118822765D01*
X162667440Y-118575000D01*
X162667440Y-116375000D01*
X162618157Y-116127235D01*
X162477809Y-115917191D01*
X162267765Y-115776843D01*
X162020000Y-115727560D01*
X160970000Y-115727560D01*
X160722235Y-115776843D01*
X160512191Y-115917191D01*
X160371843Y-116127235D01*
X160322560Y-116375000D01*
X160322560Y-117827560D01*
X159717440Y-117827560D01*
X159717440Y-116375000D01*
X159668157Y-116127235D01*
X159527809Y-115917191D01*
X159317765Y-115776843D01*
X159070000Y-115727560D01*
X158020000Y-115727560D01*
X157772235Y-115776843D01*
X157562191Y-115917191D01*
X157421843Y-116127235D01*
X157372560Y-116375000D01*
X157372560Y-118240000D01*
X154066613Y-118240000D01*
X154037929Y-118197071D01*
X153887440Y-118096517D01*
X153887440Y-117995000D01*
X153838157Y-117747235D01*
X153697809Y-117537191D01*
X153487765Y-117396843D01*
X153240000Y-117347560D01*
X152040000Y-117347560D01*
X151792235Y-117396843D01*
X151765000Y-117415041D01*
X151737765Y-117396843D01*
X151490000Y-117347560D01*
X150290000Y-117347560D01*
X150042235Y-117396843D01*
X149832191Y-117537191D01*
X149691843Y-117747235D01*
X149642560Y-117995000D01*
X149642560Y-118525000D01*
X146629982Y-118525000D01*
X146497809Y-118327191D01*
X146287765Y-118186843D01*
X146040000Y-118137560D01*
X144790000Y-118137560D01*
X144542235Y-118186843D01*
X144332191Y-118327191D01*
X144200018Y-118525000D01*
X141077440Y-118525000D01*
X141077440Y-116375000D01*
X141028157Y-116127235D01*
X140887809Y-115917191D01*
X140677765Y-115776843D01*
X140430000Y-115727560D01*
X139380000Y-115727560D01*
X139132235Y-115776843D01*
X138922191Y-115917191D01*
X138781843Y-116127235D01*
X138732560Y-116375000D01*
X138732560Y-117827560D01*
X138127440Y-117827560D01*
X138127440Y-116375000D01*
X138078157Y-116127235D01*
X137937809Y-115917191D01*
X137727765Y-115776843D01*
X137480000Y-115727560D01*
X136430000Y-115727560D01*
X136182235Y-115776843D01*
X135972191Y-115917191D01*
X135831843Y-116127235D01*
X135782560Y-116375000D01*
X106252000Y-116375000D01*
X106252000Y-112648084D01*
X116374707Y-112627945D01*
X116389340Y-112649731D01*
X116466582Y-112765940D01*
X116468055Y-112766930D01*
X116469045Y-112768403D01*
X116585232Y-112845636D01*
X116701054Y-112923432D01*
X116702794Y-112923782D01*
X116704272Y-112924765D01*
X116841269Y-112951675D01*
X116977948Y-112979206D01*
X117049595Y-112965135D01*
X180664611Y-112813066D01*
X180733700Y-112826809D01*
X180804470Y-112812732D01*
X180805322Y-112812730D01*
X180872649Y-112799170D01*
X181010728Y-112771705D01*
X181011464Y-112771213D01*
X181012325Y-112771040D01*
X181128495Y-112693016D01*
X181245581Y-112614781D01*
X181246072Y-112614046D01*
X181246803Y-112613555D01*
X181323130Y-112498731D01*
X194802000Y-112471915D01*
X194802000Y-144537000D01*
G04 #@! TD*
M02*
