G04 #@! TF.GenerationSoftware,KiCad,Pcbnew,5.0.0*
G04 #@! TF.CreationDate,2018-07-30T22:32:49-05:00*
G04 #@! TF.ProjectId,AntennaImpedance,416E74656E6E61496D706564616E6365,rev?*
G04 #@! TF.SameCoordinates,Original*
G04 #@! TF.FileFunction,Legend,Top*
G04 #@! TF.FilePolarity,Positive*
%FSLAX46Y46*%
G04 Gerber Fmt 4.6, Leading zero omitted, Abs format (unit mm)*
G04 Created by KiCad (PCBNEW 5.0.0) date Mon Jul 30 22:32:49 2018*
%MOMM*%
%LPD*%
G01*
G04 APERTURE LIST*
%ADD10C,0.127000*%
%ADD11C,0.120000*%
%ADD12C,0.150000*%
%ADD13C,0.050000*%
G04 APERTURE END LIST*
D10*
G04 #@! TO.C,AE1*
X136930000Y-115975000D02*
X139930000Y-115975000D01*
G04 #@! TO.C,AE2*
X136930000Y-125500000D02*
X139930000Y-125500000D01*
D11*
G04 #@! TO.C,C1*
X144565000Y-119785000D02*
X144565000Y-120785000D01*
X146265000Y-120785000D02*
X146265000Y-119785000D01*
G04 #@! TO.C,C2*
X146265000Y-130405000D02*
X146265000Y-129405000D01*
X144565000Y-129405000D02*
X144565000Y-130405000D01*
D10*
G04 #@! TO.C,J1*
X158520000Y-115975000D02*
X161520000Y-115975000D01*
G04 #@! TO.C,J2*
X158520000Y-125500000D02*
X161520000Y-125500000D01*
G04 #@! TO.C,L1*
X152765000Y-117830000D02*
X150765000Y-117830000D01*
X152765000Y-119660000D02*
X150765000Y-119660000D01*
G04 #@! TO.C,L2*
X152525000Y-129185000D02*
X150525000Y-129185000D01*
X152525000Y-127355000D02*
X150525000Y-127355000D01*
G04 #@! TD*
G04 #@! TO.C,REF\002A\002A*
D12*
X111696666Y-49592380D02*
X111363333Y-49116190D01*
X111125238Y-49592380D02*
X111125238Y-48592380D01*
X111506190Y-48592380D01*
X111601428Y-48640000D01*
X111649047Y-48687619D01*
X111696666Y-48782857D01*
X111696666Y-48925714D01*
X111649047Y-49020952D01*
X111601428Y-49068571D01*
X111506190Y-49116190D01*
X111125238Y-49116190D01*
X112125238Y-49068571D02*
X112458571Y-49068571D01*
X112601428Y-49592380D02*
X112125238Y-49592380D01*
X112125238Y-48592380D01*
X112601428Y-48592380D01*
X113363333Y-49068571D02*
X113030000Y-49068571D01*
X113030000Y-49592380D02*
X113030000Y-48592380D01*
X113506190Y-48592380D01*
X114030000Y-48592380D02*
X114030000Y-48830476D01*
X113791904Y-48735238D02*
X114030000Y-48830476D01*
X114268095Y-48735238D01*
X113887142Y-49020952D02*
X114030000Y-48830476D01*
X114172857Y-49020952D01*
X114791904Y-48592380D02*
X114791904Y-48830476D01*
X114553809Y-48735238D02*
X114791904Y-48830476D01*
X115030000Y-48735238D01*
X114649047Y-49020952D02*
X114791904Y-48830476D01*
X114934761Y-49020952D01*
X185356666Y-49592380D02*
X185023333Y-49116190D01*
X184785238Y-49592380D02*
X184785238Y-48592380D01*
X185166190Y-48592380D01*
X185261428Y-48640000D01*
X185309047Y-48687619D01*
X185356666Y-48782857D01*
X185356666Y-48925714D01*
X185309047Y-49020952D01*
X185261428Y-49068571D01*
X185166190Y-49116190D01*
X184785238Y-49116190D01*
X185785238Y-49068571D02*
X186118571Y-49068571D01*
X186261428Y-49592380D02*
X185785238Y-49592380D01*
X185785238Y-48592380D01*
X186261428Y-48592380D01*
X187023333Y-49068571D02*
X186690000Y-49068571D01*
X186690000Y-49592380D02*
X186690000Y-48592380D01*
X187166190Y-48592380D01*
X187690000Y-48592380D02*
X187690000Y-48830476D01*
X187451904Y-48735238D02*
X187690000Y-48830476D01*
X187928095Y-48735238D01*
X187547142Y-49020952D02*
X187690000Y-48830476D01*
X187832857Y-49020952D01*
X188451904Y-48592380D02*
X188451904Y-48830476D01*
X188213809Y-48735238D02*
X188451904Y-48830476D01*
X188690000Y-48735238D01*
X188309047Y-49020952D02*
X188451904Y-48830476D01*
X188594761Y-49020952D01*
X107886666Y-135322380D02*
X107553333Y-134846190D01*
X107315238Y-135322380D02*
X107315238Y-134322380D01*
X107696190Y-134322380D01*
X107791428Y-134370000D01*
X107839047Y-134417619D01*
X107886666Y-134512857D01*
X107886666Y-134655714D01*
X107839047Y-134750952D01*
X107791428Y-134798571D01*
X107696190Y-134846190D01*
X107315238Y-134846190D01*
X108315238Y-134798571D02*
X108648571Y-134798571D01*
X108791428Y-135322380D02*
X108315238Y-135322380D01*
X108315238Y-134322380D01*
X108791428Y-134322380D01*
X109553333Y-134798571D02*
X109220000Y-134798571D01*
X109220000Y-135322380D02*
X109220000Y-134322380D01*
X109696190Y-134322380D01*
X110220000Y-134322380D02*
X110220000Y-134560476D01*
X109981904Y-134465238D02*
X110220000Y-134560476D01*
X110458095Y-134465238D01*
X110077142Y-134750952D02*
X110220000Y-134560476D01*
X110362857Y-134750952D01*
X110981904Y-134322380D02*
X110981904Y-134560476D01*
X110743809Y-134465238D02*
X110981904Y-134560476D01*
X111220000Y-134465238D01*
X110839047Y-134750952D02*
X110981904Y-134560476D01*
X111124761Y-134750952D01*
X187896666Y-135322380D02*
X187563333Y-134846190D01*
X187325238Y-135322380D02*
X187325238Y-134322380D01*
X187706190Y-134322380D01*
X187801428Y-134370000D01*
X187849047Y-134417619D01*
X187896666Y-134512857D01*
X187896666Y-134655714D01*
X187849047Y-134750952D01*
X187801428Y-134798571D01*
X187706190Y-134846190D01*
X187325238Y-134846190D01*
X188325238Y-134798571D02*
X188658571Y-134798571D01*
X188801428Y-135322380D02*
X188325238Y-135322380D01*
X188325238Y-134322380D01*
X188801428Y-134322380D01*
X189563333Y-134798571D02*
X189230000Y-134798571D01*
X189230000Y-135322380D02*
X189230000Y-134322380D01*
X189706190Y-134322380D01*
X190230000Y-134322380D02*
X190230000Y-134560476D01*
X189991904Y-134465238D02*
X190230000Y-134560476D01*
X190468095Y-134465238D01*
X190087142Y-134750952D02*
X190230000Y-134560476D01*
X190372857Y-134750952D01*
X190991904Y-134322380D02*
X190991904Y-134560476D01*
X190753809Y-134465238D02*
X190991904Y-134560476D01*
X191230000Y-134465238D01*
X190849047Y-134750952D02*
X190991904Y-134560476D01*
X191134761Y-134750952D01*
G04 #@! TO.C,AE1*
D13*
X137306899Y-115171099D02*
X137612212Y-115171099D01*
X137245836Y-115354288D02*
X137459556Y-114713129D01*
X137673275Y-115354288D01*
X137886995Y-115018442D02*
X138100715Y-115018442D01*
X138192309Y-115354288D02*
X137886995Y-115354288D01*
X137886995Y-114713129D01*
X138192309Y-114713129D01*
X138802936Y-115354288D02*
X138436560Y-115354288D01*
X138619748Y-115354288D02*
X138619748Y-114713129D01*
X138558685Y-114804723D01*
X138497623Y-114865786D01*
X138436560Y-114896317D01*
X134216848Y-120614800D02*
X134216848Y-119973436D01*
X134430636Y-120431554D01*
X134644424Y-119973436D01*
X134644424Y-120614800D01*
X135041459Y-120614800D02*
X134980376Y-120584259D01*
X134949835Y-120553718D01*
X134919294Y-120492636D01*
X134919294Y-120309389D01*
X134949835Y-120248307D01*
X134980376Y-120217766D01*
X135041459Y-120187224D01*
X135133082Y-120187224D01*
X135194164Y-120217766D01*
X135224705Y-120248307D01*
X135255247Y-120309389D01*
X135255247Y-120492636D01*
X135224705Y-120553718D01*
X135194164Y-120584259D01*
X135133082Y-120614800D01*
X135041459Y-120614800D01*
X135530117Y-120187224D02*
X135530117Y-120614800D01*
X135530117Y-120248307D02*
X135560658Y-120217766D01*
X135621740Y-120187224D01*
X135713364Y-120187224D01*
X135774446Y-120217766D01*
X135804987Y-120278848D01*
X135804987Y-120614800D01*
X136202022Y-120614800D02*
X136140940Y-120584259D01*
X136110399Y-120553718D01*
X136079857Y-120492636D01*
X136079857Y-120309389D01*
X136110399Y-120248307D01*
X136140940Y-120217766D01*
X136202022Y-120187224D01*
X136293645Y-120187224D01*
X136354728Y-120217766D01*
X136385269Y-120248307D01*
X136415810Y-120309389D01*
X136415810Y-120492636D01*
X136385269Y-120553718D01*
X136354728Y-120584259D01*
X136293645Y-120614800D01*
X136202022Y-120614800D01*
X136690680Y-120187224D02*
X136690680Y-120828588D01*
X136690680Y-120217766D02*
X136751763Y-120187224D01*
X136873927Y-120187224D01*
X136935009Y-120217766D01*
X136965551Y-120248307D01*
X136996092Y-120309389D01*
X136996092Y-120492636D01*
X136965551Y-120553718D01*
X136935009Y-120584259D01*
X136873927Y-120614800D01*
X136751763Y-120614800D01*
X136690680Y-120584259D01*
X137362585Y-120614800D02*
X137301503Y-120584259D01*
X137270962Y-120553718D01*
X137240421Y-120492636D01*
X137240421Y-120309389D01*
X137270962Y-120248307D01*
X137301503Y-120217766D01*
X137362585Y-120187224D01*
X137454209Y-120187224D01*
X137515291Y-120217766D01*
X137545832Y-120248307D01*
X137576373Y-120309389D01*
X137576373Y-120492636D01*
X137545832Y-120553718D01*
X137515291Y-120584259D01*
X137454209Y-120614800D01*
X137362585Y-120614800D01*
X137942867Y-120614800D02*
X137881785Y-120584259D01*
X137851244Y-120523177D01*
X137851244Y-119973436D01*
X138431525Y-120584259D02*
X138370443Y-120614800D01*
X138248279Y-120614800D01*
X138187196Y-120584259D01*
X138156655Y-120523177D01*
X138156655Y-120278848D01*
X138187196Y-120217766D01*
X138248279Y-120187224D01*
X138370443Y-120187224D01*
X138431525Y-120217766D01*
X138462067Y-120278848D01*
X138462067Y-120339930D01*
X138156655Y-120401012D01*
X139195054Y-120431554D02*
X139500465Y-120431554D01*
X139133972Y-120614800D02*
X139347760Y-119973436D01*
X139561548Y-120614800D01*
X139775336Y-120187224D02*
X139775336Y-120614800D01*
X139775336Y-120248307D02*
X139805877Y-120217766D01*
X139866959Y-120187224D01*
X139958583Y-120187224D01*
X140019665Y-120217766D01*
X140050206Y-120278848D01*
X140050206Y-120614800D01*
X140263994Y-120187224D02*
X140508323Y-120187224D01*
X140355617Y-119973436D02*
X140355617Y-120523177D01*
X140386159Y-120584259D01*
X140447241Y-120614800D01*
X140508323Y-120614800D01*
X140966440Y-120584259D02*
X140905358Y-120614800D01*
X140783193Y-120614800D01*
X140722111Y-120584259D01*
X140691570Y-120523177D01*
X140691570Y-120278848D01*
X140722111Y-120217766D01*
X140783193Y-120187224D01*
X140905358Y-120187224D01*
X140966440Y-120217766D01*
X140996981Y-120278848D01*
X140996981Y-120339930D01*
X140691570Y-120401012D01*
X141271852Y-120187224D02*
X141271852Y-120614800D01*
X141271852Y-120248307D02*
X141302393Y-120217766D01*
X141363475Y-120187224D01*
X141455099Y-120187224D01*
X141516181Y-120217766D01*
X141546722Y-120278848D01*
X141546722Y-120614800D01*
X141852133Y-120187224D02*
X141852133Y-120614800D01*
X141852133Y-120248307D02*
X141882675Y-120217766D01*
X141943757Y-120187224D01*
X142035380Y-120187224D01*
X142096463Y-120217766D01*
X142127004Y-120278848D01*
X142127004Y-120614800D01*
X142707285Y-120614800D02*
X142707285Y-120278848D01*
X142676744Y-120217766D01*
X142615662Y-120187224D01*
X142493497Y-120187224D01*
X142432415Y-120217766D01*
X142707285Y-120584259D02*
X142646203Y-120614800D01*
X142493497Y-120614800D01*
X142432415Y-120584259D01*
X142401874Y-120523177D01*
X142401874Y-120462095D01*
X142432415Y-120401012D01*
X142493497Y-120370471D01*
X142646203Y-120370471D01*
X142707285Y-120339930D01*
G04 #@! TO.C,AE2*
X137306899Y-124696099D02*
X137612212Y-124696099D01*
X137245836Y-124879288D02*
X137459556Y-124238129D01*
X137673275Y-124879288D01*
X137886995Y-124543442D02*
X138100715Y-124543442D01*
X138192309Y-124879288D02*
X137886995Y-124879288D01*
X137886995Y-124238129D01*
X138192309Y-124238129D01*
X138436560Y-124299191D02*
X138467091Y-124268660D01*
X138528154Y-124238129D01*
X138680811Y-124238129D01*
X138741874Y-124268660D01*
X138772405Y-124299191D01*
X138802936Y-124360254D01*
X138802936Y-124421317D01*
X138772405Y-124512911D01*
X138406028Y-124879288D01*
X138802936Y-124879288D01*
X134980376Y-130139800D02*
X134980376Y-129498436D01*
X135133082Y-129498436D01*
X135224705Y-129528978D01*
X135285788Y-129590060D01*
X135316329Y-129651142D01*
X135346870Y-129773307D01*
X135346870Y-129864930D01*
X135316329Y-129987095D01*
X135285788Y-130048177D01*
X135224705Y-130109259D01*
X135133082Y-130139800D01*
X134980376Y-130139800D01*
X135621740Y-130139800D02*
X135621740Y-129712224D01*
X135621740Y-129498436D02*
X135591199Y-129528978D01*
X135621740Y-129559519D01*
X135652281Y-129528978D01*
X135621740Y-129498436D01*
X135621740Y-129559519D01*
X135927152Y-129712224D02*
X135927152Y-130353588D01*
X135927152Y-129742766D02*
X135988234Y-129712224D01*
X136110399Y-129712224D01*
X136171481Y-129742766D01*
X136202022Y-129773307D01*
X136232563Y-129834389D01*
X136232563Y-130017636D01*
X136202022Y-130078718D01*
X136171481Y-130109259D01*
X136110399Y-130139800D01*
X135988234Y-130139800D01*
X135927152Y-130109259D01*
X136599057Y-130139800D02*
X136537975Y-130109259D01*
X136507433Y-130078718D01*
X136476892Y-130017636D01*
X136476892Y-129834389D01*
X136507433Y-129773307D01*
X136537975Y-129742766D01*
X136599057Y-129712224D01*
X136690680Y-129712224D01*
X136751763Y-129742766D01*
X136782304Y-129773307D01*
X136812845Y-129834389D01*
X136812845Y-130017636D01*
X136782304Y-130078718D01*
X136751763Y-130109259D01*
X136690680Y-130139800D01*
X136599057Y-130139800D01*
X137179339Y-130139800D02*
X137118256Y-130109259D01*
X137087715Y-130048177D01*
X137087715Y-129498436D01*
X137667997Y-130109259D02*
X137606915Y-130139800D01*
X137484750Y-130139800D01*
X137423668Y-130109259D01*
X137393127Y-130048177D01*
X137393127Y-129803848D01*
X137423668Y-129742766D01*
X137484750Y-129712224D01*
X137606915Y-129712224D01*
X137667997Y-129742766D01*
X137698538Y-129803848D01*
X137698538Y-129864930D01*
X137393127Y-129926012D01*
X138431525Y-129956554D02*
X138736937Y-129956554D01*
X138370443Y-130139800D02*
X138584231Y-129498436D01*
X138798019Y-130139800D01*
X139011807Y-129712224D02*
X139011807Y-130139800D01*
X139011807Y-129773307D02*
X139042348Y-129742766D01*
X139103431Y-129712224D01*
X139195054Y-129712224D01*
X139256136Y-129742766D01*
X139286677Y-129803848D01*
X139286677Y-130139800D01*
X139500465Y-129712224D02*
X139744795Y-129712224D01*
X139592089Y-129498436D02*
X139592089Y-130048177D01*
X139622630Y-130109259D01*
X139683712Y-130139800D01*
X139744795Y-130139800D01*
X140202912Y-130109259D02*
X140141829Y-130139800D01*
X140019665Y-130139800D01*
X139958583Y-130109259D01*
X139928041Y-130048177D01*
X139928041Y-129803848D01*
X139958583Y-129742766D01*
X140019665Y-129712224D01*
X140141829Y-129712224D01*
X140202912Y-129742766D01*
X140233453Y-129803848D01*
X140233453Y-129864930D01*
X139928041Y-129926012D01*
X140508323Y-129712224D02*
X140508323Y-130139800D01*
X140508323Y-129773307D02*
X140538864Y-129742766D01*
X140599947Y-129712224D01*
X140691570Y-129712224D01*
X140752652Y-129742766D01*
X140783193Y-129803848D01*
X140783193Y-130139800D01*
X141088605Y-129712224D02*
X141088605Y-130139800D01*
X141088605Y-129773307D02*
X141119146Y-129742766D01*
X141180228Y-129712224D01*
X141271852Y-129712224D01*
X141332934Y-129742766D01*
X141363475Y-129803848D01*
X141363475Y-130139800D01*
X141943757Y-130139800D02*
X141943757Y-129803848D01*
X141913216Y-129742766D01*
X141852133Y-129712224D01*
X141729969Y-129712224D01*
X141668887Y-129742766D01*
X141943757Y-130109259D02*
X141882675Y-130139800D01*
X141729969Y-130139800D01*
X141668887Y-130109259D01*
X141638345Y-130048177D01*
X141638345Y-129987095D01*
X141668887Y-129926012D01*
X141729969Y-129895471D01*
X141882675Y-129895471D01*
X141943757Y-129864930D01*
G04 #@! TO.C,C1*
D12*
X147272142Y-120451666D02*
X147319761Y-120499285D01*
X147367380Y-120642142D01*
X147367380Y-120737380D01*
X147319761Y-120880238D01*
X147224523Y-120975476D01*
X147129285Y-121023095D01*
X146938809Y-121070714D01*
X146795952Y-121070714D01*
X146605476Y-121023095D01*
X146510238Y-120975476D01*
X146415000Y-120880238D01*
X146367380Y-120737380D01*
X146367380Y-120642142D01*
X146415000Y-120499285D01*
X146462619Y-120451666D01*
X147367380Y-119499285D02*
X147367380Y-120070714D01*
X147367380Y-119785000D02*
X146367380Y-119785000D01*
X146510238Y-119880238D01*
X146605476Y-119975476D01*
X146653095Y-120070714D01*
G04 #@! TO.C,C2*
X147272142Y-130071666D02*
X147319761Y-130119285D01*
X147367380Y-130262142D01*
X147367380Y-130357380D01*
X147319761Y-130500238D01*
X147224523Y-130595476D01*
X147129285Y-130643095D01*
X146938809Y-130690714D01*
X146795952Y-130690714D01*
X146605476Y-130643095D01*
X146510238Y-130595476D01*
X146415000Y-130500238D01*
X146367380Y-130357380D01*
X146367380Y-130262142D01*
X146415000Y-130119285D01*
X146462619Y-130071666D01*
X146462619Y-129690714D02*
X146415000Y-129643095D01*
X146367380Y-129547857D01*
X146367380Y-129309761D01*
X146415000Y-129214523D01*
X146462619Y-129166904D01*
X146557857Y-129119285D01*
X146653095Y-129119285D01*
X146795952Y-129166904D01*
X147367380Y-129738333D01*
X147367380Y-129119285D01*
G04 #@! TO.C,J1*
D13*
X159431198Y-114713129D02*
X159431198Y-115171099D01*
X159400666Y-115262693D01*
X159339604Y-115323756D01*
X159248010Y-115354288D01*
X159186947Y-115354288D01*
X160072357Y-115354288D02*
X159705980Y-115354288D01*
X159889169Y-115354288D02*
X159889169Y-114713129D01*
X159828106Y-114804723D01*
X159767043Y-114865786D01*
X159705980Y-114896317D01*
X158097433Y-120614800D02*
X157883645Y-120309389D01*
X157730940Y-120614800D02*
X157730940Y-119973436D01*
X157975269Y-119973436D01*
X158036351Y-120003978D01*
X158066892Y-120034519D01*
X158097433Y-120095601D01*
X158097433Y-120187224D01*
X158066892Y-120248307D01*
X158036351Y-120278848D01*
X157975269Y-120309389D01*
X157730940Y-120309389D01*
X158586092Y-120278848D02*
X158372304Y-120278848D01*
X158372304Y-120614800D02*
X158372304Y-119973436D01*
X158677715Y-119973436D01*
X158769339Y-120675883D02*
X159257997Y-120675883D01*
X159380161Y-120584259D02*
X159471785Y-120614800D01*
X159624491Y-120614800D01*
X159685573Y-120584259D01*
X159716114Y-120553718D01*
X159746655Y-120492636D01*
X159746655Y-120431554D01*
X159716114Y-120370471D01*
X159685573Y-120339930D01*
X159624491Y-120309389D01*
X159502326Y-120278848D01*
X159441244Y-120248307D01*
X159410703Y-120217766D01*
X159380161Y-120156683D01*
X159380161Y-120095601D01*
X159410703Y-120034519D01*
X159441244Y-120003978D01*
X159502326Y-119973436D01*
X159655032Y-119973436D01*
X159746655Y-120003978D01*
X160113149Y-120614800D02*
X160052067Y-120584259D01*
X160021525Y-120553718D01*
X159990984Y-120492636D01*
X159990984Y-120309389D01*
X160021525Y-120248307D01*
X160052067Y-120217766D01*
X160113149Y-120187224D01*
X160204772Y-120187224D01*
X160265855Y-120217766D01*
X160296396Y-120248307D01*
X160326937Y-120309389D01*
X160326937Y-120492636D01*
X160296396Y-120553718D01*
X160265855Y-120584259D01*
X160204772Y-120614800D01*
X160113149Y-120614800D01*
X160876677Y-120187224D02*
X160876677Y-120614800D01*
X160601807Y-120187224D02*
X160601807Y-120523177D01*
X160632348Y-120584259D01*
X160693431Y-120614800D01*
X160785054Y-120614800D01*
X160846136Y-120584259D01*
X160876677Y-120553718D01*
X161182089Y-120614800D02*
X161182089Y-120187224D01*
X161182089Y-120309389D02*
X161212630Y-120248307D01*
X161243171Y-120217766D01*
X161304253Y-120187224D01*
X161365336Y-120187224D01*
X161853994Y-120584259D02*
X161792912Y-120614800D01*
X161670747Y-120614800D01*
X161609665Y-120584259D01*
X161579124Y-120553718D01*
X161548583Y-120492636D01*
X161548583Y-120309389D01*
X161579124Y-120248307D01*
X161609665Y-120217766D01*
X161670747Y-120187224D01*
X161792912Y-120187224D01*
X161853994Y-120217766D01*
X162373193Y-120584259D02*
X162312111Y-120614800D01*
X162189947Y-120614800D01*
X162128864Y-120584259D01*
X162098323Y-120523177D01*
X162098323Y-120278848D01*
X162128864Y-120217766D01*
X162189947Y-120187224D01*
X162312111Y-120187224D01*
X162373193Y-120217766D01*
X162403735Y-120278848D01*
X162403735Y-120339930D01*
X162098323Y-120401012D01*
G04 #@! TO.C,J2*
X159431198Y-124238129D02*
X159431198Y-124696099D01*
X159400666Y-124787693D01*
X159339604Y-124848756D01*
X159248010Y-124879288D01*
X159186947Y-124879288D01*
X159705980Y-124299191D02*
X159736512Y-124268660D01*
X159797574Y-124238129D01*
X159950231Y-124238129D01*
X160011294Y-124268660D01*
X160041825Y-124299191D01*
X160072357Y-124360254D01*
X160072357Y-124421317D01*
X160041825Y-124512911D01*
X159675449Y-124879288D01*
X160072357Y-124879288D01*
X158097433Y-130139800D02*
X157883645Y-129834389D01*
X157730940Y-130139800D02*
X157730940Y-129498436D01*
X157975269Y-129498436D01*
X158036351Y-129528978D01*
X158066892Y-129559519D01*
X158097433Y-129620601D01*
X158097433Y-129712224D01*
X158066892Y-129773307D01*
X158036351Y-129803848D01*
X157975269Y-129834389D01*
X157730940Y-129834389D01*
X158586092Y-129803848D02*
X158372304Y-129803848D01*
X158372304Y-130139800D02*
X158372304Y-129498436D01*
X158677715Y-129498436D01*
X158769339Y-130200883D02*
X159257997Y-130200883D01*
X159380161Y-130109259D02*
X159471785Y-130139800D01*
X159624491Y-130139800D01*
X159685573Y-130109259D01*
X159716114Y-130078718D01*
X159746655Y-130017636D01*
X159746655Y-129956554D01*
X159716114Y-129895471D01*
X159685573Y-129864930D01*
X159624491Y-129834389D01*
X159502326Y-129803848D01*
X159441244Y-129773307D01*
X159410703Y-129742766D01*
X159380161Y-129681683D01*
X159380161Y-129620601D01*
X159410703Y-129559519D01*
X159441244Y-129528978D01*
X159502326Y-129498436D01*
X159655032Y-129498436D01*
X159746655Y-129528978D01*
X160113149Y-130139800D02*
X160052067Y-130109259D01*
X160021525Y-130078718D01*
X159990984Y-130017636D01*
X159990984Y-129834389D01*
X160021525Y-129773307D01*
X160052067Y-129742766D01*
X160113149Y-129712224D01*
X160204772Y-129712224D01*
X160265855Y-129742766D01*
X160296396Y-129773307D01*
X160326937Y-129834389D01*
X160326937Y-130017636D01*
X160296396Y-130078718D01*
X160265855Y-130109259D01*
X160204772Y-130139800D01*
X160113149Y-130139800D01*
X160876677Y-129712224D02*
X160876677Y-130139800D01*
X160601807Y-129712224D02*
X160601807Y-130048177D01*
X160632348Y-130109259D01*
X160693431Y-130139800D01*
X160785054Y-130139800D01*
X160846136Y-130109259D01*
X160876677Y-130078718D01*
X161182089Y-130139800D02*
X161182089Y-129712224D01*
X161182089Y-129834389D02*
X161212630Y-129773307D01*
X161243171Y-129742766D01*
X161304253Y-129712224D01*
X161365336Y-129712224D01*
X161853994Y-130109259D02*
X161792912Y-130139800D01*
X161670747Y-130139800D01*
X161609665Y-130109259D01*
X161579124Y-130078718D01*
X161548583Y-130017636D01*
X161548583Y-129834389D01*
X161579124Y-129773307D01*
X161609665Y-129742766D01*
X161670747Y-129712224D01*
X161792912Y-129712224D01*
X161853994Y-129742766D01*
X162373193Y-130109259D02*
X162312111Y-130139800D01*
X162189947Y-130139800D01*
X162128864Y-130109259D01*
X162098323Y-130048177D01*
X162098323Y-129803848D01*
X162128864Y-129742766D01*
X162189947Y-129712224D01*
X162312111Y-129712224D01*
X162373193Y-129742766D01*
X162403735Y-129803848D01*
X162403735Y-129864930D01*
X162098323Y-129926012D01*
G04 #@! TO.C,L1*
X151780034Y-120627651D02*
X151479643Y-120627651D01*
X151479643Y-119996830D01*
X152320737Y-120627651D02*
X151960268Y-120627651D01*
X152140503Y-120627651D02*
X152140503Y-119996830D01*
X152080425Y-120086947D01*
X152020346Y-120147025D01*
X151960268Y-120177064D01*
X150388414Y-116792588D02*
X150418448Y-116762555D01*
X150478516Y-116732521D01*
X150628685Y-116732521D01*
X150688753Y-116762555D01*
X150718786Y-116792588D01*
X150748820Y-116852656D01*
X150748820Y-116912724D01*
X150718786Y-117002825D01*
X150358381Y-117363231D01*
X150748820Y-117363231D01*
X151289429Y-116732521D02*
X151169294Y-116732521D01*
X151109226Y-116762555D01*
X151079192Y-116792588D01*
X151019124Y-116882690D01*
X150989091Y-117002825D01*
X150989091Y-117243095D01*
X151019124Y-117303163D01*
X151049158Y-117333197D01*
X151109226Y-117363231D01*
X151229361Y-117363231D01*
X151289429Y-117333197D01*
X151319463Y-117303163D01*
X151349496Y-117243095D01*
X151349496Y-117092926D01*
X151319463Y-117032859D01*
X151289429Y-117002825D01*
X151229361Y-116972791D01*
X151109226Y-116972791D01*
X151049158Y-117002825D01*
X151019124Y-117032859D01*
X150989091Y-117092926D01*
X151619801Y-116942757D02*
X151619801Y-117363231D01*
X151619801Y-117002825D02*
X151649834Y-116972791D01*
X151709902Y-116942757D01*
X151800004Y-116942757D01*
X151860071Y-116972791D01*
X151890105Y-117032859D01*
X151890105Y-117363231D01*
X152190443Y-117363231D02*
X152190443Y-116732521D01*
X152190443Y-117032859D02*
X152550849Y-117032859D01*
X152550849Y-117363231D02*
X152550849Y-116732521D01*
G04 #@! TO.C,L2*
X151540034Y-130152651D02*
X151239643Y-130152651D01*
X151239643Y-129521830D01*
X151720268Y-129581908D02*
X151750307Y-129551869D01*
X151810386Y-129521830D01*
X151960581Y-129521830D01*
X152020659Y-129551869D01*
X152050698Y-129581908D01*
X152080737Y-129641986D01*
X152080737Y-129702064D01*
X152050698Y-129792182D01*
X151690229Y-130152651D01*
X152080737Y-130152651D01*
X150058313Y-126888231D02*
X150178448Y-126888231D01*
X150238516Y-126858197D01*
X150268550Y-126828163D01*
X150328617Y-126738062D01*
X150358651Y-126617926D01*
X150358651Y-126377656D01*
X150328617Y-126317588D01*
X150298584Y-126287555D01*
X150238516Y-126257521D01*
X150118381Y-126257521D01*
X150058313Y-126287555D01*
X150028279Y-126317588D01*
X149998245Y-126377656D01*
X149998245Y-126527825D01*
X150028279Y-126587893D01*
X150058313Y-126617926D01*
X150118381Y-126647960D01*
X150238516Y-126647960D01*
X150298584Y-126617926D01*
X150328617Y-126587893D01*
X150358651Y-126527825D01*
X150628955Y-126828163D02*
X150658989Y-126858197D01*
X150628955Y-126888231D01*
X150598922Y-126858197D01*
X150628955Y-126828163D01*
X150628955Y-126888231D01*
X151019395Y-126527825D02*
X150959327Y-126497791D01*
X150929294Y-126467757D01*
X150899260Y-126407690D01*
X150899260Y-126377656D01*
X150929294Y-126317588D01*
X150959327Y-126287555D01*
X151019395Y-126257521D01*
X151139530Y-126257521D01*
X151199598Y-126287555D01*
X151229632Y-126317588D01*
X151259665Y-126377656D01*
X151259665Y-126407690D01*
X151229632Y-126467757D01*
X151199598Y-126497791D01*
X151139530Y-126527825D01*
X151019395Y-126527825D01*
X150959327Y-126557859D01*
X150929294Y-126587893D01*
X150899260Y-126647960D01*
X150899260Y-126768095D01*
X150929294Y-126828163D01*
X150959327Y-126858197D01*
X151019395Y-126888231D01*
X151139530Y-126888231D01*
X151199598Y-126858197D01*
X151229632Y-126828163D01*
X151259665Y-126768095D01*
X151259665Y-126647960D01*
X151229632Y-126587893D01*
X151199598Y-126557859D01*
X151139530Y-126527825D01*
X151529970Y-126467757D02*
X151529970Y-126888231D01*
X151529970Y-126527825D02*
X151560004Y-126497791D01*
X151620071Y-126467757D01*
X151710173Y-126467757D01*
X151770240Y-126497791D01*
X151800274Y-126557859D01*
X151800274Y-126888231D01*
X152100612Y-126888231D02*
X152100612Y-126257521D01*
X152100612Y-126557859D02*
X152461018Y-126557859D01*
X152461018Y-126888231D02*
X152461018Y-126257521D01*
G04 #@! TD*
M02*
