G04 #@! TF.GenerationSoftware,KiCad,Pcbnew,5.0.0*
G04 #@! TF.CreationDate,2018-09-15T18:13:10-05:00*
G04 #@! TF.ProjectId,AntennaImpedance,416E74656E6E61496D706564616E6365,rev?*
G04 #@! TF.SameCoordinates,Original*
G04 #@! TF.FileFunction,Profile,NP*
%FSLAX46Y46*%
G04 Gerber Fmt 4.6, Leading zero omitted, Abs format (unit mm)*
G04 Created by KiCad (PCBNEW 5.0.0) date Sat Sep 15 18:13:10 2018*
%MOMM*%
%LPD*%
G01*
G04 APERTURE LIST*
%ADD10C,0.150000*%
%ADD11C,0.200000*%
G04 APERTURE END LIST*
D10*
X117132100Y-49314100D02*
X105410000Y-49326800D01*
X116979700Y-112255300D02*
X117132100Y-49314100D01*
X180733700Y-112102900D02*
X116979700Y-112255300D01*
X180733700Y-49377600D02*
X180733700Y-112102900D01*
X190995300Y-49377600D02*
X180733700Y-49377600D01*
D11*
X161825000Y-145422000D02*
X161819000Y-145422000D01*
X195619000Y-145422000D02*
X195619000Y-145422000D01*
X191055000Y-49382000D02*
X191061000Y-49384300D01*
X191061000Y-49384300D02*
X191068000Y-49385400D01*
X107435000Y-87247500D02*
X107437000Y-87253800D01*
X107434000Y-87241000D02*
X107435000Y-87247500D01*
X191068000Y-49385400D02*
X191074000Y-49388800D01*
X195687000Y-72433800D02*
X195687000Y-72440400D01*
X141531000Y-145420000D02*
X141525000Y-145422000D01*
X191074000Y-49388800D02*
X191080000Y-49391000D01*
X141587000Y-145360000D02*
X141585000Y-145366000D01*
X141550000Y-145413000D02*
X141544000Y-145415000D01*
X105380000Y-87310200D02*
X105376000Y-87305100D01*
X105384000Y-87316000D02*
X105380000Y-87310200D01*
X161789000Y-145409000D02*
X161783000Y-145405000D01*
X190967000Y-72433800D02*
X190967000Y-49532000D01*
X105399000Y-49395300D02*
X105404000Y-49391000D01*
X105393000Y-49398700D02*
X105399000Y-49395300D01*
X107424000Y-87223800D02*
X107428000Y-87228900D01*
X107420000Y-87218000D02*
X107424000Y-87223800D01*
X105517000Y-145272000D02*
X141437000Y-145272000D01*
X105517000Y-107612000D02*
X105517000Y-145272000D01*
X161904000Y-142401000D02*
X161905000Y-142408000D01*
X161900000Y-142395000D02*
X161904000Y-142401000D01*
X161858000Y-142355000D02*
X161864000Y-142359000D01*
X161851000Y-142354000D02*
X161858000Y-142355000D01*
X161794000Y-145413000D02*
X161789000Y-145409000D01*
X141493000Y-142354000D02*
X141499000Y-142352000D01*
X141486000Y-142355000D02*
X141493000Y-142354000D01*
X105404000Y-107471000D02*
X105410000Y-107469000D01*
X105399000Y-107475000D02*
X105404000Y-107471000D01*
X191080000Y-49391000D02*
X191085000Y-49395300D01*
X195684000Y-72421000D02*
X195685000Y-72427500D01*
X191085000Y-49395300D02*
X191091000Y-49398700D01*
X105416000Y-145419000D02*
X105410000Y-145415000D01*
X105376000Y-145385000D02*
X105374000Y-145379000D01*
X105380000Y-145390000D02*
X105376000Y-145385000D01*
X141439000Y-142408000D02*
X141440000Y-142401000D01*
X141437000Y-142414000D02*
X141439000Y-142408000D01*
X191091000Y-49398700D02*
X191095000Y-49403800D01*
X141544000Y-145415000D02*
X141538000Y-145419000D01*
X161907000Y-142420000D02*
X161907000Y-145272000D01*
X161907000Y-142420000D02*
X161907000Y-142420000D01*
X195687000Y-145354000D02*
X195687000Y-145360000D01*
X141587000Y-142502000D02*
X141587000Y-145354000D01*
X107400000Y-107603000D02*
X107394000Y-107605000D01*
X107405000Y-107599000D02*
X107400000Y-107603000D01*
X195678000Y-145385000D02*
X195674000Y-145390000D01*
X195655000Y-145409000D02*
X195650000Y-145413000D01*
X141587000Y-145354000D02*
X141587000Y-145354000D01*
X195684000Y-145373000D02*
X195680000Y-145379000D01*
X195680000Y-145379000D02*
X195678000Y-145385000D01*
X195665000Y-145400000D02*
X195661000Y-145405000D01*
X195670000Y-145396000D02*
X195665000Y-145400000D01*
X195638000Y-145419000D02*
X195631000Y-145420000D01*
X107437000Y-107550000D02*
X107435000Y-107556000D01*
X107437000Y-107544000D02*
X107437000Y-107550000D01*
X190967000Y-72460200D02*
X190967000Y-72433800D01*
X190969000Y-72466500D02*
X190967000Y-72460200D01*
X161757000Y-142502000D02*
X141587000Y-142502000D01*
X195631000Y-72374300D02*
X195638000Y-72375400D01*
X105435000Y-145422000D02*
X105429000Y-145422000D01*
X195687000Y-145360000D02*
X195685000Y-145366000D01*
X195625000Y-72372000D02*
X195631000Y-72374300D01*
X107434000Y-107563000D02*
X107430000Y-107569000D01*
X107435000Y-107556000D02*
X107434000Y-107563000D01*
X105367000Y-107524000D02*
X105369000Y-107518000D01*
X105367000Y-107530000D02*
X105367000Y-107524000D01*
X195687000Y-72440400D02*
X195687000Y-72440400D01*
X191049000Y-49382000D02*
X191055000Y-49382000D01*
X105393000Y-145405000D02*
X105389000Y-145400000D01*
X161774000Y-145396000D02*
X161770000Y-145390000D01*
X141437000Y-142420000D02*
X141437000Y-142414000D01*
X141437000Y-145272000D02*
X141437000Y-142420000D01*
X161779000Y-145400000D02*
X161774000Y-145396000D01*
X105374000Y-87298800D02*
X105370000Y-87293000D01*
X105376000Y-87305100D02*
X105374000Y-87298800D01*
X161800000Y-145415000D02*
X161794000Y-145413000D01*
X141538000Y-145419000D02*
X141531000Y-145420000D01*
X195687000Y-72440400D02*
X195687000Y-145354000D01*
X141519000Y-145422000D02*
X105435000Y-145422000D01*
X195674000Y-72403800D02*
X195678000Y-72408900D01*
X141565000Y-145400000D02*
X141561000Y-145405000D01*
X105435000Y-87342000D02*
X105429000Y-87342000D01*
X105435000Y-87342000D02*
X105435000Y-87342000D01*
X195631000Y-145420000D02*
X195625000Y-145422000D01*
X141578000Y-145385000D02*
X141574000Y-145390000D01*
X195638000Y-72375400D02*
X195644000Y-72378800D01*
X107430000Y-87235200D02*
X107434000Y-87241000D01*
X107428000Y-87228900D02*
X107430000Y-87235200D01*
X107381000Y-87194300D02*
X107388000Y-87195400D01*
X107375000Y-87192000D02*
X107381000Y-87194300D01*
X161839000Y-142352000D02*
X161839000Y-142352000D01*
X141505000Y-142352000D02*
X161839000Y-142352000D01*
X161898000Y-142389000D02*
X161900000Y-142395000D01*
X161894000Y-142384000D02*
X161898000Y-142389000D01*
X191117000Y-49450400D02*
X191117000Y-72372000D01*
X105517000Y-87192000D02*
X107369000Y-87192000D01*
X105517000Y-49532000D02*
X105517000Y-87192000D01*
X105384000Y-145396000D02*
X105380000Y-145390000D01*
X195644000Y-145415000D02*
X195638000Y-145419000D01*
X195625000Y-145422000D02*
X195619000Y-145422000D01*
X191114000Y-49431000D02*
X191115000Y-49437500D01*
X191035000Y-72522000D02*
X191035000Y-72522000D01*
X195537000Y-72522000D02*
X191035000Y-72522000D01*
X105389000Y-145400000D02*
X105384000Y-145396000D01*
X161825000Y-145422000D02*
X161825000Y-145422000D01*
X195537000Y-145272000D02*
X195537000Y-72522000D01*
X161907000Y-145272000D02*
X195537000Y-145272000D01*
X105376000Y-107499000D02*
X105380000Y-107494000D01*
X105374000Y-107505000D02*
X105376000Y-107499000D01*
X105369000Y-87286500D02*
X105367000Y-87280200D01*
X105370000Y-87293000D02*
X105369000Y-87286500D01*
X141561000Y-145405000D02*
X141555000Y-145409000D01*
X105416000Y-107465000D02*
X105423000Y-107464000D01*
X105410000Y-107469000D02*
X105416000Y-107465000D01*
X105374000Y-49425200D02*
X105376000Y-49418900D01*
X105370000Y-49431000D02*
X105374000Y-49425200D01*
X191049000Y-49382000D02*
X191049000Y-49382000D01*
X105435000Y-49382000D02*
X105435000Y-49382000D01*
X105429000Y-49382000D02*
X105435000Y-49382000D01*
X107405000Y-87205300D02*
X107411000Y-87208700D01*
X107400000Y-87201000D02*
X107405000Y-87205300D01*
X107415000Y-87213800D02*
X107420000Y-87218000D01*
X107411000Y-87208700D02*
X107415000Y-87213800D01*
X141505000Y-142352000D02*
X141505000Y-142352000D01*
X141499000Y-142352000D02*
X141505000Y-142352000D01*
X105384000Y-107488000D02*
X105389000Y-107484000D01*
X105380000Y-107494000D02*
X105384000Y-107488000D01*
X107388000Y-107609000D02*
X107381000Y-107610000D01*
X107394000Y-107605000D02*
X107388000Y-107609000D01*
X107437000Y-107544000D02*
X107437000Y-107544000D01*
X107437000Y-87260400D02*
X107437000Y-107544000D01*
X105380000Y-49413800D02*
X105384000Y-49408000D01*
X105376000Y-49418900D02*
X105380000Y-49413800D01*
X105399000Y-145409000D02*
X105393000Y-145405000D01*
X195661000Y-72388700D02*
X195665000Y-72393800D01*
X191095000Y-49403800D02*
X191100000Y-49408000D01*
X141587000Y-145354000D02*
X141587000Y-145360000D01*
X141580000Y-145379000D02*
X141578000Y-145385000D01*
X105370000Y-145373000D02*
X105369000Y-145366000D01*
X105374000Y-145379000D02*
X105370000Y-145373000D01*
X107394000Y-87198800D02*
X107400000Y-87201000D01*
X107388000Y-87195400D02*
X107394000Y-87198800D01*
X195687000Y-145354000D02*
X195687000Y-145354000D01*
X105367000Y-49450400D02*
X105367000Y-49443800D01*
X105367000Y-49450400D02*
X105367000Y-49450400D01*
X161907000Y-142414000D02*
X161907000Y-142420000D01*
X161905000Y-142408000D02*
X161907000Y-142414000D01*
X141555000Y-145409000D02*
X141550000Y-145413000D01*
X105404000Y-145413000D02*
X105399000Y-145409000D01*
X105367000Y-87253800D02*
X105367000Y-49450400D01*
X105367000Y-87280200D02*
X105367000Y-87253800D01*
X141469000Y-142365000D02*
X141474000Y-142361000D01*
X141463000Y-142369000D02*
X141469000Y-142365000D01*
X191029000Y-72522000D02*
X191023000Y-72519700D01*
X191035000Y-72522000D02*
X191029000Y-72522000D01*
X190993000Y-72505300D02*
X190989000Y-72500200D01*
X190999000Y-72508700D02*
X190993000Y-72505300D01*
X190984000Y-72496000D02*
X190980000Y-72490200D01*
X190989000Y-72500200D02*
X190984000Y-72496000D01*
X191117000Y-49450400D02*
X191117000Y-49450400D01*
X195674000Y-145390000D02*
X195670000Y-145396000D01*
X105389000Y-49403800D02*
X105393000Y-49398700D01*
X105384000Y-49408000D02*
X105389000Y-49403800D01*
X141480000Y-142359000D02*
X141486000Y-142355000D01*
X141474000Y-142361000D02*
X141480000Y-142359000D01*
X105367000Y-107530000D02*
X105367000Y-107530000D01*
X105367000Y-145334000D02*
X105367000Y-107530000D01*
X105399000Y-87328700D02*
X105393000Y-87325300D01*
X105404000Y-87333000D02*
X105399000Y-87328700D01*
X161845000Y-142352000D02*
X161851000Y-142354000D01*
X161839000Y-142352000D02*
X161845000Y-142352000D01*
X191115000Y-49437500D02*
X191117000Y-49443800D01*
X107369000Y-107612000D02*
X105517000Y-107612000D01*
X107369000Y-107612000D02*
X107369000Y-107612000D01*
X195661000Y-145405000D02*
X195655000Y-145409000D01*
X107369000Y-87192000D02*
X107375000Y-87192000D01*
X107369000Y-87192000D02*
X107369000Y-87192000D01*
X105429000Y-107462000D02*
X105435000Y-107462000D01*
X105423000Y-107464000D02*
X105429000Y-107462000D01*
X190976000Y-72485100D02*
X190974000Y-72478800D01*
X190980000Y-72490200D02*
X190976000Y-72485100D01*
X195619000Y-72372000D02*
X195625000Y-72372000D01*
X161757000Y-145334000D02*
X161757000Y-142502000D01*
X191100000Y-49408000D02*
X191104000Y-49413800D01*
X195644000Y-72378800D02*
X195650000Y-72381000D01*
X195619000Y-72372000D02*
X195619000Y-72372000D01*
X195665000Y-72393800D02*
X195670000Y-72398000D01*
X107375000Y-107612000D02*
X107369000Y-107612000D01*
X107381000Y-107610000D02*
X107375000Y-107612000D01*
X161813000Y-145420000D02*
X161806000Y-145419000D01*
X107287000Y-87342000D02*
X105435000Y-87342000D01*
X107287000Y-107462000D02*
X107287000Y-87342000D01*
X161806000Y-145419000D02*
X161800000Y-145415000D01*
X191117000Y-49443800D02*
X191117000Y-49450400D01*
X161881000Y-142369000D02*
X161885000Y-142374000D01*
X161875000Y-142365000D02*
X161881000Y-142369000D01*
X161870000Y-142361000D02*
X161875000Y-142365000D01*
X161864000Y-142359000D02*
X161870000Y-142361000D01*
X161759000Y-145366000D02*
X161757000Y-145360000D01*
X161766000Y-145385000D02*
X161764000Y-145379000D01*
X105389000Y-87320200D02*
X105384000Y-87316000D01*
X105393000Y-87325300D02*
X105389000Y-87320200D01*
X105370000Y-107511000D02*
X105374000Y-107505000D01*
X105369000Y-107518000D02*
X105370000Y-107511000D01*
X107411000Y-107595000D02*
X107405000Y-107599000D01*
X107415000Y-107590000D02*
X107411000Y-107595000D01*
X107428000Y-107575000D02*
X107424000Y-107580000D01*
X107430000Y-107569000D02*
X107428000Y-107575000D01*
X141459000Y-142374000D02*
X141463000Y-142369000D01*
X141454000Y-142378000D02*
X141459000Y-142374000D01*
X195678000Y-72408900D02*
X195680000Y-72415200D01*
X195655000Y-72385300D02*
X195661000Y-72388700D01*
X141585000Y-145366000D02*
X141584000Y-145373000D01*
X191110000Y-49425200D02*
X191114000Y-49431000D01*
X107420000Y-107586000D02*
X107415000Y-107590000D01*
X107424000Y-107580000D02*
X107420000Y-107586000D01*
X195670000Y-72398000D02*
X195674000Y-72403800D01*
X195685000Y-145366000D02*
X195684000Y-145373000D01*
X141570000Y-145396000D02*
X141565000Y-145400000D01*
X195650000Y-72381000D02*
X195655000Y-72385300D01*
X105435000Y-107462000D02*
X107287000Y-107462000D01*
X105435000Y-107462000D02*
X105435000Y-107462000D01*
X161783000Y-145405000D02*
X161779000Y-145400000D01*
X161819000Y-145422000D02*
X161813000Y-145420000D01*
X191108000Y-49418900D02*
X191110000Y-49425200D01*
X141444000Y-142395000D02*
X141446000Y-142389000D01*
X141440000Y-142401000D02*
X141444000Y-142395000D01*
X141574000Y-145390000D02*
X141570000Y-145396000D01*
X191117000Y-72372000D02*
X195619000Y-72372000D01*
X161890000Y-142378000D02*
X161894000Y-142384000D01*
X161885000Y-142374000D02*
X161890000Y-142378000D01*
X105369000Y-49437500D02*
X105370000Y-49431000D01*
X105367000Y-49443800D02*
X105369000Y-49437500D01*
X105423000Y-49384300D02*
X105429000Y-49382000D01*
X105416000Y-49385400D02*
X105423000Y-49384300D01*
X105423000Y-145420000D02*
X105416000Y-145419000D01*
X107437000Y-87260400D02*
X107437000Y-87260400D01*
X107437000Y-87253800D02*
X107437000Y-87260400D01*
X161760000Y-145373000D02*
X161759000Y-145366000D01*
X195685000Y-72427500D02*
X195687000Y-72433800D01*
X141519000Y-145422000D02*
X141519000Y-145422000D01*
X105429000Y-145422000D02*
X105423000Y-145420000D01*
X105423000Y-87339700D02*
X105416000Y-87338600D01*
X105429000Y-87342000D02*
X105423000Y-87339700D01*
X195650000Y-145413000D02*
X195644000Y-145415000D01*
X105367000Y-145360000D02*
X105367000Y-145334000D01*
X105369000Y-145366000D02*
X105367000Y-145360000D01*
X161764000Y-145379000D02*
X161760000Y-145373000D01*
X141525000Y-145422000D02*
X141519000Y-145422000D01*
X191016000Y-72518600D02*
X191010000Y-72515200D01*
X191023000Y-72519700D02*
X191016000Y-72518600D01*
X105410000Y-87335200D02*
X105404000Y-87333000D01*
X105416000Y-87338600D02*
X105410000Y-87335200D01*
X190970000Y-72473000D02*
X190969000Y-72466500D01*
X190974000Y-72478800D02*
X190970000Y-72473000D01*
X195680000Y-72415200D02*
X195684000Y-72421000D01*
X141584000Y-145373000D02*
X141580000Y-145379000D01*
X105435000Y-145422000D02*
X105435000Y-145422000D01*
X161770000Y-145390000D02*
X161766000Y-145385000D01*
X105393000Y-107479000D02*
X105399000Y-107475000D01*
X105389000Y-107484000D02*
X105393000Y-107479000D01*
X191104000Y-49413800D02*
X191108000Y-49418900D01*
X195619000Y-145422000D02*
X161825000Y-145422000D01*
X141450000Y-142384000D02*
X141454000Y-142378000D01*
X141446000Y-142389000D02*
X141450000Y-142384000D01*
X161757000Y-145360000D02*
X161757000Y-145334000D01*
X191004000Y-72513000D02*
X190999000Y-72508700D01*
X191010000Y-72515200D02*
X191004000Y-72513000D01*
X105410000Y-49388800D02*
X105416000Y-49385400D01*
X105404000Y-49391000D02*
X105410000Y-49388800D01*
X105410000Y-145415000D02*
X105404000Y-145413000D01*
M02*
