G04 #@! TF.GenerationSoftware,KiCad,Pcbnew,(5.1.9)-1*
G04 #@! TF.CreationDate,2021-03-05T17:13:54-06:00*
G04 #@! TF.ProjectId,X+,582b2e6b-6963-4616-945f-706362585858,3*
G04 #@! TF.SameCoordinates,Original*
G04 #@! TF.FileFunction,Copper,L2,Bot*
G04 #@! TF.FilePolarity,Positive*
%FSLAX46Y46*%
G04 Gerber Fmt 4.6, Leading zero omitted, Abs format (unit mm)*
G04 Created by KiCad (PCBNEW (5.1.9)-1) date 2021-03-05 17:13:54*
%MOMM*%
%LPD*%
G01*
G04 APERTURE LIST*
G04 #@! TA.AperFunction,ViaPad*
%ADD10C,0.800000*%
G04 #@! TD*
G04 #@! TA.AperFunction,Conductor*
%ADD11C,0.250000*%
G04 #@! TD*
G04 #@! TA.AperFunction,Conductor*
%ADD12C,0.700000*%
G04 #@! TD*
G04 #@! TA.AperFunction,Conductor*
%ADD13C,0.254000*%
G04 #@! TD*
G04 #@! TA.AperFunction,Conductor*
%ADD14C,0.150000*%
G04 #@! TD*
G04 APERTURE END LIST*
G04 #@! TA.AperFunction,SMDPad,CuDef*
G36*
G01*
X425750000Y-160735000D02*
X426650000Y-160735000D01*
G75*
G02*
X426850000Y-160935000I0J-200000D01*
G01*
X426850000Y-161335000D01*
G75*
G02*
X426650000Y-161535000I-200000J0D01*
G01*
X425750000Y-161535000D01*
G75*
G02*
X425550000Y-161335000I0J200000D01*
G01*
X425550000Y-160935000D01*
G75*
G02*
X425750000Y-160735000I200000J0D01*
G01*
G37*
G04 #@! TD.AperFunction*
G04 #@! TA.AperFunction,SMDPad,CuDef*
G36*
G01*
X425750000Y-161985000D02*
X426650000Y-161985000D01*
G75*
G02*
X426850000Y-162185000I0J-200000D01*
G01*
X426850000Y-162585000D01*
G75*
G02*
X426650000Y-162785000I-200000J0D01*
G01*
X425750000Y-162785000D01*
G75*
G02*
X425550000Y-162585000I0J200000D01*
G01*
X425550000Y-162185000D01*
G75*
G02*
X425750000Y-161985000I200000J0D01*
G01*
G37*
G04 #@! TD.AperFunction*
G04 #@! TA.AperFunction,SMDPad,CuDef*
G36*
G01*
X425750000Y-163235000D02*
X426650000Y-163235000D01*
G75*
G02*
X426850000Y-163435000I0J-200000D01*
G01*
X426850000Y-163835000D01*
G75*
G02*
X426650000Y-164035000I-200000J0D01*
G01*
X425750000Y-164035000D01*
G75*
G02*
X425550000Y-163835000I0J200000D01*
G01*
X425550000Y-163435000D01*
G75*
G02*
X425750000Y-163235000I200000J0D01*
G01*
G37*
G04 #@! TD.AperFunction*
G04 #@! TA.AperFunction,SMDPad,CuDef*
G36*
G01*
X425750000Y-164485000D02*
X426650000Y-164485000D01*
G75*
G02*
X426850000Y-164685000I0J-200000D01*
G01*
X426850000Y-165085000D01*
G75*
G02*
X426650000Y-165285000I-200000J0D01*
G01*
X425750000Y-165285000D01*
G75*
G02*
X425550000Y-165085000I0J200000D01*
G01*
X425550000Y-164685000D01*
G75*
G02*
X425750000Y-164485000I200000J0D01*
G01*
G37*
G04 #@! TD.AperFunction*
G04 #@! TA.AperFunction,SMDPad,CuDef*
G36*
G01*
X427700000Y-157535000D02*
X430200000Y-157535000D01*
G75*
G02*
X430450000Y-157785000I0J-250000D01*
G01*
X430450000Y-159385000D01*
G75*
G02*
X430200000Y-159635000I-250000J0D01*
G01*
X427700000Y-159635000D01*
G75*
G02*
X427450000Y-159385000I0J250000D01*
G01*
X427450000Y-157785000D01*
G75*
G02*
X427700000Y-157535000I250000J0D01*
G01*
G37*
G04 #@! TD.AperFunction*
G04 #@! TA.AperFunction,SMDPad,CuDef*
G36*
G01*
X427700000Y-166385000D02*
X430200000Y-166385000D01*
G75*
G02*
X430450000Y-166635000I0J-250000D01*
G01*
X430450000Y-168235000D01*
G75*
G02*
X430200000Y-168485000I-250000J0D01*
G01*
X427700000Y-168485000D01*
G75*
G02*
X427450000Y-168235000I0J250000D01*
G01*
X427450000Y-166635000D01*
G75*
G02*
X427700000Y-166385000I250000J0D01*
G01*
G37*
G04 #@! TD.AperFunction*
G04 #@! TA.AperFunction,SMDPad,CuDef*
G36*
G01*
X425750000Y-173035000D02*
X426650000Y-173035000D01*
G75*
G02*
X426850000Y-173235000I0J-200000D01*
G01*
X426850000Y-173635000D01*
G75*
G02*
X426650000Y-173835000I-200000J0D01*
G01*
X425750000Y-173835000D01*
G75*
G02*
X425550000Y-173635000I0J200000D01*
G01*
X425550000Y-173235000D01*
G75*
G02*
X425750000Y-173035000I200000J0D01*
G01*
G37*
G04 #@! TD.AperFunction*
G04 #@! TA.AperFunction,SMDPad,CuDef*
G36*
G01*
X425750000Y-174285000D02*
X426650000Y-174285000D01*
G75*
G02*
X426850000Y-174485000I0J-200000D01*
G01*
X426850000Y-174885000D01*
G75*
G02*
X426650000Y-175085000I-200000J0D01*
G01*
X425750000Y-175085000D01*
G75*
G02*
X425550000Y-174885000I0J200000D01*
G01*
X425550000Y-174485000D01*
G75*
G02*
X425750000Y-174285000I200000J0D01*
G01*
G37*
G04 #@! TD.AperFunction*
G04 #@! TA.AperFunction,SMDPad,CuDef*
G36*
G01*
X427700000Y-169835000D02*
X430200000Y-169835000D01*
G75*
G02*
X430450000Y-170085000I0J-250000D01*
G01*
X430450000Y-171685000D01*
G75*
G02*
X430200000Y-171935000I-250000J0D01*
G01*
X427700000Y-171935000D01*
G75*
G02*
X427450000Y-171685000I0J250000D01*
G01*
X427450000Y-170085000D01*
G75*
G02*
X427700000Y-169835000I250000J0D01*
G01*
G37*
G04 #@! TD.AperFunction*
G04 #@! TA.AperFunction,SMDPad,CuDef*
G36*
G01*
X427700000Y-176185000D02*
X430200000Y-176185000D01*
G75*
G02*
X430450000Y-176435000I0J-250000D01*
G01*
X430450000Y-178035000D01*
G75*
G02*
X430200000Y-178285000I-250000J0D01*
G01*
X427700000Y-178285000D01*
G75*
G02*
X427450000Y-178035000I0J250000D01*
G01*
X427450000Y-176435000D01*
G75*
G02*
X427700000Y-176185000I250000J0D01*
G01*
G37*
G04 #@! TD.AperFunction*
D10*
X147955000Y-168910000D03*
X194945000Y-168910000D03*
X239395000Y-168910000D03*
X283845000Y-168910000D03*
X328295000Y-168910000D03*
X372745000Y-168910000D03*
X416675000Y-168300000D03*
X422910000Y-158750000D03*
X402590000Y-174625000D03*
X402590000Y-173355000D03*
D11*
X147955000Y-168910000D02*
X149860000Y-170815000D01*
X149860000Y-170815000D02*
X152400000Y-170815000D01*
X425985000Y-165100000D02*
X426200000Y-164885000D01*
D12*
X422910000Y-165100000D02*
X425985000Y-165100000D01*
D11*
X423105000Y-163635000D02*
X422910000Y-163830000D01*
D12*
X426200000Y-163635000D02*
X423105000Y-163635000D01*
X422910000Y-158750000D02*
X422910000Y-163830000D01*
X422910000Y-163830000D02*
X422910000Y-165100000D01*
D11*
X426140000Y-174625000D02*
X426200000Y-174685000D01*
X402590000Y-174625000D02*
X426140000Y-174625000D01*
X426120000Y-173355000D02*
X426200000Y-173435000D01*
X402590000Y-173355000D02*
X426120000Y-173355000D01*
D13*
X445590000Y-133715123D02*
X445586565Y-133750000D01*
X445600273Y-133889184D01*
X445640872Y-134023020D01*
X445706800Y-134146363D01*
X445795525Y-134254475D01*
X445903637Y-134343200D01*
X446026980Y-134409128D01*
X446160816Y-134449727D01*
X446300000Y-134463435D01*
X446334877Y-134460000D01*
X457265123Y-134460000D01*
X457300000Y-134463435D01*
X457334877Y-134460000D01*
X457439184Y-134449727D01*
X457573020Y-134409128D01*
X457696363Y-134343200D01*
X457804475Y-134254475D01*
X457893200Y-134146363D01*
X457959128Y-134023020D01*
X457999727Y-133889184D01*
X458013435Y-133750000D01*
X458010000Y-133715123D01*
X458010000Y-131839941D01*
X462423366Y-131839941D01*
X462423366Y-132180059D01*
X462489720Y-132513640D01*
X462619877Y-132827868D01*
X462808836Y-133110665D01*
X463049335Y-133351164D01*
X463332132Y-133540123D01*
X463646360Y-133670280D01*
X463979941Y-133736634D01*
X464320059Y-133736634D01*
X464653640Y-133670280D01*
X464967868Y-133540123D01*
X465250665Y-133351164D01*
X465491164Y-133110665D01*
X465680123Y-132827868D01*
X465810280Y-132513640D01*
X465876634Y-132180059D01*
X465876634Y-131839941D01*
X465810280Y-131506360D01*
X465680123Y-131192132D01*
X465491164Y-130909335D01*
X465250665Y-130668836D01*
X464967868Y-130479877D01*
X464653640Y-130349720D01*
X464320059Y-130283366D01*
X463979941Y-130283366D01*
X463646360Y-130349720D01*
X463332132Y-130479877D01*
X463049335Y-130668836D01*
X462808836Y-130909335D01*
X462619877Y-131192132D01*
X462489720Y-131506360D01*
X462423366Y-131839941D01*
X458010000Y-131839941D01*
X458010000Y-129667000D01*
X465963000Y-129667000D01*
X465963000Y-158050000D01*
X462865123Y-158050000D01*
X462834112Y-158053054D01*
X462822039Y-158052970D01*
X462812174Y-158053937D01*
X462433684Y-158093717D01*
X462370660Y-158106654D01*
X462307434Y-158118715D01*
X462297944Y-158121581D01*
X461934391Y-158234120D01*
X461875087Y-158259049D01*
X461815405Y-158283162D01*
X461806652Y-158287816D01*
X461471881Y-158468827D01*
X461418581Y-158504778D01*
X461364686Y-158540046D01*
X461357004Y-158546312D01*
X461063767Y-158788898D01*
X461018431Y-158834551D01*
X460972445Y-158879584D01*
X460966126Y-158887222D01*
X460725593Y-159182146D01*
X460689987Y-159235737D01*
X460653626Y-159288841D01*
X460648911Y-159297561D01*
X460470242Y-159633588D01*
X460445724Y-159693075D01*
X460420370Y-159752230D01*
X460417438Y-159761700D01*
X460307440Y-160126030D01*
X460294947Y-160189127D01*
X460281561Y-160252101D01*
X460280525Y-160261960D01*
X460243388Y-160640717D01*
X460243388Y-160640724D01*
X460240000Y-160675124D01*
X460240001Y-177844877D01*
X460243054Y-177875879D01*
X460242970Y-177887961D01*
X460243937Y-177897827D01*
X460283717Y-178276316D01*
X460296654Y-178339340D01*
X460308715Y-178402566D01*
X460311581Y-178412056D01*
X460424120Y-178775609D01*
X460449044Y-178834902D01*
X460473162Y-178894595D01*
X460477815Y-178903344D01*
X460477817Y-178903349D01*
X460477820Y-178903353D01*
X460658827Y-179238120D01*
X460694790Y-179291437D01*
X460730046Y-179345314D01*
X460736312Y-179352996D01*
X460978898Y-179646233D01*
X461024535Y-179691552D01*
X461069584Y-179737555D01*
X461077223Y-179743874D01*
X461372146Y-179984407D01*
X461425722Y-180020003D01*
X461478841Y-180056374D01*
X461487561Y-180061089D01*
X461823588Y-180239757D01*
X461883042Y-180264262D01*
X461942230Y-180289630D01*
X461951700Y-180292562D01*
X462316030Y-180402560D01*
X462379120Y-180415052D01*
X462442101Y-180428439D01*
X462451960Y-180429475D01*
X462830717Y-180466612D01*
X462830723Y-180466612D01*
X462865123Y-180470000D01*
X465963000Y-180470000D01*
X465963000Y-209423000D01*
X147447000Y-209423000D01*
X147447000Y-206339941D01*
X253623366Y-206339941D01*
X253623366Y-206680059D01*
X253689720Y-207013640D01*
X253819877Y-207327868D01*
X254008836Y-207610665D01*
X254249335Y-207851164D01*
X254532132Y-208040123D01*
X254846360Y-208170280D01*
X255179941Y-208236634D01*
X255520059Y-208236634D01*
X255853640Y-208170280D01*
X256167868Y-208040123D01*
X256450665Y-207851164D01*
X256691164Y-207610665D01*
X256880123Y-207327868D01*
X257010280Y-207013640D01*
X257076634Y-206680059D01*
X257076634Y-206339941D01*
X257066762Y-206290308D01*
X354277087Y-206290308D01*
X354277087Y-206629692D01*
X354343298Y-206962555D01*
X354473175Y-207276105D01*
X354661726Y-207558293D01*
X354901707Y-207798274D01*
X355183895Y-207986825D01*
X355497445Y-208116702D01*
X355830308Y-208182913D01*
X356169692Y-208182913D01*
X356502555Y-208116702D01*
X356816105Y-207986825D01*
X357098293Y-207798274D01*
X357338274Y-207558293D01*
X357526825Y-207276105D01*
X357656702Y-206962555D01*
X357722913Y-206629692D01*
X357722913Y-206339941D01*
X396373366Y-206339941D01*
X396373366Y-206680059D01*
X396439720Y-207013640D01*
X396569877Y-207327868D01*
X396758836Y-207610665D01*
X396999335Y-207851164D01*
X397282132Y-208040123D01*
X397596360Y-208170280D01*
X397929941Y-208236634D01*
X398270059Y-208236634D01*
X398603640Y-208170280D01*
X398917868Y-208040123D01*
X399200665Y-207851164D01*
X399441164Y-207610665D01*
X399630123Y-207327868D01*
X399760280Y-207013640D01*
X399826634Y-206680059D01*
X399826634Y-206339941D01*
X399760280Y-206006360D01*
X399630123Y-205692132D01*
X399441164Y-205409335D01*
X399200665Y-205168836D01*
X398917868Y-204979877D01*
X398603640Y-204849720D01*
X398270059Y-204783366D01*
X397929941Y-204783366D01*
X397596360Y-204849720D01*
X397282132Y-204979877D01*
X396999335Y-205168836D01*
X396758836Y-205409335D01*
X396569877Y-205692132D01*
X396439720Y-206006360D01*
X396373366Y-206339941D01*
X357722913Y-206339941D01*
X357722913Y-206290308D01*
X357656702Y-205957445D01*
X357526825Y-205643895D01*
X357338274Y-205361707D01*
X357098293Y-205121726D01*
X356816105Y-204933175D01*
X356502555Y-204803298D01*
X356184040Y-204739941D01*
X448473366Y-204739941D01*
X448473366Y-205080059D01*
X448539720Y-205413640D01*
X448669877Y-205727868D01*
X448858836Y-206010665D01*
X449099335Y-206251164D01*
X449382132Y-206440123D01*
X449696360Y-206570280D01*
X450029941Y-206636634D01*
X450370059Y-206636634D01*
X450703640Y-206570280D01*
X451017868Y-206440123D01*
X451300665Y-206251164D01*
X451541164Y-206010665D01*
X451730123Y-205727868D01*
X451860280Y-205413640D01*
X451926634Y-205080059D01*
X451926634Y-204739941D01*
X453273366Y-204739941D01*
X453273366Y-205080059D01*
X453339720Y-205413640D01*
X453469877Y-205727868D01*
X453658836Y-206010665D01*
X453899335Y-206251164D01*
X454182132Y-206440123D01*
X454496360Y-206570280D01*
X454829941Y-206636634D01*
X455170059Y-206636634D01*
X455503640Y-206570280D01*
X455817868Y-206440123D01*
X456042631Y-206289941D01*
X462423366Y-206289941D01*
X462423366Y-206630059D01*
X462489720Y-206963640D01*
X462619877Y-207277868D01*
X462808836Y-207560665D01*
X463049335Y-207801164D01*
X463332132Y-207990123D01*
X463646360Y-208120280D01*
X463979941Y-208186634D01*
X464320059Y-208186634D01*
X464653640Y-208120280D01*
X464967868Y-207990123D01*
X465250665Y-207801164D01*
X465491164Y-207560665D01*
X465680123Y-207277868D01*
X465810280Y-206963640D01*
X465876634Y-206630059D01*
X465876634Y-206289941D01*
X465810280Y-205956360D01*
X465680123Y-205642132D01*
X465491164Y-205359335D01*
X465250665Y-205118836D01*
X464967868Y-204929877D01*
X464653640Y-204799720D01*
X464320059Y-204733366D01*
X463979941Y-204733366D01*
X463646360Y-204799720D01*
X463332132Y-204929877D01*
X463049335Y-205118836D01*
X462808836Y-205359335D01*
X462619877Y-205642132D01*
X462489720Y-205956360D01*
X462423366Y-206289941D01*
X456042631Y-206289941D01*
X456100665Y-206251164D01*
X456341164Y-206010665D01*
X456530123Y-205727868D01*
X456660280Y-205413640D01*
X456726634Y-205080059D01*
X456726634Y-204739941D01*
X456660280Y-204406360D01*
X456530123Y-204092132D01*
X456341164Y-203809335D01*
X456100665Y-203568836D01*
X455817868Y-203379877D01*
X455503640Y-203249720D01*
X455170059Y-203183366D01*
X454829941Y-203183366D01*
X454496360Y-203249720D01*
X454182132Y-203379877D01*
X453899335Y-203568836D01*
X453658836Y-203809335D01*
X453469877Y-204092132D01*
X453339720Y-204406360D01*
X453273366Y-204739941D01*
X451926634Y-204739941D01*
X451860280Y-204406360D01*
X451730123Y-204092132D01*
X451541164Y-203809335D01*
X451300665Y-203568836D01*
X451017868Y-203379877D01*
X450703640Y-203249720D01*
X450370059Y-203183366D01*
X450029941Y-203183366D01*
X449696360Y-203249720D01*
X449382132Y-203379877D01*
X449099335Y-203568836D01*
X448858836Y-203809335D01*
X448669877Y-204092132D01*
X448539720Y-204406360D01*
X448473366Y-204739941D01*
X356184040Y-204739941D01*
X356169692Y-204737087D01*
X355830308Y-204737087D01*
X355497445Y-204803298D01*
X355183895Y-204933175D01*
X354901707Y-205121726D01*
X354661726Y-205361707D01*
X354473175Y-205643895D01*
X354343298Y-205957445D01*
X354277087Y-206290308D01*
X257066762Y-206290308D01*
X257010280Y-206006360D01*
X256880123Y-205692132D01*
X256691164Y-205409335D01*
X256450665Y-205168836D01*
X256167868Y-204979877D01*
X255853640Y-204849720D01*
X255520059Y-204783366D01*
X255179941Y-204783366D01*
X254846360Y-204849720D01*
X254532132Y-204979877D01*
X254249335Y-205168836D01*
X254008836Y-205409335D01*
X253819877Y-205692132D01*
X253689720Y-206006360D01*
X253623366Y-206339941D01*
X147447000Y-206339941D01*
X147447000Y-176435000D01*
X426811928Y-176435000D01*
X426811928Y-178035000D01*
X426828992Y-178208254D01*
X426879528Y-178374850D01*
X426961595Y-178528386D01*
X427072038Y-178662962D01*
X427206614Y-178773405D01*
X427360150Y-178855472D01*
X427526746Y-178906008D01*
X427700000Y-178923072D01*
X430200000Y-178923072D01*
X430373254Y-178906008D01*
X430539850Y-178855472D01*
X430693386Y-178773405D01*
X430827962Y-178662962D01*
X430938405Y-178528386D01*
X431020472Y-178374850D01*
X431071008Y-178208254D01*
X431088072Y-178035000D01*
X431088072Y-176435000D01*
X431071008Y-176261746D01*
X431020472Y-176095150D01*
X430938405Y-175941614D01*
X430827962Y-175807038D01*
X430693386Y-175696595D01*
X430539850Y-175614528D01*
X430373254Y-175563992D01*
X430200000Y-175546928D01*
X427700000Y-175546928D01*
X427526746Y-175563992D01*
X427360150Y-175614528D01*
X427206614Y-175696595D01*
X427072038Y-175807038D01*
X426961595Y-175941614D01*
X426879528Y-176095150D01*
X426828992Y-176261746D01*
X426811928Y-176435000D01*
X147447000Y-176435000D01*
X147447000Y-173253061D01*
X401555000Y-173253061D01*
X401555000Y-173456939D01*
X401594774Y-173656898D01*
X401672795Y-173845256D01*
X401769510Y-173990000D01*
X401672795Y-174134744D01*
X401594774Y-174323102D01*
X401555000Y-174523061D01*
X401555000Y-174726939D01*
X401594774Y-174926898D01*
X401672795Y-175115256D01*
X401786063Y-175284774D01*
X401930226Y-175428937D01*
X402099744Y-175542205D01*
X402288102Y-175620226D01*
X402488061Y-175660000D01*
X402691939Y-175660000D01*
X402891898Y-175620226D01*
X403080256Y-175542205D01*
X403249774Y-175428937D01*
X403293711Y-175385000D01*
X425081394Y-175385000D01*
X425157394Y-175477606D01*
X425284392Y-175581831D01*
X425429284Y-175659278D01*
X425586500Y-175706969D01*
X425750000Y-175723072D01*
X426650000Y-175723072D01*
X426813500Y-175706969D01*
X426970716Y-175659278D01*
X427115608Y-175581831D01*
X427242606Y-175477606D01*
X427346831Y-175350608D01*
X427424278Y-175205716D01*
X427471969Y-175048500D01*
X427488072Y-174885000D01*
X427488072Y-174485000D01*
X427471969Y-174321500D01*
X427424278Y-174164284D01*
X427368537Y-174060000D01*
X427424278Y-173955716D01*
X427471969Y-173798500D01*
X427488072Y-173635000D01*
X427488072Y-173235000D01*
X427471969Y-173071500D01*
X427424278Y-172914284D01*
X427346831Y-172769392D01*
X427242606Y-172642394D01*
X427115608Y-172538169D01*
X426970716Y-172460722D01*
X426813500Y-172413031D01*
X426650000Y-172396928D01*
X425750000Y-172396928D01*
X425586500Y-172413031D01*
X425429284Y-172460722D01*
X425284392Y-172538169D01*
X425215144Y-172595000D01*
X403293711Y-172595000D01*
X403249774Y-172551063D01*
X403080256Y-172437795D01*
X402891898Y-172359774D01*
X402691939Y-172320000D01*
X402488061Y-172320000D01*
X402288102Y-172359774D01*
X402099744Y-172437795D01*
X401930226Y-172551063D01*
X401786063Y-172695226D01*
X401672795Y-172864744D01*
X401594774Y-173053102D01*
X401555000Y-173253061D01*
X147447000Y-173253061D01*
X147447000Y-170085000D01*
X426811928Y-170085000D01*
X426811928Y-171685000D01*
X426828992Y-171858254D01*
X426879528Y-172024850D01*
X426961595Y-172178386D01*
X427072038Y-172312962D01*
X427206614Y-172423405D01*
X427360150Y-172505472D01*
X427526746Y-172556008D01*
X427700000Y-172573072D01*
X430200000Y-172573072D01*
X430373254Y-172556008D01*
X430539850Y-172505472D01*
X430693386Y-172423405D01*
X430827962Y-172312962D01*
X430938405Y-172178386D01*
X431020472Y-172024850D01*
X431071008Y-171858254D01*
X431088072Y-171685000D01*
X431088072Y-170085000D01*
X431071008Y-169911746D01*
X431020472Y-169745150D01*
X430938405Y-169591614D01*
X430827962Y-169457038D01*
X430693386Y-169346595D01*
X430539850Y-169264528D01*
X430373254Y-169213992D01*
X430200000Y-169196928D01*
X427700000Y-169196928D01*
X427526746Y-169213992D01*
X427360150Y-169264528D01*
X427206614Y-169346595D01*
X427072038Y-169457038D01*
X426961595Y-169591614D01*
X426879528Y-169745150D01*
X426828992Y-169911746D01*
X426811928Y-170085000D01*
X147447000Y-170085000D01*
X147447000Y-166635000D01*
X426811928Y-166635000D01*
X426811928Y-168235000D01*
X426828992Y-168408254D01*
X426879528Y-168574850D01*
X426961595Y-168728386D01*
X427072038Y-168862962D01*
X427206614Y-168973405D01*
X427360150Y-169055472D01*
X427526746Y-169106008D01*
X427700000Y-169123072D01*
X430200000Y-169123072D01*
X430373254Y-169106008D01*
X430539850Y-169055472D01*
X430693386Y-168973405D01*
X430827962Y-168862962D01*
X430938405Y-168728386D01*
X431020472Y-168574850D01*
X431071008Y-168408254D01*
X431088072Y-168235000D01*
X431088072Y-166635000D01*
X431071008Y-166461746D01*
X431020472Y-166295150D01*
X430938405Y-166141614D01*
X430827962Y-166007038D01*
X430693386Y-165896595D01*
X430539850Y-165814528D01*
X430373254Y-165763992D01*
X430200000Y-165746928D01*
X427700000Y-165746928D01*
X427526746Y-165763992D01*
X427360150Y-165814528D01*
X427206614Y-165896595D01*
X427072038Y-166007038D01*
X426961595Y-166141614D01*
X426879528Y-166295150D01*
X426828992Y-166461746D01*
X426811928Y-166635000D01*
X147447000Y-166635000D01*
X147447000Y-158648061D01*
X421875000Y-158648061D01*
X421875000Y-158851939D01*
X421914774Y-159051898D01*
X421925000Y-159076586D01*
X421925001Y-163781611D01*
X421925000Y-163781621D01*
X421925001Y-165051610D01*
X421920235Y-165100000D01*
X421939253Y-165293094D01*
X421995576Y-165478767D01*
X422087040Y-165649884D01*
X422210130Y-165799870D01*
X422360116Y-165922960D01*
X422531233Y-166014424D01*
X422716906Y-166070747D01*
X422861620Y-166085000D01*
X422910000Y-166089765D01*
X422958380Y-166085000D01*
X426033380Y-166085000D01*
X426178094Y-166070747D01*
X426363767Y-166014424D01*
X426534674Y-165923072D01*
X426650000Y-165923072D01*
X426813500Y-165906969D01*
X426970716Y-165859278D01*
X427115608Y-165781831D01*
X427242606Y-165677606D01*
X427346831Y-165550608D01*
X427424278Y-165405716D01*
X427471969Y-165248500D01*
X427488072Y-165085000D01*
X427488072Y-164685000D01*
X427471969Y-164521500D01*
X427424278Y-164364284D01*
X427368537Y-164260000D01*
X427424278Y-164155716D01*
X427471969Y-163998500D01*
X427488072Y-163835000D01*
X427488072Y-163435000D01*
X427471969Y-163271500D01*
X427424278Y-163114284D01*
X427409145Y-163085973D01*
X427439502Y-163029180D01*
X427475812Y-162909482D01*
X427488072Y-162785000D01*
X427485000Y-162670750D01*
X427326250Y-162512000D01*
X426327000Y-162512000D01*
X426327000Y-162532000D01*
X426073000Y-162532000D01*
X426073000Y-162512000D01*
X425073750Y-162512000D01*
X424935750Y-162650000D01*
X423895000Y-162650000D01*
X423895000Y-161535000D01*
X424911928Y-161535000D01*
X424924188Y-161659482D01*
X424954680Y-161760000D01*
X424924188Y-161860518D01*
X424911928Y-161985000D01*
X424915000Y-162099250D01*
X425073750Y-162258000D01*
X426073000Y-162258000D01*
X426073000Y-161262000D01*
X426327000Y-161262000D01*
X426327000Y-162258000D01*
X427326250Y-162258000D01*
X427485000Y-162099250D01*
X427488072Y-161985000D01*
X427475812Y-161860518D01*
X427445320Y-161760000D01*
X427475812Y-161659482D01*
X427488072Y-161535000D01*
X427485000Y-161420750D01*
X427326250Y-161262000D01*
X426327000Y-161262000D01*
X426073000Y-161262000D01*
X425073750Y-161262000D01*
X424915000Y-161420750D01*
X424911928Y-161535000D01*
X423895000Y-161535000D01*
X423895000Y-160735000D01*
X424911928Y-160735000D01*
X424915000Y-160849250D01*
X425073750Y-161008000D01*
X426073000Y-161008000D01*
X426073000Y-160258750D01*
X426327000Y-160258750D01*
X426327000Y-161008000D01*
X427326250Y-161008000D01*
X427485000Y-160849250D01*
X427488072Y-160735000D01*
X427475812Y-160610518D01*
X427439502Y-160490820D01*
X427380537Y-160380506D01*
X427301185Y-160283815D01*
X427204494Y-160204463D01*
X427094180Y-160145498D01*
X426974482Y-160109188D01*
X426850000Y-160096928D01*
X426485750Y-160100000D01*
X426327000Y-160258750D01*
X426073000Y-160258750D01*
X425914250Y-160100000D01*
X425550000Y-160096928D01*
X425425518Y-160109188D01*
X425305820Y-160145498D01*
X425195506Y-160204463D01*
X425098815Y-160283815D01*
X425019463Y-160380506D01*
X424960498Y-160490820D01*
X424924188Y-160610518D01*
X424911928Y-160735000D01*
X423895000Y-160735000D01*
X423895000Y-159076586D01*
X423905226Y-159051898D01*
X423945000Y-158851939D01*
X423945000Y-158648061D01*
X423905226Y-158448102D01*
X423827205Y-158259744D01*
X423713937Y-158090226D01*
X423569774Y-157946063D01*
X423400256Y-157832795D01*
X423284870Y-157785000D01*
X426811928Y-157785000D01*
X426811928Y-159385000D01*
X426828992Y-159558254D01*
X426879528Y-159724850D01*
X426961595Y-159878386D01*
X427072038Y-160012962D01*
X427206614Y-160123405D01*
X427360150Y-160205472D01*
X427526746Y-160256008D01*
X427700000Y-160273072D01*
X430200000Y-160273072D01*
X430373254Y-160256008D01*
X430539850Y-160205472D01*
X430693386Y-160123405D01*
X430827962Y-160012962D01*
X430938405Y-159878386D01*
X431020472Y-159724850D01*
X431071008Y-159558254D01*
X431088072Y-159385000D01*
X431088072Y-157785000D01*
X431071008Y-157611746D01*
X431020472Y-157445150D01*
X430938405Y-157291614D01*
X430827962Y-157157038D01*
X430693386Y-157046595D01*
X430539850Y-156964528D01*
X430373254Y-156913992D01*
X430200000Y-156896928D01*
X427700000Y-156896928D01*
X427526746Y-156913992D01*
X427360150Y-156964528D01*
X427206614Y-157046595D01*
X427072038Y-157157038D01*
X426961595Y-157291614D01*
X426879528Y-157445150D01*
X426828992Y-157611746D01*
X426811928Y-157785000D01*
X423284870Y-157785000D01*
X423211898Y-157754774D01*
X423011939Y-157715000D01*
X422808061Y-157715000D01*
X422608102Y-157754774D01*
X422419744Y-157832795D01*
X422250226Y-157946063D01*
X422106063Y-158090226D01*
X421992795Y-158259744D01*
X421914774Y-158448102D01*
X421875000Y-158648061D01*
X147447000Y-158648061D01*
X147447000Y-131789941D01*
X253673366Y-131789941D01*
X253673366Y-132130059D01*
X253739720Y-132463640D01*
X253869877Y-132777868D01*
X254058836Y-133060665D01*
X254299335Y-133301164D01*
X254582132Y-133490123D01*
X254896360Y-133620280D01*
X255229941Y-133686634D01*
X255570059Y-133686634D01*
X255903640Y-133620280D01*
X256217868Y-133490123D01*
X256500665Y-133301164D01*
X256741164Y-133060665D01*
X256930123Y-132777868D01*
X257060280Y-132463640D01*
X257126634Y-132130059D01*
X257126634Y-131840308D01*
X354277087Y-131840308D01*
X354277087Y-132179692D01*
X354343298Y-132512555D01*
X354473175Y-132826105D01*
X354661726Y-133108293D01*
X354901707Y-133348274D01*
X355183895Y-133536825D01*
X355497445Y-133666702D01*
X355830308Y-133732913D01*
X356169692Y-133732913D01*
X356502555Y-133666702D01*
X356816105Y-133536825D01*
X357098293Y-133348274D01*
X357338274Y-133108293D01*
X357526825Y-132826105D01*
X357656702Y-132512555D01*
X357722913Y-132179692D01*
X357722913Y-131840308D01*
X357722840Y-131839941D01*
X396373366Y-131839941D01*
X396373366Y-132180059D01*
X396439720Y-132513640D01*
X396569877Y-132827868D01*
X396758836Y-133110665D01*
X396999335Y-133351164D01*
X397282132Y-133540123D01*
X397596360Y-133670280D01*
X397929941Y-133736634D01*
X398270059Y-133736634D01*
X398603640Y-133670280D01*
X398917868Y-133540123D01*
X399200665Y-133351164D01*
X399441164Y-133110665D01*
X399630123Y-132827868D01*
X399760280Y-132513640D01*
X399826634Y-132180059D01*
X399826634Y-131839941D01*
X399760280Y-131506360D01*
X399630123Y-131192132D01*
X399441164Y-130909335D01*
X399200665Y-130668836D01*
X398917868Y-130479877D01*
X398603640Y-130349720D01*
X398270059Y-130283366D01*
X397929941Y-130283366D01*
X397596360Y-130349720D01*
X397282132Y-130479877D01*
X396999335Y-130668836D01*
X396758836Y-130909335D01*
X396569877Y-131192132D01*
X396439720Y-131506360D01*
X396373366Y-131839941D01*
X357722840Y-131839941D01*
X357656702Y-131507445D01*
X357526825Y-131193895D01*
X357338274Y-130911707D01*
X357098293Y-130671726D01*
X356816105Y-130483175D01*
X356502555Y-130353298D01*
X356169692Y-130287087D01*
X355830308Y-130287087D01*
X355497445Y-130353298D01*
X355183895Y-130483175D01*
X354901707Y-130671726D01*
X354661726Y-130911707D01*
X354473175Y-131193895D01*
X354343298Y-131507445D01*
X354277087Y-131840308D01*
X257126634Y-131840308D01*
X257126634Y-131789941D01*
X257060280Y-131456360D01*
X256930123Y-131142132D01*
X256741164Y-130859335D01*
X256500665Y-130618836D01*
X256217868Y-130429877D01*
X255903640Y-130299720D01*
X255570059Y-130233366D01*
X255229941Y-130233366D01*
X254896360Y-130299720D01*
X254582132Y-130429877D01*
X254299335Y-130618836D01*
X254058836Y-130859335D01*
X253869877Y-131142132D01*
X253739720Y-131456360D01*
X253673366Y-131789941D01*
X147447000Y-131789941D01*
X147447000Y-129667000D01*
X445590001Y-129667000D01*
X445590000Y-133715123D01*
G04 #@! TA.AperFunction,Conductor*
D14*
G36*
X445590000Y-133715123D02*
G01*
X445586565Y-133750000D01*
X445600273Y-133889184D01*
X445640872Y-134023020D01*
X445706800Y-134146363D01*
X445795525Y-134254475D01*
X445903637Y-134343200D01*
X446026980Y-134409128D01*
X446160816Y-134449727D01*
X446300000Y-134463435D01*
X446334877Y-134460000D01*
X457265123Y-134460000D01*
X457300000Y-134463435D01*
X457334877Y-134460000D01*
X457439184Y-134449727D01*
X457573020Y-134409128D01*
X457696363Y-134343200D01*
X457804475Y-134254475D01*
X457893200Y-134146363D01*
X457959128Y-134023020D01*
X457999727Y-133889184D01*
X458013435Y-133750000D01*
X458010000Y-133715123D01*
X458010000Y-131839941D01*
X462423366Y-131839941D01*
X462423366Y-132180059D01*
X462489720Y-132513640D01*
X462619877Y-132827868D01*
X462808836Y-133110665D01*
X463049335Y-133351164D01*
X463332132Y-133540123D01*
X463646360Y-133670280D01*
X463979941Y-133736634D01*
X464320059Y-133736634D01*
X464653640Y-133670280D01*
X464967868Y-133540123D01*
X465250665Y-133351164D01*
X465491164Y-133110665D01*
X465680123Y-132827868D01*
X465810280Y-132513640D01*
X465876634Y-132180059D01*
X465876634Y-131839941D01*
X465810280Y-131506360D01*
X465680123Y-131192132D01*
X465491164Y-130909335D01*
X465250665Y-130668836D01*
X464967868Y-130479877D01*
X464653640Y-130349720D01*
X464320059Y-130283366D01*
X463979941Y-130283366D01*
X463646360Y-130349720D01*
X463332132Y-130479877D01*
X463049335Y-130668836D01*
X462808836Y-130909335D01*
X462619877Y-131192132D01*
X462489720Y-131506360D01*
X462423366Y-131839941D01*
X458010000Y-131839941D01*
X458010000Y-129667000D01*
X465963000Y-129667000D01*
X465963000Y-158050000D01*
X462865123Y-158050000D01*
X462834112Y-158053054D01*
X462822039Y-158052970D01*
X462812174Y-158053937D01*
X462433684Y-158093717D01*
X462370660Y-158106654D01*
X462307434Y-158118715D01*
X462297944Y-158121581D01*
X461934391Y-158234120D01*
X461875087Y-158259049D01*
X461815405Y-158283162D01*
X461806652Y-158287816D01*
X461471881Y-158468827D01*
X461418581Y-158504778D01*
X461364686Y-158540046D01*
X461357004Y-158546312D01*
X461063767Y-158788898D01*
X461018431Y-158834551D01*
X460972445Y-158879584D01*
X460966126Y-158887222D01*
X460725593Y-159182146D01*
X460689987Y-159235737D01*
X460653626Y-159288841D01*
X460648911Y-159297561D01*
X460470242Y-159633588D01*
X460445724Y-159693075D01*
X460420370Y-159752230D01*
X460417438Y-159761700D01*
X460307440Y-160126030D01*
X460294947Y-160189127D01*
X460281561Y-160252101D01*
X460280525Y-160261960D01*
X460243388Y-160640717D01*
X460243388Y-160640724D01*
X460240000Y-160675124D01*
X460240001Y-177844877D01*
X460243054Y-177875879D01*
X460242970Y-177887961D01*
X460243937Y-177897827D01*
X460283717Y-178276316D01*
X460296654Y-178339340D01*
X460308715Y-178402566D01*
X460311581Y-178412056D01*
X460424120Y-178775609D01*
X460449044Y-178834902D01*
X460473162Y-178894595D01*
X460477815Y-178903344D01*
X460477817Y-178903349D01*
X460477820Y-178903353D01*
X460658827Y-179238120D01*
X460694790Y-179291437D01*
X460730046Y-179345314D01*
X460736312Y-179352996D01*
X460978898Y-179646233D01*
X461024535Y-179691552D01*
X461069584Y-179737555D01*
X461077223Y-179743874D01*
X461372146Y-179984407D01*
X461425722Y-180020003D01*
X461478841Y-180056374D01*
X461487561Y-180061089D01*
X461823588Y-180239757D01*
X461883042Y-180264262D01*
X461942230Y-180289630D01*
X461951700Y-180292562D01*
X462316030Y-180402560D01*
X462379120Y-180415052D01*
X462442101Y-180428439D01*
X462451960Y-180429475D01*
X462830717Y-180466612D01*
X462830723Y-180466612D01*
X462865123Y-180470000D01*
X465963000Y-180470000D01*
X465963000Y-209423000D01*
X147447000Y-209423000D01*
X147447000Y-206339941D01*
X253623366Y-206339941D01*
X253623366Y-206680059D01*
X253689720Y-207013640D01*
X253819877Y-207327868D01*
X254008836Y-207610665D01*
X254249335Y-207851164D01*
X254532132Y-208040123D01*
X254846360Y-208170280D01*
X255179941Y-208236634D01*
X255520059Y-208236634D01*
X255853640Y-208170280D01*
X256167868Y-208040123D01*
X256450665Y-207851164D01*
X256691164Y-207610665D01*
X256880123Y-207327868D01*
X257010280Y-207013640D01*
X257076634Y-206680059D01*
X257076634Y-206339941D01*
X257066762Y-206290308D01*
X354277087Y-206290308D01*
X354277087Y-206629692D01*
X354343298Y-206962555D01*
X354473175Y-207276105D01*
X354661726Y-207558293D01*
X354901707Y-207798274D01*
X355183895Y-207986825D01*
X355497445Y-208116702D01*
X355830308Y-208182913D01*
X356169692Y-208182913D01*
X356502555Y-208116702D01*
X356816105Y-207986825D01*
X357098293Y-207798274D01*
X357338274Y-207558293D01*
X357526825Y-207276105D01*
X357656702Y-206962555D01*
X357722913Y-206629692D01*
X357722913Y-206339941D01*
X396373366Y-206339941D01*
X396373366Y-206680059D01*
X396439720Y-207013640D01*
X396569877Y-207327868D01*
X396758836Y-207610665D01*
X396999335Y-207851164D01*
X397282132Y-208040123D01*
X397596360Y-208170280D01*
X397929941Y-208236634D01*
X398270059Y-208236634D01*
X398603640Y-208170280D01*
X398917868Y-208040123D01*
X399200665Y-207851164D01*
X399441164Y-207610665D01*
X399630123Y-207327868D01*
X399760280Y-207013640D01*
X399826634Y-206680059D01*
X399826634Y-206339941D01*
X399760280Y-206006360D01*
X399630123Y-205692132D01*
X399441164Y-205409335D01*
X399200665Y-205168836D01*
X398917868Y-204979877D01*
X398603640Y-204849720D01*
X398270059Y-204783366D01*
X397929941Y-204783366D01*
X397596360Y-204849720D01*
X397282132Y-204979877D01*
X396999335Y-205168836D01*
X396758836Y-205409335D01*
X396569877Y-205692132D01*
X396439720Y-206006360D01*
X396373366Y-206339941D01*
X357722913Y-206339941D01*
X357722913Y-206290308D01*
X357656702Y-205957445D01*
X357526825Y-205643895D01*
X357338274Y-205361707D01*
X357098293Y-205121726D01*
X356816105Y-204933175D01*
X356502555Y-204803298D01*
X356184040Y-204739941D01*
X448473366Y-204739941D01*
X448473366Y-205080059D01*
X448539720Y-205413640D01*
X448669877Y-205727868D01*
X448858836Y-206010665D01*
X449099335Y-206251164D01*
X449382132Y-206440123D01*
X449696360Y-206570280D01*
X450029941Y-206636634D01*
X450370059Y-206636634D01*
X450703640Y-206570280D01*
X451017868Y-206440123D01*
X451300665Y-206251164D01*
X451541164Y-206010665D01*
X451730123Y-205727868D01*
X451860280Y-205413640D01*
X451926634Y-205080059D01*
X451926634Y-204739941D01*
X453273366Y-204739941D01*
X453273366Y-205080059D01*
X453339720Y-205413640D01*
X453469877Y-205727868D01*
X453658836Y-206010665D01*
X453899335Y-206251164D01*
X454182132Y-206440123D01*
X454496360Y-206570280D01*
X454829941Y-206636634D01*
X455170059Y-206636634D01*
X455503640Y-206570280D01*
X455817868Y-206440123D01*
X456042631Y-206289941D01*
X462423366Y-206289941D01*
X462423366Y-206630059D01*
X462489720Y-206963640D01*
X462619877Y-207277868D01*
X462808836Y-207560665D01*
X463049335Y-207801164D01*
X463332132Y-207990123D01*
X463646360Y-208120280D01*
X463979941Y-208186634D01*
X464320059Y-208186634D01*
X464653640Y-208120280D01*
X464967868Y-207990123D01*
X465250665Y-207801164D01*
X465491164Y-207560665D01*
X465680123Y-207277868D01*
X465810280Y-206963640D01*
X465876634Y-206630059D01*
X465876634Y-206289941D01*
X465810280Y-205956360D01*
X465680123Y-205642132D01*
X465491164Y-205359335D01*
X465250665Y-205118836D01*
X464967868Y-204929877D01*
X464653640Y-204799720D01*
X464320059Y-204733366D01*
X463979941Y-204733366D01*
X463646360Y-204799720D01*
X463332132Y-204929877D01*
X463049335Y-205118836D01*
X462808836Y-205359335D01*
X462619877Y-205642132D01*
X462489720Y-205956360D01*
X462423366Y-206289941D01*
X456042631Y-206289941D01*
X456100665Y-206251164D01*
X456341164Y-206010665D01*
X456530123Y-205727868D01*
X456660280Y-205413640D01*
X456726634Y-205080059D01*
X456726634Y-204739941D01*
X456660280Y-204406360D01*
X456530123Y-204092132D01*
X456341164Y-203809335D01*
X456100665Y-203568836D01*
X455817868Y-203379877D01*
X455503640Y-203249720D01*
X455170059Y-203183366D01*
X454829941Y-203183366D01*
X454496360Y-203249720D01*
X454182132Y-203379877D01*
X453899335Y-203568836D01*
X453658836Y-203809335D01*
X453469877Y-204092132D01*
X453339720Y-204406360D01*
X453273366Y-204739941D01*
X451926634Y-204739941D01*
X451860280Y-204406360D01*
X451730123Y-204092132D01*
X451541164Y-203809335D01*
X451300665Y-203568836D01*
X451017868Y-203379877D01*
X450703640Y-203249720D01*
X450370059Y-203183366D01*
X450029941Y-203183366D01*
X449696360Y-203249720D01*
X449382132Y-203379877D01*
X449099335Y-203568836D01*
X448858836Y-203809335D01*
X448669877Y-204092132D01*
X448539720Y-204406360D01*
X448473366Y-204739941D01*
X356184040Y-204739941D01*
X356169692Y-204737087D01*
X355830308Y-204737087D01*
X355497445Y-204803298D01*
X355183895Y-204933175D01*
X354901707Y-205121726D01*
X354661726Y-205361707D01*
X354473175Y-205643895D01*
X354343298Y-205957445D01*
X354277087Y-206290308D01*
X257066762Y-206290308D01*
X257010280Y-206006360D01*
X256880123Y-205692132D01*
X256691164Y-205409335D01*
X256450665Y-205168836D01*
X256167868Y-204979877D01*
X255853640Y-204849720D01*
X255520059Y-204783366D01*
X255179941Y-204783366D01*
X254846360Y-204849720D01*
X254532132Y-204979877D01*
X254249335Y-205168836D01*
X254008836Y-205409335D01*
X253819877Y-205692132D01*
X253689720Y-206006360D01*
X253623366Y-206339941D01*
X147447000Y-206339941D01*
X147447000Y-176435000D01*
X426811928Y-176435000D01*
X426811928Y-178035000D01*
X426828992Y-178208254D01*
X426879528Y-178374850D01*
X426961595Y-178528386D01*
X427072038Y-178662962D01*
X427206614Y-178773405D01*
X427360150Y-178855472D01*
X427526746Y-178906008D01*
X427700000Y-178923072D01*
X430200000Y-178923072D01*
X430373254Y-178906008D01*
X430539850Y-178855472D01*
X430693386Y-178773405D01*
X430827962Y-178662962D01*
X430938405Y-178528386D01*
X431020472Y-178374850D01*
X431071008Y-178208254D01*
X431088072Y-178035000D01*
X431088072Y-176435000D01*
X431071008Y-176261746D01*
X431020472Y-176095150D01*
X430938405Y-175941614D01*
X430827962Y-175807038D01*
X430693386Y-175696595D01*
X430539850Y-175614528D01*
X430373254Y-175563992D01*
X430200000Y-175546928D01*
X427700000Y-175546928D01*
X427526746Y-175563992D01*
X427360150Y-175614528D01*
X427206614Y-175696595D01*
X427072038Y-175807038D01*
X426961595Y-175941614D01*
X426879528Y-176095150D01*
X426828992Y-176261746D01*
X426811928Y-176435000D01*
X147447000Y-176435000D01*
X147447000Y-173253061D01*
X401555000Y-173253061D01*
X401555000Y-173456939D01*
X401594774Y-173656898D01*
X401672795Y-173845256D01*
X401769510Y-173990000D01*
X401672795Y-174134744D01*
X401594774Y-174323102D01*
X401555000Y-174523061D01*
X401555000Y-174726939D01*
X401594774Y-174926898D01*
X401672795Y-175115256D01*
X401786063Y-175284774D01*
X401930226Y-175428937D01*
X402099744Y-175542205D01*
X402288102Y-175620226D01*
X402488061Y-175660000D01*
X402691939Y-175660000D01*
X402891898Y-175620226D01*
X403080256Y-175542205D01*
X403249774Y-175428937D01*
X403293711Y-175385000D01*
X425081394Y-175385000D01*
X425157394Y-175477606D01*
X425284392Y-175581831D01*
X425429284Y-175659278D01*
X425586500Y-175706969D01*
X425750000Y-175723072D01*
X426650000Y-175723072D01*
X426813500Y-175706969D01*
X426970716Y-175659278D01*
X427115608Y-175581831D01*
X427242606Y-175477606D01*
X427346831Y-175350608D01*
X427424278Y-175205716D01*
X427471969Y-175048500D01*
X427488072Y-174885000D01*
X427488072Y-174485000D01*
X427471969Y-174321500D01*
X427424278Y-174164284D01*
X427368537Y-174060000D01*
X427424278Y-173955716D01*
X427471969Y-173798500D01*
X427488072Y-173635000D01*
X427488072Y-173235000D01*
X427471969Y-173071500D01*
X427424278Y-172914284D01*
X427346831Y-172769392D01*
X427242606Y-172642394D01*
X427115608Y-172538169D01*
X426970716Y-172460722D01*
X426813500Y-172413031D01*
X426650000Y-172396928D01*
X425750000Y-172396928D01*
X425586500Y-172413031D01*
X425429284Y-172460722D01*
X425284392Y-172538169D01*
X425215144Y-172595000D01*
X403293711Y-172595000D01*
X403249774Y-172551063D01*
X403080256Y-172437795D01*
X402891898Y-172359774D01*
X402691939Y-172320000D01*
X402488061Y-172320000D01*
X402288102Y-172359774D01*
X402099744Y-172437795D01*
X401930226Y-172551063D01*
X401786063Y-172695226D01*
X401672795Y-172864744D01*
X401594774Y-173053102D01*
X401555000Y-173253061D01*
X147447000Y-173253061D01*
X147447000Y-170085000D01*
X426811928Y-170085000D01*
X426811928Y-171685000D01*
X426828992Y-171858254D01*
X426879528Y-172024850D01*
X426961595Y-172178386D01*
X427072038Y-172312962D01*
X427206614Y-172423405D01*
X427360150Y-172505472D01*
X427526746Y-172556008D01*
X427700000Y-172573072D01*
X430200000Y-172573072D01*
X430373254Y-172556008D01*
X430539850Y-172505472D01*
X430693386Y-172423405D01*
X430827962Y-172312962D01*
X430938405Y-172178386D01*
X431020472Y-172024850D01*
X431071008Y-171858254D01*
X431088072Y-171685000D01*
X431088072Y-170085000D01*
X431071008Y-169911746D01*
X431020472Y-169745150D01*
X430938405Y-169591614D01*
X430827962Y-169457038D01*
X430693386Y-169346595D01*
X430539850Y-169264528D01*
X430373254Y-169213992D01*
X430200000Y-169196928D01*
X427700000Y-169196928D01*
X427526746Y-169213992D01*
X427360150Y-169264528D01*
X427206614Y-169346595D01*
X427072038Y-169457038D01*
X426961595Y-169591614D01*
X426879528Y-169745150D01*
X426828992Y-169911746D01*
X426811928Y-170085000D01*
X147447000Y-170085000D01*
X147447000Y-166635000D01*
X426811928Y-166635000D01*
X426811928Y-168235000D01*
X426828992Y-168408254D01*
X426879528Y-168574850D01*
X426961595Y-168728386D01*
X427072038Y-168862962D01*
X427206614Y-168973405D01*
X427360150Y-169055472D01*
X427526746Y-169106008D01*
X427700000Y-169123072D01*
X430200000Y-169123072D01*
X430373254Y-169106008D01*
X430539850Y-169055472D01*
X430693386Y-168973405D01*
X430827962Y-168862962D01*
X430938405Y-168728386D01*
X431020472Y-168574850D01*
X431071008Y-168408254D01*
X431088072Y-168235000D01*
X431088072Y-166635000D01*
X431071008Y-166461746D01*
X431020472Y-166295150D01*
X430938405Y-166141614D01*
X430827962Y-166007038D01*
X430693386Y-165896595D01*
X430539850Y-165814528D01*
X430373254Y-165763992D01*
X430200000Y-165746928D01*
X427700000Y-165746928D01*
X427526746Y-165763992D01*
X427360150Y-165814528D01*
X427206614Y-165896595D01*
X427072038Y-166007038D01*
X426961595Y-166141614D01*
X426879528Y-166295150D01*
X426828992Y-166461746D01*
X426811928Y-166635000D01*
X147447000Y-166635000D01*
X147447000Y-158648061D01*
X421875000Y-158648061D01*
X421875000Y-158851939D01*
X421914774Y-159051898D01*
X421925000Y-159076586D01*
X421925001Y-163781611D01*
X421925000Y-163781621D01*
X421925001Y-165051610D01*
X421920235Y-165100000D01*
X421939253Y-165293094D01*
X421995576Y-165478767D01*
X422087040Y-165649884D01*
X422210130Y-165799870D01*
X422360116Y-165922960D01*
X422531233Y-166014424D01*
X422716906Y-166070747D01*
X422861620Y-166085000D01*
X422910000Y-166089765D01*
X422958380Y-166085000D01*
X426033380Y-166085000D01*
X426178094Y-166070747D01*
X426363767Y-166014424D01*
X426534674Y-165923072D01*
X426650000Y-165923072D01*
X426813500Y-165906969D01*
X426970716Y-165859278D01*
X427115608Y-165781831D01*
X427242606Y-165677606D01*
X427346831Y-165550608D01*
X427424278Y-165405716D01*
X427471969Y-165248500D01*
X427488072Y-165085000D01*
X427488072Y-164685000D01*
X427471969Y-164521500D01*
X427424278Y-164364284D01*
X427368537Y-164260000D01*
X427424278Y-164155716D01*
X427471969Y-163998500D01*
X427488072Y-163835000D01*
X427488072Y-163435000D01*
X427471969Y-163271500D01*
X427424278Y-163114284D01*
X427409145Y-163085973D01*
X427439502Y-163029180D01*
X427475812Y-162909482D01*
X427488072Y-162785000D01*
X427485000Y-162670750D01*
X427326250Y-162512000D01*
X426327000Y-162512000D01*
X426327000Y-162532000D01*
X426073000Y-162532000D01*
X426073000Y-162512000D01*
X425073750Y-162512000D01*
X424935750Y-162650000D01*
X423895000Y-162650000D01*
X423895000Y-161535000D01*
X424911928Y-161535000D01*
X424924188Y-161659482D01*
X424954680Y-161760000D01*
X424924188Y-161860518D01*
X424911928Y-161985000D01*
X424915000Y-162099250D01*
X425073750Y-162258000D01*
X426073000Y-162258000D01*
X426073000Y-161262000D01*
X426327000Y-161262000D01*
X426327000Y-162258000D01*
X427326250Y-162258000D01*
X427485000Y-162099250D01*
X427488072Y-161985000D01*
X427475812Y-161860518D01*
X427445320Y-161760000D01*
X427475812Y-161659482D01*
X427488072Y-161535000D01*
X427485000Y-161420750D01*
X427326250Y-161262000D01*
X426327000Y-161262000D01*
X426073000Y-161262000D01*
X425073750Y-161262000D01*
X424915000Y-161420750D01*
X424911928Y-161535000D01*
X423895000Y-161535000D01*
X423895000Y-160735000D01*
X424911928Y-160735000D01*
X424915000Y-160849250D01*
X425073750Y-161008000D01*
X426073000Y-161008000D01*
X426073000Y-160258750D01*
X426327000Y-160258750D01*
X426327000Y-161008000D01*
X427326250Y-161008000D01*
X427485000Y-160849250D01*
X427488072Y-160735000D01*
X427475812Y-160610518D01*
X427439502Y-160490820D01*
X427380537Y-160380506D01*
X427301185Y-160283815D01*
X427204494Y-160204463D01*
X427094180Y-160145498D01*
X426974482Y-160109188D01*
X426850000Y-160096928D01*
X426485750Y-160100000D01*
X426327000Y-160258750D01*
X426073000Y-160258750D01*
X425914250Y-160100000D01*
X425550000Y-160096928D01*
X425425518Y-160109188D01*
X425305820Y-160145498D01*
X425195506Y-160204463D01*
X425098815Y-160283815D01*
X425019463Y-160380506D01*
X424960498Y-160490820D01*
X424924188Y-160610518D01*
X424911928Y-160735000D01*
X423895000Y-160735000D01*
X423895000Y-159076586D01*
X423905226Y-159051898D01*
X423945000Y-158851939D01*
X423945000Y-158648061D01*
X423905226Y-158448102D01*
X423827205Y-158259744D01*
X423713937Y-158090226D01*
X423569774Y-157946063D01*
X423400256Y-157832795D01*
X423284870Y-157785000D01*
X426811928Y-157785000D01*
X426811928Y-159385000D01*
X426828992Y-159558254D01*
X426879528Y-159724850D01*
X426961595Y-159878386D01*
X427072038Y-160012962D01*
X427206614Y-160123405D01*
X427360150Y-160205472D01*
X427526746Y-160256008D01*
X427700000Y-160273072D01*
X430200000Y-160273072D01*
X430373254Y-160256008D01*
X430539850Y-160205472D01*
X430693386Y-160123405D01*
X430827962Y-160012962D01*
X430938405Y-159878386D01*
X431020472Y-159724850D01*
X431071008Y-159558254D01*
X431088072Y-159385000D01*
X431088072Y-157785000D01*
X431071008Y-157611746D01*
X431020472Y-157445150D01*
X430938405Y-157291614D01*
X430827962Y-157157038D01*
X430693386Y-157046595D01*
X430539850Y-156964528D01*
X430373254Y-156913992D01*
X430200000Y-156896928D01*
X427700000Y-156896928D01*
X427526746Y-156913992D01*
X427360150Y-156964528D01*
X427206614Y-157046595D01*
X427072038Y-157157038D01*
X426961595Y-157291614D01*
X426879528Y-157445150D01*
X426828992Y-157611746D01*
X426811928Y-157785000D01*
X423284870Y-157785000D01*
X423211898Y-157754774D01*
X423011939Y-157715000D01*
X422808061Y-157715000D01*
X422608102Y-157754774D01*
X422419744Y-157832795D01*
X422250226Y-157946063D01*
X422106063Y-158090226D01*
X421992795Y-158259744D01*
X421914774Y-158448102D01*
X421875000Y-158648061D01*
X147447000Y-158648061D01*
X147447000Y-131789941D01*
X253673366Y-131789941D01*
X253673366Y-132130059D01*
X253739720Y-132463640D01*
X253869877Y-132777868D01*
X254058836Y-133060665D01*
X254299335Y-133301164D01*
X254582132Y-133490123D01*
X254896360Y-133620280D01*
X255229941Y-133686634D01*
X255570059Y-133686634D01*
X255903640Y-133620280D01*
X256217868Y-133490123D01*
X256500665Y-133301164D01*
X256741164Y-133060665D01*
X256930123Y-132777868D01*
X257060280Y-132463640D01*
X257126634Y-132130059D01*
X257126634Y-131840308D01*
X354277087Y-131840308D01*
X354277087Y-132179692D01*
X354343298Y-132512555D01*
X354473175Y-132826105D01*
X354661726Y-133108293D01*
X354901707Y-133348274D01*
X355183895Y-133536825D01*
X355497445Y-133666702D01*
X355830308Y-133732913D01*
X356169692Y-133732913D01*
X356502555Y-133666702D01*
X356816105Y-133536825D01*
X357098293Y-133348274D01*
X357338274Y-133108293D01*
X357526825Y-132826105D01*
X357656702Y-132512555D01*
X357722913Y-132179692D01*
X357722913Y-131840308D01*
X357722840Y-131839941D01*
X396373366Y-131839941D01*
X396373366Y-132180059D01*
X396439720Y-132513640D01*
X396569877Y-132827868D01*
X396758836Y-133110665D01*
X396999335Y-133351164D01*
X397282132Y-133540123D01*
X397596360Y-133670280D01*
X397929941Y-133736634D01*
X398270059Y-133736634D01*
X398603640Y-133670280D01*
X398917868Y-133540123D01*
X399200665Y-133351164D01*
X399441164Y-133110665D01*
X399630123Y-132827868D01*
X399760280Y-132513640D01*
X399826634Y-132180059D01*
X399826634Y-131839941D01*
X399760280Y-131506360D01*
X399630123Y-131192132D01*
X399441164Y-130909335D01*
X399200665Y-130668836D01*
X398917868Y-130479877D01*
X398603640Y-130349720D01*
X398270059Y-130283366D01*
X397929941Y-130283366D01*
X397596360Y-130349720D01*
X397282132Y-130479877D01*
X396999335Y-130668836D01*
X396758836Y-130909335D01*
X396569877Y-131192132D01*
X396439720Y-131506360D01*
X396373366Y-131839941D01*
X357722840Y-131839941D01*
X357656702Y-131507445D01*
X357526825Y-131193895D01*
X357338274Y-130911707D01*
X357098293Y-130671726D01*
X356816105Y-130483175D01*
X356502555Y-130353298D01*
X356169692Y-130287087D01*
X355830308Y-130287087D01*
X355497445Y-130353298D01*
X355183895Y-130483175D01*
X354901707Y-130671726D01*
X354661726Y-130911707D01*
X354473175Y-131193895D01*
X354343298Y-131507445D01*
X354277087Y-131840308D01*
X257126634Y-131840308D01*
X257126634Y-131789941D01*
X257060280Y-131456360D01*
X256930123Y-131142132D01*
X256741164Y-130859335D01*
X256500665Y-130618836D01*
X256217868Y-130429877D01*
X255903640Y-130299720D01*
X255570059Y-130233366D01*
X255229941Y-130233366D01*
X254896360Y-130299720D01*
X254582132Y-130429877D01*
X254299335Y-130618836D01*
X254058836Y-130859335D01*
X253869877Y-131142132D01*
X253739720Y-131456360D01*
X253673366Y-131789941D01*
X147447000Y-131789941D01*
X147447000Y-129667000D01*
X445590001Y-129667000D01*
X445590000Y-133715123D01*
G37*
G04 #@! TD.AperFunction*
M02*
