G04 #@! TF.GenerationSoftware,KiCad,Pcbnew,(5.1.9)-1*
G04 #@! TF.CreationDate,2021-03-05T17:13:54-06:00*
G04 #@! TF.ProjectId,X+,582b2e6b-6963-4616-945f-706362585858,3*
G04 #@! TF.SameCoordinates,Original*
G04 #@! TF.FileFunction,Soldermask,Bot*
G04 #@! TF.FilePolarity,Negative*
%FSLAX46Y46*%
G04 Gerber Fmt 4.6, Leading zero omitted, Abs format (unit mm)*
G04 Created by KiCad (PCBNEW (5.1.9)-1) date 2021-03-05 17:13:54*
%MOMM*%
%LPD*%
G01*
G04 APERTURE LIST*
G04 APERTURE END LIST*
G36*
G01*
X425750000Y-160735000D02*
X426650000Y-160735000D01*
G75*
G02*
X426850000Y-160935000I0J-200000D01*
G01*
X426850000Y-161335000D01*
G75*
G02*
X426650000Y-161535000I-200000J0D01*
G01*
X425750000Y-161535000D01*
G75*
G02*
X425550000Y-161335000I0J200000D01*
G01*
X425550000Y-160935000D01*
G75*
G02*
X425750000Y-160735000I200000J0D01*
G01*
G37*
G36*
G01*
X425750000Y-161985000D02*
X426650000Y-161985000D01*
G75*
G02*
X426850000Y-162185000I0J-200000D01*
G01*
X426850000Y-162585000D01*
G75*
G02*
X426650000Y-162785000I-200000J0D01*
G01*
X425750000Y-162785000D01*
G75*
G02*
X425550000Y-162585000I0J200000D01*
G01*
X425550000Y-162185000D01*
G75*
G02*
X425750000Y-161985000I200000J0D01*
G01*
G37*
G36*
G01*
X425750000Y-163235000D02*
X426650000Y-163235000D01*
G75*
G02*
X426850000Y-163435000I0J-200000D01*
G01*
X426850000Y-163835000D01*
G75*
G02*
X426650000Y-164035000I-200000J0D01*
G01*
X425750000Y-164035000D01*
G75*
G02*
X425550000Y-163835000I0J200000D01*
G01*
X425550000Y-163435000D01*
G75*
G02*
X425750000Y-163235000I200000J0D01*
G01*
G37*
G36*
G01*
X425750000Y-164485000D02*
X426650000Y-164485000D01*
G75*
G02*
X426850000Y-164685000I0J-200000D01*
G01*
X426850000Y-165085000D01*
G75*
G02*
X426650000Y-165285000I-200000J0D01*
G01*
X425750000Y-165285000D01*
G75*
G02*
X425550000Y-165085000I0J200000D01*
G01*
X425550000Y-164685000D01*
G75*
G02*
X425750000Y-164485000I200000J0D01*
G01*
G37*
G36*
G01*
X427700000Y-157535000D02*
X430200000Y-157535000D01*
G75*
G02*
X430450000Y-157785000I0J-250000D01*
G01*
X430450000Y-159385000D01*
G75*
G02*
X430200000Y-159635000I-250000J0D01*
G01*
X427700000Y-159635000D01*
G75*
G02*
X427450000Y-159385000I0J250000D01*
G01*
X427450000Y-157785000D01*
G75*
G02*
X427700000Y-157535000I250000J0D01*
G01*
G37*
G36*
G01*
X427700000Y-166385000D02*
X430200000Y-166385000D01*
G75*
G02*
X430450000Y-166635000I0J-250000D01*
G01*
X430450000Y-168235000D01*
G75*
G02*
X430200000Y-168485000I-250000J0D01*
G01*
X427700000Y-168485000D01*
G75*
G02*
X427450000Y-168235000I0J250000D01*
G01*
X427450000Y-166635000D01*
G75*
G02*
X427700000Y-166385000I250000J0D01*
G01*
G37*
G36*
G01*
X425750000Y-173035000D02*
X426650000Y-173035000D01*
G75*
G02*
X426850000Y-173235000I0J-200000D01*
G01*
X426850000Y-173635000D01*
G75*
G02*
X426650000Y-173835000I-200000J0D01*
G01*
X425750000Y-173835000D01*
G75*
G02*
X425550000Y-173635000I0J200000D01*
G01*
X425550000Y-173235000D01*
G75*
G02*
X425750000Y-173035000I200000J0D01*
G01*
G37*
G36*
G01*
X425750000Y-174285000D02*
X426650000Y-174285000D01*
G75*
G02*
X426850000Y-174485000I0J-200000D01*
G01*
X426850000Y-174885000D01*
G75*
G02*
X426650000Y-175085000I-200000J0D01*
G01*
X425750000Y-175085000D01*
G75*
G02*
X425550000Y-174885000I0J200000D01*
G01*
X425550000Y-174485000D01*
G75*
G02*
X425750000Y-174285000I200000J0D01*
G01*
G37*
G36*
G01*
X427700000Y-169835000D02*
X430200000Y-169835000D01*
G75*
G02*
X430450000Y-170085000I0J-250000D01*
G01*
X430450000Y-171685000D01*
G75*
G02*
X430200000Y-171935000I-250000J0D01*
G01*
X427700000Y-171935000D01*
G75*
G02*
X427450000Y-171685000I0J250000D01*
G01*
X427450000Y-170085000D01*
G75*
G02*
X427700000Y-169835000I250000J0D01*
G01*
G37*
G36*
G01*
X427700000Y-176185000D02*
X430200000Y-176185000D01*
G75*
G02*
X430450000Y-176435000I0J-250000D01*
G01*
X430450000Y-178035000D01*
G75*
G02*
X430200000Y-178285000I-250000J0D01*
G01*
X427700000Y-178285000D01*
G75*
G02*
X427450000Y-178035000I0J250000D01*
G01*
X427450000Y-176435000D01*
G75*
G02*
X427700000Y-176185000I250000J0D01*
G01*
G37*
M02*
