G04 #@! TF.GenerationSoftware,KiCad,Pcbnew,(6.0.4-0)*
G04 #@! TF.CreationDate,2022-06-29T10:25:00-05:00*
G04 #@! TF.ProjectId,X+,582b2e6b-6963-4616-945f-706362585858,4*
G04 #@! TF.SameCoordinates,Original*
G04 #@! TF.FileFunction,Copper,L2,Bot*
G04 #@! TF.FilePolarity,Positive*
%FSLAX46Y46*%
G04 Gerber Fmt 4.6, Leading zero omitted, Abs format (unit mm)*
G04 Created by KiCad (PCBNEW (6.0.4-0)) date 2022-06-29 10:25:00*
%MOMM*%
%LPD*%
G01*
G04 APERTURE LIST*
G04 Aperture macros list*
%AMRoundRect*
0 Rectangle with rounded corners*
0 $1 Rounding radius*
0 $2 $3 $4 $5 $6 $7 $8 $9 X,Y pos of 4 corners*
0 Add a 4 corners polygon primitive as box body*
4,1,4,$2,$3,$4,$5,$6,$7,$8,$9,$2,$3,0*
0 Add four circle primitives for the rounded corners*
1,1,$1+$1,$2,$3*
1,1,$1+$1,$4,$5*
1,1,$1+$1,$6,$7*
1,1,$1+$1,$8,$9*
0 Add four rect primitives between the rounded corners*
20,1,$1+$1,$2,$3,$4,$5,0*
20,1,$1+$1,$4,$5,$6,$7,0*
20,1,$1+$1,$6,$7,$8,$9,0*
20,1,$1+$1,$8,$9,$2,$3,0*%
G04 Aperture macros list end*
G04 #@! TA.AperFunction,SMDPad,CuDef*
%ADD10RoundRect,0.200000X-0.450000X0.200000X-0.450000X-0.200000X0.450000X-0.200000X0.450000X0.200000X0*%
G04 #@! TD*
G04 #@! TA.AperFunction,SMDPad,CuDef*
%ADD11RoundRect,0.250000X-1.250000X0.800000X-1.250000X-0.800000X1.250000X-0.800000X1.250000X0.800000X0*%
G04 #@! TD*
G04 #@! TA.AperFunction,ViaPad*
%ADD12C,0.800000*%
G04 #@! TD*
G04 #@! TA.AperFunction,Conductor*
%ADD13C,0.250000*%
G04 #@! TD*
G04 APERTURE END LIST*
D10*
X426200000Y-161135000D03*
X426200000Y-162385000D03*
X426200000Y-163635000D03*
X426200000Y-164885000D03*
D11*
X428950000Y-158585000D03*
X428950000Y-167435000D03*
D10*
X426200000Y-173435000D03*
X426200000Y-174685000D03*
D11*
X428950000Y-177235000D03*
X428950000Y-170885000D03*
D12*
X329500000Y-188600000D03*
X192200000Y-187400000D03*
X284200000Y-144700000D03*
X375700000Y-185600000D03*
X375700000Y-141600000D03*
X192400000Y-143400000D03*
X149700000Y-139600000D03*
X238100000Y-188700000D03*
X283500000Y-188600000D03*
X238200000Y-144700000D03*
X419000000Y-197000000D03*
X149600000Y-183100000D03*
X423000000Y-149900000D03*
X329500000Y-144600000D03*
X423000000Y-155500000D03*
X417500000Y-200000000D03*
X415700000Y-198400000D03*
D13*
X423000000Y-160576783D02*
X423000000Y-155500000D01*
X426058217Y-163635000D02*
X423000000Y-160576783D01*
X426200000Y-163635000D02*
X426058217Y-163635000D01*
X426200000Y-163635000D02*
X426200000Y-164885000D01*
X426200000Y-174685000D02*
X426200000Y-191300000D01*
X426200000Y-191300000D02*
X417500000Y-200000000D01*
X426058217Y-173435000D02*
X415700000Y-183793217D01*
X426200000Y-173435000D02*
X426058217Y-173435000D01*
X415700000Y-183793217D02*
X415700000Y-198400000D01*
G04 #@! TA.AperFunction,Conductor*
G36*
X445733621Y-129560002D02*
G01*
X445780114Y-129613658D01*
X445791500Y-129666000D01*
X445791500Y-133741377D01*
X445791498Y-133742147D01*
X445791024Y-133819721D01*
X445793491Y-133828352D01*
X445799150Y-133848153D01*
X445802728Y-133864915D01*
X445806920Y-133894187D01*
X445810634Y-133902355D01*
X445810634Y-133902356D01*
X445817548Y-133917562D01*
X445823996Y-133935086D01*
X445831051Y-133959771D01*
X445835843Y-133967365D01*
X445835844Y-133967368D01*
X445846830Y-133984780D01*
X445854969Y-133999863D01*
X445867208Y-134026782D01*
X445873069Y-134033584D01*
X445883970Y-134046235D01*
X445895073Y-134061239D01*
X445908776Y-134082958D01*
X445915501Y-134088897D01*
X445915504Y-134088901D01*
X445930938Y-134102532D01*
X445942982Y-134114724D01*
X445956427Y-134130327D01*
X445956430Y-134130329D01*
X445962287Y-134137127D01*
X445969816Y-134142007D01*
X445969817Y-134142008D01*
X445983835Y-134151094D01*
X445998709Y-134162385D01*
X446011217Y-134173431D01*
X446017951Y-134179378D01*
X446044711Y-134191942D01*
X446059691Y-134200263D01*
X446076983Y-134211471D01*
X446076988Y-134211473D01*
X446084515Y-134216352D01*
X446093108Y-134218922D01*
X446093113Y-134218924D01*
X446109120Y-134223711D01*
X446126564Y-134230372D01*
X446141676Y-134237467D01*
X446141678Y-134237468D01*
X446149800Y-134241281D01*
X446158667Y-134242662D01*
X446158668Y-134242662D01*
X446161353Y-134243080D01*
X446179017Y-134245830D01*
X446195732Y-134249613D01*
X446215466Y-134255515D01*
X446215472Y-134255516D01*
X446224066Y-134258086D01*
X446233037Y-134258141D01*
X446233038Y-134258141D01*
X446243097Y-134258202D01*
X446258506Y-134258296D01*
X446259289Y-134258329D01*
X446260386Y-134258500D01*
X446291377Y-134258500D01*
X446292147Y-134258502D01*
X446365785Y-134258952D01*
X446365786Y-134258952D01*
X446369721Y-134258976D01*
X446371065Y-134258592D01*
X446372410Y-134258500D01*
X457291377Y-134258500D01*
X457292148Y-134258502D01*
X457369721Y-134258976D01*
X457398152Y-134250850D01*
X457414915Y-134247272D01*
X457415753Y-134247152D01*
X457444187Y-134243080D01*
X457467564Y-134232451D01*
X457485087Y-134226004D01*
X457509771Y-134218949D01*
X457517365Y-134214157D01*
X457517368Y-134214156D01*
X457534780Y-134203170D01*
X457549865Y-134195030D01*
X457576782Y-134182792D01*
X457596235Y-134166030D01*
X457611239Y-134154927D01*
X457632958Y-134141224D01*
X457638897Y-134134499D01*
X457638901Y-134134496D01*
X457652532Y-134119062D01*
X457664724Y-134107018D01*
X457680327Y-134093573D01*
X457680329Y-134093570D01*
X457687127Y-134087713D01*
X457701094Y-134066165D01*
X457712385Y-134051291D01*
X457723431Y-134038783D01*
X457723432Y-134038782D01*
X457729378Y-134032049D01*
X457741943Y-134005287D01*
X457750263Y-133990309D01*
X457761471Y-133973017D01*
X457761473Y-133973012D01*
X457766352Y-133965485D01*
X457768922Y-133956892D01*
X457768924Y-133956887D01*
X457773711Y-133940880D01*
X457780372Y-133923436D01*
X457787467Y-133908324D01*
X457787468Y-133908322D01*
X457791281Y-133900200D01*
X457795830Y-133870983D01*
X457799613Y-133854268D01*
X457805515Y-133834534D01*
X457805516Y-133834528D01*
X457808086Y-133825934D01*
X457808296Y-133791494D01*
X457808329Y-133790711D01*
X457808500Y-133789614D01*
X457808500Y-133758623D01*
X457808502Y-133757853D01*
X457808952Y-133684215D01*
X457808952Y-133684214D01*
X457808976Y-133680279D01*
X457808592Y-133678935D01*
X457808500Y-133677590D01*
X457808500Y-132010000D01*
X462631832Y-132010000D01*
X462650523Y-132247494D01*
X462651677Y-132252301D01*
X462651678Y-132252307D01*
X462684524Y-132389121D01*
X462706136Y-132479140D01*
X462708029Y-132483711D01*
X462708030Y-132483713D01*
X462774697Y-132644660D01*
X462797302Y-132699234D01*
X462921776Y-132902357D01*
X463076493Y-133083507D01*
X463257643Y-133238224D01*
X463460766Y-133362698D01*
X463465336Y-133364591D01*
X463465340Y-133364593D01*
X463676287Y-133451970D01*
X463680860Y-133453864D01*
X463760969Y-133473096D01*
X463907693Y-133508322D01*
X463907699Y-133508323D01*
X463912506Y-133509477D01*
X464150000Y-133528168D01*
X464387494Y-133509477D01*
X464392301Y-133508323D01*
X464392307Y-133508322D01*
X464539031Y-133473096D01*
X464619140Y-133453864D01*
X464623713Y-133451970D01*
X464834660Y-133364593D01*
X464834664Y-133364591D01*
X464839234Y-133362698D01*
X465042357Y-133238224D01*
X465223507Y-133083507D01*
X465378224Y-132902357D01*
X465502698Y-132699234D01*
X465525304Y-132644660D01*
X465591970Y-132483713D01*
X465591971Y-132483711D01*
X465593864Y-132479140D01*
X465615476Y-132389121D01*
X465648322Y-132252307D01*
X465648323Y-132252301D01*
X465649477Y-132247494D01*
X465668168Y-132010000D01*
X465649477Y-131772506D01*
X465642759Y-131744521D01*
X465599106Y-131562694D01*
X465593864Y-131540860D01*
X465580791Y-131509299D01*
X465504593Y-131325340D01*
X465504591Y-131325336D01*
X465502698Y-131320766D01*
X465378224Y-131117643D01*
X465223507Y-130936493D01*
X465042357Y-130781776D01*
X464839234Y-130657302D01*
X464834664Y-130655409D01*
X464834660Y-130655407D01*
X464623713Y-130568030D01*
X464623711Y-130568029D01*
X464619140Y-130566136D01*
X464539031Y-130546904D01*
X464392307Y-130511678D01*
X464392301Y-130511677D01*
X464387494Y-130510523D01*
X464150000Y-130491832D01*
X463912506Y-130510523D01*
X463907699Y-130511677D01*
X463907693Y-130511678D01*
X463760969Y-130546904D01*
X463680860Y-130566136D01*
X463676289Y-130568029D01*
X463676287Y-130568030D01*
X463465340Y-130655407D01*
X463465336Y-130655409D01*
X463460766Y-130657302D01*
X463257643Y-130781776D01*
X463076493Y-130936493D01*
X462921776Y-131117643D01*
X462797302Y-131320766D01*
X462795409Y-131325336D01*
X462795407Y-131325340D01*
X462719209Y-131509299D01*
X462706136Y-131540860D01*
X462700894Y-131562694D01*
X462657242Y-131744521D01*
X462650523Y-131772506D01*
X462632309Y-132003934D01*
X462631832Y-132010000D01*
X457808500Y-132010000D01*
X457808500Y-129666000D01*
X457828502Y-129597879D01*
X457882158Y-129551386D01*
X457934500Y-129540000D01*
X465964000Y-129540000D01*
X466032121Y-129560002D01*
X466078614Y-129613658D01*
X466090000Y-129666000D01*
X466090000Y-158125500D01*
X466069998Y-158193621D01*
X466016342Y-158240114D01*
X465964000Y-158251500D01*
X462953250Y-158251500D01*
X462932345Y-158249754D01*
X462917344Y-158247230D01*
X462917341Y-158247230D01*
X462912552Y-158246424D01*
X462906555Y-158246351D01*
X462904868Y-158246330D01*
X462904864Y-158246330D01*
X462900000Y-158246271D01*
X462895174Y-158246962D01*
X462893991Y-158247039D01*
X462885973Y-158247854D01*
X462606917Y-158264734D01*
X462606913Y-158264735D01*
X462603119Y-158264964D01*
X462492087Y-158285311D01*
X462314319Y-158317888D01*
X462314312Y-158317890D01*
X462310567Y-158318576D01*
X462026610Y-158407061D01*
X461755390Y-158529127D01*
X461752133Y-158531096D01*
X461752129Y-158531098D01*
X461720483Y-158550229D01*
X461500860Y-158682996D01*
X461266733Y-158866423D01*
X461056423Y-159076733D01*
X461054073Y-159079733D01*
X461054070Y-159079736D01*
X460918264Y-159253080D01*
X460872996Y-159310860D01*
X460871029Y-159314114D01*
X460729819Y-159547704D01*
X460719127Y-159565390D01*
X460597061Y-159836610D01*
X460508576Y-160120567D01*
X460507890Y-160124312D01*
X460507888Y-160124319D01*
X460482623Y-160262188D01*
X460454964Y-160413119D01*
X460454735Y-160416911D01*
X460454734Y-160416916D01*
X460438428Y-160686496D01*
X460437712Y-160693136D01*
X460437710Y-160693284D01*
X460437873Y-160693680D01*
X460436309Y-160703724D01*
X460437045Y-160709353D01*
X460437006Y-160710000D01*
X460437130Y-160710000D01*
X460438183Y-160718053D01*
X460440436Y-160735283D01*
X460441500Y-160751620D01*
X460441500Y-177760633D01*
X460440000Y-177780018D01*
X460436309Y-177803724D01*
X460437130Y-177810000D01*
X460437006Y-177810000D01*
X460437422Y-177816876D01*
X460453665Y-178085400D01*
X460454964Y-178106881D01*
X460455650Y-178110623D01*
X460502077Y-178363968D01*
X460508576Y-178399433D01*
X460597061Y-178683390D01*
X460719127Y-178954610D01*
X460872996Y-179209140D01*
X460875337Y-179212128D01*
X460875339Y-179212131D01*
X461054070Y-179440264D01*
X461056423Y-179443267D01*
X461266733Y-179653577D01*
X461269733Y-179655927D01*
X461269736Y-179655930D01*
X461313580Y-179690279D01*
X461500860Y-179837004D01*
X461504114Y-179838971D01*
X461752129Y-179988902D01*
X461752133Y-179988904D01*
X461755390Y-179990873D01*
X462026610Y-180112939D01*
X462310567Y-180201424D01*
X462314312Y-180202110D01*
X462314319Y-180202112D01*
X462492087Y-180234689D01*
X462603119Y-180255036D01*
X462606913Y-180255265D01*
X462606917Y-180255266D01*
X462868314Y-180271078D01*
X462881595Y-180272591D01*
X462887448Y-180273576D01*
X462893793Y-180273653D01*
X462895140Y-180273670D01*
X462895143Y-180273670D01*
X462900000Y-180273729D01*
X462927624Y-180269773D01*
X462945486Y-180268500D01*
X465964000Y-180268500D01*
X466032121Y-180288502D01*
X466078614Y-180342158D01*
X466090000Y-180394500D01*
X466090000Y-209424000D01*
X466069998Y-209492121D01*
X466016342Y-209538614D01*
X465964000Y-209550000D01*
X147446000Y-209550000D01*
X147377879Y-209529998D01*
X147331386Y-209476342D01*
X147320000Y-209424000D01*
X147320000Y-206510000D01*
X253831832Y-206510000D01*
X253850523Y-206747494D01*
X253851677Y-206752301D01*
X253851678Y-206752307D01*
X253885215Y-206891998D01*
X253906136Y-206979140D01*
X253908029Y-206983711D01*
X253908030Y-206983713D01*
X253974697Y-207144660D01*
X253997302Y-207199234D01*
X254121776Y-207402357D01*
X254276493Y-207583507D01*
X254457643Y-207738224D01*
X254660766Y-207862698D01*
X254665336Y-207864591D01*
X254665340Y-207864593D01*
X254876287Y-207951970D01*
X254880860Y-207953864D01*
X254960969Y-207973096D01*
X255107693Y-208008322D01*
X255107699Y-208008323D01*
X255112506Y-208009477D01*
X255350000Y-208028168D01*
X255587494Y-208009477D01*
X255592301Y-208008323D01*
X255592307Y-208008322D01*
X255739031Y-207973096D01*
X255819140Y-207953864D01*
X255823713Y-207951970D01*
X256034660Y-207864593D01*
X256034664Y-207864591D01*
X256039234Y-207862698D01*
X256242357Y-207738224D01*
X256423507Y-207583507D01*
X256578224Y-207402357D01*
X256702698Y-207199234D01*
X256725304Y-207144660D01*
X256791970Y-206983713D01*
X256791971Y-206983711D01*
X256793864Y-206979140D01*
X256814785Y-206891998D01*
X256848322Y-206752307D01*
X256848323Y-206752301D01*
X256849477Y-206747494D01*
X256868168Y-206510000D01*
X256864233Y-206460000D01*
X354485583Y-206460000D01*
X354485971Y-206464930D01*
X354485971Y-206464933D01*
X354489041Y-206503934D01*
X354504228Y-206696907D01*
X354505382Y-206701714D01*
X354505383Y-206701720D01*
X354536210Y-206830120D01*
X354559704Y-206927981D01*
X354561597Y-206932552D01*
X354561598Y-206932554D01*
X354578902Y-206974328D01*
X354650645Y-207147531D01*
X354774811Y-207350152D01*
X354929145Y-207530855D01*
X355109848Y-207685189D01*
X355312469Y-207809355D01*
X355317039Y-207811248D01*
X355317043Y-207811250D01*
X355527446Y-207898402D01*
X355527448Y-207898403D01*
X355532019Y-207900296D01*
X355612567Y-207919634D01*
X355758280Y-207954617D01*
X355758286Y-207954618D01*
X355763093Y-207955772D01*
X356000000Y-207974417D01*
X356236907Y-207955772D01*
X356241714Y-207954618D01*
X356241720Y-207954617D01*
X356387433Y-207919634D01*
X356467981Y-207900296D01*
X356472552Y-207898403D01*
X356472554Y-207898402D01*
X356682957Y-207811250D01*
X356682961Y-207811248D01*
X356687531Y-207809355D01*
X356890152Y-207685189D01*
X357070855Y-207530855D01*
X357225189Y-207350152D01*
X357349355Y-207147531D01*
X357421099Y-206974328D01*
X357438402Y-206932554D01*
X357438403Y-206932552D01*
X357440296Y-206927981D01*
X357463790Y-206830120D01*
X357494617Y-206701720D01*
X357494618Y-206701714D01*
X357495772Y-206696907D01*
X357510482Y-206510000D01*
X396581832Y-206510000D01*
X396600523Y-206747494D01*
X396601677Y-206752301D01*
X396601678Y-206752307D01*
X396635215Y-206891998D01*
X396656136Y-206979140D01*
X396658029Y-206983711D01*
X396658030Y-206983713D01*
X396724697Y-207144660D01*
X396747302Y-207199234D01*
X396871776Y-207402357D01*
X397026493Y-207583507D01*
X397207643Y-207738224D01*
X397410766Y-207862698D01*
X397415336Y-207864591D01*
X397415340Y-207864593D01*
X397626287Y-207951970D01*
X397630860Y-207953864D01*
X397710969Y-207973096D01*
X397857693Y-208008322D01*
X397857699Y-208008323D01*
X397862506Y-208009477D01*
X398100000Y-208028168D01*
X398337494Y-208009477D01*
X398342301Y-208008323D01*
X398342307Y-208008322D01*
X398489031Y-207973096D01*
X398569140Y-207953864D01*
X398573713Y-207951970D01*
X398784660Y-207864593D01*
X398784664Y-207864591D01*
X398789234Y-207862698D01*
X398992357Y-207738224D01*
X399173507Y-207583507D01*
X399328224Y-207402357D01*
X399452698Y-207199234D01*
X399475304Y-207144660D01*
X399541970Y-206983713D01*
X399541971Y-206983711D01*
X399543864Y-206979140D01*
X399564785Y-206891998D01*
X399598322Y-206752307D01*
X399598323Y-206752301D01*
X399599477Y-206747494D01*
X399618168Y-206510000D01*
X399614233Y-206460000D01*
X462631832Y-206460000D01*
X462650523Y-206697494D01*
X462651677Y-206702301D01*
X462651678Y-206702307D01*
X462684524Y-206839121D01*
X462706136Y-206929140D01*
X462708029Y-206933711D01*
X462708030Y-206933713D01*
X462736598Y-207002681D01*
X462797302Y-207149234D01*
X462921776Y-207352357D01*
X463076493Y-207533507D01*
X463257643Y-207688224D01*
X463460766Y-207812698D01*
X463465336Y-207814591D01*
X463465340Y-207814593D01*
X463676287Y-207901970D01*
X463680860Y-207903864D01*
X463760969Y-207923096D01*
X463907693Y-207958322D01*
X463907699Y-207958323D01*
X463912506Y-207959477D01*
X464150000Y-207978168D01*
X464387494Y-207959477D01*
X464392301Y-207958323D01*
X464392307Y-207958322D01*
X464539031Y-207923096D01*
X464619140Y-207903864D01*
X464623713Y-207901970D01*
X464834660Y-207814593D01*
X464834664Y-207814591D01*
X464839234Y-207812698D01*
X465042357Y-207688224D01*
X465223507Y-207533507D01*
X465378224Y-207352357D01*
X465502698Y-207149234D01*
X465563403Y-207002681D01*
X465591970Y-206933713D01*
X465591971Y-206933711D01*
X465593864Y-206929140D01*
X465615476Y-206839121D01*
X465648322Y-206702307D01*
X465648323Y-206702301D01*
X465649477Y-206697494D01*
X465668168Y-206460000D01*
X465649477Y-206222506D01*
X465642759Y-206194521D01*
X465599106Y-206012694D01*
X465593864Y-205990860D01*
X465590818Y-205983507D01*
X465504593Y-205775340D01*
X465504591Y-205775336D01*
X465502698Y-205770766D01*
X465378224Y-205567643D01*
X465223507Y-205386493D01*
X465042357Y-205231776D01*
X464839234Y-205107302D01*
X464834664Y-205105409D01*
X464834660Y-205105407D01*
X464623713Y-205018030D01*
X464623711Y-205018029D01*
X464619140Y-205016136D01*
X464517906Y-204991832D01*
X464392307Y-204961678D01*
X464392301Y-204961677D01*
X464387494Y-204960523D01*
X464150000Y-204941832D01*
X463912506Y-204960523D01*
X463907699Y-204961677D01*
X463907693Y-204961678D01*
X463782094Y-204991832D01*
X463680860Y-205016136D01*
X463676289Y-205018029D01*
X463676287Y-205018030D01*
X463465340Y-205105407D01*
X463465336Y-205105409D01*
X463460766Y-205107302D01*
X463257643Y-205231776D01*
X463076493Y-205386493D01*
X462921776Y-205567643D01*
X462797302Y-205770766D01*
X462795409Y-205775336D01*
X462795407Y-205775340D01*
X462709182Y-205983507D01*
X462706136Y-205990860D01*
X462700894Y-206012694D01*
X462657242Y-206194521D01*
X462650523Y-206222506D01*
X462632309Y-206453934D01*
X462631832Y-206460000D01*
X399614233Y-206460000D01*
X399599477Y-206272506D01*
X399597578Y-206264593D01*
X399545019Y-206045672D01*
X399543864Y-206040860D01*
X399530791Y-206009299D01*
X399454593Y-205825340D01*
X399454591Y-205825336D01*
X399452698Y-205820766D01*
X399328224Y-205617643D01*
X399173507Y-205436493D01*
X398992357Y-205281776D01*
X398789234Y-205157302D01*
X398784664Y-205155409D01*
X398784660Y-205155407D01*
X398573713Y-205068030D01*
X398573711Y-205068029D01*
X398569140Y-205066136D01*
X398474916Y-205043515D01*
X398342307Y-205011678D01*
X398342301Y-205011677D01*
X398337494Y-205010523D01*
X398100000Y-204991832D01*
X397862506Y-205010523D01*
X397857699Y-205011677D01*
X397857693Y-205011678D01*
X397725084Y-205043515D01*
X397630860Y-205066136D01*
X397626289Y-205068029D01*
X397626287Y-205068030D01*
X397415340Y-205155407D01*
X397415336Y-205155409D01*
X397410766Y-205157302D01*
X397207643Y-205281776D01*
X397026493Y-205436493D01*
X396871776Y-205617643D01*
X396747302Y-205820766D01*
X396745409Y-205825336D01*
X396745407Y-205825340D01*
X396669209Y-206009299D01*
X396656136Y-206040860D01*
X396654981Y-206045672D01*
X396602423Y-206264593D01*
X396600523Y-206272506D01*
X396582309Y-206503934D01*
X396581832Y-206510000D01*
X357510482Y-206510000D01*
X357514417Y-206460000D01*
X357495772Y-206223093D01*
X357488913Y-206194521D01*
X357459634Y-206072567D01*
X357440296Y-205992019D01*
X357436770Y-205983507D01*
X357351250Y-205777043D01*
X357351248Y-205777039D01*
X357349355Y-205772469D01*
X357225189Y-205569848D01*
X357070855Y-205389145D01*
X356890152Y-205234811D01*
X356687531Y-205110645D01*
X356682961Y-205108752D01*
X356682957Y-205108750D01*
X356472554Y-205021598D01*
X356472552Y-205021597D01*
X356467981Y-205019704D01*
X356351886Y-204991832D01*
X356241720Y-204965383D01*
X356241714Y-204965382D01*
X356236907Y-204964228D01*
X356000000Y-204945583D01*
X355763093Y-204964228D01*
X355758286Y-204965382D01*
X355758280Y-204965383D01*
X355648114Y-204991832D01*
X355532019Y-205019704D01*
X355527448Y-205021597D01*
X355527446Y-205021598D01*
X355317043Y-205108750D01*
X355317039Y-205108752D01*
X355312469Y-205110645D01*
X355109848Y-205234811D01*
X354929145Y-205389145D01*
X354774811Y-205569848D01*
X354650645Y-205772469D01*
X354648752Y-205777039D01*
X354648750Y-205777043D01*
X354563230Y-205983507D01*
X354559704Y-205992019D01*
X354540366Y-206072567D01*
X354511088Y-206194521D01*
X354504228Y-206223093D01*
X354494085Y-206351970D01*
X354486057Y-206453980D01*
X354486055Y-206453980D01*
X354486056Y-206453988D01*
X354485583Y-206460000D01*
X256864233Y-206460000D01*
X256849477Y-206272506D01*
X256847578Y-206264593D01*
X256795019Y-206045672D01*
X256793864Y-206040860D01*
X256780791Y-206009299D01*
X256704593Y-205825340D01*
X256704591Y-205825336D01*
X256702698Y-205820766D01*
X256578224Y-205617643D01*
X256423507Y-205436493D01*
X256242357Y-205281776D01*
X256039234Y-205157302D01*
X256034664Y-205155409D01*
X256034660Y-205155407D01*
X255823713Y-205068030D01*
X255823711Y-205068029D01*
X255819140Y-205066136D01*
X255724916Y-205043515D01*
X255592307Y-205011678D01*
X255592301Y-205011677D01*
X255587494Y-205010523D01*
X255350000Y-204991832D01*
X255112506Y-205010523D01*
X255107699Y-205011677D01*
X255107693Y-205011678D01*
X254975084Y-205043515D01*
X254880860Y-205066136D01*
X254876289Y-205068029D01*
X254876287Y-205068030D01*
X254665340Y-205155407D01*
X254665336Y-205155409D01*
X254660766Y-205157302D01*
X254457643Y-205281776D01*
X254276493Y-205436493D01*
X254121776Y-205617643D01*
X253997302Y-205820766D01*
X253995409Y-205825336D01*
X253995407Y-205825340D01*
X253919209Y-206009299D01*
X253906136Y-206040860D01*
X253904981Y-206045672D01*
X253852423Y-206264593D01*
X253850523Y-206272506D01*
X253832309Y-206503934D01*
X253831832Y-206510000D01*
X147320000Y-206510000D01*
X147320000Y-204910000D01*
X448681832Y-204910000D01*
X448700523Y-205147494D01*
X448701677Y-205152301D01*
X448701678Y-205152307D01*
X448732761Y-205281776D01*
X448756136Y-205379140D01*
X448758029Y-205383711D01*
X448758030Y-205383713D01*
X448836877Y-205574065D01*
X448847302Y-205599234D01*
X448971776Y-205802357D01*
X449126493Y-205983507D01*
X449307643Y-206138224D01*
X449510766Y-206262698D01*
X449515336Y-206264591D01*
X449515340Y-206264593D01*
X449726287Y-206351970D01*
X449730860Y-206353864D01*
X449810969Y-206373096D01*
X449957693Y-206408322D01*
X449957699Y-206408323D01*
X449962506Y-206409477D01*
X450200000Y-206428168D01*
X450437494Y-206409477D01*
X450442301Y-206408323D01*
X450442307Y-206408322D01*
X450589031Y-206373096D01*
X450669140Y-206353864D01*
X450673713Y-206351970D01*
X450884660Y-206264593D01*
X450884664Y-206264591D01*
X450889234Y-206262698D01*
X451092357Y-206138224D01*
X451273507Y-205983507D01*
X451428224Y-205802357D01*
X451552698Y-205599234D01*
X451563124Y-205574065D01*
X451641970Y-205383713D01*
X451641971Y-205383711D01*
X451643864Y-205379140D01*
X451667239Y-205281776D01*
X451698322Y-205152307D01*
X451698323Y-205152301D01*
X451699477Y-205147494D01*
X451718168Y-204910000D01*
X453481832Y-204910000D01*
X453500523Y-205147494D01*
X453501677Y-205152301D01*
X453501678Y-205152307D01*
X453532761Y-205281776D01*
X453556136Y-205379140D01*
X453558029Y-205383711D01*
X453558030Y-205383713D01*
X453636877Y-205574065D01*
X453647302Y-205599234D01*
X453771776Y-205802357D01*
X453926493Y-205983507D01*
X454107643Y-206138224D01*
X454310766Y-206262698D01*
X454315336Y-206264591D01*
X454315340Y-206264593D01*
X454526287Y-206351970D01*
X454530860Y-206353864D01*
X454610969Y-206373096D01*
X454757693Y-206408322D01*
X454757699Y-206408323D01*
X454762506Y-206409477D01*
X455000000Y-206428168D01*
X455237494Y-206409477D01*
X455242301Y-206408323D01*
X455242307Y-206408322D01*
X455389031Y-206373096D01*
X455469140Y-206353864D01*
X455473713Y-206351970D01*
X455684660Y-206264593D01*
X455684664Y-206264591D01*
X455689234Y-206262698D01*
X455892357Y-206138224D01*
X456073507Y-205983507D01*
X456228224Y-205802357D01*
X456352698Y-205599234D01*
X456363124Y-205574065D01*
X456441970Y-205383713D01*
X456441971Y-205383711D01*
X456443864Y-205379140D01*
X456467239Y-205281776D01*
X456498322Y-205152307D01*
X456498323Y-205152301D01*
X456499477Y-205147494D01*
X456518168Y-204910000D01*
X456499477Y-204672506D01*
X456443864Y-204440860D01*
X456352698Y-204220766D01*
X456228224Y-204017643D01*
X456073507Y-203836493D01*
X455892357Y-203681776D01*
X455689234Y-203557302D01*
X455684664Y-203555409D01*
X455684660Y-203555407D01*
X455473713Y-203468030D01*
X455473711Y-203468029D01*
X455469140Y-203466136D01*
X455389031Y-203446904D01*
X455242307Y-203411678D01*
X455242301Y-203411677D01*
X455237494Y-203410523D01*
X455000000Y-203391832D01*
X454762506Y-203410523D01*
X454757699Y-203411677D01*
X454757693Y-203411678D01*
X454610969Y-203446904D01*
X454530860Y-203466136D01*
X454526289Y-203468029D01*
X454526287Y-203468030D01*
X454315340Y-203555407D01*
X454315336Y-203555409D01*
X454310766Y-203557302D01*
X454107643Y-203681776D01*
X453926493Y-203836493D01*
X453771776Y-204017643D01*
X453647302Y-204220766D01*
X453556136Y-204440860D01*
X453500523Y-204672506D01*
X453482309Y-204903934D01*
X453481832Y-204910000D01*
X451718168Y-204910000D01*
X451699477Y-204672506D01*
X451643864Y-204440860D01*
X451552698Y-204220766D01*
X451428224Y-204017643D01*
X451273507Y-203836493D01*
X451092357Y-203681776D01*
X450889234Y-203557302D01*
X450884664Y-203555409D01*
X450884660Y-203555407D01*
X450673713Y-203468030D01*
X450673711Y-203468029D01*
X450669140Y-203466136D01*
X450589031Y-203446904D01*
X450442307Y-203411678D01*
X450442301Y-203411677D01*
X450437494Y-203410523D01*
X450200000Y-203391832D01*
X449962506Y-203410523D01*
X449957699Y-203411677D01*
X449957693Y-203411678D01*
X449810969Y-203446904D01*
X449730860Y-203466136D01*
X449726289Y-203468029D01*
X449726287Y-203468030D01*
X449515340Y-203555407D01*
X449515336Y-203555409D01*
X449510766Y-203557302D01*
X449307643Y-203681776D01*
X449126493Y-203836493D01*
X448971776Y-204017643D01*
X448847302Y-204220766D01*
X448756136Y-204440860D01*
X448700523Y-204672506D01*
X448682309Y-204903934D01*
X448681832Y-204910000D01*
X147320000Y-204910000D01*
X147320000Y-198400000D01*
X414786496Y-198400000D01*
X414806458Y-198589928D01*
X414865473Y-198771556D01*
X414960960Y-198936944D01*
X415088747Y-199078866D01*
X415243248Y-199191118D01*
X415249276Y-199193802D01*
X415249278Y-199193803D01*
X415411681Y-199266109D01*
X415417712Y-199268794D01*
X415511113Y-199288647D01*
X415598056Y-199307128D01*
X415598061Y-199307128D01*
X415604513Y-199308500D01*
X415795487Y-199308500D01*
X415801939Y-199307128D01*
X415801944Y-199307128D01*
X415888888Y-199288647D01*
X415982288Y-199268794D01*
X415988319Y-199266109D01*
X416150722Y-199193803D01*
X416150724Y-199193802D01*
X416156752Y-199191118D01*
X416311253Y-199078866D01*
X416439040Y-198936944D01*
X416534527Y-198771556D01*
X416593542Y-198589928D01*
X416613504Y-198400000D01*
X416593542Y-198210072D01*
X416534527Y-198028444D01*
X416439040Y-197863056D01*
X416365863Y-197781785D01*
X416335147Y-197717779D01*
X416333500Y-197697476D01*
X416333500Y-184107811D01*
X416353502Y-184039690D01*
X416370405Y-184018716D01*
X425036956Y-175352166D01*
X425099268Y-175318140D01*
X425170083Y-175323205D01*
X425215146Y-175352166D01*
X425309619Y-175446639D01*
X425456301Y-175535472D01*
X425478180Y-175542328D01*
X425537201Y-175581785D01*
X425565521Y-175646888D01*
X425566500Y-175662562D01*
X425566500Y-190985406D01*
X425546498Y-191053527D01*
X425529595Y-191074501D01*
X417549500Y-199054595D01*
X417487188Y-199088621D01*
X417460405Y-199091500D01*
X417404513Y-199091500D01*
X417398061Y-199092872D01*
X417398056Y-199092872D01*
X417311113Y-199111353D01*
X417217712Y-199131206D01*
X417211682Y-199133891D01*
X417211681Y-199133891D01*
X417049278Y-199206197D01*
X417049276Y-199206198D01*
X417043248Y-199208882D01*
X416888747Y-199321134D01*
X416760960Y-199463056D01*
X416665473Y-199628444D01*
X416606458Y-199810072D01*
X416586496Y-200000000D01*
X416606458Y-200189928D01*
X416665473Y-200371556D01*
X416760960Y-200536944D01*
X416888747Y-200678866D01*
X417043248Y-200791118D01*
X417049276Y-200793802D01*
X417049278Y-200793803D01*
X417211681Y-200866109D01*
X417217712Y-200868794D01*
X417311113Y-200888647D01*
X417398056Y-200907128D01*
X417398061Y-200907128D01*
X417404513Y-200908500D01*
X417595487Y-200908500D01*
X417601939Y-200907128D01*
X417601944Y-200907128D01*
X417688887Y-200888647D01*
X417782288Y-200868794D01*
X417788319Y-200866109D01*
X417950722Y-200793803D01*
X417950724Y-200793802D01*
X417956752Y-200791118D01*
X418111253Y-200678866D01*
X418239040Y-200536944D01*
X418334527Y-200371556D01*
X418393542Y-200189928D01*
X418410907Y-200024706D01*
X418437920Y-199959050D01*
X418447122Y-199948782D01*
X426592253Y-191803652D01*
X426600539Y-191796112D01*
X426607018Y-191792000D01*
X426653644Y-191742348D01*
X426656398Y-191739507D01*
X426676135Y-191719770D01*
X426678615Y-191716573D01*
X426686320Y-191707551D01*
X426711159Y-191681100D01*
X426716586Y-191675321D01*
X426720405Y-191668375D01*
X426720407Y-191668372D01*
X426726348Y-191657566D01*
X426737199Y-191641047D01*
X426744758Y-191631301D01*
X426749614Y-191625041D01*
X426752759Y-191617772D01*
X426752762Y-191617768D01*
X426767174Y-191584463D01*
X426772391Y-191573813D01*
X426793695Y-191535060D01*
X426798733Y-191515437D01*
X426805137Y-191496734D01*
X426810033Y-191485420D01*
X426810033Y-191485419D01*
X426813181Y-191478145D01*
X426814420Y-191470322D01*
X426814423Y-191470312D01*
X426820099Y-191434476D01*
X426822505Y-191422856D01*
X426831528Y-191387711D01*
X426831528Y-191387710D01*
X426833500Y-191380030D01*
X426833500Y-191359776D01*
X426835051Y-191340065D01*
X426836980Y-191327886D01*
X426838220Y-191320057D01*
X426834059Y-191276038D01*
X426833500Y-191264181D01*
X426833500Y-178519289D01*
X426853502Y-178451168D01*
X426907158Y-178404675D01*
X426977432Y-178394571D01*
X427042012Y-178424065D01*
X427066644Y-178452986D01*
X427101522Y-178509348D01*
X427226697Y-178634305D01*
X427232927Y-178638145D01*
X427232928Y-178638146D01*
X427370090Y-178722694D01*
X427377262Y-178727115D01*
X427457005Y-178753564D01*
X427538611Y-178780632D01*
X427538613Y-178780632D01*
X427545139Y-178782797D01*
X427551975Y-178783497D01*
X427551978Y-178783498D01*
X427595031Y-178787909D01*
X427649600Y-178793500D01*
X430250400Y-178793500D01*
X430253646Y-178793163D01*
X430253650Y-178793163D01*
X430349308Y-178783238D01*
X430349312Y-178783237D01*
X430356166Y-178782526D01*
X430362702Y-178780345D01*
X430362704Y-178780345D01*
X430494806Y-178736272D01*
X430523946Y-178726550D01*
X430674348Y-178633478D01*
X430799305Y-178508303D01*
X430851230Y-178424065D01*
X430888275Y-178363968D01*
X430888276Y-178363966D01*
X430892115Y-178357738D01*
X430947797Y-178189861D01*
X430958500Y-178085400D01*
X430958500Y-176384600D01*
X430947526Y-176278834D01*
X430891550Y-176111054D01*
X430798478Y-175960652D01*
X430673303Y-175835695D01*
X430667072Y-175831854D01*
X430528968Y-175746725D01*
X430528966Y-175746724D01*
X430522738Y-175742885D01*
X430362254Y-175689655D01*
X430361389Y-175689368D01*
X430361387Y-175689368D01*
X430354861Y-175687203D01*
X430348025Y-175686503D01*
X430348022Y-175686502D01*
X430304969Y-175682091D01*
X430250400Y-175676500D01*
X427649600Y-175676500D01*
X427646354Y-175676837D01*
X427646350Y-175676837D01*
X427550692Y-175686762D01*
X427550688Y-175686763D01*
X427543834Y-175687474D01*
X427537298Y-175689655D01*
X427537296Y-175689655D01*
X427405194Y-175733728D01*
X427376054Y-175743450D01*
X427225652Y-175836522D01*
X427100695Y-175961697D01*
X427096855Y-175967927D01*
X427096854Y-175967928D01*
X427066760Y-176016750D01*
X427013988Y-176064243D01*
X426943916Y-176075667D01*
X426878793Y-176047393D01*
X426839293Y-175988399D01*
X426833500Y-175950634D01*
X426833500Y-175662562D01*
X426853502Y-175594441D01*
X426907158Y-175547948D01*
X426921811Y-175542331D01*
X426943699Y-175535472D01*
X427090381Y-175446639D01*
X427211639Y-175325381D01*
X427300472Y-175178699D01*
X427351753Y-175015062D01*
X427358500Y-174941635D01*
X427358499Y-174428366D01*
X427351753Y-174354938D01*
X427300472Y-174191301D01*
X427260483Y-174125271D01*
X427242304Y-174056641D01*
X427260483Y-173994729D01*
X427296537Y-173935196D01*
X427300472Y-173928699D01*
X427351753Y-173765062D01*
X427358500Y-173691635D01*
X427358499Y-173178366D01*
X427358234Y-173175474D01*
X427352364Y-173111592D01*
X427351753Y-173104938D01*
X427300472Y-172941301D01*
X427211639Y-172794619D01*
X427090381Y-172673361D01*
X426943699Y-172584528D01*
X426936452Y-172582257D01*
X426936450Y-172582256D01*
X426870164Y-172561483D01*
X426780062Y-172533247D01*
X426706635Y-172526500D01*
X426703737Y-172526500D01*
X426198686Y-172526501D01*
X425693366Y-172526501D01*
X425690508Y-172526764D01*
X425690499Y-172526764D01*
X425654996Y-172530026D01*
X425619938Y-172533247D01*
X425613560Y-172535246D01*
X425613559Y-172535246D01*
X425463550Y-172582256D01*
X425463548Y-172582257D01*
X425456301Y-172584528D01*
X425309619Y-172673361D01*
X425188361Y-172794619D01*
X425099528Y-172941301D01*
X425048247Y-173104938D01*
X425041500Y-173178365D01*
X425041500Y-173181263D01*
X425041501Y-173503622D01*
X425021499Y-173571742D01*
X425004596Y-173592717D01*
X415307747Y-183289565D01*
X415299461Y-183297105D01*
X415292982Y-183301217D01*
X415287557Y-183306994D01*
X415246357Y-183350868D01*
X415243602Y-183353710D01*
X415223865Y-183373447D01*
X415221385Y-183376644D01*
X415213682Y-183385664D01*
X415183414Y-183417896D01*
X415179595Y-183424842D01*
X415179593Y-183424845D01*
X415173652Y-183435651D01*
X415162801Y-183452170D01*
X415150386Y-183468176D01*
X415147241Y-183475445D01*
X415147238Y-183475449D01*
X415132826Y-183508754D01*
X415127609Y-183519404D01*
X415106305Y-183558157D01*
X415104334Y-183565832D01*
X415104334Y-183565833D01*
X415101267Y-183577779D01*
X415094863Y-183596483D01*
X415086819Y-183615072D01*
X415085580Y-183622895D01*
X415085577Y-183622905D01*
X415079901Y-183658741D01*
X415077495Y-183670361D01*
X415066500Y-183713187D01*
X415066500Y-183733441D01*
X415064949Y-183753151D01*
X415061780Y-183773160D01*
X415062526Y-183781052D01*
X415065941Y-183817178D01*
X415066500Y-183829036D01*
X415066500Y-197697476D01*
X415046498Y-197765597D01*
X415034142Y-197781779D01*
X414960960Y-197863056D01*
X414865473Y-198028444D01*
X414806458Y-198210072D01*
X414786496Y-198400000D01*
X147320000Y-198400000D01*
X147320000Y-171735400D01*
X426941500Y-171735400D01*
X426952474Y-171841166D01*
X427008450Y-172008946D01*
X427101522Y-172159348D01*
X427226697Y-172284305D01*
X427232927Y-172288145D01*
X427232928Y-172288146D01*
X427370090Y-172372694D01*
X427377262Y-172377115D01*
X427457005Y-172403564D01*
X427538611Y-172430632D01*
X427538613Y-172430632D01*
X427545139Y-172432797D01*
X427551975Y-172433497D01*
X427551978Y-172433498D01*
X427595031Y-172437909D01*
X427649600Y-172443500D01*
X430250400Y-172443500D01*
X430253646Y-172443163D01*
X430253650Y-172443163D01*
X430349308Y-172433238D01*
X430349312Y-172433237D01*
X430356166Y-172432526D01*
X430362702Y-172430345D01*
X430362704Y-172430345D01*
X430494806Y-172386272D01*
X430523946Y-172376550D01*
X430674348Y-172283478D01*
X430799305Y-172158303D01*
X430892115Y-172007738D01*
X430947797Y-171839861D01*
X430958500Y-171735400D01*
X430958500Y-170034600D01*
X430947526Y-169928834D01*
X430891550Y-169761054D01*
X430798478Y-169610652D01*
X430673303Y-169485695D01*
X430667072Y-169481854D01*
X430528968Y-169396725D01*
X430528966Y-169396724D01*
X430522738Y-169392885D01*
X430362254Y-169339655D01*
X430361389Y-169339368D01*
X430361387Y-169339368D01*
X430354861Y-169337203D01*
X430348025Y-169336503D01*
X430348022Y-169336502D01*
X430304969Y-169332091D01*
X430250400Y-169326500D01*
X427649600Y-169326500D01*
X427646354Y-169326837D01*
X427646350Y-169326837D01*
X427550692Y-169336762D01*
X427550688Y-169336763D01*
X427543834Y-169337474D01*
X427537298Y-169339655D01*
X427537296Y-169339655D01*
X427405194Y-169383728D01*
X427376054Y-169393450D01*
X427225652Y-169486522D01*
X427100695Y-169611697D01*
X427007885Y-169762262D01*
X426952203Y-169930139D01*
X426941500Y-170034600D01*
X426941500Y-171735400D01*
X147320000Y-171735400D01*
X147320000Y-168285400D01*
X426941500Y-168285400D01*
X426952474Y-168391166D01*
X427008450Y-168558946D01*
X427101522Y-168709348D01*
X427226697Y-168834305D01*
X427232927Y-168838145D01*
X427232928Y-168838146D01*
X427370090Y-168922694D01*
X427377262Y-168927115D01*
X427457005Y-168953564D01*
X427538611Y-168980632D01*
X427538613Y-168980632D01*
X427545139Y-168982797D01*
X427551975Y-168983497D01*
X427551978Y-168983498D01*
X427595031Y-168987909D01*
X427649600Y-168993500D01*
X430250400Y-168993500D01*
X430253646Y-168993163D01*
X430253650Y-168993163D01*
X430349308Y-168983238D01*
X430349312Y-168983237D01*
X430356166Y-168982526D01*
X430362702Y-168980345D01*
X430362704Y-168980345D01*
X430494806Y-168936272D01*
X430523946Y-168926550D01*
X430674348Y-168833478D01*
X430799305Y-168708303D01*
X430892115Y-168557738D01*
X430947797Y-168389861D01*
X430958500Y-168285400D01*
X430958500Y-166584600D01*
X430947526Y-166478834D01*
X430891550Y-166311054D01*
X430798478Y-166160652D01*
X430673303Y-166035695D01*
X430667072Y-166031854D01*
X430528968Y-165946725D01*
X430528966Y-165946724D01*
X430522738Y-165942885D01*
X430362254Y-165889655D01*
X430361389Y-165889368D01*
X430361387Y-165889368D01*
X430354861Y-165887203D01*
X430348025Y-165886503D01*
X430348022Y-165886502D01*
X430304969Y-165882091D01*
X430250400Y-165876500D01*
X427649600Y-165876500D01*
X427646354Y-165876837D01*
X427646350Y-165876837D01*
X427550692Y-165886762D01*
X427550688Y-165886763D01*
X427543834Y-165887474D01*
X427537298Y-165889655D01*
X427537296Y-165889655D01*
X427405194Y-165933728D01*
X427376054Y-165943450D01*
X427225652Y-166036522D01*
X427100695Y-166161697D01*
X427007885Y-166312262D01*
X426952203Y-166480139D01*
X426941500Y-166584600D01*
X426941500Y-168285400D01*
X147320000Y-168285400D01*
X147320000Y-155500000D01*
X422086496Y-155500000D01*
X422106458Y-155689928D01*
X422165473Y-155871556D01*
X422260960Y-156036944D01*
X422334137Y-156118215D01*
X422364853Y-156182221D01*
X422366500Y-156202524D01*
X422366500Y-160498016D01*
X422365973Y-160509199D01*
X422364298Y-160516692D01*
X422364547Y-160524618D01*
X422364547Y-160524619D01*
X422366438Y-160584769D01*
X422366500Y-160588728D01*
X422366500Y-160616639D01*
X422366997Y-160620573D01*
X422366997Y-160620574D01*
X422367005Y-160620639D01*
X422367938Y-160632476D01*
X422369327Y-160676672D01*
X422374978Y-160696122D01*
X422378987Y-160715483D01*
X422381526Y-160735580D01*
X422384445Y-160742951D01*
X422384445Y-160742953D01*
X422397804Y-160776695D01*
X422401649Y-160787925D01*
X422411771Y-160822766D01*
X422413982Y-160830376D01*
X422418015Y-160837195D01*
X422418017Y-160837200D01*
X422424293Y-160847811D01*
X422432988Y-160865559D01*
X422440448Y-160884400D01*
X422445110Y-160890816D01*
X422445110Y-160890817D01*
X422466436Y-160920170D01*
X422472952Y-160930090D01*
X422495458Y-160968145D01*
X422509779Y-160982466D01*
X422522619Y-160997499D01*
X422534528Y-161013890D01*
X422540634Y-161018941D01*
X422568605Y-161042081D01*
X422577384Y-161050071D01*
X425004595Y-163477283D01*
X425038621Y-163539595D01*
X425041500Y-163566378D01*
X425041501Y-163891634D01*
X425041764Y-163894492D01*
X425041764Y-163894501D01*
X425045026Y-163930004D01*
X425048247Y-163965062D01*
X425099528Y-164128699D01*
X425103463Y-164135196D01*
X425139517Y-164194729D01*
X425157696Y-164263359D01*
X425139517Y-164325270D01*
X425099528Y-164391301D01*
X425048247Y-164554938D01*
X425041500Y-164628365D01*
X425041501Y-165141634D01*
X425041764Y-165144492D01*
X425041764Y-165144501D01*
X425045026Y-165180004D01*
X425048247Y-165215062D01*
X425099528Y-165378699D01*
X425188361Y-165525381D01*
X425309619Y-165646639D01*
X425456301Y-165735472D01*
X425463548Y-165737743D01*
X425463550Y-165737744D01*
X425529836Y-165758517D01*
X425619938Y-165786753D01*
X425693365Y-165793500D01*
X425696263Y-165793500D01*
X426201314Y-165793499D01*
X426706634Y-165793499D01*
X426709492Y-165793236D01*
X426709501Y-165793236D01*
X426745004Y-165789974D01*
X426780062Y-165786753D01*
X426786447Y-165784752D01*
X426936450Y-165737744D01*
X426936452Y-165737743D01*
X426943699Y-165735472D01*
X427090381Y-165646639D01*
X427211639Y-165525381D01*
X427300472Y-165378699D01*
X427351753Y-165215062D01*
X427358500Y-165141635D01*
X427358499Y-164628366D01*
X427358234Y-164625474D01*
X427352364Y-164561592D01*
X427351753Y-164554938D01*
X427300472Y-164391301D01*
X427260483Y-164325271D01*
X427242304Y-164256641D01*
X427260483Y-164194729D01*
X427296537Y-164135196D01*
X427300472Y-164128699D01*
X427351753Y-163965062D01*
X427358500Y-163891635D01*
X427358499Y-163378366D01*
X427351753Y-163304938D01*
X427300472Y-163141301D01*
X427260191Y-163074788D01*
X427242012Y-163006160D01*
X427260191Y-162944247D01*
X427296077Y-162884992D01*
X427302285Y-162871243D01*
X427349256Y-162721356D01*
X427351869Y-162708306D01*
X427356913Y-162653414D01*
X427353525Y-162641876D01*
X427352135Y-162640671D01*
X427344452Y-162639000D01*
X426072000Y-162639000D01*
X426003879Y-162618998D01*
X425957386Y-162565342D01*
X425946000Y-162513000D01*
X425946000Y-162112885D01*
X426454000Y-162112885D01*
X426458475Y-162128124D01*
X426459865Y-162129329D01*
X426467548Y-162131000D01*
X427339884Y-162131000D01*
X427355123Y-162126525D01*
X427356328Y-162125135D01*
X427357291Y-162120706D01*
X427351868Y-162061685D01*
X427349257Y-162048649D01*
X427302285Y-161898757D01*
X427296080Y-161885015D01*
X427259898Y-161825272D01*
X427241719Y-161756642D01*
X427259898Y-161694728D01*
X427296080Y-161634985D01*
X427302285Y-161621243D01*
X427349256Y-161471356D01*
X427351869Y-161458306D01*
X427356913Y-161403414D01*
X427353525Y-161391876D01*
X427352135Y-161390671D01*
X427344452Y-161389000D01*
X426472115Y-161389000D01*
X426456876Y-161393475D01*
X426455671Y-161394865D01*
X426454000Y-161402548D01*
X426454000Y-162112885D01*
X425946000Y-162112885D01*
X425946000Y-161407115D01*
X425941525Y-161391876D01*
X425940135Y-161390671D01*
X425932452Y-161389000D01*
X425060116Y-161389000D01*
X425044877Y-161393475D01*
X425043672Y-161394865D01*
X425042709Y-161399294D01*
X425043630Y-161409320D01*
X425029944Y-161478985D01*
X424980767Y-161530191D01*
X424911712Y-161546682D01*
X424844703Y-161523221D01*
X424829066Y-161509945D01*
X424185708Y-160866586D01*
X425043087Y-160866586D01*
X425046475Y-160878124D01*
X425047865Y-160879329D01*
X425055548Y-160881000D01*
X425927885Y-160881000D01*
X425943124Y-160876525D01*
X425944329Y-160875135D01*
X425946000Y-160867452D01*
X425946000Y-160862885D01*
X426454000Y-160862885D01*
X426458475Y-160878124D01*
X426459865Y-160879329D01*
X426467548Y-160881000D01*
X427339884Y-160881000D01*
X427355123Y-160876525D01*
X427356328Y-160875135D01*
X427357291Y-160870706D01*
X427351868Y-160811685D01*
X427349257Y-160798649D01*
X427302285Y-160648757D01*
X427296079Y-160635012D01*
X427215176Y-160501426D01*
X427205869Y-160489557D01*
X427095443Y-160379131D01*
X427083574Y-160369824D01*
X426949988Y-160288921D01*
X426936243Y-160282715D01*
X426786356Y-160235744D01*
X426773306Y-160233131D01*
X426709479Y-160227266D01*
X426703691Y-160227000D01*
X426472115Y-160227000D01*
X426456876Y-160231475D01*
X426455671Y-160232865D01*
X426454000Y-160240548D01*
X426454000Y-160862885D01*
X425946000Y-160862885D01*
X425946000Y-160245116D01*
X425941525Y-160229877D01*
X425940135Y-160228672D01*
X425932452Y-160227001D01*
X425696295Y-160227001D01*
X425690546Y-160227264D01*
X425626685Y-160233132D01*
X425613649Y-160235743D01*
X425463757Y-160282715D01*
X425450012Y-160288921D01*
X425316426Y-160369824D01*
X425304557Y-160379131D01*
X425194131Y-160489557D01*
X425184824Y-160501426D01*
X425103921Y-160635012D01*
X425097715Y-160648757D01*
X425050744Y-160798644D01*
X425048131Y-160811694D01*
X425043087Y-160866586D01*
X424185708Y-160866586D01*
X423670405Y-160351283D01*
X423636379Y-160288971D01*
X423633500Y-160262188D01*
X423633500Y-159435400D01*
X426941500Y-159435400D01*
X426952474Y-159541166D01*
X427008450Y-159708946D01*
X427101522Y-159859348D01*
X427226697Y-159984305D01*
X427232927Y-159988145D01*
X427232928Y-159988146D01*
X427370090Y-160072694D01*
X427377262Y-160077115D01*
X427457005Y-160103564D01*
X427538611Y-160130632D01*
X427538613Y-160130632D01*
X427545139Y-160132797D01*
X427551975Y-160133497D01*
X427551978Y-160133498D01*
X427595031Y-160137909D01*
X427649600Y-160143500D01*
X430250400Y-160143500D01*
X430253646Y-160143163D01*
X430253650Y-160143163D01*
X430349308Y-160133238D01*
X430349312Y-160133237D01*
X430356166Y-160132526D01*
X430362702Y-160130345D01*
X430362704Y-160130345D01*
X430494806Y-160086272D01*
X430523946Y-160076550D01*
X430674348Y-159983478D01*
X430799305Y-159858303D01*
X430892115Y-159707738D01*
X430938177Y-159568866D01*
X430945632Y-159546389D01*
X430945632Y-159546387D01*
X430947797Y-159539861D01*
X430958500Y-159435400D01*
X430958500Y-157734600D01*
X430947526Y-157628834D01*
X430891550Y-157461054D01*
X430798478Y-157310652D01*
X430673303Y-157185695D01*
X430667072Y-157181854D01*
X430528968Y-157096725D01*
X430528966Y-157096724D01*
X430522738Y-157092885D01*
X430362254Y-157039655D01*
X430361389Y-157039368D01*
X430361387Y-157039368D01*
X430354861Y-157037203D01*
X430348025Y-157036503D01*
X430348022Y-157036502D01*
X430304969Y-157032091D01*
X430250400Y-157026500D01*
X427649600Y-157026500D01*
X427646354Y-157026837D01*
X427646350Y-157026837D01*
X427550692Y-157036762D01*
X427550688Y-157036763D01*
X427543834Y-157037474D01*
X427537298Y-157039655D01*
X427537296Y-157039655D01*
X427405194Y-157083728D01*
X427376054Y-157093450D01*
X427225652Y-157186522D01*
X427100695Y-157311697D01*
X427007885Y-157462262D01*
X426952203Y-157630139D01*
X426941500Y-157734600D01*
X426941500Y-159435400D01*
X423633500Y-159435400D01*
X423633500Y-156202524D01*
X423653502Y-156134403D01*
X423665858Y-156118221D01*
X423739040Y-156036944D01*
X423834527Y-155871556D01*
X423893542Y-155689928D01*
X423913504Y-155500000D01*
X423893542Y-155310072D01*
X423834527Y-155128444D01*
X423739040Y-154963056D01*
X423611253Y-154821134D01*
X423456752Y-154708882D01*
X423450724Y-154706198D01*
X423450722Y-154706197D01*
X423288319Y-154633891D01*
X423288318Y-154633891D01*
X423282288Y-154631206D01*
X423188887Y-154611353D01*
X423101944Y-154592872D01*
X423101939Y-154592872D01*
X423095487Y-154591500D01*
X422904513Y-154591500D01*
X422898061Y-154592872D01*
X422898056Y-154592872D01*
X422811112Y-154611353D01*
X422717712Y-154631206D01*
X422711682Y-154633891D01*
X422711681Y-154633891D01*
X422549278Y-154706197D01*
X422549276Y-154706198D01*
X422543248Y-154708882D01*
X422388747Y-154821134D01*
X422260960Y-154963056D01*
X422165473Y-155128444D01*
X422106458Y-155310072D01*
X422086496Y-155500000D01*
X147320000Y-155500000D01*
X147320000Y-131960000D01*
X253881832Y-131960000D01*
X253900523Y-132197494D01*
X253901677Y-132202301D01*
X253901678Y-132202307D01*
X253935215Y-132341998D01*
X253956136Y-132429140D01*
X253958029Y-132433711D01*
X253958030Y-132433713D01*
X253986598Y-132502681D01*
X254047302Y-132649234D01*
X254171776Y-132852357D01*
X254326493Y-133033507D01*
X254507643Y-133188224D01*
X254710766Y-133312698D01*
X254715336Y-133314591D01*
X254715340Y-133314593D01*
X254926287Y-133401970D01*
X254930860Y-133403864D01*
X255010969Y-133423096D01*
X255157693Y-133458322D01*
X255157699Y-133458323D01*
X255162506Y-133459477D01*
X255400000Y-133478168D01*
X255637494Y-133459477D01*
X255642301Y-133458323D01*
X255642307Y-133458322D01*
X255789031Y-133423096D01*
X255869140Y-133403864D01*
X255873713Y-133401970D01*
X256084660Y-133314593D01*
X256084664Y-133314591D01*
X256089234Y-133312698D01*
X256292357Y-133188224D01*
X256473507Y-133033507D01*
X256628224Y-132852357D01*
X256752698Y-132649234D01*
X256813403Y-132502681D01*
X256841970Y-132433713D01*
X256841971Y-132433711D01*
X256843864Y-132429140D01*
X256864785Y-132341998D01*
X256898322Y-132202307D01*
X256898323Y-132202301D01*
X256899477Y-132197494D01*
X256914233Y-132010000D01*
X354485583Y-132010000D01*
X354485971Y-132014930D01*
X354485971Y-132014933D01*
X354492156Y-132093515D01*
X354504228Y-132246907D01*
X354505382Y-132251714D01*
X354505383Y-132251720D01*
X354536210Y-132380120D01*
X354559704Y-132477981D01*
X354561597Y-132482552D01*
X354561598Y-132482554D01*
X354632388Y-132653454D01*
X354650645Y-132697531D01*
X354774811Y-132900152D01*
X354929145Y-133080855D01*
X355109848Y-133235189D01*
X355312469Y-133359355D01*
X355317039Y-133361248D01*
X355317043Y-133361250D01*
X355527446Y-133448402D01*
X355527448Y-133448403D01*
X355532019Y-133450296D01*
X355565450Y-133458322D01*
X355758280Y-133504617D01*
X355758286Y-133504618D01*
X355763093Y-133505772D01*
X356000000Y-133524417D01*
X356236907Y-133505772D01*
X356241714Y-133504618D01*
X356241720Y-133504617D01*
X356434550Y-133458322D01*
X356467981Y-133450296D01*
X356472552Y-133448403D01*
X356472554Y-133448402D01*
X356682957Y-133361250D01*
X356682961Y-133361248D01*
X356687531Y-133359355D01*
X356890152Y-133235189D01*
X357070855Y-133080855D01*
X357225189Y-132900152D01*
X357349355Y-132697531D01*
X357367613Y-132653454D01*
X357438402Y-132482554D01*
X357438403Y-132482552D01*
X357440296Y-132477981D01*
X357463790Y-132380120D01*
X357494617Y-132251720D01*
X357494618Y-132251714D01*
X357495772Y-132246907D01*
X357514417Y-132010000D01*
X396581832Y-132010000D01*
X396600523Y-132247494D01*
X396601677Y-132252301D01*
X396601678Y-132252307D01*
X396634524Y-132389121D01*
X396656136Y-132479140D01*
X396658029Y-132483711D01*
X396658030Y-132483713D01*
X396724697Y-132644660D01*
X396747302Y-132699234D01*
X396871776Y-132902357D01*
X397026493Y-133083507D01*
X397207643Y-133238224D01*
X397410766Y-133362698D01*
X397415336Y-133364591D01*
X397415340Y-133364593D01*
X397626287Y-133451970D01*
X397630860Y-133453864D01*
X397710969Y-133473096D01*
X397857693Y-133508322D01*
X397857699Y-133508323D01*
X397862506Y-133509477D01*
X398100000Y-133528168D01*
X398337494Y-133509477D01*
X398342301Y-133508323D01*
X398342307Y-133508322D01*
X398489031Y-133473096D01*
X398569140Y-133453864D01*
X398573713Y-133451970D01*
X398784660Y-133364593D01*
X398784664Y-133364591D01*
X398789234Y-133362698D01*
X398992357Y-133238224D01*
X399173507Y-133083507D01*
X399328224Y-132902357D01*
X399452698Y-132699234D01*
X399475304Y-132644660D01*
X399541970Y-132483713D01*
X399541971Y-132483711D01*
X399543864Y-132479140D01*
X399565476Y-132389121D01*
X399598322Y-132252307D01*
X399598323Y-132252301D01*
X399599477Y-132247494D01*
X399618168Y-132010000D01*
X399599477Y-131772506D01*
X399592759Y-131744521D01*
X399549106Y-131562694D01*
X399543864Y-131540860D01*
X399530791Y-131509299D01*
X399454593Y-131325340D01*
X399454591Y-131325336D01*
X399452698Y-131320766D01*
X399328224Y-131117643D01*
X399173507Y-130936493D01*
X398992357Y-130781776D01*
X398789234Y-130657302D01*
X398784664Y-130655409D01*
X398784660Y-130655407D01*
X398573713Y-130568030D01*
X398573711Y-130568029D01*
X398569140Y-130566136D01*
X398489031Y-130546904D01*
X398342307Y-130511678D01*
X398342301Y-130511677D01*
X398337494Y-130510523D01*
X398100000Y-130491832D01*
X397862506Y-130510523D01*
X397857699Y-130511677D01*
X397857693Y-130511678D01*
X397710969Y-130546904D01*
X397630860Y-130566136D01*
X397626289Y-130568029D01*
X397626287Y-130568030D01*
X397415340Y-130655407D01*
X397415336Y-130655409D01*
X397410766Y-130657302D01*
X397207643Y-130781776D01*
X397026493Y-130936493D01*
X396871776Y-131117643D01*
X396747302Y-131320766D01*
X396745409Y-131325336D01*
X396745407Y-131325340D01*
X396669209Y-131509299D01*
X396656136Y-131540860D01*
X396650894Y-131562694D01*
X396607242Y-131744521D01*
X396600523Y-131772506D01*
X396582309Y-132003934D01*
X396581832Y-132010000D01*
X357514417Y-132010000D01*
X357495772Y-131773093D01*
X357488913Y-131744521D01*
X357459634Y-131622567D01*
X357440296Y-131542019D01*
X357437922Y-131536287D01*
X357351250Y-131327043D01*
X357351248Y-131327039D01*
X357349355Y-131322469D01*
X357225189Y-131119848D01*
X357070855Y-130939145D01*
X356890152Y-130784811D01*
X356687531Y-130660645D01*
X356682961Y-130658752D01*
X356682957Y-130658750D01*
X356472554Y-130571598D01*
X356472552Y-130571597D01*
X356467981Y-130569704D01*
X356387433Y-130550366D01*
X356241720Y-130515383D01*
X356241714Y-130515382D01*
X356236907Y-130514228D01*
X356000000Y-130495583D01*
X355763093Y-130514228D01*
X355758286Y-130515382D01*
X355758280Y-130515383D01*
X355612567Y-130550366D01*
X355532019Y-130569704D01*
X355527448Y-130571597D01*
X355527446Y-130571598D01*
X355317043Y-130658750D01*
X355317039Y-130658752D01*
X355312469Y-130660645D01*
X355109848Y-130784811D01*
X354929145Y-130939145D01*
X354774811Y-131119848D01*
X354650645Y-131322469D01*
X354648752Y-131327039D01*
X354648750Y-131327043D01*
X354562078Y-131536287D01*
X354559704Y-131542019D01*
X354540366Y-131622567D01*
X354511088Y-131744521D01*
X354504228Y-131773093D01*
X354489996Y-131953934D01*
X354486057Y-132003980D01*
X354486055Y-132003980D01*
X354486056Y-132003988D01*
X354485583Y-132010000D01*
X256914233Y-132010000D01*
X256918168Y-131960000D01*
X256899477Y-131722506D01*
X256878677Y-131635865D01*
X256845019Y-131495672D01*
X256843864Y-131490860D01*
X256776009Y-131327043D01*
X256754593Y-131275340D01*
X256754591Y-131275336D01*
X256752698Y-131270766D01*
X256628224Y-131067643D01*
X256473507Y-130886493D01*
X256292357Y-130731776D01*
X256089234Y-130607302D01*
X256084664Y-130605409D01*
X256084660Y-130605407D01*
X255873713Y-130518030D01*
X255873711Y-130518029D01*
X255869140Y-130516136D01*
X255767906Y-130491832D01*
X255642307Y-130461678D01*
X255642301Y-130461677D01*
X255637494Y-130460523D01*
X255400000Y-130441832D01*
X255162506Y-130460523D01*
X255157699Y-130461677D01*
X255157693Y-130461678D01*
X255032094Y-130491832D01*
X254930860Y-130516136D01*
X254926289Y-130518029D01*
X254926287Y-130518030D01*
X254715340Y-130605407D01*
X254715336Y-130605409D01*
X254710766Y-130607302D01*
X254507643Y-130731776D01*
X254326493Y-130886493D01*
X254171776Y-131067643D01*
X254047302Y-131270766D01*
X254045409Y-131275336D01*
X254045407Y-131275340D01*
X254023991Y-131327043D01*
X253956136Y-131490860D01*
X253954981Y-131495672D01*
X253921324Y-131635865D01*
X253900523Y-131722506D01*
X253882309Y-131953934D01*
X253881832Y-131960000D01*
X147320000Y-131960000D01*
X147320000Y-129666000D01*
X147340002Y-129597879D01*
X147393658Y-129551386D01*
X147446000Y-129540000D01*
X445665500Y-129540000D01*
X445733621Y-129560002D01*
G37*
G04 #@! TD.AperFunction*
M02*
