G04 #@! TF.GenerationSoftware,KiCad,Pcbnew,(5.1.9)-1*
G04 #@! TF.CreationDate,2021-03-05T17:13:54-06:00*
G04 #@! TF.ProjectId,X+,582b2e6b-6963-4616-945f-706362585858,3*
G04 #@! TF.SameCoordinates,Original*
G04 #@! TF.FileFunction,Legend,Top*
G04 #@! TF.FilePolarity,Positive*
%FSLAX46Y46*%
G04 Gerber Fmt 4.6, Leading zero omitted, Abs format (unit mm)*
G04 Created by KiCad (PCBNEW (5.1.9)-1) date 2021-03-05 17:13:54*
%MOMM*%
%LPD*%
G01*
G04 APERTURE LIST*
%ADD10C,0.300000*%
%ADD11C,0.200000*%
%ADD12C,0.120000*%
%ADD13C,0.150000*%
G04 APERTURE END LIST*
D10*
X158140000Y-131345714D02*
X158068571Y-131417142D01*
X157854285Y-131488571D01*
X157711428Y-131488571D01*
X157497142Y-131417142D01*
X157354285Y-131274285D01*
X157282857Y-131131428D01*
X157211428Y-130845714D01*
X157211428Y-130631428D01*
X157282857Y-130345714D01*
X157354285Y-130202857D01*
X157497142Y-130060000D01*
X157711428Y-129988571D01*
X157854285Y-129988571D01*
X158068571Y-130060000D01*
X158140000Y-130131428D01*
X158640000Y-130488571D02*
X158997142Y-131488571D01*
X159354285Y-130488571D02*
X158997142Y-131488571D01*
X158854285Y-131845714D01*
X158782857Y-131917142D01*
X158640000Y-131988571D01*
X159854285Y-131417142D02*
X160068571Y-131488571D01*
X160425714Y-131488571D01*
X160568571Y-131417142D01*
X160640000Y-131345714D01*
X160711428Y-131202857D01*
X160711428Y-131060000D01*
X160640000Y-130917142D01*
X160568571Y-130845714D01*
X160425714Y-130774285D01*
X160140000Y-130702857D01*
X159997142Y-130631428D01*
X159925714Y-130560000D01*
X159854285Y-130417142D01*
X159854285Y-130274285D01*
X159925714Y-130131428D01*
X159997142Y-130060000D01*
X160140000Y-129988571D01*
X160497142Y-129988571D01*
X160711428Y-130060000D01*
X161997142Y-131488571D02*
X161997142Y-130702857D01*
X161925714Y-130560000D01*
X161782857Y-130488571D01*
X161497142Y-130488571D01*
X161354285Y-130560000D01*
X161997142Y-131417142D02*
X161854285Y-131488571D01*
X161497142Y-131488571D01*
X161354285Y-131417142D01*
X161282857Y-131274285D01*
X161282857Y-131131428D01*
X161354285Y-130988571D01*
X161497142Y-130917142D01*
X161854285Y-130917142D01*
X161997142Y-130845714D01*
X162497142Y-130488571D02*
X163068571Y-130488571D01*
X162711428Y-129988571D02*
X162711428Y-131274285D01*
X162782857Y-131417142D01*
X162925714Y-131488571D01*
X163068571Y-131488571D01*
X163568571Y-130917142D02*
X164711428Y-130917142D01*
X166211428Y-131488571D02*
X165354285Y-131488571D01*
X165782857Y-131488571D02*
X165782857Y-129988571D01*
X165640000Y-130202857D01*
X165497142Y-130345714D01*
X165354285Y-130417142D01*
X167854285Y-129988571D02*
X168854285Y-131488571D01*
X168854285Y-129988571D02*
X167854285Y-131488571D01*
X169425714Y-130917142D02*
X170568571Y-130917142D01*
X169997142Y-131488571D02*
X169997142Y-130345714D01*
X172425714Y-131488571D02*
X172425714Y-129988571D01*
X172997142Y-129988571D01*
X173140000Y-130060000D01*
X173211428Y-130131428D01*
X173282857Y-130274285D01*
X173282857Y-130488571D01*
X173211428Y-130631428D01*
X173140000Y-130702857D01*
X172997142Y-130774285D01*
X172425714Y-130774285D01*
X174568571Y-131488571D02*
X174568571Y-130702857D01*
X174497142Y-130560000D01*
X174354285Y-130488571D01*
X174068571Y-130488571D01*
X173925714Y-130560000D01*
X174568571Y-131417142D02*
X174425714Y-131488571D01*
X174068571Y-131488571D01*
X173925714Y-131417142D01*
X173854285Y-131274285D01*
X173854285Y-131131428D01*
X173925714Y-130988571D01*
X174068571Y-130917142D01*
X174425714Y-130917142D01*
X174568571Y-130845714D01*
X175282857Y-130488571D02*
X175282857Y-131488571D01*
X175282857Y-130631428D02*
X175354285Y-130560000D01*
X175497142Y-130488571D01*
X175711428Y-130488571D01*
X175854285Y-130560000D01*
X175925714Y-130702857D01*
X175925714Y-131488571D01*
X177211428Y-131417142D02*
X177068571Y-131488571D01*
X176782857Y-131488571D01*
X176640000Y-131417142D01*
X176568571Y-131274285D01*
X176568571Y-130702857D01*
X176640000Y-130560000D01*
X176782857Y-130488571D01*
X177068571Y-130488571D01*
X177211428Y-130560000D01*
X177282857Y-130702857D01*
X177282857Y-130845714D01*
X176568571Y-130988571D01*
X178140000Y-131488571D02*
X177997142Y-131417142D01*
X177925714Y-131274285D01*
X177925714Y-129988571D01*
D11*
X460949092Y-177742140D02*
X460949092Y-160742131D01*
X467299073Y-158742131D02*
X467299073Y-179742131D01*
X466024088Y-131992131D02*
G75*
G03*
X466024088Y-131992131I-1900000J0D01*
G01*
X465834088Y-131992131D02*
G75*
G03*
X465834088Y-131992131I-1710000J0D01*
G01*
X464650195Y-132680034D02*
G75*
G02*
X463791400Y-132791705I-526107J687903D01*
G01*
X463597980Y-131304229D02*
G75*
G02*
X464456775Y-131192557I526108J-687902D01*
G01*
X464456775Y-131192557D02*
G75*
G02*
X464982883Y-131880459I-332687J-799574D01*
G01*
X464982883Y-131880460D02*
G75*
G02*
X464650196Y-132680034I-858795J-111671D01*
G01*
X463791401Y-132791706D02*
G75*
G02*
X463265292Y-132103803I332687J799575D01*
G01*
X463265292Y-132103803D02*
G75*
G02*
X463597979Y-131304228I858796J111672D01*
G01*
X144874088Y-153742131D02*
G75*
G03*
X144874088Y-153742131I-1900000J0D01*
G01*
X144684088Y-153742131D02*
G75*
G03*
X144684088Y-153742131I-1710000J0D01*
G01*
X143715838Y-153295133D02*
G75*
G02*
X143732074Y-154161006I-741750J-446998D01*
G01*
X142232338Y-154189130D02*
G75*
G02*
X142216101Y-153323256I741750J446999D01*
G01*
X143732074Y-154161007D02*
G75*
G02*
X142990324Y-154608004I-757986J418876D01*
G01*
X142957851Y-152876258D02*
G75*
G02*
X143715837Y-153295133I16237J-865873D01*
G01*
X142990325Y-154608005D02*
G75*
G02*
X142232338Y-154189129I-16237J865874D01*
G01*
X142216102Y-153323256D02*
G75*
G02*
X142957851Y-152876258I757986J-418875D01*
G01*
X452100556Y-204942131D02*
G75*
G03*
X452100556Y-204942131I-1900000J0D01*
G01*
X451910556Y-204942131D02*
G75*
G03*
X451910556Y-204942131I-1710000J0D01*
G01*
X451063151Y-205019128D02*
G75*
G02*
X450565172Y-205727659I-862595J76997D01*
G01*
X449337961Y-204865135D02*
G75*
G02*
X449835939Y-204156603I862595J-76996D01*
G01*
X450698535Y-204233600D02*
G75*
G02*
X451063151Y-205019128I-497979J-708531D01*
G01*
X450565172Y-205727660D02*
G75*
G02*
X449702576Y-205650662I-364616J785529D01*
G01*
X449835940Y-204156603D02*
G75*
G02*
X450698535Y-204233600I364616J-785528D01*
G01*
X449702576Y-205650663D02*
G75*
G02*
X449337960Y-204865134I497980J708532D01*
G01*
X456899088Y-204942131D02*
G75*
G03*
X456899088Y-204942131I-1900000J0D01*
G01*
X456709088Y-204942131D02*
G75*
G03*
X456709088Y-204942131I-1710000J0D01*
G01*
X454561417Y-204194841D02*
G75*
G02*
X455427425Y-204189451I437671J-747290D01*
G01*
X455436759Y-205689423D02*
G75*
G02*
X454570750Y-205694811I-437671J747292D01*
G01*
X455427426Y-204189452D02*
G75*
G02*
X455865096Y-204936743I-428338J-752679D01*
G01*
X455865096Y-204936743D02*
G75*
G02*
X455436758Y-205689422I-866008J-5388D01*
G01*
X454570750Y-205694811D02*
G75*
G02*
X454133079Y-204947520I428338J752680D01*
G01*
X454133080Y-204947520D02*
G75*
G02*
X454561417Y-204194840I866008J5389D01*
G01*
X398117088Y-205626105D02*
G75*
G02*
X398867088Y-206059118I0J-866026D01*
G01*
X398117088Y-207358157D02*
G75*
G02*
X397367088Y-206925144I0J866026D01*
G01*
X397367088Y-206059119D02*
G75*
G02*
X398117088Y-205626106I750000J-433012D01*
G01*
X400017088Y-131992131D02*
G75*
G03*
X400017088Y-131992131I-1900000J0D01*
G01*
X399827088Y-131992131D02*
G75*
G03*
X399827088Y-131992131I-1710000J0D01*
G01*
X398867089Y-131559118D02*
G75*
G02*
X398867088Y-132425144I-750001J-433013D01*
G01*
X397367087Y-132425144D02*
G75*
G02*
X397367088Y-131559118I750001J433013D01*
G01*
X398867088Y-132425143D02*
G75*
G02*
X398117088Y-132858156I-750000J433012D01*
G01*
X398117088Y-131126105D02*
G75*
G02*
X398867088Y-131559118I0J-866026D01*
G01*
X398117088Y-132858157D02*
G75*
G02*
X397367088Y-132425144I0J866026D01*
G01*
X397367088Y-131559119D02*
G75*
G02*
X398117088Y-131126106I750000J-433012D01*
G01*
X257269088Y-131992131D02*
G75*
G03*
X257269088Y-131992131I-1900000J0D01*
G01*
X257079088Y-131992131D02*
G75*
G03*
X257079088Y-131992131I-1710000J0D01*
G01*
X256119089Y-131559118D02*
G75*
G02*
X256119088Y-132425144I-750001J-433013D01*
G01*
X254619087Y-132425144D02*
G75*
G02*
X254619088Y-131559118I750001J433013D01*
G01*
X256119088Y-132425143D02*
G75*
G02*
X255369088Y-132858156I-750000J433012D01*
G01*
X255369088Y-131126105D02*
G75*
G02*
X256119088Y-131559118I0J-866026D01*
G01*
X254619088Y-131559119D02*
G75*
G02*
X255369088Y-131126106I750000J-433012D01*
G01*
X255369088Y-132858157D02*
G75*
G02*
X254619088Y-132425144I0J866026D01*
G01*
X257269088Y-206492131D02*
G75*
G03*
X257269088Y-206492131I-1900000J0D01*
G01*
X257079088Y-206492131D02*
G75*
G03*
X257079088Y-206492131I-1710000J0D01*
G01*
X256119089Y-206059118D02*
G75*
G02*
X256119088Y-206925144I-750001J-433013D01*
G01*
X254619087Y-206925144D02*
G75*
G02*
X254619088Y-206059118I750001J433013D01*
G01*
X256119088Y-206925143D02*
G75*
G02*
X255369088Y-207358156I-750000J433012D01*
G01*
X255369088Y-205626105D02*
G75*
G02*
X256119088Y-206059118I0J-866026D01*
G01*
X255369088Y-207358157D02*
G75*
G02*
X254619088Y-206925144I0J866026D01*
G01*
X254619088Y-206059119D02*
G75*
G02*
X255369088Y-205626106I750000J-433012D01*
G01*
X400017088Y-206492131D02*
G75*
G03*
X400017088Y-206492131I-1900000J0D01*
G01*
X399827088Y-206492131D02*
G75*
G03*
X399827088Y-206492131I-1710000J0D01*
G01*
X398867089Y-206059118D02*
G75*
G02*
X398867088Y-206925144I-750001J-433013D01*
G01*
X397367087Y-206925144D02*
G75*
G02*
X397367088Y-206059118I750001J433013D01*
G01*
X398867088Y-206925143D02*
G75*
G02*
X398117088Y-207358156I-750000J433012D01*
G01*
X463488322Y-205904083D02*
G75*
G02*
X464315470Y-205647517I635766J-588048D01*
G01*
X463296940Y-206748696D02*
G75*
G02*
X463488322Y-205904082I827148J256565D01*
G01*
X467299073Y-127742131D02*
X467299073Y-158742131D01*
X146149087Y-145742131D02*
X146149087Y-127742131D01*
X146149088Y-145742131D02*
G75*
G02*
X144149088Y-147742131I-2000000J0D01*
G01*
X139799088Y-147742131D02*
X144149088Y-147742131D01*
X139799088Y-210742131D02*
X139799088Y-147742131D01*
X467299073Y-210742131D02*
X139799088Y-210742131D01*
X144874088Y-206492131D02*
G75*
G03*
X144874088Y-206492131I-1900000J0D01*
G01*
X144684088Y-206492131D02*
G75*
G03*
X144684088Y-206492131I-1710000J0D01*
G01*
X142255076Y-206974855D02*
G75*
G02*
X142196531Y-206110810I719012J482724D01*
G01*
X143693100Y-206009408D02*
G75*
G02*
X143751644Y-206873452I-719012J-482723D01*
G01*
X143751644Y-206873451D02*
G75*
G02*
X143032633Y-207356175I-777556J381320D01*
G01*
X142915542Y-205628087D02*
G75*
G02*
X143693099Y-206009407I58546J-864044D01*
G01*
X143032633Y-207356176D02*
G75*
G02*
X142255076Y-206974855I-58545J864045D01*
G01*
X142196532Y-206110811D02*
G75*
G02*
X142915543Y-205628087I777556J-381320D01*
G01*
X466024088Y-206492131D02*
G75*
G03*
X466024088Y-206492131I-1900000J0D01*
G01*
X465834088Y-206492131D02*
G75*
G03*
X465834088Y-206492131I-1710000J0D01*
G01*
X463932705Y-207336746D02*
G75*
G02*
X463296939Y-206748696I191383J844615D01*
G01*
X464315470Y-205647517D02*
G75*
G02*
X464951236Y-206235566I-191382J-844614D01*
G01*
X464951236Y-206235567D02*
G75*
G02*
X464759853Y-207080180I-827148J-256564D01*
G01*
X464759854Y-207080181D02*
G75*
G02*
X463932705Y-207336745I-635766J588050D01*
G01*
X356974088Y-206492131D02*
G75*
G03*
X356974088Y-206492131I-1000000J0D01*
G01*
X356974088Y-131992131D02*
G75*
G03*
X356974088Y-131992131I-1000000J0D01*
G01*
X467299073Y-179742140D02*
X467299073Y-210742131D01*
X467299073Y-179742140D02*
X462949096Y-179742140D01*
X462949088Y-179742139D02*
G75*
G02*
X460949088Y-177742139I0J2000000D01*
G01*
X460949088Y-160742131D02*
G75*
G02*
X462949088Y-158742131I2000000J0D01*
G01*
X467299073Y-158742131D02*
X462949096Y-158742131D01*
D12*
X376500000Y-206350000D02*
X373815000Y-206350000D01*
X373815000Y-206350000D02*
X373815000Y-208270000D01*
X373815000Y-208270000D02*
X376500000Y-208270000D01*
D11*
X452390087Y-203090573D02*
X420390087Y-203090573D01*
X460390087Y-195090573D02*
X452390087Y-203090573D01*
X452390087Y-134090573D02*
X460390087Y-142090573D01*
X420390087Y-134090573D02*
X452390087Y-134090573D01*
X460390087Y-142090573D02*
X460390087Y-195090573D01*
X420390087Y-203090573D02*
X420390087Y-134090573D01*
X376020087Y-203350573D02*
X376020087Y-134350573D01*
X416020087Y-142350573D02*
X416020087Y-195350573D01*
X376020087Y-134350573D02*
X408020087Y-134350573D01*
X408020087Y-134350573D02*
X416020087Y-142350573D01*
X416020087Y-195350573D02*
X408020087Y-203350573D01*
X408020087Y-203350573D02*
X376020087Y-203350573D01*
X331570087Y-203350573D02*
X331570087Y-134350573D01*
X371570087Y-142350573D02*
X371570087Y-195350573D01*
X331570087Y-134350573D02*
X363570087Y-134350573D01*
X363570087Y-134350573D02*
X371570087Y-142350573D01*
X371570087Y-195350573D02*
X363570087Y-203350573D01*
X363570087Y-203350573D02*
X331570087Y-203350573D01*
X319120087Y-203350573D02*
X287120087Y-203350573D01*
X327120087Y-195350573D02*
X319120087Y-203350573D01*
X319120087Y-134350573D02*
X327120087Y-142350573D01*
X287120087Y-134350573D02*
X319120087Y-134350573D01*
X327120087Y-142350573D02*
X327120087Y-195350573D01*
X287120087Y-203350573D02*
X287120087Y-134350573D01*
X242670087Y-203350573D02*
X242670087Y-134350573D01*
X282670087Y-142350573D02*
X282670087Y-195350573D01*
X242670087Y-134350573D02*
X274670087Y-134350573D01*
X274670087Y-134350573D02*
X282670087Y-142350573D01*
X282670087Y-195350573D02*
X274670087Y-203350573D01*
X274670087Y-203350573D02*
X242670087Y-203350573D01*
X230220087Y-203350573D02*
X198220087Y-203350573D01*
X238220087Y-195350573D02*
X230220087Y-203350573D01*
X230220087Y-134350573D02*
X238220087Y-142350573D01*
X198220087Y-134350573D02*
X230220087Y-134350573D01*
X238220087Y-142350573D02*
X238220087Y-195350573D01*
X198220087Y-203350573D02*
X198220087Y-134350573D01*
X153770087Y-203350573D02*
X153770087Y-134350573D01*
X193770087Y-142350573D02*
X193770087Y-195350573D01*
X153770087Y-134350573D02*
X185770087Y-134350573D01*
X185770087Y-134350573D02*
X193770087Y-142350573D01*
X193770087Y-195350573D02*
X185770087Y-203350573D01*
X185770087Y-203350573D02*
X153770087Y-203350573D01*
D13*
X374761904Y-206112380D02*
X374761904Y-205112380D01*
X375000000Y-205112380D01*
X375142857Y-205160000D01*
X375238095Y-205255238D01*
X375285714Y-205350476D01*
X375333333Y-205540952D01*
X375333333Y-205683809D01*
X375285714Y-205874285D01*
X375238095Y-205969523D01*
X375142857Y-206064761D01*
X375000000Y-206112380D01*
X374761904Y-206112380D01*
X376285714Y-206112380D02*
X375714285Y-206112380D01*
X376000000Y-206112380D02*
X376000000Y-205112380D01*
X375904761Y-205255238D01*
X375809523Y-205350476D01*
X375714285Y-205398095D01*
X419554761Y-137711904D02*
X419602380Y-137569047D01*
X419602380Y-137330952D01*
X419554761Y-137235714D01*
X419507142Y-137188095D01*
X419411904Y-137140476D01*
X419316666Y-137140476D01*
X419221428Y-137188095D01*
X419173809Y-137235714D01*
X419126190Y-137330952D01*
X419078571Y-137521428D01*
X419030952Y-137616666D01*
X418983333Y-137664285D01*
X418888095Y-137711904D01*
X418792857Y-137711904D01*
X418697619Y-137664285D01*
X418650000Y-137616666D01*
X418602380Y-137521428D01*
X418602380Y-137283333D01*
X418650000Y-137140476D01*
X419507142Y-136140476D02*
X419554761Y-136188095D01*
X419602380Y-136330952D01*
X419602380Y-136426190D01*
X419554761Y-136569047D01*
X419459523Y-136664285D01*
X419364285Y-136711904D01*
X419173809Y-136759523D01*
X419030952Y-136759523D01*
X418840476Y-136711904D01*
X418745238Y-136664285D01*
X418650000Y-136569047D01*
X418602380Y-136426190D01*
X418602380Y-136330952D01*
X418650000Y-136188095D01*
X418697619Y-136140476D01*
X419602380Y-135188095D02*
X419602380Y-135759523D01*
X419602380Y-135473809D02*
X418602380Y-135473809D01*
X418745238Y-135569047D01*
X418840476Y-135664285D01*
X418888095Y-135759523D01*
X375184761Y-137971904D02*
X375232380Y-137829047D01*
X375232380Y-137590952D01*
X375184761Y-137495714D01*
X375137142Y-137448095D01*
X375041904Y-137400476D01*
X374946666Y-137400476D01*
X374851428Y-137448095D01*
X374803809Y-137495714D01*
X374756190Y-137590952D01*
X374708571Y-137781428D01*
X374660952Y-137876666D01*
X374613333Y-137924285D01*
X374518095Y-137971904D01*
X374422857Y-137971904D01*
X374327619Y-137924285D01*
X374280000Y-137876666D01*
X374232380Y-137781428D01*
X374232380Y-137543333D01*
X374280000Y-137400476D01*
X375137142Y-136400476D02*
X375184761Y-136448095D01*
X375232380Y-136590952D01*
X375232380Y-136686190D01*
X375184761Y-136829047D01*
X375089523Y-136924285D01*
X374994285Y-136971904D01*
X374803809Y-137019523D01*
X374660952Y-137019523D01*
X374470476Y-136971904D01*
X374375238Y-136924285D01*
X374280000Y-136829047D01*
X374232380Y-136686190D01*
X374232380Y-136590952D01*
X374280000Y-136448095D01*
X374327619Y-136400476D01*
X374327619Y-136019523D02*
X374280000Y-135971904D01*
X374232380Y-135876666D01*
X374232380Y-135638571D01*
X374280000Y-135543333D01*
X374327619Y-135495714D01*
X374422857Y-135448095D01*
X374518095Y-135448095D01*
X374660952Y-135495714D01*
X375232380Y-136067142D01*
X375232380Y-135448095D01*
X330734761Y-137971904D02*
X330782380Y-137829047D01*
X330782380Y-137590952D01*
X330734761Y-137495714D01*
X330687142Y-137448095D01*
X330591904Y-137400476D01*
X330496666Y-137400476D01*
X330401428Y-137448095D01*
X330353809Y-137495714D01*
X330306190Y-137590952D01*
X330258571Y-137781428D01*
X330210952Y-137876666D01*
X330163333Y-137924285D01*
X330068095Y-137971904D01*
X329972857Y-137971904D01*
X329877619Y-137924285D01*
X329830000Y-137876666D01*
X329782380Y-137781428D01*
X329782380Y-137543333D01*
X329830000Y-137400476D01*
X330687142Y-136400476D02*
X330734761Y-136448095D01*
X330782380Y-136590952D01*
X330782380Y-136686190D01*
X330734761Y-136829047D01*
X330639523Y-136924285D01*
X330544285Y-136971904D01*
X330353809Y-137019523D01*
X330210952Y-137019523D01*
X330020476Y-136971904D01*
X329925238Y-136924285D01*
X329830000Y-136829047D01*
X329782380Y-136686190D01*
X329782380Y-136590952D01*
X329830000Y-136448095D01*
X329877619Y-136400476D01*
X329782380Y-136067142D02*
X329782380Y-135448095D01*
X330163333Y-135781428D01*
X330163333Y-135638571D01*
X330210952Y-135543333D01*
X330258571Y-135495714D01*
X330353809Y-135448095D01*
X330591904Y-135448095D01*
X330687142Y-135495714D01*
X330734761Y-135543333D01*
X330782380Y-135638571D01*
X330782380Y-135924285D01*
X330734761Y-136019523D01*
X330687142Y-136067142D01*
X286284761Y-137971904D02*
X286332380Y-137829047D01*
X286332380Y-137590952D01*
X286284761Y-137495714D01*
X286237142Y-137448095D01*
X286141904Y-137400476D01*
X286046666Y-137400476D01*
X285951428Y-137448095D01*
X285903809Y-137495714D01*
X285856190Y-137590952D01*
X285808571Y-137781428D01*
X285760952Y-137876666D01*
X285713333Y-137924285D01*
X285618095Y-137971904D01*
X285522857Y-137971904D01*
X285427619Y-137924285D01*
X285380000Y-137876666D01*
X285332380Y-137781428D01*
X285332380Y-137543333D01*
X285380000Y-137400476D01*
X286237142Y-136400476D02*
X286284761Y-136448095D01*
X286332380Y-136590952D01*
X286332380Y-136686190D01*
X286284761Y-136829047D01*
X286189523Y-136924285D01*
X286094285Y-136971904D01*
X285903809Y-137019523D01*
X285760952Y-137019523D01*
X285570476Y-136971904D01*
X285475238Y-136924285D01*
X285380000Y-136829047D01*
X285332380Y-136686190D01*
X285332380Y-136590952D01*
X285380000Y-136448095D01*
X285427619Y-136400476D01*
X285665714Y-135543333D02*
X286332380Y-135543333D01*
X285284761Y-135781428D02*
X285999047Y-136019523D01*
X285999047Y-135400476D01*
X241834761Y-137971904D02*
X241882380Y-137829047D01*
X241882380Y-137590952D01*
X241834761Y-137495714D01*
X241787142Y-137448095D01*
X241691904Y-137400476D01*
X241596666Y-137400476D01*
X241501428Y-137448095D01*
X241453809Y-137495714D01*
X241406190Y-137590952D01*
X241358571Y-137781428D01*
X241310952Y-137876666D01*
X241263333Y-137924285D01*
X241168095Y-137971904D01*
X241072857Y-137971904D01*
X240977619Y-137924285D01*
X240930000Y-137876666D01*
X240882380Y-137781428D01*
X240882380Y-137543333D01*
X240930000Y-137400476D01*
X241787142Y-136400476D02*
X241834761Y-136448095D01*
X241882380Y-136590952D01*
X241882380Y-136686190D01*
X241834761Y-136829047D01*
X241739523Y-136924285D01*
X241644285Y-136971904D01*
X241453809Y-137019523D01*
X241310952Y-137019523D01*
X241120476Y-136971904D01*
X241025238Y-136924285D01*
X240930000Y-136829047D01*
X240882380Y-136686190D01*
X240882380Y-136590952D01*
X240930000Y-136448095D01*
X240977619Y-136400476D01*
X240882380Y-135495714D02*
X240882380Y-135971904D01*
X241358571Y-136019523D01*
X241310952Y-135971904D01*
X241263333Y-135876666D01*
X241263333Y-135638571D01*
X241310952Y-135543333D01*
X241358571Y-135495714D01*
X241453809Y-135448095D01*
X241691904Y-135448095D01*
X241787142Y-135495714D01*
X241834761Y-135543333D01*
X241882380Y-135638571D01*
X241882380Y-135876666D01*
X241834761Y-135971904D01*
X241787142Y-136019523D01*
X197384761Y-137971904D02*
X197432380Y-137829047D01*
X197432380Y-137590952D01*
X197384761Y-137495714D01*
X197337142Y-137448095D01*
X197241904Y-137400476D01*
X197146666Y-137400476D01*
X197051428Y-137448095D01*
X197003809Y-137495714D01*
X196956190Y-137590952D01*
X196908571Y-137781428D01*
X196860952Y-137876666D01*
X196813333Y-137924285D01*
X196718095Y-137971904D01*
X196622857Y-137971904D01*
X196527619Y-137924285D01*
X196480000Y-137876666D01*
X196432380Y-137781428D01*
X196432380Y-137543333D01*
X196480000Y-137400476D01*
X197337142Y-136400476D02*
X197384761Y-136448095D01*
X197432380Y-136590952D01*
X197432380Y-136686190D01*
X197384761Y-136829047D01*
X197289523Y-136924285D01*
X197194285Y-136971904D01*
X197003809Y-137019523D01*
X196860952Y-137019523D01*
X196670476Y-136971904D01*
X196575238Y-136924285D01*
X196480000Y-136829047D01*
X196432380Y-136686190D01*
X196432380Y-136590952D01*
X196480000Y-136448095D01*
X196527619Y-136400476D01*
X196432380Y-135543333D02*
X196432380Y-135733809D01*
X196480000Y-135829047D01*
X196527619Y-135876666D01*
X196670476Y-135971904D01*
X196860952Y-136019523D01*
X197241904Y-136019523D01*
X197337142Y-135971904D01*
X197384761Y-135924285D01*
X197432380Y-135829047D01*
X197432380Y-135638571D01*
X197384761Y-135543333D01*
X197337142Y-135495714D01*
X197241904Y-135448095D01*
X197003809Y-135448095D01*
X196908571Y-135495714D01*
X196860952Y-135543333D01*
X196813333Y-135638571D01*
X196813333Y-135829047D01*
X196860952Y-135924285D01*
X196908571Y-135971904D01*
X197003809Y-136019523D01*
X152934761Y-137971904D02*
X152982380Y-137829047D01*
X152982380Y-137590952D01*
X152934761Y-137495714D01*
X152887142Y-137448095D01*
X152791904Y-137400476D01*
X152696666Y-137400476D01*
X152601428Y-137448095D01*
X152553809Y-137495714D01*
X152506190Y-137590952D01*
X152458571Y-137781428D01*
X152410952Y-137876666D01*
X152363333Y-137924285D01*
X152268095Y-137971904D01*
X152172857Y-137971904D01*
X152077619Y-137924285D01*
X152030000Y-137876666D01*
X151982380Y-137781428D01*
X151982380Y-137543333D01*
X152030000Y-137400476D01*
X152887142Y-136400476D02*
X152934761Y-136448095D01*
X152982380Y-136590952D01*
X152982380Y-136686190D01*
X152934761Y-136829047D01*
X152839523Y-136924285D01*
X152744285Y-136971904D01*
X152553809Y-137019523D01*
X152410952Y-137019523D01*
X152220476Y-136971904D01*
X152125238Y-136924285D01*
X152030000Y-136829047D01*
X151982380Y-136686190D01*
X151982380Y-136590952D01*
X152030000Y-136448095D01*
X152077619Y-136400476D01*
X151982380Y-136067142D02*
X151982380Y-135400476D01*
X152982380Y-135829047D01*
M02*
