G04 #@! TF.GenerationSoftware,KiCad,Pcbnew,(6.0.4-0)*
G04 #@! TF.CreationDate,2022-06-29T10:25:00-05:00*
G04 #@! TF.ProjectId,X+,582b2e6b-6963-4616-945f-706362585858,4*
G04 #@! TF.SameCoordinates,Original*
G04 #@! TF.FileFunction,Copper,L1,Top*
G04 #@! TF.FilePolarity,Positive*
%FSLAX46Y46*%
G04 Gerber Fmt 4.6, Leading zero omitted, Abs format (unit mm)*
G04 Created by KiCad (PCBNEW (6.0.4-0)) date 2022-06-29 10:25:00*
%MOMM*%
%LPD*%
G01*
G04 APERTURE LIST*
G04 Aperture macros list*
%AMRoundRect*
0 Rectangle with rounded corners*
0 $1 Rounding radius*
0 $2 $3 $4 $5 $6 $7 $8 $9 X,Y pos of 4 corners*
0 Add a 4 corners polygon primitive as box body*
4,1,4,$2,$3,$4,$5,$6,$7,$8,$9,$2,$3,0*
0 Add four circle primitives for the rounded corners*
1,1,$1+$1,$2,$3*
1,1,$1+$1,$4,$5*
1,1,$1+$1,$6,$7*
1,1,$1+$1,$8,$9*
0 Add four rect primitives between the rounded corners*
20,1,$1+$1,$2,$3,$4,$5,0*
20,1,$1+$1,$4,$5,$6,$7,0*
20,1,$1+$1,$6,$7,$8,$9,0*
20,1,$1+$1,$8,$9,$2,$3,0*%
G04 Aperture macros list end*
G04 #@! TA.AperFunction,SMDPad,CuDef*
%ADD10RoundRect,0.243750X0.243750X0.456250X-0.243750X0.456250X-0.243750X-0.456250X0.243750X-0.456250X0*%
G04 #@! TD*
G04 #@! TA.AperFunction,SMDPad,CuDef*
%ADD11R,25.400000X58.420000*%
G04 #@! TD*
G04 #@! TA.AperFunction,SMDPad,CuDef*
%ADD12R,2.500000X2.500000*%
G04 #@! TD*
G04 #@! TA.AperFunction,ViaPad*
%ADD13C,0.800000*%
G04 #@! TD*
G04 #@! TA.AperFunction,Conductor*
%ADD14C,0.250000*%
G04 #@! TD*
G04 APERTURE END LIST*
D10*
X417497500Y-203200000D03*
X415622500Y-203200000D03*
D11*
X439420000Y-168910000D03*
D12*
X418920000Y-188660000D03*
X418920000Y-149660000D03*
X418920000Y-193660000D03*
X418920000Y-144660000D03*
X418920000Y-167060000D03*
X418920000Y-171060000D03*
D11*
X396240000Y-168910000D03*
D12*
X375740000Y-144660000D03*
X375740000Y-149660000D03*
X375740000Y-193660000D03*
X375740000Y-188660000D03*
X375740000Y-171060000D03*
X375740000Y-167060000D03*
D11*
X353060000Y-168910000D03*
D12*
X332560000Y-188660000D03*
X332560000Y-149660000D03*
X332560000Y-193660000D03*
X332560000Y-144660000D03*
X332560000Y-171060000D03*
X332560000Y-167060000D03*
D11*
X307340000Y-168910000D03*
D12*
X286840000Y-193660000D03*
X286840000Y-149660000D03*
X286840000Y-144660000D03*
X286840000Y-188660000D03*
X286840000Y-167060000D03*
X286840000Y-171060000D03*
D11*
X261620000Y-168910000D03*
D12*
X241120000Y-144660000D03*
X241120000Y-188660000D03*
X241120000Y-193660000D03*
X241120000Y-149660000D03*
X241120000Y-167060000D03*
X241120000Y-171060000D03*
D11*
X215900000Y-167640000D03*
D12*
X195400000Y-192390000D03*
X195400000Y-148390000D03*
X195400000Y-143390000D03*
X195400000Y-187390000D03*
X195400000Y-169790000D03*
X195400000Y-165790000D03*
D11*
X170180000Y-167640000D03*
D12*
X149680000Y-187390000D03*
X149680000Y-192390000D03*
X149680000Y-143390000D03*
X149680000Y-148390000D03*
X149680000Y-165790000D03*
X149680000Y-169790000D03*
D13*
X329500000Y-188600000D03*
X192200000Y-187400000D03*
X284200000Y-144700000D03*
X375700000Y-185600000D03*
X375700000Y-141600000D03*
X192400000Y-143400000D03*
X149700000Y-139600000D03*
X238100000Y-188700000D03*
X283500000Y-188600000D03*
X238200000Y-144700000D03*
X419000000Y-197000000D03*
X149600000Y-183100000D03*
X423000000Y-149900000D03*
X329500000Y-144600000D03*
X423000000Y-155500000D03*
X417500000Y-200000000D03*
X415700000Y-198400000D03*
D14*
X375740000Y-141640000D02*
X375700000Y-141600000D01*
X284240000Y-144660000D02*
X284200000Y-144700000D01*
X149680000Y-143390000D02*
X149680000Y-139620000D01*
X286840000Y-144660000D02*
X284240000Y-144660000D01*
X241120000Y-188660000D02*
X238140000Y-188660000D01*
X192410000Y-143390000D02*
X192400000Y-143400000D01*
X286840000Y-188660000D02*
X286840000Y-193660000D01*
X195400000Y-143390000D02*
X195400000Y-148390000D01*
X375740000Y-188660000D02*
X375740000Y-185640000D01*
X375740000Y-144660000D02*
X375740000Y-141640000D01*
X149680000Y-139620000D02*
X149700000Y-139600000D01*
X422760000Y-149660000D02*
X423000000Y-149900000D01*
X195400000Y-143390000D02*
X192410000Y-143390000D01*
X149680000Y-187390000D02*
X149680000Y-183180000D01*
X418920000Y-144660000D02*
X418920000Y-149660000D01*
X329560000Y-144660000D02*
X329500000Y-144600000D01*
X241120000Y-144660000D02*
X238240000Y-144660000D01*
X332560000Y-144660000D02*
X332560000Y-149660000D01*
X238140000Y-188660000D02*
X238100000Y-188700000D01*
X375740000Y-188660000D02*
X375740000Y-193660000D01*
X286840000Y-188660000D02*
X283560000Y-188660000D01*
X329560000Y-188660000D02*
X329500000Y-188600000D01*
X418920000Y-196920000D02*
X419000000Y-197000000D01*
X241120000Y-144660000D02*
X241120000Y-149660000D01*
X375740000Y-185640000D02*
X375700000Y-185600000D01*
X238240000Y-144660000D02*
X238200000Y-144700000D01*
X195400000Y-187390000D02*
X195400000Y-192390000D01*
X192210000Y-187390000D02*
X192200000Y-187400000D01*
X332560000Y-188660000D02*
X332560000Y-193660000D01*
X241120000Y-188660000D02*
X241120000Y-193660000D01*
X286840000Y-144660000D02*
X286840000Y-149660000D01*
X332560000Y-188660000D02*
X329560000Y-188660000D01*
X149680000Y-143390000D02*
X149680000Y-148390000D01*
X149680000Y-183180000D02*
X149600000Y-183100000D01*
X283560000Y-188660000D02*
X283500000Y-188600000D01*
X195400000Y-187390000D02*
X192210000Y-187390000D01*
X375740000Y-144660000D02*
X375740000Y-149660000D01*
X418920000Y-188660000D02*
X418920000Y-193660000D01*
X332560000Y-144660000D02*
X329560000Y-144660000D01*
X418920000Y-193660000D02*
X418920000Y-196920000D01*
X418920000Y-149660000D02*
X422760000Y-149660000D01*
X149680000Y-187390000D02*
X149680000Y-192390000D01*
X417500000Y-200000000D02*
X417500000Y-203197500D01*
X417500000Y-203197500D02*
X417497500Y-203200000D01*
X415700000Y-198400000D02*
X415700000Y-203122500D01*
X415700000Y-203122500D02*
X415622500Y-203200000D01*
G04 #@! TA.AperFunction,Conductor*
G36*
X445733621Y-128290002D02*
G01*
X445780114Y-128343658D01*
X445791500Y-128396000D01*
X445791500Y-133741377D01*
X445791498Y-133742147D01*
X445791024Y-133819721D01*
X445793491Y-133828352D01*
X445799150Y-133848153D01*
X445802728Y-133864915D01*
X445806920Y-133894187D01*
X445810634Y-133902355D01*
X445810634Y-133902356D01*
X445817548Y-133917562D01*
X445823996Y-133935086D01*
X445831051Y-133959771D01*
X445835843Y-133967365D01*
X445835844Y-133967368D01*
X445846830Y-133984780D01*
X445854969Y-133999863D01*
X445867208Y-134026782D01*
X445873069Y-134033584D01*
X445883970Y-134046235D01*
X445895073Y-134061239D01*
X445908776Y-134082958D01*
X445915501Y-134088897D01*
X445915504Y-134088901D01*
X445930938Y-134102532D01*
X445942982Y-134114724D01*
X445956427Y-134130327D01*
X445956430Y-134130329D01*
X445962287Y-134137127D01*
X445969816Y-134142007D01*
X445969817Y-134142008D01*
X445983835Y-134151094D01*
X445998709Y-134162385D01*
X446011217Y-134173431D01*
X446017951Y-134179378D01*
X446044711Y-134191942D01*
X446059691Y-134200263D01*
X446076983Y-134211471D01*
X446076988Y-134211473D01*
X446084515Y-134216352D01*
X446093108Y-134218922D01*
X446093113Y-134218924D01*
X446109120Y-134223711D01*
X446126564Y-134230372D01*
X446141676Y-134237467D01*
X446141678Y-134237468D01*
X446149800Y-134241281D01*
X446158667Y-134242662D01*
X446158668Y-134242662D01*
X446161353Y-134243080D01*
X446179017Y-134245830D01*
X446195732Y-134249613D01*
X446215466Y-134255515D01*
X446215472Y-134255516D01*
X446224066Y-134258086D01*
X446233037Y-134258141D01*
X446233038Y-134258141D01*
X446243097Y-134258202D01*
X446258506Y-134258296D01*
X446259289Y-134258329D01*
X446260386Y-134258500D01*
X446291377Y-134258500D01*
X446292147Y-134258502D01*
X446365785Y-134258952D01*
X446365786Y-134258952D01*
X446369721Y-134258976D01*
X446371065Y-134258592D01*
X446372410Y-134258500D01*
X457291377Y-134258500D01*
X457292148Y-134258502D01*
X457369721Y-134258976D01*
X457398152Y-134250850D01*
X457414915Y-134247272D01*
X457415753Y-134247152D01*
X457444187Y-134243080D01*
X457467564Y-134232451D01*
X457485087Y-134226004D01*
X457509771Y-134218949D01*
X457517365Y-134214157D01*
X457517368Y-134214156D01*
X457534780Y-134203170D01*
X457549865Y-134195030D01*
X457576782Y-134182792D01*
X457596235Y-134166030D01*
X457611239Y-134154927D01*
X457632958Y-134141224D01*
X457638897Y-134134499D01*
X457638901Y-134134496D01*
X457652532Y-134119062D01*
X457664724Y-134107018D01*
X457680327Y-134093573D01*
X457680329Y-134093570D01*
X457687127Y-134087713D01*
X457701094Y-134066165D01*
X457712385Y-134051291D01*
X457723431Y-134038783D01*
X457723432Y-134038782D01*
X457729378Y-134032049D01*
X457741943Y-134005287D01*
X457750263Y-133990309D01*
X457761471Y-133973017D01*
X457761473Y-133973012D01*
X457766352Y-133965485D01*
X457768922Y-133956892D01*
X457768924Y-133956887D01*
X457773711Y-133940880D01*
X457780372Y-133923436D01*
X457787467Y-133908324D01*
X457787468Y-133908322D01*
X457791281Y-133900200D01*
X457795830Y-133870983D01*
X457799613Y-133854268D01*
X457805515Y-133834534D01*
X457805516Y-133834528D01*
X457808086Y-133825934D01*
X457808296Y-133791494D01*
X457808329Y-133790711D01*
X457808500Y-133789614D01*
X457808500Y-133758623D01*
X457808502Y-133757853D01*
X457808952Y-133684215D01*
X457808952Y-133684214D01*
X457808976Y-133680279D01*
X457808592Y-133678935D01*
X457808500Y-133677590D01*
X457808500Y-132010000D01*
X462631832Y-132010000D01*
X462650523Y-132247494D01*
X462651677Y-132252301D01*
X462651678Y-132252307D01*
X462684524Y-132389121D01*
X462706136Y-132479140D01*
X462708029Y-132483711D01*
X462708030Y-132483713D01*
X462774697Y-132644660D01*
X462797302Y-132699234D01*
X462921776Y-132902357D01*
X463076493Y-133083507D01*
X463257643Y-133238224D01*
X463460766Y-133362698D01*
X463465336Y-133364591D01*
X463465340Y-133364593D01*
X463676287Y-133451970D01*
X463680860Y-133453864D01*
X463760969Y-133473096D01*
X463907693Y-133508322D01*
X463907699Y-133508323D01*
X463912506Y-133509477D01*
X464150000Y-133528168D01*
X464387494Y-133509477D01*
X464392301Y-133508323D01*
X464392307Y-133508322D01*
X464539031Y-133473096D01*
X464619140Y-133453864D01*
X464623713Y-133451970D01*
X464834660Y-133364593D01*
X464834664Y-133364591D01*
X464839234Y-133362698D01*
X465042357Y-133238224D01*
X465223507Y-133083507D01*
X465378224Y-132902357D01*
X465502698Y-132699234D01*
X465525304Y-132644660D01*
X465591970Y-132483713D01*
X465591971Y-132483711D01*
X465593864Y-132479140D01*
X465615476Y-132389121D01*
X465648322Y-132252307D01*
X465648323Y-132252301D01*
X465649477Y-132247494D01*
X465668168Y-132010000D01*
X465649477Y-131772506D01*
X465642759Y-131744521D01*
X465599106Y-131562694D01*
X465593864Y-131540860D01*
X465580791Y-131509299D01*
X465504593Y-131325340D01*
X465504591Y-131325336D01*
X465502698Y-131320766D01*
X465378224Y-131117643D01*
X465223507Y-130936493D01*
X465042357Y-130781776D01*
X464839234Y-130657302D01*
X464834664Y-130655409D01*
X464834660Y-130655407D01*
X464623713Y-130568030D01*
X464623711Y-130568029D01*
X464619140Y-130566136D01*
X464539031Y-130546904D01*
X464392307Y-130511678D01*
X464392301Y-130511677D01*
X464387494Y-130510523D01*
X464150000Y-130491832D01*
X463912506Y-130510523D01*
X463907699Y-130511677D01*
X463907693Y-130511678D01*
X463760969Y-130546904D01*
X463680860Y-130566136D01*
X463676289Y-130568029D01*
X463676287Y-130568030D01*
X463465340Y-130655407D01*
X463465336Y-130655409D01*
X463460766Y-130657302D01*
X463257643Y-130781776D01*
X463076493Y-130936493D01*
X462921776Y-131117643D01*
X462797302Y-131320766D01*
X462795409Y-131325336D01*
X462795407Y-131325340D01*
X462719209Y-131509299D01*
X462706136Y-131540860D01*
X462700894Y-131562694D01*
X462657242Y-131744521D01*
X462650523Y-131772506D01*
X462632309Y-132003934D01*
X462631832Y-132010000D01*
X457808500Y-132010000D01*
X457808500Y-128396000D01*
X457828502Y-128327879D01*
X457882158Y-128281386D01*
X457934500Y-128270000D01*
X466599000Y-128270000D01*
X466667121Y-128290002D01*
X466713614Y-128343658D01*
X466725000Y-128396000D01*
X466725000Y-158125500D01*
X466704998Y-158193621D01*
X466651342Y-158240114D01*
X466599000Y-158251500D01*
X462953250Y-158251500D01*
X462932345Y-158249754D01*
X462917344Y-158247230D01*
X462917341Y-158247230D01*
X462912552Y-158246424D01*
X462906555Y-158246351D01*
X462904868Y-158246330D01*
X462904864Y-158246330D01*
X462900000Y-158246271D01*
X462895174Y-158246962D01*
X462893991Y-158247039D01*
X462885973Y-158247854D01*
X462606917Y-158264734D01*
X462606913Y-158264735D01*
X462603119Y-158264964D01*
X462492087Y-158285311D01*
X462314319Y-158317888D01*
X462314312Y-158317890D01*
X462310567Y-158318576D01*
X462026610Y-158407061D01*
X461755390Y-158529127D01*
X461752133Y-158531096D01*
X461752129Y-158531098D01*
X461565837Y-158643716D01*
X461500860Y-158682996D01*
X461497872Y-158685337D01*
X461497869Y-158685339D01*
X461352008Y-158799614D01*
X461266733Y-158866423D01*
X461056423Y-159076733D01*
X461054073Y-159079733D01*
X461054070Y-159079736D01*
X460918264Y-159253080D01*
X460872996Y-159310860D01*
X460719127Y-159565390D01*
X460597061Y-159836610D01*
X460508576Y-160120567D01*
X460454964Y-160413119D01*
X460454735Y-160416911D01*
X460454734Y-160416916D01*
X460438428Y-160686496D01*
X460437712Y-160693136D01*
X460437710Y-160693284D01*
X460437873Y-160693680D01*
X460436309Y-160703724D01*
X460437045Y-160709353D01*
X460437006Y-160710000D01*
X460437130Y-160710000D01*
X460438183Y-160718053D01*
X460440436Y-160735283D01*
X460441500Y-160751620D01*
X460441500Y-177760633D01*
X460440000Y-177780018D01*
X460436309Y-177803724D01*
X460437130Y-177810000D01*
X460437006Y-177810000D01*
X460454964Y-178106881D01*
X460508576Y-178399433D01*
X460597061Y-178683390D01*
X460719127Y-178954610D01*
X460872996Y-179209140D01*
X460875337Y-179212128D01*
X460875339Y-179212131D01*
X461054070Y-179440264D01*
X461056423Y-179443267D01*
X461266733Y-179653577D01*
X461269733Y-179655927D01*
X461269736Y-179655930D01*
X461413013Y-179768180D01*
X461500860Y-179837004D01*
X461504114Y-179838971D01*
X461752129Y-179988902D01*
X461752133Y-179988904D01*
X461755390Y-179990873D01*
X462026610Y-180112939D01*
X462310567Y-180201424D01*
X462314312Y-180202110D01*
X462314319Y-180202112D01*
X462492087Y-180234689D01*
X462603119Y-180255036D01*
X462606913Y-180255265D01*
X462606917Y-180255266D01*
X462868314Y-180271078D01*
X462881595Y-180272591D01*
X462887448Y-180273576D01*
X462893793Y-180273653D01*
X462895140Y-180273670D01*
X462895143Y-180273670D01*
X462900000Y-180273729D01*
X462927624Y-180269773D01*
X462945486Y-180268500D01*
X466599000Y-180268500D01*
X466667121Y-180288502D01*
X466713614Y-180342158D01*
X466725000Y-180394500D01*
X466725000Y-210059000D01*
X466704998Y-210127121D01*
X466651342Y-210173614D01*
X466599000Y-210185000D01*
X146811000Y-210185000D01*
X146742879Y-210164998D01*
X146696386Y-210111342D01*
X146685000Y-210059000D01*
X146685000Y-206510000D01*
X253831832Y-206510000D01*
X253850523Y-206747494D01*
X253851677Y-206752301D01*
X253851678Y-206752307D01*
X253885215Y-206891998D01*
X253906136Y-206979140D01*
X253908029Y-206983711D01*
X253908030Y-206983713D01*
X253974697Y-207144660D01*
X253997302Y-207199234D01*
X254121776Y-207402357D01*
X254276493Y-207583507D01*
X254457643Y-207738224D01*
X254660766Y-207862698D01*
X254665336Y-207864591D01*
X254665340Y-207864593D01*
X254876287Y-207951970D01*
X254880860Y-207953864D01*
X254960969Y-207973096D01*
X255107693Y-208008322D01*
X255107699Y-208008323D01*
X255112506Y-208009477D01*
X255350000Y-208028168D01*
X255587494Y-208009477D01*
X255592301Y-208008323D01*
X255592307Y-208008322D01*
X255739031Y-207973096D01*
X255819140Y-207953864D01*
X255823713Y-207951970D01*
X256034660Y-207864593D01*
X256034664Y-207864591D01*
X256039234Y-207862698D01*
X256242357Y-207738224D01*
X256423507Y-207583507D01*
X256578224Y-207402357D01*
X256702698Y-207199234D01*
X256725304Y-207144660D01*
X256791970Y-206983713D01*
X256791971Y-206983711D01*
X256793864Y-206979140D01*
X256814785Y-206891998D01*
X256848322Y-206752307D01*
X256848323Y-206752301D01*
X256849477Y-206747494D01*
X256868168Y-206510000D01*
X256864233Y-206460000D01*
X354485583Y-206460000D01*
X354485971Y-206464930D01*
X354485971Y-206464933D01*
X354489041Y-206503934D01*
X354504228Y-206696907D01*
X354505382Y-206701714D01*
X354505383Y-206701720D01*
X354536210Y-206830120D01*
X354559704Y-206927981D01*
X354561597Y-206932552D01*
X354561598Y-206932554D01*
X354578902Y-206974328D01*
X354650645Y-207147531D01*
X354774811Y-207350152D01*
X354929145Y-207530855D01*
X355109848Y-207685189D01*
X355312469Y-207809355D01*
X355317039Y-207811248D01*
X355317043Y-207811250D01*
X355527446Y-207898402D01*
X355527448Y-207898403D01*
X355532019Y-207900296D01*
X355612567Y-207919634D01*
X355758280Y-207954617D01*
X355758286Y-207954618D01*
X355763093Y-207955772D01*
X356000000Y-207974417D01*
X356236907Y-207955772D01*
X356241714Y-207954618D01*
X356241720Y-207954617D01*
X356387433Y-207919634D01*
X356467981Y-207900296D01*
X356472552Y-207898403D01*
X356472554Y-207898402D01*
X356682957Y-207811250D01*
X356682961Y-207811248D01*
X356687531Y-207809355D01*
X356890152Y-207685189D01*
X357070855Y-207530855D01*
X357225189Y-207350152D01*
X357349355Y-207147531D01*
X357421099Y-206974328D01*
X357438402Y-206932554D01*
X357438403Y-206932552D01*
X357440296Y-206927981D01*
X357463790Y-206830120D01*
X357494617Y-206701720D01*
X357494618Y-206701714D01*
X357495772Y-206696907D01*
X357510482Y-206510000D01*
X396581832Y-206510000D01*
X396600523Y-206747494D01*
X396601677Y-206752301D01*
X396601678Y-206752307D01*
X396635215Y-206891998D01*
X396656136Y-206979140D01*
X396658029Y-206983711D01*
X396658030Y-206983713D01*
X396724697Y-207144660D01*
X396747302Y-207199234D01*
X396871776Y-207402357D01*
X397026493Y-207583507D01*
X397207643Y-207738224D01*
X397410766Y-207862698D01*
X397415336Y-207864591D01*
X397415340Y-207864593D01*
X397626287Y-207951970D01*
X397630860Y-207953864D01*
X397710969Y-207973096D01*
X397857693Y-208008322D01*
X397857699Y-208008323D01*
X397862506Y-208009477D01*
X398100000Y-208028168D01*
X398337494Y-208009477D01*
X398342301Y-208008323D01*
X398342307Y-208008322D01*
X398489031Y-207973096D01*
X398569140Y-207953864D01*
X398573713Y-207951970D01*
X398784660Y-207864593D01*
X398784664Y-207864591D01*
X398789234Y-207862698D01*
X398992357Y-207738224D01*
X399173507Y-207583507D01*
X399328224Y-207402357D01*
X399452698Y-207199234D01*
X399475304Y-207144660D01*
X399541970Y-206983713D01*
X399541971Y-206983711D01*
X399543864Y-206979140D01*
X399564785Y-206891998D01*
X399598322Y-206752307D01*
X399598323Y-206752301D01*
X399599477Y-206747494D01*
X399618168Y-206510000D01*
X399614233Y-206460000D01*
X462631832Y-206460000D01*
X462650523Y-206697494D01*
X462651677Y-206702301D01*
X462651678Y-206702307D01*
X462684524Y-206839121D01*
X462706136Y-206929140D01*
X462708029Y-206933711D01*
X462708030Y-206933713D01*
X462736598Y-207002681D01*
X462797302Y-207149234D01*
X462921776Y-207352357D01*
X463076493Y-207533507D01*
X463257643Y-207688224D01*
X463460766Y-207812698D01*
X463465336Y-207814591D01*
X463465340Y-207814593D01*
X463676287Y-207901970D01*
X463680860Y-207903864D01*
X463760969Y-207923096D01*
X463907693Y-207958322D01*
X463907699Y-207958323D01*
X463912506Y-207959477D01*
X464150000Y-207978168D01*
X464387494Y-207959477D01*
X464392301Y-207958323D01*
X464392307Y-207958322D01*
X464539031Y-207923096D01*
X464619140Y-207903864D01*
X464623713Y-207901970D01*
X464834660Y-207814593D01*
X464834664Y-207814591D01*
X464839234Y-207812698D01*
X465042357Y-207688224D01*
X465223507Y-207533507D01*
X465378224Y-207352357D01*
X465502698Y-207149234D01*
X465563403Y-207002681D01*
X465591970Y-206933713D01*
X465591971Y-206933711D01*
X465593864Y-206929140D01*
X465615476Y-206839121D01*
X465648322Y-206702307D01*
X465648323Y-206702301D01*
X465649477Y-206697494D01*
X465668168Y-206460000D01*
X465649477Y-206222506D01*
X465642759Y-206194521D01*
X465599106Y-206012694D01*
X465593864Y-205990860D01*
X465590818Y-205983507D01*
X465504593Y-205775340D01*
X465504591Y-205775336D01*
X465502698Y-205770766D01*
X465378224Y-205567643D01*
X465223507Y-205386493D01*
X465042357Y-205231776D01*
X464839234Y-205107302D01*
X464834664Y-205105409D01*
X464834660Y-205105407D01*
X464623713Y-205018030D01*
X464623711Y-205018029D01*
X464619140Y-205016136D01*
X464517906Y-204991832D01*
X464392307Y-204961678D01*
X464392301Y-204961677D01*
X464387494Y-204960523D01*
X464150000Y-204941832D01*
X463912506Y-204960523D01*
X463907699Y-204961677D01*
X463907693Y-204961678D01*
X463782094Y-204991832D01*
X463680860Y-205016136D01*
X463676289Y-205018029D01*
X463676287Y-205018030D01*
X463465340Y-205105407D01*
X463465336Y-205105409D01*
X463460766Y-205107302D01*
X463257643Y-205231776D01*
X463076493Y-205386493D01*
X462921776Y-205567643D01*
X462797302Y-205770766D01*
X462795409Y-205775336D01*
X462795407Y-205775340D01*
X462709182Y-205983507D01*
X462706136Y-205990860D01*
X462700894Y-206012694D01*
X462657242Y-206194521D01*
X462650523Y-206222506D01*
X462632309Y-206453934D01*
X462631832Y-206460000D01*
X399614233Y-206460000D01*
X399599477Y-206272506D01*
X399597578Y-206264593D01*
X399545019Y-206045672D01*
X399543864Y-206040860D01*
X399530791Y-206009299D01*
X399454593Y-205825340D01*
X399454591Y-205825336D01*
X399452698Y-205820766D01*
X399328224Y-205617643D01*
X399173507Y-205436493D01*
X398992357Y-205281776D01*
X398789234Y-205157302D01*
X398784664Y-205155409D01*
X398784660Y-205155407D01*
X398573713Y-205068030D01*
X398573711Y-205068029D01*
X398569140Y-205066136D01*
X398474916Y-205043515D01*
X398342307Y-205011678D01*
X398342301Y-205011677D01*
X398337494Y-205010523D01*
X398100000Y-204991832D01*
X397862506Y-205010523D01*
X397857699Y-205011677D01*
X397857693Y-205011678D01*
X397725084Y-205043515D01*
X397630860Y-205066136D01*
X397626289Y-205068029D01*
X397626287Y-205068030D01*
X397415340Y-205155407D01*
X397415336Y-205155409D01*
X397410766Y-205157302D01*
X397207643Y-205281776D01*
X397026493Y-205436493D01*
X396871776Y-205617643D01*
X396747302Y-205820766D01*
X396745409Y-205825336D01*
X396745407Y-205825340D01*
X396669209Y-206009299D01*
X396656136Y-206040860D01*
X396654981Y-206045672D01*
X396602423Y-206264593D01*
X396600523Y-206272506D01*
X396582309Y-206503934D01*
X396581832Y-206510000D01*
X357510482Y-206510000D01*
X357514417Y-206460000D01*
X357495772Y-206223093D01*
X357488913Y-206194521D01*
X357459634Y-206072567D01*
X357440296Y-205992019D01*
X357436770Y-205983507D01*
X357351250Y-205777043D01*
X357351248Y-205777039D01*
X357349355Y-205772469D01*
X357225189Y-205569848D01*
X357070855Y-205389145D01*
X356890152Y-205234811D01*
X356687531Y-205110645D01*
X356682961Y-205108752D01*
X356682957Y-205108750D01*
X356472554Y-205021598D01*
X356472552Y-205021597D01*
X356467981Y-205019704D01*
X356351886Y-204991832D01*
X356241720Y-204965383D01*
X356241714Y-204965382D01*
X356236907Y-204964228D01*
X356000000Y-204945583D01*
X355763093Y-204964228D01*
X355758286Y-204965382D01*
X355758280Y-204965383D01*
X355648114Y-204991832D01*
X355532019Y-205019704D01*
X355527448Y-205021597D01*
X355527446Y-205021598D01*
X355317043Y-205108750D01*
X355317039Y-205108752D01*
X355312469Y-205110645D01*
X355109848Y-205234811D01*
X354929145Y-205389145D01*
X354774811Y-205569848D01*
X354650645Y-205772469D01*
X354648752Y-205777039D01*
X354648750Y-205777043D01*
X354563230Y-205983507D01*
X354559704Y-205992019D01*
X354540366Y-206072567D01*
X354511088Y-206194521D01*
X354504228Y-206223093D01*
X354494085Y-206351970D01*
X354486057Y-206453980D01*
X354486055Y-206453980D01*
X354486056Y-206453988D01*
X354485583Y-206460000D01*
X256864233Y-206460000D01*
X256849477Y-206272506D01*
X256847578Y-206264593D01*
X256795019Y-206045672D01*
X256793864Y-206040860D01*
X256780791Y-206009299D01*
X256704593Y-205825340D01*
X256704591Y-205825336D01*
X256702698Y-205820766D01*
X256578224Y-205617643D01*
X256423507Y-205436493D01*
X256242357Y-205281776D01*
X256039234Y-205157302D01*
X256034664Y-205155409D01*
X256034660Y-205155407D01*
X255823713Y-205068030D01*
X255823711Y-205068029D01*
X255819140Y-205066136D01*
X255724916Y-205043515D01*
X255592307Y-205011678D01*
X255592301Y-205011677D01*
X255587494Y-205010523D01*
X255350000Y-204991832D01*
X255112506Y-205010523D01*
X255107699Y-205011677D01*
X255107693Y-205011678D01*
X254975084Y-205043515D01*
X254880860Y-205066136D01*
X254876289Y-205068029D01*
X254876287Y-205068030D01*
X254665340Y-205155407D01*
X254665336Y-205155409D01*
X254660766Y-205157302D01*
X254457643Y-205281776D01*
X254276493Y-205436493D01*
X254121776Y-205617643D01*
X253997302Y-205820766D01*
X253995409Y-205825336D01*
X253995407Y-205825340D01*
X253919209Y-206009299D01*
X253906136Y-206040860D01*
X253904981Y-206045672D01*
X253852423Y-206264593D01*
X253850523Y-206272506D01*
X253832309Y-206503934D01*
X253831832Y-206510000D01*
X146685000Y-206510000D01*
X146685000Y-204910000D01*
X448681832Y-204910000D01*
X448700523Y-205147494D01*
X448701677Y-205152301D01*
X448701678Y-205152307D01*
X448732761Y-205281776D01*
X448756136Y-205379140D01*
X448758029Y-205383711D01*
X448758030Y-205383713D01*
X448836877Y-205574065D01*
X448847302Y-205599234D01*
X448971776Y-205802357D01*
X449126493Y-205983507D01*
X449307643Y-206138224D01*
X449510766Y-206262698D01*
X449515336Y-206264591D01*
X449515340Y-206264593D01*
X449726287Y-206351970D01*
X449730860Y-206353864D01*
X449810969Y-206373096D01*
X449957693Y-206408322D01*
X449957699Y-206408323D01*
X449962506Y-206409477D01*
X450200000Y-206428168D01*
X450437494Y-206409477D01*
X450442301Y-206408323D01*
X450442307Y-206408322D01*
X450589031Y-206373096D01*
X450669140Y-206353864D01*
X450673713Y-206351970D01*
X450884660Y-206264593D01*
X450884664Y-206264591D01*
X450889234Y-206262698D01*
X451092357Y-206138224D01*
X451273507Y-205983507D01*
X451428224Y-205802357D01*
X451552698Y-205599234D01*
X451563124Y-205574065D01*
X451641970Y-205383713D01*
X451641971Y-205383711D01*
X451643864Y-205379140D01*
X451667239Y-205281776D01*
X451698322Y-205152307D01*
X451698323Y-205152301D01*
X451699477Y-205147494D01*
X451718168Y-204910000D01*
X453481832Y-204910000D01*
X453500523Y-205147494D01*
X453501677Y-205152301D01*
X453501678Y-205152307D01*
X453532761Y-205281776D01*
X453556136Y-205379140D01*
X453558029Y-205383711D01*
X453558030Y-205383713D01*
X453636877Y-205574065D01*
X453647302Y-205599234D01*
X453771776Y-205802357D01*
X453926493Y-205983507D01*
X454107643Y-206138224D01*
X454310766Y-206262698D01*
X454315336Y-206264591D01*
X454315340Y-206264593D01*
X454526287Y-206351970D01*
X454530860Y-206353864D01*
X454610969Y-206373096D01*
X454757693Y-206408322D01*
X454757699Y-206408323D01*
X454762506Y-206409477D01*
X455000000Y-206428168D01*
X455237494Y-206409477D01*
X455242301Y-206408323D01*
X455242307Y-206408322D01*
X455389031Y-206373096D01*
X455469140Y-206353864D01*
X455473713Y-206351970D01*
X455684660Y-206264593D01*
X455684664Y-206264591D01*
X455689234Y-206262698D01*
X455892357Y-206138224D01*
X456073507Y-205983507D01*
X456228224Y-205802357D01*
X456352698Y-205599234D01*
X456363124Y-205574065D01*
X456441970Y-205383713D01*
X456441971Y-205383711D01*
X456443864Y-205379140D01*
X456467239Y-205281776D01*
X456498322Y-205152307D01*
X456498323Y-205152301D01*
X456499477Y-205147494D01*
X456518168Y-204910000D01*
X456499477Y-204672506D01*
X456443864Y-204440860D01*
X456425049Y-204395436D01*
X456354593Y-204225340D01*
X456354591Y-204225336D01*
X456352698Y-204220766D01*
X456228224Y-204017643D01*
X456073507Y-203836493D01*
X455892357Y-203681776D01*
X455689234Y-203557302D01*
X455684664Y-203555409D01*
X455684660Y-203555407D01*
X455473713Y-203468030D01*
X455473711Y-203468029D01*
X455469140Y-203466136D01*
X455389031Y-203446904D01*
X455242307Y-203411678D01*
X455242301Y-203411677D01*
X455237494Y-203410523D01*
X455000000Y-203391832D01*
X454762506Y-203410523D01*
X454757699Y-203411677D01*
X454757693Y-203411678D01*
X454610969Y-203446904D01*
X454530860Y-203466136D01*
X454526289Y-203468029D01*
X454526287Y-203468030D01*
X454315340Y-203555407D01*
X454315336Y-203555409D01*
X454310766Y-203557302D01*
X454107643Y-203681776D01*
X453926493Y-203836493D01*
X453771776Y-204017643D01*
X453647302Y-204220766D01*
X453645409Y-204225336D01*
X453645407Y-204225340D01*
X453574951Y-204395436D01*
X453556136Y-204440860D01*
X453500523Y-204672506D01*
X453482309Y-204903934D01*
X453481832Y-204910000D01*
X451718168Y-204910000D01*
X451699477Y-204672506D01*
X451643864Y-204440860D01*
X451625049Y-204395436D01*
X451554593Y-204225340D01*
X451554591Y-204225336D01*
X451552698Y-204220766D01*
X451428224Y-204017643D01*
X451273507Y-203836493D01*
X451092357Y-203681776D01*
X450889234Y-203557302D01*
X450884664Y-203555409D01*
X450884660Y-203555407D01*
X450673713Y-203468030D01*
X450673711Y-203468029D01*
X450669140Y-203466136D01*
X450589031Y-203446904D01*
X450442307Y-203411678D01*
X450442301Y-203411677D01*
X450437494Y-203410523D01*
X450200000Y-203391832D01*
X449962506Y-203410523D01*
X449957699Y-203411677D01*
X449957693Y-203411678D01*
X449810969Y-203446904D01*
X449730860Y-203466136D01*
X449726289Y-203468029D01*
X449726287Y-203468030D01*
X449515340Y-203555407D01*
X449515336Y-203555409D01*
X449510766Y-203557302D01*
X449307643Y-203681776D01*
X449126493Y-203836493D01*
X448971776Y-204017643D01*
X448847302Y-204220766D01*
X448845409Y-204225336D01*
X448845407Y-204225340D01*
X448774951Y-204395436D01*
X448756136Y-204440860D01*
X448700523Y-204672506D01*
X448682309Y-204903934D01*
X448681832Y-204910000D01*
X146685000Y-204910000D01*
X146685000Y-202693769D01*
X414626500Y-202693769D01*
X414626501Y-203706230D01*
X414637384Y-203811129D01*
X414639563Y-203817660D01*
X414639564Y-203817665D01*
X414645846Y-203836493D01*
X414692898Y-203977526D01*
X414785203Y-204126689D01*
X414909347Y-204250617D01*
X415058671Y-204342661D01*
X415065619Y-204344966D01*
X415065620Y-204344966D01*
X415218634Y-204395719D01*
X415218636Y-204395719D01*
X415225165Y-204397885D01*
X415328769Y-204408500D01*
X415620234Y-204408500D01*
X415916230Y-204408499D01*
X416021129Y-204397616D01*
X416027660Y-204395437D01*
X416027665Y-204395436D01*
X416180578Y-204344420D01*
X416187526Y-204342102D01*
X416336689Y-204249797D01*
X416460617Y-204125653D01*
X416462419Y-204122730D01*
X416519029Y-204082592D01*
X416589952Y-204079358D01*
X416651364Y-204114982D01*
X416656916Y-204121378D01*
X416660203Y-204126689D01*
X416784347Y-204250617D01*
X416933671Y-204342661D01*
X416940619Y-204344966D01*
X416940620Y-204344966D01*
X417093634Y-204395719D01*
X417093636Y-204395719D01*
X417100165Y-204397885D01*
X417203769Y-204408500D01*
X417495234Y-204408500D01*
X417791230Y-204408499D01*
X417896129Y-204397616D01*
X417902660Y-204395437D01*
X417902665Y-204395436D01*
X418055578Y-204344420D01*
X418062526Y-204342102D01*
X418211689Y-204249797D01*
X418335617Y-204125653D01*
X418427661Y-203976329D01*
X418482885Y-203809835D01*
X418493500Y-203706231D01*
X418493499Y-202693770D01*
X418482616Y-202588871D01*
X418480437Y-202582340D01*
X418480436Y-202582335D01*
X418429420Y-202429422D01*
X418427102Y-202422474D01*
X418334797Y-202273311D01*
X418210653Y-202149383D01*
X418193385Y-202138739D01*
X418145891Y-202085967D01*
X418133500Y-202031479D01*
X418133500Y-200702524D01*
X418153502Y-200634403D01*
X418165858Y-200618221D01*
X418239040Y-200536944D01*
X418334527Y-200371556D01*
X418393542Y-200189928D01*
X418413504Y-200000000D01*
X418393542Y-199810072D01*
X418334527Y-199628444D01*
X418239040Y-199463056D01*
X418111253Y-199321134D01*
X417956752Y-199208882D01*
X417950724Y-199206198D01*
X417950722Y-199206197D01*
X417788319Y-199133891D01*
X417788318Y-199133891D01*
X417782288Y-199131206D01*
X417688888Y-199111353D01*
X417601944Y-199092872D01*
X417601939Y-199092872D01*
X417595487Y-199091500D01*
X417404513Y-199091500D01*
X417398061Y-199092872D01*
X417398056Y-199092872D01*
X417311113Y-199111353D01*
X417217712Y-199131206D01*
X417211682Y-199133891D01*
X417211681Y-199133891D01*
X417049278Y-199206197D01*
X417049276Y-199206198D01*
X417043248Y-199208882D01*
X416888747Y-199321134D01*
X416760960Y-199463056D01*
X416665473Y-199628444D01*
X416606458Y-199810072D01*
X416586496Y-200000000D01*
X416606458Y-200189928D01*
X416665473Y-200371556D01*
X416760960Y-200536944D01*
X416834137Y-200618215D01*
X416864853Y-200682221D01*
X416866500Y-200702524D01*
X416866500Y-202028522D01*
X416846498Y-202096643D01*
X416806804Y-202135665D01*
X416783311Y-202150203D01*
X416659383Y-202274347D01*
X416657581Y-202277270D01*
X416600971Y-202317408D01*
X416530048Y-202320642D01*
X416468636Y-202285018D01*
X416463084Y-202278622D01*
X416459797Y-202273311D01*
X416370482Y-202184151D01*
X416336403Y-202121868D01*
X416333500Y-202094978D01*
X416333500Y-199102524D01*
X416353502Y-199034403D01*
X416365858Y-199018221D01*
X416439040Y-198936944D01*
X416534527Y-198771556D01*
X416593542Y-198589928D01*
X416596185Y-198564786D01*
X416612814Y-198406565D01*
X416613504Y-198400000D01*
X416593542Y-198210072D01*
X416578790Y-198164669D01*
X426212001Y-198164669D01*
X426212371Y-198171490D01*
X426217895Y-198222352D01*
X426221521Y-198237604D01*
X426266676Y-198358054D01*
X426275214Y-198373649D01*
X426351715Y-198475724D01*
X426364276Y-198488285D01*
X426466351Y-198564786D01*
X426481946Y-198573324D01*
X426602394Y-198618478D01*
X426617649Y-198622105D01*
X426668514Y-198627631D01*
X426675328Y-198628000D01*
X439147885Y-198628000D01*
X439163124Y-198623525D01*
X439164329Y-198622135D01*
X439166000Y-198614452D01*
X439166000Y-198609884D01*
X439674000Y-198609884D01*
X439678475Y-198625123D01*
X439679865Y-198626328D01*
X439687548Y-198627999D01*
X452164669Y-198627999D01*
X452171490Y-198627629D01*
X452222352Y-198622105D01*
X452237604Y-198618479D01*
X452358054Y-198573324D01*
X452373649Y-198564786D01*
X452475724Y-198488285D01*
X452488285Y-198475724D01*
X452564786Y-198373649D01*
X452573324Y-198358054D01*
X452618478Y-198237606D01*
X452622105Y-198222351D01*
X452627631Y-198171486D01*
X452628000Y-198164672D01*
X452628000Y-169182115D01*
X452623525Y-169166876D01*
X452622135Y-169165671D01*
X452614452Y-169164000D01*
X439692115Y-169164000D01*
X439676876Y-169168475D01*
X439675671Y-169169865D01*
X439674000Y-169177548D01*
X439674000Y-198609884D01*
X439166000Y-198609884D01*
X439166000Y-169182115D01*
X439161525Y-169166876D01*
X439160135Y-169165671D01*
X439152452Y-169164000D01*
X426230116Y-169164000D01*
X426214877Y-169168475D01*
X426213672Y-169169865D01*
X426212001Y-169177548D01*
X426212001Y-198164669D01*
X416578790Y-198164669D01*
X416534527Y-198028444D01*
X416439040Y-197863056D01*
X416376685Y-197793803D01*
X416315675Y-197726045D01*
X416315674Y-197726044D01*
X416311253Y-197721134D01*
X416156752Y-197608882D01*
X416150724Y-197606198D01*
X416150722Y-197606197D01*
X415988319Y-197533891D01*
X415988318Y-197533891D01*
X415982288Y-197531206D01*
X415888888Y-197511353D01*
X415801944Y-197492872D01*
X415801939Y-197492872D01*
X415795487Y-197491500D01*
X415604513Y-197491500D01*
X415598061Y-197492872D01*
X415598056Y-197492872D01*
X415511112Y-197511353D01*
X415417712Y-197531206D01*
X415411682Y-197533891D01*
X415411681Y-197533891D01*
X415249278Y-197606197D01*
X415249276Y-197606198D01*
X415243248Y-197608882D01*
X415088747Y-197721134D01*
X415084326Y-197726044D01*
X415084325Y-197726045D01*
X415023316Y-197793803D01*
X414960960Y-197863056D01*
X414865473Y-198028444D01*
X414806458Y-198210072D01*
X414786496Y-198400000D01*
X414787186Y-198406565D01*
X414803816Y-198564786D01*
X414806458Y-198589928D01*
X414865473Y-198771556D01*
X414960960Y-198936944D01*
X415034137Y-199018215D01*
X415064853Y-199082221D01*
X415066500Y-199102524D01*
X415066500Y-201982110D01*
X415046498Y-202050231D01*
X415006803Y-202089254D01*
X414908311Y-202150203D01*
X414784383Y-202274347D01*
X414692339Y-202423671D01*
X414637115Y-202590165D01*
X414626500Y-202693769D01*
X146685000Y-202693769D01*
X146685000Y-198164669D01*
X248412001Y-198164669D01*
X248412371Y-198171490D01*
X248417895Y-198222352D01*
X248421521Y-198237604D01*
X248466676Y-198358054D01*
X248475214Y-198373649D01*
X248551715Y-198475724D01*
X248564276Y-198488285D01*
X248666351Y-198564786D01*
X248681946Y-198573324D01*
X248802394Y-198618478D01*
X248817649Y-198622105D01*
X248868514Y-198627631D01*
X248875328Y-198628000D01*
X261347885Y-198628000D01*
X261363124Y-198623525D01*
X261364329Y-198622135D01*
X261366000Y-198614452D01*
X261366000Y-198609884D01*
X261874000Y-198609884D01*
X261878475Y-198625123D01*
X261879865Y-198626328D01*
X261887548Y-198627999D01*
X274364669Y-198627999D01*
X274371490Y-198627629D01*
X274422352Y-198622105D01*
X274437604Y-198618479D01*
X274558054Y-198573324D01*
X274573649Y-198564786D01*
X274675724Y-198488285D01*
X274688285Y-198475724D01*
X274764786Y-198373649D01*
X274773324Y-198358054D01*
X274818478Y-198237606D01*
X274822105Y-198222351D01*
X274827631Y-198171486D01*
X274828000Y-198164672D01*
X274828000Y-198164669D01*
X294132001Y-198164669D01*
X294132371Y-198171490D01*
X294137895Y-198222352D01*
X294141521Y-198237604D01*
X294186676Y-198358054D01*
X294195214Y-198373649D01*
X294271715Y-198475724D01*
X294284276Y-198488285D01*
X294386351Y-198564786D01*
X294401946Y-198573324D01*
X294522394Y-198618478D01*
X294537649Y-198622105D01*
X294588514Y-198627631D01*
X294595328Y-198628000D01*
X307067885Y-198628000D01*
X307083124Y-198623525D01*
X307084329Y-198622135D01*
X307086000Y-198614452D01*
X307086000Y-198609884D01*
X307594000Y-198609884D01*
X307598475Y-198625123D01*
X307599865Y-198626328D01*
X307607548Y-198627999D01*
X320084669Y-198627999D01*
X320091490Y-198627629D01*
X320142352Y-198622105D01*
X320157604Y-198618479D01*
X320278054Y-198573324D01*
X320293649Y-198564786D01*
X320395724Y-198488285D01*
X320408285Y-198475724D01*
X320484786Y-198373649D01*
X320493324Y-198358054D01*
X320538478Y-198237606D01*
X320542105Y-198222351D01*
X320547631Y-198171486D01*
X320548000Y-198164672D01*
X320548000Y-198164669D01*
X339852001Y-198164669D01*
X339852371Y-198171490D01*
X339857895Y-198222352D01*
X339861521Y-198237604D01*
X339906676Y-198358054D01*
X339915214Y-198373649D01*
X339991715Y-198475724D01*
X340004276Y-198488285D01*
X340106351Y-198564786D01*
X340121946Y-198573324D01*
X340242394Y-198618478D01*
X340257649Y-198622105D01*
X340308514Y-198627631D01*
X340315328Y-198628000D01*
X352787885Y-198628000D01*
X352803124Y-198623525D01*
X352804329Y-198622135D01*
X352806000Y-198614452D01*
X352806000Y-198609884D01*
X353314000Y-198609884D01*
X353318475Y-198625123D01*
X353319865Y-198626328D01*
X353327548Y-198627999D01*
X365804669Y-198627999D01*
X365811490Y-198627629D01*
X365862352Y-198622105D01*
X365877604Y-198618479D01*
X365998054Y-198573324D01*
X366013649Y-198564786D01*
X366115724Y-198488285D01*
X366128285Y-198475724D01*
X366204786Y-198373649D01*
X366213324Y-198358054D01*
X366258478Y-198237606D01*
X366262105Y-198222351D01*
X366267631Y-198171486D01*
X366268000Y-198164672D01*
X366268000Y-198164669D01*
X383032001Y-198164669D01*
X383032371Y-198171490D01*
X383037895Y-198222352D01*
X383041521Y-198237604D01*
X383086676Y-198358054D01*
X383095214Y-198373649D01*
X383171715Y-198475724D01*
X383184276Y-198488285D01*
X383286351Y-198564786D01*
X383301946Y-198573324D01*
X383422394Y-198618478D01*
X383437649Y-198622105D01*
X383488514Y-198627631D01*
X383495328Y-198628000D01*
X395967885Y-198628000D01*
X395983124Y-198623525D01*
X395984329Y-198622135D01*
X395986000Y-198614452D01*
X395986000Y-198609884D01*
X396494000Y-198609884D01*
X396498475Y-198625123D01*
X396499865Y-198626328D01*
X396507548Y-198627999D01*
X408984669Y-198627999D01*
X408991490Y-198627629D01*
X409042352Y-198622105D01*
X409057604Y-198618479D01*
X409178054Y-198573324D01*
X409193649Y-198564786D01*
X409295724Y-198488285D01*
X409308285Y-198475724D01*
X409384786Y-198373649D01*
X409393324Y-198358054D01*
X409438478Y-198237606D01*
X409442105Y-198222351D01*
X409447631Y-198171486D01*
X409448000Y-198164672D01*
X409448000Y-194958134D01*
X417161500Y-194958134D01*
X417168255Y-195020316D01*
X417219385Y-195156705D01*
X417306739Y-195273261D01*
X417423295Y-195360615D01*
X417559684Y-195411745D01*
X417621866Y-195418500D01*
X418160500Y-195418500D01*
X418228621Y-195438502D01*
X418275114Y-195492158D01*
X418286500Y-195544500D01*
X418286500Y-196388138D01*
X418266498Y-196456259D01*
X418264660Y-196458947D01*
X418260960Y-196463056D01*
X418165473Y-196628444D01*
X418106458Y-196810072D01*
X418105768Y-196816633D01*
X418105768Y-196816635D01*
X418097566Y-196894672D01*
X418086496Y-197000000D01*
X418106458Y-197189928D01*
X418165473Y-197371556D01*
X418260960Y-197536944D01*
X418265378Y-197541851D01*
X418265379Y-197541852D01*
X418325733Y-197608882D01*
X418388747Y-197678866D01*
X418543248Y-197791118D01*
X418549276Y-197793802D01*
X418549278Y-197793803D01*
X418704824Y-197863056D01*
X418717712Y-197868794D01*
X418811113Y-197888647D01*
X418898056Y-197907128D01*
X418898061Y-197907128D01*
X418904513Y-197908500D01*
X419095487Y-197908500D01*
X419101939Y-197907128D01*
X419101944Y-197907128D01*
X419188887Y-197888647D01*
X419282288Y-197868794D01*
X419295176Y-197863056D01*
X419450722Y-197793803D01*
X419450724Y-197793802D01*
X419456752Y-197791118D01*
X419611253Y-197678866D01*
X419674267Y-197608882D01*
X419734621Y-197541852D01*
X419734622Y-197541851D01*
X419739040Y-197536944D01*
X419834527Y-197371556D01*
X419893542Y-197189928D01*
X419913504Y-197000000D01*
X419902434Y-196894672D01*
X419894232Y-196816635D01*
X419894232Y-196816633D01*
X419893542Y-196810072D01*
X419834527Y-196628444D01*
X419739040Y-196463056D01*
X419611253Y-196321134D01*
X419605439Y-196316910D01*
X419605233Y-196316643D01*
X419601002Y-196312833D01*
X419601699Y-196312059D01*
X419562086Y-196260689D01*
X419553500Y-196214974D01*
X419553500Y-195544500D01*
X419573502Y-195476379D01*
X419627158Y-195429886D01*
X419679500Y-195418500D01*
X420218134Y-195418500D01*
X420280316Y-195411745D01*
X420416705Y-195360615D01*
X420533261Y-195273261D01*
X420620615Y-195156705D01*
X420671745Y-195020316D01*
X420678500Y-194958134D01*
X420678500Y-192361866D01*
X420671745Y-192299684D01*
X420620615Y-192163295D01*
X420533261Y-192046739D01*
X420416705Y-191959385D01*
X420280316Y-191908255D01*
X420218134Y-191901500D01*
X419679500Y-191901500D01*
X419611379Y-191881498D01*
X419564886Y-191827842D01*
X419553500Y-191775500D01*
X419553500Y-190544500D01*
X419573502Y-190476379D01*
X419627158Y-190429886D01*
X419679500Y-190418500D01*
X420218134Y-190418500D01*
X420280316Y-190411745D01*
X420416705Y-190360615D01*
X420533261Y-190273261D01*
X420620615Y-190156705D01*
X420671745Y-190020316D01*
X420678500Y-189958134D01*
X420678500Y-187361866D01*
X420671745Y-187299684D01*
X420620615Y-187163295D01*
X420533261Y-187046739D01*
X420416705Y-186959385D01*
X420280316Y-186908255D01*
X420218134Y-186901500D01*
X417621866Y-186901500D01*
X417559684Y-186908255D01*
X417423295Y-186959385D01*
X417306739Y-187046739D01*
X417219385Y-187163295D01*
X417168255Y-187299684D01*
X417161500Y-187361866D01*
X417161500Y-189958134D01*
X417168255Y-190020316D01*
X417219385Y-190156705D01*
X417306739Y-190273261D01*
X417423295Y-190360615D01*
X417559684Y-190411745D01*
X417621866Y-190418500D01*
X418160500Y-190418500D01*
X418228621Y-190438502D01*
X418275114Y-190492158D01*
X418286500Y-190544500D01*
X418286500Y-191775500D01*
X418266498Y-191843621D01*
X418212842Y-191890114D01*
X418160500Y-191901500D01*
X417621866Y-191901500D01*
X417559684Y-191908255D01*
X417423295Y-191959385D01*
X417306739Y-192046739D01*
X417219385Y-192163295D01*
X417168255Y-192299684D01*
X417161500Y-192361866D01*
X417161500Y-194958134D01*
X409448000Y-194958134D01*
X409448000Y-172358134D01*
X417161500Y-172358134D01*
X417168255Y-172420316D01*
X417219385Y-172556705D01*
X417306739Y-172673261D01*
X417423295Y-172760615D01*
X417559684Y-172811745D01*
X417621866Y-172818500D01*
X420218134Y-172818500D01*
X420280316Y-172811745D01*
X420416705Y-172760615D01*
X420533261Y-172673261D01*
X420620615Y-172556705D01*
X420671745Y-172420316D01*
X420678500Y-172358134D01*
X420678500Y-169761866D01*
X420671745Y-169699684D01*
X420620615Y-169563295D01*
X420533261Y-169446739D01*
X420416705Y-169359385D01*
X420280316Y-169308255D01*
X420218134Y-169301500D01*
X417621866Y-169301500D01*
X417559684Y-169308255D01*
X417423295Y-169359385D01*
X417306739Y-169446739D01*
X417219385Y-169563295D01*
X417168255Y-169699684D01*
X417161500Y-169761866D01*
X417161500Y-172358134D01*
X409448000Y-172358134D01*
X409448000Y-169182115D01*
X409443525Y-169166876D01*
X409442135Y-169165671D01*
X409434452Y-169164000D01*
X396512115Y-169164000D01*
X396496876Y-169168475D01*
X396495671Y-169169865D01*
X396494000Y-169177548D01*
X396494000Y-198609884D01*
X395986000Y-198609884D01*
X395986000Y-169182115D01*
X395981525Y-169166876D01*
X395980135Y-169165671D01*
X395972452Y-169164000D01*
X383050116Y-169164000D01*
X383034877Y-169168475D01*
X383033672Y-169169865D01*
X383032001Y-169177548D01*
X383032001Y-198164669D01*
X366268000Y-198164669D01*
X366268000Y-194958134D01*
X373981500Y-194958134D01*
X373988255Y-195020316D01*
X374039385Y-195156705D01*
X374126739Y-195273261D01*
X374243295Y-195360615D01*
X374379684Y-195411745D01*
X374441866Y-195418500D01*
X377038134Y-195418500D01*
X377100316Y-195411745D01*
X377236705Y-195360615D01*
X377353261Y-195273261D01*
X377440615Y-195156705D01*
X377491745Y-195020316D01*
X377498500Y-194958134D01*
X377498500Y-192361866D01*
X377491745Y-192299684D01*
X377440615Y-192163295D01*
X377353261Y-192046739D01*
X377236705Y-191959385D01*
X377100316Y-191908255D01*
X377038134Y-191901500D01*
X376499500Y-191901500D01*
X376431379Y-191881498D01*
X376384886Y-191827842D01*
X376373500Y-191775500D01*
X376373500Y-190544500D01*
X376393502Y-190476379D01*
X376447158Y-190429886D01*
X376499500Y-190418500D01*
X377038134Y-190418500D01*
X377100316Y-190411745D01*
X377236705Y-190360615D01*
X377353261Y-190273261D01*
X377440615Y-190156705D01*
X377491745Y-190020316D01*
X377498500Y-189958134D01*
X377498500Y-187361866D01*
X377491745Y-187299684D01*
X377440615Y-187163295D01*
X377353261Y-187046739D01*
X377236705Y-186959385D01*
X377100316Y-186908255D01*
X377038134Y-186901500D01*
X376499500Y-186901500D01*
X376431379Y-186881498D01*
X376384886Y-186827842D01*
X376373500Y-186775500D01*
X376373500Y-186258101D01*
X376393502Y-186189980D01*
X376405864Y-186173791D01*
X376434616Y-186141858D01*
X376434618Y-186141855D01*
X376439040Y-186136944D01*
X376534527Y-185971556D01*
X376593542Y-185789928D01*
X376610155Y-185631869D01*
X376612814Y-185606565D01*
X376613504Y-185600000D01*
X376612814Y-185593435D01*
X376594232Y-185416635D01*
X376594232Y-185416633D01*
X376593542Y-185410072D01*
X376534527Y-185228444D01*
X376439040Y-185063056D01*
X376311253Y-184921134D01*
X376156752Y-184808882D01*
X376150724Y-184806198D01*
X376150722Y-184806197D01*
X375988319Y-184733891D01*
X375988318Y-184733891D01*
X375982288Y-184731206D01*
X375888887Y-184711353D01*
X375801944Y-184692872D01*
X375801939Y-184692872D01*
X375795487Y-184691500D01*
X375604513Y-184691500D01*
X375598061Y-184692872D01*
X375598056Y-184692872D01*
X375511112Y-184711353D01*
X375417712Y-184731206D01*
X375411682Y-184733891D01*
X375411681Y-184733891D01*
X375249278Y-184806197D01*
X375249276Y-184806198D01*
X375243248Y-184808882D01*
X375088747Y-184921134D01*
X374960960Y-185063056D01*
X374865473Y-185228444D01*
X374806458Y-185410072D01*
X374805768Y-185416633D01*
X374805768Y-185416635D01*
X374787186Y-185593435D01*
X374786496Y-185600000D01*
X374787186Y-185606565D01*
X374789846Y-185631869D01*
X374806458Y-185789928D01*
X374865473Y-185971556D01*
X374960960Y-186136944D01*
X374965378Y-186141851D01*
X374965379Y-186141852D01*
X375074136Y-186262639D01*
X375104854Y-186326646D01*
X375106500Y-186346949D01*
X375106500Y-186775500D01*
X375086498Y-186843621D01*
X375032842Y-186890114D01*
X374980500Y-186901500D01*
X374441866Y-186901500D01*
X374379684Y-186908255D01*
X374243295Y-186959385D01*
X374126739Y-187046739D01*
X374039385Y-187163295D01*
X373988255Y-187299684D01*
X373981500Y-187361866D01*
X373981500Y-189958134D01*
X373988255Y-190020316D01*
X374039385Y-190156705D01*
X374126739Y-190273261D01*
X374243295Y-190360615D01*
X374379684Y-190411745D01*
X374441866Y-190418500D01*
X374980500Y-190418500D01*
X375048621Y-190438502D01*
X375095114Y-190492158D01*
X375106500Y-190544500D01*
X375106500Y-191775500D01*
X375086498Y-191843621D01*
X375032842Y-191890114D01*
X374980500Y-191901500D01*
X374441866Y-191901500D01*
X374379684Y-191908255D01*
X374243295Y-191959385D01*
X374126739Y-192046739D01*
X374039385Y-192163295D01*
X373988255Y-192299684D01*
X373981500Y-192361866D01*
X373981500Y-194958134D01*
X366268000Y-194958134D01*
X366268000Y-172358134D01*
X373981500Y-172358134D01*
X373988255Y-172420316D01*
X374039385Y-172556705D01*
X374126739Y-172673261D01*
X374243295Y-172760615D01*
X374379684Y-172811745D01*
X374441866Y-172818500D01*
X377038134Y-172818500D01*
X377100316Y-172811745D01*
X377236705Y-172760615D01*
X377353261Y-172673261D01*
X377440615Y-172556705D01*
X377491745Y-172420316D01*
X377498500Y-172358134D01*
X377498500Y-169761866D01*
X377491745Y-169699684D01*
X377440615Y-169563295D01*
X377353261Y-169446739D01*
X377236705Y-169359385D01*
X377100316Y-169308255D01*
X377038134Y-169301500D01*
X374441866Y-169301500D01*
X374379684Y-169308255D01*
X374243295Y-169359385D01*
X374126739Y-169446739D01*
X374039385Y-169563295D01*
X373988255Y-169699684D01*
X373981500Y-169761866D01*
X373981500Y-172358134D01*
X366268000Y-172358134D01*
X366268000Y-169182115D01*
X366263525Y-169166876D01*
X366262135Y-169165671D01*
X366254452Y-169164000D01*
X353332115Y-169164000D01*
X353316876Y-169168475D01*
X353315671Y-169169865D01*
X353314000Y-169177548D01*
X353314000Y-198609884D01*
X352806000Y-198609884D01*
X352806000Y-169182115D01*
X352801525Y-169166876D01*
X352800135Y-169165671D01*
X352792452Y-169164000D01*
X339870116Y-169164000D01*
X339854877Y-169168475D01*
X339853672Y-169169865D01*
X339852001Y-169177548D01*
X339852001Y-198164669D01*
X320548000Y-198164669D01*
X320548000Y-188600000D01*
X328586496Y-188600000D01*
X328587186Y-188606565D01*
X328602295Y-188750316D01*
X328606458Y-188789928D01*
X328665473Y-188971556D01*
X328668776Y-188977278D01*
X328668777Y-188977279D01*
X328683778Y-189003261D01*
X328760960Y-189136944D01*
X328888747Y-189278866D01*
X328915014Y-189297950D01*
X329031724Y-189382745D01*
X329043248Y-189391118D01*
X329049276Y-189393802D01*
X329049278Y-189393803D01*
X329106995Y-189419500D01*
X329217712Y-189468794D01*
X329304479Y-189487237D01*
X329398056Y-189507128D01*
X329398061Y-189507128D01*
X329404513Y-189508500D01*
X329595487Y-189508500D01*
X329601939Y-189507128D01*
X329601944Y-189507128D01*
X329695521Y-189487237D01*
X329782288Y-189468794D01*
X329893005Y-189419500D01*
X329950722Y-189393803D01*
X329950724Y-189393802D01*
X329956752Y-189391118D01*
X329968277Y-189382745D01*
X330057990Y-189317564D01*
X330124858Y-189293706D01*
X330132051Y-189293500D01*
X330675500Y-189293500D01*
X330743621Y-189313502D01*
X330790114Y-189367158D01*
X330801500Y-189419500D01*
X330801500Y-189958134D01*
X330808255Y-190020316D01*
X330859385Y-190156705D01*
X330946739Y-190273261D01*
X331063295Y-190360615D01*
X331199684Y-190411745D01*
X331261866Y-190418500D01*
X331800500Y-190418500D01*
X331868621Y-190438502D01*
X331915114Y-190492158D01*
X331926500Y-190544500D01*
X331926500Y-191775500D01*
X331906498Y-191843621D01*
X331852842Y-191890114D01*
X331800500Y-191901500D01*
X331261866Y-191901500D01*
X331199684Y-191908255D01*
X331063295Y-191959385D01*
X330946739Y-192046739D01*
X330859385Y-192163295D01*
X330808255Y-192299684D01*
X330801500Y-192361866D01*
X330801500Y-194958134D01*
X330808255Y-195020316D01*
X330859385Y-195156705D01*
X330946739Y-195273261D01*
X331063295Y-195360615D01*
X331199684Y-195411745D01*
X331261866Y-195418500D01*
X333858134Y-195418500D01*
X333920316Y-195411745D01*
X334056705Y-195360615D01*
X334173261Y-195273261D01*
X334260615Y-195156705D01*
X334311745Y-195020316D01*
X334318500Y-194958134D01*
X334318500Y-192361866D01*
X334311745Y-192299684D01*
X334260615Y-192163295D01*
X334173261Y-192046739D01*
X334056705Y-191959385D01*
X333920316Y-191908255D01*
X333858134Y-191901500D01*
X333319500Y-191901500D01*
X333251379Y-191881498D01*
X333204886Y-191827842D01*
X333193500Y-191775500D01*
X333193500Y-190544500D01*
X333213502Y-190476379D01*
X333267158Y-190429886D01*
X333319500Y-190418500D01*
X333858134Y-190418500D01*
X333920316Y-190411745D01*
X334056705Y-190360615D01*
X334173261Y-190273261D01*
X334260615Y-190156705D01*
X334311745Y-190020316D01*
X334318500Y-189958134D01*
X334318500Y-187361866D01*
X334311745Y-187299684D01*
X334260615Y-187163295D01*
X334173261Y-187046739D01*
X334056705Y-186959385D01*
X333920316Y-186908255D01*
X333858134Y-186901500D01*
X331261866Y-186901500D01*
X331199684Y-186908255D01*
X331063295Y-186959385D01*
X330946739Y-187046739D01*
X330859385Y-187163295D01*
X330808255Y-187299684D01*
X330801500Y-187361866D01*
X330801500Y-187900500D01*
X330781498Y-187968621D01*
X330727842Y-188015114D01*
X330675500Y-188026500D01*
X330262223Y-188026500D01*
X330194102Y-188006498D01*
X330168587Y-187984810D01*
X330115675Y-187926045D01*
X330115674Y-187926044D01*
X330111253Y-187921134D01*
X329956752Y-187808882D01*
X329950724Y-187806198D01*
X329950722Y-187806197D01*
X329788319Y-187733891D01*
X329788318Y-187733891D01*
X329782288Y-187731206D01*
X329688887Y-187711353D01*
X329601944Y-187692872D01*
X329601939Y-187692872D01*
X329595487Y-187691500D01*
X329404513Y-187691500D01*
X329398061Y-187692872D01*
X329398056Y-187692872D01*
X329311113Y-187711353D01*
X329217712Y-187731206D01*
X329211682Y-187733891D01*
X329211681Y-187733891D01*
X329049278Y-187806197D01*
X329049276Y-187806198D01*
X329043248Y-187808882D01*
X328888747Y-187921134D01*
X328884326Y-187926044D01*
X328884325Y-187926045D01*
X328792570Y-188027950D01*
X328760960Y-188063056D01*
X328665473Y-188228444D01*
X328606458Y-188410072D01*
X328605768Y-188416633D01*
X328605768Y-188416635D01*
X328595948Y-188510072D01*
X328586496Y-188600000D01*
X320548000Y-188600000D01*
X320548000Y-172358134D01*
X330801500Y-172358134D01*
X330808255Y-172420316D01*
X330859385Y-172556705D01*
X330946739Y-172673261D01*
X331063295Y-172760615D01*
X331199684Y-172811745D01*
X331261866Y-172818500D01*
X333858134Y-172818500D01*
X333920316Y-172811745D01*
X334056705Y-172760615D01*
X334173261Y-172673261D01*
X334260615Y-172556705D01*
X334311745Y-172420316D01*
X334318500Y-172358134D01*
X334318500Y-169761866D01*
X334311745Y-169699684D01*
X334260615Y-169563295D01*
X334173261Y-169446739D01*
X334056705Y-169359385D01*
X333920316Y-169308255D01*
X333858134Y-169301500D01*
X331261866Y-169301500D01*
X331199684Y-169308255D01*
X331063295Y-169359385D01*
X330946739Y-169446739D01*
X330859385Y-169563295D01*
X330808255Y-169699684D01*
X330801500Y-169761866D01*
X330801500Y-172358134D01*
X320548000Y-172358134D01*
X320548000Y-169182115D01*
X320543525Y-169166876D01*
X320542135Y-169165671D01*
X320534452Y-169164000D01*
X307612115Y-169164000D01*
X307596876Y-169168475D01*
X307595671Y-169169865D01*
X307594000Y-169177548D01*
X307594000Y-198609884D01*
X307086000Y-198609884D01*
X307086000Y-169182115D01*
X307081525Y-169166876D01*
X307080135Y-169165671D01*
X307072452Y-169164000D01*
X294150116Y-169164000D01*
X294134877Y-169168475D01*
X294133672Y-169169865D01*
X294132001Y-169177548D01*
X294132001Y-198164669D01*
X274828000Y-198164669D01*
X274828000Y-188600000D01*
X282586496Y-188600000D01*
X282587186Y-188606565D01*
X282602295Y-188750316D01*
X282606458Y-188789928D01*
X282665473Y-188971556D01*
X282668776Y-188977278D01*
X282668777Y-188977279D01*
X282683778Y-189003261D01*
X282760960Y-189136944D01*
X282888747Y-189278866D01*
X282915014Y-189297950D01*
X283031724Y-189382745D01*
X283043248Y-189391118D01*
X283049276Y-189393802D01*
X283049278Y-189393803D01*
X283106995Y-189419500D01*
X283217712Y-189468794D01*
X283304479Y-189487237D01*
X283398056Y-189507128D01*
X283398061Y-189507128D01*
X283404513Y-189508500D01*
X283595487Y-189508500D01*
X283601939Y-189507128D01*
X283601944Y-189507128D01*
X283695521Y-189487237D01*
X283782288Y-189468794D01*
X283893005Y-189419500D01*
X283950722Y-189393803D01*
X283950724Y-189393802D01*
X283956752Y-189391118D01*
X283968277Y-189382745D01*
X284057990Y-189317564D01*
X284124858Y-189293706D01*
X284132051Y-189293500D01*
X284955500Y-189293500D01*
X285023621Y-189313502D01*
X285070114Y-189367158D01*
X285081500Y-189419500D01*
X285081500Y-189958134D01*
X285088255Y-190020316D01*
X285139385Y-190156705D01*
X285226739Y-190273261D01*
X285343295Y-190360615D01*
X285479684Y-190411745D01*
X285541866Y-190418500D01*
X286080500Y-190418500D01*
X286148621Y-190438502D01*
X286195114Y-190492158D01*
X286206500Y-190544500D01*
X286206500Y-191775500D01*
X286186498Y-191843621D01*
X286132842Y-191890114D01*
X286080500Y-191901500D01*
X285541866Y-191901500D01*
X285479684Y-191908255D01*
X285343295Y-191959385D01*
X285226739Y-192046739D01*
X285139385Y-192163295D01*
X285088255Y-192299684D01*
X285081500Y-192361866D01*
X285081500Y-194958134D01*
X285088255Y-195020316D01*
X285139385Y-195156705D01*
X285226739Y-195273261D01*
X285343295Y-195360615D01*
X285479684Y-195411745D01*
X285541866Y-195418500D01*
X288138134Y-195418500D01*
X288200316Y-195411745D01*
X288336705Y-195360615D01*
X288453261Y-195273261D01*
X288540615Y-195156705D01*
X288591745Y-195020316D01*
X288598500Y-194958134D01*
X288598500Y-192361866D01*
X288591745Y-192299684D01*
X288540615Y-192163295D01*
X288453261Y-192046739D01*
X288336705Y-191959385D01*
X288200316Y-191908255D01*
X288138134Y-191901500D01*
X287599500Y-191901500D01*
X287531379Y-191881498D01*
X287484886Y-191827842D01*
X287473500Y-191775500D01*
X287473500Y-190544500D01*
X287493502Y-190476379D01*
X287547158Y-190429886D01*
X287599500Y-190418500D01*
X288138134Y-190418500D01*
X288200316Y-190411745D01*
X288336705Y-190360615D01*
X288453261Y-190273261D01*
X288540615Y-190156705D01*
X288591745Y-190020316D01*
X288598500Y-189958134D01*
X288598500Y-187361866D01*
X288591745Y-187299684D01*
X288540615Y-187163295D01*
X288453261Y-187046739D01*
X288336705Y-186959385D01*
X288200316Y-186908255D01*
X288138134Y-186901500D01*
X285541866Y-186901500D01*
X285479684Y-186908255D01*
X285343295Y-186959385D01*
X285226739Y-187046739D01*
X285139385Y-187163295D01*
X285088255Y-187299684D01*
X285081500Y-187361866D01*
X285081500Y-187900500D01*
X285061498Y-187968621D01*
X285007842Y-188015114D01*
X284955500Y-188026500D01*
X284262223Y-188026500D01*
X284194102Y-188006498D01*
X284168587Y-187984810D01*
X284115675Y-187926045D01*
X284115674Y-187926044D01*
X284111253Y-187921134D01*
X283956752Y-187808882D01*
X283950724Y-187806198D01*
X283950722Y-187806197D01*
X283788319Y-187733891D01*
X283788318Y-187733891D01*
X283782288Y-187731206D01*
X283688887Y-187711353D01*
X283601944Y-187692872D01*
X283601939Y-187692872D01*
X283595487Y-187691500D01*
X283404513Y-187691500D01*
X283398061Y-187692872D01*
X283398056Y-187692872D01*
X283311113Y-187711353D01*
X283217712Y-187731206D01*
X283211682Y-187733891D01*
X283211681Y-187733891D01*
X283049278Y-187806197D01*
X283049276Y-187806198D01*
X283043248Y-187808882D01*
X282888747Y-187921134D01*
X282884326Y-187926044D01*
X282884325Y-187926045D01*
X282792570Y-188027950D01*
X282760960Y-188063056D01*
X282665473Y-188228444D01*
X282606458Y-188410072D01*
X282605768Y-188416633D01*
X282605768Y-188416635D01*
X282595948Y-188510072D01*
X282586496Y-188600000D01*
X274828000Y-188600000D01*
X274828000Y-172358134D01*
X285081500Y-172358134D01*
X285088255Y-172420316D01*
X285139385Y-172556705D01*
X285226739Y-172673261D01*
X285343295Y-172760615D01*
X285479684Y-172811745D01*
X285541866Y-172818500D01*
X288138134Y-172818500D01*
X288200316Y-172811745D01*
X288336705Y-172760615D01*
X288453261Y-172673261D01*
X288540615Y-172556705D01*
X288591745Y-172420316D01*
X288598500Y-172358134D01*
X288598500Y-169761866D01*
X288591745Y-169699684D01*
X288540615Y-169563295D01*
X288453261Y-169446739D01*
X288336705Y-169359385D01*
X288200316Y-169308255D01*
X288138134Y-169301500D01*
X285541866Y-169301500D01*
X285479684Y-169308255D01*
X285343295Y-169359385D01*
X285226739Y-169446739D01*
X285139385Y-169563295D01*
X285088255Y-169699684D01*
X285081500Y-169761866D01*
X285081500Y-172358134D01*
X274828000Y-172358134D01*
X274828000Y-169182115D01*
X274823525Y-169166876D01*
X274822135Y-169165671D01*
X274814452Y-169164000D01*
X261892115Y-169164000D01*
X261876876Y-169168475D01*
X261875671Y-169169865D01*
X261874000Y-169177548D01*
X261874000Y-198609884D01*
X261366000Y-198609884D01*
X261366000Y-169182115D01*
X261361525Y-169166876D01*
X261360135Y-169165671D01*
X261352452Y-169164000D01*
X248430116Y-169164000D01*
X248414877Y-169168475D01*
X248413672Y-169169865D01*
X248412001Y-169177548D01*
X248412001Y-198164669D01*
X146685000Y-198164669D01*
X146685000Y-196894669D01*
X156972001Y-196894669D01*
X156972371Y-196901490D01*
X156977895Y-196952352D01*
X156981521Y-196967604D01*
X157026676Y-197088054D01*
X157035214Y-197103649D01*
X157111715Y-197205724D01*
X157124276Y-197218285D01*
X157226351Y-197294786D01*
X157241946Y-197303324D01*
X157362394Y-197348478D01*
X157377649Y-197352105D01*
X157428514Y-197357631D01*
X157435328Y-197358000D01*
X169907885Y-197358000D01*
X169923124Y-197353525D01*
X169924329Y-197352135D01*
X169926000Y-197344452D01*
X169926000Y-197339884D01*
X170434000Y-197339884D01*
X170438475Y-197355123D01*
X170439865Y-197356328D01*
X170447548Y-197357999D01*
X182924669Y-197357999D01*
X182931490Y-197357629D01*
X182982352Y-197352105D01*
X182997604Y-197348479D01*
X183118054Y-197303324D01*
X183133649Y-197294786D01*
X183235724Y-197218285D01*
X183248285Y-197205724D01*
X183324786Y-197103649D01*
X183333324Y-197088054D01*
X183378478Y-196967606D01*
X183382105Y-196952351D01*
X183387631Y-196901486D01*
X183388000Y-196894672D01*
X183388000Y-196894669D01*
X202692001Y-196894669D01*
X202692371Y-196901490D01*
X202697895Y-196952352D01*
X202701521Y-196967604D01*
X202746676Y-197088054D01*
X202755214Y-197103649D01*
X202831715Y-197205724D01*
X202844276Y-197218285D01*
X202946351Y-197294786D01*
X202961946Y-197303324D01*
X203082394Y-197348478D01*
X203097649Y-197352105D01*
X203148514Y-197357631D01*
X203155328Y-197358000D01*
X215627885Y-197358000D01*
X215643124Y-197353525D01*
X215644329Y-197352135D01*
X215646000Y-197344452D01*
X215646000Y-197339884D01*
X216154000Y-197339884D01*
X216158475Y-197355123D01*
X216159865Y-197356328D01*
X216167548Y-197357999D01*
X228644669Y-197357999D01*
X228651490Y-197357629D01*
X228702352Y-197352105D01*
X228717604Y-197348479D01*
X228838054Y-197303324D01*
X228853649Y-197294786D01*
X228955724Y-197218285D01*
X228968285Y-197205724D01*
X229044786Y-197103649D01*
X229053324Y-197088054D01*
X229098478Y-196967606D01*
X229102105Y-196952351D01*
X229107631Y-196901486D01*
X229108000Y-196894672D01*
X229108000Y-188700000D01*
X237186496Y-188700000D01*
X237187186Y-188706565D01*
X237205236Y-188878297D01*
X237206458Y-188889928D01*
X237265473Y-189071556D01*
X237268776Y-189077278D01*
X237268777Y-189077279D01*
X237299924Y-189131226D01*
X237360960Y-189236944D01*
X237365378Y-189241851D01*
X237365379Y-189241852D01*
X237398707Y-189278866D01*
X237488747Y-189378866D01*
X237643248Y-189491118D01*
X237649276Y-189493802D01*
X237649278Y-189493803D01*
X237811681Y-189566109D01*
X237817712Y-189568794D01*
X237911112Y-189588647D01*
X237998056Y-189607128D01*
X237998061Y-189607128D01*
X238004513Y-189608500D01*
X238195487Y-189608500D01*
X238201939Y-189607128D01*
X238201944Y-189607128D01*
X238288887Y-189588647D01*
X238382288Y-189568794D01*
X238388319Y-189566109D01*
X238550722Y-189493803D01*
X238550724Y-189493802D01*
X238556752Y-189491118D01*
X238711253Y-189378866D01*
X238750580Y-189335189D01*
X238811026Y-189297950D01*
X238844216Y-189293500D01*
X239235500Y-189293500D01*
X239303621Y-189313502D01*
X239350114Y-189367158D01*
X239361500Y-189419500D01*
X239361500Y-189958134D01*
X239368255Y-190020316D01*
X239419385Y-190156705D01*
X239506739Y-190273261D01*
X239623295Y-190360615D01*
X239759684Y-190411745D01*
X239821866Y-190418500D01*
X240360500Y-190418500D01*
X240428621Y-190438502D01*
X240475114Y-190492158D01*
X240486500Y-190544500D01*
X240486500Y-191775500D01*
X240466498Y-191843621D01*
X240412842Y-191890114D01*
X240360500Y-191901500D01*
X239821866Y-191901500D01*
X239759684Y-191908255D01*
X239623295Y-191959385D01*
X239506739Y-192046739D01*
X239419385Y-192163295D01*
X239368255Y-192299684D01*
X239361500Y-192361866D01*
X239361500Y-194958134D01*
X239368255Y-195020316D01*
X239419385Y-195156705D01*
X239506739Y-195273261D01*
X239623295Y-195360615D01*
X239759684Y-195411745D01*
X239821866Y-195418500D01*
X242418134Y-195418500D01*
X242480316Y-195411745D01*
X242616705Y-195360615D01*
X242733261Y-195273261D01*
X242820615Y-195156705D01*
X242871745Y-195020316D01*
X242878500Y-194958134D01*
X242878500Y-192361866D01*
X242871745Y-192299684D01*
X242820615Y-192163295D01*
X242733261Y-192046739D01*
X242616705Y-191959385D01*
X242480316Y-191908255D01*
X242418134Y-191901500D01*
X241879500Y-191901500D01*
X241811379Y-191881498D01*
X241764886Y-191827842D01*
X241753500Y-191775500D01*
X241753500Y-190544500D01*
X241773502Y-190476379D01*
X241827158Y-190429886D01*
X241879500Y-190418500D01*
X242418134Y-190418500D01*
X242480316Y-190411745D01*
X242616705Y-190360615D01*
X242733261Y-190273261D01*
X242820615Y-190156705D01*
X242871745Y-190020316D01*
X242878500Y-189958134D01*
X242878500Y-187361866D01*
X242871745Y-187299684D01*
X242820615Y-187163295D01*
X242733261Y-187046739D01*
X242616705Y-186959385D01*
X242480316Y-186908255D01*
X242418134Y-186901500D01*
X239821866Y-186901500D01*
X239759684Y-186908255D01*
X239623295Y-186959385D01*
X239506739Y-187046739D01*
X239419385Y-187163295D01*
X239368255Y-187299684D01*
X239361500Y-187361866D01*
X239361500Y-187900500D01*
X239341498Y-187968621D01*
X239287842Y-188015114D01*
X239235500Y-188026500D01*
X238759579Y-188026500D01*
X238691458Y-188006498D01*
X238685518Y-188002436D01*
X238562094Y-187912763D01*
X238562093Y-187912762D01*
X238556752Y-187908882D01*
X238550724Y-187906198D01*
X238550722Y-187906197D01*
X238388319Y-187833891D01*
X238388318Y-187833891D01*
X238382288Y-187831206D01*
X238288887Y-187811353D01*
X238201944Y-187792872D01*
X238201939Y-187792872D01*
X238195487Y-187791500D01*
X238004513Y-187791500D01*
X237998061Y-187792872D01*
X237998056Y-187792872D01*
X237911112Y-187811353D01*
X237817712Y-187831206D01*
X237811682Y-187833891D01*
X237811681Y-187833891D01*
X237649278Y-187906197D01*
X237649276Y-187906198D01*
X237643248Y-187908882D01*
X237637907Y-187912762D01*
X237637906Y-187912763D01*
X237619625Y-187926045D01*
X237488747Y-188021134D01*
X237484326Y-188026044D01*
X237484325Y-188026045D01*
X237441180Y-188073963D01*
X237360960Y-188163056D01*
X237265473Y-188328444D01*
X237206458Y-188510072D01*
X237186496Y-188700000D01*
X229108000Y-188700000D01*
X229108000Y-172358134D01*
X239361500Y-172358134D01*
X239368255Y-172420316D01*
X239419385Y-172556705D01*
X239506739Y-172673261D01*
X239623295Y-172760615D01*
X239759684Y-172811745D01*
X239821866Y-172818500D01*
X242418134Y-172818500D01*
X242480316Y-172811745D01*
X242616705Y-172760615D01*
X242733261Y-172673261D01*
X242820615Y-172556705D01*
X242871745Y-172420316D01*
X242878500Y-172358134D01*
X242878500Y-169761866D01*
X242871745Y-169699684D01*
X242820615Y-169563295D01*
X242733261Y-169446739D01*
X242616705Y-169359385D01*
X242480316Y-169308255D01*
X242418134Y-169301500D01*
X239821866Y-169301500D01*
X239759684Y-169308255D01*
X239623295Y-169359385D01*
X239506739Y-169446739D01*
X239419385Y-169563295D01*
X239368255Y-169699684D01*
X239361500Y-169761866D01*
X239361500Y-172358134D01*
X229108000Y-172358134D01*
X229108000Y-168358134D01*
X239361500Y-168358134D01*
X239368255Y-168420316D01*
X239419385Y-168556705D01*
X239506739Y-168673261D01*
X239623295Y-168760615D01*
X239759684Y-168811745D01*
X239821866Y-168818500D01*
X242418134Y-168818500D01*
X242480316Y-168811745D01*
X242616705Y-168760615D01*
X242733261Y-168673261D01*
X242759774Y-168637885D01*
X248412000Y-168637885D01*
X248416475Y-168653124D01*
X248417865Y-168654329D01*
X248425548Y-168656000D01*
X261347885Y-168656000D01*
X261363124Y-168651525D01*
X261364329Y-168650135D01*
X261366000Y-168642452D01*
X261366000Y-168637885D01*
X261874000Y-168637885D01*
X261878475Y-168653124D01*
X261879865Y-168654329D01*
X261887548Y-168656000D01*
X274809884Y-168656000D01*
X274825123Y-168651525D01*
X274826328Y-168650135D01*
X274827999Y-168642452D01*
X274827999Y-168358134D01*
X285081500Y-168358134D01*
X285088255Y-168420316D01*
X285139385Y-168556705D01*
X285226739Y-168673261D01*
X285343295Y-168760615D01*
X285479684Y-168811745D01*
X285541866Y-168818500D01*
X288138134Y-168818500D01*
X288200316Y-168811745D01*
X288336705Y-168760615D01*
X288453261Y-168673261D01*
X288479774Y-168637885D01*
X294132000Y-168637885D01*
X294136475Y-168653124D01*
X294137865Y-168654329D01*
X294145548Y-168656000D01*
X307067885Y-168656000D01*
X307083124Y-168651525D01*
X307084329Y-168650135D01*
X307086000Y-168642452D01*
X307086000Y-168637885D01*
X307594000Y-168637885D01*
X307598475Y-168653124D01*
X307599865Y-168654329D01*
X307607548Y-168656000D01*
X320529884Y-168656000D01*
X320545123Y-168651525D01*
X320546328Y-168650135D01*
X320547999Y-168642452D01*
X320547999Y-168358134D01*
X330801500Y-168358134D01*
X330808255Y-168420316D01*
X330859385Y-168556705D01*
X330946739Y-168673261D01*
X331063295Y-168760615D01*
X331199684Y-168811745D01*
X331261866Y-168818500D01*
X333858134Y-168818500D01*
X333920316Y-168811745D01*
X334056705Y-168760615D01*
X334173261Y-168673261D01*
X334199774Y-168637885D01*
X339852000Y-168637885D01*
X339856475Y-168653124D01*
X339857865Y-168654329D01*
X339865548Y-168656000D01*
X352787885Y-168656000D01*
X352803124Y-168651525D01*
X352804329Y-168650135D01*
X352806000Y-168642452D01*
X352806000Y-168637885D01*
X353314000Y-168637885D01*
X353318475Y-168653124D01*
X353319865Y-168654329D01*
X353327548Y-168656000D01*
X366249884Y-168656000D01*
X366265123Y-168651525D01*
X366266328Y-168650135D01*
X366267999Y-168642452D01*
X366267999Y-168358134D01*
X373981500Y-168358134D01*
X373988255Y-168420316D01*
X374039385Y-168556705D01*
X374126739Y-168673261D01*
X374243295Y-168760615D01*
X374379684Y-168811745D01*
X374441866Y-168818500D01*
X377038134Y-168818500D01*
X377100316Y-168811745D01*
X377236705Y-168760615D01*
X377353261Y-168673261D01*
X377379774Y-168637885D01*
X383032000Y-168637885D01*
X383036475Y-168653124D01*
X383037865Y-168654329D01*
X383045548Y-168656000D01*
X395967885Y-168656000D01*
X395983124Y-168651525D01*
X395984329Y-168650135D01*
X395986000Y-168642452D01*
X395986000Y-168637885D01*
X396494000Y-168637885D01*
X396498475Y-168653124D01*
X396499865Y-168654329D01*
X396507548Y-168656000D01*
X409429884Y-168656000D01*
X409445123Y-168651525D01*
X409446328Y-168650135D01*
X409447999Y-168642452D01*
X409447999Y-168358134D01*
X417161500Y-168358134D01*
X417168255Y-168420316D01*
X417219385Y-168556705D01*
X417306739Y-168673261D01*
X417423295Y-168760615D01*
X417559684Y-168811745D01*
X417621866Y-168818500D01*
X420218134Y-168818500D01*
X420280316Y-168811745D01*
X420416705Y-168760615D01*
X420533261Y-168673261D01*
X420559774Y-168637885D01*
X426212000Y-168637885D01*
X426216475Y-168653124D01*
X426217865Y-168654329D01*
X426225548Y-168656000D01*
X439147885Y-168656000D01*
X439163124Y-168651525D01*
X439164329Y-168650135D01*
X439166000Y-168642452D01*
X439166000Y-168637885D01*
X439674000Y-168637885D01*
X439678475Y-168653124D01*
X439679865Y-168654329D01*
X439687548Y-168656000D01*
X452609884Y-168656000D01*
X452625123Y-168651525D01*
X452626328Y-168650135D01*
X452627999Y-168642452D01*
X452627999Y-139655331D01*
X452627629Y-139648510D01*
X452622105Y-139597648D01*
X452618479Y-139582396D01*
X452573324Y-139461946D01*
X452564786Y-139446351D01*
X452488285Y-139344276D01*
X452475724Y-139331715D01*
X452373649Y-139255214D01*
X452358054Y-139246676D01*
X452237606Y-139201522D01*
X452222351Y-139197895D01*
X452171486Y-139192369D01*
X452164672Y-139192000D01*
X439692115Y-139192000D01*
X439676876Y-139196475D01*
X439675671Y-139197865D01*
X439674000Y-139205548D01*
X439674000Y-168637885D01*
X439166000Y-168637885D01*
X439166000Y-139210116D01*
X439161525Y-139194877D01*
X439160135Y-139193672D01*
X439152452Y-139192001D01*
X426675331Y-139192001D01*
X426668510Y-139192371D01*
X426617648Y-139197895D01*
X426602396Y-139201521D01*
X426481946Y-139246676D01*
X426466351Y-139255214D01*
X426364276Y-139331715D01*
X426351715Y-139344276D01*
X426275214Y-139446351D01*
X426266676Y-139461946D01*
X426221522Y-139582394D01*
X426217895Y-139597649D01*
X426212369Y-139648514D01*
X426212000Y-139655328D01*
X426212000Y-168637885D01*
X420559774Y-168637885D01*
X420620615Y-168556705D01*
X420671745Y-168420316D01*
X420678500Y-168358134D01*
X420678500Y-165761866D01*
X420671745Y-165699684D01*
X420620615Y-165563295D01*
X420533261Y-165446739D01*
X420416705Y-165359385D01*
X420280316Y-165308255D01*
X420218134Y-165301500D01*
X417621866Y-165301500D01*
X417559684Y-165308255D01*
X417423295Y-165359385D01*
X417306739Y-165446739D01*
X417219385Y-165563295D01*
X417168255Y-165699684D01*
X417161500Y-165761866D01*
X417161500Y-168358134D01*
X409447999Y-168358134D01*
X409447999Y-150958134D01*
X417161500Y-150958134D01*
X417168255Y-151020316D01*
X417219385Y-151156705D01*
X417306739Y-151273261D01*
X417423295Y-151360615D01*
X417559684Y-151411745D01*
X417621866Y-151418500D01*
X420218134Y-151418500D01*
X420280316Y-151411745D01*
X420416705Y-151360615D01*
X420533261Y-151273261D01*
X420620615Y-151156705D01*
X420671745Y-151020316D01*
X420678500Y-150958134D01*
X420678500Y-150419500D01*
X420698502Y-150351379D01*
X420752158Y-150304886D01*
X420804500Y-150293500D01*
X422105396Y-150293500D01*
X422173517Y-150313502D01*
X422214514Y-150356498D01*
X422260960Y-150436944D01*
X422388747Y-150578866D01*
X422543248Y-150691118D01*
X422549276Y-150693802D01*
X422549278Y-150693803D01*
X422711681Y-150766109D01*
X422717712Y-150768794D01*
X422811112Y-150788647D01*
X422898056Y-150807128D01*
X422898061Y-150807128D01*
X422904513Y-150808500D01*
X423095487Y-150808500D01*
X423101939Y-150807128D01*
X423101944Y-150807128D01*
X423188888Y-150788647D01*
X423282288Y-150768794D01*
X423288319Y-150766109D01*
X423450722Y-150693803D01*
X423450724Y-150693802D01*
X423456752Y-150691118D01*
X423611253Y-150578866D01*
X423739040Y-150436944D01*
X423834527Y-150271556D01*
X423893542Y-150089928D01*
X423902086Y-150008642D01*
X423912814Y-149906565D01*
X423913504Y-149900000D01*
X423911223Y-149878297D01*
X423894232Y-149716635D01*
X423894232Y-149716633D01*
X423893542Y-149710072D01*
X423834527Y-149528444D01*
X423739040Y-149363056D01*
X423611253Y-149221134D01*
X423456752Y-149108882D01*
X423450724Y-149106198D01*
X423450722Y-149106197D01*
X423288319Y-149033891D01*
X423288318Y-149033891D01*
X423282288Y-149031206D01*
X423166047Y-149006498D01*
X423101944Y-148992872D01*
X423101939Y-148992872D01*
X423095487Y-148991500D01*
X422904513Y-148991500D01*
X422898060Y-148992872D01*
X422898056Y-148992872D01*
X422799287Y-149013866D01*
X422754743Y-149023335D01*
X422740402Y-149025528D01*
X422736031Y-149025941D01*
X422724179Y-149026500D01*
X420804500Y-149026500D01*
X420736379Y-149006498D01*
X420689886Y-148952842D01*
X420678500Y-148900500D01*
X420678500Y-148361866D01*
X420671745Y-148299684D01*
X420620615Y-148163295D01*
X420533261Y-148046739D01*
X420416705Y-147959385D01*
X420280316Y-147908255D01*
X420218134Y-147901500D01*
X419679500Y-147901500D01*
X419611379Y-147881498D01*
X419564886Y-147827842D01*
X419553500Y-147775500D01*
X419553500Y-146544500D01*
X419573502Y-146476379D01*
X419627158Y-146429886D01*
X419679500Y-146418500D01*
X420218134Y-146418500D01*
X420280316Y-146411745D01*
X420416705Y-146360615D01*
X420533261Y-146273261D01*
X420620615Y-146156705D01*
X420671745Y-146020316D01*
X420678500Y-145958134D01*
X420678500Y-143361866D01*
X420671745Y-143299684D01*
X420620615Y-143163295D01*
X420533261Y-143046739D01*
X420416705Y-142959385D01*
X420280316Y-142908255D01*
X420218134Y-142901500D01*
X417621866Y-142901500D01*
X417559684Y-142908255D01*
X417423295Y-142959385D01*
X417306739Y-143046739D01*
X417219385Y-143163295D01*
X417168255Y-143299684D01*
X417161500Y-143361866D01*
X417161500Y-145958134D01*
X417168255Y-146020316D01*
X417219385Y-146156705D01*
X417306739Y-146273261D01*
X417423295Y-146360615D01*
X417559684Y-146411745D01*
X417621866Y-146418500D01*
X418160500Y-146418500D01*
X418228621Y-146438502D01*
X418275114Y-146492158D01*
X418286500Y-146544500D01*
X418286500Y-147775500D01*
X418266498Y-147843621D01*
X418212842Y-147890114D01*
X418160500Y-147901500D01*
X417621866Y-147901500D01*
X417559684Y-147908255D01*
X417423295Y-147959385D01*
X417306739Y-148046739D01*
X417219385Y-148163295D01*
X417168255Y-148299684D01*
X417161500Y-148361866D01*
X417161500Y-150958134D01*
X409447999Y-150958134D01*
X409447999Y-139655331D01*
X409447629Y-139648510D01*
X409442105Y-139597648D01*
X409438479Y-139582396D01*
X409393324Y-139461946D01*
X409384786Y-139446351D01*
X409308285Y-139344276D01*
X409295724Y-139331715D01*
X409193649Y-139255214D01*
X409178054Y-139246676D01*
X409057606Y-139201522D01*
X409042351Y-139197895D01*
X408991486Y-139192369D01*
X408984672Y-139192000D01*
X396512115Y-139192000D01*
X396496876Y-139196475D01*
X396495671Y-139197865D01*
X396494000Y-139205548D01*
X396494000Y-168637885D01*
X395986000Y-168637885D01*
X395986000Y-139210116D01*
X395981525Y-139194877D01*
X395980135Y-139193672D01*
X395972452Y-139192001D01*
X383495331Y-139192001D01*
X383488510Y-139192371D01*
X383437648Y-139197895D01*
X383422396Y-139201521D01*
X383301946Y-139246676D01*
X383286351Y-139255214D01*
X383184276Y-139331715D01*
X383171715Y-139344276D01*
X383095214Y-139446351D01*
X383086676Y-139461946D01*
X383041522Y-139582394D01*
X383037895Y-139597649D01*
X383032369Y-139648514D01*
X383032000Y-139655328D01*
X383032000Y-168637885D01*
X377379774Y-168637885D01*
X377440615Y-168556705D01*
X377491745Y-168420316D01*
X377498500Y-168358134D01*
X377498500Y-165761866D01*
X377491745Y-165699684D01*
X377440615Y-165563295D01*
X377353261Y-165446739D01*
X377236705Y-165359385D01*
X377100316Y-165308255D01*
X377038134Y-165301500D01*
X374441866Y-165301500D01*
X374379684Y-165308255D01*
X374243295Y-165359385D01*
X374126739Y-165446739D01*
X374039385Y-165563295D01*
X373988255Y-165699684D01*
X373981500Y-165761866D01*
X373981500Y-168358134D01*
X366267999Y-168358134D01*
X366267999Y-150958134D01*
X373981500Y-150958134D01*
X373988255Y-151020316D01*
X374039385Y-151156705D01*
X374126739Y-151273261D01*
X374243295Y-151360615D01*
X374379684Y-151411745D01*
X374441866Y-151418500D01*
X377038134Y-151418500D01*
X377100316Y-151411745D01*
X377236705Y-151360615D01*
X377353261Y-151273261D01*
X377440615Y-151156705D01*
X377491745Y-151020316D01*
X377498500Y-150958134D01*
X377498500Y-148361866D01*
X377491745Y-148299684D01*
X377440615Y-148163295D01*
X377353261Y-148046739D01*
X377236705Y-147959385D01*
X377100316Y-147908255D01*
X377038134Y-147901500D01*
X376499500Y-147901500D01*
X376431379Y-147881498D01*
X376384886Y-147827842D01*
X376373500Y-147775500D01*
X376373500Y-146544500D01*
X376393502Y-146476379D01*
X376447158Y-146429886D01*
X376499500Y-146418500D01*
X377038134Y-146418500D01*
X377100316Y-146411745D01*
X377236705Y-146360615D01*
X377353261Y-146273261D01*
X377440615Y-146156705D01*
X377491745Y-146020316D01*
X377498500Y-145958134D01*
X377498500Y-143361866D01*
X377491745Y-143299684D01*
X377440615Y-143163295D01*
X377353261Y-143046739D01*
X377236705Y-142959385D01*
X377100316Y-142908255D01*
X377038134Y-142901500D01*
X376499500Y-142901500D01*
X376431379Y-142881498D01*
X376384886Y-142827842D01*
X376373500Y-142775500D01*
X376373500Y-142258101D01*
X376393502Y-142189980D01*
X376405864Y-142173791D01*
X376434616Y-142141858D01*
X376434618Y-142141855D01*
X376439040Y-142136944D01*
X376534527Y-141971556D01*
X376593542Y-141789928D01*
X376610155Y-141631869D01*
X376612814Y-141606565D01*
X376613504Y-141600000D01*
X376612814Y-141593435D01*
X376594232Y-141416635D01*
X376594232Y-141416633D01*
X376593542Y-141410072D01*
X376534527Y-141228444D01*
X376439040Y-141063056D01*
X376311253Y-140921134D01*
X376156752Y-140808882D01*
X376150724Y-140806198D01*
X376150722Y-140806197D01*
X375988319Y-140733891D01*
X375988318Y-140733891D01*
X375982288Y-140731206D01*
X375888888Y-140711353D01*
X375801944Y-140692872D01*
X375801939Y-140692872D01*
X375795487Y-140691500D01*
X375604513Y-140691500D01*
X375598061Y-140692872D01*
X375598056Y-140692872D01*
X375511112Y-140711353D01*
X375417712Y-140731206D01*
X375411682Y-140733891D01*
X375411681Y-140733891D01*
X375249278Y-140806197D01*
X375249276Y-140806198D01*
X375243248Y-140808882D01*
X375088747Y-140921134D01*
X374960960Y-141063056D01*
X374865473Y-141228444D01*
X374806458Y-141410072D01*
X374805768Y-141416633D01*
X374805768Y-141416635D01*
X374787186Y-141593435D01*
X374786496Y-141600000D01*
X374787186Y-141606565D01*
X374789846Y-141631869D01*
X374806458Y-141789928D01*
X374865473Y-141971556D01*
X374960960Y-142136944D01*
X374965378Y-142141851D01*
X374965379Y-142141852D01*
X375074136Y-142262639D01*
X375104854Y-142326646D01*
X375106500Y-142346949D01*
X375106500Y-142775500D01*
X375086498Y-142843621D01*
X375032842Y-142890114D01*
X374980500Y-142901500D01*
X374441866Y-142901500D01*
X374379684Y-142908255D01*
X374243295Y-142959385D01*
X374126739Y-143046739D01*
X374039385Y-143163295D01*
X373988255Y-143299684D01*
X373981500Y-143361866D01*
X373981500Y-145958134D01*
X373988255Y-146020316D01*
X374039385Y-146156705D01*
X374126739Y-146273261D01*
X374243295Y-146360615D01*
X374379684Y-146411745D01*
X374441866Y-146418500D01*
X374980500Y-146418500D01*
X375048621Y-146438502D01*
X375095114Y-146492158D01*
X375106500Y-146544500D01*
X375106500Y-147775500D01*
X375086498Y-147843621D01*
X375032842Y-147890114D01*
X374980500Y-147901500D01*
X374441866Y-147901500D01*
X374379684Y-147908255D01*
X374243295Y-147959385D01*
X374126739Y-148046739D01*
X374039385Y-148163295D01*
X373988255Y-148299684D01*
X373981500Y-148361866D01*
X373981500Y-150958134D01*
X366267999Y-150958134D01*
X366267999Y-139655331D01*
X366267629Y-139648510D01*
X366262105Y-139597648D01*
X366258479Y-139582396D01*
X366213324Y-139461946D01*
X366204786Y-139446351D01*
X366128285Y-139344276D01*
X366115724Y-139331715D01*
X366013649Y-139255214D01*
X365998054Y-139246676D01*
X365877606Y-139201522D01*
X365862351Y-139197895D01*
X365811486Y-139192369D01*
X365804672Y-139192000D01*
X353332115Y-139192000D01*
X353316876Y-139196475D01*
X353315671Y-139197865D01*
X353314000Y-139205548D01*
X353314000Y-168637885D01*
X352806000Y-168637885D01*
X352806000Y-139210116D01*
X352801525Y-139194877D01*
X352800135Y-139193672D01*
X352792452Y-139192001D01*
X340315331Y-139192001D01*
X340308510Y-139192371D01*
X340257648Y-139197895D01*
X340242396Y-139201521D01*
X340121946Y-139246676D01*
X340106351Y-139255214D01*
X340004276Y-139331715D01*
X339991715Y-139344276D01*
X339915214Y-139446351D01*
X339906676Y-139461946D01*
X339861522Y-139582394D01*
X339857895Y-139597649D01*
X339852369Y-139648514D01*
X339852000Y-139655328D01*
X339852000Y-168637885D01*
X334199774Y-168637885D01*
X334260615Y-168556705D01*
X334311745Y-168420316D01*
X334318500Y-168358134D01*
X334318500Y-165761866D01*
X334311745Y-165699684D01*
X334260615Y-165563295D01*
X334173261Y-165446739D01*
X334056705Y-165359385D01*
X333920316Y-165308255D01*
X333858134Y-165301500D01*
X331261866Y-165301500D01*
X331199684Y-165308255D01*
X331063295Y-165359385D01*
X330946739Y-165446739D01*
X330859385Y-165563295D01*
X330808255Y-165699684D01*
X330801500Y-165761866D01*
X330801500Y-168358134D01*
X320547999Y-168358134D01*
X320547999Y-144600000D01*
X328586496Y-144600000D01*
X328587186Y-144606565D01*
X328602295Y-144750316D01*
X328606458Y-144789928D01*
X328665473Y-144971556D01*
X328668776Y-144977278D01*
X328668777Y-144977279D01*
X328683778Y-145003261D01*
X328760960Y-145136944D01*
X328888747Y-145278866D01*
X328915014Y-145297950D01*
X329031724Y-145382745D01*
X329043248Y-145391118D01*
X329049276Y-145393802D01*
X329049278Y-145393803D01*
X329055866Y-145396736D01*
X329217712Y-145468794D01*
X329304479Y-145487237D01*
X329398056Y-145507128D01*
X329398061Y-145507128D01*
X329404513Y-145508500D01*
X329595487Y-145508500D01*
X329601939Y-145507128D01*
X329601944Y-145507128D01*
X329695521Y-145487237D01*
X329782288Y-145468794D01*
X329944134Y-145396736D01*
X329950722Y-145393803D01*
X329950724Y-145393802D01*
X329956752Y-145391118D01*
X329968277Y-145382745D01*
X330057990Y-145317564D01*
X330124858Y-145293706D01*
X330132051Y-145293500D01*
X330675500Y-145293500D01*
X330743621Y-145313502D01*
X330790114Y-145367158D01*
X330801500Y-145419500D01*
X330801500Y-145958134D01*
X330808255Y-146020316D01*
X330859385Y-146156705D01*
X330946739Y-146273261D01*
X331063295Y-146360615D01*
X331199684Y-146411745D01*
X331261866Y-146418500D01*
X331800500Y-146418500D01*
X331868621Y-146438502D01*
X331915114Y-146492158D01*
X331926500Y-146544500D01*
X331926500Y-147775500D01*
X331906498Y-147843621D01*
X331852842Y-147890114D01*
X331800500Y-147901500D01*
X331261866Y-147901500D01*
X331199684Y-147908255D01*
X331063295Y-147959385D01*
X330946739Y-148046739D01*
X330859385Y-148163295D01*
X330808255Y-148299684D01*
X330801500Y-148361866D01*
X330801500Y-150958134D01*
X330808255Y-151020316D01*
X330859385Y-151156705D01*
X330946739Y-151273261D01*
X331063295Y-151360615D01*
X331199684Y-151411745D01*
X331261866Y-151418500D01*
X333858134Y-151418500D01*
X333920316Y-151411745D01*
X334056705Y-151360615D01*
X334173261Y-151273261D01*
X334260615Y-151156705D01*
X334311745Y-151020316D01*
X334318500Y-150958134D01*
X334318500Y-148361866D01*
X334311745Y-148299684D01*
X334260615Y-148163295D01*
X334173261Y-148046739D01*
X334056705Y-147959385D01*
X333920316Y-147908255D01*
X333858134Y-147901500D01*
X333319500Y-147901500D01*
X333251379Y-147881498D01*
X333204886Y-147827842D01*
X333193500Y-147775500D01*
X333193500Y-146544500D01*
X333213502Y-146476379D01*
X333267158Y-146429886D01*
X333319500Y-146418500D01*
X333858134Y-146418500D01*
X333920316Y-146411745D01*
X334056705Y-146360615D01*
X334173261Y-146273261D01*
X334260615Y-146156705D01*
X334311745Y-146020316D01*
X334318500Y-145958134D01*
X334318500Y-143361866D01*
X334311745Y-143299684D01*
X334260615Y-143163295D01*
X334173261Y-143046739D01*
X334056705Y-142959385D01*
X333920316Y-142908255D01*
X333858134Y-142901500D01*
X331261866Y-142901500D01*
X331199684Y-142908255D01*
X331063295Y-142959385D01*
X330946739Y-143046739D01*
X330859385Y-143163295D01*
X330808255Y-143299684D01*
X330801500Y-143361866D01*
X330801500Y-143900500D01*
X330781498Y-143968621D01*
X330727842Y-144015114D01*
X330675500Y-144026500D01*
X330262223Y-144026500D01*
X330194102Y-144006498D01*
X330168587Y-143984810D01*
X330115675Y-143926045D01*
X330115674Y-143926044D01*
X330111253Y-143921134D01*
X329956752Y-143808882D01*
X329950724Y-143806198D01*
X329950722Y-143806197D01*
X329788319Y-143733891D01*
X329788318Y-143733891D01*
X329782288Y-143731206D01*
X329688887Y-143711353D01*
X329601944Y-143692872D01*
X329601939Y-143692872D01*
X329595487Y-143691500D01*
X329404513Y-143691500D01*
X329398061Y-143692872D01*
X329398056Y-143692872D01*
X329311113Y-143711353D01*
X329217712Y-143731206D01*
X329211682Y-143733891D01*
X329211681Y-143733891D01*
X329049278Y-143806197D01*
X329049276Y-143806198D01*
X329043248Y-143808882D01*
X328888747Y-143921134D01*
X328884326Y-143926044D01*
X328884325Y-143926045D01*
X328792570Y-144027950D01*
X328760960Y-144063056D01*
X328665473Y-144228444D01*
X328606458Y-144410072D01*
X328605768Y-144416633D01*
X328605768Y-144416635D01*
X328595948Y-144510072D01*
X328586496Y-144600000D01*
X320547999Y-144600000D01*
X320547999Y-139655331D01*
X320547629Y-139648510D01*
X320542105Y-139597648D01*
X320538479Y-139582396D01*
X320493324Y-139461946D01*
X320484786Y-139446351D01*
X320408285Y-139344276D01*
X320395724Y-139331715D01*
X320293649Y-139255214D01*
X320278054Y-139246676D01*
X320157606Y-139201522D01*
X320142351Y-139197895D01*
X320091486Y-139192369D01*
X320084672Y-139192000D01*
X307612115Y-139192000D01*
X307596876Y-139196475D01*
X307595671Y-139197865D01*
X307594000Y-139205548D01*
X307594000Y-168637885D01*
X307086000Y-168637885D01*
X307086000Y-139210116D01*
X307081525Y-139194877D01*
X307080135Y-139193672D01*
X307072452Y-139192001D01*
X294595331Y-139192001D01*
X294588510Y-139192371D01*
X294537648Y-139197895D01*
X294522396Y-139201521D01*
X294401946Y-139246676D01*
X294386351Y-139255214D01*
X294284276Y-139331715D01*
X294271715Y-139344276D01*
X294195214Y-139446351D01*
X294186676Y-139461946D01*
X294141522Y-139582394D01*
X294137895Y-139597649D01*
X294132369Y-139648514D01*
X294132000Y-139655328D01*
X294132000Y-168637885D01*
X288479774Y-168637885D01*
X288540615Y-168556705D01*
X288591745Y-168420316D01*
X288598500Y-168358134D01*
X288598500Y-165761866D01*
X288591745Y-165699684D01*
X288540615Y-165563295D01*
X288453261Y-165446739D01*
X288336705Y-165359385D01*
X288200316Y-165308255D01*
X288138134Y-165301500D01*
X285541866Y-165301500D01*
X285479684Y-165308255D01*
X285343295Y-165359385D01*
X285226739Y-165446739D01*
X285139385Y-165563295D01*
X285088255Y-165699684D01*
X285081500Y-165761866D01*
X285081500Y-168358134D01*
X274827999Y-168358134D01*
X274827999Y-144700000D01*
X283286496Y-144700000D01*
X283287186Y-144706565D01*
X283305236Y-144878297D01*
X283306458Y-144889928D01*
X283365473Y-145071556D01*
X283368776Y-145077278D01*
X283368777Y-145077279D01*
X283399924Y-145131226D01*
X283460960Y-145236944D01*
X283465378Y-145241851D01*
X283465379Y-145241852D01*
X283498707Y-145278866D01*
X283588747Y-145378866D01*
X283743248Y-145491118D01*
X283749276Y-145493802D01*
X283749278Y-145493803D01*
X283911681Y-145566109D01*
X283917712Y-145568794D01*
X284011113Y-145588647D01*
X284098056Y-145607128D01*
X284098061Y-145607128D01*
X284104513Y-145608500D01*
X284295487Y-145608500D01*
X284301939Y-145607128D01*
X284301944Y-145607128D01*
X284388887Y-145588647D01*
X284482288Y-145568794D01*
X284488319Y-145566109D01*
X284650722Y-145493803D01*
X284650724Y-145493802D01*
X284656752Y-145491118D01*
X284811253Y-145378866D01*
X284850580Y-145335189D01*
X284911026Y-145297950D01*
X284944216Y-145293500D01*
X284955500Y-145293500D01*
X285023621Y-145313502D01*
X285070114Y-145367158D01*
X285081500Y-145419500D01*
X285081500Y-145958134D01*
X285088255Y-146020316D01*
X285139385Y-146156705D01*
X285226739Y-146273261D01*
X285343295Y-146360615D01*
X285479684Y-146411745D01*
X285541866Y-146418500D01*
X286080500Y-146418500D01*
X286148621Y-146438502D01*
X286195114Y-146492158D01*
X286206500Y-146544500D01*
X286206500Y-147775500D01*
X286186498Y-147843621D01*
X286132842Y-147890114D01*
X286080500Y-147901500D01*
X285541866Y-147901500D01*
X285479684Y-147908255D01*
X285343295Y-147959385D01*
X285226739Y-148046739D01*
X285139385Y-148163295D01*
X285088255Y-148299684D01*
X285081500Y-148361866D01*
X285081500Y-150958134D01*
X285088255Y-151020316D01*
X285139385Y-151156705D01*
X285226739Y-151273261D01*
X285343295Y-151360615D01*
X285479684Y-151411745D01*
X285541866Y-151418500D01*
X288138134Y-151418500D01*
X288200316Y-151411745D01*
X288336705Y-151360615D01*
X288453261Y-151273261D01*
X288540615Y-151156705D01*
X288591745Y-151020316D01*
X288598500Y-150958134D01*
X288598500Y-148361866D01*
X288591745Y-148299684D01*
X288540615Y-148163295D01*
X288453261Y-148046739D01*
X288336705Y-147959385D01*
X288200316Y-147908255D01*
X288138134Y-147901500D01*
X287599500Y-147901500D01*
X287531379Y-147881498D01*
X287484886Y-147827842D01*
X287473500Y-147775500D01*
X287473500Y-146544500D01*
X287493502Y-146476379D01*
X287547158Y-146429886D01*
X287599500Y-146418500D01*
X288138134Y-146418500D01*
X288200316Y-146411745D01*
X288336705Y-146360615D01*
X288453261Y-146273261D01*
X288540615Y-146156705D01*
X288591745Y-146020316D01*
X288598500Y-145958134D01*
X288598500Y-143361866D01*
X288591745Y-143299684D01*
X288540615Y-143163295D01*
X288453261Y-143046739D01*
X288336705Y-142959385D01*
X288200316Y-142908255D01*
X288138134Y-142901500D01*
X285541866Y-142901500D01*
X285479684Y-142908255D01*
X285343295Y-142959385D01*
X285226739Y-143046739D01*
X285139385Y-143163295D01*
X285088255Y-143299684D01*
X285081500Y-143361866D01*
X285081500Y-143900500D01*
X285061498Y-143968621D01*
X285007842Y-144015114D01*
X284955500Y-144026500D01*
X284859579Y-144026500D01*
X284791458Y-144006498D01*
X284785518Y-144002436D01*
X284662094Y-143912763D01*
X284662093Y-143912762D01*
X284656752Y-143908882D01*
X284650724Y-143906198D01*
X284650722Y-143906197D01*
X284488319Y-143833891D01*
X284488318Y-143833891D01*
X284482288Y-143831206D01*
X284388888Y-143811353D01*
X284301944Y-143792872D01*
X284301939Y-143792872D01*
X284295487Y-143791500D01*
X284104513Y-143791500D01*
X284098061Y-143792872D01*
X284098056Y-143792872D01*
X284011112Y-143811353D01*
X283917712Y-143831206D01*
X283911682Y-143833891D01*
X283911681Y-143833891D01*
X283749278Y-143906197D01*
X283749276Y-143906198D01*
X283743248Y-143908882D01*
X283737907Y-143912762D01*
X283737906Y-143912763D01*
X283719625Y-143926045D01*
X283588747Y-144021134D01*
X283584326Y-144026044D01*
X283584325Y-144026045D01*
X283541180Y-144073963D01*
X283460960Y-144163056D01*
X283365473Y-144328444D01*
X283306458Y-144510072D01*
X283286496Y-144700000D01*
X274827999Y-144700000D01*
X274827999Y-139655331D01*
X274827629Y-139648510D01*
X274822105Y-139597648D01*
X274818479Y-139582396D01*
X274773324Y-139461946D01*
X274764786Y-139446351D01*
X274688285Y-139344276D01*
X274675724Y-139331715D01*
X274573649Y-139255214D01*
X274558054Y-139246676D01*
X274437606Y-139201522D01*
X274422351Y-139197895D01*
X274371486Y-139192369D01*
X274364672Y-139192000D01*
X261892115Y-139192000D01*
X261876876Y-139196475D01*
X261875671Y-139197865D01*
X261874000Y-139205548D01*
X261874000Y-168637885D01*
X261366000Y-168637885D01*
X261366000Y-139210116D01*
X261361525Y-139194877D01*
X261360135Y-139193672D01*
X261352452Y-139192001D01*
X248875331Y-139192001D01*
X248868510Y-139192371D01*
X248817648Y-139197895D01*
X248802396Y-139201521D01*
X248681946Y-139246676D01*
X248666351Y-139255214D01*
X248564276Y-139331715D01*
X248551715Y-139344276D01*
X248475214Y-139446351D01*
X248466676Y-139461946D01*
X248421522Y-139582394D01*
X248417895Y-139597649D01*
X248412369Y-139648514D01*
X248412000Y-139655328D01*
X248412000Y-168637885D01*
X242759774Y-168637885D01*
X242820615Y-168556705D01*
X242871745Y-168420316D01*
X242878500Y-168358134D01*
X242878500Y-165761866D01*
X242871745Y-165699684D01*
X242820615Y-165563295D01*
X242733261Y-165446739D01*
X242616705Y-165359385D01*
X242480316Y-165308255D01*
X242418134Y-165301500D01*
X239821866Y-165301500D01*
X239759684Y-165308255D01*
X239623295Y-165359385D01*
X239506739Y-165446739D01*
X239419385Y-165563295D01*
X239368255Y-165699684D01*
X239361500Y-165761866D01*
X239361500Y-168358134D01*
X229108000Y-168358134D01*
X229108000Y-167912115D01*
X229103525Y-167896876D01*
X229102135Y-167895671D01*
X229094452Y-167894000D01*
X216172115Y-167894000D01*
X216156876Y-167898475D01*
X216155671Y-167899865D01*
X216154000Y-167907548D01*
X216154000Y-197339884D01*
X215646000Y-197339884D01*
X215646000Y-167912115D01*
X215641525Y-167896876D01*
X215640135Y-167895671D01*
X215632452Y-167894000D01*
X202710116Y-167894000D01*
X202694877Y-167898475D01*
X202693672Y-167899865D01*
X202692001Y-167907548D01*
X202692001Y-196894669D01*
X183388000Y-196894669D01*
X183388000Y-187400000D01*
X191286496Y-187400000D01*
X191306458Y-187589928D01*
X191365473Y-187771556D01*
X191460960Y-187936944D01*
X191465378Y-187941851D01*
X191465379Y-187941852D01*
X191533269Y-188017251D01*
X191588747Y-188078866D01*
X191743248Y-188191118D01*
X191749276Y-188193802D01*
X191749278Y-188193803D01*
X191841200Y-188234729D01*
X191917712Y-188268794D01*
X192011112Y-188288647D01*
X192098056Y-188307128D01*
X192098061Y-188307128D01*
X192104513Y-188308500D01*
X192295487Y-188308500D01*
X192301939Y-188307128D01*
X192301944Y-188307128D01*
X192388887Y-188288647D01*
X192482288Y-188268794D01*
X192558800Y-188234729D01*
X192650722Y-188193803D01*
X192650724Y-188193802D01*
X192656752Y-188191118D01*
X192811253Y-188078866D01*
X192823568Y-188065189D01*
X192884015Y-188027950D01*
X192917204Y-188023500D01*
X193515500Y-188023500D01*
X193583621Y-188043502D01*
X193630114Y-188097158D01*
X193641500Y-188149500D01*
X193641500Y-188688134D01*
X193648255Y-188750316D01*
X193699385Y-188886705D01*
X193786739Y-189003261D01*
X193903295Y-189090615D01*
X194039684Y-189141745D01*
X194101866Y-189148500D01*
X194640500Y-189148500D01*
X194708621Y-189168502D01*
X194755114Y-189222158D01*
X194766500Y-189274500D01*
X194766500Y-190505500D01*
X194746498Y-190573621D01*
X194692842Y-190620114D01*
X194640500Y-190631500D01*
X194101866Y-190631500D01*
X194039684Y-190638255D01*
X193903295Y-190689385D01*
X193786739Y-190776739D01*
X193699385Y-190893295D01*
X193648255Y-191029684D01*
X193641500Y-191091866D01*
X193641500Y-193688134D01*
X193648255Y-193750316D01*
X193699385Y-193886705D01*
X193786739Y-194003261D01*
X193903295Y-194090615D01*
X194039684Y-194141745D01*
X194101866Y-194148500D01*
X196698134Y-194148500D01*
X196760316Y-194141745D01*
X196896705Y-194090615D01*
X197013261Y-194003261D01*
X197100615Y-193886705D01*
X197151745Y-193750316D01*
X197158500Y-193688134D01*
X197158500Y-191091866D01*
X197151745Y-191029684D01*
X197100615Y-190893295D01*
X197013261Y-190776739D01*
X196896705Y-190689385D01*
X196760316Y-190638255D01*
X196698134Y-190631500D01*
X196159500Y-190631500D01*
X196091379Y-190611498D01*
X196044886Y-190557842D01*
X196033500Y-190505500D01*
X196033500Y-189274500D01*
X196053502Y-189206379D01*
X196107158Y-189159886D01*
X196159500Y-189148500D01*
X196698134Y-189148500D01*
X196760316Y-189141745D01*
X196896705Y-189090615D01*
X197013261Y-189003261D01*
X197100615Y-188886705D01*
X197151745Y-188750316D01*
X197158500Y-188688134D01*
X197158500Y-186091866D01*
X197151745Y-186029684D01*
X197100615Y-185893295D01*
X197013261Y-185776739D01*
X196896705Y-185689385D01*
X196760316Y-185638255D01*
X196698134Y-185631500D01*
X194101866Y-185631500D01*
X194039684Y-185638255D01*
X193903295Y-185689385D01*
X193786739Y-185776739D01*
X193699385Y-185893295D01*
X193648255Y-186029684D01*
X193641500Y-186091866D01*
X193641500Y-186630500D01*
X193621498Y-186698621D01*
X193567842Y-186745114D01*
X193515500Y-186756500D01*
X192897866Y-186756500D01*
X192829745Y-186736498D01*
X192814838Y-186725116D01*
X192811253Y-186721134D01*
X192656752Y-186608882D01*
X192650724Y-186606198D01*
X192650722Y-186606197D01*
X192488319Y-186533891D01*
X192488318Y-186533891D01*
X192482288Y-186531206D01*
X192388887Y-186511353D01*
X192301944Y-186492872D01*
X192301939Y-186492872D01*
X192295487Y-186491500D01*
X192104513Y-186491500D01*
X192098061Y-186492872D01*
X192098056Y-186492872D01*
X192011113Y-186511353D01*
X191917712Y-186531206D01*
X191911682Y-186533891D01*
X191911681Y-186533891D01*
X191749278Y-186606197D01*
X191749276Y-186606198D01*
X191743248Y-186608882D01*
X191588747Y-186721134D01*
X191460960Y-186863056D01*
X191365473Y-187028444D01*
X191306458Y-187210072D01*
X191305768Y-187216633D01*
X191305768Y-187216635D01*
X191296214Y-187307540D01*
X191286496Y-187400000D01*
X183388000Y-187400000D01*
X183388000Y-171088134D01*
X193641500Y-171088134D01*
X193648255Y-171150316D01*
X193699385Y-171286705D01*
X193786739Y-171403261D01*
X193903295Y-171490615D01*
X194039684Y-171541745D01*
X194101866Y-171548500D01*
X196698134Y-171548500D01*
X196760316Y-171541745D01*
X196896705Y-171490615D01*
X197013261Y-171403261D01*
X197100615Y-171286705D01*
X197151745Y-171150316D01*
X197158500Y-171088134D01*
X197158500Y-168491866D01*
X197151745Y-168429684D01*
X197100615Y-168293295D01*
X197013261Y-168176739D01*
X196896705Y-168089385D01*
X196760316Y-168038255D01*
X196698134Y-168031500D01*
X194101866Y-168031500D01*
X194039684Y-168038255D01*
X193903295Y-168089385D01*
X193786739Y-168176739D01*
X193699385Y-168293295D01*
X193648255Y-168429684D01*
X193641500Y-168491866D01*
X193641500Y-171088134D01*
X183388000Y-171088134D01*
X183388000Y-167912115D01*
X183383525Y-167896876D01*
X183382135Y-167895671D01*
X183374452Y-167894000D01*
X170452115Y-167894000D01*
X170436876Y-167898475D01*
X170435671Y-167899865D01*
X170434000Y-167907548D01*
X170434000Y-197339884D01*
X169926000Y-197339884D01*
X169926000Y-167912115D01*
X169921525Y-167896876D01*
X169920135Y-167895671D01*
X169912452Y-167894000D01*
X156990116Y-167894000D01*
X156974877Y-167898475D01*
X156973672Y-167899865D01*
X156972001Y-167907548D01*
X156972001Y-196894669D01*
X146685000Y-196894669D01*
X146685000Y-193688134D01*
X147921500Y-193688134D01*
X147928255Y-193750316D01*
X147979385Y-193886705D01*
X148066739Y-194003261D01*
X148183295Y-194090615D01*
X148319684Y-194141745D01*
X148381866Y-194148500D01*
X150978134Y-194148500D01*
X151040316Y-194141745D01*
X151176705Y-194090615D01*
X151293261Y-194003261D01*
X151380615Y-193886705D01*
X151431745Y-193750316D01*
X151438500Y-193688134D01*
X151438500Y-191091866D01*
X151431745Y-191029684D01*
X151380615Y-190893295D01*
X151293261Y-190776739D01*
X151176705Y-190689385D01*
X151040316Y-190638255D01*
X150978134Y-190631500D01*
X150439500Y-190631500D01*
X150371379Y-190611498D01*
X150324886Y-190557842D01*
X150313500Y-190505500D01*
X150313500Y-189274500D01*
X150333502Y-189206379D01*
X150387158Y-189159886D01*
X150439500Y-189148500D01*
X150978134Y-189148500D01*
X151040316Y-189141745D01*
X151176705Y-189090615D01*
X151293261Y-189003261D01*
X151380615Y-188886705D01*
X151431745Y-188750316D01*
X151438500Y-188688134D01*
X151438500Y-186091866D01*
X151431745Y-186029684D01*
X151380615Y-185893295D01*
X151293261Y-185776739D01*
X151176705Y-185689385D01*
X151040316Y-185638255D01*
X150978134Y-185631500D01*
X150439500Y-185631500D01*
X150371379Y-185611498D01*
X150324886Y-185557842D01*
X150313500Y-185505500D01*
X150313500Y-183711862D01*
X150333502Y-183643741D01*
X150335340Y-183641053D01*
X150339040Y-183636944D01*
X150434527Y-183471556D01*
X150493542Y-183289928D01*
X150513504Y-183100000D01*
X150493542Y-182910072D01*
X150434527Y-182728444D01*
X150339040Y-182563056D01*
X150211253Y-182421134D01*
X150056752Y-182308882D01*
X150050724Y-182306198D01*
X150050722Y-182306197D01*
X149888319Y-182233891D01*
X149888318Y-182233891D01*
X149882288Y-182231206D01*
X149788887Y-182211353D01*
X149701944Y-182192872D01*
X149701939Y-182192872D01*
X149695487Y-182191500D01*
X149504513Y-182191500D01*
X149498061Y-182192872D01*
X149498056Y-182192872D01*
X149411113Y-182211353D01*
X149317712Y-182231206D01*
X149311682Y-182233891D01*
X149311681Y-182233891D01*
X149149278Y-182306197D01*
X149149276Y-182306198D01*
X149143248Y-182308882D01*
X148988747Y-182421134D01*
X148860960Y-182563056D01*
X148765473Y-182728444D01*
X148706458Y-182910072D01*
X148686496Y-183100000D01*
X148706458Y-183289928D01*
X148765473Y-183471556D01*
X148860960Y-183636944D01*
X148988747Y-183778866D01*
X148994561Y-183783090D01*
X148994767Y-183783357D01*
X148998998Y-183787167D01*
X148998301Y-183787941D01*
X149037914Y-183839311D01*
X149046500Y-183885026D01*
X149046500Y-185505500D01*
X149026498Y-185573621D01*
X148972842Y-185620114D01*
X148920500Y-185631500D01*
X148381866Y-185631500D01*
X148319684Y-185638255D01*
X148183295Y-185689385D01*
X148066739Y-185776739D01*
X147979385Y-185893295D01*
X147928255Y-186029684D01*
X147921500Y-186091866D01*
X147921500Y-188688134D01*
X147928255Y-188750316D01*
X147979385Y-188886705D01*
X148066739Y-189003261D01*
X148183295Y-189090615D01*
X148319684Y-189141745D01*
X148381866Y-189148500D01*
X148920500Y-189148500D01*
X148988621Y-189168502D01*
X149035114Y-189222158D01*
X149046500Y-189274500D01*
X149046500Y-190505500D01*
X149026498Y-190573621D01*
X148972842Y-190620114D01*
X148920500Y-190631500D01*
X148381866Y-190631500D01*
X148319684Y-190638255D01*
X148183295Y-190689385D01*
X148066739Y-190776739D01*
X147979385Y-190893295D01*
X147928255Y-191029684D01*
X147921500Y-191091866D01*
X147921500Y-193688134D01*
X146685000Y-193688134D01*
X146685000Y-171088134D01*
X147921500Y-171088134D01*
X147928255Y-171150316D01*
X147979385Y-171286705D01*
X148066739Y-171403261D01*
X148183295Y-171490615D01*
X148319684Y-171541745D01*
X148381866Y-171548500D01*
X150978134Y-171548500D01*
X151040316Y-171541745D01*
X151176705Y-171490615D01*
X151293261Y-171403261D01*
X151380615Y-171286705D01*
X151431745Y-171150316D01*
X151438500Y-171088134D01*
X151438500Y-168491866D01*
X151431745Y-168429684D01*
X151380615Y-168293295D01*
X151293261Y-168176739D01*
X151176705Y-168089385D01*
X151040316Y-168038255D01*
X150978134Y-168031500D01*
X148381866Y-168031500D01*
X148319684Y-168038255D01*
X148183295Y-168089385D01*
X148066739Y-168176739D01*
X147979385Y-168293295D01*
X147928255Y-168429684D01*
X147921500Y-168491866D01*
X147921500Y-171088134D01*
X146685000Y-171088134D01*
X146685000Y-167088134D01*
X147921500Y-167088134D01*
X147928255Y-167150316D01*
X147979385Y-167286705D01*
X148066739Y-167403261D01*
X148183295Y-167490615D01*
X148319684Y-167541745D01*
X148381866Y-167548500D01*
X150978134Y-167548500D01*
X151040316Y-167541745D01*
X151176705Y-167490615D01*
X151293261Y-167403261D01*
X151319774Y-167367885D01*
X156972000Y-167367885D01*
X156976475Y-167383124D01*
X156977865Y-167384329D01*
X156985548Y-167386000D01*
X169907885Y-167386000D01*
X169923124Y-167381525D01*
X169924329Y-167380135D01*
X169926000Y-167372452D01*
X169926000Y-167367885D01*
X170434000Y-167367885D01*
X170438475Y-167383124D01*
X170439865Y-167384329D01*
X170447548Y-167386000D01*
X183369884Y-167386000D01*
X183385123Y-167381525D01*
X183386328Y-167380135D01*
X183387999Y-167372452D01*
X183387999Y-167088134D01*
X193641500Y-167088134D01*
X193648255Y-167150316D01*
X193699385Y-167286705D01*
X193786739Y-167403261D01*
X193903295Y-167490615D01*
X194039684Y-167541745D01*
X194101866Y-167548500D01*
X196698134Y-167548500D01*
X196760316Y-167541745D01*
X196896705Y-167490615D01*
X197013261Y-167403261D01*
X197039774Y-167367885D01*
X202692000Y-167367885D01*
X202696475Y-167383124D01*
X202697865Y-167384329D01*
X202705548Y-167386000D01*
X215627885Y-167386000D01*
X215643124Y-167381525D01*
X215644329Y-167380135D01*
X215646000Y-167372452D01*
X215646000Y-167367885D01*
X216154000Y-167367885D01*
X216158475Y-167383124D01*
X216159865Y-167384329D01*
X216167548Y-167386000D01*
X229089884Y-167386000D01*
X229105123Y-167381525D01*
X229106328Y-167380135D01*
X229107999Y-167372452D01*
X229107999Y-144700000D01*
X237286496Y-144700000D01*
X237287186Y-144706565D01*
X237305236Y-144878297D01*
X237306458Y-144889928D01*
X237365473Y-145071556D01*
X237368776Y-145077278D01*
X237368777Y-145077279D01*
X237399924Y-145131226D01*
X237460960Y-145236944D01*
X237465378Y-145241851D01*
X237465379Y-145241852D01*
X237498707Y-145278866D01*
X237588747Y-145378866D01*
X237743248Y-145491118D01*
X237749276Y-145493802D01*
X237749278Y-145493803D01*
X237911681Y-145566109D01*
X237917712Y-145568794D01*
X238011113Y-145588647D01*
X238098056Y-145607128D01*
X238098061Y-145607128D01*
X238104513Y-145608500D01*
X238295487Y-145608500D01*
X238301939Y-145607128D01*
X238301944Y-145607128D01*
X238388887Y-145588647D01*
X238482288Y-145568794D01*
X238488319Y-145566109D01*
X238650722Y-145493803D01*
X238650724Y-145493802D01*
X238656752Y-145491118D01*
X238811253Y-145378866D01*
X238850580Y-145335189D01*
X238911026Y-145297950D01*
X238944216Y-145293500D01*
X239235500Y-145293500D01*
X239303621Y-145313502D01*
X239350114Y-145367158D01*
X239361500Y-145419500D01*
X239361500Y-145958134D01*
X239368255Y-146020316D01*
X239419385Y-146156705D01*
X239506739Y-146273261D01*
X239623295Y-146360615D01*
X239759684Y-146411745D01*
X239821866Y-146418500D01*
X240360500Y-146418500D01*
X240428621Y-146438502D01*
X240475114Y-146492158D01*
X240486500Y-146544500D01*
X240486500Y-147775500D01*
X240466498Y-147843621D01*
X240412842Y-147890114D01*
X240360500Y-147901500D01*
X239821866Y-147901500D01*
X239759684Y-147908255D01*
X239623295Y-147959385D01*
X239506739Y-148046739D01*
X239419385Y-148163295D01*
X239368255Y-148299684D01*
X239361500Y-148361866D01*
X239361500Y-150958134D01*
X239368255Y-151020316D01*
X239419385Y-151156705D01*
X239506739Y-151273261D01*
X239623295Y-151360615D01*
X239759684Y-151411745D01*
X239821866Y-151418500D01*
X242418134Y-151418500D01*
X242480316Y-151411745D01*
X242616705Y-151360615D01*
X242733261Y-151273261D01*
X242820615Y-151156705D01*
X242871745Y-151020316D01*
X242878500Y-150958134D01*
X242878500Y-148361866D01*
X242871745Y-148299684D01*
X242820615Y-148163295D01*
X242733261Y-148046739D01*
X242616705Y-147959385D01*
X242480316Y-147908255D01*
X242418134Y-147901500D01*
X241879500Y-147901500D01*
X241811379Y-147881498D01*
X241764886Y-147827842D01*
X241753500Y-147775500D01*
X241753500Y-146544500D01*
X241773502Y-146476379D01*
X241827158Y-146429886D01*
X241879500Y-146418500D01*
X242418134Y-146418500D01*
X242480316Y-146411745D01*
X242616705Y-146360615D01*
X242733261Y-146273261D01*
X242820615Y-146156705D01*
X242871745Y-146020316D01*
X242878500Y-145958134D01*
X242878500Y-143361866D01*
X242871745Y-143299684D01*
X242820615Y-143163295D01*
X242733261Y-143046739D01*
X242616705Y-142959385D01*
X242480316Y-142908255D01*
X242418134Y-142901500D01*
X239821866Y-142901500D01*
X239759684Y-142908255D01*
X239623295Y-142959385D01*
X239506739Y-143046739D01*
X239419385Y-143163295D01*
X239368255Y-143299684D01*
X239361500Y-143361866D01*
X239361500Y-143900500D01*
X239341498Y-143968621D01*
X239287842Y-144015114D01*
X239235500Y-144026500D01*
X238859579Y-144026500D01*
X238791458Y-144006498D01*
X238785518Y-144002436D01*
X238662094Y-143912763D01*
X238662093Y-143912762D01*
X238656752Y-143908882D01*
X238650724Y-143906198D01*
X238650722Y-143906197D01*
X238488319Y-143833891D01*
X238488318Y-143833891D01*
X238482288Y-143831206D01*
X238388888Y-143811353D01*
X238301944Y-143792872D01*
X238301939Y-143792872D01*
X238295487Y-143791500D01*
X238104513Y-143791500D01*
X238098061Y-143792872D01*
X238098056Y-143792872D01*
X238011112Y-143811353D01*
X237917712Y-143831206D01*
X237911682Y-143833891D01*
X237911681Y-143833891D01*
X237749278Y-143906197D01*
X237749276Y-143906198D01*
X237743248Y-143908882D01*
X237737907Y-143912762D01*
X237737906Y-143912763D01*
X237719625Y-143926045D01*
X237588747Y-144021134D01*
X237584326Y-144026044D01*
X237584325Y-144026045D01*
X237541180Y-144073963D01*
X237460960Y-144163056D01*
X237365473Y-144328444D01*
X237306458Y-144510072D01*
X237286496Y-144700000D01*
X229107999Y-144700000D01*
X229107999Y-138385331D01*
X229107629Y-138378510D01*
X229102105Y-138327648D01*
X229098479Y-138312396D01*
X229053324Y-138191946D01*
X229044786Y-138176351D01*
X228968285Y-138074276D01*
X228955724Y-138061715D01*
X228853649Y-137985214D01*
X228838054Y-137976676D01*
X228717606Y-137931522D01*
X228702351Y-137927895D01*
X228651486Y-137922369D01*
X228644672Y-137922000D01*
X216172115Y-137922000D01*
X216156876Y-137926475D01*
X216155671Y-137927865D01*
X216154000Y-137935548D01*
X216154000Y-167367885D01*
X215646000Y-167367885D01*
X215646000Y-137940116D01*
X215641525Y-137924877D01*
X215640135Y-137923672D01*
X215632452Y-137922001D01*
X203155331Y-137922001D01*
X203148510Y-137922371D01*
X203097648Y-137927895D01*
X203082396Y-137931521D01*
X202961946Y-137976676D01*
X202946351Y-137985214D01*
X202844276Y-138061715D01*
X202831715Y-138074276D01*
X202755214Y-138176351D01*
X202746676Y-138191946D01*
X202701522Y-138312394D01*
X202697895Y-138327649D01*
X202692369Y-138378514D01*
X202692000Y-138385328D01*
X202692000Y-167367885D01*
X197039774Y-167367885D01*
X197100615Y-167286705D01*
X197151745Y-167150316D01*
X197158500Y-167088134D01*
X197158500Y-164491866D01*
X197151745Y-164429684D01*
X197100615Y-164293295D01*
X197013261Y-164176739D01*
X196896705Y-164089385D01*
X196760316Y-164038255D01*
X196698134Y-164031500D01*
X194101866Y-164031500D01*
X194039684Y-164038255D01*
X193903295Y-164089385D01*
X193786739Y-164176739D01*
X193699385Y-164293295D01*
X193648255Y-164429684D01*
X193641500Y-164491866D01*
X193641500Y-167088134D01*
X183387999Y-167088134D01*
X183387999Y-143400000D01*
X191486496Y-143400000D01*
X191506458Y-143589928D01*
X191565473Y-143771556D01*
X191660960Y-143936944D01*
X191665378Y-143941851D01*
X191665379Y-143941852D01*
X191733269Y-144017251D01*
X191788747Y-144078866D01*
X191943248Y-144191118D01*
X191949276Y-144193802D01*
X191949278Y-144193803D01*
X192041200Y-144234729D01*
X192117712Y-144268794D01*
X192211113Y-144288647D01*
X192298056Y-144307128D01*
X192298061Y-144307128D01*
X192304513Y-144308500D01*
X192495487Y-144308500D01*
X192501939Y-144307128D01*
X192501944Y-144307128D01*
X192588887Y-144288647D01*
X192682288Y-144268794D01*
X192758800Y-144234729D01*
X192850722Y-144193803D01*
X192850724Y-144193802D01*
X192856752Y-144191118D01*
X193011253Y-144078866D01*
X193023568Y-144065189D01*
X193084015Y-144027950D01*
X193117204Y-144023500D01*
X193515500Y-144023500D01*
X193583621Y-144043502D01*
X193630114Y-144097158D01*
X193641500Y-144149500D01*
X193641500Y-144688134D01*
X193648255Y-144750316D01*
X193699385Y-144886705D01*
X193786739Y-145003261D01*
X193903295Y-145090615D01*
X194039684Y-145141745D01*
X194101866Y-145148500D01*
X194640500Y-145148500D01*
X194708621Y-145168502D01*
X194755114Y-145222158D01*
X194766500Y-145274500D01*
X194766500Y-146505500D01*
X194746498Y-146573621D01*
X194692842Y-146620114D01*
X194640500Y-146631500D01*
X194101866Y-146631500D01*
X194039684Y-146638255D01*
X193903295Y-146689385D01*
X193786739Y-146776739D01*
X193699385Y-146893295D01*
X193648255Y-147029684D01*
X193641500Y-147091866D01*
X193641500Y-149688134D01*
X193648255Y-149750316D01*
X193699385Y-149886705D01*
X193786739Y-150003261D01*
X193903295Y-150090615D01*
X194039684Y-150141745D01*
X194101866Y-150148500D01*
X196698134Y-150148500D01*
X196760316Y-150141745D01*
X196896705Y-150090615D01*
X197013261Y-150003261D01*
X197100615Y-149886705D01*
X197151745Y-149750316D01*
X197158500Y-149688134D01*
X197158500Y-147091866D01*
X197151745Y-147029684D01*
X197100615Y-146893295D01*
X197013261Y-146776739D01*
X196896705Y-146689385D01*
X196760316Y-146638255D01*
X196698134Y-146631500D01*
X196159500Y-146631500D01*
X196091379Y-146611498D01*
X196044886Y-146557842D01*
X196033500Y-146505500D01*
X196033500Y-145274500D01*
X196053502Y-145206379D01*
X196107158Y-145159886D01*
X196159500Y-145148500D01*
X196698134Y-145148500D01*
X196760316Y-145141745D01*
X196896705Y-145090615D01*
X197013261Y-145003261D01*
X197100615Y-144886705D01*
X197151745Y-144750316D01*
X197158500Y-144688134D01*
X197158500Y-142091866D01*
X197151745Y-142029684D01*
X197100615Y-141893295D01*
X197013261Y-141776739D01*
X196896705Y-141689385D01*
X196760316Y-141638255D01*
X196698134Y-141631500D01*
X194101866Y-141631500D01*
X194039684Y-141638255D01*
X193903295Y-141689385D01*
X193786739Y-141776739D01*
X193699385Y-141893295D01*
X193648255Y-142029684D01*
X193641500Y-142091866D01*
X193641500Y-142630500D01*
X193621498Y-142698621D01*
X193567842Y-142745114D01*
X193515500Y-142756500D01*
X193097866Y-142756500D01*
X193029745Y-142736498D01*
X193014838Y-142725116D01*
X193011253Y-142721134D01*
X192856752Y-142608882D01*
X192850724Y-142606198D01*
X192850722Y-142606197D01*
X192688319Y-142533891D01*
X192688318Y-142533891D01*
X192682288Y-142531206D01*
X192588888Y-142511353D01*
X192501944Y-142492872D01*
X192501939Y-142492872D01*
X192495487Y-142491500D01*
X192304513Y-142491500D01*
X192298061Y-142492872D01*
X192298056Y-142492872D01*
X192211112Y-142511353D01*
X192117712Y-142531206D01*
X192111682Y-142533891D01*
X192111681Y-142533891D01*
X191949278Y-142606197D01*
X191949276Y-142606198D01*
X191943248Y-142608882D01*
X191788747Y-142721134D01*
X191660960Y-142863056D01*
X191565473Y-143028444D01*
X191506458Y-143210072D01*
X191505768Y-143216633D01*
X191505768Y-143216635D01*
X191496214Y-143307540D01*
X191486496Y-143400000D01*
X183387999Y-143400000D01*
X183387999Y-138385331D01*
X183387629Y-138378510D01*
X183382105Y-138327648D01*
X183378479Y-138312396D01*
X183333324Y-138191946D01*
X183324786Y-138176351D01*
X183248285Y-138074276D01*
X183235724Y-138061715D01*
X183133649Y-137985214D01*
X183118054Y-137976676D01*
X182997606Y-137931522D01*
X182982351Y-137927895D01*
X182931486Y-137922369D01*
X182924672Y-137922000D01*
X170452115Y-137922000D01*
X170436876Y-137926475D01*
X170435671Y-137927865D01*
X170434000Y-137935548D01*
X170434000Y-167367885D01*
X169926000Y-167367885D01*
X169926000Y-137940116D01*
X169921525Y-137924877D01*
X169920135Y-137923672D01*
X169912452Y-137922001D01*
X157435331Y-137922001D01*
X157428510Y-137922371D01*
X157377648Y-137927895D01*
X157362396Y-137931521D01*
X157241946Y-137976676D01*
X157226351Y-137985214D01*
X157124276Y-138061715D01*
X157111715Y-138074276D01*
X157035214Y-138176351D01*
X157026676Y-138191946D01*
X156981522Y-138312394D01*
X156977895Y-138327649D01*
X156972369Y-138378514D01*
X156972000Y-138385328D01*
X156972000Y-167367885D01*
X151319774Y-167367885D01*
X151380615Y-167286705D01*
X151431745Y-167150316D01*
X151438500Y-167088134D01*
X151438500Y-164491866D01*
X151431745Y-164429684D01*
X151380615Y-164293295D01*
X151293261Y-164176739D01*
X151176705Y-164089385D01*
X151040316Y-164038255D01*
X150978134Y-164031500D01*
X148381866Y-164031500D01*
X148319684Y-164038255D01*
X148183295Y-164089385D01*
X148066739Y-164176739D01*
X147979385Y-164293295D01*
X147928255Y-164429684D01*
X147921500Y-164491866D01*
X147921500Y-167088134D01*
X146685000Y-167088134D01*
X146685000Y-149688134D01*
X147921500Y-149688134D01*
X147928255Y-149750316D01*
X147979385Y-149886705D01*
X148066739Y-150003261D01*
X148183295Y-150090615D01*
X148319684Y-150141745D01*
X148381866Y-150148500D01*
X150978134Y-150148500D01*
X151040316Y-150141745D01*
X151176705Y-150090615D01*
X151293261Y-150003261D01*
X151380615Y-149886705D01*
X151431745Y-149750316D01*
X151438500Y-149688134D01*
X151438500Y-147091866D01*
X151431745Y-147029684D01*
X151380615Y-146893295D01*
X151293261Y-146776739D01*
X151176705Y-146689385D01*
X151040316Y-146638255D01*
X150978134Y-146631500D01*
X150439500Y-146631500D01*
X150371379Y-146611498D01*
X150324886Y-146557842D01*
X150313500Y-146505500D01*
X150313500Y-145274500D01*
X150333502Y-145206379D01*
X150387158Y-145159886D01*
X150439500Y-145148500D01*
X150978134Y-145148500D01*
X151040316Y-145141745D01*
X151176705Y-145090615D01*
X151293261Y-145003261D01*
X151380615Y-144886705D01*
X151431745Y-144750316D01*
X151438500Y-144688134D01*
X151438500Y-142091866D01*
X151431745Y-142029684D01*
X151380615Y-141893295D01*
X151293261Y-141776739D01*
X151176705Y-141689385D01*
X151040316Y-141638255D01*
X150978134Y-141631500D01*
X150439500Y-141631500D01*
X150371379Y-141611498D01*
X150324886Y-141557842D01*
X150313500Y-141505500D01*
X150313500Y-140324737D01*
X150333502Y-140256616D01*
X150345864Y-140240426D01*
X150353500Y-140231946D01*
X150439040Y-140136944D01*
X150534527Y-139971556D01*
X150593542Y-139789928D01*
X150608406Y-139648510D01*
X150612814Y-139606565D01*
X150613504Y-139600000D01*
X150593542Y-139410072D01*
X150534527Y-139228444D01*
X150516890Y-139197895D01*
X150442341Y-139068774D01*
X150439040Y-139063056D01*
X150311253Y-138921134D01*
X150156752Y-138808882D01*
X150150724Y-138806198D01*
X150150722Y-138806197D01*
X149988319Y-138733891D01*
X149988318Y-138733891D01*
X149982288Y-138731206D01*
X149888888Y-138711353D01*
X149801944Y-138692872D01*
X149801939Y-138692872D01*
X149795487Y-138691500D01*
X149604513Y-138691500D01*
X149598061Y-138692872D01*
X149598056Y-138692872D01*
X149511112Y-138711353D01*
X149417712Y-138731206D01*
X149411682Y-138733891D01*
X149411681Y-138733891D01*
X149249278Y-138806197D01*
X149249276Y-138806198D01*
X149243248Y-138808882D01*
X149088747Y-138921134D01*
X148960960Y-139063056D01*
X148957659Y-139068774D01*
X148883111Y-139197895D01*
X148865473Y-139228444D01*
X148806458Y-139410072D01*
X148786496Y-139600000D01*
X148787186Y-139606565D01*
X148791595Y-139648510D01*
X148806458Y-139789928D01*
X148865473Y-139971556D01*
X148960960Y-140136944D01*
X148965378Y-140141851D01*
X148965379Y-140141852D01*
X149014136Y-140196002D01*
X149044854Y-140260009D01*
X149046500Y-140280312D01*
X149046500Y-141505500D01*
X149026498Y-141573621D01*
X148972842Y-141620114D01*
X148920500Y-141631500D01*
X148381866Y-141631500D01*
X148319684Y-141638255D01*
X148183295Y-141689385D01*
X148066739Y-141776739D01*
X147979385Y-141893295D01*
X147928255Y-142029684D01*
X147921500Y-142091866D01*
X147921500Y-144688134D01*
X147928255Y-144750316D01*
X147979385Y-144886705D01*
X148066739Y-145003261D01*
X148183295Y-145090615D01*
X148319684Y-145141745D01*
X148381866Y-145148500D01*
X148920500Y-145148500D01*
X148988621Y-145168502D01*
X149035114Y-145222158D01*
X149046500Y-145274500D01*
X149046500Y-146505500D01*
X149026498Y-146573621D01*
X148972842Y-146620114D01*
X148920500Y-146631500D01*
X148381866Y-146631500D01*
X148319684Y-146638255D01*
X148183295Y-146689385D01*
X148066739Y-146776739D01*
X147979385Y-146893295D01*
X147928255Y-147029684D01*
X147921500Y-147091866D01*
X147921500Y-149688134D01*
X146685000Y-149688134D01*
X146685000Y-131960000D01*
X253881832Y-131960000D01*
X253900523Y-132197494D01*
X253901677Y-132202301D01*
X253901678Y-132202307D01*
X253935215Y-132341998D01*
X253956136Y-132429140D01*
X253958029Y-132433711D01*
X253958030Y-132433713D01*
X253986598Y-132502681D01*
X254047302Y-132649234D01*
X254171776Y-132852357D01*
X254326493Y-133033507D01*
X254507643Y-133188224D01*
X254710766Y-133312698D01*
X254715336Y-133314591D01*
X254715340Y-133314593D01*
X254926287Y-133401970D01*
X254930860Y-133403864D01*
X255010969Y-133423096D01*
X255157693Y-133458322D01*
X255157699Y-133458323D01*
X255162506Y-133459477D01*
X255400000Y-133478168D01*
X255637494Y-133459477D01*
X255642301Y-133458323D01*
X255642307Y-133458322D01*
X255789031Y-133423096D01*
X255869140Y-133403864D01*
X255873713Y-133401970D01*
X256084660Y-133314593D01*
X256084664Y-133314591D01*
X256089234Y-133312698D01*
X256292357Y-133188224D01*
X256473507Y-133033507D01*
X256628224Y-132852357D01*
X256752698Y-132649234D01*
X256813403Y-132502681D01*
X256841970Y-132433713D01*
X256841971Y-132433711D01*
X256843864Y-132429140D01*
X256864785Y-132341998D01*
X256898322Y-132202307D01*
X256898323Y-132202301D01*
X256899477Y-132197494D01*
X256914233Y-132010000D01*
X354485583Y-132010000D01*
X354485971Y-132014930D01*
X354485971Y-132014933D01*
X354492156Y-132093515D01*
X354504228Y-132246907D01*
X354505382Y-132251714D01*
X354505383Y-132251720D01*
X354536210Y-132380120D01*
X354559704Y-132477981D01*
X354561597Y-132482552D01*
X354561598Y-132482554D01*
X354632388Y-132653454D01*
X354650645Y-132697531D01*
X354774811Y-132900152D01*
X354929145Y-133080855D01*
X355109848Y-133235189D01*
X355312469Y-133359355D01*
X355317039Y-133361248D01*
X355317043Y-133361250D01*
X355527446Y-133448402D01*
X355527448Y-133448403D01*
X355532019Y-133450296D01*
X355565450Y-133458322D01*
X355758280Y-133504617D01*
X355758286Y-133504618D01*
X355763093Y-133505772D01*
X356000000Y-133524417D01*
X356236907Y-133505772D01*
X356241714Y-133504618D01*
X356241720Y-133504617D01*
X356434550Y-133458322D01*
X356467981Y-133450296D01*
X356472552Y-133448403D01*
X356472554Y-133448402D01*
X356682957Y-133361250D01*
X356682961Y-133361248D01*
X356687531Y-133359355D01*
X356890152Y-133235189D01*
X357070855Y-133080855D01*
X357225189Y-132900152D01*
X357349355Y-132697531D01*
X357367613Y-132653454D01*
X357438402Y-132482554D01*
X357438403Y-132482552D01*
X357440296Y-132477981D01*
X357463790Y-132380120D01*
X357494617Y-132251720D01*
X357494618Y-132251714D01*
X357495772Y-132246907D01*
X357514417Y-132010000D01*
X396581832Y-132010000D01*
X396600523Y-132247494D01*
X396601677Y-132252301D01*
X396601678Y-132252307D01*
X396634524Y-132389121D01*
X396656136Y-132479140D01*
X396658029Y-132483711D01*
X396658030Y-132483713D01*
X396724697Y-132644660D01*
X396747302Y-132699234D01*
X396871776Y-132902357D01*
X397026493Y-133083507D01*
X397207643Y-133238224D01*
X397410766Y-133362698D01*
X397415336Y-133364591D01*
X397415340Y-133364593D01*
X397626287Y-133451970D01*
X397630860Y-133453864D01*
X397710969Y-133473096D01*
X397857693Y-133508322D01*
X397857699Y-133508323D01*
X397862506Y-133509477D01*
X398100000Y-133528168D01*
X398337494Y-133509477D01*
X398342301Y-133508323D01*
X398342307Y-133508322D01*
X398489031Y-133473096D01*
X398569140Y-133453864D01*
X398573713Y-133451970D01*
X398784660Y-133364593D01*
X398784664Y-133364591D01*
X398789234Y-133362698D01*
X398992357Y-133238224D01*
X399173507Y-133083507D01*
X399328224Y-132902357D01*
X399452698Y-132699234D01*
X399475304Y-132644660D01*
X399541970Y-132483713D01*
X399541971Y-132483711D01*
X399543864Y-132479140D01*
X399565476Y-132389121D01*
X399598322Y-132252307D01*
X399598323Y-132252301D01*
X399599477Y-132247494D01*
X399618168Y-132010000D01*
X399599477Y-131772506D01*
X399592759Y-131744521D01*
X399549106Y-131562694D01*
X399543864Y-131540860D01*
X399530791Y-131509299D01*
X399454593Y-131325340D01*
X399454591Y-131325336D01*
X399452698Y-131320766D01*
X399328224Y-131117643D01*
X399173507Y-130936493D01*
X398992357Y-130781776D01*
X398789234Y-130657302D01*
X398784664Y-130655409D01*
X398784660Y-130655407D01*
X398573713Y-130568030D01*
X398573711Y-130568029D01*
X398569140Y-130566136D01*
X398489031Y-130546904D01*
X398342307Y-130511678D01*
X398342301Y-130511677D01*
X398337494Y-130510523D01*
X398100000Y-130491832D01*
X397862506Y-130510523D01*
X397857699Y-130511677D01*
X397857693Y-130511678D01*
X397710969Y-130546904D01*
X397630860Y-130566136D01*
X397626289Y-130568029D01*
X397626287Y-130568030D01*
X397415340Y-130655407D01*
X397415336Y-130655409D01*
X397410766Y-130657302D01*
X397207643Y-130781776D01*
X397026493Y-130936493D01*
X396871776Y-131117643D01*
X396747302Y-131320766D01*
X396745409Y-131325336D01*
X396745407Y-131325340D01*
X396669209Y-131509299D01*
X396656136Y-131540860D01*
X396650894Y-131562694D01*
X396607242Y-131744521D01*
X396600523Y-131772506D01*
X396582309Y-132003934D01*
X396581832Y-132010000D01*
X357514417Y-132010000D01*
X357495772Y-131773093D01*
X357488913Y-131744521D01*
X357459634Y-131622567D01*
X357440296Y-131542019D01*
X357437922Y-131536287D01*
X357351250Y-131327043D01*
X357351248Y-131327039D01*
X357349355Y-131322469D01*
X357225189Y-131119848D01*
X357070855Y-130939145D01*
X356890152Y-130784811D01*
X356687531Y-130660645D01*
X356682961Y-130658752D01*
X356682957Y-130658750D01*
X356472554Y-130571598D01*
X356472552Y-130571597D01*
X356467981Y-130569704D01*
X356387433Y-130550366D01*
X356241720Y-130515383D01*
X356241714Y-130515382D01*
X356236907Y-130514228D01*
X356000000Y-130495583D01*
X355763093Y-130514228D01*
X355758286Y-130515382D01*
X355758280Y-130515383D01*
X355612567Y-130550366D01*
X355532019Y-130569704D01*
X355527448Y-130571597D01*
X355527446Y-130571598D01*
X355317043Y-130658750D01*
X355317039Y-130658752D01*
X355312469Y-130660645D01*
X355109848Y-130784811D01*
X354929145Y-130939145D01*
X354774811Y-131119848D01*
X354650645Y-131322469D01*
X354648752Y-131327039D01*
X354648750Y-131327043D01*
X354562078Y-131536287D01*
X354559704Y-131542019D01*
X354540366Y-131622567D01*
X354511088Y-131744521D01*
X354504228Y-131773093D01*
X354489996Y-131953934D01*
X354486057Y-132003980D01*
X354486055Y-132003980D01*
X354486056Y-132003988D01*
X354485583Y-132010000D01*
X256914233Y-132010000D01*
X256918168Y-131960000D01*
X256899477Y-131722506D01*
X256878677Y-131635865D01*
X256845019Y-131495672D01*
X256843864Y-131490860D01*
X256776009Y-131327043D01*
X256754593Y-131275340D01*
X256754591Y-131275336D01*
X256752698Y-131270766D01*
X256628224Y-131067643D01*
X256473507Y-130886493D01*
X256292357Y-130731776D01*
X256089234Y-130607302D01*
X256084664Y-130605409D01*
X256084660Y-130605407D01*
X255873713Y-130518030D01*
X255873711Y-130518029D01*
X255869140Y-130516136D01*
X255767906Y-130491832D01*
X255642307Y-130461678D01*
X255642301Y-130461677D01*
X255637494Y-130460523D01*
X255400000Y-130441832D01*
X255162506Y-130460523D01*
X255157699Y-130461677D01*
X255157693Y-130461678D01*
X255032094Y-130491832D01*
X254930860Y-130516136D01*
X254926289Y-130518029D01*
X254926287Y-130518030D01*
X254715340Y-130605407D01*
X254715336Y-130605409D01*
X254710766Y-130607302D01*
X254507643Y-130731776D01*
X254326493Y-130886493D01*
X254171776Y-131067643D01*
X254047302Y-131270766D01*
X254045409Y-131275336D01*
X254045407Y-131275340D01*
X254023991Y-131327043D01*
X253956136Y-131490860D01*
X253954981Y-131495672D01*
X253921324Y-131635865D01*
X253900523Y-131722506D01*
X253882309Y-131953934D01*
X253881832Y-131960000D01*
X146685000Y-131960000D01*
X146685000Y-128396000D01*
X146705002Y-128327879D01*
X146758658Y-128281386D01*
X146811000Y-128270000D01*
X445665500Y-128270000D01*
X445733621Y-128290002D01*
G37*
G04 #@! TD.AperFunction*
M02*
