G04 #@! TF.GenerationSoftware,KiCad,Pcbnew,(6.0.4-0)*
G04 #@! TF.CreationDate,2022-06-29T10:25:00-05:00*
G04 #@! TF.ProjectId,X+,582b2e6b-6963-4616-945f-706362585858,4*
G04 #@! TF.SameCoordinates,Original*
G04 #@! TF.FileFunction,Legend,Top*
G04 #@! TF.FilePolarity,Positive*
%FSLAX46Y46*%
G04 Gerber Fmt 4.6, Leading zero omitted, Abs format (unit mm)*
G04 Created by KiCad (PCBNEW (6.0.4-0)) date 2022-06-29 10:25:00*
%MOMM*%
%LPD*%
G01*
G04 APERTURE LIST*
G04 Aperture macros list*
%AMRoundRect*
0 Rectangle with rounded corners*
0 $1 Rounding radius*
0 $2 $3 $4 $5 $6 $7 $8 $9 X,Y pos of 4 corners*
0 Add a 4 corners polygon primitive as box body*
4,1,4,$2,$3,$4,$5,$6,$7,$8,$9,$2,$3,0*
0 Add four circle primitives for the rounded corners*
1,1,$1+$1,$2,$3*
1,1,$1+$1,$4,$5*
1,1,$1+$1,$6,$7*
1,1,$1+$1,$8,$9*
0 Add four rect primitives between the rounded corners*
20,1,$1+$1,$2,$3,$4,$5,0*
20,1,$1+$1,$4,$5,$6,$7,0*
20,1,$1+$1,$6,$7,$8,$9,0*
20,1,$1+$1,$8,$9,$2,$3,0*%
G04 Aperture macros list end*
%ADD10C,0.200000*%
%ADD11C,0.300000*%
%ADD12C,0.150000*%
%ADD13C,0.120000*%
%ADD14RoundRect,0.243750X0.243750X0.456250X-0.243750X0.456250X-0.243750X-0.456250X0.243750X-0.456250X0*%
%ADD15R,25.400000X58.420000*%
%ADD16R,2.500000X2.500000*%
G04 APERTURE END LIST*
D10*
X451063141Y-205019127D02*
G75*
G03*
X450698535Y-204233600I-862541J77027D01*
G01*
X454570756Y-205694801D02*
G75*
G03*
X455436759Y-205689423I428344J752701D01*
G01*
X142255074Y-206974857D02*
G75*
G03*
X143032633Y-207356176I719026J482757D01*
G01*
X464759829Y-207080158D02*
G75*
G03*
X464951236Y-206235567I-635729J588058D01*
G01*
X143693097Y-206009409D02*
G75*
G03*
X142915542Y-205628087I-718997J-482691D01*
G01*
X455427431Y-204189440D02*
G75*
G03*
X454561416Y-204194840I-428331J-752660D01*
G01*
X460949092Y-177742140D02*
X460949092Y-160742131D01*
X146149087Y-145742131D02*
X146149087Y-127742131D01*
X449702600Y-205650628D02*
G75*
G03*
X450565172Y-205727660I498000J708528D01*
G01*
X463265275Y-132103805D02*
G75*
G03*
X463791401Y-132791706I858825J111705D01*
G01*
X455865075Y-204936743D02*
G75*
G03*
X455427426Y-204189452I-865975J-5357D01*
G01*
X398867084Y-206059120D02*
G75*
G03*
X398117088Y-205626105I-749984J-432980D01*
G01*
X398117088Y-131126080D02*
G75*
G03*
X397367088Y-131559118I12J-866020D01*
G01*
X460949061Y-177742139D02*
G75*
G03*
X462949088Y-179742139I2000039J39D01*
G01*
X143751617Y-206873439D02*
G75*
G03*
X143693100Y-206009408I-777517J381339D01*
G01*
X397367062Y-131559103D02*
G75*
G03*
X397367088Y-132425144I750038J-432997D01*
G01*
X462949088Y-158742088D02*
G75*
G03*
X460949088Y-160742131I12J-2000012D01*
G01*
X450565151Y-205727613D02*
G75*
G03*
X451063151Y-205019128I-364551J785513D01*
G01*
X463488298Y-205904060D02*
G75*
G03*
X463296940Y-206748696I635802J-588040D01*
G01*
X465834088Y-206492131D02*
G75*
G03*
X465834088Y-206492131I-1710000J0D01*
G01*
X144684088Y-206492131D02*
G75*
G03*
X144684088Y-206492131I-1710000J0D01*
G01*
X143032631Y-207356149D02*
G75*
G03*
X143751645Y-206873452I-58531J864049D01*
G01*
X257269088Y-131992131D02*
G75*
G03*
X257269088Y-131992131I-1900000J0D01*
G01*
X466024088Y-131992131D02*
G75*
G03*
X466024088Y-131992131I-1900000J0D01*
G01*
X463791406Y-132791690D02*
G75*
G03*
X464650195Y-132680034I332694J799590D01*
G01*
X400017088Y-131992131D02*
G75*
G03*
X400017088Y-131992131I-1900000J0D01*
G01*
X256119084Y-206059120D02*
G75*
G03*
X255369088Y-205626105I-749984J-432980D01*
G01*
X398117088Y-207358131D02*
G75*
G03*
X398867088Y-206925144I12J866031D01*
G01*
X356974088Y-131992131D02*
G75*
G03*
X356974088Y-131992131I-1000000J0D01*
G01*
X144874088Y-153742131D02*
G75*
G03*
X144874088Y-153742131I-1900000J0D01*
G01*
X254619062Y-131559103D02*
G75*
G03*
X254619088Y-132425144I750038J-432997D01*
G01*
X464982866Y-131880461D02*
G75*
G03*
X464456775Y-131192557I-858766J-111639D01*
G01*
X142232334Y-154189131D02*
G75*
G03*
X142990325Y-154608004I741766J447031D01*
G01*
X254619062Y-206059103D02*
G75*
G03*
X254619088Y-206925144I750038J-432997D01*
G01*
X466024088Y-206492131D02*
G75*
G03*
X466024088Y-206492131I-1900000J0D01*
G01*
X255369088Y-132858131D02*
G75*
G03*
X256119088Y-132425144I12J866031D01*
G01*
X257079088Y-206492131D02*
G75*
G03*
X257079088Y-206492131I-1710000J0D01*
G01*
X456899088Y-204942131D02*
G75*
G03*
X456899088Y-204942131I-1900000J0D01*
G01*
X398117088Y-132858131D02*
G75*
G03*
X398867088Y-132425144I12J866031D01*
G01*
X142957851Y-152876231D02*
G75*
G03*
X142216101Y-153323256I16249J-865869D01*
G01*
X465834088Y-131992131D02*
G75*
G03*
X465834088Y-131992131I-1710000J0D01*
G01*
X449835917Y-204156556D02*
G75*
G03*
X449337960Y-204865135I364683J-785544D01*
G01*
X254619083Y-132425147D02*
G75*
G03*
X255369088Y-132858157I750017J433047D01*
G01*
X467299073Y-210742131D02*
X139799088Y-210742131D01*
X144874088Y-206492131D02*
G75*
G03*
X144874088Y-206492131I-1900000J0D01*
G01*
X256119061Y-132425129D02*
G75*
G03*
X256119088Y-131559118I-749961J433029D01*
G01*
X257079088Y-131992131D02*
G75*
G03*
X257079088Y-131992131I-1710000J0D01*
G01*
X142216074Y-153323241D02*
G75*
G03*
X142232338Y-154189129I758026J-418859D01*
G01*
X356974088Y-206492131D02*
G75*
G03*
X356974088Y-206492131I-1000000J0D01*
G01*
X456709088Y-204942131D02*
G75*
G03*
X456709088Y-204942131I-1710000J0D01*
G01*
X254619083Y-206925147D02*
G75*
G03*
X255369088Y-207358157I750017J433047D01*
G01*
X139799088Y-210742131D02*
X139799088Y-147742131D01*
X450698558Y-204233567D02*
G75*
G03*
X449835940Y-204156603I-497958J-708533D01*
G01*
X463932710Y-207336725D02*
G75*
G03*
X464759854Y-207080181I191390J844625D01*
G01*
X144149088Y-147742088D02*
G75*
G03*
X146149088Y-145742131I12J1999988D01*
G01*
X142990324Y-154607978D02*
G75*
G03*
X143732074Y-154161007I-16224J865878D01*
G01*
X139799088Y-147742131D02*
X144149088Y-147742131D01*
X397367083Y-206925147D02*
G75*
G03*
X398117088Y-207358157I750017J433047D01*
G01*
X454561401Y-204194812D02*
G75*
G03*
X454133080Y-204947520I437699J-747288D01*
G01*
X256119061Y-206925129D02*
G75*
G03*
X256119088Y-206059118I-749961J433029D01*
G01*
X142915541Y-205628059D02*
G75*
G03*
X142196531Y-206110810I58559J-864041D01*
G01*
X144684088Y-153742131D02*
G75*
G03*
X144684088Y-153742131I-1710000J0D01*
G01*
X467299073Y-127742131D02*
X467299073Y-158742131D01*
X398867084Y-131559120D02*
G75*
G03*
X398117088Y-131126105I-749984J-432980D01*
G01*
X467299073Y-158742131D02*
X467299073Y-179742131D01*
X449337951Y-204865133D02*
G75*
G03*
X449702577Y-205650663I862649J-76967D01*
G01*
X398117088Y-205626080D02*
G75*
G03*
X397367088Y-206059118I12J-866020D01*
G01*
X454133059Y-204947520D02*
G75*
G03*
X454570751Y-205694811I866041J5420D01*
G01*
X400017088Y-206492131D02*
G75*
G03*
X400017088Y-206492131I-1900000J0D01*
G01*
X397367083Y-132425147D02*
G75*
G03*
X398117088Y-132858157I750017J433047D01*
G01*
X398867061Y-206925129D02*
G75*
G03*
X398867088Y-206059118I-749961J433029D01*
G01*
X398867061Y-132425129D02*
G75*
G03*
X398867088Y-131559118I-749961J433029D01*
G01*
X255369088Y-131126080D02*
G75*
G03*
X254619088Y-131559118I12J-866020D01*
G01*
X463296927Y-206748700D02*
G75*
G03*
X463932705Y-207336746I827173J256600D01*
G01*
X399827088Y-206492131D02*
G75*
G03*
X399827088Y-206492131I-1710000J0D01*
G01*
X467299073Y-179742140D02*
X467299073Y-210742131D01*
X256119084Y-131559120D02*
G75*
G03*
X255369088Y-131126105I-749984J-432980D01*
G01*
X463597959Y-131304202D02*
G75*
G03*
X463265292Y-132103803I526141J-687898D01*
G01*
X257269088Y-206492131D02*
G75*
G03*
X257269088Y-206492131I-1900000J0D01*
G01*
X255369088Y-207358131D02*
G75*
G03*
X256119088Y-206925144I12J866031D01*
G01*
X464456781Y-131192543D02*
G75*
G03*
X463597980Y-131304229I-332681J-799557D01*
G01*
X397367062Y-206059103D02*
G75*
G03*
X397367088Y-206925144I750038J-432997D01*
G01*
X142196504Y-206110797D02*
G75*
G03*
X142255076Y-206974855I777596J-381303D01*
G01*
X464650175Y-132680007D02*
G75*
G03*
X464982883Y-131880460I-526075J687907D01*
G01*
X399827088Y-131992131D02*
G75*
G03*
X399827088Y-131992131I-1710000J0D01*
G01*
X455436742Y-205689394D02*
G75*
G03*
X455865096Y-204936743I-437642J747294D01*
G01*
X451910556Y-204942131D02*
G75*
G03*
X451910556Y-204942131I-1710000J0D01*
G01*
X464315475Y-205647497D02*
G75*
G03*
X463488322Y-205904082I-191375J-844603D01*
G01*
X464951224Y-206235570D02*
G75*
G03*
X464315470Y-205647517I-827124J-256530D01*
G01*
X143715832Y-153295136D02*
G75*
G03*
X142957851Y-152876259I-741732J-446964D01*
G01*
X467299073Y-179742140D02*
X462949096Y-179742140D01*
X467299073Y-158742131D02*
X462949096Y-158742131D01*
X452100556Y-204942131D02*
G75*
G03*
X452100556Y-204942131I-1900000J0D01*
G01*
X143732047Y-154160991D02*
G75*
G03*
X143715837Y-153295133I-757947J418891D01*
G01*
X255369088Y-205626080D02*
G75*
G03*
X254619088Y-206059118I12J-866020D01*
G01*
D11*
X158140000Y-131345714D02*
X158068571Y-131417142D01*
X157854285Y-131488571D01*
X157711428Y-131488571D01*
X157497142Y-131417142D01*
X157354285Y-131274285D01*
X157282857Y-131131428D01*
X157211428Y-130845714D01*
X157211428Y-130631428D01*
X157282857Y-130345714D01*
X157354285Y-130202857D01*
X157497142Y-130060000D01*
X157711428Y-129988571D01*
X157854285Y-129988571D01*
X158068571Y-130060000D01*
X158140000Y-130131428D01*
X158640000Y-130488571D02*
X158997142Y-131488571D01*
X159354285Y-130488571D02*
X158997142Y-131488571D01*
X158854285Y-131845714D01*
X158782857Y-131917142D01*
X158640000Y-131988571D01*
X159854285Y-131417142D02*
X160068571Y-131488571D01*
X160425714Y-131488571D01*
X160568571Y-131417142D01*
X160640000Y-131345714D01*
X160711428Y-131202857D01*
X160711428Y-131060000D01*
X160640000Y-130917142D01*
X160568571Y-130845714D01*
X160425714Y-130774285D01*
X160140000Y-130702857D01*
X159997142Y-130631428D01*
X159925714Y-130560000D01*
X159854285Y-130417142D01*
X159854285Y-130274285D01*
X159925714Y-130131428D01*
X159997142Y-130060000D01*
X160140000Y-129988571D01*
X160497142Y-129988571D01*
X160711428Y-130060000D01*
X161997142Y-131488571D02*
X161997142Y-130702857D01*
X161925714Y-130560000D01*
X161782857Y-130488571D01*
X161497142Y-130488571D01*
X161354285Y-130560000D01*
X161997142Y-131417142D02*
X161854285Y-131488571D01*
X161497142Y-131488571D01*
X161354285Y-131417142D01*
X161282857Y-131274285D01*
X161282857Y-131131428D01*
X161354285Y-130988571D01*
X161497142Y-130917142D01*
X161854285Y-130917142D01*
X161997142Y-130845714D01*
X162497142Y-130488571D02*
X163068571Y-130488571D01*
X162711428Y-129988571D02*
X162711428Y-131274285D01*
X162782857Y-131417142D01*
X162925714Y-131488571D01*
X163068571Y-131488571D01*
X163568571Y-130917142D02*
X164711428Y-130917142D01*
X166211428Y-131488571D02*
X165354285Y-131488571D01*
X165782857Y-131488571D02*
X165782857Y-129988571D01*
X165640000Y-130202857D01*
X165497142Y-130345714D01*
X165354285Y-130417142D01*
X167854285Y-129988571D02*
X168854285Y-131488571D01*
X168854285Y-129988571D02*
X167854285Y-131488571D01*
X169425714Y-130917142D02*
X170568571Y-130917142D01*
X169997142Y-131488571D02*
X169997142Y-130345714D01*
X172425714Y-131488571D02*
X172425714Y-129988571D01*
X172997142Y-129988571D01*
X173140000Y-130060000D01*
X173211428Y-130131428D01*
X173282857Y-130274285D01*
X173282857Y-130488571D01*
X173211428Y-130631428D01*
X173140000Y-130702857D01*
X172997142Y-130774285D01*
X172425714Y-130774285D01*
X174568571Y-131488571D02*
X174568571Y-130702857D01*
X174497142Y-130560000D01*
X174354285Y-130488571D01*
X174068571Y-130488571D01*
X173925714Y-130560000D01*
X174568571Y-131417142D02*
X174425714Y-131488571D01*
X174068571Y-131488571D01*
X173925714Y-131417142D01*
X173854285Y-131274285D01*
X173854285Y-131131428D01*
X173925714Y-130988571D01*
X174068571Y-130917142D01*
X174425714Y-130917142D01*
X174568571Y-130845714D01*
X175282857Y-130488571D02*
X175282857Y-131488571D01*
X175282857Y-130631428D02*
X175354285Y-130560000D01*
X175497142Y-130488571D01*
X175711428Y-130488571D01*
X175854285Y-130560000D01*
X175925714Y-130702857D01*
X175925714Y-131488571D01*
X177211428Y-131417142D02*
X177068571Y-131488571D01*
X176782857Y-131488571D01*
X176640000Y-131417142D01*
X176568571Y-131274285D01*
X176568571Y-130702857D01*
X176640000Y-130560000D01*
X176782857Y-130488571D01*
X177068571Y-130488571D01*
X177211428Y-130560000D01*
X177282857Y-130702857D01*
X177282857Y-130845714D01*
X176568571Y-130988571D01*
X178140000Y-131488571D02*
X177997142Y-131417142D01*
X177925714Y-131274285D01*
X177925714Y-129988571D01*
D12*
X415821904Y-205302380D02*
X415821904Y-204302380D01*
X416060000Y-204302380D01*
X416202857Y-204350000D01*
X416298095Y-204445238D01*
X416345714Y-204540476D01*
X416393333Y-204730952D01*
X416393333Y-204873809D01*
X416345714Y-205064285D01*
X416298095Y-205159523D01*
X416202857Y-205254761D01*
X416060000Y-205302380D01*
X415821904Y-205302380D01*
X417345714Y-205302380D02*
X416774285Y-205302380D01*
X417060000Y-205302380D02*
X417060000Y-204302380D01*
X416964761Y-204445238D01*
X416869523Y-204540476D01*
X416774285Y-204588095D01*
X439515238Y-168918095D02*
X439467619Y-169060952D01*
X439467619Y-169299047D01*
X439515238Y-169394285D01*
X439562857Y-169441904D01*
X439658095Y-169489523D01*
X439753333Y-169489523D01*
X439848571Y-169441904D01*
X439896190Y-169394285D01*
X439943809Y-169299047D01*
X439991428Y-169108571D01*
X440039047Y-169013333D01*
X440086666Y-168965714D01*
X440181904Y-168918095D01*
X440277142Y-168918095D01*
X440372380Y-168965714D01*
X440420000Y-169013333D01*
X440467619Y-169108571D01*
X440467619Y-169346666D01*
X440420000Y-169489523D01*
X439562857Y-170489523D02*
X439515238Y-170441904D01*
X439467619Y-170299047D01*
X439467619Y-170203809D01*
X439515238Y-170060952D01*
X439610476Y-169965714D01*
X439705714Y-169918095D01*
X439896190Y-169870476D01*
X440039047Y-169870476D01*
X440229523Y-169918095D01*
X440324761Y-169965714D01*
X440420000Y-170060952D01*
X440467619Y-170203809D01*
X440467619Y-170299047D01*
X440420000Y-170441904D01*
X440372380Y-170489523D01*
X439467619Y-171441904D02*
X439467619Y-170870476D01*
X439467619Y-171156190D02*
X440467619Y-171156190D01*
X440324761Y-171060952D01*
X440229523Y-170965714D01*
X440181904Y-170870476D01*
X396335238Y-168918095D02*
X396287619Y-169060952D01*
X396287619Y-169299047D01*
X396335238Y-169394285D01*
X396382857Y-169441904D01*
X396478095Y-169489523D01*
X396573333Y-169489523D01*
X396668571Y-169441904D01*
X396716190Y-169394285D01*
X396763809Y-169299047D01*
X396811428Y-169108571D01*
X396859047Y-169013333D01*
X396906666Y-168965714D01*
X397001904Y-168918095D01*
X397097142Y-168918095D01*
X397192380Y-168965714D01*
X397240000Y-169013333D01*
X397287619Y-169108571D01*
X397287619Y-169346666D01*
X397240000Y-169489523D01*
X396382857Y-170489523D02*
X396335238Y-170441904D01*
X396287619Y-170299047D01*
X396287619Y-170203809D01*
X396335238Y-170060952D01*
X396430476Y-169965714D01*
X396525714Y-169918095D01*
X396716190Y-169870476D01*
X396859047Y-169870476D01*
X397049523Y-169918095D01*
X397144761Y-169965714D01*
X397240000Y-170060952D01*
X397287619Y-170203809D01*
X397287619Y-170299047D01*
X397240000Y-170441904D01*
X397192380Y-170489523D01*
X397192380Y-170870476D02*
X397240000Y-170918095D01*
X397287619Y-171013333D01*
X397287619Y-171251428D01*
X397240000Y-171346666D01*
X397192380Y-171394285D01*
X397097142Y-171441904D01*
X397001904Y-171441904D01*
X396859047Y-171394285D01*
X396287619Y-170822857D01*
X396287619Y-171441904D01*
X353155238Y-168918095D02*
X353107619Y-169060952D01*
X353107619Y-169299047D01*
X353155238Y-169394285D01*
X353202857Y-169441904D01*
X353298095Y-169489523D01*
X353393333Y-169489523D01*
X353488571Y-169441904D01*
X353536190Y-169394285D01*
X353583809Y-169299047D01*
X353631428Y-169108571D01*
X353679047Y-169013333D01*
X353726666Y-168965714D01*
X353821904Y-168918095D01*
X353917142Y-168918095D01*
X354012380Y-168965714D01*
X354060000Y-169013333D01*
X354107619Y-169108571D01*
X354107619Y-169346666D01*
X354060000Y-169489523D01*
X353202857Y-170489523D02*
X353155238Y-170441904D01*
X353107619Y-170299047D01*
X353107619Y-170203809D01*
X353155238Y-170060952D01*
X353250476Y-169965714D01*
X353345714Y-169918095D01*
X353536190Y-169870476D01*
X353679047Y-169870476D01*
X353869523Y-169918095D01*
X353964761Y-169965714D01*
X354060000Y-170060952D01*
X354107619Y-170203809D01*
X354107619Y-170299047D01*
X354060000Y-170441904D01*
X354012380Y-170489523D01*
X354107619Y-170822857D02*
X354107619Y-171441904D01*
X353726666Y-171108571D01*
X353726666Y-171251428D01*
X353679047Y-171346666D01*
X353631428Y-171394285D01*
X353536190Y-171441904D01*
X353298095Y-171441904D01*
X353202857Y-171394285D01*
X353155238Y-171346666D01*
X353107619Y-171251428D01*
X353107619Y-170965714D01*
X353155238Y-170870476D01*
X353202857Y-170822857D01*
X307435238Y-168918095D02*
X307387619Y-169060952D01*
X307387619Y-169299047D01*
X307435238Y-169394285D01*
X307482857Y-169441904D01*
X307578095Y-169489523D01*
X307673333Y-169489523D01*
X307768571Y-169441904D01*
X307816190Y-169394285D01*
X307863809Y-169299047D01*
X307911428Y-169108571D01*
X307959047Y-169013333D01*
X308006666Y-168965714D01*
X308101904Y-168918095D01*
X308197142Y-168918095D01*
X308292380Y-168965714D01*
X308340000Y-169013333D01*
X308387619Y-169108571D01*
X308387619Y-169346666D01*
X308340000Y-169489523D01*
X307482857Y-170489523D02*
X307435238Y-170441904D01*
X307387619Y-170299047D01*
X307387619Y-170203809D01*
X307435238Y-170060952D01*
X307530476Y-169965714D01*
X307625714Y-169918095D01*
X307816190Y-169870476D01*
X307959047Y-169870476D01*
X308149523Y-169918095D01*
X308244761Y-169965714D01*
X308340000Y-170060952D01*
X308387619Y-170203809D01*
X308387619Y-170299047D01*
X308340000Y-170441904D01*
X308292380Y-170489523D01*
X308054285Y-171346666D02*
X307387619Y-171346666D01*
X308435238Y-171108571D02*
X307720952Y-170870476D01*
X307720952Y-171489523D01*
X261715238Y-168918095D02*
X261667619Y-169060952D01*
X261667619Y-169299047D01*
X261715238Y-169394285D01*
X261762857Y-169441904D01*
X261858095Y-169489523D01*
X261953333Y-169489523D01*
X262048571Y-169441904D01*
X262096190Y-169394285D01*
X262143809Y-169299047D01*
X262191428Y-169108571D01*
X262239047Y-169013333D01*
X262286666Y-168965714D01*
X262381904Y-168918095D01*
X262477142Y-168918095D01*
X262572380Y-168965714D01*
X262620000Y-169013333D01*
X262667619Y-169108571D01*
X262667619Y-169346666D01*
X262620000Y-169489523D01*
X261762857Y-170489523D02*
X261715238Y-170441904D01*
X261667619Y-170299047D01*
X261667619Y-170203809D01*
X261715238Y-170060952D01*
X261810476Y-169965714D01*
X261905714Y-169918095D01*
X262096190Y-169870476D01*
X262239047Y-169870476D01*
X262429523Y-169918095D01*
X262524761Y-169965714D01*
X262620000Y-170060952D01*
X262667619Y-170203809D01*
X262667619Y-170299047D01*
X262620000Y-170441904D01*
X262572380Y-170489523D01*
X262667619Y-171394285D02*
X262667619Y-170918095D01*
X262191428Y-170870476D01*
X262239047Y-170918095D01*
X262286666Y-171013333D01*
X262286666Y-171251428D01*
X262239047Y-171346666D01*
X262191428Y-171394285D01*
X262096190Y-171441904D01*
X261858095Y-171441904D01*
X261762857Y-171394285D01*
X261715238Y-171346666D01*
X261667619Y-171251428D01*
X261667619Y-171013333D01*
X261715238Y-170918095D01*
X261762857Y-170870476D01*
X215995238Y-167648095D02*
X215947619Y-167790952D01*
X215947619Y-168029047D01*
X215995238Y-168124285D01*
X216042857Y-168171904D01*
X216138095Y-168219523D01*
X216233333Y-168219523D01*
X216328571Y-168171904D01*
X216376190Y-168124285D01*
X216423809Y-168029047D01*
X216471428Y-167838571D01*
X216519047Y-167743333D01*
X216566666Y-167695714D01*
X216661904Y-167648095D01*
X216757142Y-167648095D01*
X216852380Y-167695714D01*
X216900000Y-167743333D01*
X216947619Y-167838571D01*
X216947619Y-168076666D01*
X216900000Y-168219523D01*
X216042857Y-169219523D02*
X215995238Y-169171904D01*
X215947619Y-169029047D01*
X215947619Y-168933809D01*
X215995238Y-168790952D01*
X216090476Y-168695714D01*
X216185714Y-168648095D01*
X216376190Y-168600476D01*
X216519047Y-168600476D01*
X216709523Y-168648095D01*
X216804761Y-168695714D01*
X216900000Y-168790952D01*
X216947619Y-168933809D01*
X216947619Y-169029047D01*
X216900000Y-169171904D01*
X216852380Y-169219523D01*
X216947619Y-170076666D02*
X216947619Y-169886190D01*
X216900000Y-169790952D01*
X216852380Y-169743333D01*
X216709523Y-169648095D01*
X216519047Y-169600476D01*
X216138095Y-169600476D01*
X216042857Y-169648095D01*
X215995238Y-169695714D01*
X215947619Y-169790952D01*
X215947619Y-169981428D01*
X215995238Y-170076666D01*
X216042857Y-170124285D01*
X216138095Y-170171904D01*
X216376190Y-170171904D01*
X216471428Y-170124285D01*
X216519047Y-170076666D01*
X216566666Y-169981428D01*
X216566666Y-169790952D01*
X216519047Y-169695714D01*
X216471428Y-169648095D01*
X216376190Y-169600476D01*
X170275238Y-167648095D02*
X170227619Y-167790952D01*
X170227619Y-168029047D01*
X170275238Y-168124285D01*
X170322857Y-168171904D01*
X170418095Y-168219523D01*
X170513333Y-168219523D01*
X170608571Y-168171904D01*
X170656190Y-168124285D01*
X170703809Y-168029047D01*
X170751428Y-167838571D01*
X170799047Y-167743333D01*
X170846666Y-167695714D01*
X170941904Y-167648095D01*
X171037142Y-167648095D01*
X171132380Y-167695714D01*
X171180000Y-167743333D01*
X171227619Y-167838571D01*
X171227619Y-168076666D01*
X171180000Y-168219523D01*
X170322857Y-169219523D02*
X170275238Y-169171904D01*
X170227619Y-169029047D01*
X170227619Y-168933809D01*
X170275238Y-168790952D01*
X170370476Y-168695714D01*
X170465714Y-168648095D01*
X170656190Y-168600476D01*
X170799047Y-168600476D01*
X170989523Y-168648095D01*
X171084761Y-168695714D01*
X171180000Y-168790952D01*
X171227619Y-168933809D01*
X171227619Y-169029047D01*
X171180000Y-169171904D01*
X171132380Y-169219523D01*
X171227619Y-169552857D02*
X171227619Y-170219523D01*
X170227619Y-169790952D01*
D13*
X418245000Y-202240000D02*
X415560000Y-202240000D01*
X418245000Y-204160000D02*
X418245000Y-202240000D01*
X415560000Y-204160000D02*
X418245000Y-204160000D01*
D10*
X452120000Y-203620000D02*
X420120000Y-203620000D01*
X460120000Y-195620000D02*
X452120000Y-203620000D01*
X420120000Y-203620000D02*
X420120000Y-134620000D01*
X460120000Y-142620000D02*
X460120000Y-195620000D01*
X452120000Y-134620000D02*
X460120000Y-142620000D01*
X420120000Y-134620000D02*
X452120000Y-134620000D01*
X376940000Y-203620000D02*
X376940000Y-134620000D01*
X376940000Y-134620000D02*
X408940000Y-134620000D01*
X416940000Y-195620000D02*
X408940000Y-203620000D01*
X408940000Y-203620000D02*
X376940000Y-203620000D01*
X416940000Y-142620000D02*
X416940000Y-195620000D01*
X408940000Y-134620000D02*
X416940000Y-142620000D01*
X365760000Y-203620000D02*
X333760000Y-203620000D01*
X373760000Y-142620000D02*
X373760000Y-195620000D01*
X365760000Y-134620000D02*
X373760000Y-142620000D01*
X373760000Y-195620000D02*
X365760000Y-203620000D01*
X333760000Y-134620000D02*
X365760000Y-134620000D01*
X333760000Y-203620000D02*
X333760000Y-134620000D01*
X328040000Y-142620000D02*
X328040000Y-195620000D01*
X288040000Y-203620000D02*
X288040000Y-134620000D01*
X288040000Y-134620000D02*
X320040000Y-134620000D01*
X320040000Y-134620000D02*
X328040000Y-142620000D01*
X328040000Y-195620000D02*
X320040000Y-203620000D01*
X320040000Y-203620000D02*
X288040000Y-203620000D01*
X274320000Y-203620000D02*
X242320000Y-203620000D01*
X274320000Y-134620000D02*
X282320000Y-142620000D01*
X242320000Y-134620000D02*
X274320000Y-134620000D01*
X242320000Y-203620000D02*
X242320000Y-134620000D01*
X282320000Y-195620000D02*
X274320000Y-203620000D01*
X282320000Y-142620000D02*
X282320000Y-195620000D01*
X228600000Y-202350000D02*
X196600000Y-202350000D01*
X236600000Y-194350000D02*
X228600000Y-202350000D01*
X196600000Y-202350000D02*
X196600000Y-133350000D01*
X228600000Y-133350000D02*
X236600000Y-141350000D01*
X236600000Y-141350000D02*
X236600000Y-194350000D01*
X196600000Y-133350000D02*
X228600000Y-133350000D01*
X182880000Y-202350000D02*
X150880000Y-202350000D01*
X182880000Y-133350000D02*
X190880000Y-141350000D01*
X190880000Y-141350000D02*
X190880000Y-194350000D01*
X150880000Y-133350000D02*
X182880000Y-133350000D01*
X150880000Y-202350000D02*
X150880000Y-133350000D01*
X190880000Y-194350000D02*
X182880000Y-202350000D01*
%LPC*%
D14*
X417497500Y-203200000D03*
X415622500Y-203200000D03*
D15*
X439420000Y-168910000D03*
D16*
X418920000Y-188660000D03*
X418920000Y-149660000D03*
X418920000Y-193660000D03*
X418920000Y-144660000D03*
X418920000Y-167060000D03*
X418920000Y-171060000D03*
D15*
X396240000Y-168910000D03*
D16*
X375740000Y-144660000D03*
X375740000Y-149660000D03*
X375740000Y-193660000D03*
X375740000Y-188660000D03*
X375740000Y-171060000D03*
X375740000Y-167060000D03*
D15*
X353060000Y-168910000D03*
D16*
X332560000Y-188660000D03*
X332560000Y-149660000D03*
X332560000Y-193660000D03*
X332560000Y-144660000D03*
X332560000Y-171060000D03*
X332560000Y-167060000D03*
D15*
X307340000Y-168910000D03*
D16*
X286840000Y-193660000D03*
X286840000Y-149660000D03*
X286840000Y-144660000D03*
X286840000Y-188660000D03*
X286840000Y-167060000D03*
X286840000Y-171060000D03*
D15*
X261620000Y-168910000D03*
D16*
X241120000Y-144660000D03*
X241120000Y-188660000D03*
X241120000Y-193660000D03*
X241120000Y-149660000D03*
X241120000Y-167060000D03*
X241120000Y-171060000D03*
D15*
X215900000Y-167640000D03*
D16*
X195400000Y-192390000D03*
X195400000Y-148390000D03*
X195400000Y-143390000D03*
X195400000Y-187390000D03*
X195400000Y-169790000D03*
X195400000Y-165790000D03*
D15*
X170180000Y-167640000D03*
D16*
X149680000Y-187390000D03*
X149680000Y-192390000D03*
X149680000Y-143390000D03*
X149680000Y-148390000D03*
X149680000Y-165790000D03*
X149680000Y-169790000D03*
M02*
