G04 #@! TF.GenerationSoftware,KiCad,Pcbnew,(5.1.9)-1*
G04 #@! TF.CreationDate,2021-03-05T17:13:54-06:00*
G04 #@! TF.ProjectId,X+,582b2e6b-6963-4616-945f-706362585858,3*
G04 #@! TF.SameCoordinates,Original*
G04 #@! TF.FileFunction,Copper,L1,Top*
G04 #@! TF.FilePolarity,Positive*
%FSLAX46Y46*%
G04 Gerber Fmt 4.6, Leading zero omitted, Abs format (unit mm)*
G04 Created by KiCad (PCBNEW (5.1.9)-1) date 2021-03-05 17:13:54*
%MOMM*%
%LPD*%
G01*
G04 APERTURE LIST*
G04 #@! TA.AperFunction,SMDPad,CuDef*
%ADD10R,2.500000X2.500000*%
G04 #@! TD*
G04 #@! TA.AperFunction,ViaPad*
%ADD11C,0.800000*%
G04 #@! TD*
G04 #@! TA.AperFunction,Conductor*
%ADD12C,0.250000*%
G04 #@! TD*
G04 #@! TA.AperFunction,Conductor*
%ADD13C,0.254000*%
G04 #@! TD*
G04 #@! TA.AperFunction,Conductor*
%ADD14C,0.150000*%
G04 #@! TD*
G04 APERTURE END LIST*
G04 #@! TA.AperFunction,SMDPad,CuDef*
G36*
G01*
X374075000Y-207766250D02*
X374075000Y-206853750D01*
G75*
G02*
X374318750Y-206610000I243750J0D01*
G01*
X374806250Y-206610000D01*
G75*
G02*
X375050000Y-206853750I0J-243750D01*
G01*
X375050000Y-207766250D01*
G75*
G02*
X374806250Y-208010000I-243750J0D01*
G01*
X374318750Y-208010000D01*
G75*
G02*
X374075000Y-207766250I0J243750D01*
G01*
G37*
G04 #@! TD.AperFunction*
G04 #@! TA.AperFunction,SMDPad,CuDef*
G36*
G01*
X375950000Y-207766250D02*
X375950000Y-206853750D01*
G75*
G02*
X376193750Y-206610000I243750J0D01*
G01*
X376681250Y-206610000D01*
G75*
G02*
X376925000Y-206853750I0J-243750D01*
G01*
X376925000Y-207766250D01*
G75*
G02*
X376681250Y-208010000I-243750J0D01*
G01*
X376193750Y-208010000D01*
G75*
G02*
X375950000Y-207766250I0J243750D01*
G01*
G37*
G04 #@! TD.AperFunction*
D10*
X419190087Y-144130573D03*
X419190087Y-149130573D03*
X419190087Y-166530573D03*
X419190087Y-170530573D03*
X419190087Y-188130573D03*
X419190087Y-193130573D03*
X374820087Y-193390573D03*
X374820087Y-188390573D03*
X374820087Y-170790573D03*
X374820087Y-166790573D03*
X374820087Y-149390573D03*
X374820087Y-144390573D03*
X330370087Y-193390573D03*
X330370087Y-188390573D03*
X330370087Y-170790573D03*
X330370087Y-166790573D03*
X330370087Y-149390573D03*
X330370087Y-144390573D03*
X285920087Y-144390573D03*
X285920087Y-149390573D03*
X285920087Y-166790573D03*
X285920087Y-170790573D03*
X285920087Y-188390573D03*
X285920087Y-193390573D03*
X241470087Y-193390573D03*
X241470087Y-188390573D03*
X241470087Y-170790573D03*
X241470087Y-166790573D03*
X241470087Y-149390573D03*
X241470087Y-144390573D03*
X197020087Y-144390573D03*
X197020087Y-149390573D03*
X197020087Y-166790573D03*
X197020087Y-170790573D03*
X197020087Y-188390573D03*
X197020087Y-193390573D03*
X152570087Y-193390573D03*
X152570087Y-188390573D03*
X152570087Y-170790573D03*
X152570087Y-166790573D03*
X152570087Y-149390573D03*
X152570087Y-144390573D03*
D11*
X147955000Y-168910000D03*
X194945000Y-168910000D03*
X239395000Y-168910000D03*
X283845000Y-168910000D03*
X328295000Y-168910000D03*
X372745000Y-168910000D03*
X416675000Y-168300000D03*
X422910000Y-158750000D03*
X402590000Y-174625000D03*
X402590000Y-173355000D03*
D12*
X152570087Y-166790573D02*
X150074427Y-166790573D01*
X150074427Y-166790573D02*
X147955000Y-168910000D01*
X149835573Y-170790573D02*
X147955000Y-168910000D01*
X152570087Y-170790573D02*
X149835573Y-170790573D01*
X197020087Y-166790573D02*
X196429427Y-166790573D01*
X197020087Y-170790573D02*
X197020087Y-170350087D01*
X197020087Y-166790573D02*
X197020087Y-166834913D01*
X197020087Y-166834913D02*
X194945000Y-168910000D01*
X196825573Y-170790573D02*
X194945000Y-168910000D01*
X197020087Y-170790573D02*
X196825573Y-170790573D01*
X241470087Y-166790573D02*
X241470087Y-166834913D01*
X241470087Y-166834913D02*
X239395000Y-168910000D01*
X241275573Y-170790573D02*
X239395000Y-168910000D01*
X241470087Y-170790573D02*
X241275573Y-170790573D01*
X285920087Y-166790573D02*
X285920087Y-166834913D01*
X285920087Y-166834913D02*
X283845000Y-168910000D01*
X285725573Y-170790573D02*
X283845000Y-168910000D01*
X285920087Y-170790573D02*
X285725573Y-170790573D01*
X330370087Y-166790573D02*
X330370087Y-166834913D01*
X330370087Y-166834913D02*
X328295000Y-168910000D01*
X330175573Y-170790573D02*
X328295000Y-168910000D01*
X330370087Y-170790573D02*
X330175573Y-170790573D01*
X374820087Y-166790573D02*
X374820087Y-166834913D01*
X374820087Y-166834913D02*
X372745000Y-168910000D01*
X374625573Y-170790573D02*
X372745000Y-168910000D01*
X374820087Y-170790573D02*
X374625573Y-170790573D01*
X418905573Y-170530573D02*
X419190087Y-170530573D01*
X416675000Y-168300000D02*
X418905573Y-170530573D01*
X417420660Y-168300000D02*
X419190087Y-166530573D01*
X416675000Y-168300000D02*
X417420660Y-168300000D01*
X419270087Y-146850573D02*
X419270087Y-155110087D01*
X419270087Y-155110087D02*
X422910000Y-158750000D01*
X376916840Y-208335010D02*
X402590000Y-182661850D01*
X374562500Y-207310000D02*
X375587510Y-208335010D01*
X402590000Y-182661850D02*
X402590000Y-174625000D01*
X375587510Y-208335010D02*
X376916840Y-208335010D01*
X376437500Y-207310000D02*
X376437500Y-199507500D01*
X376437500Y-199507500D02*
X402590000Y-173355000D01*
D13*
X445590000Y-133715123D02*
X445586565Y-133750000D01*
X445600273Y-133889184D01*
X445640872Y-134023020D01*
X445706800Y-134146363D01*
X445795525Y-134254475D01*
X445903637Y-134343200D01*
X446026980Y-134409128D01*
X446160816Y-134449727D01*
X446300000Y-134463435D01*
X446334877Y-134460000D01*
X457265123Y-134460000D01*
X457300000Y-134463435D01*
X457334877Y-134460000D01*
X457439184Y-134449727D01*
X457573020Y-134409128D01*
X457696363Y-134343200D01*
X457804475Y-134254475D01*
X457893200Y-134146363D01*
X457959128Y-134023020D01*
X457999727Y-133889184D01*
X458013435Y-133750000D01*
X458010000Y-133715123D01*
X458010000Y-131839941D01*
X462423366Y-131839941D01*
X462423366Y-132180059D01*
X462489720Y-132513640D01*
X462619877Y-132827868D01*
X462808836Y-133110665D01*
X463049335Y-133351164D01*
X463332132Y-133540123D01*
X463646360Y-133670280D01*
X463979941Y-133736634D01*
X464320059Y-133736634D01*
X464653640Y-133670280D01*
X464967868Y-133540123D01*
X465250665Y-133351164D01*
X465491164Y-133110665D01*
X465680123Y-132827868D01*
X465810280Y-132513640D01*
X465876634Y-132180059D01*
X465876634Y-131839941D01*
X465810280Y-131506360D01*
X465680123Y-131192132D01*
X465491164Y-130909335D01*
X465250665Y-130668836D01*
X464967868Y-130479877D01*
X464653640Y-130349720D01*
X464320059Y-130283366D01*
X463979941Y-130283366D01*
X463646360Y-130349720D01*
X463332132Y-130479877D01*
X463049335Y-130668836D01*
X462808836Y-130909335D01*
X462619877Y-131192132D01*
X462489720Y-131506360D01*
X462423366Y-131839941D01*
X458010000Y-131839941D01*
X458010000Y-128460000D01*
X466590001Y-128460000D01*
X466590000Y-158050000D01*
X462865123Y-158050000D01*
X462834112Y-158053054D01*
X462822039Y-158052970D01*
X462812174Y-158053937D01*
X462433684Y-158093717D01*
X462370660Y-158106654D01*
X462307434Y-158118715D01*
X462297944Y-158121581D01*
X461934391Y-158234120D01*
X461875087Y-158259049D01*
X461815405Y-158283162D01*
X461806652Y-158287816D01*
X461471881Y-158468827D01*
X461418581Y-158504778D01*
X461364686Y-158540046D01*
X461357004Y-158546312D01*
X461063767Y-158788898D01*
X461018431Y-158834551D01*
X460972445Y-158879584D01*
X460966126Y-158887222D01*
X460725593Y-159182146D01*
X460689987Y-159235737D01*
X460653626Y-159288841D01*
X460648911Y-159297561D01*
X460470242Y-159633588D01*
X460445724Y-159693075D01*
X460420370Y-159752230D01*
X460417438Y-159761700D01*
X460307440Y-160126030D01*
X460294947Y-160189127D01*
X460281561Y-160252101D01*
X460280525Y-160261960D01*
X460243388Y-160640717D01*
X460243388Y-160640724D01*
X460240000Y-160675124D01*
X460240001Y-177844877D01*
X460243054Y-177875879D01*
X460242970Y-177887961D01*
X460243937Y-177897827D01*
X460283717Y-178276316D01*
X460296654Y-178339340D01*
X460308715Y-178402566D01*
X460311581Y-178412056D01*
X460424120Y-178775609D01*
X460449044Y-178834902D01*
X460473162Y-178894595D01*
X460477815Y-178903344D01*
X460477817Y-178903349D01*
X460477820Y-178903353D01*
X460658827Y-179238120D01*
X460694790Y-179291437D01*
X460730046Y-179345314D01*
X460736312Y-179352996D01*
X460978898Y-179646233D01*
X461024535Y-179691552D01*
X461069584Y-179737555D01*
X461077223Y-179743874D01*
X461372146Y-179984407D01*
X461425722Y-180020003D01*
X461478841Y-180056374D01*
X461487561Y-180061089D01*
X461823588Y-180239757D01*
X461883042Y-180264262D01*
X461942230Y-180289630D01*
X461951700Y-180292562D01*
X462316030Y-180402560D01*
X462379120Y-180415052D01*
X462442101Y-180428439D01*
X462451960Y-180429475D01*
X462830717Y-180466612D01*
X462830723Y-180466612D01*
X462865123Y-180470000D01*
X466590001Y-180470000D01*
X466590000Y-210050000D01*
X146812000Y-210050000D01*
X146812000Y-206339941D01*
X253623366Y-206339941D01*
X253623366Y-206680059D01*
X253689720Y-207013640D01*
X253819877Y-207327868D01*
X254008836Y-207610665D01*
X254249335Y-207851164D01*
X254532132Y-208040123D01*
X254846360Y-208170280D01*
X255179941Y-208236634D01*
X255520059Y-208236634D01*
X255853640Y-208170280D01*
X256167868Y-208040123D01*
X256450665Y-207851164D01*
X256691164Y-207610665D01*
X256880123Y-207327868D01*
X257010280Y-207013640D01*
X257076634Y-206680059D01*
X257076634Y-206339941D01*
X257066762Y-206290308D01*
X354277087Y-206290308D01*
X354277087Y-206629692D01*
X354343298Y-206962555D01*
X354473175Y-207276105D01*
X354661726Y-207558293D01*
X354901707Y-207798274D01*
X355183895Y-207986825D01*
X355497445Y-208116702D01*
X355830308Y-208182913D01*
X356169692Y-208182913D01*
X356502555Y-208116702D01*
X356816105Y-207986825D01*
X357098293Y-207798274D01*
X357338274Y-207558293D01*
X357526825Y-207276105D01*
X357656702Y-206962555D01*
X357678344Y-206853750D01*
X373436928Y-206853750D01*
X373436928Y-207766250D01*
X373453872Y-207938285D01*
X373504053Y-208103709D01*
X373585542Y-208256164D01*
X373695208Y-208389792D01*
X373828836Y-208499458D01*
X373981291Y-208580947D01*
X374146715Y-208631128D01*
X374318750Y-208648072D01*
X374806250Y-208648072D01*
X374824020Y-208646322D01*
X375023711Y-208846013D01*
X375047509Y-208875011D01*
X375076507Y-208898809D01*
X375163233Y-208969984D01*
X375295263Y-209040556D01*
X375438524Y-209084013D01*
X375550177Y-209095010D01*
X375550186Y-209095010D01*
X375587509Y-209098686D01*
X375624832Y-209095010D01*
X376879518Y-209095010D01*
X376916840Y-209098686D01*
X376954162Y-209095010D01*
X376954173Y-209095010D01*
X377065826Y-209084013D01*
X377209087Y-209040556D01*
X377341116Y-208969984D01*
X377456841Y-208875011D01*
X377480644Y-208846007D01*
X379986710Y-206339941D01*
X396373366Y-206339941D01*
X396373366Y-206680059D01*
X396439720Y-207013640D01*
X396569877Y-207327868D01*
X396758836Y-207610665D01*
X396999335Y-207851164D01*
X397282132Y-208040123D01*
X397596360Y-208170280D01*
X397929941Y-208236634D01*
X398270059Y-208236634D01*
X398603640Y-208170280D01*
X398917868Y-208040123D01*
X399200665Y-207851164D01*
X399441164Y-207610665D01*
X399630123Y-207327868D01*
X399760280Y-207013640D01*
X399826634Y-206680059D01*
X399826634Y-206339941D01*
X399760280Y-206006360D01*
X399630123Y-205692132D01*
X399441164Y-205409335D01*
X399200665Y-205168836D01*
X398917868Y-204979877D01*
X398603640Y-204849720D01*
X398270059Y-204783366D01*
X397929941Y-204783366D01*
X397596360Y-204849720D01*
X397282132Y-204979877D01*
X396999335Y-205168836D01*
X396758836Y-205409335D01*
X396569877Y-205692132D01*
X396439720Y-206006360D01*
X396373366Y-206339941D01*
X379986710Y-206339941D01*
X381586710Y-204739941D01*
X448473366Y-204739941D01*
X448473366Y-205080059D01*
X448539720Y-205413640D01*
X448669877Y-205727868D01*
X448858836Y-206010665D01*
X449099335Y-206251164D01*
X449382132Y-206440123D01*
X449696360Y-206570280D01*
X450029941Y-206636634D01*
X450370059Y-206636634D01*
X450703640Y-206570280D01*
X451017868Y-206440123D01*
X451300665Y-206251164D01*
X451541164Y-206010665D01*
X451730123Y-205727868D01*
X451860280Y-205413640D01*
X451926634Y-205080059D01*
X451926634Y-204739941D01*
X453273366Y-204739941D01*
X453273366Y-205080059D01*
X453339720Y-205413640D01*
X453469877Y-205727868D01*
X453658836Y-206010665D01*
X453899335Y-206251164D01*
X454182132Y-206440123D01*
X454496360Y-206570280D01*
X454829941Y-206636634D01*
X455170059Y-206636634D01*
X455503640Y-206570280D01*
X455817868Y-206440123D01*
X456042631Y-206289941D01*
X462423366Y-206289941D01*
X462423366Y-206630059D01*
X462489720Y-206963640D01*
X462619877Y-207277868D01*
X462808836Y-207560665D01*
X463049335Y-207801164D01*
X463332132Y-207990123D01*
X463646360Y-208120280D01*
X463979941Y-208186634D01*
X464320059Y-208186634D01*
X464653640Y-208120280D01*
X464967868Y-207990123D01*
X465250665Y-207801164D01*
X465491164Y-207560665D01*
X465680123Y-207277868D01*
X465810280Y-206963640D01*
X465876634Y-206630059D01*
X465876634Y-206289941D01*
X465810280Y-205956360D01*
X465680123Y-205642132D01*
X465491164Y-205359335D01*
X465250665Y-205118836D01*
X464967868Y-204929877D01*
X464653640Y-204799720D01*
X464320059Y-204733366D01*
X463979941Y-204733366D01*
X463646360Y-204799720D01*
X463332132Y-204929877D01*
X463049335Y-205118836D01*
X462808836Y-205359335D01*
X462619877Y-205642132D01*
X462489720Y-205956360D01*
X462423366Y-206289941D01*
X456042631Y-206289941D01*
X456100665Y-206251164D01*
X456341164Y-206010665D01*
X456530123Y-205727868D01*
X456660280Y-205413640D01*
X456726634Y-205080059D01*
X456726634Y-204739941D01*
X456660280Y-204406360D01*
X456530123Y-204092132D01*
X456341164Y-203809335D01*
X456100665Y-203568836D01*
X455817868Y-203379877D01*
X455503640Y-203249720D01*
X455170059Y-203183366D01*
X454829941Y-203183366D01*
X454496360Y-203249720D01*
X454182132Y-203379877D01*
X453899335Y-203568836D01*
X453658836Y-203809335D01*
X453469877Y-204092132D01*
X453339720Y-204406360D01*
X453273366Y-204739941D01*
X451926634Y-204739941D01*
X451860280Y-204406360D01*
X451730123Y-204092132D01*
X451541164Y-203809335D01*
X451300665Y-203568836D01*
X451017868Y-203379877D01*
X450703640Y-203249720D01*
X450370059Y-203183366D01*
X450029941Y-203183366D01*
X449696360Y-203249720D01*
X449382132Y-203379877D01*
X449099335Y-203568836D01*
X448858836Y-203809335D01*
X448669877Y-204092132D01*
X448539720Y-204406360D01*
X448473366Y-204739941D01*
X381586710Y-204739941D01*
X391946078Y-194380573D01*
X417302015Y-194380573D01*
X417314275Y-194505055D01*
X417350585Y-194624753D01*
X417409550Y-194735067D01*
X417488902Y-194831758D01*
X417585593Y-194911110D01*
X417695907Y-194970075D01*
X417815605Y-195006385D01*
X417940087Y-195018645D01*
X418904337Y-195015573D01*
X419063087Y-194856823D01*
X419063087Y-193257573D01*
X419317087Y-193257573D01*
X419317087Y-194856823D01*
X419475837Y-195015573D01*
X420440087Y-195018645D01*
X420564569Y-195006385D01*
X420684267Y-194970075D01*
X420794581Y-194911110D01*
X420891272Y-194831758D01*
X420970624Y-194735067D01*
X421029589Y-194624753D01*
X421065899Y-194505055D01*
X421078159Y-194380573D01*
X421075087Y-193416323D01*
X420916337Y-193257573D01*
X419317087Y-193257573D01*
X419063087Y-193257573D01*
X417463837Y-193257573D01*
X417305087Y-193416323D01*
X417302015Y-194380573D01*
X391946078Y-194380573D01*
X394446078Y-191880573D01*
X417302015Y-191880573D01*
X417305087Y-192844823D01*
X417463837Y-193003573D01*
X419063087Y-193003573D01*
X419063087Y-191404323D01*
X419317087Y-191404323D01*
X419317087Y-193003573D01*
X420916337Y-193003573D01*
X421075087Y-192844823D01*
X421078159Y-191880573D01*
X421065899Y-191756091D01*
X421029589Y-191636393D01*
X420970624Y-191526079D01*
X420891272Y-191429388D01*
X420794581Y-191350036D01*
X420684267Y-191291071D01*
X420564569Y-191254761D01*
X420440087Y-191242501D01*
X419475837Y-191245573D01*
X419317087Y-191404323D01*
X419063087Y-191404323D01*
X418904337Y-191245573D01*
X417940087Y-191242501D01*
X417815605Y-191254761D01*
X417695907Y-191291071D01*
X417585593Y-191350036D01*
X417488902Y-191429388D01*
X417409550Y-191526079D01*
X417350585Y-191636393D01*
X417314275Y-191756091D01*
X417302015Y-191880573D01*
X394446078Y-191880573D01*
X396946078Y-189380573D01*
X417302015Y-189380573D01*
X417314275Y-189505055D01*
X417350585Y-189624753D01*
X417409550Y-189735067D01*
X417488902Y-189831758D01*
X417585593Y-189911110D01*
X417695907Y-189970075D01*
X417815605Y-190006385D01*
X417940087Y-190018645D01*
X418904337Y-190015573D01*
X419063087Y-189856823D01*
X419063087Y-188257573D01*
X419317087Y-188257573D01*
X419317087Y-189856823D01*
X419475837Y-190015573D01*
X420440087Y-190018645D01*
X420564569Y-190006385D01*
X420684267Y-189970075D01*
X420794581Y-189911110D01*
X420891272Y-189831758D01*
X420970624Y-189735067D01*
X421029589Y-189624753D01*
X421065899Y-189505055D01*
X421078159Y-189380573D01*
X421075087Y-188416323D01*
X420916337Y-188257573D01*
X419317087Y-188257573D01*
X419063087Y-188257573D01*
X417463837Y-188257573D01*
X417305087Y-188416323D01*
X417302015Y-189380573D01*
X396946078Y-189380573D01*
X399446078Y-186880573D01*
X417302015Y-186880573D01*
X417305087Y-187844823D01*
X417463837Y-188003573D01*
X419063087Y-188003573D01*
X419063087Y-186404323D01*
X419317087Y-186404323D01*
X419317087Y-188003573D01*
X420916337Y-188003573D01*
X421075087Y-187844823D01*
X421078159Y-186880573D01*
X421065899Y-186756091D01*
X421029589Y-186636393D01*
X420970624Y-186526079D01*
X420891272Y-186429388D01*
X420794581Y-186350036D01*
X420684267Y-186291071D01*
X420564569Y-186254761D01*
X420440087Y-186242501D01*
X419475837Y-186245573D01*
X419317087Y-186404323D01*
X419063087Y-186404323D01*
X418904337Y-186245573D01*
X417940087Y-186242501D01*
X417815605Y-186254761D01*
X417695907Y-186291071D01*
X417585593Y-186350036D01*
X417488902Y-186429388D01*
X417409550Y-186526079D01*
X417350585Y-186636393D01*
X417314275Y-186756091D01*
X417302015Y-186880573D01*
X399446078Y-186880573D01*
X403101004Y-183225648D01*
X403130001Y-183201851D01*
X403156332Y-183169767D01*
X403224974Y-183086127D01*
X403295546Y-182954097D01*
X403295546Y-182954096D01*
X403339003Y-182810836D01*
X403350000Y-182699183D01*
X403350000Y-182699174D01*
X403353676Y-182661851D01*
X403350000Y-182624528D01*
X403350000Y-175328711D01*
X403393937Y-175284774D01*
X403507205Y-175115256D01*
X403585226Y-174926898D01*
X403625000Y-174726939D01*
X403625000Y-174523061D01*
X403585226Y-174323102D01*
X403507205Y-174134744D01*
X403410490Y-173990000D01*
X403507205Y-173845256D01*
X403585226Y-173656898D01*
X403625000Y-173456939D01*
X403625000Y-173253061D01*
X403585226Y-173053102D01*
X403507205Y-172864744D01*
X403393937Y-172695226D01*
X403249774Y-172551063D01*
X403080256Y-172437795D01*
X402891898Y-172359774D01*
X402691939Y-172320000D01*
X402488061Y-172320000D01*
X402288102Y-172359774D01*
X402099744Y-172437795D01*
X401930226Y-172551063D01*
X401786063Y-172695226D01*
X401672795Y-172864744D01*
X401594774Y-173053102D01*
X401555000Y-173253061D01*
X401555000Y-173315198D01*
X375926498Y-198943701D01*
X375897500Y-198967499D01*
X375873702Y-198996497D01*
X375873701Y-198996498D01*
X375802526Y-199083224D01*
X375731954Y-199215254D01*
X375688498Y-199358515D01*
X375673824Y-199507500D01*
X375677501Y-199544832D01*
X375677500Y-206142155D01*
X375570208Y-206230208D01*
X375500000Y-206315756D01*
X375429792Y-206230208D01*
X375296164Y-206120542D01*
X375143709Y-206039053D01*
X374978285Y-205988872D01*
X374806250Y-205971928D01*
X374318750Y-205971928D01*
X374146715Y-205988872D01*
X373981291Y-206039053D01*
X373828836Y-206120542D01*
X373695208Y-206230208D01*
X373585542Y-206363836D01*
X373504053Y-206516291D01*
X373453872Y-206681715D01*
X373436928Y-206853750D01*
X357678344Y-206853750D01*
X357722913Y-206629692D01*
X357722913Y-206290308D01*
X357656702Y-205957445D01*
X357526825Y-205643895D01*
X357338274Y-205361707D01*
X357098293Y-205121726D01*
X356816105Y-204933175D01*
X356502555Y-204803298D01*
X356169692Y-204737087D01*
X355830308Y-204737087D01*
X355497445Y-204803298D01*
X355183895Y-204933175D01*
X354901707Y-205121726D01*
X354661726Y-205361707D01*
X354473175Y-205643895D01*
X354343298Y-205957445D01*
X354277087Y-206290308D01*
X257066762Y-206290308D01*
X257010280Y-206006360D01*
X256880123Y-205692132D01*
X256691164Y-205409335D01*
X256450665Y-205168836D01*
X256167868Y-204979877D01*
X255853640Y-204849720D01*
X255520059Y-204783366D01*
X255179941Y-204783366D01*
X254846360Y-204849720D01*
X254532132Y-204979877D01*
X254249335Y-205168836D01*
X254008836Y-205409335D01*
X253819877Y-205692132D01*
X253689720Y-206006360D01*
X253623366Y-206339941D01*
X146812000Y-206339941D01*
X146812000Y-194640573D01*
X150682015Y-194640573D01*
X150694275Y-194765055D01*
X150730585Y-194884753D01*
X150789550Y-194995067D01*
X150868902Y-195091758D01*
X150965593Y-195171110D01*
X151075907Y-195230075D01*
X151195605Y-195266385D01*
X151320087Y-195278645D01*
X152284337Y-195275573D01*
X152443087Y-195116823D01*
X152443087Y-193517573D01*
X152697087Y-193517573D01*
X152697087Y-195116823D01*
X152855837Y-195275573D01*
X153820087Y-195278645D01*
X153944569Y-195266385D01*
X154064267Y-195230075D01*
X154174581Y-195171110D01*
X154271272Y-195091758D01*
X154350624Y-194995067D01*
X154409589Y-194884753D01*
X154445899Y-194765055D01*
X154458159Y-194640573D01*
X195132015Y-194640573D01*
X195144275Y-194765055D01*
X195180585Y-194884753D01*
X195239550Y-194995067D01*
X195318902Y-195091758D01*
X195415593Y-195171110D01*
X195525907Y-195230075D01*
X195645605Y-195266385D01*
X195770087Y-195278645D01*
X196734337Y-195275573D01*
X196893087Y-195116823D01*
X196893087Y-193517573D01*
X197147087Y-193517573D01*
X197147087Y-195116823D01*
X197305837Y-195275573D01*
X198270087Y-195278645D01*
X198394569Y-195266385D01*
X198514267Y-195230075D01*
X198624581Y-195171110D01*
X198721272Y-195091758D01*
X198800624Y-194995067D01*
X198859589Y-194884753D01*
X198895899Y-194765055D01*
X198908159Y-194640573D01*
X239582015Y-194640573D01*
X239594275Y-194765055D01*
X239630585Y-194884753D01*
X239689550Y-194995067D01*
X239768902Y-195091758D01*
X239865593Y-195171110D01*
X239975907Y-195230075D01*
X240095605Y-195266385D01*
X240220087Y-195278645D01*
X241184337Y-195275573D01*
X241343087Y-195116823D01*
X241343087Y-193517573D01*
X241597087Y-193517573D01*
X241597087Y-195116823D01*
X241755837Y-195275573D01*
X242720087Y-195278645D01*
X242844569Y-195266385D01*
X242964267Y-195230075D01*
X243074581Y-195171110D01*
X243171272Y-195091758D01*
X243250624Y-194995067D01*
X243309589Y-194884753D01*
X243345899Y-194765055D01*
X243358159Y-194640573D01*
X284032015Y-194640573D01*
X284044275Y-194765055D01*
X284080585Y-194884753D01*
X284139550Y-194995067D01*
X284218902Y-195091758D01*
X284315593Y-195171110D01*
X284425907Y-195230075D01*
X284545605Y-195266385D01*
X284670087Y-195278645D01*
X285634337Y-195275573D01*
X285793087Y-195116823D01*
X285793087Y-193517573D01*
X286047087Y-193517573D01*
X286047087Y-195116823D01*
X286205837Y-195275573D01*
X287170087Y-195278645D01*
X287294569Y-195266385D01*
X287414267Y-195230075D01*
X287524581Y-195171110D01*
X287621272Y-195091758D01*
X287700624Y-194995067D01*
X287759589Y-194884753D01*
X287795899Y-194765055D01*
X287808159Y-194640573D01*
X328482015Y-194640573D01*
X328494275Y-194765055D01*
X328530585Y-194884753D01*
X328589550Y-194995067D01*
X328668902Y-195091758D01*
X328765593Y-195171110D01*
X328875907Y-195230075D01*
X328995605Y-195266385D01*
X329120087Y-195278645D01*
X330084337Y-195275573D01*
X330243087Y-195116823D01*
X330243087Y-193517573D01*
X330497087Y-193517573D01*
X330497087Y-195116823D01*
X330655837Y-195275573D01*
X331620087Y-195278645D01*
X331744569Y-195266385D01*
X331864267Y-195230075D01*
X331974581Y-195171110D01*
X332071272Y-195091758D01*
X332150624Y-194995067D01*
X332209589Y-194884753D01*
X332245899Y-194765055D01*
X332258159Y-194640573D01*
X372932015Y-194640573D01*
X372944275Y-194765055D01*
X372980585Y-194884753D01*
X373039550Y-194995067D01*
X373118902Y-195091758D01*
X373215593Y-195171110D01*
X373325907Y-195230075D01*
X373445605Y-195266385D01*
X373570087Y-195278645D01*
X374534337Y-195275573D01*
X374693087Y-195116823D01*
X374693087Y-193517573D01*
X374947087Y-193517573D01*
X374947087Y-195116823D01*
X375105837Y-195275573D01*
X376070087Y-195278645D01*
X376194569Y-195266385D01*
X376314267Y-195230075D01*
X376424581Y-195171110D01*
X376521272Y-195091758D01*
X376600624Y-194995067D01*
X376659589Y-194884753D01*
X376695899Y-194765055D01*
X376708159Y-194640573D01*
X376705087Y-193676323D01*
X376546337Y-193517573D01*
X374947087Y-193517573D01*
X374693087Y-193517573D01*
X373093837Y-193517573D01*
X372935087Y-193676323D01*
X372932015Y-194640573D01*
X332258159Y-194640573D01*
X332255087Y-193676323D01*
X332096337Y-193517573D01*
X330497087Y-193517573D01*
X330243087Y-193517573D01*
X328643837Y-193517573D01*
X328485087Y-193676323D01*
X328482015Y-194640573D01*
X287808159Y-194640573D01*
X287805087Y-193676323D01*
X287646337Y-193517573D01*
X286047087Y-193517573D01*
X285793087Y-193517573D01*
X284193837Y-193517573D01*
X284035087Y-193676323D01*
X284032015Y-194640573D01*
X243358159Y-194640573D01*
X243355087Y-193676323D01*
X243196337Y-193517573D01*
X241597087Y-193517573D01*
X241343087Y-193517573D01*
X239743837Y-193517573D01*
X239585087Y-193676323D01*
X239582015Y-194640573D01*
X198908159Y-194640573D01*
X198905087Y-193676323D01*
X198746337Y-193517573D01*
X197147087Y-193517573D01*
X196893087Y-193517573D01*
X195293837Y-193517573D01*
X195135087Y-193676323D01*
X195132015Y-194640573D01*
X154458159Y-194640573D01*
X154455087Y-193676323D01*
X154296337Y-193517573D01*
X152697087Y-193517573D01*
X152443087Y-193517573D01*
X150843837Y-193517573D01*
X150685087Y-193676323D01*
X150682015Y-194640573D01*
X146812000Y-194640573D01*
X146812000Y-192140573D01*
X150682015Y-192140573D01*
X150685087Y-193104823D01*
X150843837Y-193263573D01*
X152443087Y-193263573D01*
X152443087Y-191664323D01*
X152697087Y-191664323D01*
X152697087Y-193263573D01*
X154296337Y-193263573D01*
X154455087Y-193104823D01*
X154458159Y-192140573D01*
X195132015Y-192140573D01*
X195135087Y-193104823D01*
X195293837Y-193263573D01*
X196893087Y-193263573D01*
X196893087Y-191664323D01*
X197147087Y-191664323D01*
X197147087Y-193263573D01*
X198746337Y-193263573D01*
X198905087Y-193104823D01*
X198908159Y-192140573D01*
X239582015Y-192140573D01*
X239585087Y-193104823D01*
X239743837Y-193263573D01*
X241343087Y-193263573D01*
X241343087Y-191664323D01*
X241597087Y-191664323D01*
X241597087Y-193263573D01*
X243196337Y-193263573D01*
X243355087Y-193104823D01*
X243358159Y-192140573D01*
X284032015Y-192140573D01*
X284035087Y-193104823D01*
X284193837Y-193263573D01*
X285793087Y-193263573D01*
X285793087Y-191664323D01*
X286047087Y-191664323D01*
X286047087Y-193263573D01*
X287646337Y-193263573D01*
X287805087Y-193104823D01*
X287808159Y-192140573D01*
X328482015Y-192140573D01*
X328485087Y-193104823D01*
X328643837Y-193263573D01*
X330243087Y-193263573D01*
X330243087Y-191664323D01*
X330497087Y-191664323D01*
X330497087Y-193263573D01*
X332096337Y-193263573D01*
X332255087Y-193104823D01*
X332258159Y-192140573D01*
X372932015Y-192140573D01*
X372935087Y-193104823D01*
X373093837Y-193263573D01*
X374693087Y-193263573D01*
X374693087Y-191664323D01*
X374947087Y-191664323D01*
X374947087Y-193263573D01*
X376546337Y-193263573D01*
X376705087Y-193104823D01*
X376708159Y-192140573D01*
X376695899Y-192016091D01*
X376659589Y-191896393D01*
X376600624Y-191786079D01*
X376521272Y-191689388D01*
X376424581Y-191610036D01*
X376314267Y-191551071D01*
X376194569Y-191514761D01*
X376070087Y-191502501D01*
X375105837Y-191505573D01*
X374947087Y-191664323D01*
X374693087Y-191664323D01*
X374534337Y-191505573D01*
X373570087Y-191502501D01*
X373445605Y-191514761D01*
X373325907Y-191551071D01*
X373215593Y-191610036D01*
X373118902Y-191689388D01*
X373039550Y-191786079D01*
X372980585Y-191896393D01*
X372944275Y-192016091D01*
X372932015Y-192140573D01*
X332258159Y-192140573D01*
X332245899Y-192016091D01*
X332209589Y-191896393D01*
X332150624Y-191786079D01*
X332071272Y-191689388D01*
X331974581Y-191610036D01*
X331864267Y-191551071D01*
X331744569Y-191514761D01*
X331620087Y-191502501D01*
X330655837Y-191505573D01*
X330497087Y-191664323D01*
X330243087Y-191664323D01*
X330084337Y-191505573D01*
X329120087Y-191502501D01*
X328995605Y-191514761D01*
X328875907Y-191551071D01*
X328765593Y-191610036D01*
X328668902Y-191689388D01*
X328589550Y-191786079D01*
X328530585Y-191896393D01*
X328494275Y-192016091D01*
X328482015Y-192140573D01*
X287808159Y-192140573D01*
X287795899Y-192016091D01*
X287759589Y-191896393D01*
X287700624Y-191786079D01*
X287621272Y-191689388D01*
X287524581Y-191610036D01*
X287414267Y-191551071D01*
X287294569Y-191514761D01*
X287170087Y-191502501D01*
X286205837Y-191505573D01*
X286047087Y-191664323D01*
X285793087Y-191664323D01*
X285634337Y-191505573D01*
X284670087Y-191502501D01*
X284545605Y-191514761D01*
X284425907Y-191551071D01*
X284315593Y-191610036D01*
X284218902Y-191689388D01*
X284139550Y-191786079D01*
X284080585Y-191896393D01*
X284044275Y-192016091D01*
X284032015Y-192140573D01*
X243358159Y-192140573D01*
X243345899Y-192016091D01*
X243309589Y-191896393D01*
X243250624Y-191786079D01*
X243171272Y-191689388D01*
X243074581Y-191610036D01*
X242964267Y-191551071D01*
X242844569Y-191514761D01*
X242720087Y-191502501D01*
X241755837Y-191505573D01*
X241597087Y-191664323D01*
X241343087Y-191664323D01*
X241184337Y-191505573D01*
X240220087Y-191502501D01*
X240095605Y-191514761D01*
X239975907Y-191551071D01*
X239865593Y-191610036D01*
X239768902Y-191689388D01*
X239689550Y-191786079D01*
X239630585Y-191896393D01*
X239594275Y-192016091D01*
X239582015Y-192140573D01*
X198908159Y-192140573D01*
X198895899Y-192016091D01*
X198859589Y-191896393D01*
X198800624Y-191786079D01*
X198721272Y-191689388D01*
X198624581Y-191610036D01*
X198514267Y-191551071D01*
X198394569Y-191514761D01*
X198270087Y-191502501D01*
X197305837Y-191505573D01*
X197147087Y-191664323D01*
X196893087Y-191664323D01*
X196734337Y-191505573D01*
X195770087Y-191502501D01*
X195645605Y-191514761D01*
X195525907Y-191551071D01*
X195415593Y-191610036D01*
X195318902Y-191689388D01*
X195239550Y-191786079D01*
X195180585Y-191896393D01*
X195144275Y-192016091D01*
X195132015Y-192140573D01*
X154458159Y-192140573D01*
X154445899Y-192016091D01*
X154409589Y-191896393D01*
X154350624Y-191786079D01*
X154271272Y-191689388D01*
X154174581Y-191610036D01*
X154064267Y-191551071D01*
X153944569Y-191514761D01*
X153820087Y-191502501D01*
X152855837Y-191505573D01*
X152697087Y-191664323D01*
X152443087Y-191664323D01*
X152284337Y-191505573D01*
X151320087Y-191502501D01*
X151195605Y-191514761D01*
X151075907Y-191551071D01*
X150965593Y-191610036D01*
X150868902Y-191689388D01*
X150789550Y-191786079D01*
X150730585Y-191896393D01*
X150694275Y-192016091D01*
X150682015Y-192140573D01*
X146812000Y-192140573D01*
X146812000Y-189640573D01*
X150682015Y-189640573D01*
X150694275Y-189765055D01*
X150730585Y-189884753D01*
X150789550Y-189995067D01*
X150868902Y-190091758D01*
X150965593Y-190171110D01*
X151075907Y-190230075D01*
X151195605Y-190266385D01*
X151320087Y-190278645D01*
X152284337Y-190275573D01*
X152443087Y-190116823D01*
X152443087Y-188517573D01*
X152697087Y-188517573D01*
X152697087Y-190116823D01*
X152855837Y-190275573D01*
X153820087Y-190278645D01*
X153944569Y-190266385D01*
X154064267Y-190230075D01*
X154174581Y-190171110D01*
X154271272Y-190091758D01*
X154350624Y-189995067D01*
X154409589Y-189884753D01*
X154445899Y-189765055D01*
X154458159Y-189640573D01*
X195132015Y-189640573D01*
X195144275Y-189765055D01*
X195180585Y-189884753D01*
X195239550Y-189995067D01*
X195318902Y-190091758D01*
X195415593Y-190171110D01*
X195525907Y-190230075D01*
X195645605Y-190266385D01*
X195770087Y-190278645D01*
X196734337Y-190275573D01*
X196893087Y-190116823D01*
X196893087Y-188517573D01*
X197147087Y-188517573D01*
X197147087Y-190116823D01*
X197305837Y-190275573D01*
X198270087Y-190278645D01*
X198394569Y-190266385D01*
X198514267Y-190230075D01*
X198624581Y-190171110D01*
X198721272Y-190091758D01*
X198800624Y-189995067D01*
X198859589Y-189884753D01*
X198895899Y-189765055D01*
X198908159Y-189640573D01*
X239582015Y-189640573D01*
X239594275Y-189765055D01*
X239630585Y-189884753D01*
X239689550Y-189995067D01*
X239768902Y-190091758D01*
X239865593Y-190171110D01*
X239975907Y-190230075D01*
X240095605Y-190266385D01*
X240220087Y-190278645D01*
X241184337Y-190275573D01*
X241343087Y-190116823D01*
X241343087Y-188517573D01*
X241597087Y-188517573D01*
X241597087Y-190116823D01*
X241755837Y-190275573D01*
X242720087Y-190278645D01*
X242844569Y-190266385D01*
X242964267Y-190230075D01*
X243074581Y-190171110D01*
X243171272Y-190091758D01*
X243250624Y-189995067D01*
X243309589Y-189884753D01*
X243345899Y-189765055D01*
X243358159Y-189640573D01*
X284032015Y-189640573D01*
X284044275Y-189765055D01*
X284080585Y-189884753D01*
X284139550Y-189995067D01*
X284218902Y-190091758D01*
X284315593Y-190171110D01*
X284425907Y-190230075D01*
X284545605Y-190266385D01*
X284670087Y-190278645D01*
X285634337Y-190275573D01*
X285793087Y-190116823D01*
X285793087Y-188517573D01*
X286047087Y-188517573D01*
X286047087Y-190116823D01*
X286205837Y-190275573D01*
X287170087Y-190278645D01*
X287294569Y-190266385D01*
X287414267Y-190230075D01*
X287524581Y-190171110D01*
X287621272Y-190091758D01*
X287700624Y-189995067D01*
X287759589Y-189884753D01*
X287795899Y-189765055D01*
X287808159Y-189640573D01*
X328482015Y-189640573D01*
X328494275Y-189765055D01*
X328530585Y-189884753D01*
X328589550Y-189995067D01*
X328668902Y-190091758D01*
X328765593Y-190171110D01*
X328875907Y-190230075D01*
X328995605Y-190266385D01*
X329120087Y-190278645D01*
X330084337Y-190275573D01*
X330243087Y-190116823D01*
X330243087Y-188517573D01*
X330497087Y-188517573D01*
X330497087Y-190116823D01*
X330655837Y-190275573D01*
X331620087Y-190278645D01*
X331744569Y-190266385D01*
X331864267Y-190230075D01*
X331974581Y-190171110D01*
X332071272Y-190091758D01*
X332150624Y-189995067D01*
X332209589Y-189884753D01*
X332245899Y-189765055D01*
X332258159Y-189640573D01*
X372932015Y-189640573D01*
X372944275Y-189765055D01*
X372980585Y-189884753D01*
X373039550Y-189995067D01*
X373118902Y-190091758D01*
X373215593Y-190171110D01*
X373325907Y-190230075D01*
X373445605Y-190266385D01*
X373570087Y-190278645D01*
X374534337Y-190275573D01*
X374693087Y-190116823D01*
X374693087Y-188517573D01*
X374947087Y-188517573D01*
X374947087Y-190116823D01*
X375105837Y-190275573D01*
X376070087Y-190278645D01*
X376194569Y-190266385D01*
X376314267Y-190230075D01*
X376424581Y-190171110D01*
X376521272Y-190091758D01*
X376600624Y-189995067D01*
X376659589Y-189884753D01*
X376695899Y-189765055D01*
X376708159Y-189640573D01*
X376705087Y-188676323D01*
X376546337Y-188517573D01*
X374947087Y-188517573D01*
X374693087Y-188517573D01*
X373093837Y-188517573D01*
X372935087Y-188676323D01*
X372932015Y-189640573D01*
X332258159Y-189640573D01*
X332255087Y-188676323D01*
X332096337Y-188517573D01*
X330497087Y-188517573D01*
X330243087Y-188517573D01*
X328643837Y-188517573D01*
X328485087Y-188676323D01*
X328482015Y-189640573D01*
X287808159Y-189640573D01*
X287805087Y-188676323D01*
X287646337Y-188517573D01*
X286047087Y-188517573D01*
X285793087Y-188517573D01*
X284193837Y-188517573D01*
X284035087Y-188676323D01*
X284032015Y-189640573D01*
X243358159Y-189640573D01*
X243355087Y-188676323D01*
X243196337Y-188517573D01*
X241597087Y-188517573D01*
X241343087Y-188517573D01*
X239743837Y-188517573D01*
X239585087Y-188676323D01*
X239582015Y-189640573D01*
X198908159Y-189640573D01*
X198905087Y-188676323D01*
X198746337Y-188517573D01*
X197147087Y-188517573D01*
X196893087Y-188517573D01*
X195293837Y-188517573D01*
X195135087Y-188676323D01*
X195132015Y-189640573D01*
X154458159Y-189640573D01*
X154455087Y-188676323D01*
X154296337Y-188517573D01*
X152697087Y-188517573D01*
X152443087Y-188517573D01*
X150843837Y-188517573D01*
X150685087Y-188676323D01*
X150682015Y-189640573D01*
X146812000Y-189640573D01*
X146812000Y-187140573D01*
X150682015Y-187140573D01*
X150685087Y-188104823D01*
X150843837Y-188263573D01*
X152443087Y-188263573D01*
X152443087Y-186664323D01*
X152697087Y-186664323D01*
X152697087Y-188263573D01*
X154296337Y-188263573D01*
X154455087Y-188104823D01*
X154458159Y-187140573D01*
X195132015Y-187140573D01*
X195135087Y-188104823D01*
X195293837Y-188263573D01*
X196893087Y-188263573D01*
X196893087Y-186664323D01*
X197147087Y-186664323D01*
X197147087Y-188263573D01*
X198746337Y-188263573D01*
X198905087Y-188104823D01*
X198908159Y-187140573D01*
X239582015Y-187140573D01*
X239585087Y-188104823D01*
X239743837Y-188263573D01*
X241343087Y-188263573D01*
X241343087Y-186664323D01*
X241597087Y-186664323D01*
X241597087Y-188263573D01*
X243196337Y-188263573D01*
X243355087Y-188104823D01*
X243358159Y-187140573D01*
X284032015Y-187140573D01*
X284035087Y-188104823D01*
X284193837Y-188263573D01*
X285793087Y-188263573D01*
X285793087Y-186664323D01*
X286047087Y-186664323D01*
X286047087Y-188263573D01*
X287646337Y-188263573D01*
X287805087Y-188104823D01*
X287808159Y-187140573D01*
X328482015Y-187140573D01*
X328485087Y-188104823D01*
X328643837Y-188263573D01*
X330243087Y-188263573D01*
X330243087Y-186664323D01*
X330497087Y-186664323D01*
X330497087Y-188263573D01*
X332096337Y-188263573D01*
X332255087Y-188104823D01*
X332258159Y-187140573D01*
X372932015Y-187140573D01*
X372935087Y-188104823D01*
X373093837Y-188263573D01*
X374693087Y-188263573D01*
X374693087Y-186664323D01*
X374947087Y-186664323D01*
X374947087Y-188263573D01*
X376546337Y-188263573D01*
X376705087Y-188104823D01*
X376708159Y-187140573D01*
X376695899Y-187016091D01*
X376659589Y-186896393D01*
X376600624Y-186786079D01*
X376521272Y-186689388D01*
X376424581Y-186610036D01*
X376314267Y-186551071D01*
X376194569Y-186514761D01*
X376070087Y-186502501D01*
X375105837Y-186505573D01*
X374947087Y-186664323D01*
X374693087Y-186664323D01*
X374534337Y-186505573D01*
X373570087Y-186502501D01*
X373445605Y-186514761D01*
X373325907Y-186551071D01*
X373215593Y-186610036D01*
X373118902Y-186689388D01*
X373039550Y-186786079D01*
X372980585Y-186896393D01*
X372944275Y-187016091D01*
X372932015Y-187140573D01*
X332258159Y-187140573D01*
X332245899Y-187016091D01*
X332209589Y-186896393D01*
X332150624Y-186786079D01*
X332071272Y-186689388D01*
X331974581Y-186610036D01*
X331864267Y-186551071D01*
X331744569Y-186514761D01*
X331620087Y-186502501D01*
X330655837Y-186505573D01*
X330497087Y-186664323D01*
X330243087Y-186664323D01*
X330084337Y-186505573D01*
X329120087Y-186502501D01*
X328995605Y-186514761D01*
X328875907Y-186551071D01*
X328765593Y-186610036D01*
X328668902Y-186689388D01*
X328589550Y-186786079D01*
X328530585Y-186896393D01*
X328494275Y-187016091D01*
X328482015Y-187140573D01*
X287808159Y-187140573D01*
X287795899Y-187016091D01*
X287759589Y-186896393D01*
X287700624Y-186786079D01*
X287621272Y-186689388D01*
X287524581Y-186610036D01*
X287414267Y-186551071D01*
X287294569Y-186514761D01*
X287170087Y-186502501D01*
X286205837Y-186505573D01*
X286047087Y-186664323D01*
X285793087Y-186664323D01*
X285634337Y-186505573D01*
X284670087Y-186502501D01*
X284545605Y-186514761D01*
X284425907Y-186551071D01*
X284315593Y-186610036D01*
X284218902Y-186689388D01*
X284139550Y-186786079D01*
X284080585Y-186896393D01*
X284044275Y-187016091D01*
X284032015Y-187140573D01*
X243358159Y-187140573D01*
X243345899Y-187016091D01*
X243309589Y-186896393D01*
X243250624Y-186786079D01*
X243171272Y-186689388D01*
X243074581Y-186610036D01*
X242964267Y-186551071D01*
X242844569Y-186514761D01*
X242720087Y-186502501D01*
X241755837Y-186505573D01*
X241597087Y-186664323D01*
X241343087Y-186664323D01*
X241184337Y-186505573D01*
X240220087Y-186502501D01*
X240095605Y-186514761D01*
X239975907Y-186551071D01*
X239865593Y-186610036D01*
X239768902Y-186689388D01*
X239689550Y-186786079D01*
X239630585Y-186896393D01*
X239594275Y-187016091D01*
X239582015Y-187140573D01*
X198908159Y-187140573D01*
X198895899Y-187016091D01*
X198859589Y-186896393D01*
X198800624Y-186786079D01*
X198721272Y-186689388D01*
X198624581Y-186610036D01*
X198514267Y-186551071D01*
X198394569Y-186514761D01*
X198270087Y-186502501D01*
X197305837Y-186505573D01*
X197147087Y-186664323D01*
X196893087Y-186664323D01*
X196734337Y-186505573D01*
X195770087Y-186502501D01*
X195645605Y-186514761D01*
X195525907Y-186551071D01*
X195415593Y-186610036D01*
X195318902Y-186689388D01*
X195239550Y-186786079D01*
X195180585Y-186896393D01*
X195144275Y-187016091D01*
X195132015Y-187140573D01*
X154458159Y-187140573D01*
X154445899Y-187016091D01*
X154409589Y-186896393D01*
X154350624Y-186786079D01*
X154271272Y-186689388D01*
X154174581Y-186610036D01*
X154064267Y-186551071D01*
X153944569Y-186514761D01*
X153820087Y-186502501D01*
X152855837Y-186505573D01*
X152697087Y-186664323D01*
X152443087Y-186664323D01*
X152284337Y-186505573D01*
X151320087Y-186502501D01*
X151195605Y-186514761D01*
X151075907Y-186551071D01*
X150965593Y-186610036D01*
X150868902Y-186689388D01*
X150789550Y-186786079D01*
X150730585Y-186896393D01*
X150694275Y-187016091D01*
X150682015Y-187140573D01*
X146812000Y-187140573D01*
X146812000Y-168808061D01*
X146920000Y-168808061D01*
X146920000Y-169011939D01*
X146959774Y-169211898D01*
X147037795Y-169400256D01*
X147151063Y-169569774D01*
X147295226Y-169713937D01*
X147464744Y-169827205D01*
X147653102Y-169905226D01*
X147853061Y-169945000D01*
X147915199Y-169945000D01*
X149271774Y-171301576D01*
X149295572Y-171330574D01*
X149411297Y-171425547D01*
X149543326Y-171496119D01*
X149686587Y-171539576D01*
X149798240Y-171550573D01*
X149798250Y-171550573D01*
X149835573Y-171554249D01*
X149872896Y-171550573D01*
X150682015Y-171550573D01*
X150682015Y-172040573D01*
X150694275Y-172165055D01*
X150730585Y-172284753D01*
X150789550Y-172395067D01*
X150868902Y-172491758D01*
X150965593Y-172571110D01*
X151075907Y-172630075D01*
X151195605Y-172666385D01*
X151320087Y-172678645D01*
X153820087Y-172678645D01*
X153944569Y-172666385D01*
X154064267Y-172630075D01*
X154174581Y-172571110D01*
X154271272Y-172491758D01*
X154350624Y-172395067D01*
X154409589Y-172284753D01*
X154445899Y-172165055D01*
X154458159Y-172040573D01*
X154458159Y-169540573D01*
X154445899Y-169416091D01*
X154409589Y-169296393D01*
X154350624Y-169186079D01*
X154271272Y-169089388D01*
X154174581Y-169010036D01*
X154064267Y-168951071D01*
X153944569Y-168914761D01*
X153820087Y-168902501D01*
X151320087Y-168902501D01*
X151195605Y-168914761D01*
X151075907Y-168951071D01*
X150965593Y-169010036D01*
X150868902Y-169089388D01*
X150789550Y-169186079D01*
X150730585Y-169296393D01*
X150694275Y-169416091D01*
X150682015Y-169540573D01*
X150682015Y-170030573D01*
X150150375Y-170030573D01*
X149029801Y-168910000D01*
X149131740Y-168808061D01*
X193910000Y-168808061D01*
X193910000Y-169011939D01*
X193949774Y-169211898D01*
X194027795Y-169400256D01*
X194141063Y-169569774D01*
X194285226Y-169713937D01*
X194454744Y-169827205D01*
X194643102Y-169905226D01*
X194843061Y-169945000D01*
X194905199Y-169945000D01*
X195132015Y-170171816D01*
X195132015Y-172040573D01*
X195144275Y-172165055D01*
X195180585Y-172284753D01*
X195239550Y-172395067D01*
X195318902Y-172491758D01*
X195415593Y-172571110D01*
X195525907Y-172630075D01*
X195645605Y-172666385D01*
X195770087Y-172678645D01*
X198270087Y-172678645D01*
X198394569Y-172666385D01*
X198514267Y-172630075D01*
X198624581Y-172571110D01*
X198721272Y-172491758D01*
X198800624Y-172395067D01*
X198859589Y-172284753D01*
X198895899Y-172165055D01*
X198908159Y-172040573D01*
X198908159Y-169540573D01*
X198895899Y-169416091D01*
X198859589Y-169296393D01*
X198800624Y-169186079D01*
X198721272Y-169089388D01*
X198624581Y-169010036D01*
X198514267Y-168951071D01*
X198394569Y-168914761D01*
X198270087Y-168902501D01*
X196027300Y-168902501D01*
X196121740Y-168808061D01*
X238360000Y-168808061D01*
X238360000Y-169011939D01*
X238399774Y-169211898D01*
X238477795Y-169400256D01*
X238591063Y-169569774D01*
X238735226Y-169713937D01*
X238904744Y-169827205D01*
X239093102Y-169905226D01*
X239293061Y-169945000D01*
X239355199Y-169945000D01*
X239582015Y-170171816D01*
X239582015Y-172040573D01*
X239594275Y-172165055D01*
X239630585Y-172284753D01*
X239689550Y-172395067D01*
X239768902Y-172491758D01*
X239865593Y-172571110D01*
X239975907Y-172630075D01*
X240095605Y-172666385D01*
X240220087Y-172678645D01*
X242720087Y-172678645D01*
X242844569Y-172666385D01*
X242964267Y-172630075D01*
X243074581Y-172571110D01*
X243171272Y-172491758D01*
X243250624Y-172395067D01*
X243309589Y-172284753D01*
X243345899Y-172165055D01*
X243358159Y-172040573D01*
X243358159Y-169540573D01*
X243345899Y-169416091D01*
X243309589Y-169296393D01*
X243250624Y-169186079D01*
X243171272Y-169089388D01*
X243074581Y-169010036D01*
X242964267Y-168951071D01*
X242844569Y-168914761D01*
X242720087Y-168902501D01*
X240477300Y-168902501D01*
X240571740Y-168808061D01*
X282810000Y-168808061D01*
X282810000Y-169011939D01*
X282849774Y-169211898D01*
X282927795Y-169400256D01*
X283041063Y-169569774D01*
X283185226Y-169713937D01*
X283354744Y-169827205D01*
X283543102Y-169905226D01*
X283743061Y-169945000D01*
X283805199Y-169945000D01*
X284032015Y-170171816D01*
X284032015Y-172040573D01*
X284044275Y-172165055D01*
X284080585Y-172284753D01*
X284139550Y-172395067D01*
X284218902Y-172491758D01*
X284315593Y-172571110D01*
X284425907Y-172630075D01*
X284545605Y-172666385D01*
X284670087Y-172678645D01*
X287170087Y-172678645D01*
X287294569Y-172666385D01*
X287414267Y-172630075D01*
X287524581Y-172571110D01*
X287621272Y-172491758D01*
X287700624Y-172395067D01*
X287759589Y-172284753D01*
X287795899Y-172165055D01*
X287808159Y-172040573D01*
X287808159Y-169540573D01*
X287795899Y-169416091D01*
X287759589Y-169296393D01*
X287700624Y-169186079D01*
X287621272Y-169089388D01*
X287524581Y-169010036D01*
X287414267Y-168951071D01*
X287294569Y-168914761D01*
X287170087Y-168902501D01*
X284927300Y-168902501D01*
X285021740Y-168808061D01*
X327260000Y-168808061D01*
X327260000Y-169011939D01*
X327299774Y-169211898D01*
X327377795Y-169400256D01*
X327491063Y-169569774D01*
X327635226Y-169713937D01*
X327804744Y-169827205D01*
X327993102Y-169905226D01*
X328193061Y-169945000D01*
X328255199Y-169945000D01*
X328482015Y-170171816D01*
X328482015Y-172040573D01*
X328494275Y-172165055D01*
X328530585Y-172284753D01*
X328589550Y-172395067D01*
X328668902Y-172491758D01*
X328765593Y-172571110D01*
X328875907Y-172630075D01*
X328995605Y-172666385D01*
X329120087Y-172678645D01*
X331620087Y-172678645D01*
X331744569Y-172666385D01*
X331864267Y-172630075D01*
X331974581Y-172571110D01*
X332071272Y-172491758D01*
X332150624Y-172395067D01*
X332209589Y-172284753D01*
X332245899Y-172165055D01*
X332258159Y-172040573D01*
X332258159Y-169540573D01*
X332245899Y-169416091D01*
X332209589Y-169296393D01*
X332150624Y-169186079D01*
X332071272Y-169089388D01*
X331974581Y-169010036D01*
X331864267Y-168951071D01*
X331744569Y-168914761D01*
X331620087Y-168902501D01*
X329377300Y-168902501D01*
X329471740Y-168808061D01*
X371710000Y-168808061D01*
X371710000Y-169011939D01*
X371749774Y-169211898D01*
X371827795Y-169400256D01*
X371941063Y-169569774D01*
X372085226Y-169713937D01*
X372254744Y-169827205D01*
X372443102Y-169905226D01*
X372643061Y-169945000D01*
X372705199Y-169945000D01*
X372932015Y-170171816D01*
X372932015Y-172040573D01*
X372944275Y-172165055D01*
X372980585Y-172284753D01*
X373039550Y-172395067D01*
X373118902Y-172491758D01*
X373215593Y-172571110D01*
X373325907Y-172630075D01*
X373445605Y-172666385D01*
X373570087Y-172678645D01*
X376070087Y-172678645D01*
X376194569Y-172666385D01*
X376314267Y-172630075D01*
X376424581Y-172571110D01*
X376521272Y-172491758D01*
X376600624Y-172395067D01*
X376659589Y-172284753D01*
X376695899Y-172165055D01*
X376708159Y-172040573D01*
X376708159Y-169540573D01*
X376695899Y-169416091D01*
X376659589Y-169296393D01*
X376600624Y-169186079D01*
X376521272Y-169089388D01*
X376424581Y-169010036D01*
X376314267Y-168951071D01*
X376194569Y-168914761D01*
X376070087Y-168902501D01*
X373827300Y-168902501D01*
X374051156Y-168678645D01*
X376070087Y-168678645D01*
X376194569Y-168666385D01*
X376314267Y-168630075D01*
X376424581Y-168571110D01*
X376521272Y-168491758D01*
X376600624Y-168395067D01*
X376659589Y-168284753D01*
X376685886Y-168198061D01*
X415640000Y-168198061D01*
X415640000Y-168401939D01*
X415679774Y-168601898D01*
X415757795Y-168790256D01*
X415871063Y-168959774D01*
X416015226Y-169103937D01*
X416184744Y-169217205D01*
X416373102Y-169295226D01*
X416573061Y-169335000D01*
X416635199Y-169335000D01*
X417302015Y-170001817D01*
X417302015Y-171780573D01*
X417314275Y-171905055D01*
X417350585Y-172024753D01*
X417409550Y-172135067D01*
X417488902Y-172231758D01*
X417585593Y-172311110D01*
X417695907Y-172370075D01*
X417815605Y-172406385D01*
X417940087Y-172418645D01*
X420440087Y-172418645D01*
X420564569Y-172406385D01*
X420684267Y-172370075D01*
X420794581Y-172311110D01*
X420891272Y-172231758D01*
X420970624Y-172135067D01*
X421029589Y-172024753D01*
X421065899Y-171905055D01*
X421078159Y-171780573D01*
X421078159Y-169280573D01*
X421065899Y-169156091D01*
X421029589Y-169036393D01*
X420970624Y-168926079D01*
X420891272Y-168829388D01*
X420794581Y-168750036D01*
X420684267Y-168691071D01*
X420564569Y-168654761D01*
X420440087Y-168642501D01*
X418152960Y-168642501D01*
X418376816Y-168418645D01*
X420440087Y-168418645D01*
X420564569Y-168406385D01*
X420684267Y-168370075D01*
X420794581Y-168311110D01*
X420891272Y-168231758D01*
X420970624Y-168135067D01*
X421029589Y-168024753D01*
X421065899Y-167905055D01*
X421078159Y-167780573D01*
X421078159Y-165280573D01*
X421065899Y-165156091D01*
X421029589Y-165036393D01*
X420970624Y-164926079D01*
X420891272Y-164829388D01*
X420794581Y-164750036D01*
X420684267Y-164691071D01*
X420564569Y-164654761D01*
X420440087Y-164642501D01*
X417940087Y-164642501D01*
X417815605Y-164654761D01*
X417695907Y-164691071D01*
X417585593Y-164750036D01*
X417488902Y-164829388D01*
X417409550Y-164926079D01*
X417350585Y-165036393D01*
X417314275Y-165156091D01*
X417302015Y-165280573D01*
X417302015Y-167343844D01*
X417223888Y-167421971D01*
X417165256Y-167382795D01*
X416976898Y-167304774D01*
X416776939Y-167265000D01*
X416573061Y-167265000D01*
X416373102Y-167304774D01*
X416184744Y-167382795D01*
X416015226Y-167496063D01*
X415871063Y-167640226D01*
X415757795Y-167809744D01*
X415679774Y-167998102D01*
X415640000Y-168198061D01*
X376685886Y-168198061D01*
X376695899Y-168165055D01*
X376708159Y-168040573D01*
X376708159Y-165540573D01*
X376695899Y-165416091D01*
X376659589Y-165296393D01*
X376600624Y-165186079D01*
X376521272Y-165089388D01*
X376424581Y-165010036D01*
X376314267Y-164951071D01*
X376194569Y-164914761D01*
X376070087Y-164902501D01*
X373570087Y-164902501D01*
X373445605Y-164914761D01*
X373325907Y-164951071D01*
X373215593Y-165010036D01*
X373118902Y-165089388D01*
X373039550Y-165186079D01*
X372980585Y-165296393D01*
X372944275Y-165416091D01*
X372932015Y-165540573D01*
X372932015Y-167648184D01*
X372705199Y-167875000D01*
X372643061Y-167875000D01*
X372443102Y-167914774D01*
X372254744Y-167992795D01*
X372085226Y-168106063D01*
X371941063Y-168250226D01*
X371827795Y-168419744D01*
X371749774Y-168608102D01*
X371710000Y-168808061D01*
X329471740Y-168808061D01*
X329601156Y-168678645D01*
X331620087Y-168678645D01*
X331744569Y-168666385D01*
X331864267Y-168630075D01*
X331974581Y-168571110D01*
X332071272Y-168491758D01*
X332150624Y-168395067D01*
X332209589Y-168284753D01*
X332245899Y-168165055D01*
X332258159Y-168040573D01*
X332258159Y-165540573D01*
X332245899Y-165416091D01*
X332209589Y-165296393D01*
X332150624Y-165186079D01*
X332071272Y-165089388D01*
X331974581Y-165010036D01*
X331864267Y-164951071D01*
X331744569Y-164914761D01*
X331620087Y-164902501D01*
X329120087Y-164902501D01*
X328995605Y-164914761D01*
X328875907Y-164951071D01*
X328765593Y-165010036D01*
X328668902Y-165089388D01*
X328589550Y-165186079D01*
X328530585Y-165296393D01*
X328494275Y-165416091D01*
X328482015Y-165540573D01*
X328482015Y-167648184D01*
X328255199Y-167875000D01*
X328193061Y-167875000D01*
X327993102Y-167914774D01*
X327804744Y-167992795D01*
X327635226Y-168106063D01*
X327491063Y-168250226D01*
X327377795Y-168419744D01*
X327299774Y-168608102D01*
X327260000Y-168808061D01*
X285021740Y-168808061D01*
X285151156Y-168678645D01*
X287170087Y-168678645D01*
X287294569Y-168666385D01*
X287414267Y-168630075D01*
X287524581Y-168571110D01*
X287621272Y-168491758D01*
X287700624Y-168395067D01*
X287759589Y-168284753D01*
X287795899Y-168165055D01*
X287808159Y-168040573D01*
X287808159Y-165540573D01*
X287795899Y-165416091D01*
X287759589Y-165296393D01*
X287700624Y-165186079D01*
X287621272Y-165089388D01*
X287524581Y-165010036D01*
X287414267Y-164951071D01*
X287294569Y-164914761D01*
X287170087Y-164902501D01*
X284670087Y-164902501D01*
X284545605Y-164914761D01*
X284425907Y-164951071D01*
X284315593Y-165010036D01*
X284218902Y-165089388D01*
X284139550Y-165186079D01*
X284080585Y-165296393D01*
X284044275Y-165416091D01*
X284032015Y-165540573D01*
X284032015Y-167648184D01*
X283805199Y-167875000D01*
X283743061Y-167875000D01*
X283543102Y-167914774D01*
X283354744Y-167992795D01*
X283185226Y-168106063D01*
X283041063Y-168250226D01*
X282927795Y-168419744D01*
X282849774Y-168608102D01*
X282810000Y-168808061D01*
X240571740Y-168808061D01*
X240701156Y-168678645D01*
X242720087Y-168678645D01*
X242844569Y-168666385D01*
X242964267Y-168630075D01*
X243074581Y-168571110D01*
X243171272Y-168491758D01*
X243250624Y-168395067D01*
X243309589Y-168284753D01*
X243345899Y-168165055D01*
X243358159Y-168040573D01*
X243358159Y-165540573D01*
X243345899Y-165416091D01*
X243309589Y-165296393D01*
X243250624Y-165186079D01*
X243171272Y-165089388D01*
X243074581Y-165010036D01*
X242964267Y-164951071D01*
X242844569Y-164914761D01*
X242720087Y-164902501D01*
X240220087Y-164902501D01*
X240095605Y-164914761D01*
X239975907Y-164951071D01*
X239865593Y-165010036D01*
X239768902Y-165089388D01*
X239689550Y-165186079D01*
X239630585Y-165296393D01*
X239594275Y-165416091D01*
X239582015Y-165540573D01*
X239582015Y-167648184D01*
X239355199Y-167875000D01*
X239293061Y-167875000D01*
X239093102Y-167914774D01*
X238904744Y-167992795D01*
X238735226Y-168106063D01*
X238591063Y-168250226D01*
X238477795Y-168419744D01*
X238399774Y-168608102D01*
X238360000Y-168808061D01*
X196121740Y-168808061D01*
X196251156Y-168678645D01*
X198270087Y-168678645D01*
X198394569Y-168666385D01*
X198514267Y-168630075D01*
X198624581Y-168571110D01*
X198721272Y-168491758D01*
X198800624Y-168395067D01*
X198859589Y-168284753D01*
X198895899Y-168165055D01*
X198908159Y-168040573D01*
X198908159Y-165540573D01*
X198895899Y-165416091D01*
X198859589Y-165296393D01*
X198800624Y-165186079D01*
X198721272Y-165089388D01*
X198624581Y-165010036D01*
X198514267Y-164951071D01*
X198394569Y-164914761D01*
X198270087Y-164902501D01*
X195770087Y-164902501D01*
X195645605Y-164914761D01*
X195525907Y-164951071D01*
X195415593Y-165010036D01*
X195318902Y-165089388D01*
X195239550Y-165186079D01*
X195180585Y-165296393D01*
X195144275Y-165416091D01*
X195132015Y-165540573D01*
X195132015Y-167648184D01*
X194905199Y-167875000D01*
X194843061Y-167875000D01*
X194643102Y-167914774D01*
X194454744Y-167992795D01*
X194285226Y-168106063D01*
X194141063Y-168250226D01*
X194027795Y-168419744D01*
X193949774Y-168608102D01*
X193910000Y-168808061D01*
X149131740Y-168808061D01*
X150389230Y-167550573D01*
X150682015Y-167550573D01*
X150682015Y-168040573D01*
X150694275Y-168165055D01*
X150730585Y-168284753D01*
X150789550Y-168395067D01*
X150868902Y-168491758D01*
X150965593Y-168571110D01*
X151075907Y-168630075D01*
X151195605Y-168666385D01*
X151320087Y-168678645D01*
X153820087Y-168678645D01*
X153944569Y-168666385D01*
X154064267Y-168630075D01*
X154174581Y-168571110D01*
X154271272Y-168491758D01*
X154350624Y-168395067D01*
X154409589Y-168284753D01*
X154445899Y-168165055D01*
X154458159Y-168040573D01*
X154458159Y-165540573D01*
X154445899Y-165416091D01*
X154409589Y-165296393D01*
X154350624Y-165186079D01*
X154271272Y-165089388D01*
X154174581Y-165010036D01*
X154064267Y-164951071D01*
X153944569Y-164914761D01*
X153820087Y-164902501D01*
X151320087Y-164902501D01*
X151195605Y-164914761D01*
X151075907Y-164951071D01*
X150965593Y-165010036D01*
X150868902Y-165089388D01*
X150789550Y-165186079D01*
X150730585Y-165296393D01*
X150694275Y-165416091D01*
X150682015Y-165540573D01*
X150682015Y-166030573D01*
X150111749Y-166030573D01*
X150074426Y-166026897D01*
X150037103Y-166030573D01*
X150037094Y-166030573D01*
X149925441Y-166041570D01*
X149782180Y-166085027D01*
X149650151Y-166155599D01*
X149650149Y-166155600D01*
X149650150Y-166155600D01*
X149563423Y-166226774D01*
X149563419Y-166226778D01*
X149534426Y-166250572D01*
X149510632Y-166279565D01*
X147915199Y-167875000D01*
X147853061Y-167875000D01*
X147653102Y-167914774D01*
X147464744Y-167992795D01*
X147295226Y-168106063D01*
X147151063Y-168250226D01*
X147037795Y-168419744D01*
X146959774Y-168608102D01*
X146920000Y-168808061D01*
X146812000Y-168808061D01*
X146812000Y-150640573D01*
X150682015Y-150640573D01*
X150694275Y-150765055D01*
X150730585Y-150884753D01*
X150789550Y-150995067D01*
X150868902Y-151091758D01*
X150965593Y-151171110D01*
X151075907Y-151230075D01*
X151195605Y-151266385D01*
X151320087Y-151278645D01*
X152284337Y-151275573D01*
X152443087Y-151116823D01*
X152443087Y-149517573D01*
X152697087Y-149517573D01*
X152697087Y-151116823D01*
X152855837Y-151275573D01*
X153820087Y-151278645D01*
X153944569Y-151266385D01*
X154064267Y-151230075D01*
X154174581Y-151171110D01*
X154271272Y-151091758D01*
X154350624Y-150995067D01*
X154409589Y-150884753D01*
X154445899Y-150765055D01*
X154458159Y-150640573D01*
X195132015Y-150640573D01*
X195144275Y-150765055D01*
X195180585Y-150884753D01*
X195239550Y-150995067D01*
X195318902Y-151091758D01*
X195415593Y-151171110D01*
X195525907Y-151230075D01*
X195645605Y-151266385D01*
X195770087Y-151278645D01*
X196734337Y-151275573D01*
X196893087Y-151116823D01*
X196893087Y-149517573D01*
X197147087Y-149517573D01*
X197147087Y-151116823D01*
X197305837Y-151275573D01*
X198270087Y-151278645D01*
X198394569Y-151266385D01*
X198514267Y-151230075D01*
X198624581Y-151171110D01*
X198721272Y-151091758D01*
X198800624Y-150995067D01*
X198859589Y-150884753D01*
X198895899Y-150765055D01*
X198908159Y-150640573D01*
X239582015Y-150640573D01*
X239594275Y-150765055D01*
X239630585Y-150884753D01*
X239689550Y-150995067D01*
X239768902Y-151091758D01*
X239865593Y-151171110D01*
X239975907Y-151230075D01*
X240095605Y-151266385D01*
X240220087Y-151278645D01*
X241184337Y-151275573D01*
X241343087Y-151116823D01*
X241343087Y-149517573D01*
X241597087Y-149517573D01*
X241597087Y-151116823D01*
X241755837Y-151275573D01*
X242720087Y-151278645D01*
X242844569Y-151266385D01*
X242964267Y-151230075D01*
X243074581Y-151171110D01*
X243171272Y-151091758D01*
X243250624Y-150995067D01*
X243309589Y-150884753D01*
X243345899Y-150765055D01*
X243358159Y-150640573D01*
X284032015Y-150640573D01*
X284044275Y-150765055D01*
X284080585Y-150884753D01*
X284139550Y-150995067D01*
X284218902Y-151091758D01*
X284315593Y-151171110D01*
X284425907Y-151230075D01*
X284545605Y-151266385D01*
X284670087Y-151278645D01*
X285634337Y-151275573D01*
X285793087Y-151116823D01*
X285793087Y-149517573D01*
X286047087Y-149517573D01*
X286047087Y-151116823D01*
X286205837Y-151275573D01*
X287170087Y-151278645D01*
X287294569Y-151266385D01*
X287414267Y-151230075D01*
X287524581Y-151171110D01*
X287621272Y-151091758D01*
X287700624Y-150995067D01*
X287759589Y-150884753D01*
X287795899Y-150765055D01*
X287808159Y-150640573D01*
X328482015Y-150640573D01*
X328494275Y-150765055D01*
X328530585Y-150884753D01*
X328589550Y-150995067D01*
X328668902Y-151091758D01*
X328765593Y-151171110D01*
X328875907Y-151230075D01*
X328995605Y-151266385D01*
X329120087Y-151278645D01*
X330084337Y-151275573D01*
X330243087Y-151116823D01*
X330243087Y-149517573D01*
X330497087Y-149517573D01*
X330497087Y-151116823D01*
X330655837Y-151275573D01*
X331620087Y-151278645D01*
X331744569Y-151266385D01*
X331864267Y-151230075D01*
X331974581Y-151171110D01*
X332071272Y-151091758D01*
X332150624Y-150995067D01*
X332209589Y-150884753D01*
X332245899Y-150765055D01*
X332258159Y-150640573D01*
X372932015Y-150640573D01*
X372944275Y-150765055D01*
X372980585Y-150884753D01*
X373039550Y-150995067D01*
X373118902Y-151091758D01*
X373215593Y-151171110D01*
X373325907Y-151230075D01*
X373445605Y-151266385D01*
X373570087Y-151278645D01*
X374534337Y-151275573D01*
X374693087Y-151116823D01*
X374693087Y-149517573D01*
X374947087Y-149517573D01*
X374947087Y-151116823D01*
X375105837Y-151275573D01*
X376070087Y-151278645D01*
X376194569Y-151266385D01*
X376314267Y-151230075D01*
X376424581Y-151171110D01*
X376521272Y-151091758D01*
X376600624Y-150995067D01*
X376659589Y-150884753D01*
X376695899Y-150765055D01*
X376708159Y-150640573D01*
X376707331Y-150380573D01*
X417302015Y-150380573D01*
X417314275Y-150505055D01*
X417350585Y-150624753D01*
X417409550Y-150735067D01*
X417488902Y-150831758D01*
X417585593Y-150911110D01*
X417695907Y-150970075D01*
X417815605Y-151006385D01*
X417940087Y-151018645D01*
X418904337Y-151015573D01*
X419063087Y-150856823D01*
X419063087Y-149257573D01*
X419317087Y-149257573D01*
X419317087Y-150856823D01*
X419475837Y-151015573D01*
X420440087Y-151018645D01*
X420564569Y-151006385D01*
X420684267Y-150970075D01*
X420794581Y-150911110D01*
X420891272Y-150831758D01*
X420970624Y-150735067D01*
X421029589Y-150624753D01*
X421065899Y-150505055D01*
X421078159Y-150380573D01*
X421075087Y-149416323D01*
X420916337Y-149257573D01*
X419317087Y-149257573D01*
X419063087Y-149257573D01*
X417463837Y-149257573D01*
X417305087Y-149416323D01*
X417302015Y-150380573D01*
X376707331Y-150380573D01*
X376705087Y-149676323D01*
X376546337Y-149517573D01*
X374947087Y-149517573D01*
X374693087Y-149517573D01*
X373093837Y-149517573D01*
X372935087Y-149676323D01*
X372932015Y-150640573D01*
X332258159Y-150640573D01*
X332255087Y-149676323D01*
X332096337Y-149517573D01*
X330497087Y-149517573D01*
X330243087Y-149517573D01*
X328643837Y-149517573D01*
X328485087Y-149676323D01*
X328482015Y-150640573D01*
X287808159Y-150640573D01*
X287805087Y-149676323D01*
X287646337Y-149517573D01*
X286047087Y-149517573D01*
X285793087Y-149517573D01*
X284193837Y-149517573D01*
X284035087Y-149676323D01*
X284032015Y-150640573D01*
X243358159Y-150640573D01*
X243355087Y-149676323D01*
X243196337Y-149517573D01*
X241597087Y-149517573D01*
X241343087Y-149517573D01*
X239743837Y-149517573D01*
X239585087Y-149676323D01*
X239582015Y-150640573D01*
X198908159Y-150640573D01*
X198905087Y-149676323D01*
X198746337Y-149517573D01*
X197147087Y-149517573D01*
X196893087Y-149517573D01*
X195293837Y-149517573D01*
X195135087Y-149676323D01*
X195132015Y-150640573D01*
X154458159Y-150640573D01*
X154455087Y-149676323D01*
X154296337Y-149517573D01*
X152697087Y-149517573D01*
X152443087Y-149517573D01*
X150843837Y-149517573D01*
X150685087Y-149676323D01*
X150682015Y-150640573D01*
X146812000Y-150640573D01*
X146812000Y-148140573D01*
X150682015Y-148140573D01*
X150685087Y-149104823D01*
X150843837Y-149263573D01*
X152443087Y-149263573D01*
X152443087Y-147664323D01*
X152697087Y-147664323D01*
X152697087Y-149263573D01*
X154296337Y-149263573D01*
X154455087Y-149104823D01*
X154458159Y-148140573D01*
X195132015Y-148140573D01*
X195135087Y-149104823D01*
X195293837Y-149263573D01*
X196893087Y-149263573D01*
X196893087Y-147664323D01*
X197147087Y-147664323D01*
X197147087Y-149263573D01*
X198746337Y-149263573D01*
X198905087Y-149104823D01*
X198908159Y-148140573D01*
X239582015Y-148140573D01*
X239585087Y-149104823D01*
X239743837Y-149263573D01*
X241343087Y-149263573D01*
X241343087Y-147664323D01*
X241597087Y-147664323D01*
X241597087Y-149263573D01*
X243196337Y-149263573D01*
X243355087Y-149104823D01*
X243358159Y-148140573D01*
X284032015Y-148140573D01*
X284035087Y-149104823D01*
X284193837Y-149263573D01*
X285793087Y-149263573D01*
X285793087Y-147664323D01*
X286047087Y-147664323D01*
X286047087Y-149263573D01*
X287646337Y-149263573D01*
X287805087Y-149104823D01*
X287808159Y-148140573D01*
X328482015Y-148140573D01*
X328485087Y-149104823D01*
X328643837Y-149263573D01*
X330243087Y-149263573D01*
X330243087Y-147664323D01*
X330497087Y-147664323D01*
X330497087Y-149263573D01*
X332096337Y-149263573D01*
X332255087Y-149104823D01*
X332258159Y-148140573D01*
X372932015Y-148140573D01*
X372935087Y-149104823D01*
X373093837Y-149263573D01*
X374693087Y-149263573D01*
X374693087Y-147664323D01*
X374947087Y-147664323D01*
X374947087Y-149263573D01*
X376546337Y-149263573D01*
X376705087Y-149104823D01*
X376708159Y-148140573D01*
X376695899Y-148016091D01*
X376659589Y-147896393D01*
X376651133Y-147880573D01*
X417302015Y-147880573D01*
X417305087Y-148844823D01*
X417463837Y-149003573D01*
X419063087Y-149003573D01*
X419063087Y-147404323D01*
X419317087Y-147404323D01*
X419317087Y-149003573D01*
X420916337Y-149003573D01*
X421075087Y-148844823D01*
X421078159Y-147880573D01*
X421065899Y-147756091D01*
X421029589Y-147636393D01*
X420970624Y-147526079D01*
X420891272Y-147429388D01*
X420794581Y-147350036D01*
X420684267Y-147291071D01*
X420564569Y-147254761D01*
X420440087Y-147242501D01*
X419475837Y-147245573D01*
X419317087Y-147404323D01*
X419063087Y-147404323D01*
X418904337Y-147245573D01*
X417940087Y-147242501D01*
X417815605Y-147254761D01*
X417695907Y-147291071D01*
X417585593Y-147350036D01*
X417488902Y-147429388D01*
X417409550Y-147526079D01*
X417350585Y-147636393D01*
X417314275Y-147756091D01*
X417302015Y-147880573D01*
X376651133Y-147880573D01*
X376600624Y-147786079D01*
X376521272Y-147689388D01*
X376424581Y-147610036D01*
X376314267Y-147551071D01*
X376194569Y-147514761D01*
X376070087Y-147502501D01*
X375105837Y-147505573D01*
X374947087Y-147664323D01*
X374693087Y-147664323D01*
X374534337Y-147505573D01*
X373570087Y-147502501D01*
X373445605Y-147514761D01*
X373325907Y-147551071D01*
X373215593Y-147610036D01*
X373118902Y-147689388D01*
X373039550Y-147786079D01*
X372980585Y-147896393D01*
X372944275Y-148016091D01*
X372932015Y-148140573D01*
X332258159Y-148140573D01*
X332245899Y-148016091D01*
X332209589Y-147896393D01*
X332150624Y-147786079D01*
X332071272Y-147689388D01*
X331974581Y-147610036D01*
X331864267Y-147551071D01*
X331744569Y-147514761D01*
X331620087Y-147502501D01*
X330655837Y-147505573D01*
X330497087Y-147664323D01*
X330243087Y-147664323D01*
X330084337Y-147505573D01*
X329120087Y-147502501D01*
X328995605Y-147514761D01*
X328875907Y-147551071D01*
X328765593Y-147610036D01*
X328668902Y-147689388D01*
X328589550Y-147786079D01*
X328530585Y-147896393D01*
X328494275Y-148016091D01*
X328482015Y-148140573D01*
X287808159Y-148140573D01*
X287795899Y-148016091D01*
X287759589Y-147896393D01*
X287700624Y-147786079D01*
X287621272Y-147689388D01*
X287524581Y-147610036D01*
X287414267Y-147551071D01*
X287294569Y-147514761D01*
X287170087Y-147502501D01*
X286205837Y-147505573D01*
X286047087Y-147664323D01*
X285793087Y-147664323D01*
X285634337Y-147505573D01*
X284670087Y-147502501D01*
X284545605Y-147514761D01*
X284425907Y-147551071D01*
X284315593Y-147610036D01*
X284218902Y-147689388D01*
X284139550Y-147786079D01*
X284080585Y-147896393D01*
X284044275Y-148016091D01*
X284032015Y-148140573D01*
X243358159Y-148140573D01*
X243345899Y-148016091D01*
X243309589Y-147896393D01*
X243250624Y-147786079D01*
X243171272Y-147689388D01*
X243074581Y-147610036D01*
X242964267Y-147551071D01*
X242844569Y-147514761D01*
X242720087Y-147502501D01*
X241755837Y-147505573D01*
X241597087Y-147664323D01*
X241343087Y-147664323D01*
X241184337Y-147505573D01*
X240220087Y-147502501D01*
X240095605Y-147514761D01*
X239975907Y-147551071D01*
X239865593Y-147610036D01*
X239768902Y-147689388D01*
X239689550Y-147786079D01*
X239630585Y-147896393D01*
X239594275Y-148016091D01*
X239582015Y-148140573D01*
X198908159Y-148140573D01*
X198895899Y-148016091D01*
X198859589Y-147896393D01*
X198800624Y-147786079D01*
X198721272Y-147689388D01*
X198624581Y-147610036D01*
X198514267Y-147551071D01*
X198394569Y-147514761D01*
X198270087Y-147502501D01*
X197305837Y-147505573D01*
X197147087Y-147664323D01*
X196893087Y-147664323D01*
X196734337Y-147505573D01*
X195770087Y-147502501D01*
X195645605Y-147514761D01*
X195525907Y-147551071D01*
X195415593Y-147610036D01*
X195318902Y-147689388D01*
X195239550Y-147786079D01*
X195180585Y-147896393D01*
X195144275Y-148016091D01*
X195132015Y-148140573D01*
X154458159Y-148140573D01*
X154445899Y-148016091D01*
X154409589Y-147896393D01*
X154350624Y-147786079D01*
X154271272Y-147689388D01*
X154174581Y-147610036D01*
X154064267Y-147551071D01*
X153944569Y-147514761D01*
X153820087Y-147502501D01*
X152855837Y-147505573D01*
X152697087Y-147664323D01*
X152443087Y-147664323D01*
X152284337Y-147505573D01*
X151320087Y-147502501D01*
X151195605Y-147514761D01*
X151075907Y-147551071D01*
X150965593Y-147610036D01*
X150868902Y-147689388D01*
X150789550Y-147786079D01*
X150730585Y-147896393D01*
X150694275Y-148016091D01*
X150682015Y-148140573D01*
X146812000Y-148140573D01*
X146812000Y-145692325D01*
X146817425Y-145667947D01*
X146818555Y-145658099D01*
X146820442Y-145640573D01*
X150682015Y-145640573D01*
X150694275Y-145765055D01*
X150730585Y-145884753D01*
X150789550Y-145995067D01*
X150868902Y-146091758D01*
X150965593Y-146171110D01*
X151075907Y-146230075D01*
X151195605Y-146266385D01*
X151320087Y-146278645D01*
X152284337Y-146275573D01*
X152443087Y-146116823D01*
X152443087Y-144517573D01*
X152697087Y-144517573D01*
X152697087Y-146116823D01*
X152855837Y-146275573D01*
X153820087Y-146278645D01*
X153944569Y-146266385D01*
X154064267Y-146230075D01*
X154174581Y-146171110D01*
X154271272Y-146091758D01*
X154350624Y-145995067D01*
X154409589Y-145884753D01*
X154445899Y-145765055D01*
X154458159Y-145640573D01*
X195132015Y-145640573D01*
X195144275Y-145765055D01*
X195180585Y-145884753D01*
X195239550Y-145995067D01*
X195318902Y-146091758D01*
X195415593Y-146171110D01*
X195525907Y-146230075D01*
X195645605Y-146266385D01*
X195770087Y-146278645D01*
X196734337Y-146275573D01*
X196893087Y-146116823D01*
X196893087Y-144517573D01*
X197147087Y-144517573D01*
X197147087Y-146116823D01*
X197305837Y-146275573D01*
X198270087Y-146278645D01*
X198394569Y-146266385D01*
X198514267Y-146230075D01*
X198624581Y-146171110D01*
X198721272Y-146091758D01*
X198800624Y-145995067D01*
X198859589Y-145884753D01*
X198895899Y-145765055D01*
X198908159Y-145640573D01*
X239582015Y-145640573D01*
X239594275Y-145765055D01*
X239630585Y-145884753D01*
X239689550Y-145995067D01*
X239768902Y-146091758D01*
X239865593Y-146171110D01*
X239975907Y-146230075D01*
X240095605Y-146266385D01*
X240220087Y-146278645D01*
X241184337Y-146275573D01*
X241343087Y-146116823D01*
X241343087Y-144517573D01*
X241597087Y-144517573D01*
X241597087Y-146116823D01*
X241755837Y-146275573D01*
X242720087Y-146278645D01*
X242844569Y-146266385D01*
X242964267Y-146230075D01*
X243074581Y-146171110D01*
X243171272Y-146091758D01*
X243250624Y-145995067D01*
X243309589Y-145884753D01*
X243345899Y-145765055D01*
X243358159Y-145640573D01*
X284032015Y-145640573D01*
X284044275Y-145765055D01*
X284080585Y-145884753D01*
X284139550Y-145995067D01*
X284218902Y-146091758D01*
X284315593Y-146171110D01*
X284425907Y-146230075D01*
X284545605Y-146266385D01*
X284670087Y-146278645D01*
X285634337Y-146275573D01*
X285793087Y-146116823D01*
X285793087Y-144517573D01*
X286047087Y-144517573D01*
X286047087Y-146116823D01*
X286205837Y-146275573D01*
X287170087Y-146278645D01*
X287294569Y-146266385D01*
X287414267Y-146230075D01*
X287524581Y-146171110D01*
X287621272Y-146091758D01*
X287700624Y-145995067D01*
X287759589Y-145884753D01*
X287795899Y-145765055D01*
X287808159Y-145640573D01*
X328482015Y-145640573D01*
X328494275Y-145765055D01*
X328530585Y-145884753D01*
X328589550Y-145995067D01*
X328668902Y-146091758D01*
X328765593Y-146171110D01*
X328875907Y-146230075D01*
X328995605Y-146266385D01*
X329120087Y-146278645D01*
X330084337Y-146275573D01*
X330243087Y-146116823D01*
X330243087Y-144517573D01*
X330497087Y-144517573D01*
X330497087Y-146116823D01*
X330655837Y-146275573D01*
X331620087Y-146278645D01*
X331744569Y-146266385D01*
X331864267Y-146230075D01*
X331974581Y-146171110D01*
X332071272Y-146091758D01*
X332150624Y-145995067D01*
X332209589Y-145884753D01*
X332245899Y-145765055D01*
X332258159Y-145640573D01*
X372932015Y-145640573D01*
X372944275Y-145765055D01*
X372980585Y-145884753D01*
X373039550Y-145995067D01*
X373118902Y-146091758D01*
X373215593Y-146171110D01*
X373325907Y-146230075D01*
X373445605Y-146266385D01*
X373570087Y-146278645D01*
X374534337Y-146275573D01*
X374693087Y-146116823D01*
X374693087Y-144517573D01*
X374947087Y-144517573D01*
X374947087Y-146116823D01*
X375105837Y-146275573D01*
X376070087Y-146278645D01*
X376194569Y-146266385D01*
X376314267Y-146230075D01*
X376424581Y-146171110D01*
X376521272Y-146091758D01*
X376600624Y-145995067D01*
X376659589Y-145884753D01*
X376695899Y-145765055D01*
X376708159Y-145640573D01*
X376707331Y-145380573D01*
X417302015Y-145380573D01*
X417314275Y-145505055D01*
X417350585Y-145624753D01*
X417409550Y-145735067D01*
X417488902Y-145831758D01*
X417585593Y-145911110D01*
X417695907Y-145970075D01*
X417815605Y-146006385D01*
X417940087Y-146018645D01*
X418904337Y-146015573D01*
X419063087Y-145856823D01*
X419063087Y-144257573D01*
X419317087Y-144257573D01*
X419317087Y-145856823D01*
X419475837Y-146015573D01*
X420440087Y-146018645D01*
X420564569Y-146006385D01*
X420684267Y-145970075D01*
X420794581Y-145911110D01*
X420891272Y-145831758D01*
X420970624Y-145735067D01*
X421029589Y-145624753D01*
X421065899Y-145505055D01*
X421078159Y-145380573D01*
X421075087Y-144416323D01*
X420916337Y-144257573D01*
X419317087Y-144257573D01*
X419063087Y-144257573D01*
X417463837Y-144257573D01*
X417305087Y-144416323D01*
X417302015Y-145380573D01*
X376707331Y-145380573D01*
X376705087Y-144676323D01*
X376546337Y-144517573D01*
X374947087Y-144517573D01*
X374693087Y-144517573D01*
X373093837Y-144517573D01*
X372935087Y-144676323D01*
X372932015Y-145640573D01*
X332258159Y-145640573D01*
X332255087Y-144676323D01*
X332096337Y-144517573D01*
X330497087Y-144517573D01*
X330243087Y-144517573D01*
X328643837Y-144517573D01*
X328485087Y-144676323D01*
X328482015Y-145640573D01*
X287808159Y-145640573D01*
X287805087Y-144676323D01*
X287646337Y-144517573D01*
X286047087Y-144517573D01*
X285793087Y-144517573D01*
X284193837Y-144517573D01*
X284035087Y-144676323D01*
X284032015Y-145640573D01*
X243358159Y-145640573D01*
X243355087Y-144676323D01*
X243196337Y-144517573D01*
X241597087Y-144517573D01*
X241343087Y-144517573D01*
X239743837Y-144517573D01*
X239585087Y-144676323D01*
X239582015Y-145640573D01*
X198908159Y-145640573D01*
X198905087Y-144676323D01*
X198746337Y-144517573D01*
X197147087Y-144517573D01*
X196893087Y-144517573D01*
X195293837Y-144517573D01*
X195135087Y-144676323D01*
X195132015Y-145640573D01*
X154458159Y-145640573D01*
X154455087Y-144676323D01*
X154296337Y-144517573D01*
X152697087Y-144517573D01*
X152443087Y-144517573D01*
X150843837Y-144517573D01*
X150685087Y-144676323D01*
X150682015Y-145640573D01*
X146820442Y-145640573D01*
X146867715Y-145201545D01*
X146868768Y-145198060D01*
X146878927Y-145093742D01*
X146876796Y-143140573D01*
X150682015Y-143140573D01*
X150685087Y-144104823D01*
X150843837Y-144263573D01*
X152443087Y-144263573D01*
X152443087Y-142664323D01*
X152697087Y-142664323D01*
X152697087Y-144263573D01*
X154296337Y-144263573D01*
X154455087Y-144104823D01*
X154458159Y-143140573D01*
X195132015Y-143140573D01*
X195135087Y-144104823D01*
X195293837Y-144263573D01*
X196893087Y-144263573D01*
X196893087Y-142664323D01*
X197147087Y-142664323D01*
X197147087Y-144263573D01*
X198746337Y-144263573D01*
X198905087Y-144104823D01*
X198908159Y-143140573D01*
X239582015Y-143140573D01*
X239585087Y-144104823D01*
X239743837Y-144263573D01*
X241343087Y-144263573D01*
X241343087Y-142664323D01*
X241597087Y-142664323D01*
X241597087Y-144263573D01*
X243196337Y-144263573D01*
X243355087Y-144104823D01*
X243358159Y-143140573D01*
X284032015Y-143140573D01*
X284035087Y-144104823D01*
X284193837Y-144263573D01*
X285793087Y-144263573D01*
X285793087Y-142664323D01*
X286047087Y-142664323D01*
X286047087Y-144263573D01*
X287646337Y-144263573D01*
X287805087Y-144104823D01*
X287808159Y-143140573D01*
X328482015Y-143140573D01*
X328485087Y-144104823D01*
X328643837Y-144263573D01*
X330243087Y-144263573D01*
X330243087Y-142664323D01*
X330497087Y-142664323D01*
X330497087Y-144263573D01*
X332096337Y-144263573D01*
X332255087Y-144104823D01*
X332258159Y-143140573D01*
X372932015Y-143140573D01*
X372935087Y-144104823D01*
X373093837Y-144263573D01*
X374693087Y-144263573D01*
X374693087Y-142664323D01*
X374947087Y-142664323D01*
X374947087Y-144263573D01*
X376546337Y-144263573D01*
X376705087Y-144104823D01*
X376708159Y-143140573D01*
X376695899Y-143016091D01*
X376659589Y-142896393D01*
X376651133Y-142880573D01*
X417302015Y-142880573D01*
X417305087Y-143844823D01*
X417463837Y-144003573D01*
X419063087Y-144003573D01*
X419063087Y-142404323D01*
X419317087Y-142404323D01*
X419317087Y-144003573D01*
X420916337Y-144003573D01*
X421075087Y-143844823D01*
X421078159Y-142880573D01*
X421065899Y-142756091D01*
X421029589Y-142636393D01*
X420970624Y-142526079D01*
X420891272Y-142429388D01*
X420794581Y-142350036D01*
X420684267Y-142291071D01*
X420564569Y-142254761D01*
X420440087Y-142242501D01*
X419475837Y-142245573D01*
X419317087Y-142404323D01*
X419063087Y-142404323D01*
X418904337Y-142245573D01*
X417940087Y-142242501D01*
X417815605Y-142254761D01*
X417695907Y-142291071D01*
X417585593Y-142350036D01*
X417488902Y-142429388D01*
X417409550Y-142526079D01*
X417350585Y-142636393D01*
X417314275Y-142756091D01*
X417302015Y-142880573D01*
X376651133Y-142880573D01*
X376600624Y-142786079D01*
X376521272Y-142689388D01*
X376424581Y-142610036D01*
X376314267Y-142551071D01*
X376194569Y-142514761D01*
X376070087Y-142502501D01*
X375105837Y-142505573D01*
X374947087Y-142664323D01*
X374693087Y-142664323D01*
X374534337Y-142505573D01*
X373570087Y-142502501D01*
X373445605Y-142514761D01*
X373325907Y-142551071D01*
X373215593Y-142610036D01*
X373118902Y-142689388D01*
X373039550Y-142786079D01*
X372980585Y-142896393D01*
X372944275Y-143016091D01*
X372932015Y-143140573D01*
X332258159Y-143140573D01*
X332245899Y-143016091D01*
X332209589Y-142896393D01*
X332150624Y-142786079D01*
X332071272Y-142689388D01*
X331974581Y-142610036D01*
X331864267Y-142551071D01*
X331744569Y-142514761D01*
X331620087Y-142502501D01*
X330655837Y-142505573D01*
X330497087Y-142664323D01*
X330243087Y-142664323D01*
X330084337Y-142505573D01*
X329120087Y-142502501D01*
X328995605Y-142514761D01*
X328875907Y-142551071D01*
X328765593Y-142610036D01*
X328668902Y-142689388D01*
X328589550Y-142786079D01*
X328530585Y-142896393D01*
X328494275Y-143016091D01*
X328482015Y-143140573D01*
X287808159Y-143140573D01*
X287795899Y-143016091D01*
X287759589Y-142896393D01*
X287700624Y-142786079D01*
X287621272Y-142689388D01*
X287524581Y-142610036D01*
X287414267Y-142551071D01*
X287294569Y-142514761D01*
X287170087Y-142502501D01*
X286205837Y-142505573D01*
X286047087Y-142664323D01*
X285793087Y-142664323D01*
X285634337Y-142505573D01*
X284670087Y-142502501D01*
X284545605Y-142514761D01*
X284425907Y-142551071D01*
X284315593Y-142610036D01*
X284218902Y-142689388D01*
X284139550Y-142786079D01*
X284080585Y-142896393D01*
X284044275Y-143016091D01*
X284032015Y-143140573D01*
X243358159Y-143140573D01*
X243345899Y-143016091D01*
X243309589Y-142896393D01*
X243250624Y-142786079D01*
X243171272Y-142689388D01*
X243074581Y-142610036D01*
X242964267Y-142551071D01*
X242844569Y-142514761D01*
X242720087Y-142502501D01*
X241755837Y-142505573D01*
X241597087Y-142664323D01*
X241343087Y-142664323D01*
X241184337Y-142505573D01*
X240220087Y-142502501D01*
X240095605Y-142514761D01*
X239975907Y-142551071D01*
X239865593Y-142610036D01*
X239768902Y-142689388D01*
X239689550Y-142786079D01*
X239630585Y-142896393D01*
X239594275Y-143016091D01*
X239582015Y-143140573D01*
X198908159Y-143140573D01*
X198895899Y-143016091D01*
X198859589Y-142896393D01*
X198800624Y-142786079D01*
X198721272Y-142689388D01*
X198624581Y-142610036D01*
X198514267Y-142551071D01*
X198394569Y-142514761D01*
X198270087Y-142502501D01*
X197305837Y-142505573D01*
X197147087Y-142664323D01*
X196893087Y-142664323D01*
X196734337Y-142505573D01*
X195770087Y-142502501D01*
X195645605Y-142514761D01*
X195525907Y-142551071D01*
X195415593Y-142610036D01*
X195318902Y-142689388D01*
X195239550Y-142786079D01*
X195180585Y-142896393D01*
X195144275Y-143016091D01*
X195132015Y-143140573D01*
X154458159Y-143140573D01*
X154445899Y-143016091D01*
X154409589Y-142896393D01*
X154350624Y-142786079D01*
X154271272Y-142689388D01*
X154174581Y-142610036D01*
X154064267Y-142551071D01*
X153944569Y-142514761D01*
X153820087Y-142502501D01*
X152855837Y-142505573D01*
X152697087Y-142664323D01*
X152443087Y-142664323D01*
X152284337Y-142505573D01*
X151320087Y-142502501D01*
X151195605Y-142514761D01*
X151075907Y-142551071D01*
X150965593Y-142610036D01*
X150868902Y-142689388D01*
X150789550Y-142786079D01*
X150730585Y-142896393D01*
X150694275Y-143016091D01*
X150682015Y-143140573D01*
X146876796Y-143140573D01*
X146864409Y-131789941D01*
X253673366Y-131789941D01*
X253673366Y-132130059D01*
X253739720Y-132463640D01*
X253869877Y-132777868D01*
X254058836Y-133060665D01*
X254299335Y-133301164D01*
X254582132Y-133490123D01*
X254896360Y-133620280D01*
X255229941Y-133686634D01*
X255570059Y-133686634D01*
X255903640Y-133620280D01*
X256217868Y-133490123D01*
X256500665Y-133301164D01*
X256741164Y-133060665D01*
X256930123Y-132777868D01*
X257060280Y-132463640D01*
X257126634Y-132130059D01*
X257126634Y-131840308D01*
X354277087Y-131840308D01*
X354277087Y-132179692D01*
X354343298Y-132512555D01*
X354473175Y-132826105D01*
X354661726Y-133108293D01*
X354901707Y-133348274D01*
X355183895Y-133536825D01*
X355497445Y-133666702D01*
X355830308Y-133732913D01*
X356169692Y-133732913D01*
X356502555Y-133666702D01*
X356816105Y-133536825D01*
X357098293Y-133348274D01*
X357338274Y-133108293D01*
X357526825Y-132826105D01*
X357656702Y-132512555D01*
X357722913Y-132179692D01*
X357722913Y-131840308D01*
X357722840Y-131839941D01*
X396373366Y-131839941D01*
X396373366Y-132180059D01*
X396439720Y-132513640D01*
X396569877Y-132827868D01*
X396758836Y-133110665D01*
X396999335Y-133351164D01*
X397282132Y-133540123D01*
X397596360Y-133670280D01*
X397929941Y-133736634D01*
X398270059Y-133736634D01*
X398603640Y-133670280D01*
X398917868Y-133540123D01*
X399200665Y-133351164D01*
X399441164Y-133110665D01*
X399630123Y-132827868D01*
X399760280Y-132513640D01*
X399826634Y-132180059D01*
X399826634Y-131839941D01*
X399760280Y-131506360D01*
X399630123Y-131192132D01*
X399441164Y-130909335D01*
X399200665Y-130668836D01*
X398917868Y-130479877D01*
X398603640Y-130349720D01*
X398270059Y-130283366D01*
X397929941Y-130283366D01*
X397596360Y-130349720D01*
X397282132Y-130479877D01*
X396999335Y-130668836D01*
X396758836Y-130909335D01*
X396569877Y-131192132D01*
X396439720Y-131506360D01*
X396373366Y-131839941D01*
X357722840Y-131839941D01*
X357656702Y-131507445D01*
X357526825Y-131193895D01*
X357338274Y-130911707D01*
X357098293Y-130671726D01*
X356816105Y-130483175D01*
X356502555Y-130353298D01*
X356169692Y-130287087D01*
X355830308Y-130287087D01*
X355497445Y-130353298D01*
X355183895Y-130483175D01*
X354901707Y-130671726D01*
X354661726Y-130911707D01*
X354473175Y-131193895D01*
X354343298Y-131507445D01*
X354277087Y-131840308D01*
X257126634Y-131840308D01*
X257126634Y-131789941D01*
X257060280Y-131456360D01*
X256930123Y-131142132D01*
X256741164Y-130859335D01*
X256500665Y-130618836D01*
X256217868Y-130429877D01*
X255903640Y-130299720D01*
X255570059Y-130233366D01*
X255229941Y-130233366D01*
X254896360Y-130299720D01*
X254582132Y-130429877D01*
X254299335Y-130618836D01*
X254058836Y-130859335D01*
X253869877Y-131142132D01*
X253739720Y-131456360D01*
X253673366Y-131789941D01*
X146864409Y-131789941D01*
X146860775Y-128460000D01*
X445590001Y-128460000D01*
X445590000Y-133715123D01*
G04 #@! TA.AperFunction,Conductor*
D14*
G36*
X445590000Y-133715123D02*
G01*
X445586565Y-133750000D01*
X445600273Y-133889184D01*
X445640872Y-134023020D01*
X445706800Y-134146363D01*
X445795525Y-134254475D01*
X445903637Y-134343200D01*
X446026980Y-134409128D01*
X446160816Y-134449727D01*
X446300000Y-134463435D01*
X446334877Y-134460000D01*
X457265123Y-134460000D01*
X457300000Y-134463435D01*
X457334877Y-134460000D01*
X457439184Y-134449727D01*
X457573020Y-134409128D01*
X457696363Y-134343200D01*
X457804475Y-134254475D01*
X457893200Y-134146363D01*
X457959128Y-134023020D01*
X457999727Y-133889184D01*
X458013435Y-133750000D01*
X458010000Y-133715123D01*
X458010000Y-131839941D01*
X462423366Y-131839941D01*
X462423366Y-132180059D01*
X462489720Y-132513640D01*
X462619877Y-132827868D01*
X462808836Y-133110665D01*
X463049335Y-133351164D01*
X463332132Y-133540123D01*
X463646360Y-133670280D01*
X463979941Y-133736634D01*
X464320059Y-133736634D01*
X464653640Y-133670280D01*
X464967868Y-133540123D01*
X465250665Y-133351164D01*
X465491164Y-133110665D01*
X465680123Y-132827868D01*
X465810280Y-132513640D01*
X465876634Y-132180059D01*
X465876634Y-131839941D01*
X465810280Y-131506360D01*
X465680123Y-131192132D01*
X465491164Y-130909335D01*
X465250665Y-130668836D01*
X464967868Y-130479877D01*
X464653640Y-130349720D01*
X464320059Y-130283366D01*
X463979941Y-130283366D01*
X463646360Y-130349720D01*
X463332132Y-130479877D01*
X463049335Y-130668836D01*
X462808836Y-130909335D01*
X462619877Y-131192132D01*
X462489720Y-131506360D01*
X462423366Y-131839941D01*
X458010000Y-131839941D01*
X458010000Y-128460000D01*
X466590001Y-128460000D01*
X466590000Y-158050000D01*
X462865123Y-158050000D01*
X462834112Y-158053054D01*
X462822039Y-158052970D01*
X462812174Y-158053937D01*
X462433684Y-158093717D01*
X462370660Y-158106654D01*
X462307434Y-158118715D01*
X462297944Y-158121581D01*
X461934391Y-158234120D01*
X461875087Y-158259049D01*
X461815405Y-158283162D01*
X461806652Y-158287816D01*
X461471881Y-158468827D01*
X461418581Y-158504778D01*
X461364686Y-158540046D01*
X461357004Y-158546312D01*
X461063767Y-158788898D01*
X461018431Y-158834551D01*
X460972445Y-158879584D01*
X460966126Y-158887222D01*
X460725593Y-159182146D01*
X460689987Y-159235737D01*
X460653626Y-159288841D01*
X460648911Y-159297561D01*
X460470242Y-159633588D01*
X460445724Y-159693075D01*
X460420370Y-159752230D01*
X460417438Y-159761700D01*
X460307440Y-160126030D01*
X460294947Y-160189127D01*
X460281561Y-160252101D01*
X460280525Y-160261960D01*
X460243388Y-160640717D01*
X460243388Y-160640724D01*
X460240000Y-160675124D01*
X460240001Y-177844877D01*
X460243054Y-177875879D01*
X460242970Y-177887961D01*
X460243937Y-177897827D01*
X460283717Y-178276316D01*
X460296654Y-178339340D01*
X460308715Y-178402566D01*
X460311581Y-178412056D01*
X460424120Y-178775609D01*
X460449044Y-178834902D01*
X460473162Y-178894595D01*
X460477815Y-178903344D01*
X460477817Y-178903349D01*
X460477820Y-178903353D01*
X460658827Y-179238120D01*
X460694790Y-179291437D01*
X460730046Y-179345314D01*
X460736312Y-179352996D01*
X460978898Y-179646233D01*
X461024535Y-179691552D01*
X461069584Y-179737555D01*
X461077223Y-179743874D01*
X461372146Y-179984407D01*
X461425722Y-180020003D01*
X461478841Y-180056374D01*
X461487561Y-180061089D01*
X461823588Y-180239757D01*
X461883042Y-180264262D01*
X461942230Y-180289630D01*
X461951700Y-180292562D01*
X462316030Y-180402560D01*
X462379120Y-180415052D01*
X462442101Y-180428439D01*
X462451960Y-180429475D01*
X462830717Y-180466612D01*
X462830723Y-180466612D01*
X462865123Y-180470000D01*
X466590001Y-180470000D01*
X466590000Y-210050000D01*
X146812000Y-210050000D01*
X146812000Y-206339941D01*
X253623366Y-206339941D01*
X253623366Y-206680059D01*
X253689720Y-207013640D01*
X253819877Y-207327868D01*
X254008836Y-207610665D01*
X254249335Y-207851164D01*
X254532132Y-208040123D01*
X254846360Y-208170280D01*
X255179941Y-208236634D01*
X255520059Y-208236634D01*
X255853640Y-208170280D01*
X256167868Y-208040123D01*
X256450665Y-207851164D01*
X256691164Y-207610665D01*
X256880123Y-207327868D01*
X257010280Y-207013640D01*
X257076634Y-206680059D01*
X257076634Y-206339941D01*
X257066762Y-206290308D01*
X354277087Y-206290308D01*
X354277087Y-206629692D01*
X354343298Y-206962555D01*
X354473175Y-207276105D01*
X354661726Y-207558293D01*
X354901707Y-207798274D01*
X355183895Y-207986825D01*
X355497445Y-208116702D01*
X355830308Y-208182913D01*
X356169692Y-208182913D01*
X356502555Y-208116702D01*
X356816105Y-207986825D01*
X357098293Y-207798274D01*
X357338274Y-207558293D01*
X357526825Y-207276105D01*
X357656702Y-206962555D01*
X357678344Y-206853750D01*
X373436928Y-206853750D01*
X373436928Y-207766250D01*
X373453872Y-207938285D01*
X373504053Y-208103709D01*
X373585542Y-208256164D01*
X373695208Y-208389792D01*
X373828836Y-208499458D01*
X373981291Y-208580947D01*
X374146715Y-208631128D01*
X374318750Y-208648072D01*
X374806250Y-208648072D01*
X374824020Y-208646322D01*
X375023711Y-208846013D01*
X375047509Y-208875011D01*
X375076507Y-208898809D01*
X375163233Y-208969984D01*
X375295263Y-209040556D01*
X375438524Y-209084013D01*
X375550177Y-209095010D01*
X375550186Y-209095010D01*
X375587509Y-209098686D01*
X375624832Y-209095010D01*
X376879518Y-209095010D01*
X376916840Y-209098686D01*
X376954162Y-209095010D01*
X376954173Y-209095010D01*
X377065826Y-209084013D01*
X377209087Y-209040556D01*
X377341116Y-208969984D01*
X377456841Y-208875011D01*
X377480644Y-208846007D01*
X379986710Y-206339941D01*
X396373366Y-206339941D01*
X396373366Y-206680059D01*
X396439720Y-207013640D01*
X396569877Y-207327868D01*
X396758836Y-207610665D01*
X396999335Y-207851164D01*
X397282132Y-208040123D01*
X397596360Y-208170280D01*
X397929941Y-208236634D01*
X398270059Y-208236634D01*
X398603640Y-208170280D01*
X398917868Y-208040123D01*
X399200665Y-207851164D01*
X399441164Y-207610665D01*
X399630123Y-207327868D01*
X399760280Y-207013640D01*
X399826634Y-206680059D01*
X399826634Y-206339941D01*
X399760280Y-206006360D01*
X399630123Y-205692132D01*
X399441164Y-205409335D01*
X399200665Y-205168836D01*
X398917868Y-204979877D01*
X398603640Y-204849720D01*
X398270059Y-204783366D01*
X397929941Y-204783366D01*
X397596360Y-204849720D01*
X397282132Y-204979877D01*
X396999335Y-205168836D01*
X396758836Y-205409335D01*
X396569877Y-205692132D01*
X396439720Y-206006360D01*
X396373366Y-206339941D01*
X379986710Y-206339941D01*
X381586710Y-204739941D01*
X448473366Y-204739941D01*
X448473366Y-205080059D01*
X448539720Y-205413640D01*
X448669877Y-205727868D01*
X448858836Y-206010665D01*
X449099335Y-206251164D01*
X449382132Y-206440123D01*
X449696360Y-206570280D01*
X450029941Y-206636634D01*
X450370059Y-206636634D01*
X450703640Y-206570280D01*
X451017868Y-206440123D01*
X451300665Y-206251164D01*
X451541164Y-206010665D01*
X451730123Y-205727868D01*
X451860280Y-205413640D01*
X451926634Y-205080059D01*
X451926634Y-204739941D01*
X453273366Y-204739941D01*
X453273366Y-205080059D01*
X453339720Y-205413640D01*
X453469877Y-205727868D01*
X453658836Y-206010665D01*
X453899335Y-206251164D01*
X454182132Y-206440123D01*
X454496360Y-206570280D01*
X454829941Y-206636634D01*
X455170059Y-206636634D01*
X455503640Y-206570280D01*
X455817868Y-206440123D01*
X456042631Y-206289941D01*
X462423366Y-206289941D01*
X462423366Y-206630059D01*
X462489720Y-206963640D01*
X462619877Y-207277868D01*
X462808836Y-207560665D01*
X463049335Y-207801164D01*
X463332132Y-207990123D01*
X463646360Y-208120280D01*
X463979941Y-208186634D01*
X464320059Y-208186634D01*
X464653640Y-208120280D01*
X464967868Y-207990123D01*
X465250665Y-207801164D01*
X465491164Y-207560665D01*
X465680123Y-207277868D01*
X465810280Y-206963640D01*
X465876634Y-206630059D01*
X465876634Y-206289941D01*
X465810280Y-205956360D01*
X465680123Y-205642132D01*
X465491164Y-205359335D01*
X465250665Y-205118836D01*
X464967868Y-204929877D01*
X464653640Y-204799720D01*
X464320059Y-204733366D01*
X463979941Y-204733366D01*
X463646360Y-204799720D01*
X463332132Y-204929877D01*
X463049335Y-205118836D01*
X462808836Y-205359335D01*
X462619877Y-205642132D01*
X462489720Y-205956360D01*
X462423366Y-206289941D01*
X456042631Y-206289941D01*
X456100665Y-206251164D01*
X456341164Y-206010665D01*
X456530123Y-205727868D01*
X456660280Y-205413640D01*
X456726634Y-205080059D01*
X456726634Y-204739941D01*
X456660280Y-204406360D01*
X456530123Y-204092132D01*
X456341164Y-203809335D01*
X456100665Y-203568836D01*
X455817868Y-203379877D01*
X455503640Y-203249720D01*
X455170059Y-203183366D01*
X454829941Y-203183366D01*
X454496360Y-203249720D01*
X454182132Y-203379877D01*
X453899335Y-203568836D01*
X453658836Y-203809335D01*
X453469877Y-204092132D01*
X453339720Y-204406360D01*
X453273366Y-204739941D01*
X451926634Y-204739941D01*
X451860280Y-204406360D01*
X451730123Y-204092132D01*
X451541164Y-203809335D01*
X451300665Y-203568836D01*
X451017868Y-203379877D01*
X450703640Y-203249720D01*
X450370059Y-203183366D01*
X450029941Y-203183366D01*
X449696360Y-203249720D01*
X449382132Y-203379877D01*
X449099335Y-203568836D01*
X448858836Y-203809335D01*
X448669877Y-204092132D01*
X448539720Y-204406360D01*
X448473366Y-204739941D01*
X381586710Y-204739941D01*
X391946078Y-194380573D01*
X417302015Y-194380573D01*
X417314275Y-194505055D01*
X417350585Y-194624753D01*
X417409550Y-194735067D01*
X417488902Y-194831758D01*
X417585593Y-194911110D01*
X417695907Y-194970075D01*
X417815605Y-195006385D01*
X417940087Y-195018645D01*
X418904337Y-195015573D01*
X419063087Y-194856823D01*
X419063087Y-193257573D01*
X419317087Y-193257573D01*
X419317087Y-194856823D01*
X419475837Y-195015573D01*
X420440087Y-195018645D01*
X420564569Y-195006385D01*
X420684267Y-194970075D01*
X420794581Y-194911110D01*
X420891272Y-194831758D01*
X420970624Y-194735067D01*
X421029589Y-194624753D01*
X421065899Y-194505055D01*
X421078159Y-194380573D01*
X421075087Y-193416323D01*
X420916337Y-193257573D01*
X419317087Y-193257573D01*
X419063087Y-193257573D01*
X417463837Y-193257573D01*
X417305087Y-193416323D01*
X417302015Y-194380573D01*
X391946078Y-194380573D01*
X394446078Y-191880573D01*
X417302015Y-191880573D01*
X417305087Y-192844823D01*
X417463837Y-193003573D01*
X419063087Y-193003573D01*
X419063087Y-191404323D01*
X419317087Y-191404323D01*
X419317087Y-193003573D01*
X420916337Y-193003573D01*
X421075087Y-192844823D01*
X421078159Y-191880573D01*
X421065899Y-191756091D01*
X421029589Y-191636393D01*
X420970624Y-191526079D01*
X420891272Y-191429388D01*
X420794581Y-191350036D01*
X420684267Y-191291071D01*
X420564569Y-191254761D01*
X420440087Y-191242501D01*
X419475837Y-191245573D01*
X419317087Y-191404323D01*
X419063087Y-191404323D01*
X418904337Y-191245573D01*
X417940087Y-191242501D01*
X417815605Y-191254761D01*
X417695907Y-191291071D01*
X417585593Y-191350036D01*
X417488902Y-191429388D01*
X417409550Y-191526079D01*
X417350585Y-191636393D01*
X417314275Y-191756091D01*
X417302015Y-191880573D01*
X394446078Y-191880573D01*
X396946078Y-189380573D01*
X417302015Y-189380573D01*
X417314275Y-189505055D01*
X417350585Y-189624753D01*
X417409550Y-189735067D01*
X417488902Y-189831758D01*
X417585593Y-189911110D01*
X417695907Y-189970075D01*
X417815605Y-190006385D01*
X417940087Y-190018645D01*
X418904337Y-190015573D01*
X419063087Y-189856823D01*
X419063087Y-188257573D01*
X419317087Y-188257573D01*
X419317087Y-189856823D01*
X419475837Y-190015573D01*
X420440087Y-190018645D01*
X420564569Y-190006385D01*
X420684267Y-189970075D01*
X420794581Y-189911110D01*
X420891272Y-189831758D01*
X420970624Y-189735067D01*
X421029589Y-189624753D01*
X421065899Y-189505055D01*
X421078159Y-189380573D01*
X421075087Y-188416323D01*
X420916337Y-188257573D01*
X419317087Y-188257573D01*
X419063087Y-188257573D01*
X417463837Y-188257573D01*
X417305087Y-188416323D01*
X417302015Y-189380573D01*
X396946078Y-189380573D01*
X399446078Y-186880573D01*
X417302015Y-186880573D01*
X417305087Y-187844823D01*
X417463837Y-188003573D01*
X419063087Y-188003573D01*
X419063087Y-186404323D01*
X419317087Y-186404323D01*
X419317087Y-188003573D01*
X420916337Y-188003573D01*
X421075087Y-187844823D01*
X421078159Y-186880573D01*
X421065899Y-186756091D01*
X421029589Y-186636393D01*
X420970624Y-186526079D01*
X420891272Y-186429388D01*
X420794581Y-186350036D01*
X420684267Y-186291071D01*
X420564569Y-186254761D01*
X420440087Y-186242501D01*
X419475837Y-186245573D01*
X419317087Y-186404323D01*
X419063087Y-186404323D01*
X418904337Y-186245573D01*
X417940087Y-186242501D01*
X417815605Y-186254761D01*
X417695907Y-186291071D01*
X417585593Y-186350036D01*
X417488902Y-186429388D01*
X417409550Y-186526079D01*
X417350585Y-186636393D01*
X417314275Y-186756091D01*
X417302015Y-186880573D01*
X399446078Y-186880573D01*
X403101004Y-183225648D01*
X403130001Y-183201851D01*
X403156332Y-183169767D01*
X403224974Y-183086127D01*
X403295546Y-182954097D01*
X403295546Y-182954096D01*
X403339003Y-182810836D01*
X403350000Y-182699183D01*
X403350000Y-182699174D01*
X403353676Y-182661851D01*
X403350000Y-182624528D01*
X403350000Y-175328711D01*
X403393937Y-175284774D01*
X403507205Y-175115256D01*
X403585226Y-174926898D01*
X403625000Y-174726939D01*
X403625000Y-174523061D01*
X403585226Y-174323102D01*
X403507205Y-174134744D01*
X403410490Y-173990000D01*
X403507205Y-173845256D01*
X403585226Y-173656898D01*
X403625000Y-173456939D01*
X403625000Y-173253061D01*
X403585226Y-173053102D01*
X403507205Y-172864744D01*
X403393937Y-172695226D01*
X403249774Y-172551063D01*
X403080256Y-172437795D01*
X402891898Y-172359774D01*
X402691939Y-172320000D01*
X402488061Y-172320000D01*
X402288102Y-172359774D01*
X402099744Y-172437795D01*
X401930226Y-172551063D01*
X401786063Y-172695226D01*
X401672795Y-172864744D01*
X401594774Y-173053102D01*
X401555000Y-173253061D01*
X401555000Y-173315198D01*
X375926498Y-198943701D01*
X375897500Y-198967499D01*
X375873702Y-198996497D01*
X375873701Y-198996498D01*
X375802526Y-199083224D01*
X375731954Y-199215254D01*
X375688498Y-199358515D01*
X375673824Y-199507500D01*
X375677501Y-199544832D01*
X375677500Y-206142155D01*
X375570208Y-206230208D01*
X375500000Y-206315756D01*
X375429792Y-206230208D01*
X375296164Y-206120542D01*
X375143709Y-206039053D01*
X374978285Y-205988872D01*
X374806250Y-205971928D01*
X374318750Y-205971928D01*
X374146715Y-205988872D01*
X373981291Y-206039053D01*
X373828836Y-206120542D01*
X373695208Y-206230208D01*
X373585542Y-206363836D01*
X373504053Y-206516291D01*
X373453872Y-206681715D01*
X373436928Y-206853750D01*
X357678344Y-206853750D01*
X357722913Y-206629692D01*
X357722913Y-206290308D01*
X357656702Y-205957445D01*
X357526825Y-205643895D01*
X357338274Y-205361707D01*
X357098293Y-205121726D01*
X356816105Y-204933175D01*
X356502555Y-204803298D01*
X356169692Y-204737087D01*
X355830308Y-204737087D01*
X355497445Y-204803298D01*
X355183895Y-204933175D01*
X354901707Y-205121726D01*
X354661726Y-205361707D01*
X354473175Y-205643895D01*
X354343298Y-205957445D01*
X354277087Y-206290308D01*
X257066762Y-206290308D01*
X257010280Y-206006360D01*
X256880123Y-205692132D01*
X256691164Y-205409335D01*
X256450665Y-205168836D01*
X256167868Y-204979877D01*
X255853640Y-204849720D01*
X255520059Y-204783366D01*
X255179941Y-204783366D01*
X254846360Y-204849720D01*
X254532132Y-204979877D01*
X254249335Y-205168836D01*
X254008836Y-205409335D01*
X253819877Y-205692132D01*
X253689720Y-206006360D01*
X253623366Y-206339941D01*
X146812000Y-206339941D01*
X146812000Y-194640573D01*
X150682015Y-194640573D01*
X150694275Y-194765055D01*
X150730585Y-194884753D01*
X150789550Y-194995067D01*
X150868902Y-195091758D01*
X150965593Y-195171110D01*
X151075907Y-195230075D01*
X151195605Y-195266385D01*
X151320087Y-195278645D01*
X152284337Y-195275573D01*
X152443087Y-195116823D01*
X152443087Y-193517573D01*
X152697087Y-193517573D01*
X152697087Y-195116823D01*
X152855837Y-195275573D01*
X153820087Y-195278645D01*
X153944569Y-195266385D01*
X154064267Y-195230075D01*
X154174581Y-195171110D01*
X154271272Y-195091758D01*
X154350624Y-194995067D01*
X154409589Y-194884753D01*
X154445899Y-194765055D01*
X154458159Y-194640573D01*
X195132015Y-194640573D01*
X195144275Y-194765055D01*
X195180585Y-194884753D01*
X195239550Y-194995067D01*
X195318902Y-195091758D01*
X195415593Y-195171110D01*
X195525907Y-195230075D01*
X195645605Y-195266385D01*
X195770087Y-195278645D01*
X196734337Y-195275573D01*
X196893087Y-195116823D01*
X196893087Y-193517573D01*
X197147087Y-193517573D01*
X197147087Y-195116823D01*
X197305837Y-195275573D01*
X198270087Y-195278645D01*
X198394569Y-195266385D01*
X198514267Y-195230075D01*
X198624581Y-195171110D01*
X198721272Y-195091758D01*
X198800624Y-194995067D01*
X198859589Y-194884753D01*
X198895899Y-194765055D01*
X198908159Y-194640573D01*
X239582015Y-194640573D01*
X239594275Y-194765055D01*
X239630585Y-194884753D01*
X239689550Y-194995067D01*
X239768902Y-195091758D01*
X239865593Y-195171110D01*
X239975907Y-195230075D01*
X240095605Y-195266385D01*
X240220087Y-195278645D01*
X241184337Y-195275573D01*
X241343087Y-195116823D01*
X241343087Y-193517573D01*
X241597087Y-193517573D01*
X241597087Y-195116823D01*
X241755837Y-195275573D01*
X242720087Y-195278645D01*
X242844569Y-195266385D01*
X242964267Y-195230075D01*
X243074581Y-195171110D01*
X243171272Y-195091758D01*
X243250624Y-194995067D01*
X243309589Y-194884753D01*
X243345899Y-194765055D01*
X243358159Y-194640573D01*
X284032015Y-194640573D01*
X284044275Y-194765055D01*
X284080585Y-194884753D01*
X284139550Y-194995067D01*
X284218902Y-195091758D01*
X284315593Y-195171110D01*
X284425907Y-195230075D01*
X284545605Y-195266385D01*
X284670087Y-195278645D01*
X285634337Y-195275573D01*
X285793087Y-195116823D01*
X285793087Y-193517573D01*
X286047087Y-193517573D01*
X286047087Y-195116823D01*
X286205837Y-195275573D01*
X287170087Y-195278645D01*
X287294569Y-195266385D01*
X287414267Y-195230075D01*
X287524581Y-195171110D01*
X287621272Y-195091758D01*
X287700624Y-194995067D01*
X287759589Y-194884753D01*
X287795899Y-194765055D01*
X287808159Y-194640573D01*
X328482015Y-194640573D01*
X328494275Y-194765055D01*
X328530585Y-194884753D01*
X328589550Y-194995067D01*
X328668902Y-195091758D01*
X328765593Y-195171110D01*
X328875907Y-195230075D01*
X328995605Y-195266385D01*
X329120087Y-195278645D01*
X330084337Y-195275573D01*
X330243087Y-195116823D01*
X330243087Y-193517573D01*
X330497087Y-193517573D01*
X330497087Y-195116823D01*
X330655837Y-195275573D01*
X331620087Y-195278645D01*
X331744569Y-195266385D01*
X331864267Y-195230075D01*
X331974581Y-195171110D01*
X332071272Y-195091758D01*
X332150624Y-194995067D01*
X332209589Y-194884753D01*
X332245899Y-194765055D01*
X332258159Y-194640573D01*
X372932015Y-194640573D01*
X372944275Y-194765055D01*
X372980585Y-194884753D01*
X373039550Y-194995067D01*
X373118902Y-195091758D01*
X373215593Y-195171110D01*
X373325907Y-195230075D01*
X373445605Y-195266385D01*
X373570087Y-195278645D01*
X374534337Y-195275573D01*
X374693087Y-195116823D01*
X374693087Y-193517573D01*
X374947087Y-193517573D01*
X374947087Y-195116823D01*
X375105837Y-195275573D01*
X376070087Y-195278645D01*
X376194569Y-195266385D01*
X376314267Y-195230075D01*
X376424581Y-195171110D01*
X376521272Y-195091758D01*
X376600624Y-194995067D01*
X376659589Y-194884753D01*
X376695899Y-194765055D01*
X376708159Y-194640573D01*
X376705087Y-193676323D01*
X376546337Y-193517573D01*
X374947087Y-193517573D01*
X374693087Y-193517573D01*
X373093837Y-193517573D01*
X372935087Y-193676323D01*
X372932015Y-194640573D01*
X332258159Y-194640573D01*
X332255087Y-193676323D01*
X332096337Y-193517573D01*
X330497087Y-193517573D01*
X330243087Y-193517573D01*
X328643837Y-193517573D01*
X328485087Y-193676323D01*
X328482015Y-194640573D01*
X287808159Y-194640573D01*
X287805087Y-193676323D01*
X287646337Y-193517573D01*
X286047087Y-193517573D01*
X285793087Y-193517573D01*
X284193837Y-193517573D01*
X284035087Y-193676323D01*
X284032015Y-194640573D01*
X243358159Y-194640573D01*
X243355087Y-193676323D01*
X243196337Y-193517573D01*
X241597087Y-193517573D01*
X241343087Y-193517573D01*
X239743837Y-193517573D01*
X239585087Y-193676323D01*
X239582015Y-194640573D01*
X198908159Y-194640573D01*
X198905087Y-193676323D01*
X198746337Y-193517573D01*
X197147087Y-193517573D01*
X196893087Y-193517573D01*
X195293837Y-193517573D01*
X195135087Y-193676323D01*
X195132015Y-194640573D01*
X154458159Y-194640573D01*
X154455087Y-193676323D01*
X154296337Y-193517573D01*
X152697087Y-193517573D01*
X152443087Y-193517573D01*
X150843837Y-193517573D01*
X150685087Y-193676323D01*
X150682015Y-194640573D01*
X146812000Y-194640573D01*
X146812000Y-192140573D01*
X150682015Y-192140573D01*
X150685087Y-193104823D01*
X150843837Y-193263573D01*
X152443087Y-193263573D01*
X152443087Y-191664323D01*
X152697087Y-191664323D01*
X152697087Y-193263573D01*
X154296337Y-193263573D01*
X154455087Y-193104823D01*
X154458159Y-192140573D01*
X195132015Y-192140573D01*
X195135087Y-193104823D01*
X195293837Y-193263573D01*
X196893087Y-193263573D01*
X196893087Y-191664323D01*
X197147087Y-191664323D01*
X197147087Y-193263573D01*
X198746337Y-193263573D01*
X198905087Y-193104823D01*
X198908159Y-192140573D01*
X239582015Y-192140573D01*
X239585087Y-193104823D01*
X239743837Y-193263573D01*
X241343087Y-193263573D01*
X241343087Y-191664323D01*
X241597087Y-191664323D01*
X241597087Y-193263573D01*
X243196337Y-193263573D01*
X243355087Y-193104823D01*
X243358159Y-192140573D01*
X284032015Y-192140573D01*
X284035087Y-193104823D01*
X284193837Y-193263573D01*
X285793087Y-193263573D01*
X285793087Y-191664323D01*
X286047087Y-191664323D01*
X286047087Y-193263573D01*
X287646337Y-193263573D01*
X287805087Y-193104823D01*
X287808159Y-192140573D01*
X328482015Y-192140573D01*
X328485087Y-193104823D01*
X328643837Y-193263573D01*
X330243087Y-193263573D01*
X330243087Y-191664323D01*
X330497087Y-191664323D01*
X330497087Y-193263573D01*
X332096337Y-193263573D01*
X332255087Y-193104823D01*
X332258159Y-192140573D01*
X372932015Y-192140573D01*
X372935087Y-193104823D01*
X373093837Y-193263573D01*
X374693087Y-193263573D01*
X374693087Y-191664323D01*
X374947087Y-191664323D01*
X374947087Y-193263573D01*
X376546337Y-193263573D01*
X376705087Y-193104823D01*
X376708159Y-192140573D01*
X376695899Y-192016091D01*
X376659589Y-191896393D01*
X376600624Y-191786079D01*
X376521272Y-191689388D01*
X376424581Y-191610036D01*
X376314267Y-191551071D01*
X376194569Y-191514761D01*
X376070087Y-191502501D01*
X375105837Y-191505573D01*
X374947087Y-191664323D01*
X374693087Y-191664323D01*
X374534337Y-191505573D01*
X373570087Y-191502501D01*
X373445605Y-191514761D01*
X373325907Y-191551071D01*
X373215593Y-191610036D01*
X373118902Y-191689388D01*
X373039550Y-191786079D01*
X372980585Y-191896393D01*
X372944275Y-192016091D01*
X372932015Y-192140573D01*
X332258159Y-192140573D01*
X332245899Y-192016091D01*
X332209589Y-191896393D01*
X332150624Y-191786079D01*
X332071272Y-191689388D01*
X331974581Y-191610036D01*
X331864267Y-191551071D01*
X331744569Y-191514761D01*
X331620087Y-191502501D01*
X330655837Y-191505573D01*
X330497087Y-191664323D01*
X330243087Y-191664323D01*
X330084337Y-191505573D01*
X329120087Y-191502501D01*
X328995605Y-191514761D01*
X328875907Y-191551071D01*
X328765593Y-191610036D01*
X328668902Y-191689388D01*
X328589550Y-191786079D01*
X328530585Y-191896393D01*
X328494275Y-192016091D01*
X328482015Y-192140573D01*
X287808159Y-192140573D01*
X287795899Y-192016091D01*
X287759589Y-191896393D01*
X287700624Y-191786079D01*
X287621272Y-191689388D01*
X287524581Y-191610036D01*
X287414267Y-191551071D01*
X287294569Y-191514761D01*
X287170087Y-191502501D01*
X286205837Y-191505573D01*
X286047087Y-191664323D01*
X285793087Y-191664323D01*
X285634337Y-191505573D01*
X284670087Y-191502501D01*
X284545605Y-191514761D01*
X284425907Y-191551071D01*
X284315593Y-191610036D01*
X284218902Y-191689388D01*
X284139550Y-191786079D01*
X284080585Y-191896393D01*
X284044275Y-192016091D01*
X284032015Y-192140573D01*
X243358159Y-192140573D01*
X243345899Y-192016091D01*
X243309589Y-191896393D01*
X243250624Y-191786079D01*
X243171272Y-191689388D01*
X243074581Y-191610036D01*
X242964267Y-191551071D01*
X242844569Y-191514761D01*
X242720087Y-191502501D01*
X241755837Y-191505573D01*
X241597087Y-191664323D01*
X241343087Y-191664323D01*
X241184337Y-191505573D01*
X240220087Y-191502501D01*
X240095605Y-191514761D01*
X239975907Y-191551071D01*
X239865593Y-191610036D01*
X239768902Y-191689388D01*
X239689550Y-191786079D01*
X239630585Y-191896393D01*
X239594275Y-192016091D01*
X239582015Y-192140573D01*
X198908159Y-192140573D01*
X198895899Y-192016091D01*
X198859589Y-191896393D01*
X198800624Y-191786079D01*
X198721272Y-191689388D01*
X198624581Y-191610036D01*
X198514267Y-191551071D01*
X198394569Y-191514761D01*
X198270087Y-191502501D01*
X197305837Y-191505573D01*
X197147087Y-191664323D01*
X196893087Y-191664323D01*
X196734337Y-191505573D01*
X195770087Y-191502501D01*
X195645605Y-191514761D01*
X195525907Y-191551071D01*
X195415593Y-191610036D01*
X195318902Y-191689388D01*
X195239550Y-191786079D01*
X195180585Y-191896393D01*
X195144275Y-192016091D01*
X195132015Y-192140573D01*
X154458159Y-192140573D01*
X154445899Y-192016091D01*
X154409589Y-191896393D01*
X154350624Y-191786079D01*
X154271272Y-191689388D01*
X154174581Y-191610036D01*
X154064267Y-191551071D01*
X153944569Y-191514761D01*
X153820087Y-191502501D01*
X152855837Y-191505573D01*
X152697087Y-191664323D01*
X152443087Y-191664323D01*
X152284337Y-191505573D01*
X151320087Y-191502501D01*
X151195605Y-191514761D01*
X151075907Y-191551071D01*
X150965593Y-191610036D01*
X150868902Y-191689388D01*
X150789550Y-191786079D01*
X150730585Y-191896393D01*
X150694275Y-192016091D01*
X150682015Y-192140573D01*
X146812000Y-192140573D01*
X146812000Y-189640573D01*
X150682015Y-189640573D01*
X150694275Y-189765055D01*
X150730585Y-189884753D01*
X150789550Y-189995067D01*
X150868902Y-190091758D01*
X150965593Y-190171110D01*
X151075907Y-190230075D01*
X151195605Y-190266385D01*
X151320087Y-190278645D01*
X152284337Y-190275573D01*
X152443087Y-190116823D01*
X152443087Y-188517573D01*
X152697087Y-188517573D01*
X152697087Y-190116823D01*
X152855837Y-190275573D01*
X153820087Y-190278645D01*
X153944569Y-190266385D01*
X154064267Y-190230075D01*
X154174581Y-190171110D01*
X154271272Y-190091758D01*
X154350624Y-189995067D01*
X154409589Y-189884753D01*
X154445899Y-189765055D01*
X154458159Y-189640573D01*
X195132015Y-189640573D01*
X195144275Y-189765055D01*
X195180585Y-189884753D01*
X195239550Y-189995067D01*
X195318902Y-190091758D01*
X195415593Y-190171110D01*
X195525907Y-190230075D01*
X195645605Y-190266385D01*
X195770087Y-190278645D01*
X196734337Y-190275573D01*
X196893087Y-190116823D01*
X196893087Y-188517573D01*
X197147087Y-188517573D01*
X197147087Y-190116823D01*
X197305837Y-190275573D01*
X198270087Y-190278645D01*
X198394569Y-190266385D01*
X198514267Y-190230075D01*
X198624581Y-190171110D01*
X198721272Y-190091758D01*
X198800624Y-189995067D01*
X198859589Y-189884753D01*
X198895899Y-189765055D01*
X198908159Y-189640573D01*
X239582015Y-189640573D01*
X239594275Y-189765055D01*
X239630585Y-189884753D01*
X239689550Y-189995067D01*
X239768902Y-190091758D01*
X239865593Y-190171110D01*
X239975907Y-190230075D01*
X240095605Y-190266385D01*
X240220087Y-190278645D01*
X241184337Y-190275573D01*
X241343087Y-190116823D01*
X241343087Y-188517573D01*
X241597087Y-188517573D01*
X241597087Y-190116823D01*
X241755837Y-190275573D01*
X242720087Y-190278645D01*
X242844569Y-190266385D01*
X242964267Y-190230075D01*
X243074581Y-190171110D01*
X243171272Y-190091758D01*
X243250624Y-189995067D01*
X243309589Y-189884753D01*
X243345899Y-189765055D01*
X243358159Y-189640573D01*
X284032015Y-189640573D01*
X284044275Y-189765055D01*
X284080585Y-189884753D01*
X284139550Y-189995067D01*
X284218902Y-190091758D01*
X284315593Y-190171110D01*
X284425907Y-190230075D01*
X284545605Y-190266385D01*
X284670087Y-190278645D01*
X285634337Y-190275573D01*
X285793087Y-190116823D01*
X285793087Y-188517573D01*
X286047087Y-188517573D01*
X286047087Y-190116823D01*
X286205837Y-190275573D01*
X287170087Y-190278645D01*
X287294569Y-190266385D01*
X287414267Y-190230075D01*
X287524581Y-190171110D01*
X287621272Y-190091758D01*
X287700624Y-189995067D01*
X287759589Y-189884753D01*
X287795899Y-189765055D01*
X287808159Y-189640573D01*
X328482015Y-189640573D01*
X328494275Y-189765055D01*
X328530585Y-189884753D01*
X328589550Y-189995067D01*
X328668902Y-190091758D01*
X328765593Y-190171110D01*
X328875907Y-190230075D01*
X328995605Y-190266385D01*
X329120087Y-190278645D01*
X330084337Y-190275573D01*
X330243087Y-190116823D01*
X330243087Y-188517573D01*
X330497087Y-188517573D01*
X330497087Y-190116823D01*
X330655837Y-190275573D01*
X331620087Y-190278645D01*
X331744569Y-190266385D01*
X331864267Y-190230075D01*
X331974581Y-190171110D01*
X332071272Y-190091758D01*
X332150624Y-189995067D01*
X332209589Y-189884753D01*
X332245899Y-189765055D01*
X332258159Y-189640573D01*
X372932015Y-189640573D01*
X372944275Y-189765055D01*
X372980585Y-189884753D01*
X373039550Y-189995067D01*
X373118902Y-190091758D01*
X373215593Y-190171110D01*
X373325907Y-190230075D01*
X373445605Y-190266385D01*
X373570087Y-190278645D01*
X374534337Y-190275573D01*
X374693087Y-190116823D01*
X374693087Y-188517573D01*
X374947087Y-188517573D01*
X374947087Y-190116823D01*
X375105837Y-190275573D01*
X376070087Y-190278645D01*
X376194569Y-190266385D01*
X376314267Y-190230075D01*
X376424581Y-190171110D01*
X376521272Y-190091758D01*
X376600624Y-189995067D01*
X376659589Y-189884753D01*
X376695899Y-189765055D01*
X376708159Y-189640573D01*
X376705087Y-188676323D01*
X376546337Y-188517573D01*
X374947087Y-188517573D01*
X374693087Y-188517573D01*
X373093837Y-188517573D01*
X372935087Y-188676323D01*
X372932015Y-189640573D01*
X332258159Y-189640573D01*
X332255087Y-188676323D01*
X332096337Y-188517573D01*
X330497087Y-188517573D01*
X330243087Y-188517573D01*
X328643837Y-188517573D01*
X328485087Y-188676323D01*
X328482015Y-189640573D01*
X287808159Y-189640573D01*
X287805087Y-188676323D01*
X287646337Y-188517573D01*
X286047087Y-188517573D01*
X285793087Y-188517573D01*
X284193837Y-188517573D01*
X284035087Y-188676323D01*
X284032015Y-189640573D01*
X243358159Y-189640573D01*
X243355087Y-188676323D01*
X243196337Y-188517573D01*
X241597087Y-188517573D01*
X241343087Y-188517573D01*
X239743837Y-188517573D01*
X239585087Y-188676323D01*
X239582015Y-189640573D01*
X198908159Y-189640573D01*
X198905087Y-188676323D01*
X198746337Y-188517573D01*
X197147087Y-188517573D01*
X196893087Y-188517573D01*
X195293837Y-188517573D01*
X195135087Y-188676323D01*
X195132015Y-189640573D01*
X154458159Y-189640573D01*
X154455087Y-188676323D01*
X154296337Y-188517573D01*
X152697087Y-188517573D01*
X152443087Y-188517573D01*
X150843837Y-188517573D01*
X150685087Y-188676323D01*
X150682015Y-189640573D01*
X146812000Y-189640573D01*
X146812000Y-187140573D01*
X150682015Y-187140573D01*
X150685087Y-188104823D01*
X150843837Y-188263573D01*
X152443087Y-188263573D01*
X152443087Y-186664323D01*
X152697087Y-186664323D01*
X152697087Y-188263573D01*
X154296337Y-188263573D01*
X154455087Y-188104823D01*
X154458159Y-187140573D01*
X195132015Y-187140573D01*
X195135087Y-188104823D01*
X195293837Y-188263573D01*
X196893087Y-188263573D01*
X196893087Y-186664323D01*
X197147087Y-186664323D01*
X197147087Y-188263573D01*
X198746337Y-188263573D01*
X198905087Y-188104823D01*
X198908159Y-187140573D01*
X239582015Y-187140573D01*
X239585087Y-188104823D01*
X239743837Y-188263573D01*
X241343087Y-188263573D01*
X241343087Y-186664323D01*
X241597087Y-186664323D01*
X241597087Y-188263573D01*
X243196337Y-188263573D01*
X243355087Y-188104823D01*
X243358159Y-187140573D01*
X284032015Y-187140573D01*
X284035087Y-188104823D01*
X284193837Y-188263573D01*
X285793087Y-188263573D01*
X285793087Y-186664323D01*
X286047087Y-186664323D01*
X286047087Y-188263573D01*
X287646337Y-188263573D01*
X287805087Y-188104823D01*
X287808159Y-187140573D01*
X328482015Y-187140573D01*
X328485087Y-188104823D01*
X328643837Y-188263573D01*
X330243087Y-188263573D01*
X330243087Y-186664323D01*
X330497087Y-186664323D01*
X330497087Y-188263573D01*
X332096337Y-188263573D01*
X332255087Y-188104823D01*
X332258159Y-187140573D01*
X372932015Y-187140573D01*
X372935087Y-188104823D01*
X373093837Y-188263573D01*
X374693087Y-188263573D01*
X374693087Y-186664323D01*
X374947087Y-186664323D01*
X374947087Y-188263573D01*
X376546337Y-188263573D01*
X376705087Y-188104823D01*
X376708159Y-187140573D01*
X376695899Y-187016091D01*
X376659589Y-186896393D01*
X376600624Y-186786079D01*
X376521272Y-186689388D01*
X376424581Y-186610036D01*
X376314267Y-186551071D01*
X376194569Y-186514761D01*
X376070087Y-186502501D01*
X375105837Y-186505573D01*
X374947087Y-186664323D01*
X374693087Y-186664323D01*
X374534337Y-186505573D01*
X373570087Y-186502501D01*
X373445605Y-186514761D01*
X373325907Y-186551071D01*
X373215593Y-186610036D01*
X373118902Y-186689388D01*
X373039550Y-186786079D01*
X372980585Y-186896393D01*
X372944275Y-187016091D01*
X372932015Y-187140573D01*
X332258159Y-187140573D01*
X332245899Y-187016091D01*
X332209589Y-186896393D01*
X332150624Y-186786079D01*
X332071272Y-186689388D01*
X331974581Y-186610036D01*
X331864267Y-186551071D01*
X331744569Y-186514761D01*
X331620087Y-186502501D01*
X330655837Y-186505573D01*
X330497087Y-186664323D01*
X330243087Y-186664323D01*
X330084337Y-186505573D01*
X329120087Y-186502501D01*
X328995605Y-186514761D01*
X328875907Y-186551071D01*
X328765593Y-186610036D01*
X328668902Y-186689388D01*
X328589550Y-186786079D01*
X328530585Y-186896393D01*
X328494275Y-187016091D01*
X328482015Y-187140573D01*
X287808159Y-187140573D01*
X287795899Y-187016091D01*
X287759589Y-186896393D01*
X287700624Y-186786079D01*
X287621272Y-186689388D01*
X287524581Y-186610036D01*
X287414267Y-186551071D01*
X287294569Y-186514761D01*
X287170087Y-186502501D01*
X286205837Y-186505573D01*
X286047087Y-186664323D01*
X285793087Y-186664323D01*
X285634337Y-186505573D01*
X284670087Y-186502501D01*
X284545605Y-186514761D01*
X284425907Y-186551071D01*
X284315593Y-186610036D01*
X284218902Y-186689388D01*
X284139550Y-186786079D01*
X284080585Y-186896393D01*
X284044275Y-187016091D01*
X284032015Y-187140573D01*
X243358159Y-187140573D01*
X243345899Y-187016091D01*
X243309589Y-186896393D01*
X243250624Y-186786079D01*
X243171272Y-186689388D01*
X243074581Y-186610036D01*
X242964267Y-186551071D01*
X242844569Y-186514761D01*
X242720087Y-186502501D01*
X241755837Y-186505573D01*
X241597087Y-186664323D01*
X241343087Y-186664323D01*
X241184337Y-186505573D01*
X240220087Y-186502501D01*
X240095605Y-186514761D01*
X239975907Y-186551071D01*
X239865593Y-186610036D01*
X239768902Y-186689388D01*
X239689550Y-186786079D01*
X239630585Y-186896393D01*
X239594275Y-187016091D01*
X239582015Y-187140573D01*
X198908159Y-187140573D01*
X198895899Y-187016091D01*
X198859589Y-186896393D01*
X198800624Y-186786079D01*
X198721272Y-186689388D01*
X198624581Y-186610036D01*
X198514267Y-186551071D01*
X198394569Y-186514761D01*
X198270087Y-186502501D01*
X197305837Y-186505573D01*
X197147087Y-186664323D01*
X196893087Y-186664323D01*
X196734337Y-186505573D01*
X195770087Y-186502501D01*
X195645605Y-186514761D01*
X195525907Y-186551071D01*
X195415593Y-186610036D01*
X195318902Y-186689388D01*
X195239550Y-186786079D01*
X195180585Y-186896393D01*
X195144275Y-187016091D01*
X195132015Y-187140573D01*
X154458159Y-187140573D01*
X154445899Y-187016091D01*
X154409589Y-186896393D01*
X154350624Y-186786079D01*
X154271272Y-186689388D01*
X154174581Y-186610036D01*
X154064267Y-186551071D01*
X153944569Y-186514761D01*
X153820087Y-186502501D01*
X152855837Y-186505573D01*
X152697087Y-186664323D01*
X152443087Y-186664323D01*
X152284337Y-186505573D01*
X151320087Y-186502501D01*
X151195605Y-186514761D01*
X151075907Y-186551071D01*
X150965593Y-186610036D01*
X150868902Y-186689388D01*
X150789550Y-186786079D01*
X150730585Y-186896393D01*
X150694275Y-187016091D01*
X150682015Y-187140573D01*
X146812000Y-187140573D01*
X146812000Y-168808061D01*
X146920000Y-168808061D01*
X146920000Y-169011939D01*
X146959774Y-169211898D01*
X147037795Y-169400256D01*
X147151063Y-169569774D01*
X147295226Y-169713937D01*
X147464744Y-169827205D01*
X147653102Y-169905226D01*
X147853061Y-169945000D01*
X147915199Y-169945000D01*
X149271774Y-171301576D01*
X149295572Y-171330574D01*
X149411297Y-171425547D01*
X149543326Y-171496119D01*
X149686587Y-171539576D01*
X149798240Y-171550573D01*
X149798250Y-171550573D01*
X149835573Y-171554249D01*
X149872896Y-171550573D01*
X150682015Y-171550573D01*
X150682015Y-172040573D01*
X150694275Y-172165055D01*
X150730585Y-172284753D01*
X150789550Y-172395067D01*
X150868902Y-172491758D01*
X150965593Y-172571110D01*
X151075907Y-172630075D01*
X151195605Y-172666385D01*
X151320087Y-172678645D01*
X153820087Y-172678645D01*
X153944569Y-172666385D01*
X154064267Y-172630075D01*
X154174581Y-172571110D01*
X154271272Y-172491758D01*
X154350624Y-172395067D01*
X154409589Y-172284753D01*
X154445899Y-172165055D01*
X154458159Y-172040573D01*
X154458159Y-169540573D01*
X154445899Y-169416091D01*
X154409589Y-169296393D01*
X154350624Y-169186079D01*
X154271272Y-169089388D01*
X154174581Y-169010036D01*
X154064267Y-168951071D01*
X153944569Y-168914761D01*
X153820087Y-168902501D01*
X151320087Y-168902501D01*
X151195605Y-168914761D01*
X151075907Y-168951071D01*
X150965593Y-169010036D01*
X150868902Y-169089388D01*
X150789550Y-169186079D01*
X150730585Y-169296393D01*
X150694275Y-169416091D01*
X150682015Y-169540573D01*
X150682015Y-170030573D01*
X150150375Y-170030573D01*
X149029801Y-168910000D01*
X149131740Y-168808061D01*
X193910000Y-168808061D01*
X193910000Y-169011939D01*
X193949774Y-169211898D01*
X194027795Y-169400256D01*
X194141063Y-169569774D01*
X194285226Y-169713937D01*
X194454744Y-169827205D01*
X194643102Y-169905226D01*
X194843061Y-169945000D01*
X194905199Y-169945000D01*
X195132015Y-170171816D01*
X195132015Y-172040573D01*
X195144275Y-172165055D01*
X195180585Y-172284753D01*
X195239550Y-172395067D01*
X195318902Y-172491758D01*
X195415593Y-172571110D01*
X195525907Y-172630075D01*
X195645605Y-172666385D01*
X195770087Y-172678645D01*
X198270087Y-172678645D01*
X198394569Y-172666385D01*
X198514267Y-172630075D01*
X198624581Y-172571110D01*
X198721272Y-172491758D01*
X198800624Y-172395067D01*
X198859589Y-172284753D01*
X198895899Y-172165055D01*
X198908159Y-172040573D01*
X198908159Y-169540573D01*
X198895899Y-169416091D01*
X198859589Y-169296393D01*
X198800624Y-169186079D01*
X198721272Y-169089388D01*
X198624581Y-169010036D01*
X198514267Y-168951071D01*
X198394569Y-168914761D01*
X198270087Y-168902501D01*
X196027300Y-168902501D01*
X196121740Y-168808061D01*
X238360000Y-168808061D01*
X238360000Y-169011939D01*
X238399774Y-169211898D01*
X238477795Y-169400256D01*
X238591063Y-169569774D01*
X238735226Y-169713937D01*
X238904744Y-169827205D01*
X239093102Y-169905226D01*
X239293061Y-169945000D01*
X239355199Y-169945000D01*
X239582015Y-170171816D01*
X239582015Y-172040573D01*
X239594275Y-172165055D01*
X239630585Y-172284753D01*
X239689550Y-172395067D01*
X239768902Y-172491758D01*
X239865593Y-172571110D01*
X239975907Y-172630075D01*
X240095605Y-172666385D01*
X240220087Y-172678645D01*
X242720087Y-172678645D01*
X242844569Y-172666385D01*
X242964267Y-172630075D01*
X243074581Y-172571110D01*
X243171272Y-172491758D01*
X243250624Y-172395067D01*
X243309589Y-172284753D01*
X243345899Y-172165055D01*
X243358159Y-172040573D01*
X243358159Y-169540573D01*
X243345899Y-169416091D01*
X243309589Y-169296393D01*
X243250624Y-169186079D01*
X243171272Y-169089388D01*
X243074581Y-169010036D01*
X242964267Y-168951071D01*
X242844569Y-168914761D01*
X242720087Y-168902501D01*
X240477300Y-168902501D01*
X240571740Y-168808061D01*
X282810000Y-168808061D01*
X282810000Y-169011939D01*
X282849774Y-169211898D01*
X282927795Y-169400256D01*
X283041063Y-169569774D01*
X283185226Y-169713937D01*
X283354744Y-169827205D01*
X283543102Y-169905226D01*
X283743061Y-169945000D01*
X283805199Y-169945000D01*
X284032015Y-170171816D01*
X284032015Y-172040573D01*
X284044275Y-172165055D01*
X284080585Y-172284753D01*
X284139550Y-172395067D01*
X284218902Y-172491758D01*
X284315593Y-172571110D01*
X284425907Y-172630075D01*
X284545605Y-172666385D01*
X284670087Y-172678645D01*
X287170087Y-172678645D01*
X287294569Y-172666385D01*
X287414267Y-172630075D01*
X287524581Y-172571110D01*
X287621272Y-172491758D01*
X287700624Y-172395067D01*
X287759589Y-172284753D01*
X287795899Y-172165055D01*
X287808159Y-172040573D01*
X287808159Y-169540573D01*
X287795899Y-169416091D01*
X287759589Y-169296393D01*
X287700624Y-169186079D01*
X287621272Y-169089388D01*
X287524581Y-169010036D01*
X287414267Y-168951071D01*
X287294569Y-168914761D01*
X287170087Y-168902501D01*
X284927300Y-168902501D01*
X285021740Y-168808061D01*
X327260000Y-168808061D01*
X327260000Y-169011939D01*
X327299774Y-169211898D01*
X327377795Y-169400256D01*
X327491063Y-169569774D01*
X327635226Y-169713937D01*
X327804744Y-169827205D01*
X327993102Y-169905226D01*
X328193061Y-169945000D01*
X328255199Y-169945000D01*
X328482015Y-170171816D01*
X328482015Y-172040573D01*
X328494275Y-172165055D01*
X328530585Y-172284753D01*
X328589550Y-172395067D01*
X328668902Y-172491758D01*
X328765593Y-172571110D01*
X328875907Y-172630075D01*
X328995605Y-172666385D01*
X329120087Y-172678645D01*
X331620087Y-172678645D01*
X331744569Y-172666385D01*
X331864267Y-172630075D01*
X331974581Y-172571110D01*
X332071272Y-172491758D01*
X332150624Y-172395067D01*
X332209589Y-172284753D01*
X332245899Y-172165055D01*
X332258159Y-172040573D01*
X332258159Y-169540573D01*
X332245899Y-169416091D01*
X332209589Y-169296393D01*
X332150624Y-169186079D01*
X332071272Y-169089388D01*
X331974581Y-169010036D01*
X331864267Y-168951071D01*
X331744569Y-168914761D01*
X331620087Y-168902501D01*
X329377300Y-168902501D01*
X329471740Y-168808061D01*
X371710000Y-168808061D01*
X371710000Y-169011939D01*
X371749774Y-169211898D01*
X371827795Y-169400256D01*
X371941063Y-169569774D01*
X372085226Y-169713937D01*
X372254744Y-169827205D01*
X372443102Y-169905226D01*
X372643061Y-169945000D01*
X372705199Y-169945000D01*
X372932015Y-170171816D01*
X372932015Y-172040573D01*
X372944275Y-172165055D01*
X372980585Y-172284753D01*
X373039550Y-172395067D01*
X373118902Y-172491758D01*
X373215593Y-172571110D01*
X373325907Y-172630075D01*
X373445605Y-172666385D01*
X373570087Y-172678645D01*
X376070087Y-172678645D01*
X376194569Y-172666385D01*
X376314267Y-172630075D01*
X376424581Y-172571110D01*
X376521272Y-172491758D01*
X376600624Y-172395067D01*
X376659589Y-172284753D01*
X376695899Y-172165055D01*
X376708159Y-172040573D01*
X376708159Y-169540573D01*
X376695899Y-169416091D01*
X376659589Y-169296393D01*
X376600624Y-169186079D01*
X376521272Y-169089388D01*
X376424581Y-169010036D01*
X376314267Y-168951071D01*
X376194569Y-168914761D01*
X376070087Y-168902501D01*
X373827300Y-168902501D01*
X374051156Y-168678645D01*
X376070087Y-168678645D01*
X376194569Y-168666385D01*
X376314267Y-168630075D01*
X376424581Y-168571110D01*
X376521272Y-168491758D01*
X376600624Y-168395067D01*
X376659589Y-168284753D01*
X376685886Y-168198061D01*
X415640000Y-168198061D01*
X415640000Y-168401939D01*
X415679774Y-168601898D01*
X415757795Y-168790256D01*
X415871063Y-168959774D01*
X416015226Y-169103937D01*
X416184744Y-169217205D01*
X416373102Y-169295226D01*
X416573061Y-169335000D01*
X416635199Y-169335000D01*
X417302015Y-170001817D01*
X417302015Y-171780573D01*
X417314275Y-171905055D01*
X417350585Y-172024753D01*
X417409550Y-172135067D01*
X417488902Y-172231758D01*
X417585593Y-172311110D01*
X417695907Y-172370075D01*
X417815605Y-172406385D01*
X417940087Y-172418645D01*
X420440087Y-172418645D01*
X420564569Y-172406385D01*
X420684267Y-172370075D01*
X420794581Y-172311110D01*
X420891272Y-172231758D01*
X420970624Y-172135067D01*
X421029589Y-172024753D01*
X421065899Y-171905055D01*
X421078159Y-171780573D01*
X421078159Y-169280573D01*
X421065899Y-169156091D01*
X421029589Y-169036393D01*
X420970624Y-168926079D01*
X420891272Y-168829388D01*
X420794581Y-168750036D01*
X420684267Y-168691071D01*
X420564569Y-168654761D01*
X420440087Y-168642501D01*
X418152960Y-168642501D01*
X418376816Y-168418645D01*
X420440087Y-168418645D01*
X420564569Y-168406385D01*
X420684267Y-168370075D01*
X420794581Y-168311110D01*
X420891272Y-168231758D01*
X420970624Y-168135067D01*
X421029589Y-168024753D01*
X421065899Y-167905055D01*
X421078159Y-167780573D01*
X421078159Y-165280573D01*
X421065899Y-165156091D01*
X421029589Y-165036393D01*
X420970624Y-164926079D01*
X420891272Y-164829388D01*
X420794581Y-164750036D01*
X420684267Y-164691071D01*
X420564569Y-164654761D01*
X420440087Y-164642501D01*
X417940087Y-164642501D01*
X417815605Y-164654761D01*
X417695907Y-164691071D01*
X417585593Y-164750036D01*
X417488902Y-164829388D01*
X417409550Y-164926079D01*
X417350585Y-165036393D01*
X417314275Y-165156091D01*
X417302015Y-165280573D01*
X417302015Y-167343844D01*
X417223888Y-167421971D01*
X417165256Y-167382795D01*
X416976898Y-167304774D01*
X416776939Y-167265000D01*
X416573061Y-167265000D01*
X416373102Y-167304774D01*
X416184744Y-167382795D01*
X416015226Y-167496063D01*
X415871063Y-167640226D01*
X415757795Y-167809744D01*
X415679774Y-167998102D01*
X415640000Y-168198061D01*
X376685886Y-168198061D01*
X376695899Y-168165055D01*
X376708159Y-168040573D01*
X376708159Y-165540573D01*
X376695899Y-165416091D01*
X376659589Y-165296393D01*
X376600624Y-165186079D01*
X376521272Y-165089388D01*
X376424581Y-165010036D01*
X376314267Y-164951071D01*
X376194569Y-164914761D01*
X376070087Y-164902501D01*
X373570087Y-164902501D01*
X373445605Y-164914761D01*
X373325907Y-164951071D01*
X373215593Y-165010036D01*
X373118902Y-165089388D01*
X373039550Y-165186079D01*
X372980585Y-165296393D01*
X372944275Y-165416091D01*
X372932015Y-165540573D01*
X372932015Y-167648184D01*
X372705199Y-167875000D01*
X372643061Y-167875000D01*
X372443102Y-167914774D01*
X372254744Y-167992795D01*
X372085226Y-168106063D01*
X371941063Y-168250226D01*
X371827795Y-168419744D01*
X371749774Y-168608102D01*
X371710000Y-168808061D01*
X329471740Y-168808061D01*
X329601156Y-168678645D01*
X331620087Y-168678645D01*
X331744569Y-168666385D01*
X331864267Y-168630075D01*
X331974581Y-168571110D01*
X332071272Y-168491758D01*
X332150624Y-168395067D01*
X332209589Y-168284753D01*
X332245899Y-168165055D01*
X332258159Y-168040573D01*
X332258159Y-165540573D01*
X332245899Y-165416091D01*
X332209589Y-165296393D01*
X332150624Y-165186079D01*
X332071272Y-165089388D01*
X331974581Y-165010036D01*
X331864267Y-164951071D01*
X331744569Y-164914761D01*
X331620087Y-164902501D01*
X329120087Y-164902501D01*
X328995605Y-164914761D01*
X328875907Y-164951071D01*
X328765593Y-165010036D01*
X328668902Y-165089388D01*
X328589550Y-165186079D01*
X328530585Y-165296393D01*
X328494275Y-165416091D01*
X328482015Y-165540573D01*
X328482015Y-167648184D01*
X328255199Y-167875000D01*
X328193061Y-167875000D01*
X327993102Y-167914774D01*
X327804744Y-167992795D01*
X327635226Y-168106063D01*
X327491063Y-168250226D01*
X327377795Y-168419744D01*
X327299774Y-168608102D01*
X327260000Y-168808061D01*
X285021740Y-168808061D01*
X285151156Y-168678645D01*
X287170087Y-168678645D01*
X287294569Y-168666385D01*
X287414267Y-168630075D01*
X287524581Y-168571110D01*
X287621272Y-168491758D01*
X287700624Y-168395067D01*
X287759589Y-168284753D01*
X287795899Y-168165055D01*
X287808159Y-168040573D01*
X287808159Y-165540573D01*
X287795899Y-165416091D01*
X287759589Y-165296393D01*
X287700624Y-165186079D01*
X287621272Y-165089388D01*
X287524581Y-165010036D01*
X287414267Y-164951071D01*
X287294569Y-164914761D01*
X287170087Y-164902501D01*
X284670087Y-164902501D01*
X284545605Y-164914761D01*
X284425907Y-164951071D01*
X284315593Y-165010036D01*
X284218902Y-165089388D01*
X284139550Y-165186079D01*
X284080585Y-165296393D01*
X284044275Y-165416091D01*
X284032015Y-165540573D01*
X284032015Y-167648184D01*
X283805199Y-167875000D01*
X283743061Y-167875000D01*
X283543102Y-167914774D01*
X283354744Y-167992795D01*
X283185226Y-168106063D01*
X283041063Y-168250226D01*
X282927795Y-168419744D01*
X282849774Y-168608102D01*
X282810000Y-168808061D01*
X240571740Y-168808061D01*
X240701156Y-168678645D01*
X242720087Y-168678645D01*
X242844569Y-168666385D01*
X242964267Y-168630075D01*
X243074581Y-168571110D01*
X243171272Y-168491758D01*
X243250624Y-168395067D01*
X243309589Y-168284753D01*
X243345899Y-168165055D01*
X243358159Y-168040573D01*
X243358159Y-165540573D01*
X243345899Y-165416091D01*
X243309589Y-165296393D01*
X243250624Y-165186079D01*
X243171272Y-165089388D01*
X243074581Y-165010036D01*
X242964267Y-164951071D01*
X242844569Y-164914761D01*
X242720087Y-164902501D01*
X240220087Y-164902501D01*
X240095605Y-164914761D01*
X239975907Y-164951071D01*
X239865593Y-165010036D01*
X239768902Y-165089388D01*
X239689550Y-165186079D01*
X239630585Y-165296393D01*
X239594275Y-165416091D01*
X239582015Y-165540573D01*
X239582015Y-167648184D01*
X239355199Y-167875000D01*
X239293061Y-167875000D01*
X239093102Y-167914774D01*
X238904744Y-167992795D01*
X238735226Y-168106063D01*
X238591063Y-168250226D01*
X238477795Y-168419744D01*
X238399774Y-168608102D01*
X238360000Y-168808061D01*
X196121740Y-168808061D01*
X196251156Y-168678645D01*
X198270087Y-168678645D01*
X198394569Y-168666385D01*
X198514267Y-168630075D01*
X198624581Y-168571110D01*
X198721272Y-168491758D01*
X198800624Y-168395067D01*
X198859589Y-168284753D01*
X198895899Y-168165055D01*
X198908159Y-168040573D01*
X198908159Y-165540573D01*
X198895899Y-165416091D01*
X198859589Y-165296393D01*
X198800624Y-165186079D01*
X198721272Y-165089388D01*
X198624581Y-165010036D01*
X198514267Y-164951071D01*
X198394569Y-164914761D01*
X198270087Y-164902501D01*
X195770087Y-164902501D01*
X195645605Y-164914761D01*
X195525907Y-164951071D01*
X195415593Y-165010036D01*
X195318902Y-165089388D01*
X195239550Y-165186079D01*
X195180585Y-165296393D01*
X195144275Y-165416091D01*
X195132015Y-165540573D01*
X195132015Y-167648184D01*
X194905199Y-167875000D01*
X194843061Y-167875000D01*
X194643102Y-167914774D01*
X194454744Y-167992795D01*
X194285226Y-168106063D01*
X194141063Y-168250226D01*
X194027795Y-168419744D01*
X193949774Y-168608102D01*
X193910000Y-168808061D01*
X149131740Y-168808061D01*
X150389230Y-167550573D01*
X150682015Y-167550573D01*
X150682015Y-168040573D01*
X150694275Y-168165055D01*
X150730585Y-168284753D01*
X150789550Y-168395067D01*
X150868902Y-168491758D01*
X150965593Y-168571110D01*
X151075907Y-168630075D01*
X151195605Y-168666385D01*
X151320087Y-168678645D01*
X153820087Y-168678645D01*
X153944569Y-168666385D01*
X154064267Y-168630075D01*
X154174581Y-168571110D01*
X154271272Y-168491758D01*
X154350624Y-168395067D01*
X154409589Y-168284753D01*
X154445899Y-168165055D01*
X154458159Y-168040573D01*
X154458159Y-165540573D01*
X154445899Y-165416091D01*
X154409589Y-165296393D01*
X154350624Y-165186079D01*
X154271272Y-165089388D01*
X154174581Y-165010036D01*
X154064267Y-164951071D01*
X153944569Y-164914761D01*
X153820087Y-164902501D01*
X151320087Y-164902501D01*
X151195605Y-164914761D01*
X151075907Y-164951071D01*
X150965593Y-165010036D01*
X150868902Y-165089388D01*
X150789550Y-165186079D01*
X150730585Y-165296393D01*
X150694275Y-165416091D01*
X150682015Y-165540573D01*
X150682015Y-166030573D01*
X150111749Y-166030573D01*
X150074426Y-166026897D01*
X150037103Y-166030573D01*
X150037094Y-166030573D01*
X149925441Y-166041570D01*
X149782180Y-166085027D01*
X149650151Y-166155599D01*
X149650149Y-166155600D01*
X149650150Y-166155600D01*
X149563423Y-166226774D01*
X149563419Y-166226778D01*
X149534426Y-166250572D01*
X149510632Y-166279565D01*
X147915199Y-167875000D01*
X147853061Y-167875000D01*
X147653102Y-167914774D01*
X147464744Y-167992795D01*
X147295226Y-168106063D01*
X147151063Y-168250226D01*
X147037795Y-168419744D01*
X146959774Y-168608102D01*
X146920000Y-168808061D01*
X146812000Y-168808061D01*
X146812000Y-150640573D01*
X150682015Y-150640573D01*
X150694275Y-150765055D01*
X150730585Y-150884753D01*
X150789550Y-150995067D01*
X150868902Y-151091758D01*
X150965593Y-151171110D01*
X151075907Y-151230075D01*
X151195605Y-151266385D01*
X151320087Y-151278645D01*
X152284337Y-151275573D01*
X152443087Y-151116823D01*
X152443087Y-149517573D01*
X152697087Y-149517573D01*
X152697087Y-151116823D01*
X152855837Y-151275573D01*
X153820087Y-151278645D01*
X153944569Y-151266385D01*
X154064267Y-151230075D01*
X154174581Y-151171110D01*
X154271272Y-151091758D01*
X154350624Y-150995067D01*
X154409589Y-150884753D01*
X154445899Y-150765055D01*
X154458159Y-150640573D01*
X195132015Y-150640573D01*
X195144275Y-150765055D01*
X195180585Y-150884753D01*
X195239550Y-150995067D01*
X195318902Y-151091758D01*
X195415593Y-151171110D01*
X195525907Y-151230075D01*
X195645605Y-151266385D01*
X195770087Y-151278645D01*
X196734337Y-151275573D01*
X196893087Y-151116823D01*
X196893087Y-149517573D01*
X197147087Y-149517573D01*
X197147087Y-151116823D01*
X197305837Y-151275573D01*
X198270087Y-151278645D01*
X198394569Y-151266385D01*
X198514267Y-151230075D01*
X198624581Y-151171110D01*
X198721272Y-151091758D01*
X198800624Y-150995067D01*
X198859589Y-150884753D01*
X198895899Y-150765055D01*
X198908159Y-150640573D01*
X239582015Y-150640573D01*
X239594275Y-150765055D01*
X239630585Y-150884753D01*
X239689550Y-150995067D01*
X239768902Y-151091758D01*
X239865593Y-151171110D01*
X239975907Y-151230075D01*
X240095605Y-151266385D01*
X240220087Y-151278645D01*
X241184337Y-151275573D01*
X241343087Y-151116823D01*
X241343087Y-149517573D01*
X241597087Y-149517573D01*
X241597087Y-151116823D01*
X241755837Y-151275573D01*
X242720087Y-151278645D01*
X242844569Y-151266385D01*
X242964267Y-151230075D01*
X243074581Y-151171110D01*
X243171272Y-151091758D01*
X243250624Y-150995067D01*
X243309589Y-150884753D01*
X243345899Y-150765055D01*
X243358159Y-150640573D01*
X284032015Y-150640573D01*
X284044275Y-150765055D01*
X284080585Y-150884753D01*
X284139550Y-150995067D01*
X284218902Y-151091758D01*
X284315593Y-151171110D01*
X284425907Y-151230075D01*
X284545605Y-151266385D01*
X284670087Y-151278645D01*
X285634337Y-151275573D01*
X285793087Y-151116823D01*
X285793087Y-149517573D01*
X286047087Y-149517573D01*
X286047087Y-151116823D01*
X286205837Y-151275573D01*
X287170087Y-151278645D01*
X287294569Y-151266385D01*
X287414267Y-151230075D01*
X287524581Y-151171110D01*
X287621272Y-151091758D01*
X287700624Y-150995067D01*
X287759589Y-150884753D01*
X287795899Y-150765055D01*
X287808159Y-150640573D01*
X328482015Y-150640573D01*
X328494275Y-150765055D01*
X328530585Y-150884753D01*
X328589550Y-150995067D01*
X328668902Y-151091758D01*
X328765593Y-151171110D01*
X328875907Y-151230075D01*
X328995605Y-151266385D01*
X329120087Y-151278645D01*
X330084337Y-151275573D01*
X330243087Y-151116823D01*
X330243087Y-149517573D01*
X330497087Y-149517573D01*
X330497087Y-151116823D01*
X330655837Y-151275573D01*
X331620087Y-151278645D01*
X331744569Y-151266385D01*
X331864267Y-151230075D01*
X331974581Y-151171110D01*
X332071272Y-151091758D01*
X332150624Y-150995067D01*
X332209589Y-150884753D01*
X332245899Y-150765055D01*
X332258159Y-150640573D01*
X372932015Y-150640573D01*
X372944275Y-150765055D01*
X372980585Y-150884753D01*
X373039550Y-150995067D01*
X373118902Y-151091758D01*
X373215593Y-151171110D01*
X373325907Y-151230075D01*
X373445605Y-151266385D01*
X373570087Y-151278645D01*
X374534337Y-151275573D01*
X374693087Y-151116823D01*
X374693087Y-149517573D01*
X374947087Y-149517573D01*
X374947087Y-151116823D01*
X375105837Y-151275573D01*
X376070087Y-151278645D01*
X376194569Y-151266385D01*
X376314267Y-151230075D01*
X376424581Y-151171110D01*
X376521272Y-151091758D01*
X376600624Y-150995067D01*
X376659589Y-150884753D01*
X376695899Y-150765055D01*
X376708159Y-150640573D01*
X376707331Y-150380573D01*
X417302015Y-150380573D01*
X417314275Y-150505055D01*
X417350585Y-150624753D01*
X417409550Y-150735067D01*
X417488902Y-150831758D01*
X417585593Y-150911110D01*
X417695907Y-150970075D01*
X417815605Y-151006385D01*
X417940087Y-151018645D01*
X418904337Y-151015573D01*
X419063087Y-150856823D01*
X419063087Y-149257573D01*
X419317087Y-149257573D01*
X419317087Y-150856823D01*
X419475837Y-151015573D01*
X420440087Y-151018645D01*
X420564569Y-151006385D01*
X420684267Y-150970075D01*
X420794581Y-150911110D01*
X420891272Y-150831758D01*
X420970624Y-150735067D01*
X421029589Y-150624753D01*
X421065899Y-150505055D01*
X421078159Y-150380573D01*
X421075087Y-149416323D01*
X420916337Y-149257573D01*
X419317087Y-149257573D01*
X419063087Y-149257573D01*
X417463837Y-149257573D01*
X417305087Y-149416323D01*
X417302015Y-150380573D01*
X376707331Y-150380573D01*
X376705087Y-149676323D01*
X376546337Y-149517573D01*
X374947087Y-149517573D01*
X374693087Y-149517573D01*
X373093837Y-149517573D01*
X372935087Y-149676323D01*
X372932015Y-150640573D01*
X332258159Y-150640573D01*
X332255087Y-149676323D01*
X332096337Y-149517573D01*
X330497087Y-149517573D01*
X330243087Y-149517573D01*
X328643837Y-149517573D01*
X328485087Y-149676323D01*
X328482015Y-150640573D01*
X287808159Y-150640573D01*
X287805087Y-149676323D01*
X287646337Y-149517573D01*
X286047087Y-149517573D01*
X285793087Y-149517573D01*
X284193837Y-149517573D01*
X284035087Y-149676323D01*
X284032015Y-150640573D01*
X243358159Y-150640573D01*
X243355087Y-149676323D01*
X243196337Y-149517573D01*
X241597087Y-149517573D01*
X241343087Y-149517573D01*
X239743837Y-149517573D01*
X239585087Y-149676323D01*
X239582015Y-150640573D01*
X198908159Y-150640573D01*
X198905087Y-149676323D01*
X198746337Y-149517573D01*
X197147087Y-149517573D01*
X196893087Y-149517573D01*
X195293837Y-149517573D01*
X195135087Y-149676323D01*
X195132015Y-150640573D01*
X154458159Y-150640573D01*
X154455087Y-149676323D01*
X154296337Y-149517573D01*
X152697087Y-149517573D01*
X152443087Y-149517573D01*
X150843837Y-149517573D01*
X150685087Y-149676323D01*
X150682015Y-150640573D01*
X146812000Y-150640573D01*
X146812000Y-148140573D01*
X150682015Y-148140573D01*
X150685087Y-149104823D01*
X150843837Y-149263573D01*
X152443087Y-149263573D01*
X152443087Y-147664323D01*
X152697087Y-147664323D01*
X152697087Y-149263573D01*
X154296337Y-149263573D01*
X154455087Y-149104823D01*
X154458159Y-148140573D01*
X195132015Y-148140573D01*
X195135087Y-149104823D01*
X195293837Y-149263573D01*
X196893087Y-149263573D01*
X196893087Y-147664323D01*
X197147087Y-147664323D01*
X197147087Y-149263573D01*
X198746337Y-149263573D01*
X198905087Y-149104823D01*
X198908159Y-148140573D01*
X239582015Y-148140573D01*
X239585087Y-149104823D01*
X239743837Y-149263573D01*
X241343087Y-149263573D01*
X241343087Y-147664323D01*
X241597087Y-147664323D01*
X241597087Y-149263573D01*
X243196337Y-149263573D01*
X243355087Y-149104823D01*
X243358159Y-148140573D01*
X284032015Y-148140573D01*
X284035087Y-149104823D01*
X284193837Y-149263573D01*
X285793087Y-149263573D01*
X285793087Y-147664323D01*
X286047087Y-147664323D01*
X286047087Y-149263573D01*
X287646337Y-149263573D01*
X287805087Y-149104823D01*
X287808159Y-148140573D01*
X328482015Y-148140573D01*
X328485087Y-149104823D01*
X328643837Y-149263573D01*
X330243087Y-149263573D01*
X330243087Y-147664323D01*
X330497087Y-147664323D01*
X330497087Y-149263573D01*
X332096337Y-149263573D01*
X332255087Y-149104823D01*
X332258159Y-148140573D01*
X372932015Y-148140573D01*
X372935087Y-149104823D01*
X373093837Y-149263573D01*
X374693087Y-149263573D01*
X374693087Y-147664323D01*
X374947087Y-147664323D01*
X374947087Y-149263573D01*
X376546337Y-149263573D01*
X376705087Y-149104823D01*
X376708159Y-148140573D01*
X376695899Y-148016091D01*
X376659589Y-147896393D01*
X376651133Y-147880573D01*
X417302015Y-147880573D01*
X417305087Y-148844823D01*
X417463837Y-149003573D01*
X419063087Y-149003573D01*
X419063087Y-147404323D01*
X419317087Y-147404323D01*
X419317087Y-149003573D01*
X420916337Y-149003573D01*
X421075087Y-148844823D01*
X421078159Y-147880573D01*
X421065899Y-147756091D01*
X421029589Y-147636393D01*
X420970624Y-147526079D01*
X420891272Y-147429388D01*
X420794581Y-147350036D01*
X420684267Y-147291071D01*
X420564569Y-147254761D01*
X420440087Y-147242501D01*
X419475837Y-147245573D01*
X419317087Y-147404323D01*
X419063087Y-147404323D01*
X418904337Y-147245573D01*
X417940087Y-147242501D01*
X417815605Y-147254761D01*
X417695907Y-147291071D01*
X417585593Y-147350036D01*
X417488902Y-147429388D01*
X417409550Y-147526079D01*
X417350585Y-147636393D01*
X417314275Y-147756091D01*
X417302015Y-147880573D01*
X376651133Y-147880573D01*
X376600624Y-147786079D01*
X376521272Y-147689388D01*
X376424581Y-147610036D01*
X376314267Y-147551071D01*
X376194569Y-147514761D01*
X376070087Y-147502501D01*
X375105837Y-147505573D01*
X374947087Y-147664323D01*
X374693087Y-147664323D01*
X374534337Y-147505573D01*
X373570087Y-147502501D01*
X373445605Y-147514761D01*
X373325907Y-147551071D01*
X373215593Y-147610036D01*
X373118902Y-147689388D01*
X373039550Y-147786079D01*
X372980585Y-147896393D01*
X372944275Y-148016091D01*
X372932015Y-148140573D01*
X332258159Y-148140573D01*
X332245899Y-148016091D01*
X332209589Y-147896393D01*
X332150624Y-147786079D01*
X332071272Y-147689388D01*
X331974581Y-147610036D01*
X331864267Y-147551071D01*
X331744569Y-147514761D01*
X331620087Y-147502501D01*
X330655837Y-147505573D01*
X330497087Y-147664323D01*
X330243087Y-147664323D01*
X330084337Y-147505573D01*
X329120087Y-147502501D01*
X328995605Y-147514761D01*
X328875907Y-147551071D01*
X328765593Y-147610036D01*
X328668902Y-147689388D01*
X328589550Y-147786079D01*
X328530585Y-147896393D01*
X328494275Y-148016091D01*
X328482015Y-148140573D01*
X287808159Y-148140573D01*
X287795899Y-148016091D01*
X287759589Y-147896393D01*
X287700624Y-147786079D01*
X287621272Y-147689388D01*
X287524581Y-147610036D01*
X287414267Y-147551071D01*
X287294569Y-147514761D01*
X287170087Y-147502501D01*
X286205837Y-147505573D01*
X286047087Y-147664323D01*
X285793087Y-147664323D01*
X285634337Y-147505573D01*
X284670087Y-147502501D01*
X284545605Y-147514761D01*
X284425907Y-147551071D01*
X284315593Y-147610036D01*
X284218902Y-147689388D01*
X284139550Y-147786079D01*
X284080585Y-147896393D01*
X284044275Y-148016091D01*
X284032015Y-148140573D01*
X243358159Y-148140573D01*
X243345899Y-148016091D01*
X243309589Y-147896393D01*
X243250624Y-147786079D01*
X243171272Y-147689388D01*
X243074581Y-147610036D01*
X242964267Y-147551071D01*
X242844569Y-147514761D01*
X242720087Y-147502501D01*
X241755837Y-147505573D01*
X241597087Y-147664323D01*
X241343087Y-147664323D01*
X241184337Y-147505573D01*
X240220087Y-147502501D01*
X240095605Y-147514761D01*
X239975907Y-147551071D01*
X239865593Y-147610036D01*
X239768902Y-147689388D01*
X239689550Y-147786079D01*
X239630585Y-147896393D01*
X239594275Y-148016091D01*
X239582015Y-148140573D01*
X198908159Y-148140573D01*
X198895899Y-148016091D01*
X198859589Y-147896393D01*
X198800624Y-147786079D01*
X198721272Y-147689388D01*
X198624581Y-147610036D01*
X198514267Y-147551071D01*
X198394569Y-147514761D01*
X198270087Y-147502501D01*
X197305837Y-147505573D01*
X197147087Y-147664323D01*
X196893087Y-147664323D01*
X196734337Y-147505573D01*
X195770087Y-147502501D01*
X195645605Y-147514761D01*
X195525907Y-147551071D01*
X195415593Y-147610036D01*
X195318902Y-147689388D01*
X195239550Y-147786079D01*
X195180585Y-147896393D01*
X195144275Y-148016091D01*
X195132015Y-148140573D01*
X154458159Y-148140573D01*
X154445899Y-148016091D01*
X154409589Y-147896393D01*
X154350624Y-147786079D01*
X154271272Y-147689388D01*
X154174581Y-147610036D01*
X154064267Y-147551071D01*
X153944569Y-147514761D01*
X153820087Y-147502501D01*
X152855837Y-147505573D01*
X152697087Y-147664323D01*
X152443087Y-147664323D01*
X152284337Y-147505573D01*
X151320087Y-147502501D01*
X151195605Y-147514761D01*
X151075907Y-147551071D01*
X150965593Y-147610036D01*
X150868902Y-147689388D01*
X150789550Y-147786079D01*
X150730585Y-147896393D01*
X150694275Y-148016091D01*
X150682015Y-148140573D01*
X146812000Y-148140573D01*
X146812000Y-145692325D01*
X146817425Y-145667947D01*
X146818555Y-145658099D01*
X146820442Y-145640573D01*
X150682015Y-145640573D01*
X150694275Y-145765055D01*
X150730585Y-145884753D01*
X150789550Y-145995067D01*
X150868902Y-146091758D01*
X150965593Y-146171110D01*
X151075907Y-146230075D01*
X151195605Y-146266385D01*
X151320087Y-146278645D01*
X152284337Y-146275573D01*
X152443087Y-146116823D01*
X152443087Y-144517573D01*
X152697087Y-144517573D01*
X152697087Y-146116823D01*
X152855837Y-146275573D01*
X153820087Y-146278645D01*
X153944569Y-146266385D01*
X154064267Y-146230075D01*
X154174581Y-146171110D01*
X154271272Y-146091758D01*
X154350624Y-145995067D01*
X154409589Y-145884753D01*
X154445899Y-145765055D01*
X154458159Y-145640573D01*
X195132015Y-145640573D01*
X195144275Y-145765055D01*
X195180585Y-145884753D01*
X195239550Y-145995067D01*
X195318902Y-146091758D01*
X195415593Y-146171110D01*
X195525907Y-146230075D01*
X195645605Y-146266385D01*
X195770087Y-146278645D01*
X196734337Y-146275573D01*
X196893087Y-146116823D01*
X196893087Y-144517573D01*
X197147087Y-144517573D01*
X197147087Y-146116823D01*
X197305837Y-146275573D01*
X198270087Y-146278645D01*
X198394569Y-146266385D01*
X198514267Y-146230075D01*
X198624581Y-146171110D01*
X198721272Y-146091758D01*
X198800624Y-145995067D01*
X198859589Y-145884753D01*
X198895899Y-145765055D01*
X198908159Y-145640573D01*
X239582015Y-145640573D01*
X239594275Y-145765055D01*
X239630585Y-145884753D01*
X239689550Y-145995067D01*
X239768902Y-146091758D01*
X239865593Y-146171110D01*
X239975907Y-146230075D01*
X240095605Y-146266385D01*
X240220087Y-146278645D01*
X241184337Y-146275573D01*
X241343087Y-146116823D01*
X241343087Y-144517573D01*
X241597087Y-144517573D01*
X241597087Y-146116823D01*
X241755837Y-146275573D01*
X242720087Y-146278645D01*
X242844569Y-146266385D01*
X242964267Y-146230075D01*
X243074581Y-146171110D01*
X243171272Y-146091758D01*
X243250624Y-145995067D01*
X243309589Y-145884753D01*
X243345899Y-145765055D01*
X243358159Y-145640573D01*
X284032015Y-145640573D01*
X284044275Y-145765055D01*
X284080585Y-145884753D01*
X284139550Y-145995067D01*
X284218902Y-146091758D01*
X284315593Y-146171110D01*
X284425907Y-146230075D01*
X284545605Y-146266385D01*
X284670087Y-146278645D01*
X285634337Y-146275573D01*
X285793087Y-146116823D01*
X285793087Y-144517573D01*
X286047087Y-144517573D01*
X286047087Y-146116823D01*
X286205837Y-146275573D01*
X287170087Y-146278645D01*
X287294569Y-146266385D01*
X287414267Y-146230075D01*
X287524581Y-146171110D01*
X287621272Y-146091758D01*
X287700624Y-145995067D01*
X287759589Y-145884753D01*
X287795899Y-145765055D01*
X287808159Y-145640573D01*
X328482015Y-145640573D01*
X328494275Y-145765055D01*
X328530585Y-145884753D01*
X328589550Y-145995067D01*
X328668902Y-146091758D01*
X328765593Y-146171110D01*
X328875907Y-146230075D01*
X328995605Y-146266385D01*
X329120087Y-146278645D01*
X330084337Y-146275573D01*
X330243087Y-146116823D01*
X330243087Y-144517573D01*
X330497087Y-144517573D01*
X330497087Y-146116823D01*
X330655837Y-146275573D01*
X331620087Y-146278645D01*
X331744569Y-146266385D01*
X331864267Y-146230075D01*
X331974581Y-146171110D01*
X332071272Y-146091758D01*
X332150624Y-145995067D01*
X332209589Y-145884753D01*
X332245899Y-145765055D01*
X332258159Y-145640573D01*
X372932015Y-145640573D01*
X372944275Y-145765055D01*
X372980585Y-145884753D01*
X373039550Y-145995067D01*
X373118902Y-146091758D01*
X373215593Y-146171110D01*
X373325907Y-146230075D01*
X373445605Y-146266385D01*
X373570087Y-146278645D01*
X374534337Y-146275573D01*
X374693087Y-146116823D01*
X374693087Y-144517573D01*
X374947087Y-144517573D01*
X374947087Y-146116823D01*
X375105837Y-146275573D01*
X376070087Y-146278645D01*
X376194569Y-146266385D01*
X376314267Y-146230075D01*
X376424581Y-146171110D01*
X376521272Y-146091758D01*
X376600624Y-145995067D01*
X376659589Y-145884753D01*
X376695899Y-145765055D01*
X376708159Y-145640573D01*
X376707331Y-145380573D01*
X417302015Y-145380573D01*
X417314275Y-145505055D01*
X417350585Y-145624753D01*
X417409550Y-145735067D01*
X417488902Y-145831758D01*
X417585593Y-145911110D01*
X417695907Y-145970075D01*
X417815605Y-146006385D01*
X417940087Y-146018645D01*
X418904337Y-146015573D01*
X419063087Y-145856823D01*
X419063087Y-144257573D01*
X419317087Y-144257573D01*
X419317087Y-145856823D01*
X419475837Y-146015573D01*
X420440087Y-146018645D01*
X420564569Y-146006385D01*
X420684267Y-145970075D01*
X420794581Y-145911110D01*
X420891272Y-145831758D01*
X420970624Y-145735067D01*
X421029589Y-145624753D01*
X421065899Y-145505055D01*
X421078159Y-145380573D01*
X421075087Y-144416323D01*
X420916337Y-144257573D01*
X419317087Y-144257573D01*
X419063087Y-144257573D01*
X417463837Y-144257573D01*
X417305087Y-144416323D01*
X417302015Y-145380573D01*
X376707331Y-145380573D01*
X376705087Y-144676323D01*
X376546337Y-144517573D01*
X374947087Y-144517573D01*
X374693087Y-144517573D01*
X373093837Y-144517573D01*
X372935087Y-144676323D01*
X372932015Y-145640573D01*
X332258159Y-145640573D01*
X332255087Y-144676323D01*
X332096337Y-144517573D01*
X330497087Y-144517573D01*
X330243087Y-144517573D01*
X328643837Y-144517573D01*
X328485087Y-144676323D01*
X328482015Y-145640573D01*
X287808159Y-145640573D01*
X287805087Y-144676323D01*
X287646337Y-144517573D01*
X286047087Y-144517573D01*
X285793087Y-144517573D01*
X284193837Y-144517573D01*
X284035087Y-144676323D01*
X284032015Y-145640573D01*
X243358159Y-145640573D01*
X243355087Y-144676323D01*
X243196337Y-144517573D01*
X241597087Y-144517573D01*
X241343087Y-144517573D01*
X239743837Y-144517573D01*
X239585087Y-144676323D01*
X239582015Y-145640573D01*
X198908159Y-145640573D01*
X198905087Y-144676323D01*
X198746337Y-144517573D01*
X197147087Y-144517573D01*
X196893087Y-144517573D01*
X195293837Y-144517573D01*
X195135087Y-144676323D01*
X195132015Y-145640573D01*
X154458159Y-145640573D01*
X154455087Y-144676323D01*
X154296337Y-144517573D01*
X152697087Y-144517573D01*
X152443087Y-144517573D01*
X150843837Y-144517573D01*
X150685087Y-144676323D01*
X150682015Y-145640573D01*
X146820442Y-145640573D01*
X146867715Y-145201545D01*
X146868768Y-145198060D01*
X146878927Y-145093742D01*
X146876796Y-143140573D01*
X150682015Y-143140573D01*
X150685087Y-144104823D01*
X150843837Y-144263573D01*
X152443087Y-144263573D01*
X152443087Y-142664323D01*
X152697087Y-142664323D01*
X152697087Y-144263573D01*
X154296337Y-144263573D01*
X154455087Y-144104823D01*
X154458159Y-143140573D01*
X195132015Y-143140573D01*
X195135087Y-144104823D01*
X195293837Y-144263573D01*
X196893087Y-144263573D01*
X196893087Y-142664323D01*
X197147087Y-142664323D01*
X197147087Y-144263573D01*
X198746337Y-144263573D01*
X198905087Y-144104823D01*
X198908159Y-143140573D01*
X239582015Y-143140573D01*
X239585087Y-144104823D01*
X239743837Y-144263573D01*
X241343087Y-144263573D01*
X241343087Y-142664323D01*
X241597087Y-142664323D01*
X241597087Y-144263573D01*
X243196337Y-144263573D01*
X243355087Y-144104823D01*
X243358159Y-143140573D01*
X284032015Y-143140573D01*
X284035087Y-144104823D01*
X284193837Y-144263573D01*
X285793087Y-144263573D01*
X285793087Y-142664323D01*
X286047087Y-142664323D01*
X286047087Y-144263573D01*
X287646337Y-144263573D01*
X287805087Y-144104823D01*
X287808159Y-143140573D01*
X328482015Y-143140573D01*
X328485087Y-144104823D01*
X328643837Y-144263573D01*
X330243087Y-144263573D01*
X330243087Y-142664323D01*
X330497087Y-142664323D01*
X330497087Y-144263573D01*
X332096337Y-144263573D01*
X332255087Y-144104823D01*
X332258159Y-143140573D01*
X372932015Y-143140573D01*
X372935087Y-144104823D01*
X373093837Y-144263573D01*
X374693087Y-144263573D01*
X374693087Y-142664323D01*
X374947087Y-142664323D01*
X374947087Y-144263573D01*
X376546337Y-144263573D01*
X376705087Y-144104823D01*
X376708159Y-143140573D01*
X376695899Y-143016091D01*
X376659589Y-142896393D01*
X376651133Y-142880573D01*
X417302015Y-142880573D01*
X417305087Y-143844823D01*
X417463837Y-144003573D01*
X419063087Y-144003573D01*
X419063087Y-142404323D01*
X419317087Y-142404323D01*
X419317087Y-144003573D01*
X420916337Y-144003573D01*
X421075087Y-143844823D01*
X421078159Y-142880573D01*
X421065899Y-142756091D01*
X421029589Y-142636393D01*
X420970624Y-142526079D01*
X420891272Y-142429388D01*
X420794581Y-142350036D01*
X420684267Y-142291071D01*
X420564569Y-142254761D01*
X420440087Y-142242501D01*
X419475837Y-142245573D01*
X419317087Y-142404323D01*
X419063087Y-142404323D01*
X418904337Y-142245573D01*
X417940087Y-142242501D01*
X417815605Y-142254761D01*
X417695907Y-142291071D01*
X417585593Y-142350036D01*
X417488902Y-142429388D01*
X417409550Y-142526079D01*
X417350585Y-142636393D01*
X417314275Y-142756091D01*
X417302015Y-142880573D01*
X376651133Y-142880573D01*
X376600624Y-142786079D01*
X376521272Y-142689388D01*
X376424581Y-142610036D01*
X376314267Y-142551071D01*
X376194569Y-142514761D01*
X376070087Y-142502501D01*
X375105837Y-142505573D01*
X374947087Y-142664323D01*
X374693087Y-142664323D01*
X374534337Y-142505573D01*
X373570087Y-142502501D01*
X373445605Y-142514761D01*
X373325907Y-142551071D01*
X373215593Y-142610036D01*
X373118902Y-142689388D01*
X373039550Y-142786079D01*
X372980585Y-142896393D01*
X372944275Y-143016091D01*
X372932015Y-143140573D01*
X332258159Y-143140573D01*
X332245899Y-143016091D01*
X332209589Y-142896393D01*
X332150624Y-142786079D01*
X332071272Y-142689388D01*
X331974581Y-142610036D01*
X331864267Y-142551071D01*
X331744569Y-142514761D01*
X331620087Y-142502501D01*
X330655837Y-142505573D01*
X330497087Y-142664323D01*
X330243087Y-142664323D01*
X330084337Y-142505573D01*
X329120087Y-142502501D01*
X328995605Y-142514761D01*
X328875907Y-142551071D01*
X328765593Y-142610036D01*
X328668902Y-142689388D01*
X328589550Y-142786079D01*
X328530585Y-142896393D01*
X328494275Y-143016091D01*
X328482015Y-143140573D01*
X287808159Y-143140573D01*
X287795899Y-143016091D01*
X287759589Y-142896393D01*
X287700624Y-142786079D01*
X287621272Y-142689388D01*
X287524581Y-142610036D01*
X287414267Y-142551071D01*
X287294569Y-142514761D01*
X287170087Y-142502501D01*
X286205837Y-142505573D01*
X286047087Y-142664323D01*
X285793087Y-142664323D01*
X285634337Y-142505573D01*
X284670087Y-142502501D01*
X284545605Y-142514761D01*
X284425907Y-142551071D01*
X284315593Y-142610036D01*
X284218902Y-142689388D01*
X284139550Y-142786079D01*
X284080585Y-142896393D01*
X284044275Y-143016091D01*
X284032015Y-143140573D01*
X243358159Y-143140573D01*
X243345899Y-143016091D01*
X243309589Y-142896393D01*
X243250624Y-142786079D01*
X243171272Y-142689388D01*
X243074581Y-142610036D01*
X242964267Y-142551071D01*
X242844569Y-142514761D01*
X242720087Y-142502501D01*
X241755837Y-142505573D01*
X241597087Y-142664323D01*
X241343087Y-142664323D01*
X241184337Y-142505573D01*
X240220087Y-142502501D01*
X240095605Y-142514761D01*
X239975907Y-142551071D01*
X239865593Y-142610036D01*
X239768902Y-142689388D01*
X239689550Y-142786079D01*
X239630585Y-142896393D01*
X239594275Y-143016091D01*
X239582015Y-143140573D01*
X198908159Y-143140573D01*
X198895899Y-143016091D01*
X198859589Y-142896393D01*
X198800624Y-142786079D01*
X198721272Y-142689388D01*
X198624581Y-142610036D01*
X198514267Y-142551071D01*
X198394569Y-142514761D01*
X198270087Y-142502501D01*
X197305837Y-142505573D01*
X197147087Y-142664323D01*
X196893087Y-142664323D01*
X196734337Y-142505573D01*
X195770087Y-142502501D01*
X195645605Y-142514761D01*
X195525907Y-142551071D01*
X195415593Y-142610036D01*
X195318902Y-142689388D01*
X195239550Y-142786079D01*
X195180585Y-142896393D01*
X195144275Y-143016091D01*
X195132015Y-143140573D01*
X154458159Y-143140573D01*
X154445899Y-143016091D01*
X154409589Y-142896393D01*
X154350624Y-142786079D01*
X154271272Y-142689388D01*
X154174581Y-142610036D01*
X154064267Y-142551071D01*
X153944569Y-142514761D01*
X153820087Y-142502501D01*
X152855837Y-142505573D01*
X152697087Y-142664323D01*
X152443087Y-142664323D01*
X152284337Y-142505573D01*
X151320087Y-142502501D01*
X151195605Y-142514761D01*
X151075907Y-142551071D01*
X150965593Y-142610036D01*
X150868902Y-142689388D01*
X150789550Y-142786079D01*
X150730585Y-142896393D01*
X150694275Y-143016091D01*
X150682015Y-143140573D01*
X146876796Y-143140573D01*
X146864409Y-131789941D01*
X253673366Y-131789941D01*
X253673366Y-132130059D01*
X253739720Y-132463640D01*
X253869877Y-132777868D01*
X254058836Y-133060665D01*
X254299335Y-133301164D01*
X254582132Y-133490123D01*
X254896360Y-133620280D01*
X255229941Y-133686634D01*
X255570059Y-133686634D01*
X255903640Y-133620280D01*
X256217868Y-133490123D01*
X256500665Y-133301164D01*
X256741164Y-133060665D01*
X256930123Y-132777868D01*
X257060280Y-132463640D01*
X257126634Y-132130059D01*
X257126634Y-131840308D01*
X354277087Y-131840308D01*
X354277087Y-132179692D01*
X354343298Y-132512555D01*
X354473175Y-132826105D01*
X354661726Y-133108293D01*
X354901707Y-133348274D01*
X355183895Y-133536825D01*
X355497445Y-133666702D01*
X355830308Y-133732913D01*
X356169692Y-133732913D01*
X356502555Y-133666702D01*
X356816105Y-133536825D01*
X357098293Y-133348274D01*
X357338274Y-133108293D01*
X357526825Y-132826105D01*
X357656702Y-132512555D01*
X357722913Y-132179692D01*
X357722913Y-131840308D01*
X357722840Y-131839941D01*
X396373366Y-131839941D01*
X396373366Y-132180059D01*
X396439720Y-132513640D01*
X396569877Y-132827868D01*
X396758836Y-133110665D01*
X396999335Y-133351164D01*
X397282132Y-133540123D01*
X397596360Y-133670280D01*
X397929941Y-133736634D01*
X398270059Y-133736634D01*
X398603640Y-133670280D01*
X398917868Y-133540123D01*
X399200665Y-133351164D01*
X399441164Y-133110665D01*
X399630123Y-132827868D01*
X399760280Y-132513640D01*
X399826634Y-132180059D01*
X399826634Y-131839941D01*
X399760280Y-131506360D01*
X399630123Y-131192132D01*
X399441164Y-130909335D01*
X399200665Y-130668836D01*
X398917868Y-130479877D01*
X398603640Y-130349720D01*
X398270059Y-130283366D01*
X397929941Y-130283366D01*
X397596360Y-130349720D01*
X397282132Y-130479877D01*
X396999335Y-130668836D01*
X396758836Y-130909335D01*
X396569877Y-131192132D01*
X396439720Y-131506360D01*
X396373366Y-131839941D01*
X357722840Y-131839941D01*
X357656702Y-131507445D01*
X357526825Y-131193895D01*
X357338274Y-130911707D01*
X357098293Y-130671726D01*
X356816105Y-130483175D01*
X356502555Y-130353298D01*
X356169692Y-130287087D01*
X355830308Y-130287087D01*
X355497445Y-130353298D01*
X355183895Y-130483175D01*
X354901707Y-130671726D01*
X354661726Y-130911707D01*
X354473175Y-131193895D01*
X354343298Y-131507445D01*
X354277087Y-131840308D01*
X257126634Y-131840308D01*
X257126634Y-131789941D01*
X257060280Y-131456360D01*
X256930123Y-131142132D01*
X256741164Y-130859335D01*
X256500665Y-130618836D01*
X256217868Y-130429877D01*
X255903640Y-130299720D01*
X255570059Y-130233366D01*
X255229941Y-130233366D01*
X254896360Y-130299720D01*
X254582132Y-130429877D01*
X254299335Y-130618836D01*
X254058836Y-130859335D01*
X253869877Y-131142132D01*
X253739720Y-131456360D01*
X253673366Y-131789941D01*
X146864409Y-131789941D01*
X146860775Y-128460000D01*
X445590001Y-128460000D01*
X445590000Y-133715123D01*
G37*
G04 #@! TD.AperFunction*
M02*
