G04 #@! TF.FileFunction,Soldermask,Top*
%FSLAX46Y46*%
G04 Gerber Fmt 4.6, Leading zero omitted, Abs format (unit mm)*
G04 Created by KiCad (PCBNEW (after 2015-mar-04 BZR unknown)-product) date Wed 15 Apr 2015 11:54:57 AM CDT*
%MOMM*%
G01*
G04 APERTURE LIST*
%ADD10C,0.150000*%
%ADD11C,0.381000*%
%ADD12C,4.572000*%
%ADD13C,2.506980*%
%ADD14R,0.858520X1.257300*%
%ADD15R,2.565400X2.032000*%
%ADD16R,19.558000X2.032000*%
G04 APERTURE END LIST*
D10*
D11*
X150190200Y-167589200D02*
X89166700Y-167589200D01*
X89166700Y-167589200D02*
X70205600Y-148628100D01*
X150190200Y-68630800D02*
X169176700Y-87617300D01*
X70205600Y-87617300D02*
X89192100Y-68630800D01*
X169176700Y-148602700D02*
X150190200Y-167589200D01*
X169176700Y-87617300D02*
X169176700Y-148602700D01*
X89192100Y-68630800D02*
X150190200Y-68630800D01*
X70205600Y-148628100D02*
X70205600Y-87617300D01*
X127102752Y-139179300D02*
G75*
G03X127102752Y-139179300I-8472052J0D01*
G01*
X169181780Y-148597620D02*
X169181780Y-148590000D01*
X169171620Y-87609680D02*
X169171620Y-87619840D01*
D12*
X86700360Y-103598980D03*
X95699580Y-103598980D03*
X101700000Y-118100000D03*
X137700000Y-118100000D03*
D13*
X119700040Y-118099840D03*
X124701300Y-118099840D03*
X114701320Y-118099840D03*
X84000000Y-95000000D03*
X88500000Y-95000000D03*
D14*
X119674640Y-122651520D03*
X118826280Y-122651520D03*
X118826280Y-125349000D03*
X119674640Y-125349000D03*
D15*
X99991500Y-125424320D03*
D16*
X93070000Y-129869320D03*
D15*
X78508500Y-144825680D03*
D16*
X85430000Y-140380680D03*
D15*
X131741500Y-147174320D03*
D16*
X124820000Y-151619320D03*
D15*
X108758500Y-165825680D03*
D16*
X115680000Y-161380680D03*
D15*
X159491500Y-124424320D03*
D16*
X152570000Y-128869320D03*
D15*
X138508500Y-143825680D03*
D16*
X145430000Y-139380680D03*
D15*
X162991500Y-90174320D03*
D16*
X156070000Y-94619320D03*
D15*
X140008500Y-108825680D03*
D16*
X146930000Y-104380680D03*
D15*
X128991500Y-71174320D03*
D16*
X122070000Y-75619320D03*
D15*
X106008500Y-89825680D03*
D16*
X112930000Y-85380680D03*
D15*
X128991500Y-90174320D03*
D16*
X122070000Y-94619320D03*
D15*
X106008500Y-108825680D03*
D16*
X112930000Y-104380680D03*
M02*
