G04 #@! TF.GenerationSoftware,KiCad,Pcbnew,(5.1.9)-1*
G04 #@! TF.CreationDate,2021-03-05T16:24:16-06:00*
G04 #@! TF.ProjectId,Y+,592b2e6b-6963-4616-945f-706362585858,3*
G04 #@! TF.SameCoordinates,Original*
G04 #@! TF.FileFunction,Copper,L2,Bot*
G04 #@! TF.FilePolarity,Positive*
%FSLAX46Y46*%
G04 Gerber Fmt 4.6, Leading zero omitted, Abs format (unit mm)*
G04 Created by KiCad (PCBNEW (5.1.9)-1) date 2021-03-05 16:24:16*
%MOMM*%
%LPD*%
G01*
G04 APERTURE LIST*
G04 #@! TA.AperFunction,ViaPad*
%ADD10C,0.800000*%
G04 #@! TD*
G04 #@! TA.AperFunction,Conductor*
%ADD11C,0.250000*%
G04 #@! TD*
G04 #@! TA.AperFunction,Conductor*
%ADD12C,0.700000*%
G04 #@! TD*
G04 #@! TA.AperFunction,Conductor*
%ADD13C,0.254000*%
G04 #@! TD*
G04 #@! TA.AperFunction,Conductor*
%ADD14C,0.100000*%
G04 #@! TD*
G04 APERTURE END LIST*
G04 #@! TA.AperFunction,SMDPad,CuDef*
G36*
G01*
X168060000Y-232075000D02*
X167160000Y-232075000D01*
G75*
G02*
X166960000Y-231875000I0J200000D01*
G01*
X166960000Y-231475000D01*
G75*
G02*
X167160000Y-231275000I200000J0D01*
G01*
X168060000Y-231275000D01*
G75*
G02*
X168260000Y-231475000I0J-200000D01*
G01*
X168260000Y-231875000D01*
G75*
G02*
X168060000Y-232075000I-200000J0D01*
G01*
G37*
G04 #@! TD.AperFunction*
G04 #@! TA.AperFunction,SMDPad,CuDef*
G36*
G01*
X168060000Y-230825000D02*
X167160000Y-230825000D01*
G75*
G02*
X166960000Y-230625000I0J200000D01*
G01*
X166960000Y-230225000D01*
G75*
G02*
X167160000Y-230025000I200000J0D01*
G01*
X168060000Y-230025000D01*
G75*
G02*
X168260000Y-230225000I0J-200000D01*
G01*
X168260000Y-230625000D01*
G75*
G02*
X168060000Y-230825000I-200000J0D01*
G01*
G37*
G04 #@! TD.AperFunction*
G04 #@! TA.AperFunction,SMDPad,CuDef*
G36*
G01*
X168060000Y-229575000D02*
X167160000Y-229575000D01*
G75*
G02*
X166960000Y-229375000I0J200000D01*
G01*
X166960000Y-228975000D01*
G75*
G02*
X167160000Y-228775000I200000J0D01*
G01*
X168060000Y-228775000D01*
G75*
G02*
X168260000Y-228975000I0J-200000D01*
G01*
X168260000Y-229375000D01*
G75*
G02*
X168060000Y-229575000I-200000J0D01*
G01*
G37*
G04 #@! TD.AperFunction*
G04 #@! TA.AperFunction,SMDPad,CuDef*
G36*
G01*
X168060000Y-228325000D02*
X167160000Y-228325000D01*
G75*
G02*
X166960000Y-228125000I0J200000D01*
G01*
X166960000Y-227725000D01*
G75*
G02*
X167160000Y-227525000I200000J0D01*
G01*
X168060000Y-227525000D01*
G75*
G02*
X168260000Y-227725000I0J-200000D01*
G01*
X168260000Y-228125000D01*
G75*
G02*
X168060000Y-228325000I-200000J0D01*
G01*
G37*
G04 #@! TD.AperFunction*
G04 #@! TA.AperFunction,SMDPad,CuDef*
G36*
G01*
X166110000Y-235275000D02*
X163610000Y-235275000D01*
G75*
G02*
X163360000Y-235025000I0J250000D01*
G01*
X163360000Y-233425000D01*
G75*
G02*
X163610000Y-233175000I250000J0D01*
G01*
X166110000Y-233175000D01*
G75*
G02*
X166360000Y-233425000I0J-250000D01*
G01*
X166360000Y-235025000D01*
G75*
G02*
X166110000Y-235275000I-250000J0D01*
G01*
G37*
G04 #@! TD.AperFunction*
G04 #@! TA.AperFunction,SMDPad,CuDef*
G36*
G01*
X166110000Y-226425000D02*
X163610000Y-226425000D01*
G75*
G02*
X163360000Y-226175000I0J250000D01*
G01*
X163360000Y-224575000D01*
G75*
G02*
X163610000Y-224325000I250000J0D01*
G01*
X166110000Y-224325000D01*
G75*
G02*
X166360000Y-224575000I0J-250000D01*
G01*
X166360000Y-226175000D01*
G75*
G02*
X166110000Y-226425000I-250000J0D01*
G01*
G37*
G04 #@! TD.AperFunction*
G04 #@! TA.AperFunction,SMDPad,CuDef*
G36*
G01*
X166110000Y-216475000D02*
X163610000Y-216475000D01*
G75*
G02*
X163360000Y-216225000I0J250000D01*
G01*
X163360000Y-214625000D01*
G75*
G02*
X163610000Y-214375000I250000J0D01*
G01*
X166110000Y-214375000D01*
G75*
G02*
X166360000Y-214625000I0J-250000D01*
G01*
X166360000Y-216225000D01*
G75*
G02*
X166110000Y-216475000I-250000J0D01*
G01*
G37*
G04 #@! TD.AperFunction*
G04 #@! TA.AperFunction,SMDPad,CuDef*
G36*
G01*
X166110000Y-222825000D02*
X163610000Y-222825000D01*
G75*
G02*
X163360000Y-222575000I0J250000D01*
G01*
X163360000Y-220975000D01*
G75*
G02*
X163610000Y-220725000I250000J0D01*
G01*
X166110000Y-220725000D01*
G75*
G02*
X166360000Y-220975000I0J-250000D01*
G01*
X166360000Y-222575000D01*
G75*
G02*
X166110000Y-222825000I-250000J0D01*
G01*
G37*
G04 #@! TD.AperFunction*
G04 #@! TA.AperFunction,SMDPad,CuDef*
G36*
G01*
X168060000Y-218375000D02*
X167160000Y-218375000D01*
G75*
G02*
X166960000Y-218175000I0J200000D01*
G01*
X166960000Y-217775000D01*
G75*
G02*
X167160000Y-217575000I200000J0D01*
G01*
X168060000Y-217575000D01*
G75*
G02*
X168260000Y-217775000I0J-200000D01*
G01*
X168260000Y-218175000D01*
G75*
G02*
X168060000Y-218375000I-200000J0D01*
G01*
G37*
G04 #@! TD.AperFunction*
G04 #@! TA.AperFunction,SMDPad,CuDef*
G36*
G01*
X168060000Y-219625000D02*
X167160000Y-219625000D01*
G75*
G02*
X166960000Y-219425000I0J200000D01*
G01*
X166960000Y-219025000D01*
G75*
G02*
X167160000Y-218825000I200000J0D01*
G01*
X168060000Y-218825000D01*
G75*
G02*
X168260000Y-219025000I0J-200000D01*
G01*
X168260000Y-219425000D01*
G75*
G02*
X168060000Y-219625000I-200000J0D01*
G01*
G37*
G04 #@! TD.AperFunction*
D10*
X301625000Y-226695000D03*
X266700000Y-229235000D03*
X234315000Y-224155000D03*
X161290000Y-222250000D03*
X170815000Y-227965000D03*
X172720000Y-218440000D03*
X172720000Y-220980000D03*
D11*
X167650000Y-227965000D02*
X167610000Y-227925000D01*
D12*
X170815000Y-227965000D02*
X167650000Y-227965000D01*
X167610000Y-229175000D02*
X170755000Y-229175000D01*
X170815000Y-229115000D02*
X170815000Y-227965000D01*
D11*
X170755000Y-229175000D02*
X170815000Y-229115000D01*
X172720000Y-218440000D02*
X168910000Y-218440000D01*
X168445000Y-217975000D02*
X167610000Y-217975000D01*
X168910000Y-218440000D02*
X168445000Y-217975000D01*
X170965000Y-219225000D02*
X167610000Y-219225000D01*
X172720000Y-220980000D02*
X170965000Y-219225000D01*
D13*
X135590001Y-191267571D02*
X135586807Y-191300000D01*
X135599550Y-191429383D01*
X135637290Y-191553793D01*
X135698575Y-191668450D01*
X135781052Y-191768948D01*
X135881550Y-191851425D01*
X135996207Y-191912710D01*
X136120617Y-191950450D01*
X136217581Y-191960000D01*
X136250000Y-191963193D01*
X136282419Y-191960000D01*
X147217581Y-191960000D01*
X147250000Y-191963193D01*
X147282419Y-191960000D01*
X147379383Y-191950450D01*
X147503793Y-191912710D01*
X147618450Y-191851425D01*
X147718948Y-191768948D01*
X147801425Y-191668450D01*
X147862710Y-191553793D01*
X147900450Y-191429383D01*
X147913193Y-191300000D01*
X147910000Y-191267581D01*
X147910000Y-189409835D01*
X194036886Y-189409835D01*
X194036886Y-189690165D01*
X194091575Y-189965107D01*
X194198853Y-190224097D01*
X194354595Y-190457182D01*
X194552818Y-190655405D01*
X194785903Y-190811147D01*
X195044893Y-190918425D01*
X195319835Y-190973114D01*
X195600165Y-190973114D01*
X195875107Y-190918425D01*
X196134097Y-190811147D01*
X196367182Y-190655405D01*
X196565405Y-190457182D01*
X196721147Y-190224097D01*
X196828425Y-189965107D01*
X196883114Y-189690165D01*
X196883114Y-189409835D01*
X336886886Y-189409835D01*
X336886886Y-189690165D01*
X336941575Y-189965107D01*
X337048853Y-190224097D01*
X337204595Y-190457182D01*
X337402818Y-190655405D01*
X337635903Y-190811147D01*
X337894893Y-190918425D01*
X338169835Y-190973114D01*
X338450165Y-190973114D01*
X338725107Y-190918425D01*
X338984097Y-190811147D01*
X339217182Y-190655405D01*
X339415405Y-190457182D01*
X339571147Y-190224097D01*
X339678425Y-189965107D01*
X339733114Y-189690165D01*
X339733114Y-189409835D01*
X339728240Y-189385331D01*
X448938090Y-189385331D01*
X448938090Y-189714669D01*
X449002340Y-190037678D01*
X449128372Y-190341947D01*
X449311342Y-190615781D01*
X449544219Y-190848658D01*
X449818053Y-191031628D01*
X450122322Y-191157660D01*
X450445331Y-191221910D01*
X450774669Y-191221910D01*
X451097678Y-191157660D01*
X451401947Y-191031628D01*
X451675781Y-190848658D01*
X451908658Y-190615781D01*
X452091628Y-190341947D01*
X452217660Y-190037678D01*
X452281910Y-189714669D01*
X452281910Y-189385331D01*
X452217660Y-189062322D01*
X452091628Y-188758053D01*
X451908658Y-188484219D01*
X451675781Y-188251342D01*
X451401947Y-188068372D01*
X451097678Y-187942340D01*
X450774669Y-187878090D01*
X450445331Y-187878090D01*
X450122322Y-187942340D01*
X449818053Y-188068372D01*
X449544219Y-188251342D01*
X449311342Y-188484219D01*
X449128372Y-188758053D01*
X449002340Y-189062322D01*
X448938090Y-189385331D01*
X339728240Y-189385331D01*
X339678425Y-189134893D01*
X339571147Y-188875903D01*
X339415405Y-188642818D01*
X339217182Y-188444595D01*
X338984097Y-188288853D01*
X338725107Y-188181575D01*
X338450165Y-188126886D01*
X338169835Y-188126886D01*
X337894893Y-188181575D01*
X337635903Y-188288853D01*
X337402818Y-188444595D01*
X337204595Y-188642818D01*
X337048853Y-188875903D01*
X336941575Y-189134893D01*
X336886886Y-189409835D01*
X196883114Y-189409835D01*
X196828425Y-189134893D01*
X196721147Y-188875903D01*
X196565405Y-188642818D01*
X196367182Y-188444595D01*
X196134097Y-188288853D01*
X195875107Y-188181575D01*
X195600165Y-188126886D01*
X195319835Y-188126886D01*
X195044893Y-188181575D01*
X194785903Y-188288853D01*
X194552818Y-188444595D01*
X194354595Y-188642818D01*
X194198853Y-188875903D01*
X194091575Y-189134893D01*
X194036886Y-189409835D01*
X147910000Y-189409835D01*
X147910000Y-186182000D01*
X453100001Y-186182000D01*
X453100000Y-267208000D01*
X127127000Y-267208000D01*
X127127000Y-263885331D01*
X127788090Y-263885331D01*
X127788090Y-264214669D01*
X127852340Y-264537678D01*
X127978372Y-264841947D01*
X128161342Y-265115781D01*
X128394219Y-265348658D01*
X128668053Y-265531628D01*
X128972322Y-265657660D01*
X129295331Y-265721910D01*
X129624669Y-265721910D01*
X129947678Y-265657660D01*
X130251947Y-265531628D01*
X130525781Y-265348658D01*
X130758658Y-265115781D01*
X130941628Y-264841947D01*
X131067660Y-264537678D01*
X131131910Y-264214669D01*
X131131910Y-263909835D01*
X194036886Y-263909835D01*
X194036886Y-264190165D01*
X194091575Y-264465107D01*
X194198853Y-264724097D01*
X194354595Y-264957182D01*
X194552818Y-265155405D01*
X194785903Y-265311147D01*
X195044893Y-265418425D01*
X195319835Y-265473114D01*
X195600165Y-265473114D01*
X195875107Y-265418425D01*
X196134097Y-265311147D01*
X196367182Y-265155405D01*
X196565405Y-264957182D01*
X196721147Y-264724097D01*
X196828425Y-264465107D01*
X196883114Y-264190165D01*
X196883114Y-263909835D01*
X336886886Y-263909835D01*
X336886886Y-264190165D01*
X336941575Y-264465107D01*
X337048853Y-264724097D01*
X337204595Y-264957182D01*
X337402818Y-265155405D01*
X337635903Y-265311147D01*
X337894893Y-265418425D01*
X338169835Y-265473114D01*
X338450165Y-265473114D01*
X338725107Y-265418425D01*
X338984097Y-265311147D01*
X339217182Y-265155405D01*
X339415405Y-264957182D01*
X339571147Y-264724097D01*
X339678425Y-264465107D01*
X339733114Y-264190165D01*
X339733114Y-263909835D01*
X339728240Y-263885331D01*
X448938090Y-263885331D01*
X448938090Y-264214669D01*
X449002340Y-264537678D01*
X449128372Y-264841947D01*
X449311342Y-265115781D01*
X449544219Y-265348658D01*
X449818053Y-265531628D01*
X450122322Y-265657660D01*
X450445331Y-265721910D01*
X450774669Y-265721910D01*
X451097678Y-265657660D01*
X451401947Y-265531628D01*
X451675781Y-265348658D01*
X451908658Y-265115781D01*
X452091628Y-264841947D01*
X452217660Y-264537678D01*
X452281910Y-264214669D01*
X452281910Y-263885331D01*
X452217660Y-263562322D01*
X452091628Y-263258053D01*
X451908658Y-262984219D01*
X451675781Y-262751342D01*
X451401947Y-262568372D01*
X451097678Y-262442340D01*
X450774669Y-262378090D01*
X450445331Y-262378090D01*
X450122322Y-262442340D01*
X449818053Y-262568372D01*
X449544219Y-262751342D01*
X449311342Y-262984219D01*
X449128372Y-263258053D01*
X449002340Y-263562322D01*
X448938090Y-263885331D01*
X339728240Y-263885331D01*
X339678425Y-263634893D01*
X339571147Y-263375903D01*
X339415405Y-263142818D01*
X339217182Y-262944595D01*
X338984097Y-262788853D01*
X338725107Y-262681575D01*
X338450165Y-262626886D01*
X338169835Y-262626886D01*
X337894893Y-262681575D01*
X337635903Y-262788853D01*
X337402818Y-262944595D01*
X337204595Y-263142818D01*
X337048853Y-263375903D01*
X336941575Y-263634893D01*
X336886886Y-263909835D01*
X196883114Y-263909835D01*
X196828425Y-263634893D01*
X196721147Y-263375903D01*
X196565405Y-263142818D01*
X196367182Y-262944595D01*
X196134097Y-262788853D01*
X195875107Y-262681575D01*
X195600165Y-262626886D01*
X195319835Y-262626886D01*
X195044893Y-262681575D01*
X194785903Y-262788853D01*
X194552818Y-262944595D01*
X194354595Y-263142818D01*
X194198853Y-263375903D01*
X194091575Y-263634893D01*
X194036886Y-263909835D01*
X131131910Y-263909835D01*
X131131910Y-263885331D01*
X131067660Y-263562322D01*
X130941628Y-263258053D01*
X130758658Y-262984219D01*
X130525781Y-262751342D01*
X130251947Y-262568372D01*
X129947678Y-262442340D01*
X129624669Y-262378090D01*
X129295331Y-262378090D01*
X128972322Y-262442340D01*
X128668053Y-262568372D01*
X128394219Y-262751342D01*
X128161342Y-262984219D01*
X127978372Y-263258053D01*
X127852340Y-263562322D01*
X127788090Y-263885331D01*
X127127000Y-263885331D01*
X127127000Y-237447135D01*
X268999199Y-237447135D01*
X268999199Y-238752865D01*
X269169631Y-240047426D01*
X269507579Y-241308665D01*
X270007260Y-242515003D01*
X270660126Y-243645799D01*
X271455004Y-244681705D01*
X272378295Y-245604996D01*
X273414201Y-246399874D01*
X274544997Y-247052740D01*
X275751335Y-247552421D01*
X277012574Y-247890369D01*
X278307135Y-248060801D01*
X279612865Y-248060801D01*
X280907426Y-247890369D01*
X282168665Y-247552421D01*
X283375003Y-247052740D01*
X284505799Y-246399874D01*
X285541705Y-245604996D01*
X286464996Y-244681705D01*
X287259874Y-243645799D01*
X287912740Y-242515003D01*
X288412421Y-241308665D01*
X288750369Y-240047426D01*
X288920801Y-238752865D01*
X288920801Y-237447135D01*
X288750369Y-236152574D01*
X288412421Y-234891335D01*
X287912740Y-233684997D01*
X287259874Y-232554201D01*
X286464996Y-231518295D01*
X285541705Y-230595004D01*
X284505799Y-229800126D01*
X283375003Y-229147260D01*
X282168665Y-228647579D01*
X280907426Y-228309631D01*
X279612865Y-228139199D01*
X278307135Y-228139199D01*
X277012574Y-228309631D01*
X275751335Y-228647579D01*
X274544997Y-229147260D01*
X273414201Y-229800126D01*
X272378295Y-230595004D01*
X271455004Y-231518295D01*
X270660126Y-232554201D01*
X270007260Y-233684997D01*
X269507579Y-234891335D01*
X269169631Y-236152574D01*
X268999199Y-237447135D01*
X127127000Y-237447135D01*
X127127000Y-233425000D01*
X162721928Y-233425000D01*
X162721928Y-235025000D01*
X162738992Y-235198254D01*
X162789528Y-235364850D01*
X162871595Y-235518386D01*
X162982038Y-235652962D01*
X163116614Y-235763405D01*
X163270150Y-235845472D01*
X163436746Y-235896008D01*
X163610000Y-235913072D01*
X166110000Y-235913072D01*
X166283254Y-235896008D01*
X166449850Y-235845472D01*
X166603386Y-235763405D01*
X166737962Y-235652962D01*
X166848405Y-235518386D01*
X166930472Y-235364850D01*
X166981008Y-235198254D01*
X166998072Y-235025000D01*
X166998072Y-233425000D01*
X166981008Y-233251746D01*
X166930472Y-233085150D01*
X166848405Y-232931614D01*
X166737962Y-232797038D01*
X166603386Y-232686595D01*
X166449850Y-232604528D01*
X166283254Y-232553992D01*
X166110000Y-232536928D01*
X163610000Y-232536928D01*
X163436746Y-232553992D01*
X163270150Y-232604528D01*
X163116614Y-232686595D01*
X162982038Y-232797038D01*
X162871595Y-232931614D01*
X162789528Y-233085150D01*
X162738992Y-233251746D01*
X162721928Y-233425000D01*
X127127000Y-233425000D01*
X127127000Y-232075000D01*
X166321928Y-232075000D01*
X166334188Y-232199482D01*
X166370498Y-232319180D01*
X166429463Y-232429494D01*
X166508815Y-232526185D01*
X166605506Y-232605537D01*
X166715820Y-232664502D01*
X166835518Y-232700812D01*
X166960000Y-232713072D01*
X167324250Y-232710000D01*
X167483000Y-232551250D01*
X167483000Y-231802000D01*
X167737000Y-231802000D01*
X167737000Y-232551250D01*
X167895750Y-232710000D01*
X168260000Y-232713072D01*
X168384482Y-232700812D01*
X168504180Y-232664502D01*
X168614494Y-232605537D01*
X168711185Y-232526185D01*
X168790537Y-232429494D01*
X168849502Y-232319180D01*
X168885812Y-232199482D01*
X168898072Y-232075000D01*
X168895000Y-231960750D01*
X168736250Y-231802000D01*
X167737000Y-231802000D01*
X167483000Y-231802000D01*
X166483750Y-231802000D01*
X166325000Y-231960750D01*
X166321928Y-232075000D01*
X127127000Y-232075000D01*
X127127000Y-230825000D01*
X166321928Y-230825000D01*
X166334188Y-230949482D01*
X166364680Y-231050000D01*
X166334188Y-231150518D01*
X166321928Y-231275000D01*
X166325000Y-231389250D01*
X166483750Y-231548000D01*
X167483000Y-231548000D01*
X167483000Y-230552000D01*
X167737000Y-230552000D01*
X167737000Y-231548000D01*
X168736250Y-231548000D01*
X168895000Y-231389250D01*
X168898072Y-231275000D01*
X168885812Y-231150518D01*
X168855320Y-231050000D01*
X168885812Y-230949482D01*
X168898072Y-230825000D01*
X168895000Y-230710750D01*
X168736250Y-230552000D01*
X167737000Y-230552000D01*
X167483000Y-230552000D01*
X166483750Y-230552000D01*
X166325000Y-230710750D01*
X166321928Y-230825000D01*
X127127000Y-230825000D01*
X127127000Y-227725000D01*
X166321928Y-227725000D01*
X166321928Y-228125000D01*
X166338031Y-228288500D01*
X166385722Y-228445716D01*
X166441463Y-228550000D01*
X166385722Y-228654284D01*
X166338031Y-228811500D01*
X166321928Y-228975000D01*
X166321928Y-229375000D01*
X166338031Y-229538500D01*
X166385722Y-229695716D01*
X166400855Y-229724027D01*
X166370498Y-229780820D01*
X166334188Y-229900518D01*
X166321928Y-230025000D01*
X166325000Y-230139250D01*
X166483750Y-230298000D01*
X167483000Y-230298000D01*
X167483000Y-230278000D01*
X167737000Y-230278000D01*
X167737000Y-230298000D01*
X168736250Y-230298000D01*
X168874250Y-230160000D01*
X170803380Y-230160000D01*
X170948094Y-230145747D01*
X171133767Y-230089424D01*
X171304884Y-229997960D01*
X171454870Y-229874870D01*
X171481915Y-229841915D01*
X171514870Y-229814870D01*
X171637960Y-229664884D01*
X171729424Y-229493767D01*
X171785747Y-229308094D01*
X171800000Y-229163380D01*
X171800000Y-228291586D01*
X171810226Y-228266898D01*
X171850000Y-228066939D01*
X171850000Y-227863061D01*
X171810226Y-227663102D01*
X171732205Y-227474744D01*
X171618937Y-227305226D01*
X171474774Y-227161063D01*
X171305256Y-227047795D01*
X171116898Y-226969774D01*
X170916939Y-226930000D01*
X170713061Y-226930000D01*
X170513102Y-226969774D01*
X170488414Y-226980000D01*
X168435491Y-226980000D01*
X168380716Y-226950722D01*
X168223500Y-226903031D01*
X168060000Y-226886928D01*
X167160000Y-226886928D01*
X166996500Y-226903031D01*
X166839284Y-226950722D01*
X166694392Y-227028169D01*
X166567394Y-227132394D01*
X166463169Y-227259392D01*
X166385722Y-227404284D01*
X166338031Y-227561500D01*
X166321928Y-227725000D01*
X127127000Y-227725000D01*
X127127000Y-224575000D01*
X162721928Y-224575000D01*
X162721928Y-226175000D01*
X162738992Y-226348254D01*
X162789528Y-226514850D01*
X162871595Y-226668386D01*
X162982038Y-226802962D01*
X163116614Y-226913405D01*
X163270150Y-226995472D01*
X163436746Y-227046008D01*
X163610000Y-227063072D01*
X166110000Y-227063072D01*
X166283254Y-227046008D01*
X166449850Y-226995472D01*
X166603386Y-226913405D01*
X166737962Y-226802962D01*
X166848405Y-226668386D01*
X166930472Y-226514850D01*
X166981008Y-226348254D01*
X166998072Y-226175000D01*
X166998072Y-224575000D01*
X166981008Y-224401746D01*
X166930472Y-224235150D01*
X166848405Y-224081614D01*
X166737962Y-223947038D01*
X166603386Y-223836595D01*
X166449850Y-223754528D01*
X166283254Y-223703992D01*
X166110000Y-223686928D01*
X163610000Y-223686928D01*
X163436746Y-223703992D01*
X163270150Y-223754528D01*
X163116614Y-223836595D01*
X162982038Y-223947038D01*
X162871595Y-224081614D01*
X162789528Y-224235150D01*
X162738992Y-224401746D01*
X162721928Y-224575000D01*
X127127000Y-224575000D01*
X127127000Y-215148095D01*
X137699495Y-215148095D01*
X137699495Y-216251905D01*
X137881176Y-217340661D01*
X138239583Y-218384664D01*
X138764938Y-219355436D01*
X139442913Y-220226498D01*
X140255013Y-220974088D01*
X141179086Y-221577815D01*
X142189926Y-222021211D01*
X143259960Y-222292180D01*
X144360000Y-222383332D01*
X145460040Y-222292180D01*
X146530074Y-222021211D01*
X147540914Y-221577815D01*
X148463591Y-220975000D01*
X162721928Y-220975000D01*
X162721928Y-222575000D01*
X162738992Y-222748254D01*
X162789528Y-222914850D01*
X162871595Y-223068386D01*
X162982038Y-223202962D01*
X163116614Y-223313405D01*
X163270150Y-223395472D01*
X163436746Y-223446008D01*
X163610000Y-223463072D01*
X166110000Y-223463072D01*
X166283254Y-223446008D01*
X166449850Y-223395472D01*
X166603386Y-223313405D01*
X166737962Y-223202962D01*
X166848405Y-223068386D01*
X166930472Y-222914850D01*
X166981008Y-222748254D01*
X166998072Y-222575000D01*
X166998072Y-220975000D01*
X166981008Y-220801746D01*
X166930472Y-220635150D01*
X166848405Y-220481614D01*
X166737962Y-220347038D01*
X166603386Y-220236595D01*
X166449850Y-220154528D01*
X166283254Y-220103992D01*
X166110000Y-220086928D01*
X163610000Y-220086928D01*
X163436746Y-220103992D01*
X163270150Y-220154528D01*
X163116614Y-220236595D01*
X162982038Y-220347038D01*
X162871595Y-220481614D01*
X162789528Y-220635150D01*
X162738992Y-220801746D01*
X162721928Y-220975000D01*
X148463591Y-220975000D01*
X148464987Y-220974088D01*
X149277087Y-220226498D01*
X149955062Y-219355436D01*
X150480417Y-218384664D01*
X150689715Y-217775000D01*
X166321928Y-217775000D01*
X166321928Y-218175000D01*
X166338031Y-218338500D01*
X166385722Y-218495716D01*
X166441463Y-218600000D01*
X166385722Y-218704284D01*
X166338031Y-218861500D01*
X166321928Y-219025000D01*
X166321928Y-219425000D01*
X166338031Y-219588500D01*
X166385722Y-219745716D01*
X166463169Y-219890608D01*
X166567394Y-220017606D01*
X166694392Y-220121831D01*
X166839284Y-220199278D01*
X166996500Y-220246969D01*
X167160000Y-220263072D01*
X168060000Y-220263072D01*
X168223500Y-220246969D01*
X168380716Y-220199278D01*
X168525608Y-220121831D01*
X168652606Y-220017606D01*
X168679365Y-219985000D01*
X170650199Y-219985000D01*
X171685000Y-221019802D01*
X171685000Y-221081939D01*
X171724774Y-221281898D01*
X171802795Y-221470256D01*
X171916063Y-221639774D01*
X172060226Y-221783937D01*
X172229744Y-221897205D01*
X172418102Y-221975226D01*
X172618061Y-222015000D01*
X172821939Y-222015000D01*
X173021898Y-221975226D01*
X173210256Y-221897205D01*
X173379774Y-221783937D01*
X173523937Y-221639774D01*
X173637205Y-221470256D01*
X173715226Y-221281898D01*
X173755000Y-221081939D01*
X173755000Y-220878061D01*
X173715226Y-220678102D01*
X173637205Y-220489744D01*
X173523937Y-220320226D01*
X173379774Y-220176063D01*
X173210256Y-220062795D01*
X173021898Y-219984774D01*
X172821939Y-219945000D01*
X172759802Y-219945000D01*
X172014801Y-219200000D01*
X172016289Y-219200000D01*
X172060226Y-219243937D01*
X172229744Y-219357205D01*
X172418102Y-219435226D01*
X172618061Y-219475000D01*
X172821939Y-219475000D01*
X173021898Y-219435226D01*
X173210256Y-219357205D01*
X173379774Y-219243937D01*
X173523937Y-219099774D01*
X173637205Y-218930256D01*
X173715226Y-218741898D01*
X173755000Y-218541939D01*
X173755000Y-218338061D01*
X173715226Y-218138102D01*
X173637205Y-217949744D01*
X173523937Y-217780226D01*
X173379774Y-217636063D01*
X173210256Y-217522795D01*
X173021898Y-217444774D01*
X172821939Y-217405000D01*
X172618061Y-217405000D01*
X172418102Y-217444774D01*
X172229744Y-217522795D01*
X172060226Y-217636063D01*
X172016289Y-217680000D01*
X169224801Y-217680000D01*
X169008804Y-217464003D01*
X168985001Y-217434999D01*
X168869276Y-217340026D01*
X168737247Y-217269454D01*
X168719682Y-217264126D01*
X168652606Y-217182394D01*
X168525608Y-217078169D01*
X168380716Y-217000722D01*
X168223500Y-216953031D01*
X168060000Y-216936928D01*
X167160000Y-216936928D01*
X166996500Y-216953031D01*
X166839284Y-217000722D01*
X166694392Y-217078169D01*
X166567394Y-217182394D01*
X166463169Y-217309392D01*
X166385722Y-217454284D01*
X166338031Y-217611500D01*
X166321928Y-217775000D01*
X150689715Y-217775000D01*
X150838824Y-217340661D01*
X151020505Y-216251905D01*
X151020505Y-215148095D01*
X150933216Y-214625000D01*
X162721928Y-214625000D01*
X162721928Y-216225000D01*
X162738992Y-216398254D01*
X162789528Y-216564850D01*
X162871595Y-216718386D01*
X162982038Y-216852962D01*
X163116614Y-216963405D01*
X163270150Y-217045472D01*
X163436746Y-217096008D01*
X163610000Y-217113072D01*
X166110000Y-217113072D01*
X166283254Y-217096008D01*
X166449850Y-217045472D01*
X166603386Y-216963405D01*
X166737962Y-216852962D01*
X166848405Y-216718386D01*
X166930472Y-216564850D01*
X166981008Y-216398254D01*
X166998072Y-216225000D01*
X166998072Y-214625000D01*
X166981008Y-214451746D01*
X166930472Y-214285150D01*
X166848405Y-214131614D01*
X166737962Y-213997038D01*
X166603386Y-213886595D01*
X166449850Y-213804528D01*
X166283254Y-213753992D01*
X166110000Y-213736928D01*
X163610000Y-213736928D01*
X163436746Y-213753992D01*
X163270150Y-213804528D01*
X163116614Y-213886595D01*
X162982038Y-213997038D01*
X162871595Y-214131614D01*
X162789528Y-214285150D01*
X162738992Y-214451746D01*
X162721928Y-214625000D01*
X150933216Y-214625000D01*
X150838824Y-214059339D01*
X150480417Y-213015336D01*
X149955062Y-212044564D01*
X149277087Y-211173502D01*
X148464987Y-210425912D01*
X147540914Y-209822185D01*
X146530074Y-209378789D01*
X145460040Y-209107820D01*
X144360000Y-209016668D01*
X143259960Y-209107820D01*
X142189926Y-209378789D01*
X141179086Y-209822185D01*
X140255013Y-210425912D01*
X139442913Y-211173502D01*
X138764938Y-212044564D01*
X138239583Y-213015336D01*
X137881176Y-214059339D01*
X137699495Y-215148095D01*
X127127000Y-215148095D01*
X127127000Y-197667582D01*
X346100000Y-197667582D01*
X346100001Y-255932419D01*
X346102367Y-255956446D01*
X346154339Y-256664145D01*
X346156856Y-256679518D01*
X346157346Y-256695097D01*
X346170802Y-256769881D01*
X346374171Y-257616974D01*
X346380792Y-257636649D01*
X346385111Y-257656967D01*
X346411598Y-257728186D01*
X346761760Y-258525879D01*
X346771764Y-258544077D01*
X346779610Y-258563302D01*
X346818289Y-258628705D01*
X347304177Y-259351782D01*
X347317242Y-259367916D01*
X347328371Y-259385452D01*
X347378021Y-259442972D01*
X347984275Y-260068578D01*
X347999994Y-260082146D01*
X348014050Y-260097432D01*
X348073102Y-260145251D01*
X348780560Y-260653611D01*
X348798430Y-260664179D01*
X348814973Y-260676736D01*
X348881560Y-260713342D01*
X349667859Y-261088388D01*
X349687321Y-261095626D01*
X349705825Y-261105054D01*
X349777841Y-261129290D01*
X350618129Y-261359166D01*
X350638566Y-261362843D01*
X350658445Y-261368845D01*
X350733614Y-261379945D01*
X351598360Y-261457122D01*
X351627581Y-261460000D01*
X431892419Y-261460000D01*
X431916486Y-261457630D01*
X432624145Y-261405661D01*
X432639518Y-261403144D01*
X432655097Y-261402654D01*
X432729881Y-261389198D01*
X433576974Y-261185829D01*
X433596649Y-261179208D01*
X433616967Y-261174889D01*
X433688186Y-261148402D01*
X434485879Y-260798240D01*
X434504077Y-260788236D01*
X434523302Y-260780390D01*
X434588705Y-260741711D01*
X435311782Y-260255823D01*
X435327916Y-260242758D01*
X435345452Y-260231629D01*
X435402972Y-260181979D01*
X436028578Y-259575725D01*
X436042146Y-259560006D01*
X436057432Y-259545950D01*
X436105251Y-259486898D01*
X436613611Y-258779440D01*
X436624179Y-258761570D01*
X436636736Y-258745027D01*
X436673342Y-258678440D01*
X437048388Y-257892141D01*
X437055626Y-257872679D01*
X437065054Y-257854175D01*
X437089290Y-257782159D01*
X437319166Y-256941871D01*
X437322843Y-256921434D01*
X437328845Y-256901555D01*
X437339945Y-256826386D01*
X437417122Y-255961640D01*
X437420000Y-255932419D01*
X437420000Y-197667581D01*
X437417629Y-197643511D01*
X437365662Y-196935855D01*
X437363143Y-196920475D01*
X437362654Y-196904903D01*
X437349198Y-196830119D01*
X437145829Y-195983025D01*
X437139207Y-195963349D01*
X437134889Y-195943033D01*
X437108403Y-195871814D01*
X436758240Y-195074122D01*
X436748237Y-195055926D01*
X436740390Y-195036698D01*
X436701711Y-194971295D01*
X436215823Y-194248218D01*
X436202757Y-194232083D01*
X436191629Y-194214548D01*
X436141991Y-194157043D01*
X436141978Y-194157027D01*
X436141972Y-194157022D01*
X435535725Y-193531422D01*
X435520006Y-193517854D01*
X435505950Y-193502568D01*
X435446898Y-193454749D01*
X434739440Y-192946389D01*
X434721566Y-192935818D01*
X434705026Y-192923264D01*
X434638440Y-192886658D01*
X433852140Y-192511612D01*
X433832681Y-192504375D01*
X433814175Y-192494946D01*
X433742159Y-192470710D01*
X432901871Y-192240834D01*
X432881436Y-192237157D01*
X432861556Y-192231155D01*
X432786386Y-192220055D01*
X431921640Y-192142878D01*
X431892419Y-192140000D01*
X351627581Y-192140000D01*
X351603511Y-192142371D01*
X350895855Y-192194338D01*
X350880475Y-192196857D01*
X350864903Y-192197346D01*
X350790119Y-192210802D01*
X349943025Y-192414171D01*
X349923349Y-192420793D01*
X349903033Y-192425111D01*
X349831814Y-192451597D01*
X349034122Y-192801760D01*
X349015926Y-192811763D01*
X348996698Y-192819610D01*
X348931295Y-192858289D01*
X348208218Y-193344177D01*
X348192083Y-193357243D01*
X348174548Y-193368371D01*
X348117043Y-193418009D01*
X348117027Y-193418022D01*
X348117022Y-193418028D01*
X347491422Y-194024275D01*
X347477854Y-194039994D01*
X347462568Y-194054050D01*
X347414749Y-194113102D01*
X346906389Y-194820560D01*
X346895818Y-194838434D01*
X346883264Y-194854974D01*
X346846658Y-194921560D01*
X346471612Y-195707860D01*
X346464375Y-195727319D01*
X346454946Y-195745825D01*
X346430710Y-195817841D01*
X346200834Y-196658129D01*
X346197157Y-196678564D01*
X346191155Y-196698444D01*
X346180055Y-196773614D01*
X346102877Y-197638371D01*
X346100000Y-197667582D01*
X127127000Y-197667582D01*
X127127000Y-189385331D01*
X127788090Y-189385331D01*
X127788090Y-189714669D01*
X127852340Y-190037678D01*
X127978372Y-190341947D01*
X128161342Y-190615781D01*
X128394219Y-190848658D01*
X128668053Y-191031628D01*
X128972322Y-191157660D01*
X129295331Y-191221910D01*
X129624669Y-191221910D01*
X129947678Y-191157660D01*
X130251947Y-191031628D01*
X130525781Y-190848658D01*
X130758658Y-190615781D01*
X130941628Y-190341947D01*
X131067660Y-190037678D01*
X131131910Y-189714669D01*
X131131910Y-189385331D01*
X131067660Y-189062322D01*
X130941628Y-188758053D01*
X130758658Y-188484219D01*
X130525781Y-188251342D01*
X130251947Y-188068372D01*
X129947678Y-187942340D01*
X129624669Y-187878090D01*
X129295331Y-187878090D01*
X128972322Y-187942340D01*
X128668053Y-188068372D01*
X128394219Y-188251342D01*
X128161342Y-188484219D01*
X127978372Y-188758053D01*
X127852340Y-189062322D01*
X127788090Y-189385331D01*
X127127000Y-189385331D01*
X127127000Y-186182000D01*
X135590000Y-186182000D01*
X135590001Y-191267571D01*
G04 #@! TA.AperFunction,Conductor*
D14*
G36*
X135590001Y-191267571D02*
G01*
X135586807Y-191300000D01*
X135599550Y-191429383D01*
X135637290Y-191553793D01*
X135698575Y-191668450D01*
X135781052Y-191768948D01*
X135881550Y-191851425D01*
X135996207Y-191912710D01*
X136120617Y-191950450D01*
X136217581Y-191960000D01*
X136250000Y-191963193D01*
X136282419Y-191960000D01*
X147217581Y-191960000D01*
X147250000Y-191963193D01*
X147282419Y-191960000D01*
X147379383Y-191950450D01*
X147503793Y-191912710D01*
X147618450Y-191851425D01*
X147718948Y-191768948D01*
X147801425Y-191668450D01*
X147862710Y-191553793D01*
X147900450Y-191429383D01*
X147913193Y-191300000D01*
X147910000Y-191267581D01*
X147910000Y-189409835D01*
X194036886Y-189409835D01*
X194036886Y-189690165D01*
X194091575Y-189965107D01*
X194198853Y-190224097D01*
X194354595Y-190457182D01*
X194552818Y-190655405D01*
X194785903Y-190811147D01*
X195044893Y-190918425D01*
X195319835Y-190973114D01*
X195600165Y-190973114D01*
X195875107Y-190918425D01*
X196134097Y-190811147D01*
X196367182Y-190655405D01*
X196565405Y-190457182D01*
X196721147Y-190224097D01*
X196828425Y-189965107D01*
X196883114Y-189690165D01*
X196883114Y-189409835D01*
X336886886Y-189409835D01*
X336886886Y-189690165D01*
X336941575Y-189965107D01*
X337048853Y-190224097D01*
X337204595Y-190457182D01*
X337402818Y-190655405D01*
X337635903Y-190811147D01*
X337894893Y-190918425D01*
X338169835Y-190973114D01*
X338450165Y-190973114D01*
X338725107Y-190918425D01*
X338984097Y-190811147D01*
X339217182Y-190655405D01*
X339415405Y-190457182D01*
X339571147Y-190224097D01*
X339678425Y-189965107D01*
X339733114Y-189690165D01*
X339733114Y-189409835D01*
X339728240Y-189385331D01*
X448938090Y-189385331D01*
X448938090Y-189714669D01*
X449002340Y-190037678D01*
X449128372Y-190341947D01*
X449311342Y-190615781D01*
X449544219Y-190848658D01*
X449818053Y-191031628D01*
X450122322Y-191157660D01*
X450445331Y-191221910D01*
X450774669Y-191221910D01*
X451097678Y-191157660D01*
X451401947Y-191031628D01*
X451675781Y-190848658D01*
X451908658Y-190615781D01*
X452091628Y-190341947D01*
X452217660Y-190037678D01*
X452281910Y-189714669D01*
X452281910Y-189385331D01*
X452217660Y-189062322D01*
X452091628Y-188758053D01*
X451908658Y-188484219D01*
X451675781Y-188251342D01*
X451401947Y-188068372D01*
X451097678Y-187942340D01*
X450774669Y-187878090D01*
X450445331Y-187878090D01*
X450122322Y-187942340D01*
X449818053Y-188068372D01*
X449544219Y-188251342D01*
X449311342Y-188484219D01*
X449128372Y-188758053D01*
X449002340Y-189062322D01*
X448938090Y-189385331D01*
X339728240Y-189385331D01*
X339678425Y-189134893D01*
X339571147Y-188875903D01*
X339415405Y-188642818D01*
X339217182Y-188444595D01*
X338984097Y-188288853D01*
X338725107Y-188181575D01*
X338450165Y-188126886D01*
X338169835Y-188126886D01*
X337894893Y-188181575D01*
X337635903Y-188288853D01*
X337402818Y-188444595D01*
X337204595Y-188642818D01*
X337048853Y-188875903D01*
X336941575Y-189134893D01*
X336886886Y-189409835D01*
X196883114Y-189409835D01*
X196828425Y-189134893D01*
X196721147Y-188875903D01*
X196565405Y-188642818D01*
X196367182Y-188444595D01*
X196134097Y-188288853D01*
X195875107Y-188181575D01*
X195600165Y-188126886D01*
X195319835Y-188126886D01*
X195044893Y-188181575D01*
X194785903Y-188288853D01*
X194552818Y-188444595D01*
X194354595Y-188642818D01*
X194198853Y-188875903D01*
X194091575Y-189134893D01*
X194036886Y-189409835D01*
X147910000Y-189409835D01*
X147910000Y-186182000D01*
X453100001Y-186182000D01*
X453100000Y-267208000D01*
X127127000Y-267208000D01*
X127127000Y-263885331D01*
X127788090Y-263885331D01*
X127788090Y-264214669D01*
X127852340Y-264537678D01*
X127978372Y-264841947D01*
X128161342Y-265115781D01*
X128394219Y-265348658D01*
X128668053Y-265531628D01*
X128972322Y-265657660D01*
X129295331Y-265721910D01*
X129624669Y-265721910D01*
X129947678Y-265657660D01*
X130251947Y-265531628D01*
X130525781Y-265348658D01*
X130758658Y-265115781D01*
X130941628Y-264841947D01*
X131067660Y-264537678D01*
X131131910Y-264214669D01*
X131131910Y-263909835D01*
X194036886Y-263909835D01*
X194036886Y-264190165D01*
X194091575Y-264465107D01*
X194198853Y-264724097D01*
X194354595Y-264957182D01*
X194552818Y-265155405D01*
X194785903Y-265311147D01*
X195044893Y-265418425D01*
X195319835Y-265473114D01*
X195600165Y-265473114D01*
X195875107Y-265418425D01*
X196134097Y-265311147D01*
X196367182Y-265155405D01*
X196565405Y-264957182D01*
X196721147Y-264724097D01*
X196828425Y-264465107D01*
X196883114Y-264190165D01*
X196883114Y-263909835D01*
X336886886Y-263909835D01*
X336886886Y-264190165D01*
X336941575Y-264465107D01*
X337048853Y-264724097D01*
X337204595Y-264957182D01*
X337402818Y-265155405D01*
X337635903Y-265311147D01*
X337894893Y-265418425D01*
X338169835Y-265473114D01*
X338450165Y-265473114D01*
X338725107Y-265418425D01*
X338984097Y-265311147D01*
X339217182Y-265155405D01*
X339415405Y-264957182D01*
X339571147Y-264724097D01*
X339678425Y-264465107D01*
X339733114Y-264190165D01*
X339733114Y-263909835D01*
X339728240Y-263885331D01*
X448938090Y-263885331D01*
X448938090Y-264214669D01*
X449002340Y-264537678D01*
X449128372Y-264841947D01*
X449311342Y-265115781D01*
X449544219Y-265348658D01*
X449818053Y-265531628D01*
X450122322Y-265657660D01*
X450445331Y-265721910D01*
X450774669Y-265721910D01*
X451097678Y-265657660D01*
X451401947Y-265531628D01*
X451675781Y-265348658D01*
X451908658Y-265115781D01*
X452091628Y-264841947D01*
X452217660Y-264537678D01*
X452281910Y-264214669D01*
X452281910Y-263885331D01*
X452217660Y-263562322D01*
X452091628Y-263258053D01*
X451908658Y-262984219D01*
X451675781Y-262751342D01*
X451401947Y-262568372D01*
X451097678Y-262442340D01*
X450774669Y-262378090D01*
X450445331Y-262378090D01*
X450122322Y-262442340D01*
X449818053Y-262568372D01*
X449544219Y-262751342D01*
X449311342Y-262984219D01*
X449128372Y-263258053D01*
X449002340Y-263562322D01*
X448938090Y-263885331D01*
X339728240Y-263885331D01*
X339678425Y-263634893D01*
X339571147Y-263375903D01*
X339415405Y-263142818D01*
X339217182Y-262944595D01*
X338984097Y-262788853D01*
X338725107Y-262681575D01*
X338450165Y-262626886D01*
X338169835Y-262626886D01*
X337894893Y-262681575D01*
X337635903Y-262788853D01*
X337402818Y-262944595D01*
X337204595Y-263142818D01*
X337048853Y-263375903D01*
X336941575Y-263634893D01*
X336886886Y-263909835D01*
X196883114Y-263909835D01*
X196828425Y-263634893D01*
X196721147Y-263375903D01*
X196565405Y-263142818D01*
X196367182Y-262944595D01*
X196134097Y-262788853D01*
X195875107Y-262681575D01*
X195600165Y-262626886D01*
X195319835Y-262626886D01*
X195044893Y-262681575D01*
X194785903Y-262788853D01*
X194552818Y-262944595D01*
X194354595Y-263142818D01*
X194198853Y-263375903D01*
X194091575Y-263634893D01*
X194036886Y-263909835D01*
X131131910Y-263909835D01*
X131131910Y-263885331D01*
X131067660Y-263562322D01*
X130941628Y-263258053D01*
X130758658Y-262984219D01*
X130525781Y-262751342D01*
X130251947Y-262568372D01*
X129947678Y-262442340D01*
X129624669Y-262378090D01*
X129295331Y-262378090D01*
X128972322Y-262442340D01*
X128668053Y-262568372D01*
X128394219Y-262751342D01*
X128161342Y-262984219D01*
X127978372Y-263258053D01*
X127852340Y-263562322D01*
X127788090Y-263885331D01*
X127127000Y-263885331D01*
X127127000Y-237447135D01*
X268999199Y-237447135D01*
X268999199Y-238752865D01*
X269169631Y-240047426D01*
X269507579Y-241308665D01*
X270007260Y-242515003D01*
X270660126Y-243645799D01*
X271455004Y-244681705D01*
X272378295Y-245604996D01*
X273414201Y-246399874D01*
X274544997Y-247052740D01*
X275751335Y-247552421D01*
X277012574Y-247890369D01*
X278307135Y-248060801D01*
X279612865Y-248060801D01*
X280907426Y-247890369D01*
X282168665Y-247552421D01*
X283375003Y-247052740D01*
X284505799Y-246399874D01*
X285541705Y-245604996D01*
X286464996Y-244681705D01*
X287259874Y-243645799D01*
X287912740Y-242515003D01*
X288412421Y-241308665D01*
X288750369Y-240047426D01*
X288920801Y-238752865D01*
X288920801Y-237447135D01*
X288750369Y-236152574D01*
X288412421Y-234891335D01*
X287912740Y-233684997D01*
X287259874Y-232554201D01*
X286464996Y-231518295D01*
X285541705Y-230595004D01*
X284505799Y-229800126D01*
X283375003Y-229147260D01*
X282168665Y-228647579D01*
X280907426Y-228309631D01*
X279612865Y-228139199D01*
X278307135Y-228139199D01*
X277012574Y-228309631D01*
X275751335Y-228647579D01*
X274544997Y-229147260D01*
X273414201Y-229800126D01*
X272378295Y-230595004D01*
X271455004Y-231518295D01*
X270660126Y-232554201D01*
X270007260Y-233684997D01*
X269507579Y-234891335D01*
X269169631Y-236152574D01*
X268999199Y-237447135D01*
X127127000Y-237447135D01*
X127127000Y-233425000D01*
X162721928Y-233425000D01*
X162721928Y-235025000D01*
X162738992Y-235198254D01*
X162789528Y-235364850D01*
X162871595Y-235518386D01*
X162982038Y-235652962D01*
X163116614Y-235763405D01*
X163270150Y-235845472D01*
X163436746Y-235896008D01*
X163610000Y-235913072D01*
X166110000Y-235913072D01*
X166283254Y-235896008D01*
X166449850Y-235845472D01*
X166603386Y-235763405D01*
X166737962Y-235652962D01*
X166848405Y-235518386D01*
X166930472Y-235364850D01*
X166981008Y-235198254D01*
X166998072Y-235025000D01*
X166998072Y-233425000D01*
X166981008Y-233251746D01*
X166930472Y-233085150D01*
X166848405Y-232931614D01*
X166737962Y-232797038D01*
X166603386Y-232686595D01*
X166449850Y-232604528D01*
X166283254Y-232553992D01*
X166110000Y-232536928D01*
X163610000Y-232536928D01*
X163436746Y-232553992D01*
X163270150Y-232604528D01*
X163116614Y-232686595D01*
X162982038Y-232797038D01*
X162871595Y-232931614D01*
X162789528Y-233085150D01*
X162738992Y-233251746D01*
X162721928Y-233425000D01*
X127127000Y-233425000D01*
X127127000Y-232075000D01*
X166321928Y-232075000D01*
X166334188Y-232199482D01*
X166370498Y-232319180D01*
X166429463Y-232429494D01*
X166508815Y-232526185D01*
X166605506Y-232605537D01*
X166715820Y-232664502D01*
X166835518Y-232700812D01*
X166960000Y-232713072D01*
X167324250Y-232710000D01*
X167483000Y-232551250D01*
X167483000Y-231802000D01*
X167737000Y-231802000D01*
X167737000Y-232551250D01*
X167895750Y-232710000D01*
X168260000Y-232713072D01*
X168384482Y-232700812D01*
X168504180Y-232664502D01*
X168614494Y-232605537D01*
X168711185Y-232526185D01*
X168790537Y-232429494D01*
X168849502Y-232319180D01*
X168885812Y-232199482D01*
X168898072Y-232075000D01*
X168895000Y-231960750D01*
X168736250Y-231802000D01*
X167737000Y-231802000D01*
X167483000Y-231802000D01*
X166483750Y-231802000D01*
X166325000Y-231960750D01*
X166321928Y-232075000D01*
X127127000Y-232075000D01*
X127127000Y-230825000D01*
X166321928Y-230825000D01*
X166334188Y-230949482D01*
X166364680Y-231050000D01*
X166334188Y-231150518D01*
X166321928Y-231275000D01*
X166325000Y-231389250D01*
X166483750Y-231548000D01*
X167483000Y-231548000D01*
X167483000Y-230552000D01*
X167737000Y-230552000D01*
X167737000Y-231548000D01*
X168736250Y-231548000D01*
X168895000Y-231389250D01*
X168898072Y-231275000D01*
X168885812Y-231150518D01*
X168855320Y-231050000D01*
X168885812Y-230949482D01*
X168898072Y-230825000D01*
X168895000Y-230710750D01*
X168736250Y-230552000D01*
X167737000Y-230552000D01*
X167483000Y-230552000D01*
X166483750Y-230552000D01*
X166325000Y-230710750D01*
X166321928Y-230825000D01*
X127127000Y-230825000D01*
X127127000Y-227725000D01*
X166321928Y-227725000D01*
X166321928Y-228125000D01*
X166338031Y-228288500D01*
X166385722Y-228445716D01*
X166441463Y-228550000D01*
X166385722Y-228654284D01*
X166338031Y-228811500D01*
X166321928Y-228975000D01*
X166321928Y-229375000D01*
X166338031Y-229538500D01*
X166385722Y-229695716D01*
X166400855Y-229724027D01*
X166370498Y-229780820D01*
X166334188Y-229900518D01*
X166321928Y-230025000D01*
X166325000Y-230139250D01*
X166483750Y-230298000D01*
X167483000Y-230298000D01*
X167483000Y-230278000D01*
X167737000Y-230278000D01*
X167737000Y-230298000D01*
X168736250Y-230298000D01*
X168874250Y-230160000D01*
X170803380Y-230160000D01*
X170948094Y-230145747D01*
X171133767Y-230089424D01*
X171304884Y-229997960D01*
X171454870Y-229874870D01*
X171481915Y-229841915D01*
X171514870Y-229814870D01*
X171637960Y-229664884D01*
X171729424Y-229493767D01*
X171785747Y-229308094D01*
X171800000Y-229163380D01*
X171800000Y-228291586D01*
X171810226Y-228266898D01*
X171850000Y-228066939D01*
X171850000Y-227863061D01*
X171810226Y-227663102D01*
X171732205Y-227474744D01*
X171618937Y-227305226D01*
X171474774Y-227161063D01*
X171305256Y-227047795D01*
X171116898Y-226969774D01*
X170916939Y-226930000D01*
X170713061Y-226930000D01*
X170513102Y-226969774D01*
X170488414Y-226980000D01*
X168435491Y-226980000D01*
X168380716Y-226950722D01*
X168223500Y-226903031D01*
X168060000Y-226886928D01*
X167160000Y-226886928D01*
X166996500Y-226903031D01*
X166839284Y-226950722D01*
X166694392Y-227028169D01*
X166567394Y-227132394D01*
X166463169Y-227259392D01*
X166385722Y-227404284D01*
X166338031Y-227561500D01*
X166321928Y-227725000D01*
X127127000Y-227725000D01*
X127127000Y-224575000D01*
X162721928Y-224575000D01*
X162721928Y-226175000D01*
X162738992Y-226348254D01*
X162789528Y-226514850D01*
X162871595Y-226668386D01*
X162982038Y-226802962D01*
X163116614Y-226913405D01*
X163270150Y-226995472D01*
X163436746Y-227046008D01*
X163610000Y-227063072D01*
X166110000Y-227063072D01*
X166283254Y-227046008D01*
X166449850Y-226995472D01*
X166603386Y-226913405D01*
X166737962Y-226802962D01*
X166848405Y-226668386D01*
X166930472Y-226514850D01*
X166981008Y-226348254D01*
X166998072Y-226175000D01*
X166998072Y-224575000D01*
X166981008Y-224401746D01*
X166930472Y-224235150D01*
X166848405Y-224081614D01*
X166737962Y-223947038D01*
X166603386Y-223836595D01*
X166449850Y-223754528D01*
X166283254Y-223703992D01*
X166110000Y-223686928D01*
X163610000Y-223686928D01*
X163436746Y-223703992D01*
X163270150Y-223754528D01*
X163116614Y-223836595D01*
X162982038Y-223947038D01*
X162871595Y-224081614D01*
X162789528Y-224235150D01*
X162738992Y-224401746D01*
X162721928Y-224575000D01*
X127127000Y-224575000D01*
X127127000Y-215148095D01*
X137699495Y-215148095D01*
X137699495Y-216251905D01*
X137881176Y-217340661D01*
X138239583Y-218384664D01*
X138764938Y-219355436D01*
X139442913Y-220226498D01*
X140255013Y-220974088D01*
X141179086Y-221577815D01*
X142189926Y-222021211D01*
X143259960Y-222292180D01*
X144360000Y-222383332D01*
X145460040Y-222292180D01*
X146530074Y-222021211D01*
X147540914Y-221577815D01*
X148463591Y-220975000D01*
X162721928Y-220975000D01*
X162721928Y-222575000D01*
X162738992Y-222748254D01*
X162789528Y-222914850D01*
X162871595Y-223068386D01*
X162982038Y-223202962D01*
X163116614Y-223313405D01*
X163270150Y-223395472D01*
X163436746Y-223446008D01*
X163610000Y-223463072D01*
X166110000Y-223463072D01*
X166283254Y-223446008D01*
X166449850Y-223395472D01*
X166603386Y-223313405D01*
X166737962Y-223202962D01*
X166848405Y-223068386D01*
X166930472Y-222914850D01*
X166981008Y-222748254D01*
X166998072Y-222575000D01*
X166998072Y-220975000D01*
X166981008Y-220801746D01*
X166930472Y-220635150D01*
X166848405Y-220481614D01*
X166737962Y-220347038D01*
X166603386Y-220236595D01*
X166449850Y-220154528D01*
X166283254Y-220103992D01*
X166110000Y-220086928D01*
X163610000Y-220086928D01*
X163436746Y-220103992D01*
X163270150Y-220154528D01*
X163116614Y-220236595D01*
X162982038Y-220347038D01*
X162871595Y-220481614D01*
X162789528Y-220635150D01*
X162738992Y-220801746D01*
X162721928Y-220975000D01*
X148463591Y-220975000D01*
X148464987Y-220974088D01*
X149277087Y-220226498D01*
X149955062Y-219355436D01*
X150480417Y-218384664D01*
X150689715Y-217775000D01*
X166321928Y-217775000D01*
X166321928Y-218175000D01*
X166338031Y-218338500D01*
X166385722Y-218495716D01*
X166441463Y-218600000D01*
X166385722Y-218704284D01*
X166338031Y-218861500D01*
X166321928Y-219025000D01*
X166321928Y-219425000D01*
X166338031Y-219588500D01*
X166385722Y-219745716D01*
X166463169Y-219890608D01*
X166567394Y-220017606D01*
X166694392Y-220121831D01*
X166839284Y-220199278D01*
X166996500Y-220246969D01*
X167160000Y-220263072D01*
X168060000Y-220263072D01*
X168223500Y-220246969D01*
X168380716Y-220199278D01*
X168525608Y-220121831D01*
X168652606Y-220017606D01*
X168679365Y-219985000D01*
X170650199Y-219985000D01*
X171685000Y-221019802D01*
X171685000Y-221081939D01*
X171724774Y-221281898D01*
X171802795Y-221470256D01*
X171916063Y-221639774D01*
X172060226Y-221783937D01*
X172229744Y-221897205D01*
X172418102Y-221975226D01*
X172618061Y-222015000D01*
X172821939Y-222015000D01*
X173021898Y-221975226D01*
X173210256Y-221897205D01*
X173379774Y-221783937D01*
X173523937Y-221639774D01*
X173637205Y-221470256D01*
X173715226Y-221281898D01*
X173755000Y-221081939D01*
X173755000Y-220878061D01*
X173715226Y-220678102D01*
X173637205Y-220489744D01*
X173523937Y-220320226D01*
X173379774Y-220176063D01*
X173210256Y-220062795D01*
X173021898Y-219984774D01*
X172821939Y-219945000D01*
X172759802Y-219945000D01*
X172014801Y-219200000D01*
X172016289Y-219200000D01*
X172060226Y-219243937D01*
X172229744Y-219357205D01*
X172418102Y-219435226D01*
X172618061Y-219475000D01*
X172821939Y-219475000D01*
X173021898Y-219435226D01*
X173210256Y-219357205D01*
X173379774Y-219243937D01*
X173523937Y-219099774D01*
X173637205Y-218930256D01*
X173715226Y-218741898D01*
X173755000Y-218541939D01*
X173755000Y-218338061D01*
X173715226Y-218138102D01*
X173637205Y-217949744D01*
X173523937Y-217780226D01*
X173379774Y-217636063D01*
X173210256Y-217522795D01*
X173021898Y-217444774D01*
X172821939Y-217405000D01*
X172618061Y-217405000D01*
X172418102Y-217444774D01*
X172229744Y-217522795D01*
X172060226Y-217636063D01*
X172016289Y-217680000D01*
X169224801Y-217680000D01*
X169008804Y-217464003D01*
X168985001Y-217434999D01*
X168869276Y-217340026D01*
X168737247Y-217269454D01*
X168719682Y-217264126D01*
X168652606Y-217182394D01*
X168525608Y-217078169D01*
X168380716Y-217000722D01*
X168223500Y-216953031D01*
X168060000Y-216936928D01*
X167160000Y-216936928D01*
X166996500Y-216953031D01*
X166839284Y-217000722D01*
X166694392Y-217078169D01*
X166567394Y-217182394D01*
X166463169Y-217309392D01*
X166385722Y-217454284D01*
X166338031Y-217611500D01*
X166321928Y-217775000D01*
X150689715Y-217775000D01*
X150838824Y-217340661D01*
X151020505Y-216251905D01*
X151020505Y-215148095D01*
X150933216Y-214625000D01*
X162721928Y-214625000D01*
X162721928Y-216225000D01*
X162738992Y-216398254D01*
X162789528Y-216564850D01*
X162871595Y-216718386D01*
X162982038Y-216852962D01*
X163116614Y-216963405D01*
X163270150Y-217045472D01*
X163436746Y-217096008D01*
X163610000Y-217113072D01*
X166110000Y-217113072D01*
X166283254Y-217096008D01*
X166449850Y-217045472D01*
X166603386Y-216963405D01*
X166737962Y-216852962D01*
X166848405Y-216718386D01*
X166930472Y-216564850D01*
X166981008Y-216398254D01*
X166998072Y-216225000D01*
X166998072Y-214625000D01*
X166981008Y-214451746D01*
X166930472Y-214285150D01*
X166848405Y-214131614D01*
X166737962Y-213997038D01*
X166603386Y-213886595D01*
X166449850Y-213804528D01*
X166283254Y-213753992D01*
X166110000Y-213736928D01*
X163610000Y-213736928D01*
X163436746Y-213753992D01*
X163270150Y-213804528D01*
X163116614Y-213886595D01*
X162982038Y-213997038D01*
X162871595Y-214131614D01*
X162789528Y-214285150D01*
X162738992Y-214451746D01*
X162721928Y-214625000D01*
X150933216Y-214625000D01*
X150838824Y-214059339D01*
X150480417Y-213015336D01*
X149955062Y-212044564D01*
X149277087Y-211173502D01*
X148464987Y-210425912D01*
X147540914Y-209822185D01*
X146530074Y-209378789D01*
X145460040Y-209107820D01*
X144360000Y-209016668D01*
X143259960Y-209107820D01*
X142189926Y-209378789D01*
X141179086Y-209822185D01*
X140255013Y-210425912D01*
X139442913Y-211173502D01*
X138764938Y-212044564D01*
X138239583Y-213015336D01*
X137881176Y-214059339D01*
X137699495Y-215148095D01*
X127127000Y-215148095D01*
X127127000Y-197667582D01*
X346100000Y-197667582D01*
X346100001Y-255932419D01*
X346102367Y-255956446D01*
X346154339Y-256664145D01*
X346156856Y-256679518D01*
X346157346Y-256695097D01*
X346170802Y-256769881D01*
X346374171Y-257616974D01*
X346380792Y-257636649D01*
X346385111Y-257656967D01*
X346411598Y-257728186D01*
X346761760Y-258525879D01*
X346771764Y-258544077D01*
X346779610Y-258563302D01*
X346818289Y-258628705D01*
X347304177Y-259351782D01*
X347317242Y-259367916D01*
X347328371Y-259385452D01*
X347378021Y-259442972D01*
X347984275Y-260068578D01*
X347999994Y-260082146D01*
X348014050Y-260097432D01*
X348073102Y-260145251D01*
X348780560Y-260653611D01*
X348798430Y-260664179D01*
X348814973Y-260676736D01*
X348881560Y-260713342D01*
X349667859Y-261088388D01*
X349687321Y-261095626D01*
X349705825Y-261105054D01*
X349777841Y-261129290D01*
X350618129Y-261359166D01*
X350638566Y-261362843D01*
X350658445Y-261368845D01*
X350733614Y-261379945D01*
X351598360Y-261457122D01*
X351627581Y-261460000D01*
X431892419Y-261460000D01*
X431916486Y-261457630D01*
X432624145Y-261405661D01*
X432639518Y-261403144D01*
X432655097Y-261402654D01*
X432729881Y-261389198D01*
X433576974Y-261185829D01*
X433596649Y-261179208D01*
X433616967Y-261174889D01*
X433688186Y-261148402D01*
X434485879Y-260798240D01*
X434504077Y-260788236D01*
X434523302Y-260780390D01*
X434588705Y-260741711D01*
X435311782Y-260255823D01*
X435327916Y-260242758D01*
X435345452Y-260231629D01*
X435402972Y-260181979D01*
X436028578Y-259575725D01*
X436042146Y-259560006D01*
X436057432Y-259545950D01*
X436105251Y-259486898D01*
X436613611Y-258779440D01*
X436624179Y-258761570D01*
X436636736Y-258745027D01*
X436673342Y-258678440D01*
X437048388Y-257892141D01*
X437055626Y-257872679D01*
X437065054Y-257854175D01*
X437089290Y-257782159D01*
X437319166Y-256941871D01*
X437322843Y-256921434D01*
X437328845Y-256901555D01*
X437339945Y-256826386D01*
X437417122Y-255961640D01*
X437420000Y-255932419D01*
X437420000Y-197667581D01*
X437417629Y-197643511D01*
X437365662Y-196935855D01*
X437363143Y-196920475D01*
X437362654Y-196904903D01*
X437349198Y-196830119D01*
X437145829Y-195983025D01*
X437139207Y-195963349D01*
X437134889Y-195943033D01*
X437108403Y-195871814D01*
X436758240Y-195074122D01*
X436748237Y-195055926D01*
X436740390Y-195036698D01*
X436701711Y-194971295D01*
X436215823Y-194248218D01*
X436202757Y-194232083D01*
X436191629Y-194214548D01*
X436141991Y-194157043D01*
X436141978Y-194157027D01*
X436141972Y-194157022D01*
X435535725Y-193531422D01*
X435520006Y-193517854D01*
X435505950Y-193502568D01*
X435446898Y-193454749D01*
X434739440Y-192946389D01*
X434721566Y-192935818D01*
X434705026Y-192923264D01*
X434638440Y-192886658D01*
X433852140Y-192511612D01*
X433832681Y-192504375D01*
X433814175Y-192494946D01*
X433742159Y-192470710D01*
X432901871Y-192240834D01*
X432881436Y-192237157D01*
X432861556Y-192231155D01*
X432786386Y-192220055D01*
X431921640Y-192142878D01*
X431892419Y-192140000D01*
X351627581Y-192140000D01*
X351603511Y-192142371D01*
X350895855Y-192194338D01*
X350880475Y-192196857D01*
X350864903Y-192197346D01*
X350790119Y-192210802D01*
X349943025Y-192414171D01*
X349923349Y-192420793D01*
X349903033Y-192425111D01*
X349831814Y-192451597D01*
X349034122Y-192801760D01*
X349015926Y-192811763D01*
X348996698Y-192819610D01*
X348931295Y-192858289D01*
X348208218Y-193344177D01*
X348192083Y-193357243D01*
X348174548Y-193368371D01*
X348117043Y-193418009D01*
X348117027Y-193418022D01*
X348117022Y-193418028D01*
X347491422Y-194024275D01*
X347477854Y-194039994D01*
X347462568Y-194054050D01*
X347414749Y-194113102D01*
X346906389Y-194820560D01*
X346895818Y-194838434D01*
X346883264Y-194854974D01*
X346846658Y-194921560D01*
X346471612Y-195707860D01*
X346464375Y-195727319D01*
X346454946Y-195745825D01*
X346430710Y-195817841D01*
X346200834Y-196658129D01*
X346197157Y-196678564D01*
X346191155Y-196698444D01*
X346180055Y-196773614D01*
X346102877Y-197638371D01*
X346100000Y-197667582D01*
X127127000Y-197667582D01*
X127127000Y-189385331D01*
X127788090Y-189385331D01*
X127788090Y-189714669D01*
X127852340Y-190037678D01*
X127978372Y-190341947D01*
X128161342Y-190615781D01*
X128394219Y-190848658D01*
X128668053Y-191031628D01*
X128972322Y-191157660D01*
X129295331Y-191221910D01*
X129624669Y-191221910D01*
X129947678Y-191157660D01*
X130251947Y-191031628D01*
X130525781Y-190848658D01*
X130758658Y-190615781D01*
X130941628Y-190341947D01*
X131067660Y-190037678D01*
X131131910Y-189714669D01*
X131131910Y-189385331D01*
X131067660Y-189062322D01*
X130941628Y-188758053D01*
X130758658Y-188484219D01*
X130525781Y-188251342D01*
X130251947Y-188068372D01*
X129947678Y-187942340D01*
X129624669Y-187878090D01*
X129295331Y-187878090D01*
X128972322Y-187942340D01*
X128668053Y-188068372D01*
X128394219Y-188251342D01*
X128161342Y-188484219D01*
X127978372Y-188758053D01*
X127852340Y-189062322D01*
X127788090Y-189385331D01*
X127127000Y-189385331D01*
X127127000Y-186182000D01*
X135590000Y-186182000D01*
X135590001Y-191267571D01*
G37*
G04 #@! TD.AperFunction*
M02*
