G04 #@! TF.GenerationSoftware,KiCad,Pcbnew,(5.1.9)-1*
G04 #@! TF.CreationDate,2021-03-05T16:24:16-06:00*
G04 #@! TF.ProjectId,Y+,592b2e6b-6963-4616-945f-706362585858,3*
G04 #@! TF.SameCoordinates,Original*
G04 #@! TF.FileFunction,Soldermask,Bot*
G04 #@! TF.FilePolarity,Negative*
%FSLAX46Y46*%
G04 Gerber Fmt 4.6, Leading zero omitted, Abs format (unit mm)*
G04 Created by KiCad (PCBNEW (5.1.9)-1) date 2021-03-05 16:24:16*
%MOMM*%
%LPD*%
G01*
G04 APERTURE LIST*
G04 APERTURE END LIST*
G36*
G01*
X168060000Y-232075000D02*
X167160000Y-232075000D01*
G75*
G02*
X166960000Y-231875000I0J200000D01*
G01*
X166960000Y-231475000D01*
G75*
G02*
X167160000Y-231275000I200000J0D01*
G01*
X168060000Y-231275000D01*
G75*
G02*
X168260000Y-231475000I0J-200000D01*
G01*
X168260000Y-231875000D01*
G75*
G02*
X168060000Y-232075000I-200000J0D01*
G01*
G37*
G36*
G01*
X168060000Y-230825000D02*
X167160000Y-230825000D01*
G75*
G02*
X166960000Y-230625000I0J200000D01*
G01*
X166960000Y-230225000D01*
G75*
G02*
X167160000Y-230025000I200000J0D01*
G01*
X168060000Y-230025000D01*
G75*
G02*
X168260000Y-230225000I0J-200000D01*
G01*
X168260000Y-230625000D01*
G75*
G02*
X168060000Y-230825000I-200000J0D01*
G01*
G37*
G36*
G01*
X168060000Y-229575000D02*
X167160000Y-229575000D01*
G75*
G02*
X166960000Y-229375000I0J200000D01*
G01*
X166960000Y-228975000D01*
G75*
G02*
X167160000Y-228775000I200000J0D01*
G01*
X168060000Y-228775000D01*
G75*
G02*
X168260000Y-228975000I0J-200000D01*
G01*
X168260000Y-229375000D01*
G75*
G02*
X168060000Y-229575000I-200000J0D01*
G01*
G37*
G36*
G01*
X168060000Y-228325000D02*
X167160000Y-228325000D01*
G75*
G02*
X166960000Y-228125000I0J200000D01*
G01*
X166960000Y-227725000D01*
G75*
G02*
X167160000Y-227525000I200000J0D01*
G01*
X168060000Y-227525000D01*
G75*
G02*
X168260000Y-227725000I0J-200000D01*
G01*
X168260000Y-228125000D01*
G75*
G02*
X168060000Y-228325000I-200000J0D01*
G01*
G37*
G36*
G01*
X166110000Y-235275000D02*
X163610000Y-235275000D01*
G75*
G02*
X163360000Y-235025000I0J250000D01*
G01*
X163360000Y-233425000D01*
G75*
G02*
X163610000Y-233175000I250000J0D01*
G01*
X166110000Y-233175000D01*
G75*
G02*
X166360000Y-233425000I0J-250000D01*
G01*
X166360000Y-235025000D01*
G75*
G02*
X166110000Y-235275000I-250000J0D01*
G01*
G37*
G36*
G01*
X166110000Y-226425000D02*
X163610000Y-226425000D01*
G75*
G02*
X163360000Y-226175000I0J250000D01*
G01*
X163360000Y-224575000D01*
G75*
G02*
X163610000Y-224325000I250000J0D01*
G01*
X166110000Y-224325000D01*
G75*
G02*
X166360000Y-224575000I0J-250000D01*
G01*
X166360000Y-226175000D01*
G75*
G02*
X166110000Y-226425000I-250000J0D01*
G01*
G37*
G36*
G01*
X166110000Y-216475000D02*
X163610000Y-216475000D01*
G75*
G02*
X163360000Y-216225000I0J250000D01*
G01*
X163360000Y-214625000D01*
G75*
G02*
X163610000Y-214375000I250000J0D01*
G01*
X166110000Y-214375000D01*
G75*
G02*
X166360000Y-214625000I0J-250000D01*
G01*
X166360000Y-216225000D01*
G75*
G02*
X166110000Y-216475000I-250000J0D01*
G01*
G37*
G36*
G01*
X166110000Y-222825000D02*
X163610000Y-222825000D01*
G75*
G02*
X163360000Y-222575000I0J250000D01*
G01*
X163360000Y-220975000D01*
G75*
G02*
X163610000Y-220725000I250000J0D01*
G01*
X166110000Y-220725000D01*
G75*
G02*
X166360000Y-220975000I0J-250000D01*
G01*
X166360000Y-222575000D01*
G75*
G02*
X166110000Y-222825000I-250000J0D01*
G01*
G37*
G36*
G01*
X168060000Y-218375000D02*
X167160000Y-218375000D01*
G75*
G02*
X166960000Y-218175000I0J200000D01*
G01*
X166960000Y-217775000D01*
G75*
G02*
X167160000Y-217575000I200000J0D01*
G01*
X168060000Y-217575000D01*
G75*
G02*
X168260000Y-217775000I0J-200000D01*
G01*
X168260000Y-218175000D01*
G75*
G02*
X168060000Y-218375000I-200000J0D01*
G01*
G37*
G36*
G01*
X168060000Y-219625000D02*
X167160000Y-219625000D01*
G75*
G02*
X166960000Y-219425000I0J200000D01*
G01*
X166960000Y-219025000D01*
G75*
G02*
X167160000Y-218825000I200000J0D01*
G01*
X168060000Y-218825000D01*
G75*
G02*
X168260000Y-219025000I0J-200000D01*
G01*
X168260000Y-219425000D01*
G75*
G02*
X168060000Y-219625000I-200000J0D01*
G01*
G37*
M02*
