G04 #@! TF.GenerationSoftware,KiCad,Pcbnew,(5.1.9)-1*
G04 #@! TF.CreationDate,2021-03-05T16:24:16-06:00*
G04 #@! TF.ProjectId,Y+,592b2e6b-6963-4616-945f-706362585858,3*
G04 #@! TF.SameCoordinates,Original*
G04 #@! TF.FileFunction,Copper,L1,Top*
G04 #@! TF.FilePolarity,Positive*
%FSLAX46Y46*%
G04 Gerber Fmt 4.6, Leading zero omitted, Abs format (unit mm)*
G04 Created by KiCad (PCBNEW (5.1.9)-1) date 2021-03-05 16:24:16*
%MOMM*%
%LPD*%
G01*
G04 APERTURE LIST*
G04 #@! TA.AperFunction,SMDPad,CuDef*
%ADD10R,2.500000X2.500000*%
G04 #@! TD*
G04 #@! TA.AperFunction,ViaPad*
%ADD11C,0.800000*%
G04 #@! TD*
G04 #@! TA.AperFunction,Conductor*
%ADD12C,0.250000*%
G04 #@! TD*
G04 #@! TA.AperFunction,Conductor*
%ADD13C,0.254000*%
G04 #@! TD*
G04 #@! TA.AperFunction,Conductor*
%ADD14C,0.100000*%
G04 #@! TD*
G04 APERTURE END LIST*
G04 #@! TA.AperFunction,SMDPad,CuDef*
G36*
G01*
X278308750Y-250035000D02*
X279221250Y-250035000D01*
G75*
G02*
X279465000Y-250278750I0J-243750D01*
G01*
X279465000Y-250766250D01*
G75*
G02*
X279221250Y-251010000I-243750J0D01*
G01*
X278308750Y-251010000D01*
G75*
G02*
X278065000Y-250766250I0J243750D01*
G01*
X278065000Y-250278750D01*
G75*
G02*
X278308750Y-250035000I243750J0D01*
G01*
G37*
G04 #@! TD.AperFunction*
G04 #@! TA.AperFunction,SMDPad,CuDef*
G36*
G01*
X278308750Y-251910000D02*
X279221250Y-251910000D01*
G75*
G02*
X279465000Y-252153750I0J-243750D01*
G01*
X279465000Y-252641250D01*
G75*
G02*
X279221250Y-252885000I-243750J0D01*
G01*
X278308750Y-252885000D01*
G75*
G02*
X278065000Y-252641250I0J243750D01*
G01*
X278065000Y-252153750D01*
G75*
G02*
X278308750Y-251910000I243750J0D01*
G01*
G37*
G04 #@! TD.AperFunction*
D10*
X291180573Y-226524913D03*
X286180573Y-226524913D03*
X268580573Y-226524913D03*
X264580573Y-226524913D03*
X247180573Y-226524913D03*
X242180573Y-226524913D03*
X258834427Y-226865087D03*
X253834427Y-226865087D03*
X236434427Y-226865087D03*
X232434427Y-226865087D03*
X214834427Y-226865087D03*
X209834427Y-226865087D03*
X304335087Y-251810573D03*
X304335087Y-246810573D03*
X304335087Y-229210573D03*
X304335087Y-225210573D03*
X304335087Y-207810573D03*
X304335087Y-202810573D03*
X187714427Y-225595087D03*
X182714427Y-225595087D03*
X165314427Y-225595087D03*
X161314427Y-225595087D03*
X143714427Y-225595087D03*
X138714427Y-225595087D03*
D11*
X301625000Y-226695000D03*
X266700000Y-229235000D03*
X234315000Y-224155000D03*
X161290000Y-222250000D03*
X170815000Y-227965000D03*
X172720000Y-218440000D03*
X172720000Y-220980000D03*
D12*
X304335087Y-225210573D02*
X303109427Y-225210573D01*
X303109427Y-225210573D02*
X301625000Y-226695000D01*
X304140573Y-229210573D02*
X301625000Y-226695000D01*
X304335087Y-229210573D02*
X304140573Y-229210573D01*
X264580573Y-226524913D02*
X264580573Y-227115573D01*
X264580573Y-227115573D02*
X266700000Y-229235000D01*
X268580573Y-227354427D02*
X266700000Y-229235000D01*
X268580573Y-226524913D02*
X268580573Y-227354427D01*
X232434427Y-226865087D02*
X232434427Y-226035573D01*
X232434427Y-226035573D02*
X234315000Y-224155000D01*
X236434427Y-226274427D02*
X234315000Y-224155000D01*
X236434427Y-226865087D02*
X236434427Y-226274427D01*
X161314427Y-225595087D02*
X161314427Y-222274427D01*
X161314427Y-222274427D02*
X161290000Y-222250000D01*
X164635087Y-225595087D02*
X161290000Y-222250000D01*
X165314427Y-225595087D02*
X164635087Y-225595087D01*
X170815000Y-219271998D02*
X170815000Y-227965000D01*
X172371999Y-217714999D02*
X170815000Y-219271998D01*
X182714427Y-225595087D02*
X174834339Y-217714999D01*
X174834339Y-217714999D02*
X172371999Y-217714999D01*
X172720000Y-218685662D02*
X172720000Y-218440000D01*
X278765000Y-250522500D02*
X204556838Y-250522500D01*
X204556838Y-250522500D02*
X172720000Y-218685662D01*
X278765000Y-252397500D02*
X204137500Y-252397500D01*
X204137500Y-252397500D02*
X172720000Y-220980000D01*
D13*
X135590001Y-191267571D02*
X135586807Y-191300000D01*
X135599550Y-191429383D01*
X135637290Y-191553793D01*
X135698575Y-191668450D01*
X135781052Y-191768948D01*
X135881550Y-191851425D01*
X135996207Y-191912710D01*
X136120617Y-191950450D01*
X136217581Y-191960000D01*
X136250000Y-191963193D01*
X136282419Y-191960000D01*
X147217581Y-191960000D01*
X147250000Y-191963193D01*
X147282419Y-191960000D01*
X147379383Y-191950450D01*
X147503793Y-191912710D01*
X147618450Y-191851425D01*
X147718948Y-191768948D01*
X147801425Y-191668450D01*
X147862710Y-191553793D01*
X147900450Y-191429383D01*
X147913193Y-191300000D01*
X147910000Y-191267581D01*
X147910000Y-189409835D01*
X194036886Y-189409835D01*
X194036886Y-189690165D01*
X194091575Y-189965107D01*
X194198853Y-190224097D01*
X194354595Y-190457182D01*
X194552818Y-190655405D01*
X194785903Y-190811147D01*
X195044893Y-190918425D01*
X195319835Y-190973114D01*
X195600165Y-190973114D01*
X195875107Y-190918425D01*
X196134097Y-190811147D01*
X196367182Y-190655405D01*
X196565405Y-190457182D01*
X196721147Y-190224097D01*
X196828425Y-189965107D01*
X196883114Y-189690165D01*
X196883114Y-189409835D01*
X336886886Y-189409835D01*
X336886886Y-189690165D01*
X336941575Y-189965107D01*
X337048853Y-190224097D01*
X337204595Y-190457182D01*
X337402818Y-190655405D01*
X337635903Y-190811147D01*
X337894893Y-190918425D01*
X338169835Y-190973114D01*
X338450165Y-190973114D01*
X338725107Y-190918425D01*
X338984097Y-190811147D01*
X339217182Y-190655405D01*
X339415405Y-190457182D01*
X339571147Y-190224097D01*
X339678425Y-189965107D01*
X339733114Y-189690165D01*
X339733114Y-189409835D01*
X339728240Y-189385331D01*
X448938090Y-189385331D01*
X448938090Y-189714669D01*
X449002340Y-190037678D01*
X449128372Y-190341947D01*
X449311342Y-190615781D01*
X449544219Y-190848658D01*
X449818053Y-191031628D01*
X450122322Y-191157660D01*
X450445331Y-191221910D01*
X450774669Y-191221910D01*
X451097678Y-191157660D01*
X451401947Y-191031628D01*
X451675781Y-190848658D01*
X451908658Y-190615781D01*
X452091628Y-190341947D01*
X452217660Y-190037678D01*
X452281910Y-189714669D01*
X452281910Y-189385331D01*
X452217660Y-189062322D01*
X452091628Y-188758053D01*
X451908658Y-188484219D01*
X451675781Y-188251342D01*
X451401947Y-188068372D01*
X451097678Y-187942340D01*
X450774669Y-187878090D01*
X450445331Y-187878090D01*
X450122322Y-187942340D01*
X449818053Y-188068372D01*
X449544219Y-188251342D01*
X449311342Y-188484219D01*
X449128372Y-188758053D01*
X449002340Y-189062322D01*
X448938090Y-189385331D01*
X339728240Y-189385331D01*
X339678425Y-189134893D01*
X339571147Y-188875903D01*
X339415405Y-188642818D01*
X339217182Y-188444595D01*
X338984097Y-188288853D01*
X338725107Y-188181575D01*
X338450165Y-188126886D01*
X338169835Y-188126886D01*
X337894893Y-188181575D01*
X337635903Y-188288853D01*
X337402818Y-188444595D01*
X337204595Y-188642818D01*
X337048853Y-188875903D01*
X336941575Y-189134893D01*
X336886886Y-189409835D01*
X196883114Y-189409835D01*
X196828425Y-189134893D01*
X196721147Y-188875903D01*
X196565405Y-188642818D01*
X196367182Y-188444595D01*
X196134097Y-188288853D01*
X195875107Y-188181575D01*
X195600165Y-188126886D01*
X195319835Y-188126886D01*
X195044893Y-188181575D01*
X194785903Y-188288853D01*
X194552818Y-188444595D01*
X194354595Y-188642818D01*
X194198853Y-188875903D01*
X194091575Y-189134893D01*
X194036886Y-189409835D01*
X147910000Y-189409835D01*
X147910000Y-186182000D01*
X453100001Y-186182000D01*
X453100000Y-267208000D01*
X127127000Y-267208000D01*
X127127000Y-263885331D01*
X127788090Y-263885331D01*
X127788090Y-264214669D01*
X127852340Y-264537678D01*
X127978372Y-264841947D01*
X128161342Y-265115781D01*
X128394219Y-265348658D01*
X128668053Y-265531628D01*
X128972322Y-265657660D01*
X129295331Y-265721910D01*
X129624669Y-265721910D01*
X129947678Y-265657660D01*
X130251947Y-265531628D01*
X130525781Y-265348658D01*
X130758658Y-265115781D01*
X130941628Y-264841947D01*
X131067660Y-264537678D01*
X131131910Y-264214669D01*
X131131910Y-263909835D01*
X194036886Y-263909835D01*
X194036886Y-264190165D01*
X194091575Y-264465107D01*
X194198853Y-264724097D01*
X194354595Y-264957182D01*
X194552818Y-265155405D01*
X194785903Y-265311147D01*
X195044893Y-265418425D01*
X195319835Y-265473114D01*
X195600165Y-265473114D01*
X195875107Y-265418425D01*
X196134097Y-265311147D01*
X196367182Y-265155405D01*
X196565405Y-264957182D01*
X196721147Y-264724097D01*
X196828425Y-264465107D01*
X196883114Y-264190165D01*
X196883114Y-263909835D01*
X336886886Y-263909835D01*
X336886886Y-264190165D01*
X336941575Y-264465107D01*
X337048853Y-264724097D01*
X337204595Y-264957182D01*
X337402818Y-265155405D01*
X337635903Y-265311147D01*
X337894893Y-265418425D01*
X338169835Y-265473114D01*
X338450165Y-265473114D01*
X338725107Y-265418425D01*
X338984097Y-265311147D01*
X339217182Y-265155405D01*
X339415405Y-264957182D01*
X339571147Y-264724097D01*
X339678425Y-264465107D01*
X339733114Y-264190165D01*
X339733114Y-263909835D01*
X339728240Y-263885331D01*
X448938090Y-263885331D01*
X448938090Y-264214669D01*
X449002340Y-264537678D01*
X449128372Y-264841947D01*
X449311342Y-265115781D01*
X449544219Y-265348658D01*
X449818053Y-265531628D01*
X450122322Y-265657660D01*
X450445331Y-265721910D01*
X450774669Y-265721910D01*
X451097678Y-265657660D01*
X451401947Y-265531628D01*
X451675781Y-265348658D01*
X451908658Y-265115781D01*
X452091628Y-264841947D01*
X452217660Y-264537678D01*
X452281910Y-264214669D01*
X452281910Y-263885331D01*
X452217660Y-263562322D01*
X452091628Y-263258053D01*
X451908658Y-262984219D01*
X451675781Y-262751342D01*
X451401947Y-262568372D01*
X451097678Y-262442340D01*
X450774669Y-262378090D01*
X450445331Y-262378090D01*
X450122322Y-262442340D01*
X449818053Y-262568372D01*
X449544219Y-262751342D01*
X449311342Y-262984219D01*
X449128372Y-263258053D01*
X449002340Y-263562322D01*
X448938090Y-263885331D01*
X339728240Y-263885331D01*
X339678425Y-263634893D01*
X339571147Y-263375903D01*
X339415405Y-263142818D01*
X339217182Y-262944595D01*
X338984097Y-262788853D01*
X338725107Y-262681575D01*
X338450165Y-262626886D01*
X338169835Y-262626886D01*
X337894893Y-262681575D01*
X337635903Y-262788853D01*
X337402818Y-262944595D01*
X337204595Y-263142818D01*
X337048853Y-263375903D01*
X336941575Y-263634893D01*
X336886886Y-263909835D01*
X196883114Y-263909835D01*
X196828425Y-263634893D01*
X196721147Y-263375903D01*
X196565405Y-263142818D01*
X196367182Y-262944595D01*
X196134097Y-262788853D01*
X195875107Y-262681575D01*
X195600165Y-262626886D01*
X195319835Y-262626886D01*
X195044893Y-262681575D01*
X194785903Y-262788853D01*
X194552818Y-262944595D01*
X194354595Y-263142818D01*
X194198853Y-263375903D01*
X194091575Y-263634893D01*
X194036886Y-263909835D01*
X131131910Y-263909835D01*
X131131910Y-263885331D01*
X131067660Y-263562322D01*
X130941628Y-263258053D01*
X130758658Y-262984219D01*
X130525781Y-262751342D01*
X130251947Y-262568372D01*
X129947678Y-262442340D01*
X129624669Y-262378090D01*
X129295331Y-262378090D01*
X128972322Y-262442340D01*
X128668053Y-262568372D01*
X128394219Y-262751342D01*
X128161342Y-262984219D01*
X127978372Y-263258053D01*
X127852340Y-263562322D01*
X127788090Y-263885331D01*
X127127000Y-263885331D01*
X127127000Y-226845087D01*
X136826355Y-226845087D01*
X136838615Y-226969569D01*
X136874925Y-227089267D01*
X136933890Y-227199581D01*
X137013242Y-227296272D01*
X137109933Y-227375624D01*
X137220247Y-227434589D01*
X137339945Y-227470899D01*
X137464427Y-227483159D01*
X138428677Y-227480087D01*
X138587427Y-227321337D01*
X138587427Y-225722087D01*
X138841427Y-225722087D01*
X138841427Y-227321337D01*
X139000177Y-227480087D01*
X139964427Y-227483159D01*
X140088909Y-227470899D01*
X140208607Y-227434589D01*
X140318921Y-227375624D01*
X140415612Y-227296272D01*
X140494964Y-227199581D01*
X140553929Y-227089267D01*
X140590239Y-226969569D01*
X140602499Y-226845087D01*
X141826355Y-226845087D01*
X141838615Y-226969569D01*
X141874925Y-227089267D01*
X141933890Y-227199581D01*
X142013242Y-227296272D01*
X142109933Y-227375624D01*
X142220247Y-227434589D01*
X142339945Y-227470899D01*
X142464427Y-227483159D01*
X143428677Y-227480087D01*
X143587427Y-227321337D01*
X143587427Y-225722087D01*
X143841427Y-225722087D01*
X143841427Y-227321337D01*
X144000177Y-227480087D01*
X144964427Y-227483159D01*
X145088909Y-227470899D01*
X145208607Y-227434589D01*
X145318921Y-227375624D01*
X145415612Y-227296272D01*
X145494964Y-227199581D01*
X145553929Y-227089267D01*
X145590239Y-226969569D01*
X145602499Y-226845087D01*
X145599427Y-225880837D01*
X145440677Y-225722087D01*
X143841427Y-225722087D01*
X143587427Y-225722087D01*
X141988177Y-225722087D01*
X141829427Y-225880837D01*
X141826355Y-226845087D01*
X140602499Y-226845087D01*
X140599427Y-225880837D01*
X140440677Y-225722087D01*
X138841427Y-225722087D01*
X138587427Y-225722087D01*
X136988177Y-225722087D01*
X136829427Y-225880837D01*
X136826355Y-226845087D01*
X127127000Y-226845087D01*
X127127000Y-224345087D01*
X136826355Y-224345087D01*
X136829427Y-225309337D01*
X136988177Y-225468087D01*
X138587427Y-225468087D01*
X138587427Y-223868837D01*
X138841427Y-223868837D01*
X138841427Y-225468087D01*
X140440677Y-225468087D01*
X140599427Y-225309337D01*
X140602499Y-224345087D01*
X141826355Y-224345087D01*
X141829427Y-225309337D01*
X141988177Y-225468087D01*
X143587427Y-225468087D01*
X143587427Y-223868837D01*
X143841427Y-223868837D01*
X143841427Y-225468087D01*
X145440677Y-225468087D01*
X145599427Y-225309337D01*
X145602499Y-224345087D01*
X159426355Y-224345087D01*
X159426355Y-226845087D01*
X159438615Y-226969569D01*
X159474925Y-227089267D01*
X159533890Y-227199581D01*
X159613242Y-227296272D01*
X159709933Y-227375624D01*
X159820247Y-227434589D01*
X159939945Y-227470899D01*
X160064427Y-227483159D01*
X162564427Y-227483159D01*
X162688909Y-227470899D01*
X162808607Y-227434589D01*
X162918921Y-227375624D01*
X163015612Y-227296272D01*
X163094964Y-227199581D01*
X163153929Y-227089267D01*
X163190239Y-226969569D01*
X163202499Y-226845087D01*
X163202499Y-225237301D01*
X163426355Y-225461158D01*
X163426355Y-226845087D01*
X163438615Y-226969569D01*
X163474925Y-227089267D01*
X163533890Y-227199581D01*
X163613242Y-227296272D01*
X163709933Y-227375624D01*
X163820247Y-227434589D01*
X163939945Y-227470899D01*
X164064427Y-227483159D01*
X166564427Y-227483159D01*
X166688909Y-227470899D01*
X166808607Y-227434589D01*
X166918921Y-227375624D01*
X167015612Y-227296272D01*
X167094964Y-227199581D01*
X167153929Y-227089267D01*
X167190239Y-226969569D01*
X167202499Y-226845087D01*
X167202499Y-224345087D01*
X167190239Y-224220605D01*
X167153929Y-224100907D01*
X167094964Y-223990593D01*
X167015612Y-223893902D01*
X166918921Y-223814550D01*
X166808607Y-223755585D01*
X166688909Y-223719275D01*
X166564427Y-223707015D01*
X164064427Y-223707015D01*
X163939945Y-223719275D01*
X163858717Y-223743915D01*
X162325000Y-222210199D01*
X162325000Y-222148061D01*
X162285226Y-221948102D01*
X162207205Y-221759744D01*
X162093937Y-221590226D01*
X161949774Y-221446063D01*
X161780256Y-221332795D01*
X161591898Y-221254774D01*
X161391939Y-221215000D01*
X161188061Y-221215000D01*
X160988102Y-221254774D01*
X160799744Y-221332795D01*
X160630226Y-221446063D01*
X160486063Y-221590226D01*
X160372795Y-221759744D01*
X160294774Y-221948102D01*
X160255000Y-222148061D01*
X160255000Y-222351939D01*
X160294774Y-222551898D01*
X160372795Y-222740256D01*
X160486063Y-222909774D01*
X160554428Y-222978139D01*
X160554428Y-223707015D01*
X160064427Y-223707015D01*
X159939945Y-223719275D01*
X159820247Y-223755585D01*
X159709933Y-223814550D01*
X159613242Y-223893902D01*
X159533890Y-223990593D01*
X159474925Y-224100907D01*
X159438615Y-224220605D01*
X159426355Y-224345087D01*
X145602499Y-224345087D01*
X145590239Y-224220605D01*
X145553929Y-224100907D01*
X145494964Y-223990593D01*
X145415612Y-223893902D01*
X145318921Y-223814550D01*
X145208607Y-223755585D01*
X145088909Y-223719275D01*
X144964427Y-223707015D01*
X144000177Y-223710087D01*
X143841427Y-223868837D01*
X143587427Y-223868837D01*
X143428677Y-223710087D01*
X142464427Y-223707015D01*
X142339945Y-223719275D01*
X142220247Y-223755585D01*
X142109933Y-223814550D01*
X142013242Y-223893902D01*
X141933890Y-223990593D01*
X141874925Y-224100907D01*
X141838615Y-224220605D01*
X141826355Y-224345087D01*
X140602499Y-224345087D01*
X140590239Y-224220605D01*
X140553929Y-224100907D01*
X140494964Y-223990593D01*
X140415612Y-223893902D01*
X140318921Y-223814550D01*
X140208607Y-223755585D01*
X140088909Y-223719275D01*
X139964427Y-223707015D01*
X139000177Y-223710087D01*
X138841427Y-223868837D01*
X138587427Y-223868837D01*
X138428677Y-223710087D01*
X137464427Y-223707015D01*
X137339945Y-223719275D01*
X137220247Y-223755585D01*
X137109933Y-223814550D01*
X137013242Y-223893902D01*
X136933890Y-223990593D01*
X136874925Y-224100907D01*
X136838615Y-224220605D01*
X136826355Y-224345087D01*
X127127000Y-224345087D01*
X127127000Y-215148095D01*
X137699495Y-215148095D01*
X137699495Y-216251905D01*
X137881176Y-217340661D01*
X138239583Y-218384664D01*
X138764938Y-219355436D01*
X139442913Y-220226498D01*
X140255013Y-220974088D01*
X141179086Y-221577815D01*
X142189926Y-222021211D01*
X143259960Y-222292180D01*
X144360000Y-222383332D01*
X145460040Y-222292180D01*
X146530074Y-222021211D01*
X147540914Y-221577815D01*
X148464987Y-220974088D01*
X149277087Y-220226498D01*
X149955062Y-219355436D01*
X150480417Y-218384664D01*
X150496415Y-218338061D01*
X171685000Y-218338061D01*
X171685000Y-218541939D01*
X171724774Y-218741898D01*
X171802795Y-218930256D01*
X171916063Y-219099774D01*
X172060226Y-219243937D01*
X172229744Y-219357205D01*
X172378260Y-219418723D01*
X172925046Y-219965509D01*
X172821939Y-219945000D01*
X172618061Y-219945000D01*
X172418102Y-219984774D01*
X172229744Y-220062795D01*
X172060226Y-220176063D01*
X171916063Y-220320226D01*
X171802795Y-220489744D01*
X171724774Y-220678102D01*
X171685000Y-220878061D01*
X171685000Y-221081939D01*
X171724774Y-221281898D01*
X171802795Y-221470256D01*
X171916063Y-221639774D01*
X172060226Y-221783937D01*
X172229744Y-221897205D01*
X172418102Y-221975226D01*
X172618061Y-222015000D01*
X172680199Y-222015000D01*
X203573701Y-252908503D01*
X203597499Y-252937501D01*
X203626497Y-252961299D01*
X203713224Y-253032474D01*
X203845253Y-253103046D01*
X203988514Y-253146503D01*
X204137500Y-253161177D01*
X204174833Y-253157500D01*
X277597155Y-253157500D01*
X277685208Y-253264792D01*
X277818836Y-253374458D01*
X277971291Y-253455947D01*
X278136715Y-253506128D01*
X278308750Y-253523072D01*
X279221250Y-253523072D01*
X279393285Y-253506128D01*
X279558709Y-253455947D01*
X279711164Y-253374458D01*
X279844792Y-253264792D01*
X279954458Y-253131164D01*
X279992189Y-253060573D01*
X302447015Y-253060573D01*
X302459275Y-253185055D01*
X302495585Y-253304753D01*
X302554550Y-253415067D01*
X302633902Y-253511758D01*
X302730593Y-253591110D01*
X302840907Y-253650075D01*
X302960605Y-253686385D01*
X303085087Y-253698645D01*
X304049337Y-253695573D01*
X304208087Y-253536823D01*
X304208087Y-251937573D01*
X304462087Y-251937573D01*
X304462087Y-253536823D01*
X304620837Y-253695573D01*
X305585087Y-253698645D01*
X305709569Y-253686385D01*
X305829267Y-253650075D01*
X305939581Y-253591110D01*
X306036272Y-253511758D01*
X306115624Y-253415067D01*
X306174589Y-253304753D01*
X306210899Y-253185055D01*
X306223159Y-253060573D01*
X306220087Y-252096323D01*
X306061337Y-251937573D01*
X304462087Y-251937573D01*
X304208087Y-251937573D01*
X302608837Y-251937573D01*
X302450087Y-252096323D01*
X302447015Y-253060573D01*
X279992189Y-253060573D01*
X280035947Y-252978709D01*
X280086128Y-252813285D01*
X280103072Y-252641250D01*
X280103072Y-252153750D01*
X280086128Y-251981715D01*
X280035947Y-251816291D01*
X279954458Y-251663836D01*
X279844792Y-251530208D01*
X279759244Y-251460000D01*
X279844792Y-251389792D01*
X279954458Y-251256164D01*
X280035947Y-251103709D01*
X280086128Y-250938285D01*
X280103072Y-250766250D01*
X280103072Y-250560573D01*
X302447015Y-250560573D01*
X302450087Y-251524823D01*
X302608837Y-251683573D01*
X304208087Y-251683573D01*
X304208087Y-250084323D01*
X304462087Y-250084323D01*
X304462087Y-251683573D01*
X306061337Y-251683573D01*
X306220087Y-251524823D01*
X306223159Y-250560573D01*
X306210899Y-250436091D01*
X306174589Y-250316393D01*
X306115624Y-250206079D01*
X306036272Y-250109388D01*
X305939581Y-250030036D01*
X305829267Y-249971071D01*
X305709569Y-249934761D01*
X305585087Y-249922501D01*
X304620837Y-249925573D01*
X304462087Y-250084323D01*
X304208087Y-250084323D01*
X304049337Y-249925573D01*
X303085087Y-249922501D01*
X302960605Y-249934761D01*
X302840907Y-249971071D01*
X302730593Y-250030036D01*
X302633902Y-250109388D01*
X302554550Y-250206079D01*
X302495585Y-250316393D01*
X302459275Y-250436091D01*
X302447015Y-250560573D01*
X280103072Y-250560573D01*
X280103072Y-250278750D01*
X280086128Y-250106715D01*
X280035947Y-249941291D01*
X279954458Y-249788836D01*
X279844792Y-249655208D01*
X279711164Y-249545542D01*
X279558709Y-249464053D01*
X279393285Y-249413872D01*
X279221250Y-249396928D01*
X278308750Y-249396928D01*
X278136715Y-249413872D01*
X277971291Y-249464053D01*
X277818836Y-249545542D01*
X277685208Y-249655208D01*
X277597155Y-249762500D01*
X204871640Y-249762500D01*
X192556275Y-237447135D01*
X268999199Y-237447135D01*
X268999199Y-238752865D01*
X269169631Y-240047426D01*
X269507579Y-241308665D01*
X270007260Y-242515003D01*
X270660126Y-243645799D01*
X271455004Y-244681705D01*
X272378295Y-245604996D01*
X273414201Y-246399874D01*
X274544997Y-247052740D01*
X275751335Y-247552421D01*
X277012574Y-247890369D01*
X278307135Y-248060801D01*
X279612865Y-248060801D01*
X279614596Y-248060573D01*
X302447015Y-248060573D01*
X302459275Y-248185055D01*
X302495585Y-248304753D01*
X302554550Y-248415067D01*
X302633902Y-248511758D01*
X302730593Y-248591110D01*
X302840907Y-248650075D01*
X302960605Y-248686385D01*
X303085087Y-248698645D01*
X304049337Y-248695573D01*
X304208087Y-248536823D01*
X304208087Y-246937573D01*
X304462087Y-246937573D01*
X304462087Y-248536823D01*
X304620837Y-248695573D01*
X305585087Y-248698645D01*
X305709569Y-248686385D01*
X305829267Y-248650075D01*
X305939581Y-248591110D01*
X306036272Y-248511758D01*
X306115624Y-248415067D01*
X306174589Y-248304753D01*
X306210899Y-248185055D01*
X306223159Y-248060573D01*
X306220087Y-247096323D01*
X306061337Y-246937573D01*
X304462087Y-246937573D01*
X304208087Y-246937573D01*
X302608837Y-246937573D01*
X302450087Y-247096323D01*
X302447015Y-248060573D01*
X279614596Y-248060573D01*
X280907426Y-247890369D01*
X282168665Y-247552421D01*
X283375003Y-247052740D01*
X284505799Y-246399874D01*
X285541705Y-245604996D01*
X285586128Y-245560573D01*
X302447015Y-245560573D01*
X302450087Y-246524823D01*
X302608837Y-246683573D01*
X304208087Y-246683573D01*
X304208087Y-245084323D01*
X304462087Y-245084323D01*
X304462087Y-246683573D01*
X306061337Y-246683573D01*
X306220087Y-246524823D01*
X306223159Y-245560573D01*
X306210899Y-245436091D01*
X306174589Y-245316393D01*
X306115624Y-245206079D01*
X306036272Y-245109388D01*
X305939581Y-245030036D01*
X305829267Y-244971071D01*
X305709569Y-244934761D01*
X305585087Y-244922501D01*
X304620837Y-244925573D01*
X304462087Y-245084323D01*
X304208087Y-245084323D01*
X304049337Y-244925573D01*
X303085087Y-244922501D01*
X302960605Y-244934761D01*
X302840907Y-244971071D01*
X302730593Y-245030036D01*
X302633902Y-245109388D01*
X302554550Y-245206079D01*
X302495585Y-245316393D01*
X302459275Y-245436091D01*
X302447015Y-245560573D01*
X285586128Y-245560573D01*
X286464996Y-244681705D01*
X287259874Y-243645799D01*
X287912740Y-242515003D01*
X288412421Y-241308665D01*
X288750369Y-240047426D01*
X288920801Y-238752865D01*
X288920801Y-237447135D01*
X288750369Y-236152574D01*
X288412421Y-234891335D01*
X287912740Y-233684997D01*
X287259874Y-232554201D01*
X286464996Y-231518295D01*
X285541705Y-230595004D01*
X284505799Y-229800126D01*
X283375003Y-229147260D01*
X282168665Y-228647579D01*
X280907426Y-228309631D01*
X279612865Y-228139199D01*
X278307135Y-228139199D01*
X277012574Y-228309631D01*
X275751335Y-228647579D01*
X274544997Y-229147260D01*
X273414201Y-229800126D01*
X272378295Y-230595004D01*
X271455004Y-231518295D01*
X270660126Y-232554201D01*
X270007260Y-233684997D01*
X269507579Y-234891335D01*
X269169631Y-236152574D01*
X268999199Y-237447135D01*
X192556275Y-237447135D01*
X183224227Y-228115087D01*
X207946355Y-228115087D01*
X207958615Y-228239569D01*
X207994925Y-228359267D01*
X208053890Y-228469581D01*
X208133242Y-228566272D01*
X208229933Y-228645624D01*
X208340247Y-228704589D01*
X208459945Y-228740899D01*
X208584427Y-228753159D01*
X209548677Y-228750087D01*
X209707427Y-228591337D01*
X209707427Y-226992087D01*
X209961427Y-226992087D01*
X209961427Y-228591337D01*
X210120177Y-228750087D01*
X211084427Y-228753159D01*
X211208909Y-228740899D01*
X211328607Y-228704589D01*
X211438921Y-228645624D01*
X211535612Y-228566272D01*
X211614964Y-228469581D01*
X211673929Y-228359267D01*
X211710239Y-228239569D01*
X211722499Y-228115087D01*
X212946355Y-228115087D01*
X212958615Y-228239569D01*
X212994925Y-228359267D01*
X213053890Y-228469581D01*
X213133242Y-228566272D01*
X213229933Y-228645624D01*
X213340247Y-228704589D01*
X213459945Y-228740899D01*
X213584427Y-228753159D01*
X214548677Y-228750087D01*
X214707427Y-228591337D01*
X214707427Y-226992087D01*
X214961427Y-226992087D01*
X214961427Y-228591337D01*
X215120177Y-228750087D01*
X216084427Y-228753159D01*
X216208909Y-228740899D01*
X216328607Y-228704589D01*
X216438921Y-228645624D01*
X216535612Y-228566272D01*
X216614964Y-228469581D01*
X216673929Y-228359267D01*
X216710239Y-228239569D01*
X216722499Y-228115087D01*
X216719427Y-227150837D01*
X216560677Y-226992087D01*
X214961427Y-226992087D01*
X214707427Y-226992087D01*
X213108177Y-226992087D01*
X212949427Y-227150837D01*
X212946355Y-228115087D01*
X211722499Y-228115087D01*
X211719427Y-227150837D01*
X211560677Y-226992087D01*
X209961427Y-226992087D01*
X209707427Y-226992087D01*
X208108177Y-226992087D01*
X207949427Y-227150837D01*
X207946355Y-228115087D01*
X183224227Y-228115087D01*
X182508952Y-227399812D01*
X182587427Y-227321337D01*
X182587427Y-225722087D01*
X182841427Y-225722087D01*
X182841427Y-227321337D01*
X183000177Y-227480087D01*
X183964427Y-227483159D01*
X184088909Y-227470899D01*
X184208607Y-227434589D01*
X184318921Y-227375624D01*
X184415612Y-227296272D01*
X184494964Y-227199581D01*
X184553929Y-227089267D01*
X184590239Y-226969569D01*
X184602499Y-226845087D01*
X185826355Y-226845087D01*
X185838615Y-226969569D01*
X185874925Y-227089267D01*
X185933890Y-227199581D01*
X186013242Y-227296272D01*
X186109933Y-227375624D01*
X186220247Y-227434589D01*
X186339945Y-227470899D01*
X186464427Y-227483159D01*
X187428677Y-227480087D01*
X187587427Y-227321337D01*
X187587427Y-225722087D01*
X187841427Y-225722087D01*
X187841427Y-227321337D01*
X188000177Y-227480087D01*
X188964427Y-227483159D01*
X189088909Y-227470899D01*
X189208607Y-227434589D01*
X189318921Y-227375624D01*
X189415612Y-227296272D01*
X189494964Y-227199581D01*
X189553929Y-227089267D01*
X189590239Y-226969569D01*
X189602499Y-226845087D01*
X189599427Y-225880837D01*
X189440677Y-225722087D01*
X187841427Y-225722087D01*
X187587427Y-225722087D01*
X185988177Y-225722087D01*
X185829427Y-225880837D01*
X185826355Y-226845087D01*
X184602499Y-226845087D01*
X184599427Y-225880837D01*
X184440677Y-225722087D01*
X182841427Y-225722087D01*
X182587427Y-225722087D01*
X180988177Y-225722087D01*
X180909702Y-225800562D01*
X180724227Y-225615087D01*
X207946355Y-225615087D01*
X207949427Y-226579337D01*
X208108177Y-226738087D01*
X209707427Y-226738087D01*
X209707427Y-225138837D01*
X209961427Y-225138837D01*
X209961427Y-226738087D01*
X211560677Y-226738087D01*
X211719427Y-226579337D01*
X211722499Y-225615087D01*
X212946355Y-225615087D01*
X212949427Y-226579337D01*
X213108177Y-226738087D01*
X214707427Y-226738087D01*
X214707427Y-225138837D01*
X214961427Y-225138837D01*
X214961427Y-226738087D01*
X216560677Y-226738087D01*
X216719427Y-226579337D01*
X216722499Y-225615087D01*
X230546355Y-225615087D01*
X230546355Y-228115087D01*
X230558615Y-228239569D01*
X230594925Y-228359267D01*
X230653890Y-228469581D01*
X230733242Y-228566272D01*
X230829933Y-228645624D01*
X230940247Y-228704589D01*
X231059945Y-228740899D01*
X231184427Y-228753159D01*
X233684427Y-228753159D01*
X233808909Y-228740899D01*
X233928607Y-228704589D01*
X234038921Y-228645624D01*
X234135612Y-228566272D01*
X234214964Y-228469581D01*
X234273929Y-228359267D01*
X234310239Y-228239569D01*
X234322499Y-228115087D01*
X234322499Y-225615087D01*
X234310239Y-225490605D01*
X234273929Y-225370907D01*
X234239084Y-225305718D01*
X234315000Y-225229802D01*
X234562615Y-225477417D01*
X234558615Y-225490605D01*
X234546355Y-225615087D01*
X234546355Y-228115087D01*
X234558615Y-228239569D01*
X234594925Y-228359267D01*
X234653890Y-228469581D01*
X234733242Y-228566272D01*
X234829933Y-228645624D01*
X234940247Y-228704589D01*
X235059945Y-228740899D01*
X235184427Y-228753159D01*
X237684427Y-228753159D01*
X237808909Y-228740899D01*
X237928607Y-228704589D01*
X238038921Y-228645624D01*
X238135612Y-228566272D01*
X238214964Y-228469581D01*
X238273929Y-228359267D01*
X238310239Y-228239569D01*
X238322499Y-228115087D01*
X238322499Y-227774913D01*
X240292501Y-227774913D01*
X240304761Y-227899395D01*
X240341071Y-228019093D01*
X240400036Y-228129407D01*
X240479388Y-228226098D01*
X240576079Y-228305450D01*
X240686393Y-228364415D01*
X240806091Y-228400725D01*
X240930573Y-228412985D01*
X241894823Y-228409913D01*
X242053573Y-228251163D01*
X242053573Y-226651913D01*
X242307573Y-226651913D01*
X242307573Y-228251163D01*
X242466323Y-228409913D01*
X243430573Y-228412985D01*
X243555055Y-228400725D01*
X243674753Y-228364415D01*
X243785067Y-228305450D01*
X243881758Y-228226098D01*
X243961110Y-228129407D01*
X244020075Y-228019093D01*
X244056385Y-227899395D01*
X244068645Y-227774913D01*
X245292501Y-227774913D01*
X245304761Y-227899395D01*
X245341071Y-228019093D01*
X245400036Y-228129407D01*
X245479388Y-228226098D01*
X245576079Y-228305450D01*
X245686393Y-228364415D01*
X245806091Y-228400725D01*
X245930573Y-228412985D01*
X246894823Y-228409913D01*
X247053573Y-228251163D01*
X247053573Y-226651913D01*
X247307573Y-226651913D01*
X247307573Y-228251163D01*
X247466323Y-228409913D01*
X248430573Y-228412985D01*
X248555055Y-228400725D01*
X248674753Y-228364415D01*
X248785067Y-228305450D01*
X248881758Y-228226098D01*
X248961110Y-228129407D01*
X248968764Y-228115087D01*
X251946355Y-228115087D01*
X251958615Y-228239569D01*
X251994925Y-228359267D01*
X252053890Y-228469581D01*
X252133242Y-228566272D01*
X252229933Y-228645624D01*
X252340247Y-228704589D01*
X252459945Y-228740899D01*
X252584427Y-228753159D01*
X253548677Y-228750087D01*
X253707427Y-228591337D01*
X253707427Y-226992087D01*
X253961427Y-226992087D01*
X253961427Y-228591337D01*
X254120177Y-228750087D01*
X255084427Y-228753159D01*
X255208909Y-228740899D01*
X255328607Y-228704589D01*
X255438921Y-228645624D01*
X255535612Y-228566272D01*
X255614964Y-228469581D01*
X255673929Y-228359267D01*
X255710239Y-228239569D01*
X255722499Y-228115087D01*
X256946355Y-228115087D01*
X256958615Y-228239569D01*
X256994925Y-228359267D01*
X257053890Y-228469581D01*
X257133242Y-228566272D01*
X257229933Y-228645624D01*
X257340247Y-228704589D01*
X257459945Y-228740899D01*
X257584427Y-228753159D01*
X258548677Y-228750087D01*
X258707427Y-228591337D01*
X258707427Y-226992087D01*
X258961427Y-226992087D01*
X258961427Y-228591337D01*
X259120177Y-228750087D01*
X260084427Y-228753159D01*
X260208909Y-228740899D01*
X260328607Y-228704589D01*
X260438921Y-228645624D01*
X260535612Y-228566272D01*
X260614964Y-228469581D01*
X260673929Y-228359267D01*
X260710239Y-228239569D01*
X260722499Y-228115087D01*
X260719427Y-227150837D01*
X260560677Y-226992087D01*
X258961427Y-226992087D01*
X258707427Y-226992087D01*
X257108177Y-226992087D01*
X256949427Y-227150837D01*
X256946355Y-228115087D01*
X255722499Y-228115087D01*
X255719427Y-227150837D01*
X255560677Y-226992087D01*
X253961427Y-226992087D01*
X253707427Y-226992087D01*
X252108177Y-226992087D01*
X251949427Y-227150837D01*
X251946355Y-228115087D01*
X248968764Y-228115087D01*
X249020075Y-228019093D01*
X249056385Y-227899395D01*
X249068645Y-227774913D01*
X249065573Y-226810663D01*
X248906823Y-226651913D01*
X247307573Y-226651913D01*
X247053573Y-226651913D01*
X245454323Y-226651913D01*
X245295573Y-226810663D01*
X245292501Y-227774913D01*
X244068645Y-227774913D01*
X244065573Y-226810663D01*
X243906823Y-226651913D01*
X242307573Y-226651913D01*
X242053573Y-226651913D01*
X240454323Y-226651913D01*
X240295573Y-226810663D01*
X240292501Y-227774913D01*
X238322499Y-227774913D01*
X238322499Y-225615087D01*
X238310239Y-225490605D01*
X238273929Y-225370907D01*
X238222619Y-225274913D01*
X240292501Y-225274913D01*
X240295573Y-226239163D01*
X240454323Y-226397913D01*
X242053573Y-226397913D01*
X242053573Y-224798663D01*
X242307573Y-224798663D01*
X242307573Y-226397913D01*
X243906823Y-226397913D01*
X244065573Y-226239163D01*
X244068645Y-225274913D01*
X245292501Y-225274913D01*
X245295573Y-226239163D01*
X245454323Y-226397913D01*
X247053573Y-226397913D01*
X247053573Y-224798663D01*
X247307573Y-224798663D01*
X247307573Y-226397913D01*
X248906823Y-226397913D01*
X249065573Y-226239163D01*
X249067561Y-225615087D01*
X251946355Y-225615087D01*
X251949427Y-226579337D01*
X252108177Y-226738087D01*
X253707427Y-226738087D01*
X253707427Y-225138837D01*
X253961427Y-225138837D01*
X253961427Y-226738087D01*
X255560677Y-226738087D01*
X255719427Y-226579337D01*
X255722499Y-225615087D01*
X256946355Y-225615087D01*
X256949427Y-226579337D01*
X257108177Y-226738087D01*
X258707427Y-226738087D01*
X258707427Y-225138837D01*
X258961427Y-225138837D01*
X258961427Y-226738087D01*
X260560677Y-226738087D01*
X260719427Y-226579337D01*
X260722499Y-225615087D01*
X260710239Y-225490605D01*
X260673929Y-225370907D01*
X260622619Y-225274913D01*
X262692501Y-225274913D01*
X262692501Y-227774913D01*
X262704761Y-227899395D01*
X262741071Y-228019093D01*
X262800036Y-228129407D01*
X262879388Y-228226098D01*
X262976079Y-228305450D01*
X263086393Y-228364415D01*
X263206091Y-228400725D01*
X263330573Y-228412985D01*
X264803183Y-228412985D01*
X265665000Y-229274803D01*
X265665000Y-229336939D01*
X265704774Y-229536898D01*
X265782795Y-229725256D01*
X265896063Y-229894774D01*
X266040226Y-230038937D01*
X266209744Y-230152205D01*
X266398102Y-230230226D01*
X266598061Y-230270000D01*
X266801939Y-230270000D01*
X267001898Y-230230226D01*
X267190256Y-230152205D01*
X267359774Y-230038937D01*
X267503937Y-229894774D01*
X267617205Y-229725256D01*
X267695226Y-229536898D01*
X267735000Y-229336939D01*
X267735000Y-229274801D01*
X268596817Y-228412985D01*
X269830573Y-228412985D01*
X269955055Y-228400725D01*
X270074753Y-228364415D01*
X270185067Y-228305450D01*
X270281758Y-228226098D01*
X270361110Y-228129407D01*
X270420075Y-228019093D01*
X270456385Y-227899395D01*
X270468645Y-227774913D01*
X284292501Y-227774913D01*
X284304761Y-227899395D01*
X284341071Y-228019093D01*
X284400036Y-228129407D01*
X284479388Y-228226098D01*
X284576079Y-228305450D01*
X284686393Y-228364415D01*
X284806091Y-228400725D01*
X284930573Y-228412985D01*
X285894823Y-228409913D01*
X286053573Y-228251163D01*
X286053573Y-226651913D01*
X286307573Y-226651913D01*
X286307573Y-228251163D01*
X286466323Y-228409913D01*
X287430573Y-228412985D01*
X287555055Y-228400725D01*
X287674753Y-228364415D01*
X287785067Y-228305450D01*
X287881758Y-228226098D01*
X287961110Y-228129407D01*
X288020075Y-228019093D01*
X288056385Y-227899395D01*
X288068645Y-227774913D01*
X289292501Y-227774913D01*
X289304761Y-227899395D01*
X289341071Y-228019093D01*
X289400036Y-228129407D01*
X289479388Y-228226098D01*
X289576079Y-228305450D01*
X289686393Y-228364415D01*
X289806091Y-228400725D01*
X289930573Y-228412985D01*
X290894823Y-228409913D01*
X291053573Y-228251163D01*
X291053573Y-226651913D01*
X291307573Y-226651913D01*
X291307573Y-228251163D01*
X291466323Y-228409913D01*
X292430573Y-228412985D01*
X292555055Y-228400725D01*
X292674753Y-228364415D01*
X292785067Y-228305450D01*
X292881758Y-228226098D01*
X292961110Y-228129407D01*
X293020075Y-228019093D01*
X293056385Y-227899395D01*
X293068645Y-227774913D01*
X293065573Y-226810663D01*
X292906823Y-226651913D01*
X291307573Y-226651913D01*
X291053573Y-226651913D01*
X289454323Y-226651913D01*
X289295573Y-226810663D01*
X289292501Y-227774913D01*
X288068645Y-227774913D01*
X288065573Y-226810663D01*
X287906823Y-226651913D01*
X286307573Y-226651913D01*
X286053573Y-226651913D01*
X284454323Y-226651913D01*
X284295573Y-226810663D01*
X284292501Y-227774913D01*
X270468645Y-227774913D01*
X270468645Y-226593061D01*
X300590000Y-226593061D01*
X300590000Y-226796939D01*
X300629774Y-226996898D01*
X300707795Y-227185256D01*
X300821063Y-227354774D01*
X300965226Y-227498937D01*
X301134744Y-227612205D01*
X301323102Y-227690226D01*
X301523061Y-227730000D01*
X301585199Y-227730000D01*
X302447015Y-228591817D01*
X302447015Y-230460573D01*
X302459275Y-230585055D01*
X302495585Y-230704753D01*
X302554550Y-230815067D01*
X302633902Y-230911758D01*
X302730593Y-230991110D01*
X302840907Y-231050075D01*
X302960605Y-231086385D01*
X303085087Y-231098645D01*
X305585087Y-231098645D01*
X305709569Y-231086385D01*
X305829267Y-231050075D01*
X305939581Y-230991110D01*
X306036272Y-230911758D01*
X306115624Y-230815067D01*
X306174589Y-230704753D01*
X306210899Y-230585055D01*
X306223159Y-230460573D01*
X306223159Y-227960573D01*
X306210899Y-227836091D01*
X306174589Y-227716393D01*
X306115624Y-227606079D01*
X306036272Y-227509388D01*
X305939581Y-227430036D01*
X305829267Y-227371071D01*
X305709569Y-227334761D01*
X305585087Y-227322501D01*
X303327303Y-227322501D01*
X303103447Y-227098645D01*
X305585087Y-227098645D01*
X305709569Y-227086385D01*
X305829267Y-227050075D01*
X305939581Y-226991110D01*
X306036272Y-226911758D01*
X306115624Y-226815067D01*
X306174589Y-226704753D01*
X306210899Y-226585055D01*
X306223159Y-226460573D01*
X306223159Y-223960573D01*
X306210899Y-223836091D01*
X306174589Y-223716393D01*
X306115624Y-223606079D01*
X306036272Y-223509388D01*
X305939581Y-223430036D01*
X305829267Y-223371071D01*
X305709569Y-223334761D01*
X305585087Y-223322501D01*
X303085087Y-223322501D01*
X302960605Y-223334761D01*
X302840907Y-223371071D01*
X302730593Y-223430036D01*
X302633902Y-223509388D01*
X302554550Y-223606079D01*
X302495585Y-223716393D01*
X302459275Y-223836091D01*
X302447015Y-223960573D01*
X302447015Y-224798183D01*
X301585199Y-225660000D01*
X301523061Y-225660000D01*
X301323102Y-225699774D01*
X301134744Y-225777795D01*
X300965226Y-225891063D01*
X300821063Y-226035226D01*
X300707795Y-226204744D01*
X300629774Y-226393102D01*
X300590000Y-226593061D01*
X270468645Y-226593061D01*
X270468645Y-225274913D01*
X284292501Y-225274913D01*
X284295573Y-226239163D01*
X284454323Y-226397913D01*
X286053573Y-226397913D01*
X286053573Y-224798663D01*
X286307573Y-224798663D01*
X286307573Y-226397913D01*
X287906823Y-226397913D01*
X288065573Y-226239163D01*
X288068645Y-225274913D01*
X289292501Y-225274913D01*
X289295573Y-226239163D01*
X289454323Y-226397913D01*
X291053573Y-226397913D01*
X291053573Y-224798663D01*
X291307573Y-224798663D01*
X291307573Y-226397913D01*
X292906823Y-226397913D01*
X293065573Y-226239163D01*
X293068645Y-225274913D01*
X293056385Y-225150431D01*
X293020075Y-225030733D01*
X292961110Y-224920419D01*
X292881758Y-224823728D01*
X292785067Y-224744376D01*
X292674753Y-224685411D01*
X292555055Y-224649101D01*
X292430573Y-224636841D01*
X291466323Y-224639913D01*
X291307573Y-224798663D01*
X291053573Y-224798663D01*
X290894823Y-224639913D01*
X289930573Y-224636841D01*
X289806091Y-224649101D01*
X289686393Y-224685411D01*
X289576079Y-224744376D01*
X289479388Y-224823728D01*
X289400036Y-224920419D01*
X289341071Y-225030733D01*
X289304761Y-225150431D01*
X289292501Y-225274913D01*
X288068645Y-225274913D01*
X288056385Y-225150431D01*
X288020075Y-225030733D01*
X287961110Y-224920419D01*
X287881758Y-224823728D01*
X287785067Y-224744376D01*
X287674753Y-224685411D01*
X287555055Y-224649101D01*
X287430573Y-224636841D01*
X286466323Y-224639913D01*
X286307573Y-224798663D01*
X286053573Y-224798663D01*
X285894823Y-224639913D01*
X284930573Y-224636841D01*
X284806091Y-224649101D01*
X284686393Y-224685411D01*
X284576079Y-224744376D01*
X284479388Y-224823728D01*
X284400036Y-224920419D01*
X284341071Y-225030733D01*
X284304761Y-225150431D01*
X284292501Y-225274913D01*
X270468645Y-225274913D01*
X270456385Y-225150431D01*
X270420075Y-225030733D01*
X270361110Y-224920419D01*
X270281758Y-224823728D01*
X270185067Y-224744376D01*
X270074753Y-224685411D01*
X269955055Y-224649101D01*
X269830573Y-224636841D01*
X267330573Y-224636841D01*
X267206091Y-224649101D01*
X267086393Y-224685411D01*
X266976079Y-224744376D01*
X266879388Y-224823728D01*
X266800036Y-224920419D01*
X266741071Y-225030733D01*
X266704761Y-225150431D01*
X266692501Y-225274913D01*
X266692501Y-227774913D01*
X266704761Y-227899395D01*
X266741071Y-228019093D01*
X266775916Y-228084283D01*
X266700001Y-228160198D01*
X266452385Y-227912582D01*
X266456385Y-227899395D01*
X266468645Y-227774913D01*
X266468645Y-225274913D01*
X266456385Y-225150431D01*
X266420075Y-225030733D01*
X266361110Y-224920419D01*
X266281758Y-224823728D01*
X266185067Y-224744376D01*
X266074753Y-224685411D01*
X265955055Y-224649101D01*
X265830573Y-224636841D01*
X263330573Y-224636841D01*
X263206091Y-224649101D01*
X263086393Y-224685411D01*
X262976079Y-224744376D01*
X262879388Y-224823728D01*
X262800036Y-224920419D01*
X262741071Y-225030733D01*
X262704761Y-225150431D01*
X262692501Y-225274913D01*
X260622619Y-225274913D01*
X260614964Y-225260593D01*
X260535612Y-225163902D01*
X260438921Y-225084550D01*
X260328607Y-225025585D01*
X260208909Y-224989275D01*
X260084427Y-224977015D01*
X259120177Y-224980087D01*
X258961427Y-225138837D01*
X258707427Y-225138837D01*
X258548677Y-224980087D01*
X257584427Y-224977015D01*
X257459945Y-224989275D01*
X257340247Y-225025585D01*
X257229933Y-225084550D01*
X257133242Y-225163902D01*
X257053890Y-225260593D01*
X256994925Y-225370907D01*
X256958615Y-225490605D01*
X256946355Y-225615087D01*
X255722499Y-225615087D01*
X255710239Y-225490605D01*
X255673929Y-225370907D01*
X255614964Y-225260593D01*
X255535612Y-225163902D01*
X255438921Y-225084550D01*
X255328607Y-225025585D01*
X255208909Y-224989275D01*
X255084427Y-224977015D01*
X254120177Y-224980087D01*
X253961427Y-225138837D01*
X253707427Y-225138837D01*
X253548677Y-224980087D01*
X252584427Y-224977015D01*
X252459945Y-224989275D01*
X252340247Y-225025585D01*
X252229933Y-225084550D01*
X252133242Y-225163902D01*
X252053890Y-225260593D01*
X251994925Y-225370907D01*
X251958615Y-225490605D01*
X251946355Y-225615087D01*
X249067561Y-225615087D01*
X249068645Y-225274913D01*
X249056385Y-225150431D01*
X249020075Y-225030733D01*
X248961110Y-224920419D01*
X248881758Y-224823728D01*
X248785067Y-224744376D01*
X248674753Y-224685411D01*
X248555055Y-224649101D01*
X248430573Y-224636841D01*
X247466323Y-224639913D01*
X247307573Y-224798663D01*
X247053573Y-224798663D01*
X246894823Y-224639913D01*
X245930573Y-224636841D01*
X245806091Y-224649101D01*
X245686393Y-224685411D01*
X245576079Y-224744376D01*
X245479388Y-224823728D01*
X245400036Y-224920419D01*
X245341071Y-225030733D01*
X245304761Y-225150431D01*
X245292501Y-225274913D01*
X244068645Y-225274913D01*
X244056385Y-225150431D01*
X244020075Y-225030733D01*
X243961110Y-224920419D01*
X243881758Y-224823728D01*
X243785067Y-224744376D01*
X243674753Y-224685411D01*
X243555055Y-224649101D01*
X243430573Y-224636841D01*
X242466323Y-224639913D01*
X242307573Y-224798663D01*
X242053573Y-224798663D01*
X241894823Y-224639913D01*
X240930573Y-224636841D01*
X240806091Y-224649101D01*
X240686393Y-224685411D01*
X240576079Y-224744376D01*
X240479388Y-224823728D01*
X240400036Y-224920419D01*
X240341071Y-225030733D01*
X240304761Y-225150431D01*
X240292501Y-225274913D01*
X238222619Y-225274913D01*
X238214964Y-225260593D01*
X238135612Y-225163902D01*
X238038921Y-225084550D01*
X237928607Y-225025585D01*
X237808909Y-224989275D01*
X237684427Y-224977015D01*
X236211817Y-224977015D01*
X235350000Y-224115199D01*
X235350000Y-224053061D01*
X235310226Y-223853102D01*
X235232205Y-223664744D01*
X235118937Y-223495226D01*
X234974774Y-223351063D01*
X234805256Y-223237795D01*
X234616898Y-223159774D01*
X234416939Y-223120000D01*
X234213061Y-223120000D01*
X234013102Y-223159774D01*
X233824744Y-223237795D01*
X233655226Y-223351063D01*
X233511063Y-223495226D01*
X233397795Y-223664744D01*
X233319774Y-223853102D01*
X233280000Y-224053061D01*
X233280000Y-224115198D01*
X232418184Y-224977015D01*
X231184427Y-224977015D01*
X231059945Y-224989275D01*
X230940247Y-225025585D01*
X230829933Y-225084550D01*
X230733242Y-225163902D01*
X230653890Y-225260593D01*
X230594925Y-225370907D01*
X230558615Y-225490605D01*
X230546355Y-225615087D01*
X216722499Y-225615087D01*
X216710239Y-225490605D01*
X216673929Y-225370907D01*
X216614964Y-225260593D01*
X216535612Y-225163902D01*
X216438921Y-225084550D01*
X216328607Y-225025585D01*
X216208909Y-224989275D01*
X216084427Y-224977015D01*
X215120177Y-224980087D01*
X214961427Y-225138837D01*
X214707427Y-225138837D01*
X214548677Y-224980087D01*
X213584427Y-224977015D01*
X213459945Y-224989275D01*
X213340247Y-225025585D01*
X213229933Y-225084550D01*
X213133242Y-225163902D01*
X213053890Y-225260593D01*
X212994925Y-225370907D01*
X212958615Y-225490605D01*
X212946355Y-225615087D01*
X211722499Y-225615087D01*
X211710239Y-225490605D01*
X211673929Y-225370907D01*
X211614964Y-225260593D01*
X211535612Y-225163902D01*
X211438921Y-225084550D01*
X211328607Y-225025585D01*
X211208909Y-224989275D01*
X211084427Y-224977015D01*
X210120177Y-224980087D01*
X209961427Y-225138837D01*
X209707427Y-225138837D01*
X209548677Y-224980087D01*
X208584427Y-224977015D01*
X208459945Y-224989275D01*
X208340247Y-225025585D01*
X208229933Y-225084550D01*
X208133242Y-225163902D01*
X208053890Y-225260593D01*
X207994925Y-225370907D01*
X207958615Y-225490605D01*
X207946355Y-225615087D01*
X180724227Y-225615087D01*
X179454227Y-224345087D01*
X180826355Y-224345087D01*
X180829427Y-225309337D01*
X180988177Y-225468087D01*
X182587427Y-225468087D01*
X182587427Y-223868837D01*
X182841427Y-223868837D01*
X182841427Y-225468087D01*
X184440677Y-225468087D01*
X184599427Y-225309337D01*
X184602499Y-224345087D01*
X185826355Y-224345087D01*
X185829427Y-225309337D01*
X185988177Y-225468087D01*
X187587427Y-225468087D01*
X187587427Y-223868837D01*
X187841427Y-223868837D01*
X187841427Y-225468087D01*
X189440677Y-225468087D01*
X189599427Y-225309337D01*
X189602499Y-224345087D01*
X189590239Y-224220605D01*
X189553929Y-224100907D01*
X189494964Y-223990593D01*
X189415612Y-223893902D01*
X189318921Y-223814550D01*
X189208607Y-223755585D01*
X189088909Y-223719275D01*
X188964427Y-223707015D01*
X188000177Y-223710087D01*
X187841427Y-223868837D01*
X187587427Y-223868837D01*
X187428677Y-223710087D01*
X186464427Y-223707015D01*
X186339945Y-223719275D01*
X186220247Y-223755585D01*
X186109933Y-223814550D01*
X186013242Y-223893902D01*
X185933890Y-223990593D01*
X185874925Y-224100907D01*
X185838615Y-224220605D01*
X185826355Y-224345087D01*
X184602499Y-224345087D01*
X184590239Y-224220605D01*
X184553929Y-224100907D01*
X184494964Y-223990593D01*
X184415612Y-223893902D01*
X184318921Y-223814550D01*
X184208607Y-223755585D01*
X184088909Y-223719275D01*
X183964427Y-223707015D01*
X183000177Y-223710087D01*
X182841427Y-223868837D01*
X182587427Y-223868837D01*
X182428677Y-223710087D01*
X181464427Y-223707015D01*
X181339945Y-223719275D01*
X181220247Y-223755585D01*
X181109933Y-223814550D01*
X181013242Y-223893902D01*
X180933890Y-223990593D01*
X180874925Y-224100907D01*
X180838615Y-224220605D01*
X180826355Y-224345087D01*
X179454227Y-224345087D01*
X173737758Y-218628619D01*
X173755000Y-218541939D01*
X173755000Y-218338061D01*
X173715226Y-218138102D01*
X173637205Y-217949744D01*
X173523937Y-217780226D01*
X173379774Y-217636063D01*
X173210256Y-217522795D01*
X173021898Y-217444774D01*
X172821939Y-217405000D01*
X172618061Y-217405000D01*
X172418102Y-217444774D01*
X172229744Y-217522795D01*
X172060226Y-217636063D01*
X171916063Y-217780226D01*
X171802795Y-217949744D01*
X171724774Y-218138102D01*
X171685000Y-218338061D01*
X150496415Y-218338061D01*
X150838824Y-217340661D01*
X151020505Y-216251905D01*
X151020505Y-215148095D01*
X150838824Y-214059339D01*
X150480417Y-213015336D01*
X149955062Y-212044564D01*
X149277087Y-211173502D01*
X148464987Y-210425912D01*
X147540914Y-209822185D01*
X146530074Y-209378789D01*
X145460040Y-209107820D01*
X144889855Y-209060573D01*
X302447015Y-209060573D01*
X302459275Y-209185055D01*
X302495585Y-209304753D01*
X302554550Y-209415067D01*
X302633902Y-209511758D01*
X302730593Y-209591110D01*
X302840907Y-209650075D01*
X302960605Y-209686385D01*
X303085087Y-209698645D01*
X304049337Y-209695573D01*
X304208087Y-209536823D01*
X304208087Y-207937573D01*
X304462087Y-207937573D01*
X304462087Y-209536823D01*
X304620837Y-209695573D01*
X305585087Y-209698645D01*
X305709569Y-209686385D01*
X305829267Y-209650075D01*
X305939581Y-209591110D01*
X306036272Y-209511758D01*
X306115624Y-209415067D01*
X306174589Y-209304753D01*
X306210899Y-209185055D01*
X306223159Y-209060573D01*
X306220087Y-208096323D01*
X306061337Y-207937573D01*
X304462087Y-207937573D01*
X304208087Y-207937573D01*
X302608837Y-207937573D01*
X302450087Y-208096323D01*
X302447015Y-209060573D01*
X144889855Y-209060573D01*
X144360000Y-209016668D01*
X143259960Y-209107820D01*
X142189926Y-209378789D01*
X141179086Y-209822185D01*
X140255013Y-210425912D01*
X139442913Y-211173502D01*
X138764938Y-212044564D01*
X138239583Y-213015336D01*
X137881176Y-214059339D01*
X137699495Y-215148095D01*
X127127000Y-215148095D01*
X127127000Y-206560573D01*
X302447015Y-206560573D01*
X302450087Y-207524823D01*
X302608837Y-207683573D01*
X304208087Y-207683573D01*
X304208087Y-206084323D01*
X304462087Y-206084323D01*
X304462087Y-207683573D01*
X306061337Y-207683573D01*
X306220087Y-207524823D01*
X306223159Y-206560573D01*
X306210899Y-206436091D01*
X306174589Y-206316393D01*
X306115624Y-206206079D01*
X306036272Y-206109388D01*
X305939581Y-206030036D01*
X305829267Y-205971071D01*
X305709569Y-205934761D01*
X305585087Y-205922501D01*
X304620837Y-205925573D01*
X304462087Y-206084323D01*
X304208087Y-206084323D01*
X304049337Y-205925573D01*
X303085087Y-205922501D01*
X302960605Y-205934761D01*
X302840907Y-205971071D01*
X302730593Y-206030036D01*
X302633902Y-206109388D01*
X302554550Y-206206079D01*
X302495585Y-206316393D01*
X302459275Y-206436091D01*
X302447015Y-206560573D01*
X127127000Y-206560573D01*
X127127000Y-204060573D01*
X302447015Y-204060573D01*
X302459275Y-204185055D01*
X302495585Y-204304753D01*
X302554550Y-204415067D01*
X302633902Y-204511758D01*
X302730593Y-204591110D01*
X302840907Y-204650075D01*
X302960605Y-204686385D01*
X303085087Y-204698645D01*
X304049337Y-204695573D01*
X304208087Y-204536823D01*
X304208087Y-202937573D01*
X304462087Y-202937573D01*
X304462087Y-204536823D01*
X304620837Y-204695573D01*
X305585087Y-204698645D01*
X305709569Y-204686385D01*
X305829267Y-204650075D01*
X305939581Y-204591110D01*
X306036272Y-204511758D01*
X306115624Y-204415067D01*
X306174589Y-204304753D01*
X306210899Y-204185055D01*
X306223159Y-204060573D01*
X306220087Y-203096323D01*
X306061337Y-202937573D01*
X304462087Y-202937573D01*
X304208087Y-202937573D01*
X302608837Y-202937573D01*
X302450087Y-203096323D01*
X302447015Y-204060573D01*
X127127000Y-204060573D01*
X127127000Y-201560573D01*
X302447015Y-201560573D01*
X302450087Y-202524823D01*
X302608837Y-202683573D01*
X304208087Y-202683573D01*
X304208087Y-201084323D01*
X304462087Y-201084323D01*
X304462087Y-202683573D01*
X306061337Y-202683573D01*
X306220087Y-202524823D01*
X306223159Y-201560573D01*
X306210899Y-201436091D01*
X306174589Y-201316393D01*
X306115624Y-201206079D01*
X306036272Y-201109388D01*
X305939581Y-201030036D01*
X305829267Y-200971071D01*
X305709569Y-200934761D01*
X305585087Y-200922501D01*
X304620837Y-200925573D01*
X304462087Y-201084323D01*
X304208087Y-201084323D01*
X304049337Y-200925573D01*
X303085087Y-200922501D01*
X302960605Y-200934761D01*
X302840907Y-200971071D01*
X302730593Y-201030036D01*
X302633902Y-201109388D01*
X302554550Y-201206079D01*
X302495585Y-201316393D01*
X302459275Y-201436091D01*
X302447015Y-201560573D01*
X127127000Y-201560573D01*
X127127000Y-197667582D01*
X346100000Y-197667582D01*
X346100001Y-255932419D01*
X346102367Y-255956446D01*
X346154339Y-256664145D01*
X346156856Y-256679518D01*
X346157346Y-256695097D01*
X346170802Y-256769881D01*
X346374171Y-257616974D01*
X346380792Y-257636649D01*
X346385111Y-257656967D01*
X346411598Y-257728186D01*
X346761760Y-258525879D01*
X346771764Y-258544077D01*
X346779610Y-258563302D01*
X346818289Y-258628705D01*
X347304177Y-259351782D01*
X347317242Y-259367916D01*
X347328371Y-259385452D01*
X347378021Y-259442972D01*
X347984275Y-260068578D01*
X347999994Y-260082146D01*
X348014050Y-260097432D01*
X348073102Y-260145251D01*
X348780560Y-260653611D01*
X348798430Y-260664179D01*
X348814973Y-260676736D01*
X348881560Y-260713342D01*
X349667859Y-261088388D01*
X349687321Y-261095626D01*
X349705825Y-261105054D01*
X349777841Y-261129290D01*
X350618129Y-261359166D01*
X350638566Y-261362843D01*
X350658445Y-261368845D01*
X350733614Y-261379945D01*
X351598360Y-261457122D01*
X351627581Y-261460000D01*
X431892419Y-261460000D01*
X431916486Y-261457630D01*
X432624145Y-261405661D01*
X432639518Y-261403144D01*
X432655097Y-261402654D01*
X432729881Y-261389198D01*
X433576974Y-261185829D01*
X433596649Y-261179208D01*
X433616967Y-261174889D01*
X433688186Y-261148402D01*
X434485879Y-260798240D01*
X434504077Y-260788236D01*
X434523302Y-260780390D01*
X434588705Y-260741711D01*
X435311782Y-260255823D01*
X435327916Y-260242758D01*
X435345452Y-260231629D01*
X435402972Y-260181979D01*
X436028578Y-259575725D01*
X436042146Y-259560006D01*
X436057432Y-259545950D01*
X436105251Y-259486898D01*
X436613611Y-258779440D01*
X436624179Y-258761570D01*
X436636736Y-258745027D01*
X436673342Y-258678440D01*
X437048388Y-257892141D01*
X437055626Y-257872679D01*
X437065054Y-257854175D01*
X437089290Y-257782159D01*
X437319166Y-256941871D01*
X437322843Y-256921434D01*
X437328845Y-256901555D01*
X437339945Y-256826386D01*
X437417122Y-255961640D01*
X437420000Y-255932419D01*
X437420000Y-197667581D01*
X437417629Y-197643511D01*
X437365662Y-196935855D01*
X437363143Y-196920475D01*
X437362654Y-196904903D01*
X437349198Y-196830119D01*
X437145829Y-195983025D01*
X437139207Y-195963349D01*
X437134889Y-195943033D01*
X437108403Y-195871814D01*
X436758240Y-195074122D01*
X436748237Y-195055926D01*
X436740390Y-195036698D01*
X436701711Y-194971295D01*
X436215823Y-194248218D01*
X436202757Y-194232083D01*
X436191629Y-194214548D01*
X436141991Y-194157043D01*
X436141978Y-194157027D01*
X436141972Y-194157022D01*
X435535725Y-193531422D01*
X435520006Y-193517854D01*
X435505950Y-193502568D01*
X435446898Y-193454749D01*
X434739440Y-192946389D01*
X434721566Y-192935818D01*
X434705026Y-192923264D01*
X434638440Y-192886658D01*
X433852140Y-192511612D01*
X433832681Y-192504375D01*
X433814175Y-192494946D01*
X433742159Y-192470710D01*
X432901871Y-192240834D01*
X432881436Y-192237157D01*
X432861556Y-192231155D01*
X432786386Y-192220055D01*
X431921640Y-192142878D01*
X431892419Y-192140000D01*
X351627581Y-192140000D01*
X351603511Y-192142371D01*
X350895855Y-192194338D01*
X350880475Y-192196857D01*
X350864903Y-192197346D01*
X350790119Y-192210802D01*
X349943025Y-192414171D01*
X349923349Y-192420793D01*
X349903033Y-192425111D01*
X349831814Y-192451597D01*
X349034122Y-192801760D01*
X349015926Y-192811763D01*
X348996698Y-192819610D01*
X348931295Y-192858289D01*
X348208218Y-193344177D01*
X348192083Y-193357243D01*
X348174548Y-193368371D01*
X348117043Y-193418009D01*
X348117027Y-193418022D01*
X348117022Y-193418028D01*
X347491422Y-194024275D01*
X347477854Y-194039994D01*
X347462568Y-194054050D01*
X347414749Y-194113102D01*
X346906389Y-194820560D01*
X346895818Y-194838434D01*
X346883264Y-194854974D01*
X346846658Y-194921560D01*
X346471612Y-195707860D01*
X346464375Y-195727319D01*
X346454946Y-195745825D01*
X346430710Y-195817841D01*
X346200834Y-196658129D01*
X346197157Y-196678564D01*
X346191155Y-196698444D01*
X346180055Y-196773614D01*
X346102877Y-197638371D01*
X346100000Y-197667582D01*
X127127000Y-197667582D01*
X127127000Y-189385331D01*
X127788090Y-189385331D01*
X127788090Y-189714669D01*
X127852340Y-190037678D01*
X127978372Y-190341947D01*
X128161342Y-190615781D01*
X128394219Y-190848658D01*
X128668053Y-191031628D01*
X128972322Y-191157660D01*
X129295331Y-191221910D01*
X129624669Y-191221910D01*
X129947678Y-191157660D01*
X130251947Y-191031628D01*
X130525781Y-190848658D01*
X130758658Y-190615781D01*
X130941628Y-190341947D01*
X131067660Y-190037678D01*
X131131910Y-189714669D01*
X131131910Y-189385331D01*
X131067660Y-189062322D01*
X130941628Y-188758053D01*
X130758658Y-188484219D01*
X130525781Y-188251342D01*
X130251947Y-188068372D01*
X129947678Y-187942340D01*
X129624669Y-187878090D01*
X129295331Y-187878090D01*
X128972322Y-187942340D01*
X128668053Y-188068372D01*
X128394219Y-188251342D01*
X128161342Y-188484219D01*
X127978372Y-188758053D01*
X127852340Y-189062322D01*
X127788090Y-189385331D01*
X127127000Y-189385331D01*
X127127000Y-186182000D01*
X135590000Y-186182000D01*
X135590001Y-191267571D01*
G04 #@! TA.AperFunction,Conductor*
D14*
G36*
X135590001Y-191267571D02*
G01*
X135586807Y-191300000D01*
X135599550Y-191429383D01*
X135637290Y-191553793D01*
X135698575Y-191668450D01*
X135781052Y-191768948D01*
X135881550Y-191851425D01*
X135996207Y-191912710D01*
X136120617Y-191950450D01*
X136217581Y-191960000D01*
X136250000Y-191963193D01*
X136282419Y-191960000D01*
X147217581Y-191960000D01*
X147250000Y-191963193D01*
X147282419Y-191960000D01*
X147379383Y-191950450D01*
X147503793Y-191912710D01*
X147618450Y-191851425D01*
X147718948Y-191768948D01*
X147801425Y-191668450D01*
X147862710Y-191553793D01*
X147900450Y-191429383D01*
X147913193Y-191300000D01*
X147910000Y-191267581D01*
X147910000Y-189409835D01*
X194036886Y-189409835D01*
X194036886Y-189690165D01*
X194091575Y-189965107D01*
X194198853Y-190224097D01*
X194354595Y-190457182D01*
X194552818Y-190655405D01*
X194785903Y-190811147D01*
X195044893Y-190918425D01*
X195319835Y-190973114D01*
X195600165Y-190973114D01*
X195875107Y-190918425D01*
X196134097Y-190811147D01*
X196367182Y-190655405D01*
X196565405Y-190457182D01*
X196721147Y-190224097D01*
X196828425Y-189965107D01*
X196883114Y-189690165D01*
X196883114Y-189409835D01*
X336886886Y-189409835D01*
X336886886Y-189690165D01*
X336941575Y-189965107D01*
X337048853Y-190224097D01*
X337204595Y-190457182D01*
X337402818Y-190655405D01*
X337635903Y-190811147D01*
X337894893Y-190918425D01*
X338169835Y-190973114D01*
X338450165Y-190973114D01*
X338725107Y-190918425D01*
X338984097Y-190811147D01*
X339217182Y-190655405D01*
X339415405Y-190457182D01*
X339571147Y-190224097D01*
X339678425Y-189965107D01*
X339733114Y-189690165D01*
X339733114Y-189409835D01*
X339728240Y-189385331D01*
X448938090Y-189385331D01*
X448938090Y-189714669D01*
X449002340Y-190037678D01*
X449128372Y-190341947D01*
X449311342Y-190615781D01*
X449544219Y-190848658D01*
X449818053Y-191031628D01*
X450122322Y-191157660D01*
X450445331Y-191221910D01*
X450774669Y-191221910D01*
X451097678Y-191157660D01*
X451401947Y-191031628D01*
X451675781Y-190848658D01*
X451908658Y-190615781D01*
X452091628Y-190341947D01*
X452217660Y-190037678D01*
X452281910Y-189714669D01*
X452281910Y-189385331D01*
X452217660Y-189062322D01*
X452091628Y-188758053D01*
X451908658Y-188484219D01*
X451675781Y-188251342D01*
X451401947Y-188068372D01*
X451097678Y-187942340D01*
X450774669Y-187878090D01*
X450445331Y-187878090D01*
X450122322Y-187942340D01*
X449818053Y-188068372D01*
X449544219Y-188251342D01*
X449311342Y-188484219D01*
X449128372Y-188758053D01*
X449002340Y-189062322D01*
X448938090Y-189385331D01*
X339728240Y-189385331D01*
X339678425Y-189134893D01*
X339571147Y-188875903D01*
X339415405Y-188642818D01*
X339217182Y-188444595D01*
X338984097Y-188288853D01*
X338725107Y-188181575D01*
X338450165Y-188126886D01*
X338169835Y-188126886D01*
X337894893Y-188181575D01*
X337635903Y-188288853D01*
X337402818Y-188444595D01*
X337204595Y-188642818D01*
X337048853Y-188875903D01*
X336941575Y-189134893D01*
X336886886Y-189409835D01*
X196883114Y-189409835D01*
X196828425Y-189134893D01*
X196721147Y-188875903D01*
X196565405Y-188642818D01*
X196367182Y-188444595D01*
X196134097Y-188288853D01*
X195875107Y-188181575D01*
X195600165Y-188126886D01*
X195319835Y-188126886D01*
X195044893Y-188181575D01*
X194785903Y-188288853D01*
X194552818Y-188444595D01*
X194354595Y-188642818D01*
X194198853Y-188875903D01*
X194091575Y-189134893D01*
X194036886Y-189409835D01*
X147910000Y-189409835D01*
X147910000Y-186182000D01*
X453100001Y-186182000D01*
X453100000Y-267208000D01*
X127127000Y-267208000D01*
X127127000Y-263885331D01*
X127788090Y-263885331D01*
X127788090Y-264214669D01*
X127852340Y-264537678D01*
X127978372Y-264841947D01*
X128161342Y-265115781D01*
X128394219Y-265348658D01*
X128668053Y-265531628D01*
X128972322Y-265657660D01*
X129295331Y-265721910D01*
X129624669Y-265721910D01*
X129947678Y-265657660D01*
X130251947Y-265531628D01*
X130525781Y-265348658D01*
X130758658Y-265115781D01*
X130941628Y-264841947D01*
X131067660Y-264537678D01*
X131131910Y-264214669D01*
X131131910Y-263909835D01*
X194036886Y-263909835D01*
X194036886Y-264190165D01*
X194091575Y-264465107D01*
X194198853Y-264724097D01*
X194354595Y-264957182D01*
X194552818Y-265155405D01*
X194785903Y-265311147D01*
X195044893Y-265418425D01*
X195319835Y-265473114D01*
X195600165Y-265473114D01*
X195875107Y-265418425D01*
X196134097Y-265311147D01*
X196367182Y-265155405D01*
X196565405Y-264957182D01*
X196721147Y-264724097D01*
X196828425Y-264465107D01*
X196883114Y-264190165D01*
X196883114Y-263909835D01*
X336886886Y-263909835D01*
X336886886Y-264190165D01*
X336941575Y-264465107D01*
X337048853Y-264724097D01*
X337204595Y-264957182D01*
X337402818Y-265155405D01*
X337635903Y-265311147D01*
X337894893Y-265418425D01*
X338169835Y-265473114D01*
X338450165Y-265473114D01*
X338725107Y-265418425D01*
X338984097Y-265311147D01*
X339217182Y-265155405D01*
X339415405Y-264957182D01*
X339571147Y-264724097D01*
X339678425Y-264465107D01*
X339733114Y-264190165D01*
X339733114Y-263909835D01*
X339728240Y-263885331D01*
X448938090Y-263885331D01*
X448938090Y-264214669D01*
X449002340Y-264537678D01*
X449128372Y-264841947D01*
X449311342Y-265115781D01*
X449544219Y-265348658D01*
X449818053Y-265531628D01*
X450122322Y-265657660D01*
X450445331Y-265721910D01*
X450774669Y-265721910D01*
X451097678Y-265657660D01*
X451401947Y-265531628D01*
X451675781Y-265348658D01*
X451908658Y-265115781D01*
X452091628Y-264841947D01*
X452217660Y-264537678D01*
X452281910Y-264214669D01*
X452281910Y-263885331D01*
X452217660Y-263562322D01*
X452091628Y-263258053D01*
X451908658Y-262984219D01*
X451675781Y-262751342D01*
X451401947Y-262568372D01*
X451097678Y-262442340D01*
X450774669Y-262378090D01*
X450445331Y-262378090D01*
X450122322Y-262442340D01*
X449818053Y-262568372D01*
X449544219Y-262751342D01*
X449311342Y-262984219D01*
X449128372Y-263258053D01*
X449002340Y-263562322D01*
X448938090Y-263885331D01*
X339728240Y-263885331D01*
X339678425Y-263634893D01*
X339571147Y-263375903D01*
X339415405Y-263142818D01*
X339217182Y-262944595D01*
X338984097Y-262788853D01*
X338725107Y-262681575D01*
X338450165Y-262626886D01*
X338169835Y-262626886D01*
X337894893Y-262681575D01*
X337635903Y-262788853D01*
X337402818Y-262944595D01*
X337204595Y-263142818D01*
X337048853Y-263375903D01*
X336941575Y-263634893D01*
X336886886Y-263909835D01*
X196883114Y-263909835D01*
X196828425Y-263634893D01*
X196721147Y-263375903D01*
X196565405Y-263142818D01*
X196367182Y-262944595D01*
X196134097Y-262788853D01*
X195875107Y-262681575D01*
X195600165Y-262626886D01*
X195319835Y-262626886D01*
X195044893Y-262681575D01*
X194785903Y-262788853D01*
X194552818Y-262944595D01*
X194354595Y-263142818D01*
X194198853Y-263375903D01*
X194091575Y-263634893D01*
X194036886Y-263909835D01*
X131131910Y-263909835D01*
X131131910Y-263885331D01*
X131067660Y-263562322D01*
X130941628Y-263258053D01*
X130758658Y-262984219D01*
X130525781Y-262751342D01*
X130251947Y-262568372D01*
X129947678Y-262442340D01*
X129624669Y-262378090D01*
X129295331Y-262378090D01*
X128972322Y-262442340D01*
X128668053Y-262568372D01*
X128394219Y-262751342D01*
X128161342Y-262984219D01*
X127978372Y-263258053D01*
X127852340Y-263562322D01*
X127788090Y-263885331D01*
X127127000Y-263885331D01*
X127127000Y-226845087D01*
X136826355Y-226845087D01*
X136838615Y-226969569D01*
X136874925Y-227089267D01*
X136933890Y-227199581D01*
X137013242Y-227296272D01*
X137109933Y-227375624D01*
X137220247Y-227434589D01*
X137339945Y-227470899D01*
X137464427Y-227483159D01*
X138428677Y-227480087D01*
X138587427Y-227321337D01*
X138587427Y-225722087D01*
X138841427Y-225722087D01*
X138841427Y-227321337D01*
X139000177Y-227480087D01*
X139964427Y-227483159D01*
X140088909Y-227470899D01*
X140208607Y-227434589D01*
X140318921Y-227375624D01*
X140415612Y-227296272D01*
X140494964Y-227199581D01*
X140553929Y-227089267D01*
X140590239Y-226969569D01*
X140602499Y-226845087D01*
X141826355Y-226845087D01*
X141838615Y-226969569D01*
X141874925Y-227089267D01*
X141933890Y-227199581D01*
X142013242Y-227296272D01*
X142109933Y-227375624D01*
X142220247Y-227434589D01*
X142339945Y-227470899D01*
X142464427Y-227483159D01*
X143428677Y-227480087D01*
X143587427Y-227321337D01*
X143587427Y-225722087D01*
X143841427Y-225722087D01*
X143841427Y-227321337D01*
X144000177Y-227480087D01*
X144964427Y-227483159D01*
X145088909Y-227470899D01*
X145208607Y-227434589D01*
X145318921Y-227375624D01*
X145415612Y-227296272D01*
X145494964Y-227199581D01*
X145553929Y-227089267D01*
X145590239Y-226969569D01*
X145602499Y-226845087D01*
X145599427Y-225880837D01*
X145440677Y-225722087D01*
X143841427Y-225722087D01*
X143587427Y-225722087D01*
X141988177Y-225722087D01*
X141829427Y-225880837D01*
X141826355Y-226845087D01*
X140602499Y-226845087D01*
X140599427Y-225880837D01*
X140440677Y-225722087D01*
X138841427Y-225722087D01*
X138587427Y-225722087D01*
X136988177Y-225722087D01*
X136829427Y-225880837D01*
X136826355Y-226845087D01*
X127127000Y-226845087D01*
X127127000Y-224345087D01*
X136826355Y-224345087D01*
X136829427Y-225309337D01*
X136988177Y-225468087D01*
X138587427Y-225468087D01*
X138587427Y-223868837D01*
X138841427Y-223868837D01*
X138841427Y-225468087D01*
X140440677Y-225468087D01*
X140599427Y-225309337D01*
X140602499Y-224345087D01*
X141826355Y-224345087D01*
X141829427Y-225309337D01*
X141988177Y-225468087D01*
X143587427Y-225468087D01*
X143587427Y-223868837D01*
X143841427Y-223868837D01*
X143841427Y-225468087D01*
X145440677Y-225468087D01*
X145599427Y-225309337D01*
X145602499Y-224345087D01*
X159426355Y-224345087D01*
X159426355Y-226845087D01*
X159438615Y-226969569D01*
X159474925Y-227089267D01*
X159533890Y-227199581D01*
X159613242Y-227296272D01*
X159709933Y-227375624D01*
X159820247Y-227434589D01*
X159939945Y-227470899D01*
X160064427Y-227483159D01*
X162564427Y-227483159D01*
X162688909Y-227470899D01*
X162808607Y-227434589D01*
X162918921Y-227375624D01*
X163015612Y-227296272D01*
X163094964Y-227199581D01*
X163153929Y-227089267D01*
X163190239Y-226969569D01*
X163202499Y-226845087D01*
X163202499Y-225237301D01*
X163426355Y-225461158D01*
X163426355Y-226845087D01*
X163438615Y-226969569D01*
X163474925Y-227089267D01*
X163533890Y-227199581D01*
X163613242Y-227296272D01*
X163709933Y-227375624D01*
X163820247Y-227434589D01*
X163939945Y-227470899D01*
X164064427Y-227483159D01*
X166564427Y-227483159D01*
X166688909Y-227470899D01*
X166808607Y-227434589D01*
X166918921Y-227375624D01*
X167015612Y-227296272D01*
X167094964Y-227199581D01*
X167153929Y-227089267D01*
X167190239Y-226969569D01*
X167202499Y-226845087D01*
X167202499Y-224345087D01*
X167190239Y-224220605D01*
X167153929Y-224100907D01*
X167094964Y-223990593D01*
X167015612Y-223893902D01*
X166918921Y-223814550D01*
X166808607Y-223755585D01*
X166688909Y-223719275D01*
X166564427Y-223707015D01*
X164064427Y-223707015D01*
X163939945Y-223719275D01*
X163858717Y-223743915D01*
X162325000Y-222210199D01*
X162325000Y-222148061D01*
X162285226Y-221948102D01*
X162207205Y-221759744D01*
X162093937Y-221590226D01*
X161949774Y-221446063D01*
X161780256Y-221332795D01*
X161591898Y-221254774D01*
X161391939Y-221215000D01*
X161188061Y-221215000D01*
X160988102Y-221254774D01*
X160799744Y-221332795D01*
X160630226Y-221446063D01*
X160486063Y-221590226D01*
X160372795Y-221759744D01*
X160294774Y-221948102D01*
X160255000Y-222148061D01*
X160255000Y-222351939D01*
X160294774Y-222551898D01*
X160372795Y-222740256D01*
X160486063Y-222909774D01*
X160554428Y-222978139D01*
X160554428Y-223707015D01*
X160064427Y-223707015D01*
X159939945Y-223719275D01*
X159820247Y-223755585D01*
X159709933Y-223814550D01*
X159613242Y-223893902D01*
X159533890Y-223990593D01*
X159474925Y-224100907D01*
X159438615Y-224220605D01*
X159426355Y-224345087D01*
X145602499Y-224345087D01*
X145590239Y-224220605D01*
X145553929Y-224100907D01*
X145494964Y-223990593D01*
X145415612Y-223893902D01*
X145318921Y-223814550D01*
X145208607Y-223755585D01*
X145088909Y-223719275D01*
X144964427Y-223707015D01*
X144000177Y-223710087D01*
X143841427Y-223868837D01*
X143587427Y-223868837D01*
X143428677Y-223710087D01*
X142464427Y-223707015D01*
X142339945Y-223719275D01*
X142220247Y-223755585D01*
X142109933Y-223814550D01*
X142013242Y-223893902D01*
X141933890Y-223990593D01*
X141874925Y-224100907D01*
X141838615Y-224220605D01*
X141826355Y-224345087D01*
X140602499Y-224345087D01*
X140590239Y-224220605D01*
X140553929Y-224100907D01*
X140494964Y-223990593D01*
X140415612Y-223893902D01*
X140318921Y-223814550D01*
X140208607Y-223755585D01*
X140088909Y-223719275D01*
X139964427Y-223707015D01*
X139000177Y-223710087D01*
X138841427Y-223868837D01*
X138587427Y-223868837D01*
X138428677Y-223710087D01*
X137464427Y-223707015D01*
X137339945Y-223719275D01*
X137220247Y-223755585D01*
X137109933Y-223814550D01*
X137013242Y-223893902D01*
X136933890Y-223990593D01*
X136874925Y-224100907D01*
X136838615Y-224220605D01*
X136826355Y-224345087D01*
X127127000Y-224345087D01*
X127127000Y-215148095D01*
X137699495Y-215148095D01*
X137699495Y-216251905D01*
X137881176Y-217340661D01*
X138239583Y-218384664D01*
X138764938Y-219355436D01*
X139442913Y-220226498D01*
X140255013Y-220974088D01*
X141179086Y-221577815D01*
X142189926Y-222021211D01*
X143259960Y-222292180D01*
X144360000Y-222383332D01*
X145460040Y-222292180D01*
X146530074Y-222021211D01*
X147540914Y-221577815D01*
X148464987Y-220974088D01*
X149277087Y-220226498D01*
X149955062Y-219355436D01*
X150480417Y-218384664D01*
X150496415Y-218338061D01*
X171685000Y-218338061D01*
X171685000Y-218541939D01*
X171724774Y-218741898D01*
X171802795Y-218930256D01*
X171916063Y-219099774D01*
X172060226Y-219243937D01*
X172229744Y-219357205D01*
X172378260Y-219418723D01*
X172925046Y-219965509D01*
X172821939Y-219945000D01*
X172618061Y-219945000D01*
X172418102Y-219984774D01*
X172229744Y-220062795D01*
X172060226Y-220176063D01*
X171916063Y-220320226D01*
X171802795Y-220489744D01*
X171724774Y-220678102D01*
X171685000Y-220878061D01*
X171685000Y-221081939D01*
X171724774Y-221281898D01*
X171802795Y-221470256D01*
X171916063Y-221639774D01*
X172060226Y-221783937D01*
X172229744Y-221897205D01*
X172418102Y-221975226D01*
X172618061Y-222015000D01*
X172680199Y-222015000D01*
X203573701Y-252908503D01*
X203597499Y-252937501D01*
X203626497Y-252961299D01*
X203713224Y-253032474D01*
X203845253Y-253103046D01*
X203988514Y-253146503D01*
X204137500Y-253161177D01*
X204174833Y-253157500D01*
X277597155Y-253157500D01*
X277685208Y-253264792D01*
X277818836Y-253374458D01*
X277971291Y-253455947D01*
X278136715Y-253506128D01*
X278308750Y-253523072D01*
X279221250Y-253523072D01*
X279393285Y-253506128D01*
X279558709Y-253455947D01*
X279711164Y-253374458D01*
X279844792Y-253264792D01*
X279954458Y-253131164D01*
X279992189Y-253060573D01*
X302447015Y-253060573D01*
X302459275Y-253185055D01*
X302495585Y-253304753D01*
X302554550Y-253415067D01*
X302633902Y-253511758D01*
X302730593Y-253591110D01*
X302840907Y-253650075D01*
X302960605Y-253686385D01*
X303085087Y-253698645D01*
X304049337Y-253695573D01*
X304208087Y-253536823D01*
X304208087Y-251937573D01*
X304462087Y-251937573D01*
X304462087Y-253536823D01*
X304620837Y-253695573D01*
X305585087Y-253698645D01*
X305709569Y-253686385D01*
X305829267Y-253650075D01*
X305939581Y-253591110D01*
X306036272Y-253511758D01*
X306115624Y-253415067D01*
X306174589Y-253304753D01*
X306210899Y-253185055D01*
X306223159Y-253060573D01*
X306220087Y-252096323D01*
X306061337Y-251937573D01*
X304462087Y-251937573D01*
X304208087Y-251937573D01*
X302608837Y-251937573D01*
X302450087Y-252096323D01*
X302447015Y-253060573D01*
X279992189Y-253060573D01*
X280035947Y-252978709D01*
X280086128Y-252813285D01*
X280103072Y-252641250D01*
X280103072Y-252153750D01*
X280086128Y-251981715D01*
X280035947Y-251816291D01*
X279954458Y-251663836D01*
X279844792Y-251530208D01*
X279759244Y-251460000D01*
X279844792Y-251389792D01*
X279954458Y-251256164D01*
X280035947Y-251103709D01*
X280086128Y-250938285D01*
X280103072Y-250766250D01*
X280103072Y-250560573D01*
X302447015Y-250560573D01*
X302450087Y-251524823D01*
X302608837Y-251683573D01*
X304208087Y-251683573D01*
X304208087Y-250084323D01*
X304462087Y-250084323D01*
X304462087Y-251683573D01*
X306061337Y-251683573D01*
X306220087Y-251524823D01*
X306223159Y-250560573D01*
X306210899Y-250436091D01*
X306174589Y-250316393D01*
X306115624Y-250206079D01*
X306036272Y-250109388D01*
X305939581Y-250030036D01*
X305829267Y-249971071D01*
X305709569Y-249934761D01*
X305585087Y-249922501D01*
X304620837Y-249925573D01*
X304462087Y-250084323D01*
X304208087Y-250084323D01*
X304049337Y-249925573D01*
X303085087Y-249922501D01*
X302960605Y-249934761D01*
X302840907Y-249971071D01*
X302730593Y-250030036D01*
X302633902Y-250109388D01*
X302554550Y-250206079D01*
X302495585Y-250316393D01*
X302459275Y-250436091D01*
X302447015Y-250560573D01*
X280103072Y-250560573D01*
X280103072Y-250278750D01*
X280086128Y-250106715D01*
X280035947Y-249941291D01*
X279954458Y-249788836D01*
X279844792Y-249655208D01*
X279711164Y-249545542D01*
X279558709Y-249464053D01*
X279393285Y-249413872D01*
X279221250Y-249396928D01*
X278308750Y-249396928D01*
X278136715Y-249413872D01*
X277971291Y-249464053D01*
X277818836Y-249545542D01*
X277685208Y-249655208D01*
X277597155Y-249762500D01*
X204871640Y-249762500D01*
X192556275Y-237447135D01*
X268999199Y-237447135D01*
X268999199Y-238752865D01*
X269169631Y-240047426D01*
X269507579Y-241308665D01*
X270007260Y-242515003D01*
X270660126Y-243645799D01*
X271455004Y-244681705D01*
X272378295Y-245604996D01*
X273414201Y-246399874D01*
X274544997Y-247052740D01*
X275751335Y-247552421D01*
X277012574Y-247890369D01*
X278307135Y-248060801D01*
X279612865Y-248060801D01*
X279614596Y-248060573D01*
X302447015Y-248060573D01*
X302459275Y-248185055D01*
X302495585Y-248304753D01*
X302554550Y-248415067D01*
X302633902Y-248511758D01*
X302730593Y-248591110D01*
X302840907Y-248650075D01*
X302960605Y-248686385D01*
X303085087Y-248698645D01*
X304049337Y-248695573D01*
X304208087Y-248536823D01*
X304208087Y-246937573D01*
X304462087Y-246937573D01*
X304462087Y-248536823D01*
X304620837Y-248695573D01*
X305585087Y-248698645D01*
X305709569Y-248686385D01*
X305829267Y-248650075D01*
X305939581Y-248591110D01*
X306036272Y-248511758D01*
X306115624Y-248415067D01*
X306174589Y-248304753D01*
X306210899Y-248185055D01*
X306223159Y-248060573D01*
X306220087Y-247096323D01*
X306061337Y-246937573D01*
X304462087Y-246937573D01*
X304208087Y-246937573D01*
X302608837Y-246937573D01*
X302450087Y-247096323D01*
X302447015Y-248060573D01*
X279614596Y-248060573D01*
X280907426Y-247890369D01*
X282168665Y-247552421D01*
X283375003Y-247052740D01*
X284505799Y-246399874D01*
X285541705Y-245604996D01*
X285586128Y-245560573D01*
X302447015Y-245560573D01*
X302450087Y-246524823D01*
X302608837Y-246683573D01*
X304208087Y-246683573D01*
X304208087Y-245084323D01*
X304462087Y-245084323D01*
X304462087Y-246683573D01*
X306061337Y-246683573D01*
X306220087Y-246524823D01*
X306223159Y-245560573D01*
X306210899Y-245436091D01*
X306174589Y-245316393D01*
X306115624Y-245206079D01*
X306036272Y-245109388D01*
X305939581Y-245030036D01*
X305829267Y-244971071D01*
X305709569Y-244934761D01*
X305585087Y-244922501D01*
X304620837Y-244925573D01*
X304462087Y-245084323D01*
X304208087Y-245084323D01*
X304049337Y-244925573D01*
X303085087Y-244922501D01*
X302960605Y-244934761D01*
X302840907Y-244971071D01*
X302730593Y-245030036D01*
X302633902Y-245109388D01*
X302554550Y-245206079D01*
X302495585Y-245316393D01*
X302459275Y-245436091D01*
X302447015Y-245560573D01*
X285586128Y-245560573D01*
X286464996Y-244681705D01*
X287259874Y-243645799D01*
X287912740Y-242515003D01*
X288412421Y-241308665D01*
X288750369Y-240047426D01*
X288920801Y-238752865D01*
X288920801Y-237447135D01*
X288750369Y-236152574D01*
X288412421Y-234891335D01*
X287912740Y-233684997D01*
X287259874Y-232554201D01*
X286464996Y-231518295D01*
X285541705Y-230595004D01*
X284505799Y-229800126D01*
X283375003Y-229147260D01*
X282168665Y-228647579D01*
X280907426Y-228309631D01*
X279612865Y-228139199D01*
X278307135Y-228139199D01*
X277012574Y-228309631D01*
X275751335Y-228647579D01*
X274544997Y-229147260D01*
X273414201Y-229800126D01*
X272378295Y-230595004D01*
X271455004Y-231518295D01*
X270660126Y-232554201D01*
X270007260Y-233684997D01*
X269507579Y-234891335D01*
X269169631Y-236152574D01*
X268999199Y-237447135D01*
X192556275Y-237447135D01*
X183224227Y-228115087D01*
X207946355Y-228115087D01*
X207958615Y-228239569D01*
X207994925Y-228359267D01*
X208053890Y-228469581D01*
X208133242Y-228566272D01*
X208229933Y-228645624D01*
X208340247Y-228704589D01*
X208459945Y-228740899D01*
X208584427Y-228753159D01*
X209548677Y-228750087D01*
X209707427Y-228591337D01*
X209707427Y-226992087D01*
X209961427Y-226992087D01*
X209961427Y-228591337D01*
X210120177Y-228750087D01*
X211084427Y-228753159D01*
X211208909Y-228740899D01*
X211328607Y-228704589D01*
X211438921Y-228645624D01*
X211535612Y-228566272D01*
X211614964Y-228469581D01*
X211673929Y-228359267D01*
X211710239Y-228239569D01*
X211722499Y-228115087D01*
X212946355Y-228115087D01*
X212958615Y-228239569D01*
X212994925Y-228359267D01*
X213053890Y-228469581D01*
X213133242Y-228566272D01*
X213229933Y-228645624D01*
X213340247Y-228704589D01*
X213459945Y-228740899D01*
X213584427Y-228753159D01*
X214548677Y-228750087D01*
X214707427Y-228591337D01*
X214707427Y-226992087D01*
X214961427Y-226992087D01*
X214961427Y-228591337D01*
X215120177Y-228750087D01*
X216084427Y-228753159D01*
X216208909Y-228740899D01*
X216328607Y-228704589D01*
X216438921Y-228645624D01*
X216535612Y-228566272D01*
X216614964Y-228469581D01*
X216673929Y-228359267D01*
X216710239Y-228239569D01*
X216722499Y-228115087D01*
X216719427Y-227150837D01*
X216560677Y-226992087D01*
X214961427Y-226992087D01*
X214707427Y-226992087D01*
X213108177Y-226992087D01*
X212949427Y-227150837D01*
X212946355Y-228115087D01*
X211722499Y-228115087D01*
X211719427Y-227150837D01*
X211560677Y-226992087D01*
X209961427Y-226992087D01*
X209707427Y-226992087D01*
X208108177Y-226992087D01*
X207949427Y-227150837D01*
X207946355Y-228115087D01*
X183224227Y-228115087D01*
X182508952Y-227399812D01*
X182587427Y-227321337D01*
X182587427Y-225722087D01*
X182841427Y-225722087D01*
X182841427Y-227321337D01*
X183000177Y-227480087D01*
X183964427Y-227483159D01*
X184088909Y-227470899D01*
X184208607Y-227434589D01*
X184318921Y-227375624D01*
X184415612Y-227296272D01*
X184494964Y-227199581D01*
X184553929Y-227089267D01*
X184590239Y-226969569D01*
X184602499Y-226845087D01*
X185826355Y-226845087D01*
X185838615Y-226969569D01*
X185874925Y-227089267D01*
X185933890Y-227199581D01*
X186013242Y-227296272D01*
X186109933Y-227375624D01*
X186220247Y-227434589D01*
X186339945Y-227470899D01*
X186464427Y-227483159D01*
X187428677Y-227480087D01*
X187587427Y-227321337D01*
X187587427Y-225722087D01*
X187841427Y-225722087D01*
X187841427Y-227321337D01*
X188000177Y-227480087D01*
X188964427Y-227483159D01*
X189088909Y-227470899D01*
X189208607Y-227434589D01*
X189318921Y-227375624D01*
X189415612Y-227296272D01*
X189494964Y-227199581D01*
X189553929Y-227089267D01*
X189590239Y-226969569D01*
X189602499Y-226845087D01*
X189599427Y-225880837D01*
X189440677Y-225722087D01*
X187841427Y-225722087D01*
X187587427Y-225722087D01*
X185988177Y-225722087D01*
X185829427Y-225880837D01*
X185826355Y-226845087D01*
X184602499Y-226845087D01*
X184599427Y-225880837D01*
X184440677Y-225722087D01*
X182841427Y-225722087D01*
X182587427Y-225722087D01*
X180988177Y-225722087D01*
X180909702Y-225800562D01*
X180724227Y-225615087D01*
X207946355Y-225615087D01*
X207949427Y-226579337D01*
X208108177Y-226738087D01*
X209707427Y-226738087D01*
X209707427Y-225138837D01*
X209961427Y-225138837D01*
X209961427Y-226738087D01*
X211560677Y-226738087D01*
X211719427Y-226579337D01*
X211722499Y-225615087D01*
X212946355Y-225615087D01*
X212949427Y-226579337D01*
X213108177Y-226738087D01*
X214707427Y-226738087D01*
X214707427Y-225138837D01*
X214961427Y-225138837D01*
X214961427Y-226738087D01*
X216560677Y-226738087D01*
X216719427Y-226579337D01*
X216722499Y-225615087D01*
X230546355Y-225615087D01*
X230546355Y-228115087D01*
X230558615Y-228239569D01*
X230594925Y-228359267D01*
X230653890Y-228469581D01*
X230733242Y-228566272D01*
X230829933Y-228645624D01*
X230940247Y-228704589D01*
X231059945Y-228740899D01*
X231184427Y-228753159D01*
X233684427Y-228753159D01*
X233808909Y-228740899D01*
X233928607Y-228704589D01*
X234038921Y-228645624D01*
X234135612Y-228566272D01*
X234214964Y-228469581D01*
X234273929Y-228359267D01*
X234310239Y-228239569D01*
X234322499Y-228115087D01*
X234322499Y-225615087D01*
X234310239Y-225490605D01*
X234273929Y-225370907D01*
X234239084Y-225305718D01*
X234315000Y-225229802D01*
X234562615Y-225477417D01*
X234558615Y-225490605D01*
X234546355Y-225615087D01*
X234546355Y-228115087D01*
X234558615Y-228239569D01*
X234594925Y-228359267D01*
X234653890Y-228469581D01*
X234733242Y-228566272D01*
X234829933Y-228645624D01*
X234940247Y-228704589D01*
X235059945Y-228740899D01*
X235184427Y-228753159D01*
X237684427Y-228753159D01*
X237808909Y-228740899D01*
X237928607Y-228704589D01*
X238038921Y-228645624D01*
X238135612Y-228566272D01*
X238214964Y-228469581D01*
X238273929Y-228359267D01*
X238310239Y-228239569D01*
X238322499Y-228115087D01*
X238322499Y-227774913D01*
X240292501Y-227774913D01*
X240304761Y-227899395D01*
X240341071Y-228019093D01*
X240400036Y-228129407D01*
X240479388Y-228226098D01*
X240576079Y-228305450D01*
X240686393Y-228364415D01*
X240806091Y-228400725D01*
X240930573Y-228412985D01*
X241894823Y-228409913D01*
X242053573Y-228251163D01*
X242053573Y-226651913D01*
X242307573Y-226651913D01*
X242307573Y-228251163D01*
X242466323Y-228409913D01*
X243430573Y-228412985D01*
X243555055Y-228400725D01*
X243674753Y-228364415D01*
X243785067Y-228305450D01*
X243881758Y-228226098D01*
X243961110Y-228129407D01*
X244020075Y-228019093D01*
X244056385Y-227899395D01*
X244068645Y-227774913D01*
X245292501Y-227774913D01*
X245304761Y-227899395D01*
X245341071Y-228019093D01*
X245400036Y-228129407D01*
X245479388Y-228226098D01*
X245576079Y-228305450D01*
X245686393Y-228364415D01*
X245806091Y-228400725D01*
X245930573Y-228412985D01*
X246894823Y-228409913D01*
X247053573Y-228251163D01*
X247053573Y-226651913D01*
X247307573Y-226651913D01*
X247307573Y-228251163D01*
X247466323Y-228409913D01*
X248430573Y-228412985D01*
X248555055Y-228400725D01*
X248674753Y-228364415D01*
X248785067Y-228305450D01*
X248881758Y-228226098D01*
X248961110Y-228129407D01*
X248968764Y-228115087D01*
X251946355Y-228115087D01*
X251958615Y-228239569D01*
X251994925Y-228359267D01*
X252053890Y-228469581D01*
X252133242Y-228566272D01*
X252229933Y-228645624D01*
X252340247Y-228704589D01*
X252459945Y-228740899D01*
X252584427Y-228753159D01*
X253548677Y-228750087D01*
X253707427Y-228591337D01*
X253707427Y-226992087D01*
X253961427Y-226992087D01*
X253961427Y-228591337D01*
X254120177Y-228750087D01*
X255084427Y-228753159D01*
X255208909Y-228740899D01*
X255328607Y-228704589D01*
X255438921Y-228645624D01*
X255535612Y-228566272D01*
X255614964Y-228469581D01*
X255673929Y-228359267D01*
X255710239Y-228239569D01*
X255722499Y-228115087D01*
X256946355Y-228115087D01*
X256958615Y-228239569D01*
X256994925Y-228359267D01*
X257053890Y-228469581D01*
X257133242Y-228566272D01*
X257229933Y-228645624D01*
X257340247Y-228704589D01*
X257459945Y-228740899D01*
X257584427Y-228753159D01*
X258548677Y-228750087D01*
X258707427Y-228591337D01*
X258707427Y-226992087D01*
X258961427Y-226992087D01*
X258961427Y-228591337D01*
X259120177Y-228750087D01*
X260084427Y-228753159D01*
X260208909Y-228740899D01*
X260328607Y-228704589D01*
X260438921Y-228645624D01*
X260535612Y-228566272D01*
X260614964Y-228469581D01*
X260673929Y-228359267D01*
X260710239Y-228239569D01*
X260722499Y-228115087D01*
X260719427Y-227150837D01*
X260560677Y-226992087D01*
X258961427Y-226992087D01*
X258707427Y-226992087D01*
X257108177Y-226992087D01*
X256949427Y-227150837D01*
X256946355Y-228115087D01*
X255722499Y-228115087D01*
X255719427Y-227150837D01*
X255560677Y-226992087D01*
X253961427Y-226992087D01*
X253707427Y-226992087D01*
X252108177Y-226992087D01*
X251949427Y-227150837D01*
X251946355Y-228115087D01*
X248968764Y-228115087D01*
X249020075Y-228019093D01*
X249056385Y-227899395D01*
X249068645Y-227774913D01*
X249065573Y-226810663D01*
X248906823Y-226651913D01*
X247307573Y-226651913D01*
X247053573Y-226651913D01*
X245454323Y-226651913D01*
X245295573Y-226810663D01*
X245292501Y-227774913D01*
X244068645Y-227774913D01*
X244065573Y-226810663D01*
X243906823Y-226651913D01*
X242307573Y-226651913D01*
X242053573Y-226651913D01*
X240454323Y-226651913D01*
X240295573Y-226810663D01*
X240292501Y-227774913D01*
X238322499Y-227774913D01*
X238322499Y-225615087D01*
X238310239Y-225490605D01*
X238273929Y-225370907D01*
X238222619Y-225274913D01*
X240292501Y-225274913D01*
X240295573Y-226239163D01*
X240454323Y-226397913D01*
X242053573Y-226397913D01*
X242053573Y-224798663D01*
X242307573Y-224798663D01*
X242307573Y-226397913D01*
X243906823Y-226397913D01*
X244065573Y-226239163D01*
X244068645Y-225274913D01*
X245292501Y-225274913D01*
X245295573Y-226239163D01*
X245454323Y-226397913D01*
X247053573Y-226397913D01*
X247053573Y-224798663D01*
X247307573Y-224798663D01*
X247307573Y-226397913D01*
X248906823Y-226397913D01*
X249065573Y-226239163D01*
X249067561Y-225615087D01*
X251946355Y-225615087D01*
X251949427Y-226579337D01*
X252108177Y-226738087D01*
X253707427Y-226738087D01*
X253707427Y-225138837D01*
X253961427Y-225138837D01*
X253961427Y-226738087D01*
X255560677Y-226738087D01*
X255719427Y-226579337D01*
X255722499Y-225615087D01*
X256946355Y-225615087D01*
X256949427Y-226579337D01*
X257108177Y-226738087D01*
X258707427Y-226738087D01*
X258707427Y-225138837D01*
X258961427Y-225138837D01*
X258961427Y-226738087D01*
X260560677Y-226738087D01*
X260719427Y-226579337D01*
X260722499Y-225615087D01*
X260710239Y-225490605D01*
X260673929Y-225370907D01*
X260622619Y-225274913D01*
X262692501Y-225274913D01*
X262692501Y-227774913D01*
X262704761Y-227899395D01*
X262741071Y-228019093D01*
X262800036Y-228129407D01*
X262879388Y-228226098D01*
X262976079Y-228305450D01*
X263086393Y-228364415D01*
X263206091Y-228400725D01*
X263330573Y-228412985D01*
X264803183Y-228412985D01*
X265665000Y-229274803D01*
X265665000Y-229336939D01*
X265704774Y-229536898D01*
X265782795Y-229725256D01*
X265896063Y-229894774D01*
X266040226Y-230038937D01*
X266209744Y-230152205D01*
X266398102Y-230230226D01*
X266598061Y-230270000D01*
X266801939Y-230270000D01*
X267001898Y-230230226D01*
X267190256Y-230152205D01*
X267359774Y-230038937D01*
X267503937Y-229894774D01*
X267617205Y-229725256D01*
X267695226Y-229536898D01*
X267735000Y-229336939D01*
X267735000Y-229274801D01*
X268596817Y-228412985D01*
X269830573Y-228412985D01*
X269955055Y-228400725D01*
X270074753Y-228364415D01*
X270185067Y-228305450D01*
X270281758Y-228226098D01*
X270361110Y-228129407D01*
X270420075Y-228019093D01*
X270456385Y-227899395D01*
X270468645Y-227774913D01*
X284292501Y-227774913D01*
X284304761Y-227899395D01*
X284341071Y-228019093D01*
X284400036Y-228129407D01*
X284479388Y-228226098D01*
X284576079Y-228305450D01*
X284686393Y-228364415D01*
X284806091Y-228400725D01*
X284930573Y-228412985D01*
X285894823Y-228409913D01*
X286053573Y-228251163D01*
X286053573Y-226651913D01*
X286307573Y-226651913D01*
X286307573Y-228251163D01*
X286466323Y-228409913D01*
X287430573Y-228412985D01*
X287555055Y-228400725D01*
X287674753Y-228364415D01*
X287785067Y-228305450D01*
X287881758Y-228226098D01*
X287961110Y-228129407D01*
X288020075Y-228019093D01*
X288056385Y-227899395D01*
X288068645Y-227774913D01*
X289292501Y-227774913D01*
X289304761Y-227899395D01*
X289341071Y-228019093D01*
X289400036Y-228129407D01*
X289479388Y-228226098D01*
X289576079Y-228305450D01*
X289686393Y-228364415D01*
X289806091Y-228400725D01*
X289930573Y-228412985D01*
X290894823Y-228409913D01*
X291053573Y-228251163D01*
X291053573Y-226651913D01*
X291307573Y-226651913D01*
X291307573Y-228251163D01*
X291466323Y-228409913D01*
X292430573Y-228412985D01*
X292555055Y-228400725D01*
X292674753Y-228364415D01*
X292785067Y-228305450D01*
X292881758Y-228226098D01*
X292961110Y-228129407D01*
X293020075Y-228019093D01*
X293056385Y-227899395D01*
X293068645Y-227774913D01*
X293065573Y-226810663D01*
X292906823Y-226651913D01*
X291307573Y-226651913D01*
X291053573Y-226651913D01*
X289454323Y-226651913D01*
X289295573Y-226810663D01*
X289292501Y-227774913D01*
X288068645Y-227774913D01*
X288065573Y-226810663D01*
X287906823Y-226651913D01*
X286307573Y-226651913D01*
X286053573Y-226651913D01*
X284454323Y-226651913D01*
X284295573Y-226810663D01*
X284292501Y-227774913D01*
X270468645Y-227774913D01*
X270468645Y-226593061D01*
X300590000Y-226593061D01*
X300590000Y-226796939D01*
X300629774Y-226996898D01*
X300707795Y-227185256D01*
X300821063Y-227354774D01*
X300965226Y-227498937D01*
X301134744Y-227612205D01*
X301323102Y-227690226D01*
X301523061Y-227730000D01*
X301585199Y-227730000D01*
X302447015Y-228591817D01*
X302447015Y-230460573D01*
X302459275Y-230585055D01*
X302495585Y-230704753D01*
X302554550Y-230815067D01*
X302633902Y-230911758D01*
X302730593Y-230991110D01*
X302840907Y-231050075D01*
X302960605Y-231086385D01*
X303085087Y-231098645D01*
X305585087Y-231098645D01*
X305709569Y-231086385D01*
X305829267Y-231050075D01*
X305939581Y-230991110D01*
X306036272Y-230911758D01*
X306115624Y-230815067D01*
X306174589Y-230704753D01*
X306210899Y-230585055D01*
X306223159Y-230460573D01*
X306223159Y-227960573D01*
X306210899Y-227836091D01*
X306174589Y-227716393D01*
X306115624Y-227606079D01*
X306036272Y-227509388D01*
X305939581Y-227430036D01*
X305829267Y-227371071D01*
X305709569Y-227334761D01*
X305585087Y-227322501D01*
X303327303Y-227322501D01*
X303103447Y-227098645D01*
X305585087Y-227098645D01*
X305709569Y-227086385D01*
X305829267Y-227050075D01*
X305939581Y-226991110D01*
X306036272Y-226911758D01*
X306115624Y-226815067D01*
X306174589Y-226704753D01*
X306210899Y-226585055D01*
X306223159Y-226460573D01*
X306223159Y-223960573D01*
X306210899Y-223836091D01*
X306174589Y-223716393D01*
X306115624Y-223606079D01*
X306036272Y-223509388D01*
X305939581Y-223430036D01*
X305829267Y-223371071D01*
X305709569Y-223334761D01*
X305585087Y-223322501D01*
X303085087Y-223322501D01*
X302960605Y-223334761D01*
X302840907Y-223371071D01*
X302730593Y-223430036D01*
X302633902Y-223509388D01*
X302554550Y-223606079D01*
X302495585Y-223716393D01*
X302459275Y-223836091D01*
X302447015Y-223960573D01*
X302447015Y-224798183D01*
X301585199Y-225660000D01*
X301523061Y-225660000D01*
X301323102Y-225699774D01*
X301134744Y-225777795D01*
X300965226Y-225891063D01*
X300821063Y-226035226D01*
X300707795Y-226204744D01*
X300629774Y-226393102D01*
X300590000Y-226593061D01*
X270468645Y-226593061D01*
X270468645Y-225274913D01*
X284292501Y-225274913D01*
X284295573Y-226239163D01*
X284454323Y-226397913D01*
X286053573Y-226397913D01*
X286053573Y-224798663D01*
X286307573Y-224798663D01*
X286307573Y-226397913D01*
X287906823Y-226397913D01*
X288065573Y-226239163D01*
X288068645Y-225274913D01*
X289292501Y-225274913D01*
X289295573Y-226239163D01*
X289454323Y-226397913D01*
X291053573Y-226397913D01*
X291053573Y-224798663D01*
X291307573Y-224798663D01*
X291307573Y-226397913D01*
X292906823Y-226397913D01*
X293065573Y-226239163D01*
X293068645Y-225274913D01*
X293056385Y-225150431D01*
X293020075Y-225030733D01*
X292961110Y-224920419D01*
X292881758Y-224823728D01*
X292785067Y-224744376D01*
X292674753Y-224685411D01*
X292555055Y-224649101D01*
X292430573Y-224636841D01*
X291466323Y-224639913D01*
X291307573Y-224798663D01*
X291053573Y-224798663D01*
X290894823Y-224639913D01*
X289930573Y-224636841D01*
X289806091Y-224649101D01*
X289686393Y-224685411D01*
X289576079Y-224744376D01*
X289479388Y-224823728D01*
X289400036Y-224920419D01*
X289341071Y-225030733D01*
X289304761Y-225150431D01*
X289292501Y-225274913D01*
X288068645Y-225274913D01*
X288056385Y-225150431D01*
X288020075Y-225030733D01*
X287961110Y-224920419D01*
X287881758Y-224823728D01*
X287785067Y-224744376D01*
X287674753Y-224685411D01*
X287555055Y-224649101D01*
X287430573Y-224636841D01*
X286466323Y-224639913D01*
X286307573Y-224798663D01*
X286053573Y-224798663D01*
X285894823Y-224639913D01*
X284930573Y-224636841D01*
X284806091Y-224649101D01*
X284686393Y-224685411D01*
X284576079Y-224744376D01*
X284479388Y-224823728D01*
X284400036Y-224920419D01*
X284341071Y-225030733D01*
X284304761Y-225150431D01*
X284292501Y-225274913D01*
X270468645Y-225274913D01*
X270456385Y-225150431D01*
X270420075Y-225030733D01*
X270361110Y-224920419D01*
X270281758Y-224823728D01*
X270185067Y-224744376D01*
X270074753Y-224685411D01*
X269955055Y-224649101D01*
X269830573Y-224636841D01*
X267330573Y-224636841D01*
X267206091Y-224649101D01*
X267086393Y-224685411D01*
X266976079Y-224744376D01*
X266879388Y-224823728D01*
X266800036Y-224920419D01*
X266741071Y-225030733D01*
X266704761Y-225150431D01*
X266692501Y-225274913D01*
X266692501Y-227774913D01*
X266704761Y-227899395D01*
X266741071Y-228019093D01*
X266775916Y-228084283D01*
X266700001Y-228160198D01*
X266452385Y-227912582D01*
X266456385Y-227899395D01*
X266468645Y-227774913D01*
X266468645Y-225274913D01*
X266456385Y-225150431D01*
X266420075Y-225030733D01*
X266361110Y-224920419D01*
X266281758Y-224823728D01*
X266185067Y-224744376D01*
X266074753Y-224685411D01*
X265955055Y-224649101D01*
X265830573Y-224636841D01*
X263330573Y-224636841D01*
X263206091Y-224649101D01*
X263086393Y-224685411D01*
X262976079Y-224744376D01*
X262879388Y-224823728D01*
X262800036Y-224920419D01*
X262741071Y-225030733D01*
X262704761Y-225150431D01*
X262692501Y-225274913D01*
X260622619Y-225274913D01*
X260614964Y-225260593D01*
X260535612Y-225163902D01*
X260438921Y-225084550D01*
X260328607Y-225025585D01*
X260208909Y-224989275D01*
X260084427Y-224977015D01*
X259120177Y-224980087D01*
X258961427Y-225138837D01*
X258707427Y-225138837D01*
X258548677Y-224980087D01*
X257584427Y-224977015D01*
X257459945Y-224989275D01*
X257340247Y-225025585D01*
X257229933Y-225084550D01*
X257133242Y-225163902D01*
X257053890Y-225260593D01*
X256994925Y-225370907D01*
X256958615Y-225490605D01*
X256946355Y-225615087D01*
X255722499Y-225615087D01*
X255710239Y-225490605D01*
X255673929Y-225370907D01*
X255614964Y-225260593D01*
X255535612Y-225163902D01*
X255438921Y-225084550D01*
X255328607Y-225025585D01*
X255208909Y-224989275D01*
X255084427Y-224977015D01*
X254120177Y-224980087D01*
X253961427Y-225138837D01*
X253707427Y-225138837D01*
X253548677Y-224980087D01*
X252584427Y-224977015D01*
X252459945Y-224989275D01*
X252340247Y-225025585D01*
X252229933Y-225084550D01*
X252133242Y-225163902D01*
X252053890Y-225260593D01*
X251994925Y-225370907D01*
X251958615Y-225490605D01*
X251946355Y-225615087D01*
X249067561Y-225615087D01*
X249068645Y-225274913D01*
X249056385Y-225150431D01*
X249020075Y-225030733D01*
X248961110Y-224920419D01*
X248881758Y-224823728D01*
X248785067Y-224744376D01*
X248674753Y-224685411D01*
X248555055Y-224649101D01*
X248430573Y-224636841D01*
X247466323Y-224639913D01*
X247307573Y-224798663D01*
X247053573Y-224798663D01*
X246894823Y-224639913D01*
X245930573Y-224636841D01*
X245806091Y-224649101D01*
X245686393Y-224685411D01*
X245576079Y-224744376D01*
X245479388Y-224823728D01*
X245400036Y-224920419D01*
X245341071Y-225030733D01*
X245304761Y-225150431D01*
X245292501Y-225274913D01*
X244068645Y-225274913D01*
X244056385Y-225150431D01*
X244020075Y-225030733D01*
X243961110Y-224920419D01*
X243881758Y-224823728D01*
X243785067Y-224744376D01*
X243674753Y-224685411D01*
X243555055Y-224649101D01*
X243430573Y-224636841D01*
X242466323Y-224639913D01*
X242307573Y-224798663D01*
X242053573Y-224798663D01*
X241894823Y-224639913D01*
X240930573Y-224636841D01*
X240806091Y-224649101D01*
X240686393Y-224685411D01*
X240576079Y-224744376D01*
X240479388Y-224823728D01*
X240400036Y-224920419D01*
X240341071Y-225030733D01*
X240304761Y-225150431D01*
X240292501Y-225274913D01*
X238222619Y-225274913D01*
X238214964Y-225260593D01*
X238135612Y-225163902D01*
X238038921Y-225084550D01*
X237928607Y-225025585D01*
X237808909Y-224989275D01*
X237684427Y-224977015D01*
X236211817Y-224977015D01*
X235350000Y-224115199D01*
X235350000Y-224053061D01*
X235310226Y-223853102D01*
X235232205Y-223664744D01*
X235118937Y-223495226D01*
X234974774Y-223351063D01*
X234805256Y-223237795D01*
X234616898Y-223159774D01*
X234416939Y-223120000D01*
X234213061Y-223120000D01*
X234013102Y-223159774D01*
X233824744Y-223237795D01*
X233655226Y-223351063D01*
X233511063Y-223495226D01*
X233397795Y-223664744D01*
X233319774Y-223853102D01*
X233280000Y-224053061D01*
X233280000Y-224115198D01*
X232418184Y-224977015D01*
X231184427Y-224977015D01*
X231059945Y-224989275D01*
X230940247Y-225025585D01*
X230829933Y-225084550D01*
X230733242Y-225163902D01*
X230653890Y-225260593D01*
X230594925Y-225370907D01*
X230558615Y-225490605D01*
X230546355Y-225615087D01*
X216722499Y-225615087D01*
X216710239Y-225490605D01*
X216673929Y-225370907D01*
X216614964Y-225260593D01*
X216535612Y-225163902D01*
X216438921Y-225084550D01*
X216328607Y-225025585D01*
X216208909Y-224989275D01*
X216084427Y-224977015D01*
X215120177Y-224980087D01*
X214961427Y-225138837D01*
X214707427Y-225138837D01*
X214548677Y-224980087D01*
X213584427Y-224977015D01*
X213459945Y-224989275D01*
X213340247Y-225025585D01*
X213229933Y-225084550D01*
X213133242Y-225163902D01*
X213053890Y-225260593D01*
X212994925Y-225370907D01*
X212958615Y-225490605D01*
X212946355Y-225615087D01*
X211722499Y-225615087D01*
X211710239Y-225490605D01*
X211673929Y-225370907D01*
X211614964Y-225260593D01*
X211535612Y-225163902D01*
X211438921Y-225084550D01*
X211328607Y-225025585D01*
X211208909Y-224989275D01*
X211084427Y-224977015D01*
X210120177Y-224980087D01*
X209961427Y-225138837D01*
X209707427Y-225138837D01*
X209548677Y-224980087D01*
X208584427Y-224977015D01*
X208459945Y-224989275D01*
X208340247Y-225025585D01*
X208229933Y-225084550D01*
X208133242Y-225163902D01*
X208053890Y-225260593D01*
X207994925Y-225370907D01*
X207958615Y-225490605D01*
X207946355Y-225615087D01*
X180724227Y-225615087D01*
X179454227Y-224345087D01*
X180826355Y-224345087D01*
X180829427Y-225309337D01*
X180988177Y-225468087D01*
X182587427Y-225468087D01*
X182587427Y-223868837D01*
X182841427Y-223868837D01*
X182841427Y-225468087D01*
X184440677Y-225468087D01*
X184599427Y-225309337D01*
X184602499Y-224345087D01*
X185826355Y-224345087D01*
X185829427Y-225309337D01*
X185988177Y-225468087D01*
X187587427Y-225468087D01*
X187587427Y-223868837D01*
X187841427Y-223868837D01*
X187841427Y-225468087D01*
X189440677Y-225468087D01*
X189599427Y-225309337D01*
X189602499Y-224345087D01*
X189590239Y-224220605D01*
X189553929Y-224100907D01*
X189494964Y-223990593D01*
X189415612Y-223893902D01*
X189318921Y-223814550D01*
X189208607Y-223755585D01*
X189088909Y-223719275D01*
X188964427Y-223707015D01*
X188000177Y-223710087D01*
X187841427Y-223868837D01*
X187587427Y-223868837D01*
X187428677Y-223710087D01*
X186464427Y-223707015D01*
X186339945Y-223719275D01*
X186220247Y-223755585D01*
X186109933Y-223814550D01*
X186013242Y-223893902D01*
X185933890Y-223990593D01*
X185874925Y-224100907D01*
X185838615Y-224220605D01*
X185826355Y-224345087D01*
X184602499Y-224345087D01*
X184590239Y-224220605D01*
X184553929Y-224100907D01*
X184494964Y-223990593D01*
X184415612Y-223893902D01*
X184318921Y-223814550D01*
X184208607Y-223755585D01*
X184088909Y-223719275D01*
X183964427Y-223707015D01*
X183000177Y-223710087D01*
X182841427Y-223868837D01*
X182587427Y-223868837D01*
X182428677Y-223710087D01*
X181464427Y-223707015D01*
X181339945Y-223719275D01*
X181220247Y-223755585D01*
X181109933Y-223814550D01*
X181013242Y-223893902D01*
X180933890Y-223990593D01*
X180874925Y-224100907D01*
X180838615Y-224220605D01*
X180826355Y-224345087D01*
X179454227Y-224345087D01*
X173737758Y-218628619D01*
X173755000Y-218541939D01*
X173755000Y-218338061D01*
X173715226Y-218138102D01*
X173637205Y-217949744D01*
X173523937Y-217780226D01*
X173379774Y-217636063D01*
X173210256Y-217522795D01*
X173021898Y-217444774D01*
X172821939Y-217405000D01*
X172618061Y-217405000D01*
X172418102Y-217444774D01*
X172229744Y-217522795D01*
X172060226Y-217636063D01*
X171916063Y-217780226D01*
X171802795Y-217949744D01*
X171724774Y-218138102D01*
X171685000Y-218338061D01*
X150496415Y-218338061D01*
X150838824Y-217340661D01*
X151020505Y-216251905D01*
X151020505Y-215148095D01*
X150838824Y-214059339D01*
X150480417Y-213015336D01*
X149955062Y-212044564D01*
X149277087Y-211173502D01*
X148464987Y-210425912D01*
X147540914Y-209822185D01*
X146530074Y-209378789D01*
X145460040Y-209107820D01*
X144889855Y-209060573D01*
X302447015Y-209060573D01*
X302459275Y-209185055D01*
X302495585Y-209304753D01*
X302554550Y-209415067D01*
X302633902Y-209511758D01*
X302730593Y-209591110D01*
X302840907Y-209650075D01*
X302960605Y-209686385D01*
X303085087Y-209698645D01*
X304049337Y-209695573D01*
X304208087Y-209536823D01*
X304208087Y-207937573D01*
X304462087Y-207937573D01*
X304462087Y-209536823D01*
X304620837Y-209695573D01*
X305585087Y-209698645D01*
X305709569Y-209686385D01*
X305829267Y-209650075D01*
X305939581Y-209591110D01*
X306036272Y-209511758D01*
X306115624Y-209415067D01*
X306174589Y-209304753D01*
X306210899Y-209185055D01*
X306223159Y-209060573D01*
X306220087Y-208096323D01*
X306061337Y-207937573D01*
X304462087Y-207937573D01*
X304208087Y-207937573D01*
X302608837Y-207937573D01*
X302450087Y-208096323D01*
X302447015Y-209060573D01*
X144889855Y-209060573D01*
X144360000Y-209016668D01*
X143259960Y-209107820D01*
X142189926Y-209378789D01*
X141179086Y-209822185D01*
X140255013Y-210425912D01*
X139442913Y-211173502D01*
X138764938Y-212044564D01*
X138239583Y-213015336D01*
X137881176Y-214059339D01*
X137699495Y-215148095D01*
X127127000Y-215148095D01*
X127127000Y-206560573D01*
X302447015Y-206560573D01*
X302450087Y-207524823D01*
X302608837Y-207683573D01*
X304208087Y-207683573D01*
X304208087Y-206084323D01*
X304462087Y-206084323D01*
X304462087Y-207683573D01*
X306061337Y-207683573D01*
X306220087Y-207524823D01*
X306223159Y-206560573D01*
X306210899Y-206436091D01*
X306174589Y-206316393D01*
X306115624Y-206206079D01*
X306036272Y-206109388D01*
X305939581Y-206030036D01*
X305829267Y-205971071D01*
X305709569Y-205934761D01*
X305585087Y-205922501D01*
X304620837Y-205925573D01*
X304462087Y-206084323D01*
X304208087Y-206084323D01*
X304049337Y-205925573D01*
X303085087Y-205922501D01*
X302960605Y-205934761D01*
X302840907Y-205971071D01*
X302730593Y-206030036D01*
X302633902Y-206109388D01*
X302554550Y-206206079D01*
X302495585Y-206316393D01*
X302459275Y-206436091D01*
X302447015Y-206560573D01*
X127127000Y-206560573D01*
X127127000Y-204060573D01*
X302447015Y-204060573D01*
X302459275Y-204185055D01*
X302495585Y-204304753D01*
X302554550Y-204415067D01*
X302633902Y-204511758D01*
X302730593Y-204591110D01*
X302840907Y-204650075D01*
X302960605Y-204686385D01*
X303085087Y-204698645D01*
X304049337Y-204695573D01*
X304208087Y-204536823D01*
X304208087Y-202937573D01*
X304462087Y-202937573D01*
X304462087Y-204536823D01*
X304620837Y-204695573D01*
X305585087Y-204698645D01*
X305709569Y-204686385D01*
X305829267Y-204650075D01*
X305939581Y-204591110D01*
X306036272Y-204511758D01*
X306115624Y-204415067D01*
X306174589Y-204304753D01*
X306210899Y-204185055D01*
X306223159Y-204060573D01*
X306220087Y-203096323D01*
X306061337Y-202937573D01*
X304462087Y-202937573D01*
X304208087Y-202937573D01*
X302608837Y-202937573D01*
X302450087Y-203096323D01*
X302447015Y-204060573D01*
X127127000Y-204060573D01*
X127127000Y-201560573D01*
X302447015Y-201560573D01*
X302450087Y-202524823D01*
X302608837Y-202683573D01*
X304208087Y-202683573D01*
X304208087Y-201084323D01*
X304462087Y-201084323D01*
X304462087Y-202683573D01*
X306061337Y-202683573D01*
X306220087Y-202524823D01*
X306223159Y-201560573D01*
X306210899Y-201436091D01*
X306174589Y-201316393D01*
X306115624Y-201206079D01*
X306036272Y-201109388D01*
X305939581Y-201030036D01*
X305829267Y-200971071D01*
X305709569Y-200934761D01*
X305585087Y-200922501D01*
X304620837Y-200925573D01*
X304462087Y-201084323D01*
X304208087Y-201084323D01*
X304049337Y-200925573D01*
X303085087Y-200922501D01*
X302960605Y-200934761D01*
X302840907Y-200971071D01*
X302730593Y-201030036D01*
X302633902Y-201109388D01*
X302554550Y-201206079D01*
X302495585Y-201316393D01*
X302459275Y-201436091D01*
X302447015Y-201560573D01*
X127127000Y-201560573D01*
X127127000Y-197667582D01*
X346100000Y-197667582D01*
X346100001Y-255932419D01*
X346102367Y-255956446D01*
X346154339Y-256664145D01*
X346156856Y-256679518D01*
X346157346Y-256695097D01*
X346170802Y-256769881D01*
X346374171Y-257616974D01*
X346380792Y-257636649D01*
X346385111Y-257656967D01*
X346411598Y-257728186D01*
X346761760Y-258525879D01*
X346771764Y-258544077D01*
X346779610Y-258563302D01*
X346818289Y-258628705D01*
X347304177Y-259351782D01*
X347317242Y-259367916D01*
X347328371Y-259385452D01*
X347378021Y-259442972D01*
X347984275Y-260068578D01*
X347999994Y-260082146D01*
X348014050Y-260097432D01*
X348073102Y-260145251D01*
X348780560Y-260653611D01*
X348798430Y-260664179D01*
X348814973Y-260676736D01*
X348881560Y-260713342D01*
X349667859Y-261088388D01*
X349687321Y-261095626D01*
X349705825Y-261105054D01*
X349777841Y-261129290D01*
X350618129Y-261359166D01*
X350638566Y-261362843D01*
X350658445Y-261368845D01*
X350733614Y-261379945D01*
X351598360Y-261457122D01*
X351627581Y-261460000D01*
X431892419Y-261460000D01*
X431916486Y-261457630D01*
X432624145Y-261405661D01*
X432639518Y-261403144D01*
X432655097Y-261402654D01*
X432729881Y-261389198D01*
X433576974Y-261185829D01*
X433596649Y-261179208D01*
X433616967Y-261174889D01*
X433688186Y-261148402D01*
X434485879Y-260798240D01*
X434504077Y-260788236D01*
X434523302Y-260780390D01*
X434588705Y-260741711D01*
X435311782Y-260255823D01*
X435327916Y-260242758D01*
X435345452Y-260231629D01*
X435402972Y-260181979D01*
X436028578Y-259575725D01*
X436042146Y-259560006D01*
X436057432Y-259545950D01*
X436105251Y-259486898D01*
X436613611Y-258779440D01*
X436624179Y-258761570D01*
X436636736Y-258745027D01*
X436673342Y-258678440D01*
X437048388Y-257892141D01*
X437055626Y-257872679D01*
X437065054Y-257854175D01*
X437089290Y-257782159D01*
X437319166Y-256941871D01*
X437322843Y-256921434D01*
X437328845Y-256901555D01*
X437339945Y-256826386D01*
X437417122Y-255961640D01*
X437420000Y-255932419D01*
X437420000Y-197667581D01*
X437417629Y-197643511D01*
X437365662Y-196935855D01*
X437363143Y-196920475D01*
X437362654Y-196904903D01*
X437349198Y-196830119D01*
X437145829Y-195983025D01*
X437139207Y-195963349D01*
X437134889Y-195943033D01*
X437108403Y-195871814D01*
X436758240Y-195074122D01*
X436748237Y-195055926D01*
X436740390Y-195036698D01*
X436701711Y-194971295D01*
X436215823Y-194248218D01*
X436202757Y-194232083D01*
X436191629Y-194214548D01*
X436141991Y-194157043D01*
X436141978Y-194157027D01*
X436141972Y-194157022D01*
X435535725Y-193531422D01*
X435520006Y-193517854D01*
X435505950Y-193502568D01*
X435446898Y-193454749D01*
X434739440Y-192946389D01*
X434721566Y-192935818D01*
X434705026Y-192923264D01*
X434638440Y-192886658D01*
X433852140Y-192511612D01*
X433832681Y-192504375D01*
X433814175Y-192494946D01*
X433742159Y-192470710D01*
X432901871Y-192240834D01*
X432881436Y-192237157D01*
X432861556Y-192231155D01*
X432786386Y-192220055D01*
X431921640Y-192142878D01*
X431892419Y-192140000D01*
X351627581Y-192140000D01*
X351603511Y-192142371D01*
X350895855Y-192194338D01*
X350880475Y-192196857D01*
X350864903Y-192197346D01*
X350790119Y-192210802D01*
X349943025Y-192414171D01*
X349923349Y-192420793D01*
X349903033Y-192425111D01*
X349831814Y-192451597D01*
X349034122Y-192801760D01*
X349015926Y-192811763D01*
X348996698Y-192819610D01*
X348931295Y-192858289D01*
X348208218Y-193344177D01*
X348192083Y-193357243D01*
X348174548Y-193368371D01*
X348117043Y-193418009D01*
X348117027Y-193418022D01*
X348117022Y-193418028D01*
X347491422Y-194024275D01*
X347477854Y-194039994D01*
X347462568Y-194054050D01*
X347414749Y-194113102D01*
X346906389Y-194820560D01*
X346895818Y-194838434D01*
X346883264Y-194854974D01*
X346846658Y-194921560D01*
X346471612Y-195707860D01*
X346464375Y-195727319D01*
X346454946Y-195745825D01*
X346430710Y-195817841D01*
X346200834Y-196658129D01*
X346197157Y-196678564D01*
X346191155Y-196698444D01*
X346180055Y-196773614D01*
X346102877Y-197638371D01*
X346100000Y-197667582D01*
X127127000Y-197667582D01*
X127127000Y-189385331D01*
X127788090Y-189385331D01*
X127788090Y-189714669D01*
X127852340Y-190037678D01*
X127978372Y-190341947D01*
X128161342Y-190615781D01*
X128394219Y-190848658D01*
X128668053Y-191031628D01*
X128972322Y-191157660D01*
X129295331Y-191221910D01*
X129624669Y-191221910D01*
X129947678Y-191157660D01*
X130251947Y-191031628D01*
X130525781Y-190848658D01*
X130758658Y-190615781D01*
X130941628Y-190341947D01*
X131067660Y-190037678D01*
X131131910Y-189714669D01*
X131131910Y-189385331D01*
X131067660Y-189062322D01*
X130941628Y-188758053D01*
X130758658Y-188484219D01*
X130525781Y-188251342D01*
X130251947Y-188068372D01*
X129947678Y-187942340D01*
X129624669Y-187878090D01*
X129295331Y-187878090D01*
X128972322Y-187942340D01*
X128668053Y-188068372D01*
X128394219Y-188251342D01*
X128161342Y-188484219D01*
X127978372Y-188758053D01*
X127852340Y-189062322D01*
X127788090Y-189385331D01*
X127127000Y-189385331D01*
X127127000Y-186182000D01*
X135590000Y-186182000D01*
X135590001Y-191267571D01*
G37*
G04 #@! TD.AperFunction*
M02*
